<svg xmlns="http://www.w3.org/2000/svg" xmlns:xlink="http://www.w3.org/1999/xlink" xmlns:lucid="lucid" width="946" height="946"><g transform="translate(-140 -114)" lucid:page-tab-id="IzPD0848DiQ7"><path d="M241.77 398.23L320 320l20 160 40-60 20 100 20-20 20 60 20-20 20 60 20-20v40l40 100 80 100 132.13 69.7 185.4 29.9M241.8 398.2L240 400M937.47 919.6l2.53.4M260 957.5v-575M260 957.44V960M260 382.56V380M300 957.5v-615M300 957.44V960M300 342.56V340M540 957.5v-235M540 957.44V960M540 722.56V720M340 957.5v-475M340 957.44V960M340 482.56V480M500 957.5v-375M500 957.44V960M500 582.56V580M380 957.5v-535M380 957.44V960M380 422.56V420M580 957.5v-185M580 957.44V960M580 772.56V770M420 957.5v-455M420 957.44V960M420 502.56V500M460 957.5v-415M460 957.44V960M460 542.56V540M620 957.5v-135M620 957.44V960M620 822.56V820M660 957.5v-115M660 957.44V960M660 842.56V840M700 957.5v-95M700 957.44V960M700 862.56V860M740 957.5V885.8M740 957.44V960M740 885.87v-2.56M780 957.5v-60.8M780 957.44V960M780 896.77v-2.57M820 957.5v-55M820 957.44V960M820 902.57V900M860 957.5v-47.9M860 957.44V960M860 909.67v-2.57M900 957.5v-41.45M900 957.44V960M900 916.12v-2.57" stroke="#b391b5" stroke-width="5" fill="none"/><path d="M240 977.5V184.86M240 977.44V980" stroke="#19967d" stroke-width="5" fill="none"/><path d="M240 168.1l4.64 14.26h-9.28z" stroke="#19967d" stroke-width="5" fill="#19967d"/><path d="M222.5 960h792.64M222.56 960H220" stroke="#834187" stroke-width="5" fill="none"/><path d="M1031.9 960l-14.26 4.64v-9.28z" stroke="#834187" stroke-width="5" fill="#834187"/><path d="M520 960h240v60H520z" stroke="#000" stroke-opacity="0" stroke-width="2" fill="#fff" fill-opacity="0"/><use xlink:href="#a" transform="matrix(1,0,0,1,525,965) translate(80.18518518518519 30.708333333333336)"/><path d="M180 640V480h60v160z" stroke="#000" stroke-opacity="0" stroke-width="2" fill="#fff" fill-opacity="0"/><use xlink:href="#b" transform="matrix(6.123233995736766e-17,-1,1,6.123233995736766e-17,185,635) translate(15.85185185185184 30.708333333333336)"/><path d="M222.5 240h725.83M222.56 240H220" stroke="#0c7cba" stroke-width="5" fill="none"/><path d="M977.5 240c0 8.28-6.72 15-15 15-8.28 0-15-6.72-15-15 0-8.28 6.72-15 15-15 8.28 0 15 6.72 15 15z" stroke="#0c7cba" stroke-width="5" fill="#0c7cba"/><path d="M160 200h60v80h-60z" stroke="#000" stroke-opacity="0" stroke-width="2" fill="#fff" fill-opacity="0"/><use xlink:href="#c" transform="matrix(1,0,0,1,165,205) translate(17.59259259259259 41.020833333333336)"/><path d="M920 980h80v60h-80z" stroke="#000" stroke-opacity="0" stroke-width="2" fill="#fff" fill-opacity="0"/><use xlink:href="#c" transform="matrix(1,0,0,1,925,985) translate(27.59259259259259 30.708333333333336)"/><defs><path fill="#834187" d="M135-150c-39-12-60 13-60 57V0H25l-1-190h47c2 13-1 29 3 40 6-28 27-53 61-41v41" id="d"/><path fill="#834187" d="M185-48c-13 30-37 53-82 52C43 2 14-33 14-96s30-98 90-98c62 0 83 45 84 108H66c0 31 8 55 39 56 18 0 30-7 34-22zm-45-69c5-46-57-63-70-21-2 6-4 13-4 21h74" id="e"/><path fill="#834187" d="M190-63c-7 42-38 67-86 67-59 0-84-38-90-98-12-110 154-137 174-36l-49 2c-2-19-15-32-35-32-30 0-35 28-38 64-6 74 65 87 74 30" id="f"/><path fill="#834187" d="M133-34C117-15 103 5 69 4 32 3 11-16 11-54c-1-60 55-63 116-61 1-26-3-47-28-47-18 1-26 9-28 27l-52-2c7-38 36-58 82-57s74 22 75 68l1 82c-1 14 12 18 25 15v27c-30 8-71 5-69-32zm-48 3c29 0 43-24 42-57-32 0-66-3-65 30 0 17 8 27 23 27" id="g"/><path fill="#834187" d="M25 0v-261h50V0H25" id="h"/><g id="a"><use transform="matrix(0.07407407407407408,0,0,0.07407407407407408,0,0)" xlink:href="#d"/><use transform="matrix(0.07407407407407408,0,0,0.07407407407407408,10.370370370370372,0)" xlink:href="#e"/><use transform="matrix(0.07407407407407408,0,0,0.07407407407407408,25.185185185185187,0)" xlink:href="#f"/><use transform="matrix(0.07407407407407408,0,0,0.07407407407407408,40.00000000000001,0)" xlink:href="#g"/><use transform="matrix(0.07407407407407408,0,0,0.07407407407407408,54.814814814814824,0)" xlink:href="#h"/><use transform="matrix(0.07407407407407408,0,0,0.07407407407407408,62.22222222222223,0)" xlink:href="#h"/></g><path fill="#19967d" d="M135-194c53 0 70 44 70 98 0 56-19 98-73 100-31 1-45-17-59-34 3 33 2 69 2 105H25l-1-265h48c2 10 0 23 3 31 11-24 29-35 60-35zM114-30c33 0 39-31 40-66 0-38-9-64-40-64-56 0-55 130 0 130" id="i"/><path fill="#19967d" d="M135-150c-39-12-60 13-60 57V0H25l-1-190h47c2 13-1 29 3 40 6-28 27-53 61-41v41" id="j"/><path fill="#19967d" d="M185-48c-13 30-37 53-82 52C43 2 14-33 14-96s30-98 90-98c62 0 83 45 84 108H66c0 31 8 55 39 56 18 0 30-7 34-22zm-45-69c5-46-57-63-70-21-2 6-4 13-4 21h74" id="k"/><path fill="#19967d" d="M190-63c-7 42-38 67-86 67-59 0-84-38-90-98-12-110 154-137 174-36l-49 2c-2-19-15-32-35-32-30 0-35 28-38 64-6 74 65 87 74 30" id="l"/><path fill="#19967d" d="M25-224v-37h50v37H25zM25 0v-190h50V0H25" id="m"/><path fill="#19967d" d="M137-138c1-29-70-34-71-4 15 46 118 7 119 86 1 83-164 76-172 9l43-7c4 19 20 25 44 25 33 8 57-30 24-41C81-84 22-81 20-136c-2-80 154-74 161-7" id="n"/><path fill="#19967d" d="M110-194c64 0 96 36 96 99 0 64-35 99-97 99-61 0-95-36-95-99 0-62 34-99 96-99zm-1 164c35 0 45-28 45-65 0-40-10-65-43-65-34 0-45 26-45 65 0 36 10 65 43 65" id="o"/><path fill="#19967d" d="M135-194c87-1 58 113 63 194h-50c-7-57 23-157-34-157-59 0-34 97-39 157H25l-1-190h47c2 12-1 28 3 38 12-26 28-41 61-42" id="p"/><g id="b"><use transform="matrix(0.07407407407407408,0,0,0.07407407407407408,0,0)" xlink:href="#i"/><use transform="matrix(0.07407407407407408,0,0,0.07407407407407408,16.222222222222225,0)" xlink:href="#j"/><use transform="matrix(0.07407407407407408,0,0,0.07407407407407408,26.592592592592595,0)" xlink:href="#k"/><use transform="matrix(0.07407407407407408,0,0,0.07407407407407408,41.40740740740741,0)" xlink:href="#l"/><use transform="matrix(0.07407407407407408,0,0,0.07407407407407408,56.22222222222223,0)" xlink:href="#m"/><use transform="matrix(0.07407407407407408,0,0,0.07407407407407408,63.629629629629626,0)" xlink:href="#n"/><use transform="matrix(0.07407407407407408,0,0,0.07407407407407408,78.44444444444446,0)" xlink:href="#m"/><use transform="matrix(0.07407407407407408,0,0,0.07407407407407408,85.85185185185186,0)" xlink:href="#o"/><use transform="matrix(0.07407407407407408,0,0,0.07407407407407408,102.07407407407409,0)" xlink:href="#p"/></g><path fill="#0c7cba" d="M23 0v-37h61v-169l-59 37v-38l62-41h46v211h57V0H23" id="q"/><use transform="matrix(0.07407407407407408,0,0,0.07407407407407408,0,0)" xlink:href="#q" id="c"/></defs></g></svg>