<svg xmlns="http://www.w3.org/2000/svg" xmlns:xlink="http://www.w3.org/1999/xlink" xmlns:lucid="lucid" width="1400" height="1120"><g transform="translate(-20 -60)" lucid:page-tab-id="VIFg04Z~2dRp"><path d="M400 240h80v80h-80z" stroke="#000" stroke-width="2" fill="#fff"/><path d="M480 240h80v80h-80z" stroke="#000" stroke-width="2" fill="#0c7cba"/><path d="M560 240h80v80h-80zM640 240h80v80h-80zM720 240h80v80h-80zM800 240h80v80h-80zM880 240h80v80h-80zM960 240h80v80h-80zM1040 240h80v80h-80z" stroke="#000" stroke-width="2" fill="#fff"/><path d="M400 320h80v80h-80zM480 320h80v80h-80zM560 320h80v80h-80zM640 320h80v80h-80zM720 320h80v80h-80zM800 320h80v80h-80z" stroke="#000" stroke-width="2" fill="#0c7cba"/><path d="M880 320h80v80h-80z" stroke="#000" stroke-width="2" fill="#c92d39"/><path d="M960 320h80v80h-80zM1040 320h80v80h-80z" stroke="#000" stroke-width="2" fill="#0c7cba"/><path d="M400 400h80v80h-80z" stroke="#000" stroke-width="2" fill="#fff"/><path d="M480 400h80v80h-80z" stroke="#000" stroke-width="2" fill="#0c7cba"/><path d="M560 400h80v80h-80zM640 400h80v80h-80zM720 400h80v80h-80zM800 400h80v80h-80zM880 400h80v80h-80zM960 400h80v80h-80zM1040 400h80v80h-80zM400 480h80v80h-80z" stroke="#000" stroke-width="2" fill="#fff"/><path d="M480 480h80v80h-80z" stroke="#000" stroke-width="2" fill="#0c7cba"/><path d="M560 480h80v80h-80zM640 480h80v80h-80zM720 480h80v80h-80zM800 480h80v80h-80zM880 480h80v80h-80zM960 480h80v80h-80zM1040 480h80v80h-80zM400 560h80v80h-80z" stroke="#000" stroke-width="2" fill="#fff"/><path d="M480 560h80v80h-80z" stroke="#000" stroke-width="2" fill="#0c7cba"/><path d="M560 560h80v80h-80zM640 560h80v80h-80zM720 560h80v80h-80zM800 560h80v80h-80zM880 560h80v80h-80zM960 560h80v80h-80zM1040 560h80v80h-80zM400 640h80v80h-80z" stroke="#000" stroke-width="2" fill="#fff"/><path d="M480 640h80v80h-80z" stroke="#000" stroke-width="2" fill="#0c7cba"/><path d="M560 640h80v80h-80zM640 640h80v80h-80zM720 640h80v80h-80zM800 640h80v80h-80zM880 640h80v80h-80zM960 640h80v80h-80zM1040 640h80v80h-80zM400 720h80v80h-80z" stroke="#000" stroke-width="2" fill="#fff"/><path d="M480 720h80v80h-80z" stroke="#000" stroke-width="2" fill="#c92d39"/><path d="M560 720h80v80h-80zM640 720h80v80h-80zM720 720h80v80h-80zM800 720h80v80h-80zM880 720h80v80h-80zM960 720h80v80h-80zM1040 720h80v80h-80zM400 800h80v80h-80z" stroke="#000" stroke-width="2" fill="#fff"/><path d="M480 800h80v80h-80z" stroke="#000" stroke-width="2" fill="#0c7cba"/><path d="M560 800h80v80h-80zM640 800h80v80h-80zM720 800h80v80h-80zM800 800h80v80h-80zM880 800h80v80h-80zM960 800h80v80h-80zM1040 800h80v80h-80zM400 880h80v80h-80z" stroke="#000" stroke-width="2" fill="#fff"/><path d="M480 880h80v80h-80z" stroke="#000" stroke-width="2" fill="#0c7cba"/><path d="M560 880h80v80h-80zM640 880h80v80h-80zM720 880h80v80h-80zM800 880h80v80h-80zM880 880h80v80h-80zM960 880h80v80h-80zM1040 880h80v80h-80z" stroke="#000" stroke-width="2" fill="#fff"/><path d="M200 160h80v800h-80z" fill="none"/><path d="M280 960c-27.6 0-50-22.4-50-50V610c0-27.6-22.4-50-50-50 27.6 0 50-22.4 50-50V210c0-27.6 22.4-50 50-50" stroke="#000" stroke-width="2" fill="none"/><use xlink:href="#a" transform="matrix(1,0,0,1,160,165) translate(-36.95 398.59999999999997)"/><path d="M40 520h80v80H40z" stroke="#000" stroke-opacity="0" stroke-width="2" fill="#fff" fill-opacity="0"/><use xlink:href="#b" transform="matrix(1,0,0,1,45,525) translate(10.237962962962982 40.37916666666665)"/><use xlink:href="#c" transform="matrix(1,0,0,1,45,525) translate(41.484259259259254 40.37916666666665)"/><path d="M120 320h200v80H120z" stroke="#000" stroke-opacity="0" stroke-width="2" fill="#fff" fill-opacity="0"/><use xlink:href="#d" transform="matrix(1,0,0,1,125,325) translate(0 38.4625)"/><path d="M480 1160V960h80v200z" stroke="#000" stroke-opacity="0" stroke-width="2" fill="#fff" fill-opacity="0"/><use xlink:href="#d" transform="matrix(6.123233995736766e-17,-1,1,6.123233995736766e-17,485,1155) translate(0 38.4625)"/><path d="M880 1160V960h80v200z" stroke="#000" stroke-opacity="0" stroke-width="2" fill="#fff" fill-opacity="0"/><use xlink:href="#e" transform="matrix(6.123233995736766e-17,-1,1,6.123233995736766e-17,885,1155) translate(0 38.4625)"/><use xlink:href="#f" transform="matrix(6.123233995736766e-17,-1,1,6.123233995736766e-17,885,1155) translate(46.900000000000006 38.4625)"/><path d="M1120 80h280v80h-280z" stroke="#000" stroke-opacity="0" stroke-width="2" fill="#fff" fill-opacity="0"/><use xlink:href="#g" transform="matrix(1,0,0,1,1125,85) translate(14.84999999999998 27.525)"/><use xlink:href="#h" transform="matrix(1,0,0,1,1125,85) translate(29.84999999999998 27.525)"/><use xlink:href="#i" transform="matrix(1,0,0,1,1125,85) translate(51.749999999999986 27.525)"/><use xlink:href="#j" transform="matrix(1,0,0,1,1125,85) translate(114.6 27.525)"/><use xlink:href="#k" transform="matrix(1,0,0,1,1125,85) translate(216.35000000000002 27.525)"/><use xlink:href="#l" transform="matrix(1,0,0,1,1125,85) translate(33.67499999999998 49.125)"/><use xlink:href="#m" transform="matrix(1,0,0,1,1125,85) translate(102.57499999999999 49.125)"/><use xlink:href="#n" transform="matrix(1,0,0,1,1125,85) translate(139.475 49.125)"/><use xlink:href="#o" transform="matrix(1,0,0,1,1125,85) translate(186.375 49.125)"/><path d="M120 720h200v80H120z" stroke="#000" stroke-opacity="0" stroke-width="2" fill="#fff" fill-opacity="0"/><use xlink:href="#e" transform="matrix(1,0,0,1,125,725) translate(0 38.4625)"/><use xlink:href="#f" transform="matrix(1,0,0,1,125,725) translate(46.900000000000006 38.4625)"/><path d="M1259.98 161l-.5 24.43-1.56 24.68-2.52 24.02-3.46 23.4-4.35 22.83-5.25 22.32-6.1 21.85-6.96 21.42-7.83 21.02-8.68 20.65-9.56 20.32-10.44 19.97-11.36 19.65-12.28 19.36-13.25 19.06-14.22 18.75-15.26 18.46-16.32 18.12-17.42 17.78-18.55 17.42-19.72 17-20.9 16.6-22.15 16.08-23.4 15.54-24.67 14.94-25.95 14.26-27.2 13.5-28.48 12.67-29.7 11.75-30.85 10.75-31.96 9.65-33 8.46-33.94 7.22-34.77 5.87-35.47 4.48-36.07 3.03-36.4 1.52" stroke="#000" stroke-width="2" fill="none"/><path d="M1260.98 161.06l-2-.04.02-1.02h2z"/><path d="M564.24 759.97l14.2-4.8.1 9.28z" stroke="#000" stroke-width="2"/><path d="M1240 1000h160v80h-160z" stroke="#000" stroke-opacity="0" stroke-width="2" fill="#fff" fill-opacity="0"/><use xlink:href="#p" transform="matrix(1,0,0,1,1245,1005) translate(0.5499999999999972 38.4625)"/><use xlink:href="#q" transform="matrix(1,0,0,1,1245,1005) translate(95.5 38.4625)"/><path d="M320 240h80v80h-80zM320 400h80v80h-80z" stroke="#000" stroke-width="2" fill="#fff"/><path d="M320 320h80v80h-80z" stroke="#000" stroke-width="2" fill="#0c7cba"/><path d="M320 480h80v80h-80zM320 560h80v80h-80zM320 640h80v80h-80zM320 720h80v80h-80zM320 800h80v80h-80zM320 880h80v80h-80zM400 160h80v80h-80zM320 160h80v80h-80z" stroke="#000" stroke-width="2" fill="#fff"/><path d="M240.7 80.7l13.9 13.9m13.9 13.9l27.78 27.78m13.9 13.9l27.77 27.77m13.9 13.9l27.78 27.78m13.9 13.9l27.78 27.78m13.9 13.9L463 303m13.88 13.88l27.8 27.8m13.88 13.88l27.78 27.78m13.9 13.9l27.78 27.78m13.9 13.9l27.78 27.78m13.9 13.9l27.78 27.78m13.9 13.9l27.77 27.77m13.9 13.9l27.78 27.78m13.9 13.9l27.78 27.78m13.9 13.9l27.8 27.8m13.88 13.88l27.78 27.78m13.9 13.9l27.78 27.78m13.9 13.9l27.78 27.78m13.9 13.9l27.78 27.78m13.9 13.9l27.77 27.77m13.9 13.9l27.78 27.78m13.9 13.9l27.78 27.78m13.9 13.9l27.78 27.78m13.9 13.9l13.9 13.9M240.73 80.73L240 80M1199.27 1039.27l.73.73" stroke="#000" stroke-width="2" fill="none"/><path d="M480 160h80v80h-80z" stroke="#000" stroke-width="2" fill="#0c7cba"/><path d="M560 160h80v80h-80zM640 160h80v80h-80zM720 160h80v80h-80zM800 160h80v80h-80zM880 160h80v80h-80zM960 160h80v80h-80zM1040 160h80v80h-80z" stroke="#000" stroke-width="2" fill="#fff"/><path d="M1119 120.02l-8.2.17-9.04.56-8.87.93-8.7 1.28-8.53 1.62-8.37 1.96-8.2 2.3-8 2.6-7.84 2.9-7.66 3.23-7.47 3.5-7.28 3.8-7.1 4.1-6.86 4.37-6.68 4.63-6.45 4.9-6.23 5.15-6 5.4-5.76 5.64-5.5 5.86-5.27 6.1-5 6.3-4.74 6.53-4.47 6.72-4.2 6.93-3.9 7.1-3.63 7.3-3.33 7.5-3.04 7.65-2.72 7.83-2.42 8-2.1 8.16-1.76 8.33-1.44 8.5-1.1 8.66-.32 3.92" stroke="#000" stroke-width="2" fill="none"/><path d="M1120 121l-1 .02-.05-2 1.05-.02z"/><path d="M920.15 315.77l-4-14.46 9.27.43z" stroke="#000" stroke-width="2"/><g fill="none"><path d="M320 1080v-80h800v80z"/><path d="M1120 1000c0 27.6-22.4 50-50 50H770c-27.6 0-50 22.4-50 50 0-27.6-22.4-50-50-50H370c-27.6 0-50-22.4-50-50" stroke="#000" stroke-width="2"/></g><g><use xlink:href="#a" transform="matrix(6.123233995736766e-17,-1,1,6.123233995736766e-17,325,1120) translate(-36.95 398.59999999999997)"/></g><defs><path d="M25-224v-37h50v37H25zM25 0v-190h50V0H25" id="r"/><path d="M115-3C79 11 28 4 28-45v-112H4v-33h27l15-45h31v45h36v33H77v99c-1 23 16 31 38 25v30" id="s"/><path d="M185-48c-13 30-37 53-82 52C43 2 14-33 14-96s30-98 90-98c62 0 83 45 84 108H66c0 31 8 55 39 56 18 0 30-7 34-22zm-45-69c5-46-57-63-70-21-2 6-4 13-4 21h74" id="t"/><path d="M220-157c-53 9-28 100-34 157h-49v-107c1-27-5-49-29-50C55-147 81-57 75 0H25l-1-190h47c2 12-1 28 3 38 10-53 101-56 108 0 13-22 24-43 59-42 82 1 51 116 57 194h-49v-107c-1-25-5-48-29-50" id="u"/><path d="M137-138c1-29-70-34-71-4 15 46 118 7 119 86 1 83-164 76-172 9l43-7c4 19 20 25 44 25 33 8 57-30 24-41C81-84 22-81 20-136c-2-80 154-74 161-7" id="v"/><g id="a"><use transform="matrix(0.05,0,0,0.05,0,0)" xlink:href="#r"/><use transform="matrix(0.05,0,0,0.05,5,0)" xlink:href="#s"/><use transform="matrix(0.05,0,0,0.05,10.95,0)" xlink:href="#t"/><use transform="matrix(0.05,0,0,0.05,20.95,0)" xlink:href="#u"/><use transform="matrix(0.05,0,0,0.05,36.95,0)" xlink:href="#v"/></g><path d="M67-125c0 53 21 87 73 88 37 1 54-22 65-47l45 17C233-25 199 4 140 4 58 4 20-42 15-125 8-235 124-281 211-232c18 10 29 29 36 50l-46 12c-8-25-30-41-62-41-52 0-71 34-72 86" id="w"/><use transform="matrix(0.08703703703703697,0,0,0.08703703703703697,0,0)" xlink:href="#w" id="b"/><path d="M15-148v-39h180v39H15zm0 97v-39h180v39H15" id="x"/><use transform="matrix(0.08703703703703697,0,0,0.08703703703703697,0,0)" xlink:href="#x" id="c"/><path d="M88-194c31-1 46 15 58 34l-1-101h50l1 261h-48c-2-10 0-23-3-31C134-8 116 4 84 4 32 4 16-41 15-95c0-56 19-97 73-99zm17 164c33 0 40-30 41-66 1-37-9-64-41-64s-38 30-39 65c0 43 13 65 39 65" id="y"/><path d="M133-34C117-15 103 5 69 4 32 3 11-16 11-54c-1-60 55-63 116-61 1-26-3-47-28-47-18 1-26 9-28 27l-52-2c7-38 36-58 82-57s74 22 75 68l1 82c-1 14 12 18 25 15v27c-30 8-71 5-69-32zm-48 3c29 0 43-24 42-57-32 0-66-3-65 30 0 17 8 27 23 27" id="z"/><path d="M135-194c53 0 70 44 70 98 0 56-19 98-73 100-31 1-45-17-59-34 3 33 2 69 2 105H25l-1-265h48c2 10 0 23 3 31 11-24 29-35 60-35zM114-30c33 0 39-31 40-66 0-38-9-64-40-64-56 0-55 130 0 130" id="A"/><path d="M135-150c-39-12-60 13-60 57V0H25l-1-190h47c2 13-1 29 3 40 6-28 27-53 61-41v41" id="B"/><g id="d"><use transform="matrix(0.05,0,0,0.05,0,0)" xlink:href="#y"/><use transform="matrix(0.05,0,0,0.05,10.950000000000001,0)" xlink:href="#r"/><use transform="matrix(0.05,0,0,0.05,15.950000000000001,0)" xlink:href="#z"/><use transform="matrix(0.05,0,0,0.05,25.950000000000003,0)" xlink:href="#A"/><use transform="matrix(0.05,0,0,0.05,36.900000000000006,0)" xlink:href="#t"/><use transform="matrix(0.05,0,0,0.05,46.900000000000006,0)" xlink:href="#B"/><use transform="matrix(0.05,0,0,0.05,53.900000000000006,0)" xlink:href="#v"/></g><path d="M135-194c52 0 70 43 70 98 0 56-19 99-73 100-30 1-46-15-58-35L72 0H24l1-261h50v104c11-23 29-37 60-37zM114-30c31 0 40-27 40-66 0-37-7-63-39-63s-41 28-41 65c0 36 8 64 40 64" id="C"/><path d="M123 10C108 53 80 86 19 72V37c35 8 53-11 59-39L3-190h52l48 148c12-52 28-100 44-148h51" id="D"/><g id="e"><use transform="matrix(0.05,0,0,0.05,0,0)" xlink:href="#C"/><use transform="matrix(0.05,0,0,0.05,10.950000000000001,0)" xlink:href="#z"/><use transform="matrix(0.05,0,0,0.05,20.950000000000003,0)" xlink:href="#C"/><use transform="matrix(0.05,0,0,0.05,31.900000000000006,0)" xlink:href="#D"/></g><path d="M231 0h-52l-39-155L100 0H48L-1-190h46L77-45c9-52 24-97 36-145h53l37 145 32-145h46" id="E"/><g id="f"><use transform="matrix(0.05,0,0,0.05,0,0)" xlink:href="#E"/><use transform="matrix(0.05,0,0,0.05,14,0)" xlink:href="#r"/><use transform="matrix(0.05,0,0,0.05,19,0)" xlink:href="#A"/><use transform="matrix(0.05,0,0,0.05,29.950000000000003,0)" xlink:href="#t"/><use transform="matrix(0.05,0,0,0.05,39.95,0)" xlink:href="#v"/></g><path d="M160-152l-12 59h37v26h-43L128 0h-28l14-67H60L46 0H20l13-67H6v-26h33l13-59H15v-26h42l15-67h27l-15 67h54l15-67h27l-14 67h28v26h-34zm-81 0L66-93h55l12-59H79" id="F"/><use transform="matrix(0.05,0,0,0.05,0,0)" xlink:href="#F" id="g"/><path d="M110-194c64 0 96 36 96 99 0 64-35 99-97 99-61 0-95-36-95-99 0-62 34-99 96-99zm-1 164c35 0 45-28 45-65 0-40-10-65-43-65-34 0-45 26-45 65 0 36 10 65 43 65" id="G"/><path d="M121-226c-27-7-43 5-38 36h38v33H83V0H34v-157H6v-33h28c-9-59 32-81 87-68v32" id="H"/><g id="h"><use transform="matrix(0.05,0,0,0.05,0,0)" xlink:href="#G"/><use transform="matrix(0.05,0,0,0.05,10.950000000000001,0)" xlink:href="#H"/></g><path d="M25 0v-261h50V0H25" id="I"/><g id="i"><use transform="matrix(0.05,0,0,0.05,0,0)" xlink:href="#A"/><use transform="matrix(0.05,0,0,0.05,10.950000000000001,0)" xlink:href="#t"/><use transform="matrix(0.05,0,0,0.05,20.950000000000003,0)" xlink:href="#G"/><use transform="matrix(0.05,0,0,0.05,31.900000000000006,0)" xlink:href="#A"/><use transform="matrix(0.05,0,0,0.05,42.85000000000001,0)" xlink:href="#I"/><use transform="matrix(0.05,0,0,0.05,47.85000000000001,0)" xlink:href="#t"/></g><path d="M85 4C-2 5 27-109 22-190h50c7 57-23 150 33 157 60-5 35-97 40-157h50l1 190h-47c-2-12 1-28-3-38-12 25-28 42-61 42" id="J"/><path d="M190-63c-7 42-38 67-86 67-59 0-84-38-90-98-12-110 154-137 174-36l-49 2c-2-19-15-32-35-32-30 0-35 28-38 64-6 74 65 87 74 30" id="K"/><path d="M114-157C55-157 80-60 75 0H25v-261h50l-1 109c12-26 28-41 61-42 86-1 58 113 63 194h-50c-7-57 23-157-34-157" id="L"/><path d="M135-194c87-1 58 113 63 194h-50c-7-57 23-157-34-157-59 0-34 97-39 157H25l-1-190h47c2 12-1 28 3 38 12-26 28-41 61-42" id="M"/><path d="M195-6C206 82 75 100 31 46c-4-6-6-13-8-21l49-6c3 16 16 24 34 25 40 0 42-37 40-79-11 22-30 35-61 35-53 0-70-43-70-97 0-56 18-96 73-97 30 0 46 14 59 34l2-30h47zm-90-29c32 0 41-27 41-63 0-35-9-62-40-62-32 0-39 29-40 63 0 36 9 62 39 62" id="N"/><g id="j"><use transform="matrix(0.05,0,0,0.05,0,0)" xlink:href="#A"/><use transform="matrix(0.05,0,0,0.05,10.950000000000001,0)" xlink:href="#J"/><use transform="matrix(0.05,0,0,0.05,21.900000000000002,0)" xlink:href="#B"/><use transform="matrix(0.05,0,0,0.05,28.900000000000002,0)" xlink:href="#K"/><use transform="matrix(0.05,0,0,0.05,38.900000000000006,0)" xlink:href="#L"/><use transform="matrix(0.05,0,0,0.05,49.85000000000001,0)" xlink:href="#z"/><use transform="matrix(0.05,0,0,0.05,59.85,0)" xlink:href="#v"/><use transform="matrix(0.05,0,0,0.05,69.85000000000001,0)" xlink:href="#r"/><use transform="matrix(0.05,0,0,0.05,74.85000000000001,0)" xlink:href="#M"/><use transform="matrix(0.05,0,0,0.05,85.80000000000001,0)" xlink:href="#N"/></g><g id="k"><use transform="matrix(0.05,0,0,0.05,0,0)" xlink:href="#C"/><use transform="matrix(0.05,0,0,0.05,10.950000000000001,0)" xlink:href="#G"/><use transform="matrix(0.05,0,0,0.05,21.900000000000002,0)" xlink:href="#s"/><use transform="matrix(0.05,0,0,0.05,27.85,0)" xlink:href="#L"/></g><g id="l"><use transform="matrix(0.05,0,0,0.05,0,0)" xlink:href="#y"/><use transform="matrix(0.05,0,0,0.05,10.950000000000001,0)" xlink:href="#r"/><use transform="matrix(0.05,0,0,0.05,15.950000000000001,0)" xlink:href="#z"/><use transform="matrix(0.05,0,0,0.05,25.950000000000003,0)" xlink:href="#A"/><use transform="matrix(0.05,0,0,0.05,36.900000000000006,0)" xlink:href="#t"/><use transform="matrix(0.05,0,0,0.05,46.900000000000006,0)" xlink:href="#B"/><use transform="matrix(0.05,0,0,0.05,53.900000000000006,0)" xlink:href="#v"/></g><g id="m"><use transform="matrix(0.05,0,0,0.05,0,0)" xlink:href="#z"/><use transform="matrix(0.05,0,0,0.05,10,0)" xlink:href="#M"/><use transform="matrix(0.05,0,0,0.05,20.950000000000003,0)" xlink:href="#y"/></g><g id="n"><use transform="matrix(0.05,0,0,0.05,0,0)" xlink:href="#C"/><use transform="matrix(0.05,0,0,0.05,10.950000000000001,0)" xlink:href="#z"/><use transform="matrix(0.05,0,0,0.05,20.950000000000003,0)" xlink:href="#C"/><use transform="matrix(0.05,0,0,0.05,31.900000000000006,0)" xlink:href="#D"/></g><g id="o"><use transform="matrix(0.05,0,0,0.05,0,0)" xlink:href="#E"/><use transform="matrix(0.05,0,0,0.05,14,0)" xlink:href="#r"/><use transform="matrix(0.05,0,0,0.05,19,0)" xlink:href="#A"/><use transform="matrix(0.05,0,0,0.05,29.950000000000003,0)" xlink:href="#t"/><use transform="matrix(0.05,0,0,0.05,39.95,0)" xlink:href="#v"/></g><g id="p"><use transform="matrix(0.05,0,0,0.05,0,0)" xlink:href="#v"/><use transform="matrix(0.05,0,0,0.05,10,0)" xlink:href="#D"/><use transform="matrix(0.05,0,0,0.05,20,0)" xlink:href="#u"/><use transform="matrix(0.05,0,0,0.05,36,0)" xlink:href="#u"/><use transform="matrix(0.05,0,0,0.05,52,0)" xlink:href="#t"/><use transform="matrix(0.05,0,0,0.05,62,0)" xlink:href="#s"/><use transform="matrix(0.05,0,0,0.05,67.95,0)" xlink:href="#B"/><use transform="matrix(0.05,0,0,0.05,74.95,0)" xlink:href="#r"/><use transform="matrix(0.05,0,0,0.05,79.95,0)" xlink:href="#K"/></g><path d="M144 0l-44-69L55 0H2l70-98-66-92h53l41 62 40-62h54l-67 91 71 99h-54" id="O"/><g id="q"><use transform="matrix(0.05,0,0,0.05,0,0)" xlink:href="#u"/><use transform="matrix(0.05,0,0,0.05,16,0)" xlink:href="#z"/><use transform="matrix(0.05,0,0,0.05,26,0)" xlink:href="#s"/><use transform="matrix(0.05,0,0,0.05,31.950000000000003,0)" xlink:href="#B"/><use transform="matrix(0.05,0,0,0.05,38.95,0)" xlink:href="#r"/><use transform="matrix(0.05,0,0,0.05,43.95,0)" xlink:href="#O"/></g></defs></g></svg>