<svg xmlns="http://www.w3.org/2000/svg" xmlns:xlink="http://www.w3.org/1999/xlink" xmlns:lucid="lucid" width="760" height="760"><g transform="translate(-140 -180)" lucid:page-tab-id="VEEdqU9-XfjR"><path d="M880 540c0 143.6-53.73 260-120 260-66.27 0-120-116.4-120-260s53.73-260 120-260c66.27 0 120 116.4 120 260z" stroke="#c92d39" stroke-width="2" fill="#ffbbb1"/><path d="M400 540c0 143.6-53.73 260-120 260-66.27 0-120-116.4-120-260s53.73-260 120-260c66.27 0 120 116.4 120 260z" stroke="#0c7cba" stroke-width="2" fill="#b2d6ef"/><path d="M160 200h240v80H160z" stroke="#000" stroke-opacity="0" stroke-width="2" fill="#fff" fill-opacity="0"/><use xlink:href="#a" transform="matrix(1,0,0,1,165,205) translate(15.714506172839506 39.83055555555555)"/><use xlink:href="#b" transform="matrix(1,0,0,1,165,205) translate(130.30586419753087 39.83055555555555)"/><use xlink:href="#c" transform="matrix(1,0,0,1,165,205) translate(155.24413580246915 39.83055555555555)"/><use xlink:href="#d" transform="matrix(1,0,0,1,165,205) translate(185.1077160493827 39.83055555555555)"/><path d="M160 280h240v80H160z" stroke="#000" stroke-opacity="0" stroke-width="2" fill="#fff" fill-opacity="0"/><use xlink:href="#e" transform="matrix(1,0,0,1,165,285) translate(72.72962962962964 39.83055555555555)"/><use xlink:href="#f" transform="matrix(1,0,0,1,165,285) translate(95.11172839506173 39.83055555555555)"/><path d="M640 280h240v80H640z" stroke="#000" stroke-opacity="0" stroke-width="2" fill="#fff" fill-opacity="0"/><use xlink:href="#g" transform="matrix(1,0,0,1,645,285) translate(65.24814814814816 39.83055555555555)"/><use xlink:href="#h" transform="matrix(1,0,0,1,645,285) translate(90.12407407407409 39.83055555555555)"/><path d="M300 420c0 11.05-8.95 20-20 20s-20-8.95-20-20 8.95-20 20-20 20 8.95 20 20zM300 500c0 11.05-8.95 20-20 20s-20-8.95-20-20 8.95-20 20-20 20 8.95 20 20zM300 580c0 11.05-8.95 20-20 20s-20-8.95-20-20 8.95-20 20-20 20 8.95 20 20zM300 660c0 11.05-8.95 20-20 20s-20-8.95-20-20 8.95-20 20-20 20 8.95 20 20zM300 740c0 11.05-8.95 20-20 20s-20-8.95-20-20 8.95-20 20-20 20 8.95 20 20z" stroke="#0c7cba" stroke-width="2" fill="#0c7cba"/><path d="M780 460c0 11.05-8.95 20-20 20s-20-8.95-20-20 8.95-20 20-20 20 8.95 20 20zM780 540c0 11.05-8.95 20-20 20s-20-8.95-20-20 8.95-20 20-20 20 8.95 20 20zM780 620c0 11.05-8.95 20-20 20s-20-8.95-20-20 8.95-20 20-20 20 8.95 20 20zM780 700c0 11.05-8.95 20-20 20s-20-8.95-20-20 8.95-20 20-20 20 8.95 20 20z" stroke="#c92d39" stroke-width="2" fill="#c92d39"/><path d="M302 420.1l436 39.8" stroke="#000" stroke-width="2" fill="none"/><path d="M302.1 419.1l-.17 2-1.05-.1.12-.96-.03-1.05zM739.12 459l-.12.96.03 1.05-1.14-.1.17-2z"/><path d="M301.97 420.26l436.06 119.48" stroke="#000" stroke-width="2" fill="none"/><path d="M302.25 419.3l-.52 1.94-.85-.24.12-.96-.04-1.1zM739.12 539l-.12.96.04 1.1-1.3-.37.53-1.94z"/><path d="M302 499.9l436-39.8" stroke="#000" stroke-width="2" fill="none"/><path d="M302.1 500.9l-1.22.12.12-.98-.03-1.04.96-.1zM739 459.96l.03 1.04-.96.1-.18-2 1.22-.12z"/><path d="M302 500.1l436 39.8" stroke="#000" stroke-width="2" fill="none"/><path d="M302.1 499.1l-.17 2-1.05-.1.12-.96-.03-1.05zM739.12 539l-.12.96.03 1.05-1.14-.1.17-2z"/><path d="M301.97 579.74l436.06-119.48" stroke="#c92d39" stroke-width="2" fill="none"/><path d="M302.25 580.7l-1.38.37.13-1.03-.04-1.07.77-.2zM739 459.96l.04 1.07-.77.2-.52-1.92 1.38-.37z" fill="#c92d39"/><path d="M302 579.9l436-39.8" stroke="#000" stroke-width="2" fill="none"/><path d="M302.1 580.9l-1.22.12.12-.98-.03-1.04.96-.1zM739 539.96l.03 1.04-.96.1-.18-2 1.22-.12z"/><path d="M200 400h40v40h-40z" stroke="#000" stroke-opacity="0" stroke-width="2" fill="#fff" fill-opacity="0"/><use xlink:href="#i" transform="matrix(1,0,0,1,205,405) translate(4.401234567901238 19.830555555555552)"/><path d="M200 480h40v40h-40z" stroke="#000" stroke-opacity="0" stroke-width="2" fill="#fff" fill-opacity="0"/><use xlink:href="#j" transform="matrix(1,0,0,1,205,485) translate(4.401234567901238 19.830555555555552)"/><path d="M200 560h40v40h-40z" stroke="#000" stroke-opacity="0" stroke-width="2" fill="#fff" fill-opacity="0"/><use xlink:href="#k" transform="matrix(1,0,0,1,205,565) translate(4.401234567901238 19.830555555555552)"/><path d="M200 640h40v40h-40z" stroke="#000" stroke-opacity="0" stroke-width="2" fill="#fff" fill-opacity="0"/><use xlink:href="#l" transform="matrix(1,0,0,1,205,645) translate(4.401234567901238 19.830555555555552)"/><path d="M200 720h40v40h-40z" stroke="#000" stroke-opacity="0" stroke-width="2" fill="#fff" fill-opacity="0"/><use xlink:href="#m" transform="matrix(1,0,0,1,205,725) translate(4.401234567901238 19.830555555555552)"/><path d="M302 659.9l436-39.8" stroke="#000" stroke-width="2" fill="none"/><path d="M302.1 660.9l-1.22.12.12-.98-.03-1.04.96-.1zM739 619.96l.03 1.04-.96.1-.18-2 1.22-.12z"/><path d="M302 660.1l436 39.8" stroke="#c92d39" stroke-width="2" fill="none"/><path d="M302.1 659.1l-.17 2-1.05-.1.12-.96-.03-1.05zM739.12 699l-.12.96.03 1.05-1.14-.1.17-2z" fill="#c92d39"/><path d="M301.97 739.74l436.06-119.48" stroke="#000" stroke-width="2" fill="none"/><path d="M302.25 740.7l-1.38.37.13-1.03-.04-1.07.77-.2zM739 619.96l.04 1.07-.77.2-.52-1.92 1.38-.37z"/><path d="M302 739.9l436-39.8" stroke="#000" stroke-width="2" fill="none"/><path d="M302.1 740.9l-1.22.12.12-.98-.03-1.04.96-.1zM739 699.96l.03 1.04-.96.1-.18-2 1.22-.12z"/><path d="M800 440h40v40h-40z" stroke="#000" stroke-opacity="0" stroke-width="2" fill="#fff" fill-opacity="0"/><use xlink:href="#n" transform="matrix(1,0,0,1,805,445) translate(7.51851851851852 19.830555555555552)"/><path d="M800 520h40v40h-40z" stroke="#000" stroke-opacity="0" stroke-width="2" fill="#fff" fill-opacity="0"/><use xlink:href="#o" transform="matrix(1,0,0,1,805,525) translate(7.51851851851852 19.830555555555552)"/><path d="M800 600h40v40h-40z" stroke="#000" stroke-opacity="0" stroke-width="2" fill="#fff" fill-opacity="0"/><use xlink:href="#p" transform="matrix(1,0,0,1,805,605) translate(7.51851851851852 19.830555555555552)"/><path d="M800 680h40v40h-40z" stroke="#000" stroke-opacity="0" stroke-width="2" fill="#fff" fill-opacity="0"/><use xlink:href="#q" transform="matrix(1,0,0,1,805,685) translate(7.51851851851852 19.830555555555552)"/><path d="M680 660h40v40h-40z" stroke="#000" stroke-opacity="0" stroke-width="2" fill="#fff" fill-opacity="0"/><use xlink:href="#r" transform="matrix(1,0,0,1,685,665) translate(-0.5864197530864157 19.488888888888887)"/><path d="M320 520h40v40h-40z" stroke="#000" stroke-opacity="0" stroke-width="2" fill="#fff" fill-opacity="0"/><g><use xlink:href="#s" transform="matrix(1,0,0,1,325,525) translate(-0.5864197530864157 19.488888888888887)"/></g><path d="M160 840h720v80H160z" stroke="#000" stroke-width="2" fill="#834187"/><g><use xlink:href="#t" transform="matrix(1,0,0,1,165,845) translate(15.863888888888937 41.198611111111106)"/><use xlink:href="#u" transform="matrix(1,0,0,1,165,845) translate(88.83734567901239 41.198611111111106)"/><use xlink:href="#v" transform="matrix(1,0,0,1,165,845) translate(155.83549382716052 41.198611111111106)"/><use xlink:href="#w" transform="matrix(1,0,0,1,165,845) translate(251.1416666666667 41.198611111111106)"/><use xlink:href="#x" transform="matrix(1,0,0,1,165,845) translate(294.46265432098767 41.198611111111106)"/><use xlink:href="#y" transform="matrix(1,0,0,1,165,845) translate(458.4848765432099 41.198611111111106)"/><use xlink:href="#z" transform="matrix(1,0,0,1,165,845) translate(501.6564814814815 41.198611111111106)"/><use xlink:href="#A" transform="matrix(1,0,0,1,165,845) translate(579.2608024691358 41.198611111111106)"/></g><defs><path d="M212-179c-10-28-35-45-73-45-59 0-87 40-87 99 0 60 29 101 89 101 43 0 62-24 78-52l27 14C228-24 195 4 139 4 59 4 22-46 18-125c-6-104 99-153 187-111 19 9 31 26 39 46" id="B"/><path d="M100-194c62-1 85 37 85 99 1 63-27 99-86 99S16-35 15-95c0-66 28-99 85-99zM99-20c44 1 53-31 53-75 0-43-8-75-51-75s-53 32-53 75 10 74 51 75" id="C"/><path d="M115-194c53 0 69 39 70 98 0 66-23 100-70 100C84 3 66-7 56-30L54 0H23l1-261h32v101c10-23 28-34 59-34zm-8 174c40 0 45-34 45-75 0-40-5-75-45-74-42 0-51 32-51 76 0 43 10 73 51 73" id="D"/><path d="M141-36C126-15 110 5 73 4 37 3 15-17 15-53c-1-64 63-63 125-63 3-35-9-54-41-54-24 1-41 7-42 31l-33-3c5-37 33-52 76-52 45 0 72 20 72 64v82c-1 20 7 32 28 27v20c-31 9-61-2-59-35zM48-53c0 20 12 33 32 33 41-3 63-29 60-74-43 2-92-5-92 41" id="E"/><path d="M117-194c89-4 53 116 60 194h-32v-121c0-31-8-49-39-48C34-167 62-67 57 0H25l-1-190h30c1 10-1 24 2 32 11-22 29-35 61-36" id="F"/><path d="M177-190C167-65 218 103 67 71c-23-6-38-20-44-43l32-5c15 47 100 32 89-28v-30C133-14 115 1 83 1 29 1 15-40 15-95c0-56 16-97 71-98 29-1 48 16 59 35 1-10 0-23 2-32h30zM94-22c36 0 50-32 50-73 0-42-14-75-50-75-39 0-46 34-46 75s6 73 46 73" id="G"/><path d="M24 0v-261h32V0H24" id="H"/><path d="M84 4C-5 8 30-112 23-190h32v120c0 31 7 50 39 49 72-2 45-101 50-169h31l1 190h-30c-1-10 1-25-2-33-11 22-28 36-60 37" id="I"/><g id="a"><use transform="matrix(0.06234567901234567,0,0,0.06234567901234567,0,0)" xlink:href="#B"/><use transform="matrix(0.06234567901234567,0,0,0.06234567901234567,16.147530864197527,0)" xlink:href="#C"/><use transform="matrix(0.06234567901234567,0,0,0.06234567901234567,28.61666666666666,0)" xlink:href="#D"/><use transform="matrix(0.06234567901234567,0,0,0.06234567901234567,41.08580246913579,0)" xlink:href="#E"/><use transform="matrix(0.06234567901234567,0,0,0.06234567901234567,53.554938271604925,0)" xlink:href="#F"/><use transform="matrix(0.06234567901234567,0,0,0.06234567901234567,66.02407407407406,0)" xlink:href="#C"/><use transform="matrix(0.06234567901234567,0,0,0.06234567901234567,78.4932098765432,0)" xlink:href="#G"/><use transform="matrix(0.06234567901234567,0,0,0.06234567901234567,90.96234567901234,0)" xlink:href="#H"/><use transform="matrix(0.06234567901234567,0,0,0.06234567901234567,95.88765432098765,0)" xlink:href="#I"/></g><path d="M100-194c63 0 86 42 84 106H49c0 40 14 67 53 68 26 1 43-12 49-29l28 8c-11 28-37 45-77 45C44 4 14-33 15-96c1-61 26-98 85-98zm52 81c6-60-76-77-97-28-3 7-6 17-6 28h103" id="J"/><path d="M59-47c-2 24 18 29 38 22v24C64 9 27 4 27-40v-127H5v-23h24l9-43h21v43h35v23H59v120" id="K"/><g id="b"><use transform="matrix(0.06234567901234567,0,0,0.06234567901234567,0,0)" xlink:href="#J"/><use transform="matrix(0.06234567901234567,0,0,0.06234567901234567,12.469135802469133,0)" xlink:href="#K"/></g><path d="M33 0v-38h34V0H33" id="L"/><g id="c"><use transform="matrix(0.06234567901234567,0,0,0.06234567901234567,0,0)" xlink:href="#E"/><use transform="matrix(0.06234567901234567,0,0,0.06234567901234567,12.469135802469133,0)" xlink:href="#H"/><use transform="matrix(0.06234567901234567,0,0,0.06234567901234567,17.39444444444444,0)" xlink:href="#L"/></g><path d="M47-170H22l-4-78h33" id="M"/><path d="M27 0v-27h64v-190l-56 39v-29l58-41h29v221h61V0H27" id="N"/><path d="M126-127c33 6 58 20 58 59 0 88-139 92-164 29-3-8-5-16-6-25l32-3c6 27 21 44 54 44 32 0 52-15 52-46 0-38-36-46-79-43v-28c39 1 72-4 72-42 0-27-17-43-46-43-28 0-47 15-49 41l-32-3c6-42 35-63 81-64 48-1 79 21 79 65 0 36-21 52-52 59" id="O"/><g id="d"><use transform="matrix(0.06234567901234567,0,0,0.06234567901234567,0,0)" xlink:href="#M"/><use transform="matrix(0.06234567901234567,0,0,0.06234567901234567,4.239506172839505,0)" xlink:href="#N"/><use transform="matrix(0.06234567901234567,0,0,0.06234567901234567,16.708641975308637,0)" xlink:href="#O"/></g><path d="M175 0L67-191c6 58 2 128 3 191H24v-248h59L193-55c-6-58-2-129-3-193h46V0h-61" id="P"/><use transform="matrix(0.06234567901234567,0,0,0.06234567901234567,0,0)" xlink:href="#P" id="e"/><path d="M88-194c31-1 46 15 58 34l-1-101h50l1 261h-48c-2-10 0-23-3-31C134-8 116 4 84 4 32 4 16-41 15-95c0-56 19-97 73-99zm17 164c33 0 40-30 41-66 1-37-9-64-41-64s-38 30-39 65c0 43 13 65 39 65" id="Q"/><path d="M135-150c-39-12-60 13-60 57V0H25l-1-190h47c2 13-1 29 3 40 6-28 27-53 61-41v41" id="R"/><path d="M85 4C-2 5 27-109 22-190h50c7 57-23 150 33 157 60-5 35-97 40-157h50l1 190h-47c-2-12 1-28-3-38-12 25-28 42-61 42" id="S"/><path d="M195-6C206 82 75 100 31 46c-4-6-6-13-8-21l49-6c3 16 16 24 34 25 40 0 42-37 40-79-11 22-30 35-61 35-53 0-70-43-70-97 0-56 18-96 73-97 30 0 46 14 59 34l2-30h47zm-90-29c32 0 41-27 41-63 0-35-9-62-40-62-32 0-39 29-40 63 0 36 9 62 39 62" id="T"/><path d="M137-138c1-29-70-34-71-4 15 46 118 7 119 86 1 83-164 76-172 9l43-7c4 19 20 25 44 25 33 8 57-30 24-41C81-84 22-81 20-136c-2-80 154-74 161-7" id="U"/><g id="f"><use transform="matrix(0.06234567901234567,0,0,0.06234567901234567,0,0)" xlink:href="#Q"/><use transform="matrix(0.06234567901234567,0,0,0.06234567901234567,13.653703703703702,0)" xlink:href="#R"/><use transform="matrix(0.06234567901234567,0,0,0.06234567901234567,22.382098765432097,0)" xlink:href="#S"/><use transform="matrix(0.06234567901234567,0,0,0.06234567901234567,36.0358024691358,0)" xlink:href="#T"/><use transform="matrix(0.06234567901234567,0,0,0.06234567901234567,49.6895061728395,0)" xlink:href="#U"/></g><path d="M230 0l2-204L168 0h-37L68-204 70 0H24v-248h70l56 185 57-185h69V0h-46" id="V"/><use transform="matrix(0.06234567901234567,0,0,0.06234567901234567,0,0)" xlink:href="#V" id="g"/><path d="M115-3C79 11 28 4 28-45v-112H4v-33h27l15-45h31v45h36v33H77v99c-1 23 16 31 38 25v30" id="W"/><path d="M133-34C117-15 103 5 69 4 32 3 11-16 11-54c-1-60 55-63 116-61 1-26-3-47-28-47-18 1-26 9-28 27l-52-2c7-38 36-58 82-57s74 22 75 68l1 82c-1 14 12 18 25 15v27c-30 8-71 5-69-32zm-48 3c29 0 43-24 42-57-32 0-66-3-65 30 0 17 8 27 23 27" id="X"/><path d="M185-48c-13 30-37 53-82 52C43 2 14-33 14-96s30-98 90-98c62 0 83 45 84 108H66c0 31 8 55 39 56 18 0 30-7 34-22zm-45-69c5-46-57-63-70-21-2 6-4 13-4 21h74" id="Y"/><g id="h"><use transform="matrix(0.06234567901234567,0,0,0.06234567901234567,0,0)" xlink:href="#W"/><use transform="matrix(0.06234567901234567,0,0,0.06234567901234567,7.4191358024691345,0)" xlink:href="#X"/><use transform="matrix(0.06234567901234567,0,0,0.06234567901234567,19.888271604938268,0)" xlink:href="#R"/><use transform="matrix(0.06234567901234567,0,0,0.06234567901234567,28.61666666666666,0)" xlink:href="#T"/><use transform="matrix(0.06234567901234567,0,0,0.06234567901234567,42.27037037037036,0)" xlink:href="#Y"/><use transform="matrix(0.06234567901234567,0,0,0.06234567901234567,54.73950617283949,0)" xlink:href="#W"/><use transform="matrix(0.06234567901234567,0,0,0.06234567901234567,62.158641975308626,0)" xlink:href="#U"/></g><path fill="#0c7cba" d="M85-194c31 0 48 13 60 33l-1-100h32l1 261h-30c-2-10 0-23-3-31C134-8 116 4 85 4 32 4 16-35 15-94c0-66 23-100 70-100zm9 24c-40 0-46 34-46 75 0 40 6 74 45 74 42 0 51-32 51-76 0-42-9-74-50-73" id="Z"/><path fill="#0c7cba" d="M27 0v-27h64v-190l-56 39v-29l58-41h29v221h61V0H27" id="aa"/><g id="i"><use transform="matrix(0.06234567901234567,0,0,0.06234567901234567,0,0)" xlink:href="#Z"/><use transform="matrix(0.043641975308641966,0,0,0.043641975308641966,12.469135802469133,3.1422222222222214)" xlink:href="#aa"/></g><path fill="#0c7cba" d="M101-251c82-7 93 87 43 132L82-64C71-53 59-42 53-27h129V0H18c2-99 128-94 128-182 0-28-16-43-45-43s-46 15-49 41l-32-3c6-41 34-60 81-64" id="ab"/><g id="j"><use transform="matrix(0.06234567901234567,0,0,0.06234567901234567,0,0)" xlink:href="#Z"/><use transform="matrix(0.043641975308641966,0,0,0.043641975308641966,12.469135802469133,3.1422222222222214)" xlink:href="#ab"/></g><path fill="#0c7cba" d="M126-127c33 6 58 20 58 59 0 88-139 92-164 29-3-8-5-16-6-25l32-3c6 27 21 44 54 44 32 0 52-15 52-46 0-38-36-46-79-43v-28c39 1 72-4 72-42 0-27-17-43-46-43-28 0-47 15-49 41l-32-3c6-42 35-63 81-64 48-1 79 21 79 65 0 36-21 52-52 59" id="ac"/><g id="k"><use transform="matrix(0.06234567901234567,0,0,0.06234567901234567,0,0)" xlink:href="#Z"/><use transform="matrix(0.043641975308641966,0,0,0.043641975308641966,12.469135802469133,3.1422222222222214)" xlink:href="#ac"/></g><path fill="#0c7cba" d="M155-56V0h-30v-56H8v-25l114-167h33v167h35v25h-35zm-30-156c-27 46-58 90-88 131h88v-131" id="ad"/><g id="l"><use transform="matrix(0.06234567901234567,0,0,0.06234567901234567,0,0)" xlink:href="#Z"/><use transform="matrix(0.043641975308641966,0,0,0.043641975308641966,12.469135802469133,3.1422222222222214)" xlink:href="#ad"/></g><path fill="#0c7cba" d="M54-142c48-35 137-8 131 61C196 18 31 33 14-55l32-4c7 23 22 37 52 37 35-1 51-22 54-58 4-55-73-65-99-34H22l8-134h141v27H59" id="ae"/><g id="m"><use transform="matrix(0.06234567901234567,0,0,0.06234567901234567,0,0)" xlink:href="#Z"/><use transform="matrix(0.043641975308641966,0,0,0.043641975308641966,12.469135802469133,3.1422222222222214)" xlink:href="#ae"/></g><path fill="#c92d39" d="M59-47c-2 24 18 29 38 22v24C64 9 27 4 27-40v-127H5v-23h24l9-43h21v43h35v23H59v120" id="af"/><path fill="#c92d39" d="M27 0v-27h64v-190l-56 39v-29l58-41h29v221h61V0H27" id="ag"/><g id="n"><use transform="matrix(0.06234567901234567,0,0,0.06234567901234567,0,0)" xlink:href="#af"/><use transform="matrix(0.043641975308641966,0,0,0.043641975308641966,6.234567901234566,3.1422222222222214)" xlink:href="#ag"/></g><path fill="#c92d39" d="M101-251c82-7 93 87 43 132L82-64C71-53 59-42 53-27h129V0H18c2-99 128-94 128-182 0-28-16-43-45-43s-46 15-49 41l-32-3c6-41 34-60 81-64" id="ah"/><g id="o"><use transform="matrix(0.06234567901234567,0,0,0.06234567901234567,0,0)" xlink:href="#af"/><use transform="matrix(0.043641975308641966,0,0,0.043641975308641966,6.234567901234566,3.1422222222222214)" xlink:href="#ah"/></g><path fill="#c92d39" d="M126-127c33 6 58 20 58 59 0 88-139 92-164 29-3-8-5-16-6-25l32-3c6 27 21 44 54 44 32 0 52-15 52-46 0-38-36-46-79-43v-28c39 1 72-4 72-42 0-27-17-43-46-43-28 0-47 15-49 41l-32-3c6-42 35-63 81-64 48-1 79 21 79 65 0 36-21 52-52 59" id="ai"/><g id="p"><use transform="matrix(0.06234567901234567,0,0,0.06234567901234567,0,0)" xlink:href="#af"/><use transform="matrix(0.043641975308641966,0,0,0.043641975308641966,6.234567901234566,3.1422222222222214)" xlink:href="#ai"/></g><path fill="#c92d39" d="M155-56V0h-30v-56H8v-25l114-167h33v167h35v25h-35zm-30-156c-27 46-58 90-88 131h88v-131" id="aj"/><g id="q"><use transform="matrix(0.06234567901234567,0,0,0.06234567901234567,0,0)" xlink:href="#af"/><use transform="matrix(0.043641975308641966,0,0,0.043641975308641966,6.234567901234566,3.1422222222222214)" xlink:href="#aj"/></g><path fill="#c92d39" d="M101-251c68 0 85 55 85 127S166 4 100 4C33 4 14-52 14-124c0-73 17-127 87-127zm-1 229c47 0 54-49 54-102s-4-102-53-102c-51 0-55 48-55 102 0 53 5 102 54 102" id="ak"/><path fill="#c92d39" d="M33 0v-38h34V0H33" id="al"/><g id="r"><use transform="matrix(0.06234567901234567,0,0,0.06234567901234567,0,0)" xlink:href="#ak"/><use transform="matrix(0.06234567901234567,0,0,0.06234567901234567,12.469135802469133,0)" xlink:href="#al"/><use transform="matrix(0.06234567901234567,0,0,0.06234567901234567,18.7037037037037,0)" xlink:href="#ah"/></g><path fill="#c92d39" d="M99-251c64 0 84 50 84 122C183-37 130 33 47-8c-14-7-20-23-25-40l30-5c6 39 69 39 84 7 9-19 16-44 16-74-10 22-31 35-62 35-49 0-73-33-73-83 0-54 28-83 82-83zm-1 141c31-1 51-18 51-49 0-36-14-67-51-67-34 0-49 23-49 58 0 34 15 58 49 58" id="am"/><g id="s"><use transform="matrix(0.06234567901234567,0,0,0.06234567901234567,0,0)" xlink:href="#ak"/><use transform="matrix(0.06234567901234567,0,0,0.06234567901234567,12.469135802469133,0)" xlink:href="#al"/><use transform="matrix(0.06234567901234567,0,0,0.06234567901234567,18.7037037037037,0)" xlink:href="#am"/></g><path fill="#fff" d="M275 0h-61l-44-196L126 0H64L0-248h53L97-49l45-199h58l43 199 44-199h52" id="an"/><path fill="#fff" d="M114-157C55-157 80-60 75 0H25v-261h50l-1 109c12-26 28-41 61-42 86-1 58 113 63 194h-50c-7-57 23-157-34-157" id="ao"/><path fill="#fff" d="M133-34C117-15 103 5 69 4 32 3 11-16 11-54c-1-60 55-63 116-61 1-26-3-47-28-47-18 1-26 9-28 27l-52-2c7-38 36-58 82-57s74 22 75 68l1 82c-1 14 12 18 25 15v27c-30 8-71 5-69-32zm-48 3c29 0 43-24 42-57-32 0-66-3-65 30 0 17 8 27 23 27" id="ap"/><path fill="#fff" d="M115-3C79 11 28 4 28-45v-112H4v-33h27l15-45h31v45h36v33H77v99c-1 23 16 31 38 25v30" id="aq"/><g id="t"><use transform="matrix(0.07469135802469135,0,0,0.07469135802469135,0,0)" xlink:href="#an"/><use transform="matrix(0.07469135802469135,0,0,0.07469135802469135,25.320370370370366,0)" xlink:href="#ao"/><use transform="matrix(0.07469135802469135,0,0,0.07469135802469135,41.67777777777777,0)" xlink:href="#ap"/><use transform="matrix(0.07469135802469135,0,0,0.07469135802469135,56.61604938271604,0)" xlink:href="#aq"/></g><path fill="#fff" d="M88-194c31-1 46 15 58 34l-1-101h50l1 261h-48c-2-10 0-23-3-31C134-8 116 4 84 4 32 4 16-41 15-95c0-56 19-97 73-99zm17 164c33 0 40-30 41-66 1-37-9-64-41-64s-38 30-39 65c0 43 13 65 39 65" id="ar"/><path fill="#fff" d="M135-150c-39-12-60 13-60 57V0H25l-1-190h47c2 13-1 29 3 40 6-28 27-53 61-41v41" id="as"/><path fill="#fff" d="M85 4C-2 5 27-109 22-190h50c7 57-23 150 33 157 60-5 35-97 40-157h50l1 190h-47c-2-12 1-28-3-38-12 25-28 42-61 42" id="at"/><path fill="#fff" d="M195-6C206 82 75 100 31 46c-4-6-6-13-8-21l49-6c3 16 16 24 34 25 40 0 42-37 40-79-11 22-30 35-61 35-53 0-70-43-70-97 0-56 18-96 73-97 30 0 46 14 59 34l2-30h47zm-90-29c32 0 41-27 41-63 0-35-9-62-40-62-32 0-39 29-40 63 0 36 9 62 39 62" id="au"/><g id="u"><use transform="matrix(0.07469135802469135,0,0,0.07469135802469135,0,0)" xlink:href="#ar"/><use transform="matrix(0.07469135802469135,0,0,0.07469135802469135,16.357407407407404,0)" xlink:href="#as"/><use transform="matrix(0.07469135802469135,0,0,0.07469135802469135,26.81419753086419,0)" xlink:href="#at"/><use transform="matrix(0.07469135802469135,0,0,0.07469135802469135,43.1716049382716,0)" xlink:href="#au"/></g><path fill="#fff" d="M137-138c1-29-70-34-71-4 15 46 118 7 119 86 1 83-164 76-172 9l43-7c4 19 20 25 44 25 33 8 57-30 24-41C81-84 22-81 20-136c-2-80 154-74 161-7" id="av"/><path fill="#fff" d="M110-194c64 0 96 36 96 99 0 64-35 99-97 99-61 0-95-36-95-99 0-62 34-99 96-99zm-1 164c35 0 45-28 45-65 0-40-10-65-43-65-34 0-45 26-45 65 0 36 10 65 43 65" id="aw"/><path fill="#fff" d="M25 0v-261h50V0H25" id="ax"/><g id="v"><use transform="matrix(0.07469135802469135,0,0,0.07469135802469135,0,0)" xlink:href="#av"/><use transform="matrix(0.07469135802469135,0,0,0.07469135802469135,14.938271604938269,0)" xlink:href="#ao"/><use transform="matrix(0.07469135802469135,0,0,0.07469135802469135,31.295679012345673,0)" xlink:href="#aw"/><use transform="matrix(0.07469135802469135,0,0,0.07469135802469135,47.65308641975308,0)" xlink:href="#at"/><use transform="matrix(0.07469135802469135,0,0,0.07469135802469135,64.01049382716049,0)" xlink:href="#ax"/><use transform="matrix(0.07469135802469135,0,0,0.07469135802469135,71.47962962962963,0)" xlink:href="#ar"/></g><path fill="#fff" d="M231 0h-52l-39-155L100 0H48L-1-190h46L77-45c9-52 24-97 36-145h53l37 145 32-145h46" id="ay"/><path fill="#fff" d="M185-48c-13 30-37 53-82 52C43 2 14-33 14-96s30-98 90-98c62 0 83 45 84 108H66c0 31 8 55 39 56 18 0 30-7 34-22zm-45-69c5-46-57-63-70-21-2 6-4 13-4 21h74" id="az"/><g id="w"><use transform="matrix(0.07469135802469135,0,0,0.07469135802469135,0,0)" xlink:href="#ay"/><use transform="matrix(0.07469135802469135,0,0,0.07469135802469135,20.913580246913575,0)" xlink:href="#az"/></g><path fill="#fff" d="M142-158h-39l-4-90h48zm-75 0H28l-4-90h48" id="aA"/><path fill="#fff" d="M135-194c53 0 70 44 70 98 0 56-19 98-73 100-31 1-45-17-59-34 3 33 2 69 2 105H25l-1-265h48c2 10 0 23 3 31 11-24 29-35 60-35zM114-30c33 0 39-31 40-66 0-38-9-64-40-64-56 0-55 130 0 130" id="aB"/><g id="x"><use transform="matrix(0.07469135802469135,0,0,0.07469135802469135,0,0)" xlink:href="#aA"/><use transform="matrix(0.07469135802469135,0,0,0.07469135802469135,12.697530864197528,0)" xlink:href="#as"/><use transform="matrix(0.07469135802469135,0,0,0.07469135802469135,23.154320987654316,0)" xlink:href="#az"/><use transform="matrix(0.07469135802469135,0,0,0.07469135802469135,38.09259259259258,0)" xlink:href="#aB"/><use transform="matrix(0.07469135802469135,0,0,0.07469135802469135,54.44999999999999,0)" xlink:href="#at"/><use transform="matrix(0.07469135802469135,0,0,0.07469135802469135,70.8074074074074,0)" xlink:href="#as"/><use transform="matrix(0.07469135802469135,0,0,0.07469135802469135,81.26419753086418,0)" xlink:href="#aB"/><use transform="matrix(0.07469135802469135,0,0,0.07469135802469135,97.62160493827159,0)" xlink:href="#aw"/><use transform="matrix(0.07469135802469135,0,0,0.07469135802469135,113.979012345679,0)" xlink:href="#av"/><use transform="matrix(0.07469135802469135,0,0,0.07469135802469135,128.91728395061727,0)" xlink:href="#az"/><use transform="matrix(0.07469135802469135,0,0,0.07469135802469135,143.85555555555555,0)" xlink:href="#aA"/></g><path fill="#fff" d="M121-226c-27-7-43 5-38 36h38v33H83V0H34v-157H6v-33h28c-9-59 32-81 87-68v32" id="aC"/><g id="y"><use transform="matrix(0.07469135802469135,0,0,0.07469135802469135,0,0)" xlink:href="#aC"/><use transform="matrix(0.07469135802469135,0,0,0.07469135802469135,8.88827160493827,0)" xlink:href="#aw"/><use transform="matrix(0.07469135802469135,0,0,0.07469135802469135,25.245679012345676,0)" xlink:href="#as"/></g><path fill="#fff" d="M220-157c-53 9-28 100-34 157h-49v-107c1-27-5-49-29-50C55-147 81-57 75 0H25l-1-190h47c2 12-1 28 3 38 10-53 101-56 108 0 13-22 24-43 59-42 82 1 51 116 57 194h-49v-107c-1-25-5-48-29-50" id="aD"/><g id="z"><use transform="matrix(0.07469135802469135,0,0,0.07469135802469135,0,0)" xlink:href="#av"/><use transform="matrix(0.07469135802469135,0,0,0.07469135802469135,14.938271604938269,0)" xlink:href="#aw"/><use transform="matrix(0.07469135802469135,0,0,0.07469135802469135,31.295679012345673,0)" xlink:href="#aD"/><use transform="matrix(0.07469135802469135,0,0,0.07469135802469135,55.19691358024689,0)" xlink:href="#az"/></g><path fill="#fff" d="M25-224v-37h50v37H25zM25 0v-190h50V0H25" id="aE"/><path fill="#fff" d="M110-251c83-7 118 89 53 130-17 10-36 21-38 46H78c2-56 65-53 71-103 2-21-15-35-38-34-25 1-41 14-44 38l-50-2c6-48 39-70 93-75zM77 0v-47h51V0H77" id="aF"/><g id="A"><use transform="matrix(0.07469135802469135,0,0,0.07469135802469135,0,0)" xlink:href="#ar"/><use transform="matrix(0.07469135802469135,0,0,0.07469135802469135,16.357407407407404,0)" xlink:href="#aE"/><use transform="matrix(0.07469135802469135,0,0,0.07469135802469135,23.82654320987654,0)" xlink:href="#av"/><use transform="matrix(0.07469135802469135,0,0,0.07469135802469135,38.764814814814805,0)" xlink:href="#az"/><use transform="matrix(0.07469135802469135,0,0,0.07469135802469135,53.70308641975308,0)" xlink:href="#ap"/><use transform="matrix(0.07469135802469135,0,0,0.07469135802469135,68.64135802469134,0)" xlink:href="#av"/><use transform="matrix(0.07469135802469135,0,0,0.07469135802469135,83.57962962962962,0)" xlink:href="#az"/><use transform="matrix(0.07469135802469135,0,0,0.07469135802469135,98.51790123456787,0)" xlink:href="#aF"/></g></defs></g></svg>