<svg xmlns="http://www.w3.org/2000/svg" xmlns:xlink="http://www.w3.org/1999/xlink" xmlns:lucid="lucid" width="1360" height="912.9"><g transform="translate(-140 -140)" lucid:page-tab-id="hNAt4n~nDW7f"><path d="M400 160h800v800H400z" stroke="#000" stroke-width="5" fill="#fff"/><path d="M480 240h80v80h-80zM560 240h80v80h-80z" fill="#fff"/><path d="M640 240h80v80h-80zM720 240h80v80h-80z"/><path d="M800 240h80v80h-80zM880 240h80v80h-80z" fill="#fff"/><path d="M960 240h80v80h-80z" fill="#834187"/><path d="M1040 240h80v80h-80zM1120 240h80v80h-80zM480 320h80v80h-80zM560 320h80v80h-80z" fill="#fff"/><path d="M640 320h80v80h-80z"/><path d="M720 320h80v80h-80z" fill="#fff"/><path d="M800 320h80v80h-80z"/><path d="M880 320h80v80h-80z" fill="#fff"/><path d="M960 320h80v80h-80z" fill="#834187"/><path d="M1040 320h80v80h-80z" fill="#fff"/><path d="M1120 320h80v80h-80zM480 400h80v80h-80z"/><path d="M560 400h80v80h-80z" fill="#fff"/><path d="M640 400h80v80h-80zM720 400h80v80h-80z"/><path d="M800 400h80v80h-80z" fill="#fff"/><path d="M880 400h80v80h-80z"/><path d="M960 400h80v80h-80z" fill="#834187"/><path d="M1040 400h80v80h-80zM1120 400h80v80h-80z" fill="#fff"/><path d="M480 480h80v80h-80zM560 480h80v80h-80zM640 480h80v80h-80zM720 480h80v80h-80zM800 480h80v80h-80zM880 480h80v80h-80zM960 480h80v80h-80zM1040 480h80v80h-80zM1120 480h80v80h-80z" fill="#834187"/><path d="M480 560h80v80h-80z" fill="#fff"/><path d="M560 560h80v80h-80z"/><path d="M640 560h80v80h-80zM720 560h80v80h-80z" fill="#fff"/><path d="M800 560h80v80h-80zM880 560h80v80h-80z"/><path d="M960 560h80v80h-80z" fill="#834187"/><path d="M1040 560h80v80h-80zM1120 560h80v80h-80zM480 640h80v80h-80zM560 640h80v80h-80zM640 640h80v80h-80zM720 640h80v80h-80z" fill="#fff"/><path d="M800 640h80v80h-80zM880 640h80v80h-80z"/><path d="M960 640h80v80h-80z" fill="#834187"/><path d="M1040 640h80v80h-80zM1120 640h80v80h-80zM480 720h80v80h-80z"/><path d="M560 720h80v80h-80zM640 720h80v80h-80zM720 720h80v80h-80zM800 720h80v80h-80z" fill="#fff"/><path d="M880 720h80v80h-80z"/><path d="M960 720h80v80h-80z" fill="#834187"/><path d="M1040 720h80v80h-80z"/><path d="M1120 720h80v80h-80zM480 800h80v80h-80zM560 800h80v80h-80zM640 800h80v80h-80zM720 800h80v80h-80zM800 800h80v80h-80zM880 800h80v80h-80z" fill="#fff"/><path d="M960 800h80v80h-80z" fill="#834187"/><path d="M1040 800h80v80h-80z" fill="#fff"/><path d="M1120 800h80v80h-80zM480 880h80v80h-80z"/><path d="M560 880h80v80h-80zM640 880h80v80h-80zM720 880h80v80h-80zM800 880h80v80h-80zM880 880h80v80h-80z" fill="#fff"/><path d="M960 880h80v80h-80z" fill="#834187"/><path d="M1040 880h80v80h-80zM1120 880h80v80h-80z" fill="#fff"/><path d="M400 240h80v80h-80z"/><path d="M400 400h80v80h-80zM400 320h80v80h-80z" fill="#fff"/><path d="M400 480h80v80h-80z" fill="#834187"/><path d="M400 560h80v80h-80zM400 640h80v80h-80zM400 720h80v80h-80z" fill="#fff"/><path d="M400 800h80v80h-80z"/><path d="M400 880h80v80h-80z" fill="#fff"/><path d="M480 160h80v80h-80zM400 160h80v80h-80z"/><path d="M560 160h80v80h-80zM640 160h80v80h-80z" fill="#fff"/><path d="M720 160h80v80h-80z"/><path d="M800 160h80v80h-80zM880 160h80v80h-80z" fill="#fff"/><path d="M960 160h80v80h-80z" fill="#834187"/><path d="M1040 160h80v80h-80zM1120 160h80v80h-80z"/><path d="M160 480h240v80H160z" stroke="#000" stroke-opacity="0" stroke-width="2" fill="#fff" fill-opacity="0"/><use xlink:href="#a" transform="matrix(1,0,0,1,165,485) translate(26.535185185185313 44.483333333333285)"/><use xlink:href="#b" transform="matrix(1,0,0,1,165,485) translate(177.40925925925916 44.483333333333285)"/><path d="M1360 480h120v120h-120z" stroke="#000" stroke-opacity="0" stroke-width="2" fill="#fff" fill-opacity="0"/><use xlink:href="#c" transform="matrix(1,0,0,1,1365,485) translate(36.358024691358054 40.594444444444406)"/><use xlink:href="#d" transform="matrix(1,0,0,1,1365,485) translate(4.759876543209948 80.86111111111101)"/><path d="M1358.35 538.12l-1.2-1.4-3.14-3.2-3.43-3.15-3.8-3.12-4.17-3.1-4.65-3.04-5.18-3-5.82-3-6.58-2.92-7.47-2.86-8.54-2.75-9.84-2.6-11.4-2.34-13.23-2-2.57-.3-12.3-1.13-10.72-.52-9.83-.03-9.24.38-8.82.75-8.48 1.1-8.26 1.44-8.07 1.8-7.95 2.1-6.63 2.1M1358.3 538.07l1.7 1.93" stroke="#0c7cba" stroke-width="5" fill="none"/><path d="M1161.5 513.62l11.47-9.66 3.5 8.6z" stroke="#0c7cba" stroke-width="5" fill="#0c7cba"/><path d="M1419.58 602.47l-.58 3.45-1.68 7.87-2.77 10.74-4.58 15.14-7.67 21.95-12.83 32.33-20.67 46.36-29.34 59.1-32.96 60.1-28.82 47.74-21.6 32.67-15.42 21.3-11.04 14-8.1 9.4-6.1 6.53-4.74 4.65-3.76 3.4-3.04 2.52-1.22.95-4 2.92-4.1 2.73-4.22 2.57-4.32 2.38-4.42 2.2-4.5 2.03-4.6 1.85-4.7 1.64-4.76 1.44-4.83 1.25-4.88 1.04-4.94.85-5 .63-5.02.44-5.06.22h-5.08l-5.1-.2-5.08-.42-5.1-.63-5.08-.85-5.07-1.06-5.05-1.28-5-1.5-5-1.73-4.93-1.94-4.9-2.17-4.83-2.4-4.8-2.6-4.72-2.86-4.67-3.1-4.6-3.3-4.53-3.6-4.47-3.83-4.38-4.1-4.3-4.4-4.24-4.66-4.14-4.98-4.04-5.3-3.95-5.65-3.83-6.02-3.72-6.4-3.6-6.83-1-2.12M1419.57 602.53l.43-2.53" stroke="#0c7cba" stroke-width="5" fill="none"/><path d="M1001.74 927.48l9.7 11.44-8.57 3.52z" stroke="#0c7cba" stroke-width="5" fill="#0c7cba"/><defs><path fill="#0c7cba" d="M240-174c0 40-23 61-54 70L253 0h-59l-57-94H76V0H24v-248c93 4 217-23 216 74zM76-134c48-2 112 12 112-38 0-48-66-32-112-35v73" id="e"/><path fill="#0c7cba" d="M133-34C117-15 103 5 69 4 32 3 11-16 11-54c-1-60 55-63 116-61 1-26-3-47-28-47-18 1-26 9-28 27l-52-2c7-38 36-58 82-57s74 22 75 68l1 82c-1 14 12 18 25 15v27c-30 8-71 5-69-32zm-48 3c29 0 43-24 42-57-32 0-66-3-65 30 0 17 8 27 23 27" id="f"/><path fill="#0c7cba" d="M115-3C79 11 28 4 28-45v-112H4v-33h27l15-45h31v45h36v33H77v99c-1 23 16 31 38 25v30" id="g"/><path fill="#0c7cba" d="M25-224v-37h50v37H25zM25 0v-190h50V0H25" id="h"/><path fill="#0c7cba" d="M135-194c87-1 58 113 63 194h-50c-7-57 23-157-34-157-59 0-34 97-39 157H25l-1-190h47c2 12-1 28 3 38 12-26 28-41 61-42" id="i"/><path fill="#0c7cba" d="M195-6C206 82 75 100 31 46c-4-6-6-13-8-21l49-6c3 16 16 24 34 25 40 0 42-37 40-79-11 22-30 35-61 35-53 0-70-43-70-97 0-56 18-96 73-97 30 0 46 14 59 34l2-30h47zm-90-29c32 0 41-27 41-63 0-35-9-62-40-62-32 0-39 29-40 63 0 36 9 62 39 62" id="j"/><g id="a"><use transform="matrix(0.1240740740740739,0,0,0.1240740740740739,0,0)" xlink:href="#e"/><use transform="matrix(0.1240740740740739,0,0,0.1240740740740739,32.13518518518514,0)" xlink:href="#f"/><use transform="matrix(0.1240740740740739,0,0,0.1240740740740739,56.949999999999925,0)" xlink:href="#g"/><use transform="matrix(0.1240740740740739,0,0,0.1240740740740739,71.71481481481472,0)" xlink:href="#h"/><use transform="matrix(0.1240740740740739,0,0,0.1240740740740739,84.1222222222221,0)" xlink:href="#i"/><use transform="matrix(0.1240740740740739,0,0,0.1240740740740739,111.2944444444443,0)" xlink:href="#j"/></g><path d="M15-148v-39h180v39H15zm0 97v-39h180v39H15" id="k"/><use transform="matrix(0.1240740740740739,0,0,0.1240740740740739,0,0)" xlink:href="#k" id="b"/><path fill="#0c7cba" d="M117-194c89-4 53 116 60 194h-32v-121c0-31-8-49-39-48C34-167 62-67 57 0H25l-1-190h30c1 10-1 24 2 32 11-22 29-35 61-36" id="l"/><path fill="#0c7cba" d="M100-194c62-1 85 37 85 99 1 63-27 99-86 99S16-35 15-95c0-66 28-99 85-99zM99-20c44 1 53-31 53-75 0-43-8-75-51-75s-53 32-53 75 10 74 51 75" id="m"/><g id="c"><use transform="matrix(0.09320987654320974,0,0,0.09320987654320974,0,0)" xlink:href="#l"/><use transform="matrix(0.09320987654320974,0,0,0.09320987654320974,18.641975308641946,0)" xlink:href="#m"/></g><path fill="#0c7cba" d="M114-163C36-179 61-72 57 0H25l-1-190h30c1 12-1 29 2 39 6-27 23-49 58-41v29" id="n"/><path fill="#0c7cba" d="M141-36C126-15 110 5 73 4 37 3 15-17 15-53c-1-64 63-63 125-63 3-35-9-54-41-54-24 1-41 7-42 31l-33-3c5-37 33-52 76-52 45 0 72 20 72 64v82c-1 20 7 32 28 27v20c-31 9-61-2-59-35zM48-53c0 20 12 33 32 33 41-3 63-29 60-74-43 2-92-5-92 41" id="o"/><path fill="#0c7cba" d="M59-47c-2 24 18 29 38 22v24C64 9 27 4 27-40v-127H5v-23h24l9-43h21v43h35v23H59v120" id="p"/><path fill="#0c7cba" d="M24-231v-30h32v30H24zM24 0v-190h32V0H24" id="q"/><path fill="#0c7cba" d="M177-190C167-65 218 103 67 71c-23-6-38-20-44-43l32-5c15 47 100 32 89-28v-30C133-14 115 1 83 1 29 1 15-40 15-95c0-56 16-97 71-98 29-1 48 16 59 35 1-10 0-23 2-32h30zM94-22c36 0 50-32 50-73 0-42-14-75-50-75-39 0-46 34-46 75s6 73 46 73" id="r"/><path fill="#0c7cba" d="M135-143c-3-34-86-38-87 0 15 53 115 12 119 90S17 21 10-45l28-5c4 36 97 45 98 0-10-56-113-15-118-90-4-57 82-63 122-42 12 7 21 19 24 35" id="s"/><g id="d"><use transform="matrix(0.09320987654320974,0,0,0.09320987654320974,0,0)" xlink:href="#n"/><use transform="matrix(0.09320987654320974,0,0,0.09320987654320974,11.09197530864196,0)" xlink:href="#o"/><use transform="matrix(0.09320987654320974,0,0,0.09320987654320974,29.733950617283906,0)" xlink:href="#p"/><use transform="matrix(0.09320987654320974,0,0,0.09320987654320974,39.05493827160488,0)" xlink:href="#q"/><use transform="matrix(0.09320987654320974,0,0,0.09320987654320974,46.418518518518454,0)" xlink:href="#l"/><use transform="matrix(0.09320987654320974,0,0,0.09320987654320974,65.0604938271604,0)" xlink:href="#r"/><use transform="matrix(0.09320987654320974,0,0,0.09320987654320974,83.70246913580235,0)" xlink:href="#s"/></g></defs></g></svg>