<svg xmlns="http://www.w3.org/2000/svg" xmlns:xlink="http://www.w3.org/1999/xlink" xmlns:lucid="lucid" width="1400" height="920"><g transform="translate(-140 -140)" lucid:page-tab-id="4Dslzoai7RYd"><path d="M400 160h800v800H400z" stroke="#000" stroke-width="5" fill="#fff"/><path d="M480 240h80v80h-80zM560 240h80v80h-80z" fill="#fff"/><path d="M640 240h80v80h-80zM720 240h80v80h-80z"/><path d="M800 240h80v80h-80zM880 240h80v80h-80zM960 240h80v80h-80zM1040 240h80v80h-80zM1120 240h80v80h-80zM480 320h80v80h-80z" fill="#fff"/><use xlink:href="#a" transform="matrix(1,0,0,1,485,325) translate(25.46944444444445 40.379166666666656)"/><path d="M560 320h80v80h-80z" fill="#fff"/><use xlink:href="#a" transform="matrix(1,0,0,1,565,325) translate(25.46944444444445 40.379166666666656)"/><path d="M640 320h80v80h-80z" fill="#b2d6ef"/><path d="M720 320h80v80h-80z" fill="#fff"/><use xlink:href="#a" transform="matrix(1,0,0,1,725,325) translate(25.46944444444445 40.379166666666656)"/><path d="M800 320h80v80h-80z" fill="#b2d6ef"/><path d="M880 320h80v80h-80z" fill="#fff"/><use xlink:href="#a" transform="matrix(1,0,0,1,885,325) translate(25.46944444444445 40.379166666666656)"/><path d="M960 320h80v80h-80z" fill="#0c7cba"/><path d="M1040 320h80v80h-80z" fill="#fff"/><use xlink:href="#a" transform="matrix(1,0,0,1,1045,325) translate(25.46944444444445 40.379166666666656)"/><path d="M1120 320h80v80h-80z" fill="#c1e4f7"/><path d="M480 400h80v80h-80z"/><path d="M560 400h80v80h-80z" fill="#fff"/><path d="M640 400h80v80h-80zM720 400h80v80h-80z"/><path d="M800 400h80v80h-80z" fill="#fff"/><path d="M880 400h80v80h-80z"/><path d="M960 400h80v80h-80zM1040 400h80v80h-80zM1120 400h80v80h-80zM480 480h80v80h-80zM560 480h80v80h-80z" fill="#fff"/><path d="M640 480h80v80h-80z" fill="#b2d6ef"/><path d="M720 480h80v80h-80zM800 480h80v80h-80zM880 480h80v80h-80zM960 480h80v80h-80zM1040 480h80v80h-80z" fill="#fff"/><path d="M1120 480h80v80h-80z"/><path d="M480 560h80v80h-80z" fill="#fff"/><path d="M560 560h80v80h-80z" fill="#c1e4f7"/><path d="M640 560h80v80h-80zM720 560h80v80h-80z" fill="#fff"/><path d="M800 560h80v80h-80zM880 560h80v80h-80z" fill="#c1e4f7"/><path d="M960 560h80v80h-80zM1040 560h80v80h-80zM1120 560h80v80h-80zM480 640h80v80h-80zM560 640h80v80h-80zM640 640h80v80h-80zM720 640h80v80h-80z" fill="#fff"/><path d="M800 640h80v80h-80zM880 640h80v80h-80z"/><path d="M960 640h80v80h-80z" fill="#fff"/><path d="M1040 640h80v80h-80zM1120 640h80v80h-80zM480 720h80v80h-80z"/><path d="M560 720h80v80h-80zM640 720h80v80h-80zM720 720h80v80h-80zM800 720h80v80h-80z" fill="#fff"/><path d="M880 720h80v80h-80z"/><path d="M960 720h80v80h-80z" fill="#3aa6dd"/><path d="M1040 720h80v80h-80z"/><path d="M1120 720h80v80h-80zM480 800h80v80h-80zM560 800h80v80h-80zM640 800h80v80h-80zM720 800h80v80h-80zM800 800h80v80h-80zM880 800h80v80h-80zM960 800h80v80h-80zM1040 800h80v80h-80z" fill="#fff"/><path d="M1120 800h80v80h-80zM480 880h80v80h-80z"/><path d="M560 880h80v80h-80zM640 880h80v80h-80zM720 880h80v80h-80zM800 880h80v80h-80zM880 880h80v80h-80zM960 880h80v80h-80zM1040 880h80v80h-80zM1120 880h80v80h-80z" fill="#fff"/><path d="M400 240h80v80h-80z"/><path d="M400 400h80v80h-80zM400 320h80v80h-80z" fill="#fff"/><use xlink:href="#a" transform="matrix(1,0,0,1,405,325) translate(25.46944444444445 40.379166666666656)"/><path d="M400 480h80v80h-80z" fill="#b2d6ef"/><path d="M400 560h80v80h-80zM400 640h80v80h-80zM400 720h80v80h-80z" fill="#fff"/><path d="M400 800h80v80h-80z"/><path d="M400 880h80v80h-80z" fill="#fff"/><path d="M480 160h80v80h-80zM400 160h80v80h-80z"/><path d="M560 160h80v80h-80zM640 160h80v80h-80z" fill="#fff"/><path d="M720 160h80v80h-80z"/><path d="M800 160h80v80h-80zM880 160h80v80h-80zM960 160h80v80h-80z" fill="#fff"/><path d="M1040 160h80v80h-80zM1120 160h80v80h-80z"/><path d="M160 480h240v80H160z" stroke="#000" stroke-opacity="0" stroke-width="2" fill="#fff" fill-opacity="0"/><use xlink:href="#b" transform="matrix(1,0,0,1,165,485) translate(26.535185185185313 44.483333333333285)"/><use xlink:href="#c" transform="matrix(1,0,0,1,165,485) translate(177.40925925925916 44.483333333333285)"/><path d="M1280 160h240v160h-240z" stroke="#000" stroke-opacity="0" stroke-width="2" fill="#fff" fill-opacity="0"/><use xlink:href="#d" transform="matrix(1,0,0,1,1285,165) translate(47.372222222222234 43.94166666666666)"/><use xlink:href="#e" transform="matrix(1,0,0,1,1285,165) translate(153.20925925925923 43.94166666666666)"/><use xlink:href="#f" transform="matrix(1,0,0,1,1285,165) translate(34.14259259259262 81.54166666666666)"/><use xlink:href="#g" transform="matrix(1,0,0,1,1285,165) translate(133.27777777777777 81.54166666666666)"/><use xlink:href="#h" transform="matrix(1,0,0,1,1285,165) translate(159.38888888888886 81.54166666666666)"/><use xlink:href="#i" transform="matrix(1,0,0,1,1285,165) translate(68.08703703703705 119.14166666666665)"/><use xlink:href="#j" transform="matrix(1,0,0,1,1285,165) translate(142.85185185185185 119.14166666666665)"/><path d="M1277.5 239.94l-31.32-.75-109.67-4.6-20.84.4-15.1.93-11.8 1.23-9.6 1.42-8.04 1.53-6.87 1.6-5.96 1.68-5.24 1.7-4.65 1.72-4.15 1.74-3.75 1.77-3.4 1.8-3.1 1.78-2.87 1.82-2.64 1.83-2.45 1.85-2.28 1.88-2.12 1.92-2 1.94-1.85 2-1.76 2.02-1.65 2.08-1.57 2.15-1.47 2.2-1.4 2.3-1.3 2.4-1.23 2.47-1.15 2.6-1.08 2.72-1 2.87-.92 3.04-.36 1.4" stroke="#c1e4f7" stroke-width="5" fill="none"/><path d="M1280 237.5v5l-2.63-.06.12-5z" fill="#c1e4f7"/><path d="M1000.95 311.97l-2.92-14.72 9.2 1.1z" stroke="#c1e4f7" stroke-width="5" fill="#c1e4f7"/><path d="M1200 680V520h80v160z" stroke="#000" stroke-opacity="0" stroke-width="2" fill="#fff" fill-opacity="0"/><use xlink:href="#k" transform="matrix(6.123233995736766e-17,-1,1,6.123233995736766e-17,1205,675) translate(13.025000000000063 44.4833333333333)"/><path d="M680 960h240v80H680z" stroke="#000" stroke-opacity="0" stroke-width="2" fill="#fff" fill-opacity="0"/><use xlink:href="#l" transform="matrix(1,0,0,1,685,965) translate(39.43888888888898 44.4833333333333)"/><path d="M1360 800h80v80h-80z" stroke="#0c7cba" stroke-width="2" fill="#fff"/><use xlink:href="#a" transform="matrix(1,0,0,1,1365,805) translate(25.46944444444445 40.379166666666656)"/><path d="M1356.5 840.05l-11.35.25-17.26 1.1-22.93 2.44-35.8 5.36-136.7 24.13-19.34 2.06-14.06.88-10.97.24-8.93-.18-7.46-.46-6.37-.67-5.53-.8-4.86-.93-4.3-1-3.88-1.1-3.5-1.13-3.2-1.18-2.92-1.23-2.7-1.26-2.5-1.3-2.3-1.35-2.2-1.38-2.03-1.42-1.92-1.46-1.82-1.5-1.72-1.56-1.64-1.6-1.57-1.67-1.5-1.73-1.42-1.8-1.36-1.9-1.3-1.96-1.27-2.08-1.2-2.2-1.15-2.3-1.1-2.47-1.04-2.64-.98-2.83-.92-3.04-.84-3.3-.1-.43" stroke="#c1e4f7" stroke-width="5" fill="none"/><path d="M1359 842.5l-2.5.05-.12-5 2.62-.05z" fill="#c1e4f7"/><path d="M1000.83 808.05l6.08 13.7-9.22.96z" stroke="#c1e4f7" stroke-width="5" fill="#c1e4f7"/><path d="M1000 979v-38M1000 978.97V980M1000 941.03V940" stroke="#000" stroke-width="2" fill="none"/><path d="M960 980h80v40h-80z" stroke="#000" stroke-opacity="0" stroke-width="2" fill="#fff" fill-opacity="0"/><g><use xlink:href="#m" transform="matrix(1,0,0,1,965,985) translate(27.51851851851852 19.830555555555552)"/></g><path d="M1181 360h38M1181.03 360H1180M1218.97 360h1.03" stroke="#000" stroke-width="2" fill="none"/><path d="M1220 340h40v40h-40z" stroke="#000" stroke-opacity="0" stroke-width="2" fill="#fff" fill-opacity="0"/><g><use xlink:href="#n" transform="matrix(1,0,0,1,1225,345.00000000000006) translate(8.17314814814815 19.830555555555552)"/></g><defs><path fill="#0c7cba" d="M110-251c83-7 118 89 53 130-17 10-36 21-38 46H78c2-56 65-53 71-103 2-21-15-35-38-34-25 1-41 14-44 38l-50-2c6-48 39-70 93-75zM77 0v-47h51V0H77" id="o"/><use transform="matrix(0.087037037037037,0,0,0.087037037037037,0,0)" xlink:href="#o" id="a"/><path fill="#0c7cba" d="M240-174c0 40-23 61-54 70L253 0h-59l-57-94H76V0H24v-248c93 4 217-23 216 74zM76-134c48-2 112 12 112-38 0-48-66-32-112-35v73" id="p"/><path fill="#0c7cba" d="M133-34C117-15 103 5 69 4 32 3 11-16 11-54c-1-60 55-63 116-61 1-26-3-47-28-47-18 1-26 9-28 27l-52-2c7-38 36-58 82-57s74 22 75 68l1 82c-1 14 12 18 25 15v27c-30 8-71 5-69-32zm-48 3c29 0 43-24 42-57-32 0-66-3-65 30 0 17 8 27 23 27" id="q"/><path fill="#0c7cba" d="M115-3C79 11 28 4 28-45v-112H4v-33h27l15-45h31v45h36v33H77v99c-1 23 16 31 38 25v30" id="r"/><path fill="#0c7cba" d="M25-224v-37h50v37H25zM25 0v-190h50V0H25" id="s"/><path fill="#0c7cba" d="M135-194c87-1 58 113 63 194h-50c-7-57 23-157-34-157-59 0-34 97-39 157H25l-1-190h47c2 12-1 28 3 38 12-26 28-41 61-42" id="t"/><path fill="#0c7cba" d="M195-6C206 82 75 100 31 46c-4-6-6-13-8-21l49-6c3 16 16 24 34 25 40 0 42-37 40-79-11 22-30 35-61 35-53 0-70-43-70-97 0-56 18-96 73-97 30 0 46 14 59 34l2-30h47zm-90-29c32 0 41-27 41-63 0-35-9-62-40-62-32 0-39 29-40 63 0 36 9 62 39 62" id="u"/><g id="b"><use transform="matrix(0.1240740740740739,0,0,0.1240740740740739,0,0)" xlink:href="#p"/><use transform="matrix(0.1240740740740739,0,0,0.1240740740740739,32.13518518518514,0)" xlink:href="#q"/><use transform="matrix(0.1240740740740739,0,0,0.1240740740740739,56.949999999999925,0)" xlink:href="#r"/><use transform="matrix(0.1240740740740739,0,0,0.1240740740740739,71.71481481481472,0)" xlink:href="#s"/><use transform="matrix(0.1240740740740739,0,0,0.1240740740740739,84.1222222222221,0)" xlink:href="#t"/><use transform="matrix(0.1240740740740739,0,0,0.1240740740740739,111.2944444444443,0)" xlink:href="#u"/></g><path d="M15-148v-39h180v39H15zm0 97v-39h180v39H15" id="v"/><use transform="matrix(0.1240740740740739,0,0,0.1240740740740739,0,0)" xlink:href="#v" id="c"/><path d="M240-174c0 40-23 61-54 70L253 0h-59l-57-94H76V0H24v-248c93 4 217-23 216 74zM76-134c48-2 112 12 112-38 0-48-66-32-112-35v73" id="w"/><path d="M133-34C117-15 103 5 69 4 32 3 11-16 11-54c-1-60 55-63 116-61 1-26-3-47-28-47-18 1-26 9-28 27l-52-2c7-38 36-58 82-57s74 22 75 68l1 82c-1 14 12 18 25 15v27c-30 8-71 5-69-32zm-48 3c29 0 43-24 42-57-32 0-66-3-65 30 0 17 8 27 23 27" id="x"/><path d="M115-3C79 11 28 4 28-45v-112H4v-33h27l15-45h31v45h36v33H77v99c-1 23 16 31 38 25v30" id="y"/><path d="M25-224v-37h50v37H25zM25 0v-190h50V0H25" id="z"/><path d="M135-194c87-1 58 113 63 194h-50c-7-57 23-157-34-157-59 0-34 97-39 157H25l-1-190h47c2 12-1 28 3 38 12-26 28-41 61-42" id="A"/><path d="M195-6C206 82 75 100 31 46c-4-6-6-13-8-21l49-6c3 16 16 24 34 25 40 0 42-37 40-79-11 22-30 35-61 35-53 0-70-43-70-97 0-56 18-96 73-97 30 0 46 14 59 34l2-30h47zm-90-29c32 0 41-27 41-63 0-35-9-62-40-62-32 0-39 29-40 63 0 36 9 62 39 62" id="B"/><g id="d"><use transform="matrix(0.08703703703703701,0,0,0.08703703703703701,0,0)" xlink:href="#w"/><use transform="matrix(0.08703703703703701,0,0,0.08703703703703701,22.542592592592584,0)" xlink:href="#x"/><use transform="matrix(0.08703703703703701,0,0,0.08703703703703701,39.94999999999999,0)" xlink:href="#y"/><use transform="matrix(0.08703703703703701,0,0,0.08703703703703701,50.30740740740739,0)" xlink:href="#z"/><use transform="matrix(0.08703703703703701,0,0,0.08703703703703701,59.011111111111106,0)" xlink:href="#A"/><use transform="matrix(0.08703703703703701,0,0,0.08703703703703701,78.07222222222221,0)" xlink:href="#B"/></g><path d="M110-194c64 0 96 36 96 99 0 64-35 99-97 99-61 0-95-36-95-99 0-62 34-99 96-99zm-1 164c35 0 45-28 45-65 0-40-10-65-43-65-34 0-45 26-45 65 0 36 10 65 43 65" id="C"/><path d="M121-226c-27-7-43 5-38 36h38v33H83V0H34v-157H6v-33h28c-9-59 32-81 87-68v32" id="D"/><g id="e"><use transform="matrix(0.08703703703703701,0,0,0.08703703703703701,0,0)" xlink:href="#C"/><use transform="matrix(0.08703703703703701,0,0,0.08703703703703701,19.061111111111106,0)" xlink:href="#D"/></g><path d="M220-157c-53 9-28 100-34 157h-49v-107c1-27-5-49-29-50C55-147 81-57 75 0H25l-1-190h47c2 12-1 28 3 38 10-53 101-56 108 0 13-22 24-43 59-42 82 1 51 116 57 194h-49v-107c-1-25-5-48-29-50" id="E"/><path d="M128 0H69L1-190h53L99-40l48-150h52" id="F"/><path d="M185-48c-13 30-37 53-82 52C43 2 14-33 14-96s30-98 90-98c62 0 83 45 84 108H66c0 31 8 55 39 56 18 0 30-7 34-22zm-45-69c5-46-57-63-70-21-2 6-4 13-4 21h74" id="G"/><g id="f"><use transform="matrix(0.08703703703703701,0,0,0.08703703703703701,0,0)" xlink:href="#E"/><use transform="matrix(0.08703703703703701,0,0,0.08703703703703701,27.851851851851844,0)" xlink:href="#C"/><use transform="matrix(0.08703703703703701,0,0,0.08703703703703701,46.91296296296295,0)" xlink:href="#F"/><use transform="matrix(0.08703703703703701,0,0,0.08703703703703701,64.32037037037036,0)" xlink:href="#z"/><use transform="matrix(0.08703703703703701,0,0,0.08703703703703701,73.02407407407405,0)" xlink:href="#G"/></g><path fill="#834187" d="M128 0H69L1-190h53L99-40l48-150h52" id="H"/><use transform="matrix(0.08703703703703701,0,0,0.08703703703703701,0,0)" xlink:href="#H" id="g"/><path d="M135-194c52 0 70 43 70 98 0 56-19 99-73 100-30 1-46-15-58-35L72 0H24l1-261h50v104c11-23 29-37 60-37zM114-30c31 0 40-27 40-66 0-37-7-63-39-63s-41 28-41 65c0 36 8 64 40 64" id="I"/><path d="M123 10C108 53 80 86 19 72V37c35 8 53-11 59-39L3-190h52l48 148c12-52 28-100 44-148h51" id="J"/><g id="h"><use transform="matrix(0.08703703703703701,0,0,0.08703703703703701,0,0)" xlink:href="#I"/><use transform="matrix(0.08703703703703701,0,0,0.08703703703703701,19.061111111111106,0)" xlink:href="#J"/></g><path d="M85 4C-2 5 27-109 22-190h50c7 57-23 150 33 157 60-5 35-97 40-157h50l1 190h-47c-2-12 1-28-3-38-12 25-28 42-61 42" id="K"/><path d="M137-138c1-29-70-34-71-4 15 46 118 7 119 86 1 83-164 76-172 9l43-7c4 19 20 25 44 25 33 8 57-30 24-41C81-84 22-81 20-136c-2-80 154-74 161-7" id="L"/><path d="M135-150c-39-12-60 13-60 57V0H25l-1-190h47c2 13-1 29 3 40 6-28 27-53 61-41v41" id="M"/><g id="i"><use transform="matrix(0.08703703703703701,0,0,0.08703703703703701,0,0)" xlink:href="#K"/><use transform="matrix(0.08703703703703701,0,0,0.08703703703703701,19.061111111111106,0)" xlink:href="#L"/><use transform="matrix(0.08703703703703701,0,0,0.08703703703703701,36.46851851851851,0)" xlink:href="#G"/><use transform="matrix(0.08703703703703701,0,0,0.08703703703703701,53.87592592592591,0)" xlink:href="#M"/></g><path fill="#7ab648" d="M85 4C-2 5 27-109 22-190h50c7 57-23 150 33 157 60-5 35-97 40-157h50l1 190h-47c-2-12 1-28-3-38-12 25-28 42-61 42" id="N"/><use transform="matrix(0.08703703703703701,0,0,0.08703703703703701,0,0)" xlink:href="#N" id="j"/><path fill="#7ab648" d="M238-95c0 69-44 99-111 99C63 4 22-25 22-93v-155h51v151c-1 38 19 59 55 60 90 1 49-130 58-211h52v153" id="O"/><path fill="#7ab648" d="M137-138c1-29-70-34-71-4 15 46 118 7 119 86 1 83-164 76-172 9l43-7c4 19 20 25 44 25 33 8 57-30 24-41C81-84 22-81 20-136c-2-80 154-74 161-7" id="P"/><path fill="#7ab648" d="M185-48c-13 30-37 53-82 52C43 2 14-33 14-96s30-98 90-98c62 0 83 45 84 108H66c0 31 8 55 39 56 18 0 30-7 34-22zm-45-69c5-46-57-63-70-21-2 6-4 13-4 21h74" id="Q"/><path fill="#7ab648" d="M135-150c-39-12-60 13-60 57V0H25l-1-190h47c2 13-1 29 3 40 6-28 27-53 61-41v41" id="R"/><g id="k"><use transform="matrix(0.12407407407407395,0,0,0.12407407407407395,0,0)" xlink:href="#O"/><use transform="matrix(0.12407407407407395,0,0,0.12407407407407395,32.13518518518515,0)" xlink:href="#P"/><use transform="matrix(0.12407407407407395,0,0,0.12407407407407395,56.94999999999994,0)" xlink:href="#Q"/><use transform="matrix(0.12407407407407395,0,0,0.12407407407407395,81.76481481481473,0)" xlink:href="#R"/><use transform="matrix(0.12407407407407395,0,0,0.12407407407407395,99.13518518518508,0)" xlink:href="#P"/></g><path fill="#834187" d="M230 0l2-204L168 0h-37L68-204 70 0H24v-248h70l56 185 57-185h69V0h-46" id="S"/><path fill="#834187" d="M110-194c64 0 96 36 96 99 0 64-35 99-97 99-61 0-95-36-95-99 0-62 34-99 96-99zm-1 164c35 0 45-28 45-65 0-40-10-65-43-65-34 0-45 26-45 65 0 36 10 65 43 65" id="T"/><path fill="#834187" d="M25-224v-37h50v37H25zM25 0v-190h50V0H25" id="U"/><path fill="#834187" d="M185-48c-13 30-37 53-82 52C43 2 14-33 14-96s30-98 90-98c62 0 83 45 84 108H66c0 31 8 55 39 56 18 0 30-7 34-22zm-45-69c5-46-57-63-70-21-2 6-4 13-4 21h74" id="V"/><path fill="#834187" d="M137-138c1-29-70-34-71-4 15 46 118 7 119 86 1 83-164 76-172 9l43-7c4 19 20 25 44 25 33 8 57-30 24-41C81-84 22-81 20-136c-2-80 154-74 161-7" id="W"/><g id="l"><use transform="matrix(0.12407407407407395,0,0,0.12407407407407395,0,0)" xlink:href="#S"/><use transform="matrix(0.12407407407407395,0,0,0.12407407407407395,37.09814814814811,0)" xlink:href="#T"/><use transform="matrix(0.12407407407407395,0,0,0.12407407407407395,64.2703703703703,0)" xlink:href="#H"/><use transform="matrix(0.12407407407407395,0,0,0.12407407407407395,89.08518518518508,0)" xlink:href="#U"/><use transform="matrix(0.12407407407407395,0,0,0.12407407407407395,101.49259259259247,0)" xlink:href="#V"/><use transform="matrix(0.12407407407407395,0,0,0.12407407407407395,126.30740740740725,0)" xlink:href="#W"/></g><path d="M147 0H94L2-248h55l64 206c17-72 42-137 63-206h54" id="X"/><use transform="matrix(0.06234567901234567,0,0,0.06234567901234567,0,0)" xlink:href="#X" id="m"/><use transform="matrix(0.06234567901234567,0,0,0.06234567901234567,0,0)" xlink:href="#K" id="n"/></defs></g></svg>