<svg xmlns="http://www.w3.org/2000/svg" xmlns:xlink="http://www.w3.org/1999/xlink" xmlns:lucid="lucid" width="2080" height="1160"><g transform="translate(-140 -140)" lucid:page-tab-id="p4ep8_bqw-9c"><path d="M400 160h800v800H400z" stroke="#000" stroke-width="5" fill="#fff"/><path d="M480 240h80v80h-80zM560 240h80v80h-80z" fill="#fff"/><path d="M640 240h80v80h-80zM720 240h80v80h-80z" fill="#c1e4f7"/><path d="M800 240h80v80h-80zM880 240h80v80h-80zM960 240h80v80h-80zM1040 240h80v80h-80zM1120 240h80v80h-80zM480 320h80v80h-80zM560 320h80v80h-80z" fill="#fff"/><path d="M640 320h80v80h-80z" fill="#c1e4f7"/><path d="M720 320h80v80h-80z" fill="#fff"/><path d="M800 320h80v80h-80z" fill="#c1e4f7"/><path d="M880 320h80v80h-80z" fill="#fff"/><path d="M960 320h80v80h-80z" fill="#c1e4f7"/><path d="M1040 320h80v80h-80z" fill="#fff"/><path d="M1120 320h80v80h-80zM480 400h80v80h-80z" fill="#c1e4f7"/><path d="M560 400h80v80h-80z" fill="#fff"/><path d="M640 400h80v80h-80zM720 400h80v80h-80z" fill="#c1e4f7"/><path d="M800 400h80v80h-80z" fill="#fff"/><path d="M880 400h80v80h-80z" fill="#c1e4f7"/><path d="M960 400h80v80h-80zM1040 400h80v80h-80zM1120 400h80v80h-80zM480 480h80v80h-80zM560 480h80v80h-80z" fill="#fff"/><path d="M640 480h80v80h-80z" fill="#c1e4f7"/><path d="M720 480h80v80h-80zM800 480h80v80h-80zM880 480h80v80h-80zM960 480h80v80h-80zM1040 480h80v80h-80z" fill="#fff"/><path d="M1120 480h80v80h-80z" fill="#c1e4f7"/><path d="M480 560h80v80h-80z" fill="#fff"/><path d="M560 560h80v80h-80z" fill="#c1e4f7"/><path d="M640 560h80v80h-80zM720 560h80v80h-80z" fill="#fff"/><path d="M800 560h80v80h-80zM880 560h80v80h-80z" fill="#c1e4f7"/><path d="M960 560h80v80h-80zM1040 560h80v80h-80zM1120 560h80v80h-80zM480 640h80v80h-80zM560 640h80v80h-80zM640 640h80v80h-80zM720 640h80v80h-80z" fill="#fff"/><path d="M800 640h80v80h-80zM880 640h80v80h-80z" fill="#c1e4f7"/><path d="M960 640h80v80h-80z" fill="#fff"/><path d="M1040 640h80v80h-80zM1120 640h80v80h-80zM480 720h80v80h-80z" fill="#c1e4f7"/><path d="M560 720h80v80h-80zM640 720h80v80h-80zM720 720h80v80h-80zM800 720h80v80h-80z" fill="#fff"/><path d="M880 720h80v80h-80z" fill="#c1e4f7"/><path d="M960 720h80v80h-80z" fill="#fff"/><path d="M1040 720h80v80h-80z" fill="#c1e4f7"/><path d="M1120 720h80v80h-80zM480 800h80v80h-80zM560 800h80v80h-80zM640 800h80v80h-80z" fill="#fff"/><use xlink:href="#a" transform="matrix(1,0,0,1,645,805) translate(25.46944444444445 40.379166666666656)"/><path d="M720 800h80v80h-80zM800 800h80v80h-80zM880 800h80v80h-80zM960 800h80v80h-80zM1040 800h80v80h-80z" fill="#fff"/><path d="M1120 800h80v80h-80zM480 880h80v80h-80z" fill="#c1e4f7"/><path d="M560 880h80v80h-80zM640 880h80v80h-80zM720 880h80v80h-80zM800 880h80v80h-80zM880 880h80v80h-80zM960 880h80v80h-80zM1040 880h80v80h-80zM1120 880h80v80h-80z" fill="#fff"/><path d="M400 240h80v80h-80z" fill="#0c7cba"/><path d="M400 400h80v80h-80zM400 320h80v80h-80z" fill="#fff"/><path d="M400 480h80v80h-80z" fill="#c1e4f7"/><path d="M400 560h80v80h-80zM400 640h80v80h-80zM400 720h80v80h-80z" fill="#fff"/><path d="M400 800h80v80h-80z" fill="#c1e4f7"/><path d="M400 880h80v80h-80z" fill="#fff"/><path d="M480 160h80v80h-80z" fill="#c1e4f7"/><path d="M400 160h80v80h-80z" fill="#0c7cba"/><path d="M560 160h80v80h-80zM640 160h80v80h-80z" fill="#fff"/><path d="M720 160h80v80h-80z" fill="#c1e4f7"/><path d="M800 160h80v80h-80zM880 160h80v80h-80zM960 160h80v80h-80z" fill="#fff"/><path d="M1040 160h80v80h-80zM1120 160h80v80h-80z" fill="#c1e4f7"/><path d="M160 480h240v80H160z" stroke="#000" stroke-opacity="0" stroke-width="2" fill="#fff" fill-opacity="0"/><use xlink:href="#b" transform="matrix(1,0,0,1,165,485) translate(26.535185185185313 44.483333333333285)"/><use xlink:href="#c" transform="matrix(1,0,0,1,165,485) translate(177.40925925925916 44.483333333333285)"/><path d="M400 1000h120v240H400z" stroke="#000" stroke-width="2" fill="#b2d6ef"/><use xlink:href="#d" transform="matrix(1,0,0,1,412,1012) translate(34.413888888888906 116.73333333333329)"/><path d="M560 1000h240v120H560z" stroke="#000" stroke-width="2" fill="#b2d6ef"/><use xlink:href="#e" transform="matrix(1,0,0,1,572,1012) translate(85.23240740740744 56.733333333333285)"/><path d="M340 1103.57h35.88v32.86H340z" fill="#fff" fill-opacity="0"/><path d="M371.6 1108.2h1.74c-.3 4.45-3.14 10.68-8.27 10.68-5.02 0-10.62-6.7-14.4-6.7-3.66 0-5.6 3.5-6.43 7.22h-1.73c.27-5.23 3.4-10.67 8.54-10.67 5.03 0 10.63 6.7 14.45 6.7 3.6 0 5.33-3.5 6.1-7.23m0 12.35h1.74c-.3 4.45-3.14 10.68-8.27 10.68-5.02 0-10.62-6.7-14.4-6.7-3.66 0-5.6 3.5-6.43 7.23h-1.73c.27-5.24 3.4-10.68 8.54-10.68 5.03 0 10.63 6.7 14.45 6.7 3.6 0 5.33-3.5 6.1-7.23"/><path d="M640 1200h160v80H640z" stroke="#000" stroke-opacity="0" stroke-width="2" fill="#fff" fill-opacity="0"/><use xlink:href="#f" transform="matrix(1,0,0,1,645,1205) translate(1.8398148148148294 21.511111111111106)"/><use xlink:href="#g" transform="matrix(1,0,0,1,645,1205) translate(36.272530864197535 53.777777777777764)"/><path d="M621 1217.7l49.2-114.85M621 1217.64l-1 2.36" stroke="#000" stroke-width="5" fill="none"/><path d="M676.8 1087.44l-1.35 14.93-8.52-3.65z" stroke="#000" stroke-width="5"/><path d="M617.96 1218.55l-117.73-84.1M617.9 1218.5l2.1 1.5" stroke="#000" stroke-width="5" fill="none"/><path d="M486.58 1124.7l14.3 4.52-5.38 7.55z" stroke="#000" stroke-width="5"/><path d="M1280 240h320v57.3h-320z" fill="#fff" fill-opacity="0"/><path d="M1321.44 282l-.1.92h-9.67l-8.58-18c-.58.05-1.2.1-1.66.1-.8 0-1.38-.1-2.18-.22l-3.54 13.66c-.1.46-.17.86-.17 1.3 0 1.4 1.03 2.24 4.34 2.24h1.08l-.23.92h-18.58l.23-.92h.92c4.34 0 5.48-1.6 6-3.54l7.1-28.4c.1-.47.27-.98.27-1.44 0-1.2-.98-2.1-4.4-2.1h-1.15l.23-.93h15.5c9.13 0 12.33 3.76 12.33 8.62 0 4.75-4.04 8.58-10.16 9.78l6.57 13.1c1.1 2.22 2.6 4.62 5.84 4.9m-18-34.12l-3.66 14.86c.74.17 1.3.23 1.83.23 7.6 0 10.93-3.32 10.93-8.12 0-6.17-3.55-7.14-7.15-7.14-.8 0-1.3.06-1.94.18M1361.17 244.73l-3.03 12.64h-.9c.05-.46.05-.92.05-1.38 0-4.8-2.76-9.15-9.16-9.15-2.46 0-6.92 1.48-6.92 5.54 0 3.94 3.5 6.34 6.7 9.08 3.36 2.8 6.74 6.12 6.74 11.1 0 5.65-4.98 10.9-13.95 10.9-5.36 0-7.14-2.16-11.48-2.16-1.43 0-2.23.63-3.15 2.17h-.9l3.42-13.5h.9c0 .57.06 1.2.06 1.77.17 4.52 2.3 9.55 9.78 9.55 7.26 0 8.9-4.06 8.9-7.78 0-2-1-3.88-2.62-5.48-1.7-1.78-4.45-3.83-6.5-5.83-1.6-1.6-4.2-4.7-4.2-7.5 0-4.62 3.73-10 12.76-10 4.75 0 8 2.12 10.46 2.12 1.15 0 1.95-1.26 2.12-2.12h.9M1400.1 244.73l-3.03 12.64h-.9c.05-.46.05-.92.05-1.38 0-4.8-2.75-9.15-9.15-9.15-2.46 0-6.92 1.48-6.92 5.54 0 3.94 3.5 6.34 6.7 9.08 3.36 2.8 6.74 6.12 6.74 11.1 0 5.65-5 10.9-13.96 10.9-5.38 0-7.15-2.16-11.5-2.16-1.42 0-2.22.63-3.14 2.17h-.9l3.42-13.5h.9c0 .57.07 1.2.07 1.77.16 4.52 2.28 9.55 9.77 9.55 7.26 0 8.9-4.06 8.9-7.78 0-2-1.02-3.88-2.62-5.48-1.7-1.78-4.46-3.83-6.5-5.83-1.6-1.6-4.2-4.7-4.2-7.5 0-4.62 3.73-10 12.76-10 4.76 0 8 2.12 10.47 2.12 1.15 0 1.95-1.26 2.12-2.12h.9M1417.48 292.12l-.7.92c-9.02-5.15-13.93-14.8-13.93-24.53 0-10.56 4.97-18.8 14.12-24.22l.5.9c-7.94 6.8-9.7 12.13-9.7 23.16 0 10.63 1.7 17.1 9.7 23.78M1457.38 272.06l-3.5 10.86h-32.5l.22-.92h.97c4.3 0 5.66-1.6 6.1-3.54l6.76-27.27c.23-.92.4-2.07.4-2.58 0-1.1-.8-2.1-4.34-2.1h-1.04l.23-.93h18.68l-.23.9h-1.03c-4.3 0-5.5 1.5-6 3.6l-6.98 27.5c-.22.86-.28 1.66-.28 1.77 0 1.26 1.6 1.38 2.28 1.38h6.98c5.83 0 8.74-1.26 11.37-6.58.4-.63.68-1.3.97-2.1h.9M1464.4 290.98l-.56-1.1c3.14-2.1 4.75-4.22 4.75-6.1 0-.4-.36-.75-.82-.75-.45 0-1.02.23-1.65.23-2.12 0-3.32-.97-3.32-2.9 0-1.96 1.38-3.27 3.44-3.27 2.57 0 4.57 2 4.57 4.96 0 3.43-2.44 7.03-6.4 8.92M1524.95 282l-.12.92h-9.66l-8.57-18c-.57.05-1.2.1-1.66.1-.8 0-1.37-.1-2.17-.22l-3.54 13.66c-.12.46-.18.86-.18 1.3 0 1.4 1.03 2.24 4.35 2.24h1.08l-.22.92h-18.58l.23-.92h.92c4.34 0 5.5-1.6 6-3.54l7.1-28.4c.1-.47.28-.98.28-1.44 0-1.2-.97-2.1-4.4-2.1h-1.15l.23-.93h15.5c9.14 0 12.34 3.76 12.34 8.62 0 4.75-4.06 8.58-10.18 9.78l6.58 13.1c1.08 2.22 2.57 4.62 5.83 4.9m-18-34.12l-3.67 14.86c.75.17 1.32.23 1.83.23 7.62 0 10.93-3.32 10.93-8.12 0-6.17-3.54-7.14-7.14-7.14-.8 0-1.33.06-1.96.18M1527.52 245.2l.7-.92c8.73 5.26 13.94 14.8 13.94 24.52 0 10.57-5.04 18.7-14.12 24.24l-.52-.92c8.12-6.7 9.72-12.06 9.72-23.15 0-10.7-1.43-17.26-9.72-23.78M1597.2 264.63h-33.67v-3.78h33.67v3.78m0 11.43h-33.67v-3.77h33.67v3.76"/><path d="M1320 320h671.23v71.57H1320z" fill="#fff" fill-opacity="0"/><path d="M1337.38 382.82l-.7.92c-9.02-5.15-13.94-14.8-13.94-24.53 0-10.56 4.98-18.8 14.12-24.22l.52.9c-7.95 6.8-9.72 12.13-9.72 23.16 0 10.64 1.7 17.1 9.72 23.78M1380.48 372.7l-.1.92h-9.68l-8.57-18c-.57.05-1.2.1-1.66.1-.8 0-1.37-.1-2.17-.22l-3.54 13.66c-.12.46-.18.86-.18 1.32 0 1.37 1.03 2.23 4.35 2.23h1.1l-.24.92h-18.6l.24-.9h.9c4.36 0 5.5-1.62 6-3.56l7.1-28.4c.12-.47.3-.98.3-1.44 0-1.2-.98-2.1-4.4-2.1h-1.16l.23-.93h15.5c9.15 0 12.35 3.76 12.35 8.62 0 4.75-4.06 8.58-10.17 9.78l6.57 13.1c1.1 2.22 2.57 4.62 5.83 4.9m-18-34.12l-3.67 14.86c.76.17 1.33.23 1.84.23 7.6 0 10.92-3.32 10.92-8.12 0-6.17-3.54-7.14-7.14-7.14-.8 0-1.32.06-1.95.18M1408.38 349.15l-5.2 19.73s-.06.1-.06.62c0 .63.34.98.8.98.57 0 1.43-.12 3.66-3.1l.68.7c-1.77 2.68-4.86 6.1-7.6 6.1-1.9 0-2.4-1.3-2.4-3.13 0-.75.34-1.95.63-2.86h-.24c-4.12 5.25-7.66 6-9.9 6-3.6 0-5.08-3.15-5.08-6.8 0-7.56 7.55-19 15.78-19 2.46 0 3.66 1.38 3.77 2.64h.06l.5-1.9h4.58m-6 5c0-2.36-.7-4.07-2.86-4.07-3.9 0-7.32 4.97-9.27 9.77-1.02 2.58-1.6 5.1-1.6 7.1 0 3.02 1.78 3.76 3.32 3.76 3.94 0 7.95-5.43 9.55-10.86.45-1.48.85-3.77.85-5.7M1426.27 348.58l-.57 2.17h-4l-4.46 18.3c-.06.17-.12.45-.12.63 0 .34.17.68.92.68 0 0 1.3-.1 3.43-2.97l.74.62c-1.36 1.77-4.22 6.1-7.6 6.1-1.77 0-2.22-1.4-2.22-2.96 0-.74.1-1.48.28-2.1l4.63-18.3h-4.4l.28-1.66c4.3-.8 7.77-2.92 10.12-7.9h.74l-1.77 7.38h4M1442.73 341.27c0 1.48-1.26 2.62-2.74 2.62-1.67 0-2.76-1.15-2.76-2.63 0-1.43 1.1-2.86 2.75-2.86 1.47 0 2.73 1.44 2.73 2.87m-1.7 7.14l-5.27 20.82c-.06.34-.06.57-.06.8 0 .4.34.57.74.57 1.26 0 1.6-.7 3.66-2.92l.75.57c-2 2.57-4.86 6-7.66 6-1.62 0-2.3-1.1-2.3-2.63 0-.7 0-1.77 4.5-19.32.07-.12.13-.52.13-.7 0-.96-.46-1.25-1.77-1.25-.52 0-1.2.12-1.6.23l-.18-.9M1472.5 368.13l-.27.35c-1.6 1.94-4.35 5.6-7.32 5.6-1.82 0-2.33-1.32-2.33-2.63 0-.75.23-1.66.4-2.3l3.26-12.62c.1-.46.4-1.6.4-2.4 0-1.1-.35-2.18-1.38-2.18-2.17 0-5.77 4.92-7.54 7.6-2.05 3.1-3.54 5.78-3.88 6.98l-1.88 7.1h-4.4l5.42-21.4c0-1.02-.17-1.82-1.7-1.82-.58 0-1.2.13-1.6.18l-.13-.85 9.1-1.32-2.92 10.8h.18c.3 0 3.1-4 3.2-4.16 2.3-2.86 5.72-6.63 9.15-6.63 2.5 0 3.2 1.67 3.2 3.55 0 1.43-.34 2.86-.63 4l-3.37 13.2c-.06.13-.06.3-.06.58.06.35.23.8.86.8 1.37 0 2.74-2.05 3.54-3.03M1502.4 350l-.73 2.58h-4.63c.74.86.97 1.6.97 2.86 0 4.3-3.02 7.83-8.05 8.46-3.37.46-5.03 1.9-5.03 3.32 0 3.6 13.32 1.3 13.32 8.46 0 4.06-3.77 8.63-12.3 8.63-7.65 0-10.5-3.25-10.5-6.56 0-3.32 3.13-5.03 6.68-6.18-.97-.63-1.37-1.7-1.37-2.68 0-2.18 2.1-4.98 4.85-4.98v-.23c-3.83-.85-5.37-3.54-5.37-6.23 0-4.5 3.9-9.03 9.95-9.03 2.4 0 4.17.75 5.03 1.6h7.2m-8.9 3.67c0-2.12-.58-3.54-3.1-3.54-3.08 0-5.6 4.05-5.6 7.94 0 2.63.7 4.63 3.2 4.63 4.06 0 5.5-5.83 5.5-9.03m.74 23.9c0-4.46-7.55-4.18-10.98-5.44-.46.3-1.03.58-1.5.92-1.47 1.08-2.73 2.57-2.73 4.1 0 2.7 2.52 5.56 7.95 5.56 5.2 0 7.26-2.62 7.26-5.14M1519.8 382.82l-.7.92c-9.03-5.15-13.94-14.8-13.94-24.53 0-10.56 4.97-18.8 14.1-24.22l.53.9c-7.96 6.8-9.73 12.13-9.73 23.16 0 10.64 1.72 17.1 9.72 23.78M1546.9 349.15l-5.1 19.9c-.06.23-.06.34-.06.5 0 .47.23.8.8.8 1.2 0 2.3-1.47 3.26-2.62l.28-.34.75.62c-1.32 1.88-4.23 6.1-7.55 6.1-1.66 0-2.28-1.07-2.28-2.96 0-.5.05-1.43.22-2.1l1.5-5.44h-.07c-.4.28-5.54 7.2-7.83 8.9-1.3 1-2.8 1.6-4.1 1.6-2.7 0-3.5-2.04-3.5-4.22 0-1.2.17-2.28.46-3.37l3.37-13.2c.23-.86.34-1.2.34-1.43 0-.7-.64-1.32-1.9-1.32-.4 0-1.08.06-1.48.17l-.17-.85 8.97-1.5-4.8 18.65c-.1.5-.17.9-.17 1.37 0 1.2.46 1.94 1.5 1.94 1.4 0 3.7-1.77 5.7-4.4 2.46-3.26 5.1-8.35 6.23-12.52l1.2-4.3h4.4M1553.34 381.68l-.57-1.1c3.15-2.1 4.75-4.22 4.75-6.1 0-.4-.35-.75-.8-.75-.46 0-1.03.23-1.66.23-2.12 0-3.32-.97-3.32-2.9 0-1.96 1.38-3.27 3.43-3.27 2.58 0 4.58 2 4.58 4.96 0 3.43-2.46 7.03-6.4 8.92M1586.56 347.67l-5.1 18.63c-.16.57-.22 1.2-.22 1.83 0 2.17 1.14 3.78 3.43 3.78 6.17 0 10.18-6.45 12-11.6.46-1.37.86-2.8.86-4.23 0-4.23-3.48-3.72-3.48-6.23 0-1.94 1.42-2.4 3.08-2.4 2.4 0 2.7 2.9 2.7 4.74 0 5.66-2.24 11.44-5.56 16-2.45 3.44-6.86 5.95-11.1 5.95-3.64 0-6.62-1.14-6.62-5.3 0-1.2.17-2.4.52-3.56l3.3-12c.13-.46.3-.97.3-1.43 0-1.14-2.52-1.14-3.26-1.14v-.86c2.98-.74 6.07-1.14 8.93-2.4M1603.08 335.9l.68-.92c8.75 5.26 13.95 14.8 13.95 24.52 0 10.58-5.02 18.7-14.1 24.24l-.52-.92c8.1-6.68 9.72-12.06 9.72-23.15 0-10.7-1.43-17.26-9.72-23.78M1672.76 355.33h-33.67v-3.78h33.66v3.78m0 11.43h-33.67V363h33.66v3.76M1711 375l-32.3-15.6v-.6l32.3-15.7v3.7l-24.7 12.3 24.7 12.3v3.6M1768.8 362.76l-3.5 10.86h-32.52l.23-.9h.98c4.3 0 5.66-1.62 6.12-3.56l6.75-27.27c.22-.92.4-2.06.4-2.58 0-1.08-.8-2.1-4.35-2.1h-1.03l.23-.93h18.7l-.23.9h-1.03c-4.3 0-5.5 1.5-6 3.6l-6.98 27.5c-.23.86-.3 1.66-.3 1.78 0 1.25 1.6 1.37 2.3 1.37h6.97c5.84 0 8.75-1.26 11.38-6.58.4-.62.7-1.3.98-2.1h.92M1789 364.93l-3.6 14.07c-.03.16-.03.24-.03.36 0 .32.17.56.57.56.85 0 1.62-1.05 2.3-1.85l.2-.25.53.45c-.93 1.33-3 4.32-5.33 4.32-1.18 0-1.62-.78-1.62-2.1 0-.37.04-1.02.16-1.5l1.05-3.84h-.04c-.3.2-3.93 5.1-5.55 6.3-.93.7-1.98 1.13-2.9 1.13-1.9 0-2.47-1.46-2.47-3 0-.85.12-1.62.32-2.38l2.4-9.34c.15-.6.23-.85.23-1 0-.5-.45-.94-1.33-.94-.3 0-.77.04-1.06.12l-.12-.6 6.35-1.05-3.4 13.18c-.08.36-.12.65-.12.97 0 .85.33 1.37 1.05 1.37 1 0 2.63-1.25 4.05-3.1 1.73-2.3 3.6-5.9 4.4-8.86l.85-3.03h3.1M1800.75 381.68l-.57-1.1c3.14-2.1 4.74-4.22 4.74-6.1 0-.4-.34-.75-.8-.75-.45 0-1.02.23-1.65.23-2.12 0-3.32-.97-3.32-2.9 0-1.96 1.37-3.27 3.43-3.27 2.57 0 4.57 2 4.57 4.96 0 3.43-2.45 7.03-6.4 8.92M1861.3 372.7l-.13.92h-9.66l-8.56-18c-.57.05-1.2.1-1.66.1-.8 0-1.37-.1-2.17-.22l-3.54 13.66c-.1.46-.17.86-.17 1.32 0 1.37 1.02 2.23 4.34 2.23h1.08l-.22.92h-18.58l.23-.9h.9c4.35 0 5.5-1.62 6-3.56l7.1-28.4c.12-.47.3-.98.3-1.44 0-1.2-1-2.1-4.42-2.1H1831l.22-.93h15.5c9.14 0 12.34 3.76 12.34 8.62 0 4.75-4.06 8.58-10.18 9.78l6.58 13.1c1.08 2.22 2.57 4.62 5.83 4.9m-18.02-34.12l-3.66 14.86c.75.17 1.32.23 1.83.23 7.6 0 10.92-3.32 10.92-8.12 0-6.17-3.54-7.14-7.14-7.14-.8 0-1.32.06-1.95.18M1876.27 347.67l-5.1 18.63c-.16.57-.22 1.2-.22 1.83 0 2.17 1.14 3.78 3.43 3.78 6.17 0 10.17-6.45 12-11.6.46-1.37.86-2.8.86-4.23 0-4.23-3.5-3.72-3.5-6.23 0-1.94 1.44-2.4 3.1-2.4 2.4 0 2.7 2.9 2.7 4.74 0 5.66-2.24 11.44-5.56 16-2.46 3.44-6.86 5.95-11.1 5.95-3.65 0-6.62-1.14-6.62-5.3 0-1.2.17-2.4.52-3.56l3.3-12c.13-.46.3-.97.3-1.43 0-1.14-2.52-1.14-3.26-1.14v-.86c2.97-.74 6.06-1.14 8.92-2.4M1942.52 359.4l-32.3 15.6v-3.6l24.7-12.3-24.7-12.3v-3.7l32.3 15.7v.6M1947.84 335.9l.68-.92c8.75 5.26 13.95 14.8 13.95 24.52 0 10.58-5.03 18.7-14.12 24.24l-.5-.92c8.1-6.68 9.7-12.06 9.7-23.15 0-10.7-1.43-17.26-9.7-23.78M1984.37 347.35l-2.18 5.54h-15.8v-.5l7.18-7.64c3.8-4 5.25-7.07 5.25-10.5 0-3.68-2.18-5.7-5.6-5.7-2.92 0-4.34 1.3-5.96 5.25l-.84-.2c.84-4.72 3.43-8.03 8.4-8.03 4.57 0 7.48 3.1 7.48 7.1 0 3.2-1.57 6.23-5.16 10.03l-6.67 7.12h9.45c1.7 0 2.55-.45 3.88-2.7"/><path d="M1400 440h480v160h-480z" stroke="#000" stroke-opacity="0" stroke-width="2" fill="#fff" fill-opacity="0"/><use xlink:href="#h" transform="matrix(1,0,0,1,1405,445) translate(0 40.72916666666667)"/><use xlink:href="#i" transform="matrix(1,0,0,1,1405,445) translate(28.703703703703706 40.72916666666667)"/><use xlink:href="#j" transform="matrix(1,0,0,1,1405,445) translate(48.98148148148148 40.72916666666667)"/><use xlink:href="#k" transform="matrix(1,0,0,1,1405,445) translate(174.62962962962962 40.72916666666667)"/><use xlink:href="#l" transform="matrix(1,0,0,1,1405,445) translate(220.92592592592592 40.72916666666667)"/><use xlink:href="#m" transform="matrix(1,0,0,1,1405,445) translate(280.74074074074076 40.72916666666667)"/><use xlink:href="#n" transform="matrix(1,0,0,1,1405,445) translate(329.53703703703707 40.72916666666667)"/><use xlink:href="#o" transform="matrix(1,0,0,1,1405,445) translate(0 80.72916666666669)"/><use xlink:href="#p" transform="matrix(1,0,0,1,1405,445) translate(105.46296296296296 80.72916666666669)"/><use xlink:href="#m" transform="matrix(1,0,0,1,1405,445) translate(268.61111111111114 80.72916666666669)"/><use xlink:href="#q" transform="matrix(1,0,0,1,1405,445) translate(317.40740740740745 80.72916666666669)"/><use xlink:href="#r" transform="matrix(1,0,0,1,1405,445) translate(0 120.72916666666669)"/><path d="M1400 600h560v160h-560z" stroke="#000" stroke-width="2" fill="#834187"/><g><use xlink:href="#s" transform="matrix(1,0,0,1,1405,605) translate(6.37962962962996 59.170833333333285)"/><use xlink:href="#t" transform="matrix(1,0,0,1,1405,605) translate(132.68703703703721 59.170833333333285)"/><use xlink:href="#u" transform="matrix(1,0,0,1,1405,605) translate(315.8203703703703 59.170833333333285)"/><use xlink:href="#v" transform="matrix(1,0,0,1,1405,605) translate(106.75555555555579 112.7708333333332)"/><use xlink:href="#w" transform="matrix(1,0,0,1,1405,605) translate(178.47037037037052 112.7708333333332)"/></g><path d="M1960 440h240v71.57h-240z" stroke="#000" stroke-opacity="0" stroke-width="2" fill="#fff" fill-opacity="0"/><g><use xlink:href="#x" transform="matrix(1,0,0,1,1965,445) translate(30.4280864197531 37.33055555555555)"/><use xlink:href="#y" transform="matrix(1,0,0,1,1965,445) translate(137.41327160493827 37.33055555555555)"/></g><path d="M1979.1 479.55l-142.55-71.28M1979.08 479.54l.92.46" stroke="#000" stroke-width="2" fill="none"/><path d="M1822.9 401.45l14.83 2.23-4.15 8.3z" stroke="#000" stroke-width="2"/><defs><path fill="#0c7cba" d="M110-251c83-7 118 89 53 130-17 10-36 21-38 46H78c2-56 65-53 71-103 2-21-15-35-38-34-25 1-41 14-44 38l-50-2c6-48 39-70 93-75zM77 0v-47h51V0H77" id="z"/><use transform="matrix(0.087037037037037,0,0,0.087037037037037,0,0)" xlink:href="#z" id="a"/><path fill="#0c7cba" d="M240-174c0 40-23 61-54 70L253 0h-59l-57-94H76V0H24v-248c93 4 217-23 216 74zM76-134c48-2 112 12 112-38 0-48-66-32-112-35v73" id="A"/><path fill="#0c7cba" d="M133-34C117-15 103 5 69 4 32 3 11-16 11-54c-1-60 55-63 116-61 1-26-3-47-28-47-18 1-26 9-28 27l-52-2c7-38 36-58 82-57s74 22 75 68l1 82c-1 14 12 18 25 15v27c-30 8-71 5-69-32zm-48 3c29 0 43-24 42-57-32 0-66-3-65 30 0 17 8 27 23 27" id="B"/><path fill="#0c7cba" d="M115-3C79 11 28 4 28-45v-112H4v-33h27l15-45h31v45h36v33H77v99c-1 23 16 31 38 25v30" id="C"/><path fill="#0c7cba" d="M25-224v-37h50v37H25zM25 0v-190h50V0H25" id="D"/><path fill="#0c7cba" d="M135-194c87-1 58 113 63 194h-50c-7-57 23-157-34-157-59 0-34 97-39 157H25l-1-190h47c2 12-1 28 3 38 12-26 28-41 61-42" id="E"/><path fill="#0c7cba" d="M195-6C206 82 75 100 31 46c-4-6-6-13-8-21l49-6c3 16 16 24 34 25 40 0 42-37 40-79-11 22-30 35-61 35-53 0-70-43-70-97 0-56 18-96 73-97 30 0 46 14 59 34l2-30h47zm-90-29c32 0 41-27 41-63 0-35-9-62-40-62-32 0-39 29-40 63 0 36 9 62 39 62" id="F"/><g id="b"><use transform="matrix(0.1240740740740739,0,0,0.1240740740740739,0,0)" xlink:href="#A"/><use transform="matrix(0.1240740740740739,0,0,0.1240740740740739,32.13518518518514,0)" xlink:href="#B"/><use transform="matrix(0.1240740740740739,0,0,0.1240740740740739,56.949999999999925,0)" xlink:href="#C"/><use transform="matrix(0.1240740740740739,0,0,0.1240740740740739,71.71481481481472,0)" xlink:href="#D"/><use transform="matrix(0.1240740740740739,0,0,0.1240740740740739,84.1222222222221,0)" xlink:href="#E"/><use transform="matrix(0.1240740740740739,0,0,0.1240740740740739,111.2944444444443,0)" xlink:href="#F"/></g><path d="M15-148v-39h180v39H15zm0 97v-39h180v39H15" id="G"/><use transform="matrix(0.1240740740740739,0,0,0.1240740740740739,0,0)" xlink:href="#G" id="c"/><path d="M24 0v-248h52v208h133V0H24" id="H"/><use transform="matrix(0.1240740740740739,0,0,0.1240740740740739,0,0)" xlink:href="#H" id="d"/><path d="M240-174c0 40-23 61-54 70L253 0h-59l-57-94H76V0H24v-248c93 4 217-23 216 74zM76-134c48-2 112 12 112-38 0-48-66-32-112-35v73" id="I"/><path d="M28-200l12-88h38l-19 88H28" id="J"/><g id="e"><use transform="matrix(0.1240740740740739,0,0,0.1240740740740739,0,0)" xlink:href="#I"/><use transform="matrix(0.1240740740740739,0,0,0.1240740740740739,32.13518518518514,0)" xlink:href="#J"/></g><path d="M24-248c93 1 206-16 204 79-1 75-69 88-152 82V0H24v-248zm52 121c47 0 100 7 100-41 0-47-54-39-100-39v80" id="K"/><path d="M133-34C117-15 103 5 69 4 32 3 11-16 11-54c-1-60 55-63 116-61 1-26-3-47-28-47-18 1-26 9-28 27l-52-2c7-38 36-58 82-57s74 22 75 68l1 82c-1 14 12 18 25 15v27c-30 8-71 5-69-32zm-48 3c29 0 43-24 42-57-32 0-66-3-65 30 0 17 8 27 23 27" id="L"/><path d="M135-150c-39-12-60 13-60 57V0H25l-1-190h47c2 13-1 29 3 40 6-28 27-53 61-41v41" id="M"/><path d="M220-157c-53 9-28 100-34 157h-49v-107c1-27-5-49-29-50C55-147 81-57 75 0H25l-1-190h47c2 12-1 28 3 38 10-53 101-56 108 0 13-22 24-43 59-42 82 1 51 116 57 194h-49v-107c-1-25-5-48-29-50" id="N"/><path d="M185-48c-13 30-37 53-82 52C43 2 14-33 14-96s30-98 90-98c62 0 83 45 84 108H66c0 31 8 55 39 56 18 0 30-7 34-22zm-45-69c5-46-57-63-70-21-2 6-4 13-4 21h74" id="O"/><path d="M115-3C79 11 28 4 28-45v-112H4v-33h27l15-45h31v45h36v33H77v99c-1 23 16 31 38 25v30" id="P"/><path d="M137-138c1-29-70-34-71-4 15 46 118 7 119 86 1 83-164 76-172 9l43-7c4 19 20 25 44 25 33 8 57-30 24-41C81-84 22-81 20-136c-2-80 154-74 161-7" id="Q"/><g id="f"><use transform="matrix(0.07469135802469135,0,0,0.07469135802469135,0,0)" xlink:href="#K"/><use transform="matrix(0.07469135802469135,0,0,0.07469135802469135,17.925925925925924,0)" xlink:href="#L"/><use transform="matrix(0.07469135802469135,0,0,0.07469135802469135,32.86419753086419,0)" xlink:href="#M"/><use transform="matrix(0.07469135802469135,0,0,0.07469135802469135,43.32098765432097,0)" xlink:href="#L"/><use transform="matrix(0.07469135802469135,0,0,0.07469135802469135,58.25925925925924,0)" xlink:href="#N"/><use transform="matrix(0.07469135802469135,0,0,0.07469135802469135,82.16049382716047,0)" xlink:href="#O"/><use transform="matrix(0.07469135802469135,0,0,0.07469135802469135,97.09876543209873,0)" xlink:href="#P"/><use transform="matrix(0.07469135802469135,0,0,0.07469135802469135,105.987037037037,0)" xlink:href="#O"/><use transform="matrix(0.07469135802469135,0,0,0.07469135802469135,120.92530864197528,0)" xlink:href="#M"/><use transform="matrix(0.07469135802469135,0,0,0.07469135802469135,131.38209876543206,0)" xlink:href="#Q"/></g><path d="M230 0l2-204L168 0h-37L68-204 70 0H24v-248h70l56 185 57-185h69V0h-46" id="R"/><path d="M110-194c64 0 96 36 96 99 0 64-35 99-97 99-61 0-95-36-95-99 0-62 34-99 96-99zm-1 164c35 0 45-28 45-65 0-40-10-65-43-65-34 0-45 26-45 65 0 36 10 65 43 65" id="S"/><path d="M88-194c31-1 46 15 58 34l-1-101h50l1 261h-48c-2-10 0-23-3-31C134-8 116 4 84 4 32 4 16-41 15-95c0-56 19-97 73-99zm17 164c33 0 40-30 41-66 1-37-9-64-41-64s-38 30-39 65c0 43 13 65 39 65" id="T"/><path d="M25 0v-261h50V0H25" id="U"/><g id="g"><use transform="matrix(0.07469135802469135,0,0,0.07469135802469135,0,0)" xlink:href="#R"/><use transform="matrix(0.07469135802469135,0,0,0.07469135802469135,22.33271604938271,0)" xlink:href="#S"/><use transform="matrix(0.07469135802469135,0,0,0.07469135802469135,38.69012345679012,0)" xlink:href="#T"/><use transform="matrix(0.07469135802469135,0,0,0.07469135802469135,55.04753086419753,0)" xlink:href="#O"/><use transform="matrix(0.07469135802469135,0,0,0.07469135802469135,69.98580246913579,0)" xlink:href="#U"/></g><path d="M125-100v72H85v-72H15v-39h70v-72h40v72h71v39h-71" id="V"/><use transform="matrix(0.0925925925925926,0,0,0.0925925925925926,0,0)" xlink:href="#V" id="h"/><path d="M20 75v-336h95v34H67V41h48v34H20" id="W"/><use transform="matrix(0.0925925925925926,0,0,0.0925925925925926,0,0)" xlink:href="#W" id="i"/><path d="M25-224v-37h50v37H25zM25 0v-190h50V0H25" id="X"/><path d="M135-194c87-1 58 113 63 194h-50c-7-57 23-157-34-157-59 0-34 97-39 157H25l-1-190h47c2 12-1 28 3 38 12-26 28-41 61-42" id="Y"/><path d="M190-63c-7 42-38 67-86 67-59 0-84-38-90-98-12-110 154-137 174-36l-49 2c-2-19-15-32-35-32-30 0-35 28-38 64-6 74 65 87 74 30" id="Z"/><path d="M85 4C-2 5 27-109 22-190h50c7 57-23 150 33 157 60-5 35-97 40-157h50l1 190h-47c-2-12 1-28-3-38-12 25-28 42-61 42" id="aa"/><g id="j"><use transform="matrix(0.0925925925925926,0,0,0.0925925925925926,0,0)" xlink:href="#X"/><use transform="matrix(0.0925925925925926,0,0,0.0925925925925926,9.25925925925926,0)" xlink:href="#Y"/><use transform="matrix(0.0925925925925926,0,0,0.0925925925925926,29.537037037037038,0)" xlink:href="#Z"/><use transform="matrix(0.0925925925925926,0,0,0.0925925925925926,48.05555555555556,0)" xlink:href="#U"/><use transform="matrix(0.0925925925925926,0,0,0.0925925925925926,57.314814814814824,0)" xlink:href="#aa"/><use transform="matrix(0.0925925925925926,0,0,0.0925925925925926,77.5925925925926,0)" xlink:href="#T"/><use transform="matrix(0.0925925925925926,0,0,0.0925925925925926,97.87037037037038,0)" xlink:href="#O"/></g><g id="k"><use transform="matrix(0.0925925925925926,0,0,0.0925925925925926,0,0)" xlink:href="#L"/><use transform="matrix(0.0925925925925926,0,0,0.0925925925925926,18.51851851851852,0)" xlink:href="#U"/><use transform="matrix(0.0925925925925926,0,0,0.0925925925925926,27.777777777777782,0)" xlink:href="#U"/></g><path d="M67-93c0 74 22 123 53 168H70C40 30 18-18 18-93s22-123 52-168h50c-32 44-53 94-53 168" id="ab"/><path d="M76-54c-1 42 2 86-19 110H24C36 42 46 24 48 0H25v-54h51" id="ac"/><g id="l"><use transform="matrix(0.0925925925925926,0,0,0.0925925925925926,0,0)" xlink:href="#ab"/><use transform="matrix(0.0925925925925926,0,0,0.0925925925925926,11.018518518518519,0)" xlink:href="#aa"/><use transform="matrix(0.0925925925925926,0,0,0.0925925925925926,31.296296296296298,0)" xlink:href="#J"/><use transform="matrix(0.0925925925925926,0,0,0.0925925925925926,41.2962962962963,0)" xlink:href="#ac"/></g><path d="M128 0H69L1-190h53L99-40l48-150h52" id="ad"/><path d="M102-93c0 74-22 123-52 168H0C30 29 54-18 53-93c0-74-22-123-53-168h50c30 45 52 94 52 168" id="ae"/><g id="m"><use transform="matrix(0.0925925925925926,0,0,0.0925925925925926,0,0)" xlink:href="#ad"/><use transform="matrix(0.0925925925925926,0,0,0.0925925925925926,18.51851851851852,0)" xlink:href="#J"/><use transform="matrix(0.0925925925925926,0,0,0.0925925925925926,28.518518518518523,0)" xlink:href="#ae"/></g><path d="M135-194c53 0 70 44 70 98 0 56-19 98-73 100-31 1-45-17-59-34 3 33 2 69 2 105H25l-1-265h48c2 10 0 23 3 31 11-24 29-35 60-35zM114-30c33 0 39-31 40-66 0-38-9-64-40-64-56 0-55 130 0 130" id="af"/><g id="n"><use transform="matrix(0.0925925925925926,0,0,0.0925925925925926,0,0)" xlink:href="#af"/><use transform="matrix(0.0925925925925926,0,0,0.0925925925925926,20.27777777777778,0)" xlink:href="#L"/><use transform="matrix(0.0925925925925926,0,0,0.0925925925925926,38.7962962962963,0)" xlink:href="#X"/><use transform="matrix(0.0925925925925926,0,0,0.0925925925925926,48.05555555555556,0)" xlink:href="#M"/><use transform="matrix(0.0925925925925926,0,0,0.0925925925925926,61.018518518518526,0)" xlink:href="#Q"/></g><path d="M231 0h-52l-39-155L100 0H48L-1-190h46L77-45c9-52 24-97 36-145h53l37 145 32-145h46" id="ag"/><path d="M114-157C55-157 80-60 75 0H25v-261h50l-1 109c12-26 28-41 61-42 86-1 58 113 63 194h-50c-7-57 23-157-34-157" id="ah"/><g id="o"><use transform="matrix(0.0925925925925926,0,0,0.0925925925925926,0,0)" xlink:href="#ag"/><use transform="matrix(0.0925925925925926,0,0,0.0925925925925926,25.925925925925927,0)" xlink:href="#ah"/><use transform="matrix(0.0925925925925926,0,0,0.0925925925925926,46.20370370370371,0)" xlink:href="#O"/><use transform="matrix(0.0925925925925926,0,0,0.0925925925925926,64.72222222222223,0)" xlink:href="#M"/><use transform="matrix(0.0925925925925926,0,0,0.0925925925925926,77.68518518518519,0)" xlink:href="#O"/></g><path d="M195-6C206 82 75 100 31 46c-4-6-6-13-8-21l49-6c3 16 16 24 34 25 40 0 42-37 40-79-11 22-30 35-61 35-53 0-70-43-70-97 0-56 18-96 73-97 30 0 46 14 59 34l2-30h47zm-90-29c32 0 41-27 41-63 0-35-9-62-40-62-32 0-39 29-40 63 0 36 9 62 39 62" id="ai"/><g id="p"><use transform="matrix(0.0925925925925926,0,0,0.0925925925925926,0,0)" xlink:href="#I"/><use transform="matrix(0.0925925925925926,0,0,0.0925925925925926,23.981481481481485,0)" xlink:href="#L"/><use transform="matrix(0.0925925925925926,0,0,0.0925925925925926,42.5,0)" xlink:href="#P"/><use transform="matrix(0.0925925925925926,0,0,0.0925925925925926,53.518518518518526,0)" xlink:href="#X"/><use transform="matrix(0.0925925925925926,0,0,0.0925925925925926,62.777777777777786,0)" xlink:href="#Y"/><use transform="matrix(0.0925925925925926,0,0,0.0925925925925926,83.05555555555556,0)" xlink:href="#ai"/><use transform="matrix(0.0925925925925926,0,0,0.0925925925925926,103.33333333333334,0)" xlink:href="#ab"/><use transform="matrix(0.0925925925925926,0,0,0.0925925925925926,114.35185185185186,0)" xlink:href="#aa"/><use transform="matrix(0.0925925925925926,0,0,0.0925925925925926,134.62962962962965,0)" xlink:href="#J"/><use transform="matrix(0.0925925925925926,0,0,0.0925925925925926,144.62962962962965,0)" xlink:href="#ac"/></g><g id="q"><use transform="matrix(0.0925925925925926,0,0,0.0925925925925926,0,0)" xlink:href="#L"/><use transform="matrix(0.0925925925925926,0,0,0.0925925925925926,18.51851851851852,0)" xlink:href="#M"/><use transform="matrix(0.0925925925925926,0,0,0.0925925925925926,31.48148148148148,0)" xlink:href="#O"/></g><path d="M135-194c52 0 70 43 70 98 0 56-19 99-73 100-30 1-46-15-58-35L72 0H24l1-261h50v104c11-23 29-37 60-37zM114-30c31 0 40-27 40-66 0-37-7-63-39-63s-41 28-41 65c0 36 8 64 40 64" id="aj"/><path d="M4 75V41h49v-268H4v-34h96V75H4" id="ak"/><g id="r"><use transform="matrix(0.0925925925925926,0,0,0.0925925925925926,0,0)" xlink:href="#L"/><use transform="matrix(0.0925925925925926,0,0,0.0925925925925926,18.51851851851852,0)" xlink:href="#ad"/><use transform="matrix(0.0925925925925926,0,0,0.0925925925925926,37.03703703703704,0)" xlink:href="#L"/><use transform="matrix(0.0925925925925926,0,0,0.0925925925925926,55.555555555555564,0)" xlink:href="#X"/><use transform="matrix(0.0925925925925926,0,0,0.0925925925925926,64.81481481481481,0)" xlink:href="#U"/><use transform="matrix(0.0925925925925926,0,0,0.0925925925925926,74.07407407407408,0)" xlink:href="#L"/><use transform="matrix(0.0925925925925926,0,0,0.0925925925925926,92.5925925925926,0)" xlink:href="#aj"/><use transform="matrix(0.0925925925925926,0,0,0.0925925925925926,112.87037037037038,0)" xlink:href="#U"/><use transform="matrix(0.0925925925925926,0,0,0.0925925925925926,122.12962962962965,0)" xlink:href="#O"/><use transform="matrix(0.0925925925925926,0,0,0.0925925925925926,140.64814814814815,0)" xlink:href="#ak"/></g><path fill="#fff" d="M230 0l2-204L168 0h-37L68-204 70 0H24v-248h70l56 185 57-185h69V0h-46" id="al"/><path fill="#fff" d="M133-34C117-15 103 5 69 4 32 3 11-16 11-54c-1-60 55-63 116-61 1-26-3-47-28-47-18 1-26 9-28 27l-52-2c7-38 36-58 82-57s74 22 75 68l1 82c-1 14 12 18 25 15v27c-30 8-71 5-69-32zm-48 3c29 0 43-24 42-57-32 0-66-3-65 30 0 17 8 27 23 27" id="am"/><path fill="#fff" d="M135-194c87-1 58 113 63 194h-50c-7-57 23-157-34-157-59 0-34 97-39 157H25l-1-190h47c2 12-1 28 3 38 12-26 28-41 61-42" id="an"/><path fill="#fff" d="M123 10C108 53 80 86 19 72V37c35 8 53-11 59-39L3-190h52l48 148c12-52 28-100 44-148h51" id="ao"/><g id="s"><use transform="matrix(0.1240740740740739,0,0,0.1240740740740739,0,0)" xlink:href="#al"/><use transform="matrix(0.1240740740740739,0,0,0.1240740740740739,37.0981481481481,0)" xlink:href="#am"/><use transform="matrix(0.1240740740740739,0,0,0.1240740740740739,61.91296296296288,0)" xlink:href="#an"/><use transform="matrix(0.1240740740740739,0,0,0.1240740740740739,89.08518518518507,0)" xlink:href="#ao"/></g><path fill="#fff" d="M185-48c-13 30-37 53-82 52C43 2 14-33 14-96s30-98 90-98c62 0 83 45 84 108H66c0 31 8 55 39 56 18 0 30-7 34-22zm-45-69c5-46-57-63-70-21-2 6-4 13-4 21h74" id="ap"/><path fill="#fff" d="M121-226c-27-7-43 5-38 36h38v33H83V0H34v-157H6v-33h28c-9-59 32-81 87-68v32" id="aq"/><path fill="#fff" d="M25-224v-37h50v37H25zM25 0v-190h50V0H25" id="ar"/><path fill="#fff" d="M190-63c-7 42-38 67-86 67-59 0-84-38-90-98-12-110 154-137 174-36l-49 2c-2-19-15-32-35-32-30 0-35 28-38 64-6 74 65 87 74 30" id="as"/><path fill="#fff" d="M115-3C79 11 28 4 28-45v-112H4v-33h27l15-45h31v45h36v33H77v99c-1 23 16 31 38 25v30" id="at"/><g id="t"><use transform="matrix(0.1240740740740739,0,0,0.1240740740740739,0,0)" xlink:href="#ap"/><use transform="matrix(0.1240740740740739,0,0,0.1240740740740739,24.81481481481478,0)" xlink:href="#aq"/><use transform="matrix(0.1240740740740739,0,0,0.1240740740740739,39.57962962962958,0)" xlink:href="#aq"/><use transform="matrix(0.1240740740740739,0,0,0.1240740740740739,54.34444444444438,0)" xlink:href="#ar"/><use transform="matrix(0.1240740740740739,0,0,0.1240740740740739,66.75185185185177,0)" xlink:href="#as"/><use transform="matrix(0.1240740740740739,0,0,0.1240740740740739,91.56666666666655,0)" xlink:href="#ar"/><use transform="matrix(0.1240740740740739,0,0,0.1240740740740739,103.97407407407394,0)" xlink:href="#ap"/><use transform="matrix(0.1240740740740739,0,0,0.1240740740740739,128.78888888888872,0)" xlink:href="#an"/><use transform="matrix(0.1240740740740739,0,0,0.1240740740740739,155.9611111111109,0)" xlink:href="#at"/></g><path fill="#fff" d="M25 0v-261h50V0H25" id="au"/><path fill="#fff" d="M195-6C206 82 75 100 31 46c-4-6-6-13-8-21l49-6c3 16 16 24 34 25 40 0 42-37 40-79-11 22-30 35-61 35-53 0-70-43-70-97 0-56 18-96 73-97 30 0 46 14 59 34l2-30h47zm-90-29c32 0 41-27 41-63 0-35-9-62-40-62-32 0-39 29-40 63 0 36 9 62 39 62" id="av"/><path fill="#fff" d="M110-194c64 0 96 36 96 99 0 64-35 99-97 99-61 0-95-36-95-99 0-62 34-99 96-99zm-1 164c35 0 45-28 45-65 0-40-10-65-43-65-34 0-45 26-45 65 0 36 10 65 43 65" id="aw"/><path fill="#fff" d="M135-150c-39-12-60 13-60 57V0H25l-1-190h47c2 13-1 29 3 40 6-28 27-53 61-41v41" id="ax"/><path fill="#fff" d="M114-157C55-157 80-60 75 0H25v-261h50l-1 109c12-26 28-41 61-42 86-1 58 113 63 194h-50c-7-57 23-157-34-157" id="ay"/><path fill="#fff" d="M220-157c-53 9-28 100-34 157h-49v-107c1-27-5-49-29-50C55-147 81-57 75 0H25l-1-190h47c2 12-1 28 3 38 10-53 101-56 108 0 13-22 24-43 59-42 82 1 51 116 57 194h-49v-107c-1-25-5-48-29-50" id="az"/><path fill="#fff" d="M137-138c1-29-70-34-71-4 15 46 118 7 119 86 1 83-164 76-172 9l43-7c4 19 20 25 44 25 33 8 57-30 24-41C81-84 22-81 20-136c-2-80 154-74 161-7" id="aA"/><g id="u"><use transform="matrix(0.1240740740740739,0,0,0.1240740740740739,0,0)" xlink:href="#am"/><use transform="matrix(0.1240740740740739,0,0,0.1240740740740739,24.81481481481478,0)" xlink:href="#au"/><use transform="matrix(0.1240740740740739,0,0,0.1240740740740739,37.22222222222217,0)" xlink:href="#av"/><use transform="matrix(0.1240740740740739,0,0,0.1240740740740739,64.39444444444436,0)" xlink:href="#aw"/><use transform="matrix(0.1240740740740739,0,0,0.1240740740740739,91.56666666666655,0)" xlink:href="#ax"/><use transform="matrix(0.1240740740740739,0,0,0.1240740740740739,108.9370370370369,0)" xlink:href="#ar"/><use transform="matrix(0.1240740740740739,0,0,0.1240740740740739,121.34444444444429,0)" xlink:href="#at"/><use transform="matrix(0.1240740740740739,0,0,0.1240740740740739,136.1092592592591,0)" xlink:href="#ay"/><use transform="matrix(0.1240740740740739,0,0,0.1240740740740739,163.28148148148128,0)" xlink:href="#az"/><use transform="matrix(0.1240740740740739,0,0,0.1240740740740739,202.98518518518495,0)" xlink:href="#aA"/></g><g id="v"><use transform="matrix(0.1240740740740739,0,0,0.1240740740740739,0,0)" xlink:href="#aq"/><use transform="matrix(0.1240740740740739,0,0,0.1240740740740739,14.764814814814795,0)" xlink:href="#aw"/><use transform="matrix(0.1240740740740739,0,0,0.1240740740740739,41.93703703703698,0)" xlink:href="#ax"/></g><path fill="#fff" d="M12 0v-35l95-120H19v-35h142v35L67-36h103V0H12" id="aB"/><g id="w"><use transform="matrix(0.1240740740740739,0,0,0.1240740740740739,0,0)" xlink:href="#aq"/><use transform="matrix(0.1240740740740739,0,0,0.1240740740740739,14.764814814814795,0)" xlink:href="#am"/><use transform="matrix(0.1240740740740739,0,0,0.1240740740740739,39.57962962962958,0)" xlink:href="#as"/><use transform="matrix(0.1240740740740739,0,0,0.1240740740740739,64.39444444444436,0)" xlink:href="#at"/><use transform="matrix(0.1240740740740739,0,0,0.1240740740740739,79.15925925925916,0)" xlink:href="#aw"/><use transform="matrix(0.1240740740740739,0,0,0.1240740740740739,106.33148148148135,0)" xlink:href="#ax"/><use transform="matrix(0.1240740740740739,0,0,0.1240740740740739,123.7018518518517,0)" xlink:href="#ar"/><use transform="matrix(0.1240740740740739,0,0,0.1240740740740739,136.1092592592591,0)" xlink:href="#aB"/><use transform="matrix(0.1240740740740739,0,0,0.1240740740740739,158.4425925925924,0)" xlink:href="#am"/><use transform="matrix(0.1240740740740739,0,0,0.1240740740740739,183.2574074074072,0)" xlink:href="#at"/><use transform="matrix(0.1240740740740739,0,0,0.1240740740740739,198.02222222222198,0)" xlink:href="#ar"/><use transform="matrix(0.1240740740740739,0,0,0.1240740740740739,210.42962962962937,0)" xlink:href="#aw"/><use transform="matrix(0.1240740740740739,0,0,0.1240740740740739,237.60185185185156,0)" xlink:href="#an"/></g><g id="x"><use transform="matrix(0.06234567901234567,0,0,0.06234567901234567,0,0)" xlink:href="#af"/><use transform="matrix(0.06234567901234567,0,0,0.06234567901234567,13.653703703703702,0)" xlink:href="#M"/><use transform="matrix(0.06234567901234567,0,0,0.06234567901234567,22.382098765432097,0)" xlink:href="#O"/><use transform="matrix(0.06234567901234567,0,0,0.06234567901234567,34.85123456790123,0)" xlink:href="#T"/><use transform="matrix(0.06234567901234567,0,0,0.06234567901234567,48.50493827160493,0)" xlink:href="#X"/><use transform="matrix(0.06234567901234567,0,0,0.06234567901234567,54.7395061728395,0)" xlink:href="#Z"/><use transform="matrix(0.06234567901234567,0,0,0.06234567901234567,67.20864197530864,0)" xlink:href="#P"/><use transform="matrix(0.06234567901234567,0,0,0.06234567901234567,74.62777777777777,0)" xlink:href="#O"/><use transform="matrix(0.06234567901234567,0,0,0.06234567901234567,87.0969135802469,0)" xlink:href="#T"/></g><g id="y"><use transform="matrix(0.06234567901234567,0,0,0.06234567901234567,0,0)" xlink:href="#M"/><use transform="matrix(0.06234567901234567,0,0,0.06234567901234567,8.728395061728394,0)" xlink:href="#L"/><use transform="matrix(0.06234567901234567,0,0,0.06234567901234567,21.197530864197525,0)" xlink:href="#P"/><use transform="matrix(0.06234567901234567,0,0,0.06234567901234567,28.61666666666666,0)" xlink:href="#X"/><use transform="matrix(0.06234567901234567,0,0,0.06234567901234567,34.85123456790123,0)" xlink:href="#Y"/><use transform="matrix(0.06234567901234567,0,0,0.06234567901234567,48.50493827160493,0)" xlink:href="#ai"/></g></defs></g></svg>