<svg xmlns="http://www.w3.org/2000/svg" xmlns:xlink="http://www.w3.org/1999/xlink" xmlns:lucid="lucid" width="740" height="840"><g transform="translate(-140 -140)" lucid:page-tab-id="OnsltZUru.mn"><path d="M160 160h120v80H160z" stroke="#000" stroke-width="2" fill="#3aa6dd"/><use xlink:href="#a" transform="matrix(1,0,0,1,165,165) translate(30.092901234567908 39.83055555555555)"/><path d="M280 160h160v80H280z" stroke="#000" stroke-width="2" fill="#3aa6dd"/><use xlink:href="#b" transform="matrix(1,0,0,1,285,165) translate(43.26604938271606 39.83055555555555)"/><path d="M440 160h420v80H440z" stroke="#000" stroke-width="2" fill="#3aa6dd"/><use xlink:href="#c" transform="matrix(1,0,0,1,445,165) translate(170.2111111111111 39.83055555555555)"/><path d="M160 240h120v80H160z" stroke="#000" stroke-width="2" fill="#c1e4f7"/><path d="M232.46 262.3c0 6.84-5.56 12.36-12.46 12.36-6.9 0-12.46-5.52-12.46-12.36 0-6.78 5.56-12.3 12.46-12.3 6.9 0 12.46 5.52 12.46 12.3m-3.34 16.56L220 291.52l-9.12-12.66h-13.13V310h44.5v-31.14z" stroke="#000" stroke-opacity="0" stroke-width="3" fill="#7ab648"/><path d="M197.75 278.85V310h44.5v-31.15l-13.66-8.95 2.35-10.86-10.64-8.37-11.6 9.44 2.98 10.33z" stroke="#000" stroke-opacity="0" stroke-width="0" fill="#210200" fill-opacity="0"/><path d="M160 480h120v80H160z" stroke="#000" stroke-width="2" fill="#c1e4f7"/><path d="M232.46 502.3c0 6.84-5.56 12.36-12.46 12.36-6.9 0-12.46-5.52-12.46-12.36 0-6.78 5.56-12.3 12.46-12.3 6.9 0 12.46 5.52 12.46 12.3m-3.34 16.56L220 531.52l-9.12-12.66h-13.13V550h44.5v-31.14z" stroke="#000" stroke-opacity="0" stroke-width="3" fill="#0c7cba"/><path d="M197.75 518.85V550h44.5v-31.15l-13.66-8.95 2.35-10.86-10.64-8.37-11.6 9.44 2.98 10.33z" stroke="#000" stroke-opacity="0" stroke-width="0" fill-opacity="0"/><path d="M160 640h120v80H160z" stroke="#000" stroke-width="2" fill="#b2d6ef"/><path d="M232.46 662.3c0 6.84-5.56 12.36-12.46 12.36-6.9 0-12.46-5.52-12.46-12.36 0-6.78 5.56-12.3 12.46-12.3 6.9 0 12.46 5.52 12.46 12.3m-3.34 16.56L220 691.52l-9.12-12.66h-13.13V710h44.5v-31.14z" stroke="#000" stroke-opacity="0" stroke-width="3" fill="#ffbbb1"/><path d="M197.75 678.85V710h44.5v-31.15l-13.66-8.95 2.35-10.86-10.64-8.37-11.6 9.44 2.98 10.33z" stroke="#000" stroke-opacity="0" stroke-width="0" fill="#a60700" fill-opacity="0"/><path d="M280 240h160v80H280z" stroke="#000" stroke-width="2" fill="#c1e4f7"/><path d="M320 252.82v.9h4.16c1.36 0 2.48.66 2.48 1.44v4.68c0 .78-1.12 1.38-2.48 1.38H320v37.5h4.16c1.36 0 2.48.66 2.48 1.44v4.68c0 .78-1.12 1.38-2.48 1.38H320v.96c0 1.56 2.24 2.82 5.04 2.82h70c2.72 0 4.96-1.26 4.96-2.82v-.96h-4.16c-1.36 0-2.48-.6-2.48-1.38v-4.68c0-.78 1.12-1.44 2.48-1.44H400v-37.5h-4.16c-1.36 0-2.48-.6-2.48-1.38v-4.68c0-.78 1.12-1.44 2.48-1.44H400v-.9c0-1.56-2.24-2.82-4.96-2.82h-70c-2.8 0-5.04 1.26-5.04 2.82zm64.16 45.9c1.36 0 2.48.66 2.48 1.44v4.68c0 .78-1.12 1.38-2.48 1.38h-8.32c-1.36 0-2.48-.6-2.48-1.38v-4.68c0-.78 1.12-1.44 2.48-1.44h8.32zm-20 0c1.36 0 2.48.66 2.48 1.44v4.68c0 .78-1.12 1.38-2.48 1.38h-8.32c-1.36 0-2.48-.6-2.48-1.38v-4.68c0-.78 1.12-1.44 2.48-1.44h8.32zm-20 0c1.36 0 2.48.66 2.48 1.44v4.68c0 .78-1.12 1.38-2.48 1.38h-8.32c-1.36 0-2.48-.6-2.48-1.38v-4.68c0-.78 1.12-1.44 2.48-1.44h8.32zm43.36-31.86c1.36 0 2.48.66 2.48 1.44v23.4c0 .78-1.12 1.44-2.48 1.44h-20c-1.36 0-2.48-.66-2.48-1.44v-23.4c0-.78 1.12-1.44 2.48-1.44h20zm-35.04 0c1.36 0 2.56.66 2.56 1.44v23.4c0 .78-1.2 1.44-2.56 1.44h-20c-1.36 0-2.48-.66-2.48-1.44v-23.4c0-.78 1.12-1.44 2.48-1.44h20zm31.68-13.14c1.36 0 2.48.66 2.48 1.44v4.68c0 .78-1.12 1.38-2.48 1.38h-8.32c-1.36 0-2.48-.6-2.48-1.38v-4.68c0-.78 1.12-1.44 2.48-1.44h8.32zm-20 0c1.36 0 2.48.66 2.48 1.44v4.68c0 .78-1.12 1.38-2.48 1.38h-8.32c-1.36 0-2.48-.6-2.48-1.38v-4.68c0-.78 1.12-1.44 2.48-1.44h8.32zm-20 0c1.36 0 2.48.66 2.48 1.44v4.68c0 .78-1.12 1.38-2.48 1.38h-8.32c-1.36 0-2.48-.6-2.48-1.38v-4.68c0-.78 1.12-1.44 2.48-1.44h8.32z" stroke="#000" stroke-opacity="0" stroke-width=".29"/><path d="M280 320h160v80H280z" stroke="#000" stroke-width="2" fill="#c1e4f7"/><path d="M320 332.82v.9h4.16c1.36 0 2.48.66 2.48 1.44v4.68c0 .78-1.12 1.38-2.48 1.38H320v37.5h4.16c1.36 0 2.48.66 2.48 1.44v4.68c0 .78-1.12 1.38-2.48 1.38H320v.96c0 1.56 2.24 2.82 5.04 2.82h70c2.72 0 4.96-1.26 4.96-2.82v-.96h-4.16c-1.36 0-2.48-.6-2.48-1.38v-4.68c0-.78 1.12-1.44 2.48-1.44H400v-37.5h-4.16c-1.36 0-2.48-.6-2.48-1.38v-4.68c0-.78 1.12-1.44 2.48-1.44H400v-.9c0-1.56-2.24-2.82-4.96-2.82h-70c-2.8 0-5.04 1.26-5.04 2.82zm64.16 45.9c1.36 0 2.48.66 2.48 1.44v4.68c0 .78-1.12 1.38-2.48 1.38h-8.32c-1.36 0-2.48-.6-2.48-1.38v-4.68c0-.78 1.12-1.44 2.48-1.44h8.32zm-20 0c1.36 0 2.48.66 2.48 1.44v4.68c0 .78-1.12 1.38-2.48 1.38h-8.32c-1.36 0-2.48-.6-2.48-1.38v-4.68c0-.78 1.12-1.44 2.48-1.44h8.32zm-20 0c1.36 0 2.48.66 2.48 1.44v4.68c0 .78-1.12 1.38-2.48 1.38h-8.32c-1.36 0-2.48-.6-2.48-1.38v-4.68c0-.78 1.12-1.44 2.48-1.44h8.32zm43.36-31.86c1.36 0 2.48.66 2.48 1.44v23.4c0 .78-1.12 1.44-2.48 1.44h-20c-1.36 0-2.48-.66-2.48-1.44v-23.4c0-.78 1.12-1.44 2.48-1.44h20zm-35.04 0c1.36 0 2.56.66 2.56 1.44v23.4c0 .78-1.2 1.44-2.56 1.44h-20c-1.36 0-2.48-.66-2.48-1.44v-23.4c0-.78 1.12-1.44 2.48-1.44h20zm31.68-13.14c1.36 0 2.48.66 2.48 1.44v4.68c0 .78-1.12 1.38-2.48 1.38h-8.32c-1.36 0-2.48-.6-2.48-1.38v-4.68c0-.78 1.12-1.44 2.48-1.44h8.32zm-20 0c1.36 0 2.48.66 2.48 1.44v4.68c0 .78-1.12 1.38-2.48 1.38h-8.32c-1.36 0-2.48-.6-2.48-1.38v-4.68c0-.78 1.12-1.44 2.48-1.44h8.32zm-20 0c1.36 0 2.48.66 2.48 1.44v4.68c0 .78-1.12 1.38-2.48 1.38h-8.32c-1.36 0-2.48-.6-2.48-1.38v-4.68c0-.78 1.12-1.44 2.48-1.44h8.32z" stroke="#000" stroke-opacity="0" stroke-width=".29" fill="#834187"/><path d="M280 400h160v80H280z" stroke="#000" stroke-width="2" fill="#c1e4f7"/><path d="M320 412.82v.9h4.16c1.36 0 2.48.66 2.48 1.44v4.68c0 .78-1.12 1.38-2.48 1.38H320v37.5h4.16c1.36 0 2.48.66 2.48 1.44v4.68c0 .78-1.12 1.38-2.48 1.38H320v.96c0 1.56 2.24 2.82 5.04 2.82h70c2.72 0 4.96-1.26 4.96-2.82v-.96h-4.16c-1.36 0-2.48-.6-2.48-1.38v-4.68c0-.78 1.12-1.44 2.48-1.44H400v-37.5h-4.16c-1.36 0-2.48-.6-2.48-1.38v-4.68c0-.78 1.12-1.44 2.48-1.44H400v-.9c0-1.56-2.24-2.82-4.96-2.82h-70c-2.8 0-5.04 1.26-5.04 2.82zm64.16 45.9c1.36 0 2.48.66 2.48 1.44v4.68c0 .78-1.12 1.38-2.48 1.38h-8.32c-1.36 0-2.48-.6-2.48-1.38v-4.68c0-.78 1.12-1.44 2.48-1.44h8.32zm-20 0c1.36 0 2.48.66 2.48 1.44v4.68c0 .78-1.12 1.38-2.48 1.38h-8.32c-1.36 0-2.48-.6-2.48-1.38v-4.68c0-.78 1.12-1.44 2.48-1.44h8.32zm-20 0c1.36 0 2.48.66 2.48 1.44v4.68c0 .78-1.12 1.38-2.48 1.38h-8.32c-1.36 0-2.48-.6-2.48-1.38v-4.68c0-.78 1.12-1.44 2.48-1.44h8.32zm43.36-31.86c1.36 0 2.48.66 2.48 1.44v23.4c0 .78-1.12 1.44-2.48 1.44h-20c-1.36 0-2.48-.66-2.48-1.44v-23.4c0-.78 1.12-1.44 2.48-1.44h20zm-35.04 0c1.36 0 2.56.66 2.56 1.44v23.4c0 .78-1.2 1.44-2.56 1.44h-20c-1.36 0-2.48-.66-2.48-1.44v-23.4c0-.78 1.12-1.44 2.48-1.44h20zm31.68-13.14c1.36 0 2.48.66 2.48 1.44v4.68c0 .78-1.12 1.38-2.48 1.38h-8.32c-1.36 0-2.48-.6-2.48-1.38v-4.68c0-.78 1.12-1.44 2.48-1.44h8.32zm-20 0c1.36 0 2.48.66 2.48 1.44v4.68c0 .78-1.12 1.38-2.48 1.38h-8.32c-1.36 0-2.48-.6-2.48-1.38v-4.68c0-.78 1.12-1.44 2.48-1.44h8.32zm-20 0c1.36 0 2.48.66 2.48 1.44v4.68c0 .78-1.12 1.38-2.48 1.38h-8.32c-1.36 0-2.48-.6-2.48-1.38v-4.68c0-.78 1.12-1.44 2.48-1.44h8.32z" stroke="#000" stroke-opacity="0" stroke-width=".29" fill="#0c7cba"/><path d="M280 480h160v80H280z" stroke="#000" stroke-width="2" fill="#c1e4f7"/><path d="M320 492.82v.9h4.16c1.36 0 2.48.66 2.48 1.44v4.68c0 .78-1.12 1.38-2.48 1.38H320v37.5h4.16c1.36 0 2.48.66 2.48 1.44v4.68c0 .78-1.12 1.38-2.48 1.38H320v.96c0 1.56 2.24 2.82 5.04 2.82h70c2.72 0 4.96-1.26 4.96-2.82v-.96h-4.16c-1.36 0-2.48-.6-2.48-1.38v-4.68c0-.78 1.12-1.44 2.48-1.44H400v-37.5h-4.16c-1.36 0-2.48-.6-2.48-1.38v-4.68c0-.78 1.12-1.44 2.48-1.44H400v-.9c0-1.56-2.24-2.82-4.96-2.82h-70c-2.8 0-5.04 1.26-5.04 2.82zm64.16 45.9c1.36 0 2.48.66 2.48 1.44v4.68c0 .78-1.12 1.38-2.48 1.38h-8.32c-1.36 0-2.48-.6-2.48-1.38v-4.68c0-.78 1.12-1.44 2.48-1.44h8.32zm-20 0c1.36 0 2.48.66 2.48 1.44v4.68c0 .78-1.12 1.38-2.48 1.38h-8.32c-1.36 0-2.48-.6-2.48-1.38v-4.68c0-.78 1.12-1.44 2.48-1.44h8.32zm-20 0c1.36 0 2.48.66 2.48 1.44v4.68c0 .78-1.12 1.38-2.48 1.38h-8.32c-1.36 0-2.48-.6-2.48-1.38v-4.68c0-.78 1.12-1.44 2.48-1.44h8.32zm43.36-31.86c1.36 0 2.48.66 2.48 1.44v23.4c0 .78-1.12 1.44-2.48 1.44h-20c-1.36 0-2.48-.66-2.48-1.44v-23.4c0-.78 1.12-1.44 2.48-1.44h20zm-35.04 0c1.36 0 2.56.66 2.56 1.44v23.4c0 .78-1.2 1.44-2.56 1.44h-20c-1.36 0-2.48-.66-2.48-1.44v-23.4c0-.78 1.12-1.44 2.48-1.44h20zm31.68-13.14c1.36 0 2.48.66 2.48 1.44v4.68c0 .78-1.12 1.38-2.48 1.38h-8.32c-1.36 0-2.48-.6-2.48-1.38v-4.68c0-.78 1.12-1.44 2.48-1.44h8.32zm-20 0c1.36 0 2.48.66 2.48 1.44v4.68c0 .78-1.12 1.38-2.48 1.38h-8.32c-1.36 0-2.48-.6-2.48-1.38v-4.68c0-.78 1.12-1.44 2.48-1.44h8.32zm-20 0c1.36 0 2.48.66 2.48 1.44v4.68c0 .78-1.12 1.38-2.48 1.38h-8.32c-1.36 0-2.48-.6-2.48-1.38v-4.68c0-.78 1.12-1.44 2.48-1.44h8.32z" stroke="#000" stroke-opacity="0" stroke-width=".29" fill="#19967d"/><path d="M280 560h160v80H280z" stroke="#000" stroke-width="2" fill="#c1e4f7"/><path d="M320 572.82v.9h4.16c1.36 0 2.48.66 2.48 1.44v4.68c0 .78-1.12 1.38-2.48 1.38H320v37.5h4.16c1.36 0 2.48.66 2.48 1.44v4.68c0 .78-1.12 1.38-2.48 1.38H320v.96c0 1.56 2.24 2.82 5.04 2.82h70c2.72 0 4.96-1.26 4.96-2.82v-.96h-4.16c-1.36 0-2.48-.6-2.48-1.38v-4.68c0-.78 1.12-1.44 2.48-1.44H400v-37.5h-4.16c-1.36 0-2.48-.6-2.48-1.38v-4.68c0-.78 1.12-1.44 2.48-1.44H400v-.9c0-1.56-2.24-2.82-4.96-2.82h-70c-2.8 0-5.04 1.26-5.04 2.82zm64.16 45.9c1.36 0 2.48.66 2.48 1.44v4.68c0 .78-1.12 1.38-2.48 1.38h-8.32c-1.36 0-2.48-.6-2.48-1.38v-4.68c0-.78 1.12-1.44 2.48-1.44h8.32zm-20 0c1.36 0 2.48.66 2.48 1.44v4.68c0 .78-1.12 1.38-2.48 1.38h-8.32c-1.36 0-2.48-.6-2.48-1.38v-4.68c0-.78 1.12-1.44 2.48-1.44h8.32zm-20 0c1.36 0 2.48.66 2.48 1.44v4.68c0 .78-1.12 1.38-2.48 1.38h-8.32c-1.36 0-2.48-.6-2.48-1.38v-4.68c0-.78 1.12-1.44 2.48-1.44h8.32zm43.36-31.86c1.36 0 2.48.66 2.48 1.44v23.4c0 .78-1.12 1.44-2.48 1.44h-20c-1.36 0-2.48-.66-2.48-1.44v-23.4c0-.78 1.12-1.44 2.48-1.44h20zm-35.04 0c1.36 0 2.56.66 2.56 1.44v23.4c0 .78-1.2 1.44-2.56 1.44h-20c-1.36 0-2.48-.66-2.48-1.44v-23.4c0-.78 1.12-1.44 2.48-1.44h20zm31.68-13.14c1.36 0 2.48.66 2.48 1.44v4.68c0 .78-1.12 1.38-2.48 1.38h-8.32c-1.36 0-2.48-.6-2.48-1.38v-4.68c0-.78 1.12-1.44 2.48-1.44h8.32zm-20 0c1.36 0 2.48.66 2.48 1.44v4.68c0 .78-1.12 1.38-2.48 1.38h-8.32c-1.36 0-2.48-.6-2.48-1.38v-4.68c0-.78 1.12-1.44 2.48-1.44h8.32zm-20 0c1.36 0 2.48.66 2.48 1.44v4.68c0 .78-1.12 1.38-2.48 1.38h-8.32c-1.36 0-2.48-.6-2.48-1.38v-4.68c0-.78 1.12-1.44 2.48-1.44h8.32z" stroke="#000" stroke-opacity="0" stroke-width=".29" fill="#c92d39"/><path d="M280 640h160v80H280z" stroke="#000" stroke-width="2" fill="#c1e4f7"/><path d="M320 652.82v.9h4.16c1.36 0 2.48.66 2.48 1.44v4.68c0 .78-1.12 1.38-2.48 1.38H320v37.5h4.16c1.36 0 2.48.66 2.48 1.44v4.68c0 .78-1.12 1.38-2.48 1.38H320v.96c0 1.56 2.24 2.82 5.04 2.82h70c2.72 0 4.96-1.26 4.96-2.82v-.96h-4.16c-1.36 0-2.48-.6-2.48-1.38v-4.68c0-.78 1.12-1.44 2.48-1.44H400v-37.5h-4.16c-1.36 0-2.48-.6-2.48-1.38v-4.68c0-.78 1.12-1.44 2.48-1.44H400v-.9c0-1.56-2.24-2.82-4.96-2.82h-70c-2.8 0-5.04 1.26-5.04 2.82zm64.16 45.9c1.36 0 2.48.66 2.48 1.44v4.68c0 .78-1.12 1.38-2.48 1.38h-8.32c-1.36 0-2.48-.6-2.48-1.38v-4.68c0-.78 1.12-1.44 2.48-1.44h8.32zm-20 0c1.36 0 2.48.66 2.48 1.44v4.68c0 .78-1.12 1.38-2.48 1.38h-8.32c-1.36 0-2.48-.6-2.48-1.38v-4.68c0-.78 1.12-1.44 2.48-1.44h8.32zm-20 0c1.36 0 2.48.66 2.48 1.44v4.68c0 .78-1.12 1.38-2.48 1.38h-8.32c-1.36 0-2.48-.6-2.48-1.38v-4.68c0-.78 1.12-1.44 2.48-1.44h8.32zm43.36-31.86c1.36 0 2.48.66 2.48 1.44v23.4c0 .78-1.12 1.44-2.48 1.44h-20c-1.36 0-2.48-.66-2.48-1.44v-23.4c0-.78 1.12-1.44 2.48-1.44h20zm-35.04 0c1.36 0 2.56.66 2.56 1.44v23.4c0 .78-1.2 1.44-2.56 1.44h-20c-1.36 0-2.48-.66-2.48-1.44v-23.4c0-.78 1.12-1.44 2.48-1.44h20zm31.68-13.14c1.36 0 2.48.66 2.48 1.44v4.68c0 .78-1.12 1.38-2.48 1.38h-8.32c-1.36 0-2.48-.6-2.48-1.38v-4.68c0-.78 1.12-1.44 2.48-1.44h8.32zm-20 0c1.36 0 2.48.66 2.48 1.44v4.68c0 .78-1.12 1.38-2.48 1.38h-8.32c-1.36 0-2.48-.6-2.48-1.38v-4.68c0-.78 1.12-1.44 2.48-1.44h8.32zm-20 0c1.36 0 2.48.66 2.48 1.44v4.68c0 .78-1.12 1.38-2.48 1.38h-8.32c-1.36 0-2.48-.6-2.48-1.38v-4.68c0-.78 1.12-1.44 2.48-1.44h8.32z" stroke="#000" stroke-opacity="0" stroke-width=".29" fill="#b2b2b2"/><path d="M280 720h160v80H280z" stroke="#000" stroke-width="2" fill="#c1e4f7"/><path d="M320 732.82v.9h4.16c1.36 0 2.48.66 2.48 1.44v4.68c0 .78-1.12 1.38-2.48 1.38H320v37.5h4.16c1.36 0 2.48.66 2.48 1.44v4.68c0 .78-1.12 1.38-2.48 1.38H320v.96c0 1.56 2.24 2.82 5.04 2.82h70c2.72 0 4.96-1.26 4.96-2.82v-.96h-4.16c-1.36 0-2.48-.6-2.48-1.38v-4.68c0-.78 1.12-1.44 2.48-1.44H400v-37.5h-4.16c-1.36 0-2.48-.6-2.48-1.38v-4.68c0-.78 1.12-1.44 2.48-1.44H400v-.9c0-1.56-2.24-2.82-4.96-2.82h-70c-2.8 0-5.04 1.26-5.04 2.82zm64.16 45.9c1.36 0 2.48.66 2.48 1.44v4.68c0 .78-1.12 1.38-2.48 1.38h-8.32c-1.36 0-2.48-.6-2.48-1.38v-4.68c0-.78 1.12-1.44 2.48-1.44h8.32zm-20 0c1.36 0 2.48.66 2.48 1.44v4.68c0 .78-1.12 1.38-2.48 1.38h-8.32c-1.36 0-2.48-.6-2.48-1.38v-4.68c0-.78 1.12-1.44 2.48-1.44h8.32zm-20 0c1.36 0 2.48.66 2.48 1.44v4.68c0 .78-1.12 1.38-2.48 1.38h-8.32c-1.36 0-2.48-.6-2.48-1.38v-4.68c0-.78 1.12-1.44 2.48-1.44h8.32zm43.36-31.86c1.36 0 2.48.66 2.48 1.44v23.4c0 .78-1.12 1.44-2.48 1.44h-20c-1.36 0-2.48-.66-2.48-1.44v-23.4c0-.78 1.12-1.44 2.48-1.44h20zm-35.04 0c1.36 0 2.56.66 2.56 1.44v23.4c0 .78-1.2 1.44-2.56 1.44h-20c-1.36 0-2.48-.66-2.48-1.44v-23.4c0-.78 1.12-1.44 2.48-1.44h20zm31.68-13.14c1.36 0 2.48.66 2.48 1.44v4.68c0 .78-1.12 1.38-2.48 1.38h-8.32c-1.36 0-2.48-.6-2.48-1.38v-4.68c0-.78 1.12-1.44 2.48-1.44h8.32zm-20 0c1.36 0 2.48.66 2.48 1.44v4.68c0 .78-1.12 1.38-2.48 1.38h-8.32c-1.36 0-2.48-.6-2.48-1.38v-4.68c0-.78 1.12-1.44 2.48-1.44h8.32zm-20 0c1.36 0 2.48.66 2.48 1.44v4.68c0 .78-1.12 1.38-2.48 1.38h-8.32c-1.36 0-2.48-.6-2.48-1.38v-4.68c0-.78 1.12-1.44 2.48-1.44h8.32z" stroke="#000" stroke-opacity="0" stroke-width=".29" fill="#7ab648"/><path d="M280 800h160v80H280z" stroke="#000" stroke-width="2" fill="#c1e4f7"/><path d="M320 812.82v.9h4.16c1.36 0 2.48.66 2.48 1.44v4.68c0 .78-1.12 1.38-2.48 1.38H320v37.5h4.16c1.36 0 2.48.66 2.48 1.44v4.68c0 .78-1.12 1.38-2.48 1.38H320v.96c0 1.56 2.24 2.82 5.04 2.82h70c2.72 0 4.96-1.26 4.96-2.82v-.96h-4.16c-1.36 0-2.48-.6-2.48-1.38v-4.68c0-.78 1.12-1.44 2.48-1.44H400v-37.5h-4.16c-1.36 0-2.48-.6-2.48-1.38v-4.68c0-.78 1.12-1.44 2.48-1.44H400v-.9c0-1.56-2.24-2.82-4.96-2.82h-70c-2.8 0-5.04 1.26-5.04 2.82zm64.16 45.9c1.36 0 2.48.66 2.48 1.44v4.68c0 .78-1.12 1.38-2.48 1.38h-8.32c-1.36 0-2.48-.6-2.48-1.38v-4.68c0-.78 1.12-1.44 2.48-1.44h8.32zm-20 0c1.36 0 2.48.66 2.48 1.44v4.68c0 .78-1.12 1.38-2.48 1.38h-8.32c-1.36 0-2.48-.6-2.48-1.38v-4.68c0-.78 1.12-1.44 2.48-1.44h8.32zm-20 0c1.36 0 2.48.66 2.48 1.44v4.68c0 .78-1.12 1.38-2.48 1.38h-8.32c-1.36 0-2.48-.6-2.48-1.38v-4.68c0-.78 1.12-1.44 2.48-1.44h8.32zm43.36-31.86c1.36 0 2.48.66 2.48 1.44v23.4c0 .78-1.12 1.44-2.48 1.44h-20c-1.36 0-2.48-.66-2.48-1.44v-23.4c0-.78 1.12-1.44 2.48-1.44h20zm-35.04 0c1.36 0 2.56.66 2.56 1.44v23.4c0 .78-1.2 1.44-2.56 1.44h-20c-1.36 0-2.48-.66-2.48-1.44v-23.4c0-.78 1.12-1.44 2.48-1.44h20zm31.68-13.14c1.36 0 2.48.66 2.48 1.44v4.68c0 .78-1.12 1.38-2.48 1.38h-8.32c-1.36 0-2.48-.6-2.48-1.38v-4.68c0-.78 1.12-1.44 2.48-1.44h8.32zm-20 0c1.36 0 2.48.66 2.48 1.44v4.68c0 .78-1.12 1.38-2.48 1.38h-8.32c-1.36 0-2.48-.6-2.48-1.38v-4.68c0-.78 1.12-1.44 2.48-1.44h8.32zm-20 0c1.36 0 2.48.66 2.48 1.44v4.68c0 .78-1.12 1.38-2.48 1.38h-8.32c-1.36 0-2.48-.6-2.48-1.38v-4.68c0-.78 1.12-1.44 2.48-1.44h8.32z" stroke="#000" stroke-opacity="0" stroke-width=".29" fill="#b391b5"/><path d="M280 880h160v80H280z" stroke="#000" stroke-width="2" fill="#c1e4f7"/><path d="M320 892.82v.9h4.16c1.36 0 2.48.66 2.48 1.44v4.68c0 .78-1.12 1.38-2.48 1.38H320v37.5h4.16c1.36 0 2.48.66 2.48 1.44v4.68c0 .78-1.12 1.38-2.48 1.38H320v.96c0 1.56 2.24 2.82 5.04 2.82h70c2.72 0 4.96-1.26 4.96-2.82v-.96h-4.16c-1.36 0-2.48-.6-2.48-1.38v-4.68c0-.78 1.12-1.44 2.48-1.44H400v-37.5h-4.16c-1.36 0-2.48-.6-2.48-1.38v-4.68c0-.78 1.12-1.44 2.48-1.44H400v-.9c0-1.56-2.24-2.82-4.96-2.82h-70c-2.8 0-5.04 1.26-5.04 2.82zm64.16 45.9c1.36 0 2.48.66 2.48 1.44v4.68c0 .78-1.12 1.38-2.48 1.38h-8.32c-1.36 0-2.48-.6-2.48-1.38v-4.68c0-.78 1.12-1.44 2.48-1.44h8.32zm-20 0c1.36 0 2.48.66 2.48 1.44v4.68c0 .78-1.12 1.38-2.48 1.38h-8.32c-1.36 0-2.48-.6-2.48-1.38v-4.68c0-.78 1.12-1.44 2.48-1.44h8.32zm-20 0c1.36 0 2.48.66 2.48 1.44v4.68c0 .78-1.12 1.38-2.48 1.38h-8.32c-1.36 0-2.48-.6-2.48-1.38v-4.68c0-.78 1.12-1.44 2.48-1.44h8.32zm43.36-31.86c1.36 0 2.48.66 2.48 1.44v23.4c0 .78-1.12 1.44-2.48 1.44h-20c-1.36 0-2.48-.66-2.48-1.44v-23.4c0-.78 1.12-1.44 2.48-1.44h20zm-35.04 0c1.36 0 2.56.66 2.56 1.44v23.4c0 .78-1.2 1.44-2.56 1.44h-20c-1.36 0-2.48-.66-2.48-1.44v-23.4c0-.78 1.12-1.44 2.48-1.44h20zm31.68-13.14c1.36 0 2.48.66 2.48 1.44v4.68c0 .78-1.12 1.38-2.48 1.38h-8.32c-1.36 0-2.48-.6-2.48-1.38v-4.68c0-.78 1.12-1.44 2.48-1.44h8.32zm-20 0c1.36 0 2.48.66 2.48 1.44v4.68c0 .78-1.12 1.38-2.48 1.38h-8.32c-1.36 0-2.48-.6-2.48-1.38v-4.68c0-.78 1.12-1.44 2.48-1.44h8.32zm-20 0c1.36 0 2.48.66 2.48 1.44v4.68c0 .78-1.12 1.38-2.48 1.38h-8.32c-1.36 0-2.48-.6-2.48-1.38v-4.68c0-.78 1.12-1.44 2.48-1.44h8.32z" stroke="#000" stroke-opacity="0" stroke-width=".29" fill="#c92d39"/><path d="M440 240h420v80H440z" stroke="#000" stroke-width="2" fill="#c1e4f7"/><path d="M490 250l-7.05 20.3-21.48.43 17.12 12.98-6.23 20.57L490 292l17.63 12.27-6.22-20.56 17.13-12.97-21.48-.44zM570 250l-7.05 20.3-21.48.43 17.12 12.98-6.23 20.57L570 292l17.63 12.27-6.22-20.56 17.13-12.97-21.48-.44zM650 250l-7.05 20.3-21.48.43 17.12 12.98-6.23 20.57L650 292l17.63 12.27-6.22-20.56 17.13-12.97-21.48-.44z" stroke="#000" stroke-width="2" fill="#ffdf71"/><path d="M730 250l-7.05 20.3-21.48.43 17.12 12.98-6.23 20.57L730 292l17.63 12.27-6.22-20.56 17.13-12.97-21.48-.44zM810 250l-7.05 20.3-21.48.43 17.12 12.98-6.23 20.57L810 292l17.63 12.27-6.22-20.56 17.13-12.97-21.48-.44z" stroke="#000" stroke-width="2" fill-opacity="0"/><path d="M440 320h420v80H440z" stroke="#000" stroke-width="2" fill="#c1e4f7"/><path d="M490 330l-7.05 20.3-21.48.43 17.12 12.98-6.23 20.57L490 372l17.63 12.27-6.22-20.56 17.13-12.97-21.48-.44zM570 330l-7.05 20.3-21.48.43 17.12 12.98-6.23 20.57L570 372l17.63 12.27-6.22-20.56 17.13-12.97-21.48-.44zM650 330l-7.05 20.3-21.48.43 17.12 12.98-6.23 20.57L650 372l17.63 12.27-6.22-20.56 17.13-12.97-21.48-.44zM730 330l-7.05 20.3-21.48.43 17.12 12.98-6.23 20.57L730 372l17.63 12.27-6.22-20.56 17.13-12.97-21.48-.44zM810 330l-7.05 20.3-21.48.43 17.12 12.98-6.23 20.57L810 372l17.63 12.27-6.22-20.56 17.13-12.97-21.48-.44z" stroke="#000" stroke-width="2" fill="#ffdf71"/><path d="M440 400h420v80H440z" stroke="#000" stroke-width="2" fill="#c1e4f7"/><path d="M490 410l-7.05 20.3-21.48.43 17.12 12.98-6.23 20.57L490 452l17.63 12.27-6.22-20.56 17.13-12.97-21.48-.44zM570 410l-7.05 20.3-21.48.43 17.12 12.98-6.23 20.57L570 452l17.63 12.27-6.22-20.56 17.13-12.97-21.48-.44z" stroke="#000" stroke-width="2" fill="#ffdf71"/><path d="M650 410l-7.05 20.3-21.48.43 17.12 12.98-6.23 20.57L650 452l17.63 12.27-6.22-20.56 17.13-12.97-21.48-.44zM730 410l-7.05 20.3-21.48.43 17.12 12.98-6.23 20.57L730 452l17.63 12.27-6.22-20.56 17.13-12.97-21.48-.44zM810 410l-7.05 20.3-21.48.43 17.12 12.98-6.23 20.57L810 452l17.63 12.27-6.22-20.56 17.13-12.97-21.48-.44z" stroke="#000" stroke-width="2" fill-opacity="0"/><path d="M440 560h420v80H440z" stroke="#000" stroke-width="2" fill="#c1e4f7"/><path d="M490 570l-7.05 20.3-21.48.43 17.12 12.98-6.23 20.57L490 612l17.63 12.27-6.22-20.56 17.13-12.97-21.48-.44zM570 570l-7.05 20.3-21.48.43 17.12 12.98-6.23 20.57L570 612l17.63 12.27-6.22-20.56 17.13-12.97-21.48-.44zM650 570l-7.05 20.3-21.48.43 17.12 12.98-6.23 20.57L650 612l17.63 12.27-6.22-20.56 17.13-12.97-21.48-.44zM730 570l-7.05 20.3-21.48.43 17.12 12.98-6.23 20.57L730 612l17.63 12.27-6.22-20.56 17.13-12.97-21.48-.44z" stroke="#000" stroke-width="2" fill="#ffdf71"/><path d="M810 570l-7.05 20.3-21.48.43 17.12 12.98-6.23 20.57L810 612l17.63 12.27-6.22-20.56 17.13-12.97-21.48-.44z" stroke="#000" stroke-width="2" fill-opacity="0"/><path d="M440 640h420v80H440z" stroke="#000" stroke-width="2" fill="#c1e4f7"/><path d="M490 650l-7.05 20.3-21.48.43 17.12 12.98-6.23 20.57L490 692l17.63 12.27-6.22-20.56 17.13-12.97-21.48-.44z" stroke="#000" stroke-width="2" fill="#ffdf71"/><path d="M570 650l-7.05 20.3-21.48.43 17.12 12.98-6.23 20.57L570 692l17.63 12.27-6.22-20.56 17.13-12.97-21.48-.44zM650 650l-7.05 20.3-21.48.43 17.12 12.98-6.23 20.57L650 692l17.63 12.27-6.22-20.56 17.13-12.97-21.48-.44zM730 650l-7.05 20.3-21.48.43 17.12 12.98-6.23 20.57L730 692l17.63 12.27-6.22-20.56 17.13-12.97-21.48-.44zM810 650l-7.05 20.3-21.48.43 17.12 12.98-6.23 20.57L810 692l17.63 12.27-6.22-20.56 17.13-12.97-21.48-.44z" stroke="#000" stroke-width="2" fill-opacity="0"/><path d="M440 480h420v80H440z" stroke="#000" stroke-width="2" fill="#c1e4f7"/><path d="M490 490l-7.05 20.3-21.48.43 17.12 12.98-6.23 20.57L490 532l17.63 12.27-6.22-20.56 17.13-12.97-21.48-.44zM570 490l-7.05 20.3-21.48.43 17.12 12.98-6.23 20.57L570 532l17.63 12.27-6.22-20.56 17.13-12.97-21.48-.44z" stroke="#000" stroke-width="2" fill="#ffdf71"/><path d="M650 490l-7.05 20.3-21.48.43 17.12 12.98-6.23 20.57L650 532l17.63 12.27-6.22-20.56 17.13-12.97-21.48-.44zM730 490l-7.05 20.3-21.48.43 17.12 12.98-6.23 20.57L730 532l17.63 12.27-6.22-20.56 17.13-12.97-21.48-.44zM810 490l-7.05 20.3-21.48.43 17.12 12.98-6.23 20.57L810 532l17.63 12.27-6.22-20.56 17.13-12.97-21.48-.44z" stroke="#000" stroke-width="2" fill-opacity="0"/><path d="M440 880h420v80H440z" stroke="#000" stroke-width="2" fill="#c1e4f7"/><path d="M490 890l-7.05 20.3-21.48.43 17.12 12.98-6.23 20.57L490 932l17.63 12.27-6.22-20.56 17.13-12.97-21.48-.44zM570 890l-7.05 20.3-21.48.43 17.12 12.98-6.23 20.57L570 932l17.63 12.27-6.22-20.56 17.13-12.97-21.48-.44zM650 890l-7.05 20.3-21.48.43 17.12 12.98-6.23 20.57L650 932l17.63 12.27-6.22-20.56 17.13-12.97-21.48-.44zM730 890l-7.05 20.3-21.48.43 17.12 12.98-6.23 20.57L730 932l17.63 12.27-6.22-20.56 17.13-12.97-21.48-.44z" stroke="#000" stroke-width="2" fill="#ffdf71"/><path d="M810 890l-7.05 20.3-21.48.43 17.12 12.98-6.23 20.57L810 932l17.63 12.27-6.22-20.56 17.13-12.97-21.48-.44z" stroke="#000" stroke-width="2" fill-opacity="0"/><path d="M440 800h420v80H440z" stroke="#000" stroke-width="2" fill="#c1e4f7"/><path d="M490 810l-7.05 20.3-21.48.43 17.12 12.98-6.23 20.57L490 852l17.63 12.27-6.22-20.56 17.13-12.97-21.48-.44zM570 810l-7.05 20.3-21.48.43 17.12 12.98-6.23 20.57L570 852l17.63 12.27-6.22-20.56 17.13-12.97-21.48-.44zM650 810l-7.05 20.3-21.48.43 17.12 12.98-6.23 20.57L650 852l17.63 12.27-6.22-20.56 17.13-12.97-21.48-.44zM730 810l-7.05 20.3-21.48.43 17.12 12.98-6.23 20.57L730 852l17.63 12.27-6.22-20.56 17.13-12.97-21.48-.44zM810 810l-7.05 20.3-21.48.43 17.12 12.98-6.23 20.57L810 852l17.63 12.27-6.22-20.56 17.13-12.97-21.48-.44z" stroke="#000" stroke-width="2" fill="#ffdf71"/><path d="M440 720h420v80H440z" stroke="#000" stroke-width="2" fill="#c1e4f7"/><path d="M490 730l-7.05 20.3-21.48.43 17.12 12.98-6.23 20.57L490 772l17.63 12.27-6.22-20.56 17.13-12.97-21.48-.44zM570 730l-7.05 20.3-21.48.43 17.12 12.98-6.23 20.57L570 772l17.63 12.27-6.22-20.56 17.13-12.97-21.48-.44zM650 730l-7.05 20.3-21.48.43 17.12 12.98-6.23 20.57L650 772l17.63 12.27-6.22-20.56 17.13-12.97-21.48-.44z" stroke="#000" stroke-width="2" fill="#ffdf71"/><path d="M730 730l-7.05 20.3-21.48.43 17.12 12.98-6.23 20.57L730 772l17.63 12.27-6.22-20.56 17.13-12.97-21.48-.44zM810 730l-7.05 20.3-21.48.43 17.12 12.98-6.23 20.57L810 772l17.63 12.27-6.22-20.56 17.13-12.97-21.48-.44z" stroke="#000" stroke-width="2" fill-opacity="0"/><path d="M160 400h120v80H160z" stroke="#000" stroke-width="2" fill="#c1e4f7"/><path d="M232.46 422.3c0 6.84-5.56 12.36-12.46 12.36-6.9 0-12.46-5.52-12.46-12.36 0-6.78 5.56-12.3 12.46-12.3 6.9 0 12.46 5.52 12.46 12.3m-3.34 16.56L220 451.52l-9.12-12.66h-13.13V470h44.5v-31.14z" stroke="#000" stroke-opacity="0" stroke-width="3" fill="#7ab648"/><path d="M197.75 438.85V470h44.5v-31.15l-13.66-8.95 2.35-10.86-10.64-8.37-11.6 9.44 2.98 10.33z" stroke="#000" stroke-opacity="0" stroke-width="0" fill="#210200" fill-opacity="0"/><path d="M160 320h120v80H160z" stroke="#000" stroke-width="2" fill="#c1e4f7"/><path d="M232.46 342.3c0 6.84-5.56 12.36-12.46 12.36-6.9 0-12.46-5.52-12.46-12.36 0-6.78 5.56-12.3 12.46-12.3 6.9 0 12.46 5.52 12.46 12.3m-3.34 16.56L220 371.52l-9.12-12.66h-13.13V390h44.5v-31.14z" stroke="#000" stroke-opacity="0" stroke-width="3" fill="#7ab648"/><path d="M197.75 358.85V390h44.5v-31.15l-13.66-8.95 2.35-10.86-10.64-8.37-11.6 9.44 2.98 10.33z" stroke="#000" stroke-opacity="0" stroke-width="0" fill="#210200" fill-opacity="0"/><path d="M160 560h120v80H160z" stroke="#000" stroke-width="2" fill="#c1e4f7"/><path d="M232.46 582.3c0 6.84-5.56 12.36-12.46 12.36-6.9 0-12.46-5.52-12.46-12.36 0-6.78 5.56-12.3 12.46-12.3 6.9 0 12.46 5.52 12.46 12.3m-3.34 16.56L220 611.52l-9.12-12.66h-13.13V630h44.5v-31.14z" stroke="#000" stroke-opacity="0" stroke-width="3" fill="#0c7cba"/><path d="M197.75 598.85V630h44.5v-31.15l-13.66-8.95 2.35-10.86-10.64-8.37-11.6 9.44 2.98 10.33z" stroke="#000" stroke-opacity="0" stroke-width="0" fill-opacity="0"/><path d="M160 720h120v80H160z" stroke="#000" stroke-width="2" fill="#b2d6ef"/><path d="M232.46 742.3c0 6.84-5.56 12.36-12.46 12.36-6.9 0-12.46-5.52-12.46-12.36 0-6.78 5.56-12.3 12.46-12.3 6.9 0 12.46 5.52 12.46 12.3m-3.34 16.56L220 771.52l-9.12-12.66h-13.13V790h44.5v-31.14z" stroke="#000" stroke-opacity="0" stroke-width="3" fill="#ffbbb1"/><path d="M197.75 758.85V790h44.5v-31.15l-13.66-8.95 2.35-10.86-10.64-8.37-11.6 9.44 2.98 10.33z" stroke="#000" stroke-opacity="0" stroke-width="0" fill="#a60700" fill-opacity="0"/><path d="M160 800h120v80H160z" stroke="#000" stroke-width="2" fill="#b2d6ef"/><path d="M232.46 822.3c0 6.84-5.56 12.36-12.46 12.36-6.9 0-12.46-5.52-12.46-12.36 0-6.78 5.56-12.3 12.46-12.3 6.9 0 12.46 5.52 12.46 12.3m-3.34 16.56L220 851.52l-9.12-12.66h-13.13V870h44.5v-31.14z" stroke="#000" stroke-opacity="0" stroke-width="3" fill="#ffbbb1"/><path d="M197.75 838.85V870h44.5v-31.15l-13.66-8.95 2.35-10.86-10.64-8.37-11.6 9.44 2.98 10.33z" stroke="#000" stroke-opacity="0" stroke-width="0" fill="#a60700" fill-opacity="0"/><path d="M160 880h120v80H160z" stroke="#000" stroke-width="2" fill="#b2d6ef"/><path d="M232.46 902.3c0 6.84-5.56 12.36-12.46 12.36-6.9 0-12.46-5.52-12.46-12.36 0-6.78 5.56-12.3 12.46-12.3 6.9 0 12.46 5.52 12.46 12.3m-3.34 16.56L220 931.52l-9.12-12.66h-13.13V950h44.5v-31.14z" stroke="#000" stroke-opacity="0" stroke-width="3" fill="#ffbbb1"/><path d="M197.75 918.85V950h44.5v-31.15l-13.66-8.95 2.35-10.86-10.64-8.37-11.6 9.44 2.98 10.33z" stroke="#000" stroke-opacity="0" stroke-width="0" fill="#a60700" fill-opacity="0"/><defs><path fill="#fff" d="M238-95c0 69-44 99-111 99C63 4 22-25 22-93v-155h51v151c-1 38 19 59 55 60 90 1 49-130 58-211h52v153" id="d"/><path fill="#fff" d="M137-138c1-29-70-34-71-4 15 46 118 7 119 86 1 83-164 76-172 9l43-7c4 19 20 25 44 25 33 8 57-30 24-41C81-84 22-81 20-136c-2-80 154-74 161-7" id="e"/><path fill="#fff" d="M185-48c-13 30-37 53-82 52C43 2 14-33 14-96s30-98 90-98c62 0 83 45 84 108H66c0 31 8 55 39 56 18 0 30-7 34-22zm-45-69c5-46-57-63-70-21-2 6-4 13-4 21h74" id="f"/><path fill="#fff" d="M135-150c-39-12-60 13-60 57V0H25l-1-190h47c2 13-1 29 3 40 6-28 27-53 61-41v41" id="g"/><g id="a"><use transform="matrix(0.06234567901234567,0,0,0.06234567901234567,0,0)" xlink:href="#d"/><use transform="matrix(0.06234567901234567,0,0,0.06234567901234567,16.147530864197527,0)" xlink:href="#e"/><use transform="matrix(0.06234567901234567,0,0,0.06234567901234567,28.61666666666666,0)" xlink:href="#f"/><use transform="matrix(0.06234567901234567,0,0,0.06234567901234567,41.08580246913579,0)" xlink:href="#g"/></g><path fill="#fff" d="M230 0l2-204L168 0h-37L68-204 70 0H24v-248h70l56 185 57-185h69V0h-46" id="h"/><path fill="#fff" d="M110-194c64 0 96 36 96 99 0 64-35 99-97 99-61 0-95-36-95-99 0-62 34-99 96-99zm-1 164c35 0 45-28 45-65 0-40-10-65-43-65-34 0-45 26-45 65 0 36 10 65 43 65" id="i"/><path fill="#fff" d="M128 0H69L1-190h53L99-40l48-150h52" id="j"/><path fill="#fff" d="M25-224v-37h50v37H25zM25 0v-190h50V0H25" id="k"/><g id="b"><use transform="matrix(0.06234567901234567,0,0,0.06234567901234567,0,0)" xlink:href="#h"/><use transform="matrix(0.06234567901234567,0,0,0.06234567901234567,18.641358024691353,0)" xlink:href="#i"/><use transform="matrix(0.06234567901234567,0,0,0.06234567901234567,32.295061728395055,0)" xlink:href="#j"/><use transform="matrix(0.06234567901234567,0,0,0.06234567901234567,44.76419753086419,0)" xlink:href="#k"/><use transform="matrix(0.06234567901234567,0,0,0.06234567901234567,50.99876543209875,0)" xlink:href="#f"/></g><path fill="#fff" d="M240-174c0 40-23 61-54 70L253 0h-59l-57-94H76V0H24v-248c93 4 217-23 216 74zM76-134c48-2 112 12 112-38 0-48-66-32-112-35v73" id="l"/><path fill="#fff" d="M133-34C117-15 103 5 69 4 32 3 11-16 11-54c-1-60 55-63 116-61 1-26-3-47-28-47-18 1-26 9-28 27l-52-2c7-38 36-58 82-57s74 22 75 68l1 82c-1 14 12 18 25 15v27c-30 8-71 5-69-32zm-48 3c29 0 43-24 42-57-32 0-66-3-65 30 0 17 8 27 23 27" id="m"/><path fill="#fff" d="M115-3C79 11 28 4 28-45v-112H4v-33h27l15-45h31v45h36v33H77v99c-1 23 16 31 38 25v30" id="n"/><path fill="#fff" d="M135-194c87-1 58 113 63 194h-50c-7-57 23-157-34-157-59 0-34 97-39 157H25l-1-190h47c2 12-1 28 3 38 12-26 28-41 61-42" id="o"/><path fill="#fff" d="M195-6C206 82 75 100 31 46c-4-6-6-13-8-21l49-6c3 16 16 24 34 25 40 0 42-37 40-79-11 22-30 35-61 35-53 0-70-43-70-97 0-56 18-96 73-97 30 0 46 14 59 34l2-30h47zm-90-29c32 0 41-27 41-63 0-35-9-62-40-62-32 0-39 29-40 63 0 36 9 62 39 62" id="p"/><g id="c"><use transform="matrix(0.06234567901234567,0,0,0.06234567901234567,0,0)" xlink:href="#l"/><use transform="matrix(0.06234567901234567,0,0,0.06234567901234567,16.147530864197527,0)" xlink:href="#m"/><use transform="matrix(0.06234567901234567,0,0,0.06234567901234567,28.61666666666666,0)" xlink:href="#n"/><use transform="matrix(0.06234567901234567,0,0,0.06234567901234567,36.035802469135795,0)" xlink:href="#k"/><use transform="matrix(0.06234567901234567,0,0,0.06234567901234567,42.27037037037036,0)" xlink:href="#o"/><use transform="matrix(0.06234567901234567,0,0,0.06234567901234567,55.924074074074056,0)" xlink:href="#p"/></g></defs></g></svg>