<svg xmlns="http://www.w3.org/2000/svg" xmlns:xlink="http://www.w3.org/1999/xlink" xmlns:lucid="lucid" width="710.15" height="189.98"><g transform="translate(-140 -140)" lucid:page-tab-id=".-Ml~BBjh09O"><path d="M160 240h670.15v69.98H160z" fill="#fff" fill-opacity="0"/><path d="M207.64 292.4l-.13 1.04h-11.1l-9.85-20.7c-.66.07-1.38.13-1.9.13-.93 0-1.58-.13-2.5-.26l-4.08 15.72c-.13.52-.2.98-.2 1.5 0 1.58 1.2 2.57 5 2.57h1.25l-.26 1.04H162.5l.26-1.05h1.05c5 0 6.32-1.85 6.9-4.08l8.16-32.67c.13-.52.33-1.1.33-1.64 0-1.37-1.13-2.42-5.07-2.42h-1.32l.28-1.05h17.8c10.52 0 14.2 4.34 14.2 9.92 0 5.46-4.66 9.86-11.7 11.24l7.56 15.04c1.25 2.56 2.96 5.32 6.7 5.65m-20.7-39.24l-4.2 17.08c.85.2 1.5.27 2.1.27 8.74 0 12.55-3.8 12.55-9.33 0-7.1-4.08-8.2-8.22-8.2-.92 0-1.5.06-2.24.2M220.12 282.24L216 297.4c-.15.46-.2.97-.2 1.48 0 1.76.93 3.06 2.8 3.06 5 0 8.26-5.25 9.75-9.43.37-1.1.7-2.26.7-3.43 0-3.43-2.84-3.02-2.84-5.06 0-1.57 1.17-1.94 2.52-1.94 1.95 0 2.18 2.37 2.18 3.85 0 4.6-1.8 9.3-4.5 13.02-2 2.8-5.58 4.84-9.02 4.84-2.97 0-5.4-.93-5.4-4.33 0-.97.15-1.95.43-2.88l2.7-9.75c.1-.37.24-.8.24-1.16 0-.93-2.05-.93-2.65-.93v-.7c2.4-.6 4.9-.92 7.24-1.94M298.86 272.4h-38.7v-4.33h38.7v4.34m0 13.16h-38.7v-4.34h38.7v4.34M339.93 303.7h-13.86v-53.76h13.86v1.64h-5.45c-2.24 0-3.42.8-3.42 3.15v43.77c0 2.63 1.25 3.55 3.42 3.55h5.45v1.64M373.52 271.75c0 11.3-4.15 22.6-14.86 22.6-11.23 0-14.85-12.2-14.85-23 0-11.62 4.55-22.33 15.13-22.33 8.6 0 14.6 9.26 14.6 22.73m-6.32.33c0-13.67-2.9-21.35-8.67-21.35-5.45 0-8.4 7.75-8.4 21.1 0 13.33 2.88 20.82 8.53 20.82 5.6 0 8.55-7.55 8.55-20.57M387 290.62c0 1.9-1.72 3.54-3.7 3.54-2.03 0-3.6-1.57-3.6-3.6 0-2.05 1.64-3.7 3.67-3.7 1.9 0 3.62 1.78 3.62 3.76M395.6 259.93l-1.06-.27c1.9-6.24 6.05-10.64 12.9-10.64 6.1 0 10.24 3.6 10.24 9 0 3.15-1.7 6.44-6.1 9.07 2.88 1.24 4.06 2.03 5.44 3.47 1.84 2.04 2.9 5.06 2.9 8.48 0 3.48-1.13 6.7-3.03 9.2-3.17 4.2-9.4 6.1-15.26 6.1-4.8 0-7.36-1.37-7.36-3.73 0-1.38 1.18-2.37 2.7-2.37 1.1 0 2.16.4 4 1.7 2.44 1.72 3.82 2.05 5.66 2.05 4.86 0 8.54-4.47 8.54-10.06 0-5-2.3-8.2-6.83-9.53-1.45-.45-2.96-.65-6.7-.65v-.92c2.5-.85 4.2-1.57 5.5-2.36 3.23-1.84 5.34-4.8 5.34-8.8 0-4.48-2.77-6.7-7.1-6.7-4.1 0-7.1 2.1-9.8 6.96M429.9 302.7l-.66-1.24c3.62-2.43 5.46-4.86 5.46-7.03 0-.46-.4-.86-.92-.86-.53 0-1.2.27-1.9.27-2.44 0-3.82-1.12-3.82-3.36 0-2.23 1.58-3.74 3.94-3.74 2.96 0 5.26 2.3 5.26 5.72 0 3.94-2.83 8.08-7.36 10.25M499.56 271.75c0 11.3-4.14 22.6-14.85 22.6-11.23 0-14.84-12.2-14.84-23 0-11.62 4.53-22.33 15.1-22.33 8.62 0 14.6 9.26 14.6 22.73m-6.3.33c0-13.67-2.9-21.35-8.68-21.35-5.46 0-8.4 7.75-8.4 21.1 0 13.33 2.88 20.82 8.53 20.82 5.6 0 8.55-7.55 8.55-20.57M513.03 290.62c0 1.9-1.7 3.54-3.68 3.54-2.03 0-3.6-1.57-3.6-3.6 0-2.05 1.63-3.7 3.67-3.7 1.9 0 3.6 1.78 3.6 3.76M548.9 271.75c0 11.3-4.13 22.6-14.84 22.6-11.24 0-14.85-12.2-14.85-23 0-11.62 4.54-22.33 15.12-22.33 8.6 0 14.6 9.26 14.6 22.73m-6.3.33c0-13.67-2.9-21.35-8.7-21.35-5.44 0-8.4 7.75-8.4 21.1 0 13.33 2.9 20.82 8.54 20.82 5.6 0 8.55-7.55 8.55-20.57M576.38 293.44h-18.13v-.98c4.86-.27 6.24-1.65 6.24-5.26v-29.5c0-2.24-.6-3.23-1.98-3.23-.66 0-1.78.33-2.96.8l-1.77.65V255l11.75-5.98.6.2v39.23c0 2.82 1.3 4 6.23 4v1M588.87 302.7l-.66-1.24c3.63-2.43 5.47-4.86 5.47-7.03 0-.46-.4-.86-.92-.86-.53 0-1.2.27-1.9.27-2.44 0-3.82-1.12-3.82-3.36 0-2.23 1.58-3.74 3.94-3.74 2.96 0 5.26 2.3 5.26 5.72 0 3.94-2.83 8.08-7.36 10.25M653.2 293.44h-18.13v-.98c4.86-.27 6.24-1.65 6.24-5.26v-29.5c0-2.24-.58-3.23-1.96-3.23-.66 0-1.77.33-2.96.8l-1.77.65V255l11.77-5.98.6.2v39.23c0 2.82 1.3 4 6.24 4v1M672.07 290.62c0 1.9-1.7 3.54-3.68 3.54-2.05 0-3.63-1.57-3.63-3.6 0-2.05 1.65-3.7 3.68-3.7 1.9 0 3.62 1.78 3.62 3.76M705.45 248.7l-2.36 5.57c-.2.46-.74.86-1.8.86h-12.74l-2.63 5.58c9.4 1.8 12.7 3.23 16.43 8.43 1.7 2.36 2.3 4.86 2.3 8.34 0 6.3-1.97 10.4-6.44 13.67-3.1 2.24-6.7 3.22-11.17 3.22-4.93 0-8.34-1.58-8.34-4.07 0-1.66 1.12-2.5 2.96-2.5 1.5 0 2.76.32 4.87 2.03 1.84 1.5 3.35 2.1 4.66 2.1 4.6 0 8.86-5.45 8.86-11.1 0-4.2-1.44-7.5-4.4-9.86-3.1-2.5-7.7-4.6-14-4.6-.6 0-.8-.14-.8-.53 0-.13.08-.33.08-.33l7.16-15.56h13.6c1.52 0 2.1-.33 3.16-1.7M737.85 290.62c0 1.9-1.7 3.54-3.68 3.54-2.04 0-3.6-1.57-3.6-3.6 0-2.05 1.63-3.7 3.67-3.7 1.9 0 3.6 1.78 3.6 3.76M765.25 290.62c0 1.9-1.7 3.54-3.68 3.54-2.03 0-3.6-1.57-3.6-3.6 0-2.05 1.63-3.7 3.67-3.7 1.9 0 3.6 1.78 3.6 3.76M792.66 290.62c0 1.9-1.7 3.54-3.68 3.54-2.04 0-3.62-1.57-3.62-3.6 0-2.05 1.65-3.7 3.68-3.7 1.9 0 3.62 1.78 3.62 3.76M824.33 303.7h-13.86v-1.65h5.78c2.3 0 3.1-1 3.1-3.02v-43.9c0-2.3-.86-3.55-3.36-3.55h-5.53v-1.64h13.86v53.75"/><path d="M320 160h120v40H320z" stroke="#000" stroke-opacity="0" stroke-width="2" fill="#fff" fill-opacity="0"/><use xlink:href="#a" transform="matrix(1,0,0,1,325,165) translate(28.575 18.15)"/><path d="M460 160h120v40H460z" stroke="#000" stroke-opacity="0" stroke-width="2" fill="#fff" fill-opacity="0"/><use xlink:href="#b" transform="matrix(1,0,0,1,465,165) translate(17.549999999999997 18.15)"/><path d="M600 160h120v40H600z" stroke="#000" stroke-opacity="0" stroke-width="2" fill="#fff" fill-opacity="0"/><use xlink:href="#c" transform="matrix(1,0,0,1,605,165) translate(28.025 18.15)"/><path d="M380 201v20.5" stroke="#000" stroke-width="2" fill="none"/><path d="M381 201.03h-2V200h2z"/><path d="M380 236.76l-4.64-14.26h9.28z" stroke="#000" stroke-width="2"/><path d="M520 201v20.5" stroke="#000" stroke-width="2" fill="none"/><path d="M521 201.03h-2V200h2z"/><path d="M520 236.76l-4.64-14.26h9.28z" stroke="#000" stroke-width="2"/><path d="M660 201v20.5" stroke="#000" stroke-width="2" fill="none"/><path d="M661 201.03h-2V200h2z"/><path d="M660 236.76l-4.64-14.26h9.28z" stroke="#000" stroke-width="2"/><defs><path d="M133-34C117-15 103 5 69 4 32 3 11-16 11-54c-1-60 55-63 116-61 1-26-3-47-28-47-18 1-26 9-28 27l-52-2c7-38 36-58 82-57s74 22 75 68l1 82c-1 14 12 18 25 15v27c-30 8-71 5-69-32zm-48 3c29 0 43-24 42-57-32 0-66-3-65 30 0 17 8 27 23 27" id="d"/><path d="M190-63c-7 42-38 67-86 67-59 0-84-38-90-98-12-110 154-137 174-36l-49 2c-2-19-15-32-35-32-30 0-35 28-38 64-6 74 65 87 74 30" id="e"/><path d="M115-3C79 11 28 4 28-45v-112H4v-33h27l15-45h31v45h36v33H77v99c-1 23 16 31 38 25v30" id="f"/><path d="M25-224v-37h50v37H25zM25 0v-190h50V0H25" id="g"/><path d="M110-194c64 0 96 36 96 99 0 64-35 99-97 99-61 0-95-36-95-99 0-62 34-99 96-99zm-1 164c35 0 45-28 45-65 0-40-10-65-43-65-34 0-45 26-45 65 0 36 10 65 43 65" id="h"/><path d="M135-194c87-1 58 113 63 194h-50c-7-57 23-157-34-157-59 0-34 97-39 157H25l-1-190h47c2 12-1 28 3 38 12-26 28-41 61-42" id="i"/><g id="a"><use transform="matrix(0.05,0,0,0.05,0,0)" xlink:href="#d"/><use transform="matrix(0.05,0,0,0.05,10,0)" xlink:href="#e"/><use transform="matrix(0.05,0,0,0.05,20,0)" xlink:href="#f"/><use transform="matrix(0.05,0,0,0.05,25.950000000000003,0)" xlink:href="#g"/><use transform="matrix(0.05,0,0,0.05,30.950000000000003,0)" xlink:href="#h"/><use transform="matrix(0.05,0,0,0.05,41.9,0)" xlink:href="#i"/></g><path d="M135-150c-39-12-60 13-60 57V0H25l-1-190h47c2 13-1 29 3 40 6-28 27-53 61-41v41" id="j"/><path d="M220-157c-53 9-28 100-34 157h-49v-107c1-27-5-49-29-50C55-147 81-57 75 0H25l-1-190h47c2 12-1 28 3 38 10-53 101-56 108 0 13-22 24-43 59-42 82 1 51 116 57 194h-49v-107c-1-25-5-48-29-50" id="k"/><path d="M185-48c-13 30-37 53-82 52C43 2 14-33 14-96s30-98 90-98c62 0 83 45 84 108H66c0 31 8 55 39 56 18 0 30-7 34-22zm-45-69c5-46-57-63-70-21-2 6-4 13-4 21h74" id="l"/><g id="b"><use transform="matrix(0.05,0,0,0.05,0,0)" xlink:href="#j"/><use transform="matrix(0.05,0,0,0.05,7,0)" xlink:href="#h"/><use transform="matrix(0.05,0,0,0.05,17.950000000000003,0)" xlink:href="#k"/><use transform="matrix(0.05,0,0,0.05,33.95,0)" xlink:href="#d"/><use transform="matrix(0.05,0,0,0.05,43.95,0)" xlink:href="#i"/><use transform="matrix(0.05,0,0,0.05,54.900000000000006,0)" xlink:href="#e"/><use transform="matrix(0.05,0,0,0.05,64.9,0)" xlink:href="#l"/></g><path d="M88-194c31-1 46 15 58 34l-1-101h50l1 261h-48c-2-10 0-23-3-31C134-8 116 4 84 4 32 4 16-41 15-95c0-56 19-97 73-99zm17 164c33 0 40-30 41-66 1-37-9-64-41-64s-38 30-39 65c0 43 13 65 39 65" id="m"/><g id="c"><use transform="matrix(0.05,0,0,0.05,0,0)" xlink:href="#m"/><use transform="matrix(0.05,0,0,0.05,10.950000000000001,0)" xlink:href="#j"/><use transform="matrix(0.05,0,0,0.05,17.950000000000003,0)" xlink:href="#d"/><use transform="matrix(0.05,0,0,0.05,27.950000000000003,0)" xlink:href="#k"/><use transform="matrix(0.05,0,0,0.05,43.95,0)" xlink:href="#d"/></g></defs></g></svg>