<svg xmlns="http://www.w3.org/2000/svg" xmlns:xlink="http://www.w3.org/1999/xlink" xmlns:lucid="lucid" width="1200" height="546.38"><g transform="translate(-140 -113.61547819571045)" lucid:page-tab-id="rCtiD1TG3pxG"><path d="M160 240h573.7v160H160z" fill="#fff" fill-opacity="0"/><path d="M170.96 322.7h551.67v-5.48H170.96zM208.42 265.57h-6.72l-1.3 8.66h6.4v3.55h-6.97l-2 13.95h-3.75l2-13.95h-8.65l-2.13 13.95h-3.75l2.13-13.95h-6.85v-3.55h7.43l1.36-8.66h-7.04v-3.55h7.56l2-13.05h3.74l-2 13.05h8.6l1.93-13.05h3.76l-1.94 13.05h6.2v3.55m-10.46 0h-8.6l-1.35 8.66h8.66M247.95 267.83l.9-.84c2.53-2.4 5.05-3.76 7.3-3.76 3.95 0 6.08 3.5 6.08 10.02 0 8.33-7.1 19.25-16.4 19.25-1.56 0-2.72-.25-3.95-1.22l-1.55 6.46c-.2.84-.32 1.55-.32 2.26 0 1.42.72 2.78 3.95 2.78h1.03l-.2.77h-15.1l.2-.77c4-.2 4.44-2.13 5.22-5.1l7.56-29.98c0-1.23-.07-2.13-2-2.13-.52 0-1.3.13-1.8.26l-.14-1.04 10.2-1.56-1.16 4.46m-2.33 8.66l-2.97 12.92c.9 1.03 2.2 1.35 2.97 1.35 6.53 0 11.37-11.17 11.37-18.4 0-4.08-1.8-5.37-3.3-5.37-3.42 0-6.77 3.94-8.07 9.5M291.88 264.08l-5.75 22.48c-.07.26-.07.4-.07.6 0 .5.26.9.9.9 1.37 0 2.6-1.7 3.7-2.98l.3-.4.85.72c-1.47 2.13-4.77 6.9-8.5 6.9-1.9 0-2.6-1.2-2.6-3.35 0-.58.07-1.6.26-2.4l1.68-6.12h-.06c-.46.32-6.27 8.14-8.85 10.07-1.5 1.1-3.17 1.8-4.65 1.8-3.04 0-3.94-2.3-3.94-4.77 0-1.35.2-2.58.5-3.8l3.82-14.93c.26-.97.4-1.36.4-1.6 0-.8-.72-1.5-2.14-1.5-.45 0-1.23.06-1.68.2l-.2-.98 10.15-1.68-5.44 21.06c-.13.58-.2 1.04-.2 1.55 0 1.36.52 2.2 1.7 2.2 1.6 0 4.2-2 6.45-4.97 2.78-3.7 5.76-9.44 7.05-14.15l1.35-4.85h4.98M305.2 274.48l.3.07c.6-1.16 1.36-2.46 2.08-3.62 2.2-3.5 5.3-7.7 8.84-7.7 1.88 0 2.85 1.37 2.85 3.12 0 2.45-1.55 5.3-4.2 5.3-2.52 0-1.88-2.46-3.04-2.46-3.94 0-9.56 16.52-9.88 17.62l-1.36 4.9h-4.98l5.94-23.5c.2-.7.26-1.16.26-1.5 0-.83-.7-1.2-2.13-1.2-.46 0-1.37.1-1.76.18l-.13-.97 10.16-1.5M343.68 284.56l.78.84c-3.3 3.88-7.3 7.04-12.8 7.04-6.26 0-8.84-5.04-8.84-10 0-9.05 7.82-19.2 17-19.2 3.22 0 6.25 1.75 6.25 4.9 0 2.47-1.03 4.54-3.48 4.54-1.7 0-2.47-1.36-2.47-2.46 0-1.55 1.87-2.32 1.87-3.75 0-.77-.64-1.35-2.2-1.35-7.68 0-11.36 11.56-11.36 16.73 0 5.62 3.16 7.04 6.07 7.04 3.95 0 6.92-2.14 9.18-4.34M377.4 284.88l.9.7c-1.87 2.2-5.03 6.86-8.58 6.86-1.17 0-2.65-.64-2.65-2.7 0-.8.06-1.7 4.13-17.26.13-.45.45-1.87.45-2.84 0-1.23-.45-2.26-1.55-2.26-2.32 0-6.58 5.5-8.65 8.6-2.2 3.28-4 6.58-4.33 7.87l-2.07 7.88H350l9.83-38.76c.07-.25.13-.45.13-.64 0-.84-.64-1.42-2-1.42-.65 0-1.36.07-1.87.14l-.14-.9 10.27-1.56-7.04 26.87h.25c3.42-3.74 8.07-12.2 13.95-12.2 2.7 0 3.68 2.2 3.68 4.52 0 1.42-.4 2.77-.7 4.13l-3.76 14.86c-.06.32-.13.45-.13.64 0 .4.2.9.83.9 1.42 0 3.17-2.25 4.07-3.42M410.73 264.08l-5.87 22.3s-.07.12-.07.7c0 .7.38 1.1.9 1.1.64 0 1.6-.13 4.13-3.5l.78.8c-2 3.02-5.5 6.9-8.6 6.9-2.12 0-2.7-1.5-2.7-3.56 0-.84.4-2.2.7-3.23h-.25c-4.65 5.94-8.65 6.78-11.17 6.78-4.07 0-5.75-3.56-5.75-7.7 0-8.52 8.53-21.44 17.83-21.44 2.78 0 4.13 1.55 4.26 2.98h.07l.57-2.14h5.16m-6.78 5.62c0-2.64-.77-4.58-3.23-4.58-4.4 0-8.27 5.62-10.46 11.04-1.17 2.9-1.8 5.75-1.8 8 0 3.44 2 4.28 3.74 4.28 4.45 0 8.97-6.14 10.78-12.28.52-1.68.97-4.26.97-6.46M437.93 263.24l-1.55 9.44h-.97c0-4.14-2.32-7.76-5.93-7.76-1.62 0-3.3 1.1-3.3 3.75 0 3.55 8.66 9.5 8.66 15.63 0 4-3.1 8.08-8.72 8.08-2.2 0-6.32-1.3-7.1-1.3-.58 0-1.16.26-1.94 1.36h-1.1l1.62-10.07h1.04c0 4.06 2.64 8.4 6.7 8.4 3.82 0 4.73-3.24 4.73-5.76 0-5.28-8.4-8.5-8.4-14.84 0-5.1 3.8-6.92 7.37-6.92 2.77 0 4.06 1.3 5.94 1.3.7 0 1.42-.65 1.94-1.3h1.03M464.6 284.5l.9.84c-4.5 5.55-8.9 7.1-12.9 7.1-6.34 0-8.86-5.42-8.86-10.07 0-1.5.07-2.4.4-3.88 1.6-7.18 8.7-15.26 16.9-15.26 2.73 0 6.6.9 6.6 4.9 0 8.22-10.78 11.38-18.47 11.77v1.82c0 4.13 3.36 6.9 7.3 6.9 2.7 0 5.8-1.15 8.14-4.12m-15.43-6.4h.58c6.72 0 12.8-4.46 12.8-10.14 0-1.6-1.24-2.78-2.85-2.78-4.78 0-8.66 7.43-10.53 12.92M504 248.58l-9.6 38.63c-.08.2-.14.6-.14.78 0 .4.32.6.97.6 1.3 0 3.1-2.27 4-3.63l.7.77c-1.93 2.9-5.35 6.8-8.4 6.8-2.05 0-2.57-1.5-2.57-2.66 0-1.3.13-2.2.65-4.14h-.32c-4.78 6-8.65 6.8-11.04 6.8-4.72 0-5.7-4.8-5.7-8.22 0-6.65 6.67-21.06 16.6-21.06 3.7 0 5.18 1.68 5.25 3.23h.12l3.42-13.5c.06-.25.13-.5.13-.77 0-.84-.45-1.3-2.13-1.3-.6 0-1.3.14-1.75.2l-.27-.97m-.5 19.64c0-3.04-.98-4.6-3.63-4.6-6.4 0-11.63 12.93-11.63 19.13 0 3.17 1.8 4.27 3.62 4.27 4.5 0 8.77-6.08 10.58-12.02.7-2.26 1.04-4.78 1.04-6.78M543.8 255.17c0 1.68-1.42 2.97-3.1 2.97-1.87 0-3.1-1.3-3.1-2.97 0-1.6 1.23-3.23 3.1-3.23 1.68 0 3.1 1.62 3.1 3.23m-1.94 8.07l-5.94 23.52c-.06.4-.06.64-.06.9 0 .45.38.65.84.65 1.42 0 1.8-.77 4.13-3.3l.84.66c-2.26 2.9-5.5 6.78-8.66 6.78-1.8 0-2.57-1.23-2.57-2.97 0-.77 0-2 5.1-21.83.07-.13.13-.58.13-.78 0-1.1-.5-1.42-2-1.42-.58 0-1.36.13-1.8.26l-.2-1.03M600.65 264.08l-5.88 22.3s-.07.12-.07.7c0 .7.4 1.1.9 1.1.65 0 1.62-.13 4.14-3.5l.78.8c-2 3.02-5.5 6.9-8.6 6.9-2.13 0-2.7-1.5-2.7-3.56 0-.84.38-2.2.7-3.23h-.26c-4.65 5.94-8.65 6.78-11.17 6.78-4.08 0-5.76-3.56-5.76-7.7 0-8.52 8.53-21.44 17.83-21.44 2.78 0 4.13 1.55 4.26 2.98h.07l.58-2.14h5.17m-6.8 5.62c0-2.64-.76-4.58-3.22-4.58-4.4 0-8.26 5.62-10.46 11.04-1.16 2.9-1.8 5.75-1.8 8 0 3.44 2 4.28 3.74 4.28 4.46 0 9-6.14 10.8-12.28.5-1.68.96-4.26.96-6.46M632.75 285.53l-.32.4c-1.8 2.18-4.9 6.32-8.27 6.32-2.07 0-2.65-1.5-2.65-2.97 0-.84.27-1.88.46-2.6l3.68-14.26c.13-.52.46-1.8.46-2.72 0-1.22-.4-2.45-1.55-2.45-2.46 0-6.53 5.55-8.53 8.6-2.33 3.48-4 6.52-4.4 7.87l-2.12 8h-4.98l6.14-24.15c0-1.16-.2-2.06-1.94-2.06-.65 0-1.36.13-1.8.2l-.14-.97 10.27-1.5-3.3 12.22h.2c.33 0 3.5-4.52 3.62-4.7 2.58-3.24 6.46-7.5 10.34-7.5 2.85 0 3.62 1.87 3.62 4 0 1.6-.38 3.23-.7 4.52L627 286.7c-.06.12-.06.32-.06.64.06.4.25.9.97.9 1.56 0 3.1-2.32 4-3.42M668.8 248.58l-9.63 38.63c-.07.2-.13.6-.13.78 0 .4.32.6.97.6 1.3 0 3.1-2.27 4-3.63l.72.77c-1.93 2.9-5.36 6.8-8.4 6.8-2.06 0-2.58-1.5-2.58-2.66 0-1.3.13-2.2.65-4.14h-.33c-4.78 6-8.66 6.8-11.05 6.8-4.7 0-5.68-4.8-5.68-8.22 0-6.65 6.65-21.06 16.6-21.06 3.68 0 5.16 1.68 5.23 3.23h.13l3.42-13.5c.07-.25.13-.5.13-.77 0-.84-.45-1.3-2.13-1.3-.58 0-1.3.14-1.74.2l-.26-.97m-.52 19.64c0-3.04-.97-4.6-3.62-4.6-6.4 0-11.62 12.93-11.62 19.13 0 3.17 1.8 4.27 3.6 4.27 4.54 0 8.8-6.08 10.6-12.02.72-2.26 1.04-4.78 1.04-6.78M716 255.17c0 1.68-1.4 2.97-3.1 2.97-1.86 0-3.1-1.3-3.1-2.97 0-1.6 1.24-3.23 3.1-3.23 1.7 0 3.1 1.62 3.1 3.23m-1.34 8.07l-6.98 27.46c-1.42 5.68-5.04 13.1-12 13.1-3.44 0-4.73-2.12-4.73-3.93 0-1.42.78-3.36 3.04-3.36 1.2 0 2.25.98 2.25 2.47 0 .97-1.04 1.16-1.04 2.2 0 .25.34.64.66.64 2.97 0 5.1-4.9 6.65-11.1l5.96-23.45c0-.78-.65-1.42-2.07-1.42-.53 0-1.3.13-1.76.32l-.2-1.1M229.9 353.28h-6.73l-1.3 8.66h6.4v3.55h-6.97l-2 13.94h-3.75l2-13.95h-8.65l-2.13 13.94h-3.75l2.13-13.95h-6.85v-3.56h7.43l1.36-8.66h-7.05v-3.55h7.56l2-13.05h3.76l-2 13.05h8.58l1.94-13.05h3.75l-1.94 13.05h6.2v3.55m-10.47 0h-8.6l-1.35 8.66h8.66M269.42 355.54l.9-.84c2.53-2.4 5.05-3.74 7.3-3.74 3.95 0 6.08 3.48 6.08 10 0 8.34-7.1 19.26-16.4 19.26-1.56 0-2.72-.26-3.95-1.23l-1.55 6.45c-.2.84-.32 1.55-.32 2.26 0 1.43.7 2.8 3.94 2.8h1.03l-.2.76h-15.1l.2-.77c4-.2 4.44-2.14 5.22-5.1l7.56-30c0-1.2-.07-2.12-2-2.12-.52 0-1.3.13-1.8.26l-.14-1.03 10.2-1.54-1.17 4.45m-2.32 8.67L263.94 377c.9 1.02 2.2 1.34 2.98 1.34 6.53 0 11.37-11.17 11.37-18.4 0-4.07-1.8-5.37-3.3-5.37-3.4 0-6.77 3.94-8.06 9.5M313.35 351.8l-5.75 22.48c-.06.25-.06.38-.06.58 0 .5.25.9.9.9 1.36 0 2.58-1.68 3.68-2.97l.33-.4.83.7c-1.48 2.14-4.78 6.92-8.52 6.92-1.88 0-2.6-1.22-2.6-3.35 0-.6.08-1.62.27-2.4l1.68-6.13h-.05c-.45.32-6.27 8.14-8.85 10.08-1.5 1.1-3.17 1.8-4.65 1.8-3.04 0-3.94-2.32-3.94-4.78 0-1.35.2-2.58.52-3.8l3.8-14.93c.27-.96.4-1.35.4-1.6 0-.78-.7-1.5-2.13-1.5-.46 0-1.24.08-1.7.2l-.18-.96 10.14-1.68-5.43 21.05c-.13.6-.2 1.05-.2 1.56 0 1.36.53 2.2 1.7 2.2 1.6 0 4.2-2 6.45-4.97 2.78-3.7 5.75-9.44 7.04-14.16l1.36-4.84h4.97M326.66 362.2l.32.06c.58-1.16 1.36-2.45 2.07-3.62 2.2-3.5 5.3-7.68 8.85-7.68 1.87 0 2.84 1.35 2.84 3.1 0 2.45-1.55 5.3-4.2 5.3-2.52 0-1.87-2.46-3.04-2.46-3.94 0-9.56 16.54-9.88 17.63l-1.36 4.9h-4.97l5.93-23.5c.2-.7.26-1.16.26-1.5 0-.83-.72-1.2-2.14-1.2-.45 0-1.36.12-1.74.18l-.13-.96 10.13-1.48M365.16 372.27l.77.84c-3.3 3.9-7.3 7.05-12.8 7.05-6.26 0-8.84-5.04-8.84-10 0-9.05 7.8-19.2 16.98-19.2 3.23 0 6.27 1.75 6.27 4.92 0 2.45-1.04 4.52-3.5 4.52-1.67 0-2.45-1.37-2.45-2.47 0-1.55 1.88-2.32 1.88-3.74 0-.8-.65-1.37-2.2-1.37-7.7 0-11.37 11.56-11.37 16.73 0 5.62 3.18 7.04 6.08 7.04 3.94 0 6.9-2.13 9.18-4.33M398.87 372.6l.9.7c-1.86 2.2-5.03 6.85-8.58 6.85-1.18 0-2.66-.64-2.66-2.7 0-.78.06-1.7 4.13-17.26.13-.46.46-1.88.46-2.85 0-1.23-.46-2.26-1.56-2.26-2.32 0-6.58 5.48-8.65 8.58-2.2 3.3-4 6.6-4.33 7.88l-2.08 7.88h-5.03l9.8-38.75c.07-.27.13-.47.13-.66 0-.84-.64-1.42-2-1.42-.65 0-1.36.06-1.87.13l-.13-.9 10.27-1.56-7.04 26.86h.26c3.42-3.74 8.07-12.2 13.95-12.2 2.7 0 3.68 2.2 3.68 4.52 0 1.42-.4 2.78-.7 4.13l-3.76 14.87c-.07.32-.14.45-.14.64 0 .4.2.92.84.92 1.43 0 3.17-2.26 4.07-3.42M432.2 351.8l-5.87 22.28s-.07.13-.07.7c0 .72.4 1.1.9 1.1.65 0 1.62-.12 4.14-3.48l.78.78c-2 3.03-5.5 6.9-8.6 6.9-2.13 0-2.7-1.48-2.7-3.54 0-.84.38-2.2.7-3.23h-.26c-4.65 5.95-8.65 6.8-11.17 6.8-4.07 0-5.75-3.56-5.75-7.7 0-8.52 8.53-21.44 17.83-21.44 2.78 0 4.13 1.55 4.26 2.97h.06l.58-2.13h5.17m-6.78 5.62c0-2.65-.77-4.6-3.23-4.6-4.4 0-8.28 5.63-10.47 11.06-1.16 2.9-1.8 5.74-1.8 8 0 3.43 2 4.27 3.74 4.27 4.45 0 8.98-6.14 10.78-12.27.52-1.68.97-4.27.97-6.46M459.4 350.96l-1.55 9.43h-.97c0-4.15-2.32-7.76-5.94-7.76-1.62 0-3.3 1.1-3.3 3.74 0 3.55 8.66 9.5 8.66 15.63 0 4.02-3.1 8.1-8.72 8.1-2.2 0-6.33-1.3-7.1-1.3-.6 0-1.17.26-1.94 1.35h-1.1l1.6-10.07h1.05c0 4.07 2.63 8.4 6.7 8.4 3.82 0 4.72-3.24 4.72-5.76 0-5.3-8.4-8.52-8.4-14.85 0-5.1 3.8-6.9 7.37-6.9 2.76 0 4.06 1.28 5.93 1.28.7 0 1.42-.65 1.94-1.3h1.03M486.08 372.2l.9.85c-4.52 5.55-8.9 7.1-12.92 7.1-6.33 0-8.85-5.42-8.85-10.07 0-1.5.08-2.4.4-3.88 1.62-7.17 8.72-15.24 16.93-15.24 2.7 0 6.58.9 6.58 4.9 0 8.2-10.77 11.37-18.46 11.76v1.8c0 4.14 3.36 6.92 7.3 6.92 2.7 0 5.8-1.16 8.14-4.13m-15.44-6.4h.58c6.72 0 12.8-4.44 12.8-10.13 0-1.6-1.24-2.78-2.85-2.78-4.78 0-8.66 7.42-10.53 12.9M525.48 336.3l-9.62 38.62c-.07.2-.13.58-.13.78 0 .38.32.58.97.58 1.3 0 3.1-2.26 4-3.62l.7.78c-1.93 2.9-5.35 6.78-8.4 6.78-2.05 0-2.57-1.5-2.57-2.65 0-1.3.13-2.2.65-4.13h-.33c-4.78 6-8.65 6.78-11.04 6.78-4.7 0-5.68-4.78-5.68-8.2 0-6.66 6.66-21.06 16.6-21.06 3.7 0 5.17 1.68 5.24 3.23h.13l3.4-13.5c.07-.27.14-.53.14-.8 0-.83-.45-1.28-2.13-1.28-.57 0-1.28.13-1.74.2l-.26-.98m-.5 19.64c0-3.04-.98-4.6-3.63-4.6-6.4 0-11.63 12.93-11.63 19.13 0 3.18 1.8 4.28 3.62 4.28 4.52 0 8.8-6.07 10.6-12.02.7-2.26 1.03-4.78 1.03-6.78M565.27 342.88c0 1.68-1.42 2.97-3.1 2.97-1.87 0-3.1-1.3-3.1-2.97 0-1.6 1.23-3.23 3.1-3.23 1.68 0 3.1 1.62 3.1 3.23m-1.94 8.08l-5.94 23.5c-.07.4-.07.65-.07.9 0 .47.38.66.84.66 1.42 0 1.8-.78 4.13-3.3l.84.65c-2.26 2.9-5.5 6.78-8.65 6.78-1.82 0-2.6-1.22-2.6-2.97 0-.77 0-2 5.1-21.83.07-.13.13-.58.13-.78 0-1.1-.5-1.42-2-1.42-.58 0-1.36.13-1.8.26l-.2-1.02M619.92 360.9c0 8.98-7.1 19.25-17 19.25-6.5 0-8.7-5.8-8.7-10.53 0-8.26 6.64-18.66 16.2-18.66 5.17 0 9.5 2.97 9.5 9.94m-5.23-2c0-2.45-.92-6-4.34-6-5.3 0-10.92 9.62-10.92 18.4 0 2.14.2 6.92 3.8 6.92 6.86 0 11.45-14.4 11.45-19.32M632.52 362.2l.32.06c.58-1.16 1.36-2.45 2.07-3.62 2.2-3.5 5.3-7.68 8.86-7.68 1.87 0 2.84 1.35 2.84 3.1 0 2.45-1.55 5.3-4.2 5.3-2.52 0-1.87-2.46-3.04-2.46-3.94 0-9.56 16.54-9.88 17.63l-1.36 4.9h-4.97l5.94-23.5c.2-.7.25-1.16.25-1.5 0-.83-.7-1.2-2.13-1.2-.45 0-1.36.12-1.74.18l-.13-.96 10.14-1.48M694.46 342.88c0 1.68-1.42 2.97-3.1 2.97-1.87 0-3.1-1.3-3.1-2.97 0-1.6 1.23-3.23 3.1-3.23 1.68 0 3.1 1.62 3.1 3.23m-1.35 8.08l-6.97 27.45c-1.42 5.7-5.04 13.12-12 13.12-3.44 0-4.73-2.13-4.73-3.94 0-1.42.78-3.36 3.04-3.36 1.22 0 2.26.97 2.26 2.46 0 .97-1.04 1.16-1.04 2.2 0 .25.33.64.65.64 2.98 0 5.1-4.9 6.66-11.1l5.95-23.46c0-.77-.64-1.42-2.06-1.42-.52 0-1.3.13-1.74.32l-.2-1.1"/><path d="M1120 360c0 66.27-71.63 120-160 120s-160-53.73-160-120c0-66.27 71.63-120 160-120s160 53.73 160 120z" stroke="#47b0e5" stroke-width="2" fill="#47b0e5" fill-opacity=".4"/><path d="M1320 360c0 66.27-71.63 120-160 120s-160-53.73-160-120c0-66.27 71.63-120 160-120s160 53.73 160 120z" stroke="#47b0e5" stroke-width="2" fill="#47b0e5" fill-opacity=".4"/><path d="M880 200h160v40H880z" stroke="#000" stroke-opacity="0" stroke-width="2" fill="#fff" fill-opacity="0"/><use xlink:href="#a" transform="matrix(1,0,0,1,885,205) translate(45.728703703703715 19.83055555555555)"/><use xlink:href="#b" transform="matrix(1,0,0,1,885,205) translate(98.03672839506171 19.83055555555555)"/><path d="M1080 200h160v40h-160z" stroke="#000" stroke-opacity="0" stroke-width="2" fill="#fff" fill-opacity="0"/><use xlink:href="#a" transform="matrix(1,0,0,1,1085,205) translate(45.728703703703715 19.83055555555555)"/><use xlink:href="#c" transform="matrix(1,0,0,1,1085,205) translate(98.03672839506171 19.83055555555555)"/><path d="M1120 560h160v80h-160z" stroke="#000" stroke-opacity="0" stroke-width="2" fill="#fff" fill-opacity="0"/><use xlink:href="#d" transform="matrix(1,0,0,1,1125,565) translate(18.39012345679013 26.705555555555552)"/><use xlink:href="#e" transform="matrix(1,0,0,1,1125,565) translate(10.25401234567903 53.638888888888886)"/><use xlink:href="#f" transform="matrix(1,0,0,1,1125,565) translate(75.03117283950617 53.638888888888886)"/><use xlink:href="#g" transform="matrix(1,0,0,1,1125,565) translate(87.5003086419753 53.638888888888886)"/><use xlink:href="#h" transform="matrix(1,0,0,1,1125,565) translate(133.5114197530864 53.638888888888886)"/><path d="M1119 599.98l-3.03-.06-3.6-.23-3.24-.35-2.94-.43-2.7-.5-2.46-.6-2.28-.63-2.12-.7-2-.73-1.85-.8-1.77-.8-1.66-.88-1.58-.93-1.52-.95-1.45-1-1.4-1.07-1.33-1.1-1.3-1.17-1.26-1.23-1.22-1.3-1.2-1.4-1.16-1.46-1.14-1.58-1.1-1.68-1.1-1.82-1.1-1.96-1.05-2.14-1.05-2.35-1.02-2.6-1-2.87-.98-3.24-.95-3.7-.9-4.25-.84-5-.76-6-.62-7.5-.4-9.86.02-14.56 3.92-100.52-.56-13.42-.9-10.75-.97-7.73" stroke="#000" stroke-width="2" fill="none"/><path d="M1120 599v2l-1.05-.02.04-2z"/><path d="M1060.6 363.18l7.24 13.14-9.1 1.74z" stroke="#000" stroke-width="2"/><path d="M906 135.88l6.44 1.1 5.65 1.2.8.18 21.82 4.7 32.07 6.6 8.18 2.14 6 1.85 4.88 1.73 4.16 1.68 3.68 1.67 3.33 1.67 3.05 1.7 2.84 1.75 2.68 1.8 2.54 1.88 2.44 1.95 2.35 2.06 2.3 2.18 2.23 2.32 2.2 2.48 2.2 2.67 2.16 2.9 2.17 3.15 2.17 3.5 2.2 3.87 2.23 4.34 2.28 4.93 2.33 5.65 2.4 6.58 2.48 7.8 2.55 9.37 2.63 11.6 2.7 14.7 2.7 19.37 2.03 19.93-2 .2-2.02-19.9-2.7-19.28-2.68-14.63-2.6-11.5-2.54-9.32-2.44-7.7-2.37-6.5-2.3-5.6-2.24-4.84-2.2-4.27-2.15-3.8-2.14-3.42-2.1-3.1-2.13-2.83-2.13-2.6-2.15-2.42-2.2-2.26-2.2-2.12-2.3-2-2.38-1.9-2.47-1.83-2.6-1.77-2.78-1.7-2.98-1.66-3.26-1.64-3.6-1.63-4.1-1.65-4.8-1.7-5.9-1.82-8.1-2.13-32.03-6.57-21.85-4.72-.8-.18-5.58-1.2-6.36-1.06-2.8-.35v-2zm-92.04 6.78l-7.15 1.52-13 3.34-12.3 3.7-11.38 3.97-10.34 4.08-9.3 4.13-8.25 4.1-7.3 4.02-6.44 3.9-5.68 3.76-4.98 3.6-4.4 3.5-3.86 3.32-3.4 3.2-3.03 3.08-2.66 2.96-2.38 2.86-2.1 2.76-1.85 2.67-1.65 2.6-1.46 2.52-1.3 2.47-1.12 2.4-1 2.38-.87 2.33-.1.3-1.9-.6.12-.36.88-2.4 1.03-2.46 1.18-2.47 1.33-2.54 1.5-2.6 1.7-2.68 1.9-2.74 2.16-2.82 2.4-2.92 2.74-3.03 3.07-3.12 3.47-3.26 3.93-3.4 4.46-3.52 5.05-3.67 5.74-3.8 6.5-3.95 7.4-4.05 8.32-4.13 9.36-4.17 10.43-4.12 11.45-3.98 12.38-3.73 13.1-3.37 7.6-1.6zM690.14 223.5l-6.94 13.3-2.2-14.83z"/><path d="M691.66 222.75l-9 17.25-2.85-19.24zm-7.92 10.87l4.88-9.36-6.43-1.08zM1061 299.9l-2 .2-.1-1.02 2-.2z"/><use xlink:href="#i" transform="matrix(1,0,0,1,813.962835705473,124.61547819571045) translate(0 14.4)"/><use xlink:href="#j" transform="matrix(1,0,0,1,813.962835705473,124.61547819571045) translate(39.95 14.4)"/><path d="M960.98 482.02l-.04 2.02-.18 2.84-.28 2.68-.37 2.53-.45 2.38-.54 2.28-.6 2.17-.67 2.08-.74 2-.82 1.93-.87 1.85-.93 1.8-1 1.74-1.08 1.7-1.15 1.64-1.22 1.6-1.3 1.58-1.4 1.54-1.47 1.5-1.58 1.5-1.7 1.45-1.8 1.44-1.94 1.4-2.1 1.4-2.23 1.35-2.42 1.33-2.62 1.3-2.85 1.27-3.1 1.23-3.37 1.17-3.7 1.12-4.07 1.04-4.46.95-4.93.83-5.44.7-6 .5-6.65.26h-7.33l-8.06-.34-8.85-.75-9.6-1.2-10.34-1.76-10.97-2.34-11.48-2.95-11.77-3.55-10.88-3.8h6.08l5.42 1.9 11.7 3.52 11.38 2.93 10.9 2.32 10.26 1.74 9.52 1.2 8.75.74 8 .34h7.24l6.56-.27 5.93-.5 5.35-.67 4.84-.82 4.4-.93 3.97-1.02 3.6-1.08 3.3-1.15 3.04-1.2 2.77-1.23 2.56-1.26 2.35-1.3 2.18-1.3 2.02-1.35 1.87-1.36 1.74-1.38 1.64-1.4 1.52-1.44 1.42-1.45 1.33-1.46 1.26-1.5 1.17-1.56 1.1-1.58 1.03-1.62.96-1.67.9-1.7.84-1.78.77-1.85.7-1.92.66-2 .58-2.1.5-2.18.45-2.32.36-2.44.27-2.58.17-2.76.04-1.98zm-282.92-63.3l.92 3.25 1.08 3.33 1.26 3.4 1.47 3.5 1.68 3.6 1.94 3.7 2.2 3.8 2.5 3.96 2.86 4.1 3.23 4.25 3.66 4.42 4.14 4.6 4.66 4.75 5.27 4.94 5.92 5.12 6.64 5.27 7.4 5.37 8.24 5.47 9.05 5.48 1.48.82h-4l-7.6-4.6-8.3-5.53-7.5-5.42-6.7-5.3-6-5.18-5.3-5-4.74-4.82-4.2-4.65-3.7-4.48-3.28-4.32-2.9-4.16-2.55-4.03-2.23-3.9-1.98-3.76-1.73-3.67-1.5-3.56-1.3-3.48-1.1-3.4-.94-3.36-.16-.66 1.95-.45z" fill="#47b0e5"/><path d="M960 481h1l-.02 1.05-2-.04.02-1.02zM681.43 416.8l-9.2 1.14 2.84-14.73z" fill="#47b0e5"/><path d="M682.92 417.62L671 419.1l3.67-19.1zm-9.45-.84l6.47-.8-4.47-9.56z" fill="#47b0e5"/><g><use xlink:href="#k" transform="matrix(1,0,0,1,728.8564452907416,501.83512822340373) translate(0 14.4)"/><use xlink:href="#j" transform="matrix(1,0,0,1,728.8564452907416,501.83512822340373) translate(37.9 14.4)"/></g><path d="M720 360c0 33.14-125.36 60-280 60s-280-26.86-280-60 125.36-60 280-60 280 26.86 280 60z" stroke="#47b0e5" stroke-width="2" fill-opacity="0"/><defs><path d="M25-224v-37h50v37H25zM25 0v-190h50V0H25" id="l"/><path d="M115-3C79 11 28 4 28-45v-112H4v-33h27l15-45h31v45h36v33H77v99c-1 23 16 31 38 25v30" id="m"/><path d="M185-48c-13 30-37 53-82 52C43 2 14-33 14-96s30-98 90-98c62 0 83 45 84 108H66c0 31 8 55 39 56 18 0 30-7 34-22zm-45-69c5-46-57-63-70-21-2 6-4 13-4 21h74" id="n"/><path d="M220-157c-53 9-28 100-34 157h-49v-107c1-27-5-49-29-50C55-147 81-57 75 0H25l-1-190h47c2 12-1 28 3 38 10-53 101-56 108 0 13-22 24-43 59-42 82 1 51 116 57 194h-49v-107c-1-25-5-48-29-50" id="o"/><g id="a"><use transform="matrix(0.06234567901234565,0,0,0.06234567901234565,0,0)" xlink:href="#l"/><use transform="matrix(0.06234567901234565,0,0,0.06234567901234565,6.234567901234565,0)" xlink:href="#m"/><use transform="matrix(0.06234567901234565,0,0,0.06234567901234565,13.653703703703698,0)" xlink:href="#n"/><use transform="matrix(0.06234567901234565,0,0,0.06234567901234565,26.12283950617283,0)" xlink:href="#o"/></g><use transform="matrix(0.06234567901234565,0,0,0.06234567901234565,0,0)" xlink:href="#l" id="b"/><path d="M25-224v-37h50v37H25zM75 22c2 45-34 59-81 51V38c22 5 31-5 31-27v-201h50V22" id="p"/><use transform="matrix(0.06234567901234565,0,0,0.06234567901234565,0,0)" xlink:href="#p" id="c"/><path d="M135-194c53 0 70 44 70 98 0 56-19 98-73 100-31 1-45-17-59-34 3 33 2 69 2 105H25l-1-265h48c2 10 0 23 3 31 11-24 29-35 60-35zM114-30c33 0 39-31 40-66 0-38-9-64-40-64-56 0-55 130 0 130" id="q"/><path d="M85 4C-2 5 27-109 22-190h50c7 57-23 150 33 157 60-5 35-97 40-157h50l1 190h-47c-2-12 1-28-3-38-12 25-28 42-61 42" id="r"/><path d="M135-150c-39-12-60 13-60 57V0H25l-1-190h47c2 13-1 29 3 40 6-28 27-53 61-41v41" id="s"/><path d="M190-63c-7 42-38 67-86 67-59 0-84-38-90-98-12-110 154-137 174-36l-49 2c-2-19-15-32-35-32-30 0-35 28-38 64-6 74 65 87 74 30" id="t"/><path d="M114-157C55-157 80-60 75 0H25v-261h50l-1 109c12-26 28-41 61-42 86-1 58 113 63 194h-50c-7-57 23-157-34-157" id="u"/><path d="M133-34C117-15 103 5 69 4 32 3 11-16 11-54c-1-60 55-63 116-61 1-26-3-47-28-47-18 1-26 9-28 27l-52-2c7-38 36-58 82-57s74 22 75 68l1 82c-1 14 12 18 25 15v27c-30 8-71 5-69-32zm-48 3c29 0 43-24 42-57-32 0-66-3-65 30 0 17 8 27 23 27" id="v"/><path d="M137-138c1-29-70-34-71-4 15 46 118 7 119 86 1 83-164 76-172 9l43-7c4 19 20 25 44 25 33 8 57-30 24-41C81-84 22-81 20-136c-2-80 154-74 161-7" id="w"/><path d="M88-194c31-1 46 15 58 34l-1-101h50l1 261h-48c-2-10 0-23-3-31C134-8 116 4 84 4 32 4 16-41 15-95c0-56 19-97 73-99zm17 164c33 0 40-30 41-66 1-37-9-64-41-64s-38 30-39 65c0 43 13 65 39 65" id="x"/><g id="d"><use transform="matrix(0.06234567901234567,0,0,0.06234567901234567,0,0)" xlink:href="#q"/><use transform="matrix(0.06234567901234567,0,0,0.06234567901234567,13.653703703703702,0)" xlink:href="#r"/><use transform="matrix(0.06234567901234567,0,0,0.06234567901234567,27.307407407407403,0)" xlink:href="#s"/><use transform="matrix(0.06234567901234567,0,0,0.06234567901234567,36.035802469135795,0)" xlink:href="#t"/><use transform="matrix(0.06234567901234567,0,0,0.06234567901234567,48.50493827160493,0)" xlink:href="#u"/><use transform="matrix(0.06234567901234567,0,0,0.06234567901234567,62.158641975308626,0)" xlink:href="#v"/><use transform="matrix(0.06234567901234567,0,0,0.06234567901234567,74.62777777777777,0)" xlink:href="#w"/><use transform="matrix(0.06234567901234567,0,0,0.06234567901234567,87.0969135802469,0)" xlink:href="#n"/><use transform="matrix(0.06234567901234567,0,0,0.06234567901234567,99.56604938271605,0)" xlink:href="#x"/></g><g id="e"><use transform="matrix(0.06234567901234567,0,0,0.06234567901234567,0,0)" xlink:href="#l"/><use transform="matrix(0.06234567901234567,0,0,0.06234567901234567,6.234567901234566,0)" xlink:href="#m"/><use transform="matrix(0.06234567901234567,0,0,0.06234567901234567,13.653703703703702,0)" xlink:href="#n"/><use transform="matrix(0.06234567901234567,0,0,0.06234567901234567,26.122839506172834,0)" xlink:href="#o"/><use transform="matrix(0.06234567901234567,0,0,0.06234567901234567,46.073456790123444,0)" xlink:href="#w"/></g><use transform="matrix(0.06234567901234567,0,0,0.06234567901234567,0,0)" xlink:href="#l" id="f"/><path d="M135-194c87-1 58 113 63 194h-50c-7-57 23-157-34-157-59 0-34 97-39 157H25l-1-190h47c2 12-1 28 3 38 12-26 28-41 61-42" id="y"/><g id="g"><use transform="matrix(0.06234567901234567,0,0,0.06234567901234567,0,0)" xlink:href="#v"/><use transform="matrix(0.06234567901234567,0,0,0.06234567901234567,12.469135802469133,0)" xlink:href="#y"/><use transform="matrix(0.06234567901234567,0,0,0.06234567901234567,26.122839506172834,0)" xlink:href="#x"/></g><use transform="matrix(0.06234567901234567,0,0,0.06234567901234567,0,0)" xlink:href="#p" id="h"/><path d="M85-194c31 0 48 13 60 33l-1-100h32l1 261h-30c-2-10 0-23-3-31C134-8 116 4 85 4 32 4 16-35 15-94c0-66 23-100 70-100zm9 24c-40 0-46 34-46 75 0 40 6 74 45 74 42 0 51-32 51-76 0-42-9-74-50-73" id="z"/><path d="M141-36C126-15 110 5 73 4 37 3 15-17 15-53c-1-64 63-63 125-63 3-35-9-54-41-54-24 1-41 7-42 31l-33-3c5-37 33-52 76-52 45 0 72 20 72 64v82c-1 20 7 32 28 27v20c-31 9-61-2-59-35zM48-53c0 20 12 33 32 33 41-3 63-29 60-74-43 2-92-5-92 41" id="A"/><path d="M114-163C36-179 61-72 57 0H25l-1-190h30c1 12-1 29 2 39 6-27 23-49 58-41v29" id="B"/><path d="M143 0L79-87 56-68V0H24v-261h32v163l83-92h37l-77 82L181 0h-38" id="C"/><g id="i"><use transform="matrix(0.05,0,0,0.05,0,0)" xlink:href="#z"/><use transform="matrix(0.05,0,0,0.05,10,0)" xlink:href="#A"/><use transform="matrix(0.05,0,0,0.05,20,0)" xlink:href="#B"/><use transform="matrix(0.05,0,0,0.05,25.950000000000003,0)" xlink:href="#C"/></g><path d="M135-143c-3-34-86-38-87 0 15 53 115 12 119 90S17 21 10-45l28-5c4 36 97 45 98 0-10-56-113-15-118-90-4-57 82-63 122-42 12 7 21 19 24 35" id="D"/><path d="M106-169C34-169 62-67 57 0H25v-261h32l-1 103c12-21 28-36 61-36 89 0 53 116 60 194h-32v-121c2-32-8-49-39-48" id="E"/><path d="M100-194c63 0 86 42 84 106H49c0 40 14 67 53 68 26 1 43-12 49-29l28 8c-11 28-37 45-77 45C44 4 14-33 15-96c1-61 26-98 85-98zm52 81c6-60-76-77-97-28-3 7-6 17-6 28h103" id="F"/><g id="j"><use transform="matrix(0.05,0,0,0.05,0,0)" xlink:href="#D"/><use transform="matrix(0.05,0,0,0.05,9,0)" xlink:href="#E"/><use transform="matrix(0.05,0,0,0.05,19,0)" xlink:href="#A"/><use transform="matrix(0.05,0,0,0.05,29,0)" xlink:href="#z"/><use transform="matrix(0.05,0,0,0.05,39,0)" xlink:href="#F"/></g><path d="M24 0v-261h32V0H24" id="G"/><path d="M24-231v-30h32v30H24zM24 0v-190h32V0H24" id="H"/><path d="M177-190C167-65 218 103 67 71c-23-6-38-20-44-43l32-5c15 47 100 32 89-28v-30C133-14 115 1 83 1 29 1 15-40 15-95c0-56 16-97 71-98 29-1 48 16 59 35 1-10 0-23 2-32h30zM94-22c36 0 50-32 50-73 0-42-14-75-50-75-39 0-46 34-46 75s6 73 46 73" id="I"/><path d="M59-47c-2 24 18 29 38 22v24C64 9 27 4 27-40v-127H5v-23h24l9-43h21v43h35v23H59v120" id="J"/><g id="k"><use transform="matrix(0.05,0,0,0.05,0,0)" xlink:href="#G"/><use transform="matrix(0.05,0,0,0.05,3.95,0)" xlink:href="#H"/><use transform="matrix(0.05,0,0,0.05,7.9,0)" xlink:href="#I"/><use transform="matrix(0.05,0,0,0.05,17.9,0)" xlink:href="#E"/><use transform="matrix(0.05,0,0,0.05,27.899999999999995,0)" xlink:href="#J"/></g></defs></g></svg>