<svg xmlns="http://www.w3.org/2000/svg" xmlns:xlink="http://www.w3.org/1999/xlink" xmlns:lucid="lucid" width="1104.85" height="900.7"><g transform="translate(-180 -120)" lucid:page-tab-id="ceepuo8.Oo8r"><path d="M200 320h200v78.6H200z" fill="#fff" fill-opacity="0"/><path d="M237.95 381.32l-.1.84H229l-7.86-16.5c-.52.06-1.1.1-1.5.1-.75 0-1.27-.1-2-.2l-3.25 12.5c-.1.43-.16.8-.16 1.22 0 1.25.94 2.04 3.97 2.04h1l-.2.84h-17l.2-.84h.84c3.97 0 5.02-1.47 5.5-3.25l6.48-26c.1-.43.26-.9.26-1.32 0-1.1-.9-1.93-4.03-1.93h-1.04l.22-.84h14.18c8.37 0 11.3 3.45 11.3 7.9 0 4.35-3.7 7.85-9.3 8.95l6 12c1 2.03 2.36 4.23 5.35 4.5m-16.5-31.26l-3.34 13.6c.7.17 1.2.22 1.68.22 6.96 0 10-3.04 10-7.44 0-5.65-3.24-6.54-6.54-6.54-.73 0-1.2.05-1.78.15M263.43 359.76l-4.76 18.05s-.05.12-.05.6c0 .56.3.88.73.88.52 0 1.3-.1 3.35-2.83l.63.63c-1.62 2.46-4.45 5.6-6.96 5.6-1.73 0-2.2-1.2-2.2-2.88 0-.68.3-1.78.58-2.62h-.2c-3.78 4.82-7.03 5.5-9.07 5.5-3.3 0-4.66-2.88-4.66-6.23 0-6.9 6.9-17.37 14.45-17.37 2.25 0 3.35 1.25 3.45 2.4h.06l.47-1.72h4.18m-5.5 4.55c0-2.14-.62-3.7-2.6-3.7-3.57 0-6.7 4.55-8.5 8.94-.93 2.36-1.45 4.66-1.45 6.5 0 2.77 1.62 3.45 3.03 3.45 3.62 0 7.3-4.98 8.75-9.96.42-1.36.8-3.45.8-5.23M279.87 359.23l-.53 2h-3.66l-4.08 16.74c-.05.16-.1.42-.1.58 0 .3.15.62.83.62 0 0 1.2-.1 3.14-2.72l.68.58c-1.25 1.62-3.87 5.6-6.96 5.6-1.63 0-2.05-1.3-2.05-2.72 0-.67.1-1.35.26-1.93l4.25-16.75h-4.03l.26-1.52c3.93-.73 7.12-2.67 9.27-7.22h.68l-1.63 6.75h3.67M294.9 352.53c0 1.36-1.16 2.4-2.52 2.4-1.52 0-2.52-1.04-2.52-2.4 0-1.3 1-2.6 2.52-2.6 1.36 0 2.5 1.3 2.5 2.6m-1.56 6.55l-4.82 19.05c-.05.3-.05.52-.05.73 0 .37.32.52.68.52 1.15 0 1.47-.63 3.35-2.67l.68.54c-1.83 2.35-4.45 5.5-7 5.5-1.48 0-2.1-1-2.1-2.4 0-.64 0-1.64 4.13-17.7.04-.1.1-.48.1-.63 0-.88-.42-1.14-1.63-1.14-.47 0-1.1.1-1.46.2l-.15-.83M322.2 377.13l-.25.32c-1.47 1.78-3.98 5.13-6.7 5.13-1.68 0-2.15-1.2-2.15-2.4 0-.7.2-1.53.37-2.1l2.98-11.57c.1-.4.37-1.46.37-2.2 0-.98-.32-1.98-1.26-1.98-2 0-5.28 4.5-6.9 6.96-1.9 2.83-3.25 5.3-3.56 6.4l-1.73 6.48h-4.03l4.97-19.58c0-.94-.15-1.67-1.56-1.67-.52 0-1.1.1-1.47.16l-.1-.78 8.32-1.2-2.68 9.9h.16c.26 0 2.83-3.68 2.93-3.83 2.1-2.62 5.24-6.07 8.38-6.07 2.3 0 2.94 1.5 2.94 3.24 0 1.3-.32 2.62-.58 3.66l-3.1 12.1c-.04.1-.04.26-.04.52.05.3.2.73.78.73 1.26 0 2.52-1.88 3.25-2.77M349.53 360.54l-.68 2.36h-4.24c.7.78.9 1.46.9 2.6 0 3.94-2.77 7.18-7.38 7.76-3.1.42-4.6 1.73-4.6 3.03 0 3.3 12.2 1.2 12.2 7.74 0 3.72-3.46 7.9-11.26 7.9-7.02 0-9.63-2.98-9.63-6 0-3.05 2.88-4.62 6.12-5.67-.9-.57-1.26-1.57-1.26-2.46 0-1.98 1.93-4.54 4.44-4.54v-.2c-3.5-.8-4.92-3.25-4.92-5.7 0-4.15 3.56-8.28 9.1-8.28 2.2 0 3.83.68 4.62 1.46h6.6m-8.17 3.35c0-1.95-.53-3.25-2.83-3.25-2.83 0-5.13 3.7-5.13 7.27 0 2.4.64 4.24 2.94 4.24 3.72 0 5.03-5.34 5.03-8.27m.68 21.87c0-4.08-6.9-3.82-10.05-4.97-.42.26-.95.52-1.36.83-1.36 1-2.52 2.36-2.52 3.77 0 2.46 2.3 5.08 7.28 5.08 4.76 0 6.65-2.4 6.65-4.7M285.83 343h-3.55l-7.5-15.12-7.47 15.13h-3.55l9.47-19.1h3.14M397.42 365.4H366.6v-3.45h30.82v3.46m0 10.48H366.6v-3.46h30.82v3.46"/><path d="M480 199.3h400v320H480z" stroke="#000" stroke-width="2" fill="#7ab648"/><path d="M461 280h38M461.03 280H460M498.97 280H500" stroke="#000" stroke-width="2" fill="none"/><path d="M420 260h40v40h-40z" stroke="#000" stroke-opacity="0" stroke-width="2" fill="#fff" fill-opacity="0"/><use xlink:href="#a" transform="matrix(1,0,0,1,425,265) translate(8.17314814814815 19.830555555555552)"/><path d="M440 480v-80h40v80z" stroke="#000" stroke-opacity="0" stroke-width="2" fill="#fff" fill-opacity="0"/><use xlink:href="#b" transform="matrix(6.123233995736766e-17,-1,1,6.123233995736766e-17,445,475) translate(11.339814814814822 19.830555555555552)"/><path d="M560 181v38M560 181.03V180M560 218.97V220" stroke="#000" stroke-width="2" fill="none"/><path d="M540 140h40v40h-40z" stroke="#000" stroke-opacity="0" stroke-width="2" fill="#fff" fill-opacity="0"/><use xlink:href="#c" transform="matrix(1,0,0,1,545,145) translate(8.765432098765434 19.830555555555552)"/><path d="M780 540h80v40h-80z" stroke="#000" stroke-opacity="0" stroke-width="2" fill="#fff" fill-opacity="0"/><use xlink:href="#d" transform="matrix(1,0,0,1,785,545) translate(11.050000000000011 18.149999999999995)"/><path d="M570 280c0 5.52-4.48 10-10 10s-10-4.48-10-10 4.48-10 10-10 10 4.48 10 10z" stroke="#000" stroke-width="2" fill="#0c7cba"/><path d="M960 240h160.33v48.9H960z" fill="#fff" fill-opacity="0"/><path d="M983.6 278.16l-.05.52h-5.5l-4.9-10.26c-.32.03-.68.06-.94.06-.44 0-.77-.06-1.22-.13l-2.02 7.8c-.07.25-.1.48-.1.74 0 .77.58 1.26 2.47 1.26h.62l-.13.52h-10.58l.13-.52h.52c2.46 0 3.12-.92 3.4-2.02l4.05-16.2c.06-.25.16-.54.16-.8 0-.7-.54-1.2-2.5-1.2h-.65l.13-.53h8.83c5.22 0 7.04 2.16 7.04 4.93 0 2.7-2.3 4.88-5.8 5.57l3.75 7.45c.6 1.28 1.45 2.64 3.3 2.8m-10.25-19.44l-2.08 8.48c.42.1.75.13 1.04.13 4.34 0 6.23-1.88 6.23-4.6 0-3.53-2.02-4.08-4.07-4.08-.46 0-.75.03-1.1.1M999.47 264.74l-2.96 11.23s-.02.07-.02.36c0 .36.2.56.45.56.33 0 .82-.08 2.1-1.77l.38.4c-1 1.52-2.76 3.47-4.33 3.47-1.07 0-1.36-.75-1.36-1.8 0-.4.2-1.1.37-1.62h-.14c-2.34 3-4.36 3.42-5.63 3.42-2.05 0-2.9-1.8-2.9-3.87 0-4.3 4.3-10.82 9-10.82 1.4 0 2.08.8 2.14 1.5h.03l.3-1.06h2.6m-3.42 2.83c0-1.33-.4-2.3-1.63-2.3-2.2 0-4.17 2.82-5.27 5.56-.6 1.46-.9 2.9-.9 4.04 0 1.72 1 2.15 1.87 2.15 2.25 0 4.53-3.1 5.44-6.2.26-.84.5-2.14.5-3.25M1009.7 264.4l-.33 1.25h-2.28l-2.55 10.42c-.03.1-.06.26-.06.36 0 .2.08.4.5.4 0 0 .76-.07 1.96-1.7l.43.36c-.8 1-2.42 3.47-4.35 3.47-1 0-1.27-.8-1.27-1.7 0-.42.07-.84.17-1.2l2.63-10.42h-2.5l.16-.94c2.44-.45 4.43-1.66 5.76-4.5h.43l-1 4.2h2.27M1019.04 260.24c0 .85-.7 1.5-1.56 1.5-.94 0-1.56-.65-1.56-1.5 0-.8.62-1.62 1.56-1.62.85 0 1.56.8 1.56 1.62m-.97 4.07l-3 11.87c-.03.2-.03.32-.03.46 0 .22.2.32.42.32.72 0 .9-.4 2.1-1.66l.4.32c-1.13 1.46-2.76 3.4-4.35 3.4-.9 0-1.3-.6-1.3-1.48 0-.4 0-1 2.58-11 .03-.08.06-.3.06-.4 0-.56-.26-.72-1-.72-.3 0-.7.07-.92.13l-.1-.52M1036.04 275.55l-.16.2c-.9 1.1-2.47 3.2-4.17 3.2-1.03 0-1.32-.76-1.32-1.5 0-.43.13-.96.23-1.3l1.86-7.2c.07-.27.23-.92.23-1.38 0-.62-.2-1.24-.8-1.24-1.23 0-3.28 2.8-4.3 4.34-1.16 1.75-2 3.28-2.2 3.97l-1.08 4.04h-2.5l3.1-12.18c0-.6-.1-1.05-1-1.05-.32 0-.67.07-.9.1l-.07-.5 5.18-.74-1.66 6.17h.1c.16 0 1.76-2.28 1.82-2.38 1.3-1.64 3.25-3.8 5.2-3.8 1.43 0 1.83.96 1.83 2.03 0 .82-.2 1.63-.36 2.28l-1.92 7.54c-.04.06-.04.16-.04.32.05.2.14.46.5.46.78 0 1.57-1.17 2.02-1.73M1053.04 265.23l-.42 1.46h-2.64c.43.48.56.9.56 1.62 0 2.44-1.73 4.46-4.6 4.82-1.92.26-2.86 1.08-2.86 1.9 0 2.04 7.6.74 7.6 4.8 0 2.32-2.16 4.93-7 4.93-4.38 0-6-1.86-6-3.75 0-1.9 1.78-2.86 3.8-3.52-.55-.35-.78-.97-.78-1.53 0-1.23 1.2-2.83 2.77-2.83V273c-2.18-.48-3.06-2-3.06-3.54 0-2.57 2.22-5.15 5.68-5.15 1.36 0 2.37.44 2.86.93h4.1m-5.08 2.08c0-1.2-.32-2-1.75-2-1.75 0-3.2 2.3-3.2 4.52 0 1.5.4 2.64 1.84 2.64 2.3 0 3.12-3.33 3.12-5.15m.43 13.62c0-2.54-4.3-2.37-6.27-3.1-.26.17-.58.34-.84.53-.86.62-1.58 1.47-1.58 2.35 0 1.53 1.44 3.15 4.53 3.15 2.96 0 4.14-1.5 4.14-2.93M1013.4 254.32h-2.2l-4.66-9.42-4.66 9.42h-2.2l5.88-11.9h1.96M1062.98 283.92l-.4.52c-5.14-2.93-7.94-8.43-7.94-13.97 0-6.03 2.83-10.7 8.04-13.8l.3.5c-4.53 3.9-5.54 6.92-5.54 13.2 0 6.06.98 9.74 5.54 13.55M1078.38 264.74l-2.9 11.33c-.03.13-.03.2-.03.3 0 .26.13.45.46.45.7 0 1.3-.85 1.86-1.5l.17-.2.42.37c-.75 1.06-2.4 3.47-4.3 3.47-.94 0-1.3-.62-1.3-1.7 0-.3.03-.8.13-1.2l.84-3.1h-.03c-.24.17-3.17 4.1-4.47 5.1-.75.54-1.6.9-2.34.9-1.55 0-2-1.17-2-2.4 0-.7.1-1.3.26-1.93l1.92-7.52c.13-.5.2-.7.2-.82 0-.4-.36-.75-1.08-.75-.23 0-.62.03-.85.1l-.1-.5 5.12-.84-2.74 10.63c-.06.3-.1.52-.1.78 0 .7.27 1.12.85 1.12.82 0 2.12-1 3.26-2.5 1.4-1.86 2.9-4.76 3.55-7.14l.67-2.44h2.5M1082.1 283.27l-.33-.62c1.8-1.2 2.7-2.4 2.7-3.48 0-.23-.2-.43-.45-.43-.26 0-.6.13-.95.13-1.2 0-1.9-.55-1.9-1.66 0-1.1.8-1.85 1.97-1.85 1.46 0 2.6 1.14 2.6 2.84 0 1.94-1.4 4-3.65 5.07M1101.02 263.9l-2.9 10.6c-.1.33-.13.7-.13 1.05 0 1.24.64 2.15 1.94 2.15 3.52 0 5.8-3.68 6.84-6.6.26-.8.5-1.6.5-2.42 0-2.4-2-2.12-2-3.55 0-1.1.82-1.37 1.76-1.37 1.37 0 1.53 1.66 1.53 2.7 0 3.23-1.27 6.52-3.16 9.12-1.4 1.96-3.9 3.4-6.3 3.4-2.1 0-3.78-.66-3.78-3.04 0-.68.1-1.37.3-2.02l1.88-6.84c.06-.26.16-.55.16-.8 0-.66-1.43-.66-1.85-.66v-.5c1.7-.4 3.46-.64 5.1-1.36M1110.4 257.18l.4-.52c4.97 3 7.93 8.44 7.93 13.97 0 6.03-2.86 10.65-8.04 13.8l-.3-.5c4.62-3.82 5.53-6.88 5.53-13.2 0-6.1-.8-9.83-5.53-13.55"/><path d="M1000 300h174.95v32.65H1000z" fill="#fff" fill-opacity="0"/><path d="M1020.75 314.03h-19.2v-2.15h19.2v2.15m0 6.5h-19.2v-2.14h19.2v2.14M1042.53 325.23l-18.4-8.9v-.3l18.4-8.97v2.12l-14.07 7 14.07 7v2.05M1075.43 318.26l-2 6.2h-18.52l.14-.53h.55c2.43 0 3.22-.9 3.48-2.02l3.84-15.52c.13-.52.23-1.18.23-1.47 0-.6-.46-1.2-2.48-1.2h-.58l.12-.5h10.65l-.13.5h-.6c-2.43 0-3.12.85-3.4 2.06l-3.98 15.66c-.13.5-.17.95-.17 1 0 .73.9.8 1.3.8h3.97c3.32 0 4.98-.72 6.48-3.75.23-.36.4-.75.55-1.2h.53M1086.94 319.5l-2.05 8c-.03.1-.03.15-.03.22 0 .2.1.32.32.32.48 0 .9-.6 1.3-1.06l.12-.13.3.25c-.53.76-1.7 2.46-3.04 2.46-.67 0-.92-.43-.92-1.2 0-.2.02-.57.1-.85l.6-2.17h-.03c-.16.1-2.24 2.9-3.16 3.6-.53.38-1.13.63-1.66.63-1.07 0-1.4-.83-1.4-1.7 0-.48.08-.92.2-1.36l1.35-5.32c.1-.34.14-.48.14-.57 0-.27-.26-.52-.77-.52-.16 0-.44.02-.6.07l-.07-.35 3.62-.6-1.94 7.5c-.04.22-.07.38-.07.56 0 .48.2.78.6.78.58 0 1.5-.7 2.3-1.77 1-1.3 2.05-3.36 2.52-5.04l.47-1.73h1.77M1093.63 329.04l-.33-.62c1.8-1.2 2.7-2.4 2.7-3.48 0-.23-.2-.42-.45-.42-.26 0-.58.13-.94.13-1.2 0-1.88-.56-1.88-1.66 0-1.12.78-1.87 1.95-1.87 1.47 0 2.6 1.14 2.6 2.83 0 1.96-1.4 4-3.64 5.08M1128.12 323.93l-.07.52h-5.5l-4.88-10.26c-.33.03-.7.06-.95.06-.46 0-.78-.07-1.24-.13l-2.02 7.78c-.06.27-.1.5-.1.76 0 .78.6 1.27 2.48 1.27h.62l-.13.52h-10.58l.13-.52h.52c2.47 0 3.12-.9 3.42-2.02l4.03-16.17c.07-.27.17-.56.17-.82 0-.67-.56-1.2-2.5-1.2h-.66l.13-.5h8.8c5.23 0 7.05 2.13 7.05 4.9 0 2.7-2.3 4.9-5.8 5.57l3.75 7.46c.62 1.27 1.46 2.64 3.32 2.8m-10.26-19.44l-2.08 8.46c.42.1.75.13 1.04.13 4.33 0 6.22-1.9 6.22-4.64 0-3.52-2.02-4.07-4.07-4.07-.46 0-.75.02-1.1.1M1134.3 318.9l-2.05 7.5c-.07.24-.1.5-.1.75 0 .87.47 1.5 1.4 1.5 2.48 0 4.1-2.6 4.83-4.66.18-.56.34-1.14.34-1.7 0-1.72-1.4-1.5-1.4-2.52 0-.8.57-.97 1.24-.97.97 0 1.08 1.18 1.08 1.92 0 2.28-.9 4.6-2.23 6.45-.98 1.38-2.75 2.4-4.46 2.4-1.47 0-2.67-.47-2.67-2.15 0-.48.07-.97.2-1.43l1.35-4.84c.04-.2.1-.4.1-.58 0-.46-1-.46-1.3-.46v-.34c1.2-.3 2.44-.46 3.6-.97M1172.83 316.34l-18.4 8.9v-2.06l14.07-7-14.07-7v-2.12l18.4 8.96v.32"/><path d="M939.13 279.5l-15.04-8.7-15.23-8-14.63-6.9-14.14-5.97-13.73-5.12-13.4-4.37-13.14-3.68-13-3.07-12.92-2.48-12.98-1.93-13.22-1.4-13.74-.88-14.87-.33h-.43l-6.95.14-7.3.47-7.84.83-8.68 1.3-9.93 1.9-11.9 2.78-15.28 4.3-22.42 7.32-49.04 18.47-22.18 8.92M939.1 279.48l.9.52" stroke="#000" stroke-width="2" fill="none"/><path d="M583 278.8l11.5-9.63 3.47 8.6z" stroke="#000" stroke-width="2"/><path d="M480 580h120v240H480z" stroke="#000" stroke-width="2" fill-opacity="0"/><use xlink:href="#e" transform="matrix(1,0,0,1,492,592) translate(34.413888888888906 116.73333333333329)"/><path d="M640 580h240v120H640z" stroke="#000" stroke-width="2" fill-opacity="0"/><use xlink:href="#f" transform="matrix(1,0,0,1,652,592) translate(91.93240740740742 56.733333333333285)"/><path d="M424.12 683.57H460v32.86h-35.88z" fill="#fff" fill-opacity="0"/><path d="M455.73 688.2h1.73c-.3 4.45-3.14 10.68-8.27 10.68-5.03 0-10.63-6.7-14.4-6.7-3.66 0-5.6 3.5-6.44 7.22h-1.73c.27-5.23 3.4-10.67 8.54-10.67 5.02 0 10.62 6.7 14.44 6.7 3.62 0 5.35-3.5 6.13-7.23m0 12.35h1.73c-.3 4.45-3.14 10.68-8.27 10.68-5.03 0-10.63-6.7-14.4-6.7-3.66 0-5.6 3.5-6.44 7.23h-1.73c.27-5.24 3.4-10.68 8.54-10.68 5.02 0 10.62 6.7 14.44 6.7 3.62 0 5.35-3.5 6.13-7.23"/><path d="M440 800v-80h40v80z" stroke="#000" stroke-opacity="0" stroke-width="2" fill="#fff" fill-opacity="0"/><use xlink:href="#g" transform="matrix(6.123233995736766e-17,-1,1,6.123233995736766e-17,445,795) translate(17.525000000000006 18.149999999999995)"/><path d="M461 640h38M461.03 640H460M498.97 640H500" stroke="#000" stroke-width="2" fill="none"/><path d="M420 620h40v40h-40z" stroke="#000" stroke-opacity="0" stroke-width="2" fill="#fff" fill-opacity="0"/><use xlink:href="#h" transform="matrix(1,0,0,1,425,625) translate(10.000000000000002 18.149999999999995)"/><path d="M660 601v78M660 601.03V600M660 678.97V680" stroke="#0c7cba" stroke-width="2" fill="none"/><path d="M681 679h-2v-78h2z" fill="#0c7cba"/><path d="M681 601.03h-2V600h2zM681 680h-2v-1.03h2zM701 679h-2v-28.2h2zm0-49.8h-2V601h2z" fill="#0c7cba"/><path d="M701 601.03h-2V600h2zM701 680h-2v-1.03h2z" fill="#0c7cba"/><use xlink:href="#i" transform="matrix(1,0,0,1,690.025,629.2) translate(0 14.4)"/><path d="M721 679h-2v-78h2z" fill="#0c7cba"/><path d="M721 601.03h-2V600h2zM721 680h-2v-1.03h2z" fill="#0c7cba"/><path d="M740 601v78M740 601.03V600M740 678.97V680M760 601v78M760 601.03V600M760 678.97V680M780 601v78M780 601.03V600M780 678.97V680M800 601v78M800 601.03V600M800 678.97V680M820 601v78M820 601.03V600M820 678.97V680M840 601v78M840 601.03V600M840 678.97V680M860 601v78M860 601.03V600M860 678.97V680M501 600h78M501.03 600H500M578.97 600H580" stroke="#0c7cba" stroke-width="2" fill="none"/><path d="M579 621h-78v-2h78z" fill="#0c7cba"/><path d="M501.03 621H500v-2h1.03zM580 621h-1.03v-2H580zM530.7 641H501v-2h29.7zm48.3 0h-29.7v-2H579z" fill="#0c7cba"/><path d="M501.03 641H500v-2h1.03zM580 641h-1.03v-2H580z" fill="#0c7cba"/><use xlink:href="#j" transform="matrix(1,0,0,1,530.6925,629.2) translate(0 14.4)"/><path d="M579 661h-78v-2h78z" fill="#0c7cba"/><path d="M501.03 661H500v-2h1.03zM580 661h-1.03v-2H580z" fill="#0c7cba"/><path d="M501 680h78M501.03 680H500M578.97 680H580M501 700h78M501.03 700H500M578.97 700H580M501 720h78M501.03 720H500M578.97 720H580M501 740h78M501.03 740H500M578.97 740H580M501 760h78M501.03 760H500M578.97 760H580M501 780h78M501.03 780H500M578.97 780H580M501 800h78M501.03 800H500M578.97 800H580" stroke="#0c7cba" stroke-width="2" fill="none"/><path d="M700 561v38M700 561.03V560M700 598.97V600" stroke="#000" stroke-width="2" fill="none"/><path d="M680 520h40v40h-40z" stroke="#000" stroke-opacity="0" stroke-width="2" fill="#fff" fill-opacity="0"/><use xlink:href="#k" transform="matrix(1,0,0,1,685,525) translate(10.500000000000002 18.149999999999995)"/><path d="M960 454.13h260v43.63H960z" fill="#fff" fill-opacity="0"/><path d="M989.08 478.54l-2.65 8.27h-24.78l.18-.7h.74c3.26 0 4.3-1.2 4.66-2.68l5.13-20.77c.18-.7.3-1.57.3-1.96 0-.84-.6-1.62-3.3-1.62h-.78l.17-.7H983l-.2.7h-.77c-3.27 0-4.18 1.13-4.57 2.74l-5.3 20.94c-.2.66-.23 1.26-.23 1.35 0 .97 1.22 1.06 1.74 1.06h5.3c4.45 0 6.67-.96 8.67-5 .3-.5.53-1 .74-1.62h.7M1004.48 480.2l-2.74 10.7c-.03.13-.03.2-.03.28 0 .25.13.43.44.43.64 0 1.23-.8 1.75-1.4l.15-.2.4.35c-.7 1.02-2.28 3.3-4.07 3.3-.9 0-1.23-.6-1.23-1.6 0-.28.03-.78.12-1.15l.8-2.92h-.03c-.2.15-2.98 3.88-4.2 4.8-.72.53-1.52.86-2.23.86-1.44 0-1.87-1.1-1.87-2.27 0-.65.1-1.23.25-1.82l1.82-7.1c.12-.47.18-.66.18-.78 0-.37-.34-.7-1.02-.7-.2 0-.58.02-.8.1l-.1-.48 4.84-.8-2.58 10.03c-.06.27-.1.5-.1.74 0 .64.25 1.04.8 1.04.78 0 2-.94 3.08-2.36 1.33-1.75 2.74-4.5 3.36-6.74l.65-2.3h2.38M1049.6 472.88h-25.65V470h25.65v2.88m0 8.7h-25.65v-2.87h25.65v2.9M1076.85 493.6h-9.2V458h9.2v1.08h-3.62c-1.48 0-2.26.52-2.26 2.1v28.98c0 1.74.83 2.35 2.26 2.35h3.62v1.1M1086.2 484.94c0 1.26-1.12 2.35-2.43 2.35-1.35 0-2.4-1.05-2.4-2.4 0-1.35 1.1-2.44 2.44-2.44 1.28 0 2.4 1.17 2.4 2.48M1104.36 484.94c0 1.26-1.13 2.35-2.44 2.35-1.35 0-2.4-1.05-2.4-2.4 0-1.35 1.1-2.44 2.45-2.44 1.26 0 2.4 1.17 2.4 2.48M1122.52 484.94c0 1.26-1.14 2.35-2.44 2.35-1.35 0-2.4-1.05-2.4-2.4 0-1.35 1.1-2.44 2.44-2.44 1.26 0 2.4 1.17 2.4 2.48M1140.7 484.94c0 1.26-1.12 2.35-2.42 2.35-1.35 0-2.4-1.05-2.4-2.4 0-1.35 1.1-2.44 2.44-2.44 1.26 0 2.4 1.17 2.4 2.48M1158.87 484.94c0 1.26-1.13 2.35-2.44 2.35-1.35 0-2.4-1.05-2.4-2.4 0-1.35 1.1-2.44 2.44-2.44 1.27 0 2.4 1.17 2.4 2.48M1177.02 484.94c0 1.26-1.13 2.35-2.44 2.35-1.35 0-2.4-1.05-2.4-2.4 0-1.35 1.1-2.44 2.45-2.44 1.26 0 2.4 1.17 2.4 2.48M1195.18 484.94c0 1.26-1.14 2.35-2.44 2.35-1.35 0-2.4-1.05-2.4-2.4 0-1.35 1.1-2.44 2.44-2.44 1.26 0 2.4 1.17 2.4 2.48M1216.12 493.6h-9.2v-1.1h3.84c1.53 0 2.05-.64 2.05-2v-29.07c0-1.52-.56-2.35-2.2-2.35h-3.67v-1.1h9.2v35.62"/><path d="M960 516.36h262.38V560H960z" fill="#fff" fill-opacity="0"/><path d="M991.56 548.35l-.08.7h-7.36l-6.53-13.72c-.45.05-.93.1-1.27.1-.6 0-1.05-.1-1.66-.18l-2.7 10.4c-.08.35-.13.65-.13 1 0 1.05.8 1.7 3.3 1.7h.84l-.18.7h-14.15l.18-.7h.7c3.3 0 4.17-1.22 4.57-2.7l5.4-21.64c.08-.33.2-.73.2-1.07 0-.92-.73-1.62-3.34-1.62h-.87l.16-.68h11.8c6.97 0 9.4 2.87 9.4 6.57 0 3.6-3.1 6.52-7.74 7.44l5 9.97c.83 1.7 1.96 3.53 4.44 3.75m-13.7-26l-2.8 11.33c.57.13 1 .17 1.4.17 5.8 0 8.3-2.52 8.3-6.18 0-4.7-2.7-5.44-5.43-5.44-.6 0-1 .04-1.48.13M999.83 541.63l-2.74 10.03c-.1.3-.13.65-.13 1 0 1.16.6 2.02 1.84 2.02 3.34 0 5.5-3.48 6.48-6.25.24-.74.46-1.5.46-2.28 0-2.27-1.88-2-1.88-3.35 0-1.05.77-1.3 1.66-1.3 1.3 0 1.45 1.58 1.45 2.56 0 3.05-1.2 6.16-3 8.62-1.3 1.85-3.68 3.2-5.96 3.2-1.96 0-3.56-.62-3.56-2.86 0-.65.1-1.3.28-1.9l1.78-6.47c.07-.25.16-.53.16-.77 0-.62-1.36-.62-1.76-.62v-.46c1.6-.4 3.27-.62 4.8-1.3M1052 535.12h-25.65v-2.88H1052v2.88m0 8.7h-25.65v-2.87H1052v2.87M1079.2 555.84h-9.2v-35.6h9.2v1.07h-3.6c-1.5 0-2.28.54-2.28 2.1v29c0 1.74.83 2.35 2.27 2.35h3.6v1.1M1088.6 547.17c0 1.27-1.13 2.36-2.44 2.36-1.35 0-2.4-1.05-2.4-2.4 0-1.35 1.1-2.44 2.45-2.44 1.27 0 2.4 1.17 2.4 2.47M1106.76 547.17c0 1.27-1.14 2.36-2.44 2.36-1.35 0-2.4-1.05-2.4-2.4 0-1.35 1.1-2.44 2.44-2.44 1.26 0 2.4 1.17 2.4 2.47M1124.9 547.17c0 1.27-1.12 2.36-2.43 2.36-1.35 0-2.4-1.05-2.4-2.4 0-1.35 1.1-2.44 2.45-2.44 1.26 0 2.4 1.17 2.4 2.47M1143.06 547.17c0 1.27-1.13 2.36-2.43 2.36-1.35 0-2.4-1.05-2.4-2.4 0-1.35 1.1-2.44 2.44-2.44 1.26 0 2.4 1.17 2.4 2.47M1161.22 547.17c0 1.27-1.13 2.36-2.44 2.36-1.35 0-2.4-1.05-2.4-2.4 0-1.35 1.1-2.44 2.44-2.44 1.27 0 2.4 1.17 2.4 2.47M1179.42 547.17c0 1.27-1.14 2.36-2.44 2.36-1.35 0-2.4-1.05-2.4-2.4 0-1.35 1.1-2.44 2.44-2.44 1.26 0 2.4 1.17 2.4 2.47M1197.57 547.17c0 1.27-1.13 2.36-2.44 2.36-1.35 0-2.4-1.05-2.4-2.4 0-1.35 1.1-2.44 2.45-2.44 1.26 0 2.4 1.17 2.4 2.47M1218.5 555.84h-9.17v-1.1h3.83c1.52 0 2.04-.64 2.04-2v-29.07c0-1.53-.56-2.36-2.22-2.36h-3.65v-1.07h9.18v35.6M939.3 541.2l-.83.25-.85.3-.84.3-.82.37-.82.4-.82.44-.82.5-.82.52-.83.6-.84.65-.83.72-.87.8-.88.88-.9.98-.93 1.12-.97 1.24-1 1.4-1.02 1.6-1.07 1.84-1.13 2.1-1.18 2.5-1.26 2.9-1.33 3.5-1.4 4.25-1.53 5.28-1.64 6.75-1.78 9-2 12.95-2.54 22.88-6.18 68.86-1.5 9.66-1.24 6.33-1.1 4.54-1 3.43-.88 2.7-.83 2.15-.75 1.78-.7 1.5-.68 1.24-.64 1.08-.6.93-.57.82-.55.7-.52.65-.5.56-.5.5-.5.45-.48.4-.46.37-.46.33-.46.3-.32.2-1.24.67-1.5.75-1.8.82-2.23.9-2.7.94-3.33 1.02-4.06 1.06-4.9 1.06-5.84 1-6.78.9-7.65.67-8.35.38-8.8.04-9-.34-8.94-.72-8.7-1.05-8.32-1.38-7.85-1.63-7.35-1.87-6.85-2.03-6.36-2.18-5.9-2.3-5.44-2.4-5.05-2.47-4.67-2.54-4.34-2.6-4.02-2.64-3.74-2.7-3.48-2.72-3.24-2.78-3.03-2.82-2.83-2.86-2.65-2.9-2.47-2.97-2.3-3-1.56-2.2 1.64-1.16 1.52 2.17 2.26 2.96 2.42 2.9 2.6 2.85 2.76 2.8 2.97 2.77 3.17 2.72 3.4 2.67 3.7 2.64 3.94 2.6 4.27 2.57 4.6 2.5 4.97 2.44 5.38 2.37 5.8 2.27 6.3 2.15 6.76 2 7.27 1.84 7.78 1.6 8.23 1.37 8.62 1.05 8.86.7 8.9.34 8.73-.05 8.27-.38 7.56-.66 6.7-.87 5.75-1 4.83-1.04 3.97-1.04 3.24-1 2.63-.92 2.13-.86 1.74-.78 1.43-.72 1.17-.65.26-.15.4-.26.38-.28.4-.3.4-.36.44-.4.44-.43.46-.5.47-.57.5-.65.53-.74.55-.87.6-1 .62-1.2.68-1.4.73-1.7.8-2.08.86-2.62.97-3.35 1.07-4.46 1.23-6.25 1.48-9.55 6.17-68.8 2.54-22.95 2-13.03 1.8-9.1 1.67-6.82 1.54-5.36 1.45-4.33 1.36-3.57 1.3-3 1.22-2.55 1.17-2.18 1.1-1.9 1.08-1.67 1.04-1.48 1-1.3 1-1.17.96-1.05.94-.95.92-.85.9-.78.9-.7.9-.64.9-.58.9-.53.88-.48.9-.44.9-.4.92-.34.93-.32.88-.26z"/><path d="M940.24 540.97l-1 .25-.48-1.94 1-.25zM712.45 693.15l-8.14 4.43-2.75-14.74z"/><path d="M714.14 693.37l-10.56 5.75L700 680zm-9.1 2.68l5.72-3.12-7.66-7.25zM813.9 458.88l31 2.37 27.7 3.3 23.05 3.7 18.47 3.77 14.6 3.63 10.6 3.1-.56 1.93-10.55-3.1-14.52-3.6-18.4-3.76-22.95-3.7-27.62-3.28-30.9-2.36-30.93-1.1-27.18.2-21.4 1.02-15.8 1.42-8.76 1.12-9.12 1.5-9.57 2-9.66 2.45-9.5 2.82-9.2 3.16-8.8 3.45-8.38 3.7-7.93 3.9-7.5 4.08-7.08 4.26-6.68 4.4-6.3 4.53-5.93 4.66-5.6 4.8-5.3 4.94-5 5.08-4.73 5.22-4.48 5.37-4.24 5.53-4 5.7L567 551l-3.57 6.13-3.35 6.34-3.14 6.6-2.92 6.9-2.7 7.2-2.5 7.56-2.25 7.96-2 8.4-.7 3.57-1.96-.38.72-3.63 2.02-8.5 2.27-8.02 2.52-7.64 2.74-7.28 2.96-6.96 3.17-6.68 3.38-6.42 3.6-6.2 3.82-5.96 4.05-5.78 4.28-5.6 4.53-5.44 4.8-5.28 5.05-5.13 5.37-5 5.67-4.85 6-4.73 6.37-4.6 6.75-4.44 7.15-4.3 7.57-4.1 8-3.95 8.45-3.72 8.9-3.47 9.26-3.18 9.58-2.86 9.74-2.46 9.65-2.02 9.2-1.52 8.85-1.13 15.85-1.43 21.48-1.03 27.27-.18z"/><path d="M940.28 479.04l-.56 1.92-1-.3.58-1.9zM547.32 613.2l-6.8 13.35-2.36-14.82z"/><path d="M548.83 612.4l-8.55 16.8h-.37l-2.94-18.67zM541 623.36l4.8-9.4-6.44-1z"/><path d="M480 880.7h240v120H480z" stroke="#000" stroke-width="2" fill="#0c7cba"/><use xlink:href="#l" transform="matrix(1,0,0,1,485,885.7044723000026) translate(18.79753086419757 28.386111111111106)"/><use xlink:href="#m" transform="matrix(1,0,0,1,485,885.7044723000026) translate(70.85740740740744 28.386111111111106)"/><use xlink:href="#n" transform="matrix(1,0,0,1,485,885.7044723000026) translate(142.6358024691358 28.386111111111106)"/><use xlink:href="#o" transform="matrix(1,0,0,1,485,885.7044723000026) translate(19.619135802469174 60.652777777777764)"/><use xlink:href="#p" transform="matrix(1,0,0,1,485,885.7044723000026) translate(106.03703703703705 60.652777777777764)"/><use xlink:href="#q" transform="matrix(1,0,0,1,485,885.7044723000026) translate(138.75185185185185 60.652777777777764)"/><use xlink:href="#r" transform="matrix(1,0,0,1,485,885.7044723000026) translate(29.963888888888917 92.91944444444442)"/><use xlink:href="#s" transform="matrix(1,0,0,1,485,885.7044723000026) translate(85.08611111111111 92.91944444444442)"/><g><path d="M1060 436.57l56.57-56.57 28.28 28.28-56.57 56.57z" stroke="#000" stroke-opacity="0" stroke-width="2" fill="#fff" fill-opacity="0"/></g><g><use xlink:href="#t" transform="matrix(0.7071067811865476,-0.7071067811865475,0.7071067811865475,0.7071067811865476,1067.0710678118653,436.5685424949238) translate(0 18.15)"/></g><g><path d="M1120 432.73l56.57-56.57 28.28 28.3-56.57 56.56z" stroke="#000" stroke-opacity="0" stroke-width="2" fill="#fff" fill-opacity="0"/></g><g><use xlink:href="#u" transform="matrix(0.7071067811865476,-0.7071067811865475,0.7071067811865475,0.7071067811865476,1127.0710678118653,432.73319102372574) translate(0 18.15)"/></g><g><path d="M1180 436.57l56.57-56.57 28.28 28.28-56.57 56.57z" stroke="#000" stroke-opacity="0" stroke-width="2" fill="#fff" fill-opacity="0"/></g><g><use xlink:href="#v" transform="matrix(0.7071067811865476,-0.7071067811865475,0.7071067811865475,0.7071067811865476,1187.0710678118653,436.5685424949238) translate(0 18.15)"/></g><defs><path d="M85 4C-2 5 27-109 22-190h50c7 57-23 150 33 157 60-5 35-97 40-157h50l1 190h-47c-2-12 1-28-3-38-12 25-28 42-61 42" id="w"/><use transform="matrix(0.06234567901234567,0,0,0.06234567901234567,0,0)" xlink:href="#w" id="a"/><path d="M137-138c1-29-70-34-71-4 15 46 118 7 119 86 1 83-164 76-172 9l43-7c4 19 20 25 44 25 33 8 57-30 24-41C81-84 22-81 20-136c-2-80 154-74 161-7" id="x"/><path d="M185-48c-13 30-37 53-82 52C43 2 14-33 14-96s30-98 90-98c62 0 83 45 84 108H66c0 31 8 55 39 56 18 0 30-7 34-22zm-45-69c5-46-57-63-70-21-2 6-4 13-4 21h74" id="y"/><path d="M135-150c-39-12-60 13-60 57V0H25l-1-190h47c2 13-1 29 3 40 6-28 27-53 61-41v41" id="z"/><g id="b"><use transform="matrix(0.06234567901234567,0,0,0.06234567901234567,0,0)" xlink:href="#w"/><use transform="matrix(0.06234567901234567,0,0,0.06234567901234567,13.653703703703702,0)" xlink:href="#x"/><use transform="matrix(0.06234567901234567,0,0,0.06234567901234567,26.122839506172834,0)" xlink:href="#y"/><use transform="matrix(0.06234567901234567,0,0,0.06234567901234567,38.59197530864196,0)" xlink:href="#z"/></g><path d="M128 0H69L1-190h53L99-40l48-150h52" id="A"/><use transform="matrix(0.06234567901234567,0,0,0.06234567901234567,0,0)" xlink:href="#A" id="c"/><path d="M210-169c-67 3-38 105-44 169h-31v-121c0-29-5-50-35-48C34-165 62-65 56 0H25l-1-190h30c1 10-1 24 2 32 10-44 99-50 107 0 11-21 27-35 58-36 85-2 47 119 55 194h-31v-121c0-29-5-49-35-48" id="B"/><path d="M100-194c62-1 85 37 85 99 1 63-27 99-86 99S16-35 15-95c0-66 28-99 85-99zM99-20c44 1 53-31 53-75 0-43-8-75-51-75s-53 32-53 75 10 74 51 75" id="C"/><path d="M108 0H70L1-190h34L89-25l56-165h34" id="D"/><path d="M24-231v-30h32v30H24zM24 0v-190h32V0H24" id="E"/><path d="M100-194c63 0 86 42 84 106H49c0 40 14 67 53 68 26 1 43-12 49-29l28 8c-11 28-37 45-77 45C44 4 14-33 15-96c1-61 26-98 85-98zm52 81c6-60-76-77-97-28-3 7-6 17-6 28h103" id="F"/><g id="d"><use transform="matrix(0.04999999999999998,0,0,0.04999999999999998,0,0)" xlink:href="#B"/><use transform="matrix(0.04999999999999998,0,0,0.04999999999999998,14.949999999999994,0)" xlink:href="#C"/><use transform="matrix(0.04999999999999998,0,0,0.04999999999999998,24.94999999999999,0)" xlink:href="#D"/><use transform="matrix(0.04999999999999998,0,0,0.04999999999999998,33.94999999999999,0)" xlink:href="#E"/><use transform="matrix(0.04999999999999998,0,0,0.04999999999999998,37.899999999999984,0)" xlink:href="#F"/></g><path d="M24 0v-248h52v208h133V0H24" id="G"/><use transform="matrix(0.1240740740740739,0,0,0.1240740740740739,0,0)" xlink:href="#G" id="e"/><path d="M240-174c0 40-23 61-54 70L253 0h-59l-57-94H76V0H24v-248c93 4 217-23 216 74zM76-134c48-2 112 12 112-38 0-48-66-32-112-35v73" id="H"/><use transform="matrix(0.1240740740740739,0,0,0.1240740740740739,0,0)" xlink:href="#H" id="f"/><path d="M84 4C-5 8 30-112 23-190h32v120c0 31 7 50 39 49 72-2 45-101 50-169h31l1 190h-30c-1-10 1-25-2-33-11 22-28 36-60 37" id="I"/><path d="M135-143c-3-34-86-38-87 0 15 53 115 12 119 90S17 21 10-45l28-5c4 36 97 45 98 0-10-56-113-15-118-90-4-57 82-63 122-42 12 7 21 19 24 35" id="J"/><path d="M114-163C36-179 61-72 57 0H25l-1-190h30c1 12-1 29 2 39 6-27 23-49 58-41v29" id="K"/><g id="g"><use transform="matrix(0.04999999999999998,0,0,0.04999999999999998,0,0)" xlink:href="#I"/><use transform="matrix(0.04999999999999998,0,0,0.04999999999999998,9.999999999999996,0)" xlink:href="#J"/><use transform="matrix(0.04999999999999998,0,0,0.04999999999999998,18.999999999999993,0)" xlink:href="#F"/><use transform="matrix(0.04999999999999998,0,0,0.04999999999999998,28.99999999999999,0)" xlink:href="#K"/></g><use transform="matrix(0.04999999999999998,0,0,0.04999999999999998,0,0)" xlink:href="#I" id="h"/><path fill="#0c7cba" d="M240-174c0 40-23 61-54 70L253 0h-59l-57-94H76V0H24v-248c93 4 217-23 216 74zM76-134c48-2 112 12 112-38 0-48-66-32-112-35v73" id="L"/><path fill="#0c7cba" d="M128 0H69L1-190h53L99-40l48-150h52" id="M"/><g id="i"><use transform="matrix(0.05,0,0,0.05,0,0)" xlink:href="#L"/><use transform="matrix(0.034999999999999996,0,0,0.034999999999999996,12.950000000000001,2.5199999999999996)" xlink:href="#M"/></g><path fill="#0c7cba" d="M24 0v-248h52v208h133V0H24" id="N"/><path fill="#0c7cba" d="M85 4C-2 5 27-109 22-190h50c7 57-23 150 33 157 60-5 35-97 40-157h50l1 190h-47c-2-12 1-28-3-38-12 25-28 42-61 42" id="O"/><g id="j"><use transform="matrix(0.05,0,0,0.05,0,0)" xlink:href="#N"/><use transform="matrix(0.034999999999999996,0,0,0.034999999999999996,10.950000000000003,2.5199999999999996)" xlink:href="#O"/></g><use transform="matrix(0.04999999999999998,0,0,0.04999999999999998,0,0)" xlink:href="#D" id="k"/><path fill="#fff" d="M182-130c37 4 62 22 62 59C244 23 116-4 24 0v-248c84 5 203-23 205 63 0 31-19 50-47 55zM76-148c40-3 101 13 101-30 0-44-60-28-101-31v61zm0 110c48-3 116 14 116-37 0-48-69-32-116-35v72" id="P"/><path fill="#fff" d="M85 4C-2 5 27-109 22-190h50c7 57-23 150 33 157 60-5 35-97 40-157h50l1 190h-47c-2-12 1-28-3-38-12 25-28 42-61 42" id="Q"/><path fill="#fff" d="M115-3C79 11 28 4 28-45v-112H4v-33h27l15-45h31v45h36v33H77v99c-1 23 16 31 38 25v30" id="R"/><g id="l"><use transform="matrix(0.07469135802469133,0,0,0.07469135802469133,0,0)" xlink:href="#P"/><use transform="matrix(0.07469135802469133,0,0,0.07469135802469133,19.345061728395056,0)" xlink:href="#Q"/><use transform="matrix(0.07469135802469133,0,0,0.07469135802469133,35.70246913580246,0)" xlink:href="#R"/></g><path fill="#fff" d="M88-194c31-1 46 15 58 34l-1-101h50l1 261h-48c-2-10 0-23-3-31C134-8 116 4 84 4 32 4 16-41 15-95c0-56 19-97 73-99zm17 164c33 0 40-30 41-66 1-37-9-64-41-64s-38 30-39 65c0 43 13 65 39 65" id="S"/><path fill="#fff" d="M110-194c64 0 96 36 96 99 0 64-35 99-97 99-61 0-95-36-95-99 0-62 34-99 96-99zm-1 164c35 0 45-28 45-65 0-40-10-65-43-65-34 0-45 26-45 65 0 36 10 65 43 65" id="T"/><path fill="#fff" d="M135-194c87-1 58 113 63 194h-50c-7-57 23-157-34-157-59 0-34 97-39 157H25l-1-190h47c2 12-1 28 3 38 12-26 28-41 61-42" id="U"/><path fill="#fff" d="M62-158H24l-5-90h48" id="V"/><g id="m"><use transform="matrix(0.07469135802469133,0,0,0.07469135802469133,0,0)" xlink:href="#S"/><use transform="matrix(0.07469135802469133,0,0,0.07469135802469133,16.3574074074074,0)" xlink:href="#T"/><use transform="matrix(0.07469135802469133,0,0,0.07469135802469133,32.7148148148148,0)" xlink:href="#U"/><use transform="matrix(0.07469135802469133,0,0,0.07469135802469133,49.0722222222222,0)" xlink:href="#V"/><use transform="matrix(0.07469135802469133,0,0,0.07469135802469133,55.42098765432097,0)" xlink:href="#R"/></g><path fill="#fff" d="M147 0L96-86 75-71V0H25v-261h50v150l67-79h53l-66 74L201 0h-54" id="W"/><path fill="#fff" d="M231 0h-52l-39-155L100 0H48L-1-190h46L77-45c9-52 24-97 36-145h53l37 145 32-145h46" id="X"/><g id="n"><use transform="matrix(0.07469135802469133,0,0,0.07469135802469133,0,0)" xlink:href="#W"/><use transform="matrix(0.07469135802469133,0,0,0.07469135802469133,14.938271604938267,0)" xlink:href="#U"/><use transform="matrix(0.07469135802469133,0,0,0.07469135802469133,31.295679012345662,0)" xlink:href="#T"/><use transform="matrix(0.07469135802469133,0,0,0.07469135802469133,47.653086419753066,0)" xlink:href="#X"/></g><path fill="#fff" d="M135-194c53 0 70 44 70 98 0 56-19 98-73 100-31 1-45-17-59-34 3 33 2 69 2 105H25l-1-265h48c2 10 0 23 3 31 11-24 29-35 60-35zM114-30c33 0 39-31 40-66 0-38-9-64-40-64-56 0-55 130 0 130" id="Y"/><path fill="#fff" d="M25-224v-37h50v37H25zM25 0v-190h50V0H25" id="Z"/><path fill="#fff" d="M190-63c-7 42-38 67-86 67-59 0-84-38-90-98-12-110 154-137 174-36l-49 2c-2-19-15-32-35-32-30 0-35 28-38 64-6 74 65 87 74 30" id="aa"/><path fill="#fff" d="M137-138c1-29-70-34-71-4 15 46 118 7 119 86 1 83-164 76-172 9l43-7c4 19 20 25 44 25 33 8 57-30 24-41C81-84 22-81 20-136c-2-80 154-74 161-7" id="ab"/><g id="o"><use transform="matrix(0.07469135802469133,0,0,0.07469135802469133,0,0)" xlink:href="#R"/><use transform="matrix(0.07469135802469133,0,0,0.07469135802469133,8.888271604938268,0)" xlink:href="#T"/><use transform="matrix(0.07469135802469133,0,0,0.07469135802469133,25.24567901234567,0)" xlink:href="#Y"/><use transform="matrix(0.07469135802469133,0,0,0.07469135802469133,41.60308641975307,0)" xlink:href="#Z"/><use transform="matrix(0.07469135802469133,0,0,0.07469135802469133,49.0722222222222,0)" xlink:href="#aa"/><use transform="matrix(0.07469135802469133,0,0,0.07469135802469133,64.01049382716047,0)" xlink:href="#ab"/></g><path fill="#fff" d="M121-226c-27-7-43 5-38 36h38v33H83V0H34v-157H6v-33h28c-9-59 32-81 87-68v32" id="ac"/><g id="p"><use transform="matrix(0.07469135802469133,0,0,0.07469135802469133,0,0)" xlink:href="#T"/><use transform="matrix(0.07469135802469133,0,0,0.07469135802469133,16.3574074074074,0)" xlink:href="#ac"/></g><path fill="#fff" d="M185-48c-13 30-37 53-82 52C43 2 14-33 14-96s30-98 90-98c62 0 83 45 84 108H66c0 31 8 55 39 56 18 0 30-7 34-22zm-45-69c5-46-57-63-70-21-2 6-4 13-4 21h74" id="ad"/><path fill="#fff" d="M135-150c-39-12-60 13-60 57V0H25l-1-190h47c2 13-1 29 3 40 6-28 27-53 61-41v41" id="ae"/><g id="q"><use transform="matrix(0.07469135802469133,0,0,0.07469135802469133,0,0)" xlink:href="#Q"/><use transform="matrix(0.07469135802469133,0,0,0.07469135802469133,16.3574074074074,0)" xlink:href="#ab"/><use transform="matrix(0.07469135802469133,0,0,0.07469135802469133,31.295679012345662,0)" xlink:href="#ad"/><use transform="matrix(0.07469135802469133,0,0,0.07469135802469133,46.23395061728394,0)" xlink:href="#ae"/><use transform="matrix(0.07469135802469133,0,0,0.07469135802469133,56.690740740740715,0)" xlink:href="#ab"/></g><path fill="#fff" d="M133-34C117-15 103 5 69 4 32 3 11-16 11-54c-1-60 55-63 116-61 1-26-3-47-28-47-18 1-26 9-28 27l-52-2c7-38 36-58 82-57s74 22 75 68l1 82c-1 14 12 18 25 15v27c-30 8-71 5-69-32zm-48 3c29 0 43-24 42-57-32 0-66-3-65 30 0 17 8 27 23 27" id="af"/><g id="r"><use transform="matrix(0.07469135802469133,0,0,0.07469135802469133,0,0)" xlink:href="#af"/><use transform="matrix(0.07469135802469133,0,0,0.07469135802469133,14.938271604938267,0)" xlink:href="#U"/><use transform="matrix(0.07469135802469133,0,0,0.07469135802469133,31.295679012345662,0)" xlink:href="#S"/></g><path fill="#fff" d="M220-157c-53 9-28 100-34 157h-49v-107c1-27-5-49-29-50C55-147 81-57 75 0H25l-1-190h47c2 12-1 28 3 38 10-53 101-56 108 0 13-22 24-43 59-42 82 1 51 116 57 194h-49v-107c-1-25-5-48-29-50" id="ag"/><path fill="#fff" d="M128 0H69L1-190h53L99-40l48-150h52" id="ah"/><path fill="#fff" d="M24 0v-54h51V0H24" id="ai"/><g id="s"><use transform="matrix(0.07469135802469133,0,0,0.07469135802469133,0,0)" xlink:href="#ag"/><use transform="matrix(0.07469135802469133,0,0,0.07469135802469133,23.901234567901227,0)" xlink:href="#T"/><use transform="matrix(0.07469135802469133,0,0,0.07469135802469133,40.25864197530863,0)" xlink:href="#ah"/><use transform="matrix(0.07469135802469133,0,0,0.07469135802469133,55.19691358024689,0)" xlink:href="#Z"/><use transform="matrix(0.07469135802469133,0,0,0.07469135802469133,62.666049382716025,0)" xlink:href="#ad"/><use transform="matrix(0.07469135802469133,0,0,0.07469135802469133,77.60432098765429,0)" xlink:href="#ab"/><use transform="matrix(0.07469135802469133,0,0,0.07469135802469133,92.54259259259256,0)" xlink:href="#ai"/><use transform="matrix(0.07469135802469133,0,0,0.07469135802469133,100.0117283950617,0)" xlink:href="#ai"/><use transform="matrix(0.07469135802469133,0,0,0.07469135802469133,107.48086419753082,0)" xlink:href="#ai"/></g><path d="M141-36C126-15 110 5 73 4 37 3 15-17 15-53c-1-64 63-63 125-63 3-35-9-54-41-54-24 1-41 7-42 31l-33-3c5-37 33-52 76-52 45 0 72 20 72 64v82c-1 20 7 32 28 27v20c-31 9-61-2-59-35zM48-53c0 20 12 33 32 33 41-3 63-29 60-74-43 2-92-5-92 41" id="aj"/><path d="M96-169c-40 0-48 33-48 73s9 75 48 75c24 0 41-14 43-38l32 2c-6 37-31 61-74 61-59 0-76-41-82-99-10-93 101-131 147-64 4 7 5 14 7 22l-32 3c-4-21-16-35-41-35" id="ak"/><path d="M59-47c-2 24 18 29 38 22v24C64 9 27 4 27-40v-127H5v-23h24l9-43h21v43h35v23H59v120" id="al"/><path d="M117-194c89-4 53 116 60 194h-32v-121c0-31-8-49-39-48C34-167 62-67 57 0H25l-1-190h30c1 10-1 24 2 32 11-22 29-35 61-36" id="am"/><g id="t"><use transform="matrix(0.05,0,0,0.05,0,0)" xlink:href="#aj"/><use transform="matrix(0.05,0,0,0.05,10,0)" xlink:href="#ak"/><use transform="matrix(0.05,0,0,0.05,19,0)" xlink:href="#al"/><use transform="matrix(0.05,0,0,0.05,24,0)" xlink:href="#E"/><use transform="matrix(0.05,0,0,0.05,27.950000000000003,0)" xlink:href="#C"/><use transform="matrix(0.05,0,0,0.05,37.95,0)" xlink:href="#am"/></g><g id="u"><use transform="matrix(0.05,0,0,0.05,0,0)" xlink:href="#K"/><use transform="matrix(0.05,0,0,0.05,5.95,0)" xlink:href="#C"/><use transform="matrix(0.05,0,0,0.05,15.949999999999998,0)" xlink:href="#B"/><use transform="matrix(0.05,0,0,0.05,30.899999999999995,0)" xlink:href="#aj"/><use transform="matrix(0.05,0,0,0.05,40.9,0)" xlink:href="#am"/><use transform="matrix(0.05,0,0,0.05,50.9,0)" xlink:href="#ak"/><use transform="matrix(0.05,0,0,0.05,59.900000000000006,0)" xlink:href="#F"/></g><path d="M33 0v-38h34V0H33" id="an"/><g id="v"><use transform="matrix(0.05,0,0,0.05,0,0)" xlink:href="#an"/><use transform="matrix(0.05,0,0,0.05,5,0)" xlink:href="#an"/><use transform="matrix(0.05,0,0,0.05,10,0)" xlink:href="#an"/></g></defs></g></svg>