<svg xmlns="http://www.w3.org/2000/svg" xmlns:xlink="http://www.w3.org/1999/xlink" xmlns:lucid="lucid" width="1889.21" height="492.85"><g transform="translate(-100 -77.12724770738805)" lucid:page-tab-id="ppNlMmyc0IGq"><path d="M180 238.55h280v71.43H180z" fill="#fff" fill-opacity="0"/><path d="M214.5 294.28l-.1.76h-8.05l-7.13-14.98c-.48.04-1 .1-1.38.1-.67 0-1.14-.1-1.8-.2l-2.96 11.37c-.1.38-.14.7-.14 1.1 0 1.13.85 1.85 3.6 1.85h.92l-.2.76h-15.45l.2-.76h.76c3.6 0 4.57-1.33 5-2.95l5.9-23.64c.1-.4.23-.82.23-1.2 0-1-.82-1.76-3.67-1.76h-.95l.2-.76h12.88c7.6 0 10.27 3.14 10.27 7.18 0 3.95-3.38 7.14-8.47 8.13l5.47 10.9c.9 1.84 2.14 3.84 4.86 4.08m-15-28.4l-3.04 12.37c.62.14 1.1.2 1.52.2 6.33 0 9.1-2.77 9.1-6.77 0-5.13-2.96-5.94-5.96-5.94-.67 0-1.1.05-1.62.14M237.65 274.68l-4.33 16.4s-.04.1-.04.53c0 .54.28.82.66.82.48 0 1.2-.1 3.05-2.57l.56.58c-1.48 2.23-4.05 5.1-6.33 5.1-1.57 0-2-1.1-2-2.63 0-.62.3-1.62.53-2.38h-.2c-3.42 4.38-6.37 5-8.22 5-3 0-4.24-2.62-4.24-5.67 0-6.27 6.28-15.8 13.13-15.8 2.05 0 3.05 1.15 3.14 2.2h.05l.43-1.57h3.8m-5 4.14c0-1.95-.56-3.38-2.37-3.38-3.24 0-6.1 4.14-7.7 8.14-.86 2.14-1.34 4.23-1.34 5.9 0 2.52 1.48 3.13 2.76 3.13 3.28 0 6.6-4.5 7.94-9.02.38-1.24.72-3.14.72-4.76M252.6 274.2l-.5 1.8h-3.32l-3.7 15.23c-.06.15-.1.38-.1.53 0 .28.14.57.76.57 0 0 1.1-.1 2.85-2.48l.6.53c-1.13 1.47-3.5 5.1-6.32 5.1-1.47 0-1.85-1.2-1.85-2.5 0-.6.1-1.22.24-1.75l3.85-15.22h-3.66l.23-1.37c3.56-.66 6.46-2.42 8.4-6.56h.63l-1.47 6.14h3.33M266.24 268.12c0 1.23-1.05 2.18-2.28 2.18-1.38 0-2.3-.95-2.3-2.18 0-1.2.92-2.38 2.3-2.38 1.23 0 2.28 1.2 2.28 2.38m-1.43 5.94l-4.36 17.32c-.05.28-.05.47-.05.66 0 .34.27.48.6.48 1.05 0 1.34-.57 3.05-2.43l.62.47c-1.67 2.14-4.04 5-6.37 5-1.34 0-1.9-.9-1.9-2.2 0-.57 0-1.47 3.75-16.07.05-.1.1-.43.1-.57 0-.8-.38-1.05-1.48-1.05-.43 0-1 .1-1.33.2l-.14-.77M291.07 290.47l-.24.3c-1.33 1.6-3.6 4.65-6.1 4.65-1.5 0-1.94-1.1-1.94-2.2 0-.6.18-1.37.33-1.9l2.7-10.5c.1-.38.34-1.34.34-2 0-.9-.3-1.8-1.14-1.8-1.8 0-4.8 4.08-6.28 6.32-1.7 2.57-2.95 4.8-3.23 5.8l-1.57 5.9h-3.67l4.52-17.8c0-.85-.14-1.5-1.43-1.5-.47 0-1 .08-1.33.13l-.1-.7 7.57-1.1-2.42 8.98h.15c.24 0 2.57-3.33 2.66-3.47 1.9-2.38 4.75-5.52 7.6-5.52 2.1 0 2.67 1.38 2.67 2.95 0 1.2-.3 2.4-.53 3.34l-2.8 11c-.05.08-.05.23-.05.46.04.3.18.67.7.67 1.14 0 2.3-1.7 2.95-2.52M315.9 275.4l-.62 2.13h-3.85c.62.72.8 1.34.8 2.38 0 3.58-2.5 6.53-6.7 7.05-2.8.38-4.2 1.57-4.2 2.76 0 3 11.1 1.1 11.1 7.05 0 3.38-3.14 7.18-10.23 7.18-6.37 0-8.75-2.7-8.75-5.47 0-2.75 2.6-4.18 5.56-5.13-.8-.53-1.13-1.43-1.13-2.24 0-1.82 1.76-4.15 4.04-4.15v-.2c-3.17-.7-4.46-2.94-4.46-5.17 0-3.76 3.24-7.52 8.28-7.52 2 0 3.47.62 4.2 1.33h5.98m-7.42 3.04c0-1.76-.48-2.95-2.57-2.95-2.56 0-4.65 3.37-4.65 6.6 0 2.2.57 3.85 2.66 3.85 3.4 0 4.58-4.85 4.58-7.5m.62 19.87c0-3.7-6.28-3.47-9.14-4.52-.38.24-.85.48-1.23.76-1.24.9-2.3 2.14-2.3 3.43 0 2.22 2.1 4.6 6.63 4.6 4.33 0 6.04-2.2 6.04-4.28M258 259.46h-3.22l-6.8-13.75-6.8 13.76h-3.24l8.6-17.36h2.86M330.4 302.7l-.56.76c-7.52-4.28-11.6-12.32-11.6-20.4 0-8.8 4.13-15.66 11.74-20.18l.43.77c-6.6 5.66-8.08 10.08-8.08 19.26 0 8.86 1.43 14.23 8.1 19.8M352.9 274.68l-4.23 16.55c-.04.2-.04.3-.04.43 0 .38.2.67.66.67 1 0 1.9-1.24 2.7-2.2l.24-.28.62.53c-1.1 1.57-3.52 5.1-6.28 5.1-1.38 0-1.9-.92-1.9-2.5 0-.4.05-1.18.2-1.75l1.22-4.5h-.04c-.34.22-4.62 5.98-6.52 7.4-1.1.8-2.33 1.34-3.42 1.34-2.24 0-2.9-1.7-2.9-3.52 0-1 .14-1.9.37-2.8l2.8-11c.2-.7.3-1 .3-1.2 0-.56-.54-1.08-1.58-1.08-.34 0-.9.05-1.24.14l-.14-.7 7.47-1.24-4 15.5c-.1.44-.13.77-.13 1.15 0 1 .38 1.63 1.23 1.63 1.2 0 3.1-1.48 4.76-3.66 2.05-2.72 4.23-6.95 5.2-10.42l.98-3.57h3.67M358.33 301.75l-.48-.9c2.62-1.77 3.95-3.53 3.95-5.1 0-.33-.28-.62-.66-.62s-.86.2-1.38.2c-1.76 0-2.76-.8-2.76-2.43 0-1.62 1.14-2.7 2.85-2.7 2.14 0 3.8 1.65 3.8 4.13 0 2.85-2.04 5.85-5.32 7.42M385.97 273.44l-4.24 15.5c-.14.5-.2 1-.2 1.53 0 1.8.96 3.14 2.87 3.14 5.13 0 8.46-5.36 10-9.64.37-1.15.7-2.33.7-3.52 0-3.52-2.9-3.1-2.9-5.2 0-1.6 1.2-2 2.57-2 2 0 2.23 2.44 2.23 3.96 0 4.7-1.85 9.52-4.6 13.32-2.06 2.85-5.72 4.95-9.24 4.95-3.04 0-5.52-.95-5.52-4.43 0-1 .14-2 .43-2.95l2.76-10c.1-.37.24-.8.24-1.18 0-.95-2.1-.95-2.7-.95v-.72c2.46-.62 5.03-.95 7.4-2M399.67 263.65l.57-.77c7.27 4.38 11.6 12.32 11.6 20.4 0 8.8-4.18 15.56-11.75 20.18l-.43-.76c6.75-5.57 8.08-10.04 8.08-19.27 0-8.9-1.2-14.36-8.08-19.78M457.65 279.82h-28.02v-3.14h28.02v3.14m0 9.5h-28.02v-3.13h28.02v3.13"/><path d="M480 160h670.15v69.98H480z" fill="#fff" fill-opacity="0"/><path d="M527.64 212.4l-.13 1.04h-11.1l-9.85-20.7c-.66.07-1.38.13-1.9.13-.93 0-1.58-.13-2.5-.26l-4.08 15.72c-.13.52-.2.98-.2 1.5 0 1.58 1.2 2.57 5 2.57h1.25l-.26 1.04H482.5l.26-1.05h1.05c5 0 6.32-1.85 6.9-4.08l8.16-32.67c.13-.52.33-1.1.33-1.64 0-1.37-1.13-2.42-5.07-2.42h-1.32l.28-1.05h17.8c10.52 0 14.2 4.34 14.2 9.92 0 5.46-4.66 9.86-11.7 11.24l7.56 15.04c1.25 2.56 2.96 5.32 6.7 5.65m-20.7-39.24l-4.2 17.08c.85.2 1.5.27 2.1.27 8.74 0 12.55-3.8 12.55-9.33 0-7.1-4.08-8.2-8.22-8.2-.92 0-1.5.06-2.24.2M540.12 202.24L536 217.4c-.15.46-.2.97-.2 1.48 0 1.76.93 3.06 2.8 3.06 5 0 8.26-5.25 9.75-9.43.37-1.1.7-2.26.7-3.43 0-3.43-2.84-3.02-2.84-5.06 0-1.57 1.17-1.94 2.52-1.94 1.95 0 2.18 2.37 2.18 3.85 0 4.6-1.8 9.3-4.5 13.02-2 2.8-5.58 4.84-9.02 4.84-2.97 0-5.4-.93-5.4-4.33 0-.97.15-1.95.43-2.88l2.7-9.75c.1-.37.24-.8.24-1.16 0-.93-2.05-.93-2.65-.93v-.7c2.4-.6 4.9-.92 7.24-1.94M618.86 192.4h-38.7v-4.33h38.7v4.34m0 13.16h-38.7v-4.34h38.7v4.34M659.93 223.7h-13.86v-53.76h13.86v1.64h-5.45c-2.24 0-3.42.8-3.42 3.15v43.77c0 2.63 1.25 3.55 3.42 3.55h5.45v1.64M693.52 191.75c0 11.3-4.15 22.6-14.86 22.6-11.23 0-14.85-12.2-14.85-23 0-11.62 4.55-22.33 15.13-22.33 8.6 0 14.6 9.26 14.6 22.73m-6.32.33c0-13.67-2.9-21.35-8.67-21.35-5.45 0-8.4 7.75-8.4 21.1 0 13.33 2.88 20.82 8.53 20.82 5.6 0 8.55-7.55 8.55-20.57M707 210.62c0 1.9-1.72 3.54-3.7 3.54-2.03 0-3.6-1.57-3.6-3.6 0-2.05 1.64-3.7 3.67-3.7 1.9 0 3.62 1.78 3.62 3.76M715.6 179.93l-1.06-.27c1.9-6.24 6.05-10.64 12.9-10.64 6.1 0 10.24 3.6 10.24 9 0 3.15-1.7 6.44-6.1 9.07 2.88 1.24 4.06 2.03 5.44 3.47 1.84 2.04 2.9 5.06 2.9 8.48 0 3.48-1.13 6.7-3.03 9.2-3.17 4.2-9.4 6.1-15.26 6.1-4.8 0-7.36-1.37-7.36-3.73 0-1.38 1.18-2.37 2.7-2.37 1.1 0 2.16.4 4 1.7 2.44 1.72 3.82 2.05 5.66 2.05 4.86 0 8.54-4.47 8.54-10.06 0-5-2.3-8.2-6.83-9.53-1.45-.45-2.96-.65-6.7-.65v-.92c2.5-.85 4.2-1.57 5.5-2.36 3.23-1.84 5.34-4.8 5.34-8.8 0-4.48-2.77-6.7-7.1-6.7-4.1 0-7.1 2.1-9.8 6.96M749.9 222.7l-.66-1.24c3.62-2.43 5.46-4.86 5.46-7.03 0-.46-.4-.86-.92-.86-.53 0-1.2.27-1.9.27-2.44 0-3.82-1.12-3.82-3.36 0-2.23 1.58-3.74 3.94-3.74 2.96 0 5.26 2.3 5.26 5.72 0 3.94-2.83 8.08-7.36 10.25M819.56 191.75c0 11.3-4.14 22.6-14.85 22.6-11.23 0-14.84-12.2-14.84-23 0-11.62 4.53-22.33 15.1-22.33 8.62 0 14.6 9.26 14.6 22.73m-6.3.33c0-13.67-2.9-21.35-8.68-21.35-5.46 0-8.4 7.75-8.4 21.1 0 13.33 2.88 20.82 8.53 20.82 5.6 0 8.55-7.55 8.55-20.57M833.03 210.62c0 1.9-1.7 3.54-3.68 3.54-2.03 0-3.6-1.57-3.6-3.6 0-2.05 1.63-3.7 3.67-3.7 1.9 0 3.6 1.78 3.6 3.76M868.9 191.75c0 11.3-4.13 22.6-14.84 22.6-11.24 0-14.85-12.2-14.85-23 0-11.62 4.54-22.33 15.12-22.33 8.6 0 14.6 9.26 14.6 22.73m-6.3.33c0-13.67-2.9-21.35-8.7-21.35-5.44 0-8.4 7.75-8.4 21.1 0 13.33 2.9 20.82 8.54 20.82 5.6 0 8.55-7.55 8.55-20.57M896.38 213.44h-18.13v-.98c4.86-.27 6.24-1.65 6.24-5.26v-29.5c0-2.24-.6-3.23-1.98-3.23-.66 0-1.78.33-2.96.8l-1.77.65V175l11.75-5.98.6.2v39.23c0 2.82 1.3 4 6.23 4v1M908.87 222.7l-.66-1.24c3.63-2.43 5.47-4.86 5.47-7.03 0-.46-.4-.86-.92-.86-.53 0-1.2.27-1.9.27-2.44 0-3.82-1.12-3.82-3.36 0-2.23 1.58-3.74 3.94-3.74 2.96 0 5.26 2.3 5.26 5.72 0 3.94-2.83 8.08-7.36 10.25M973.2 213.44h-18.13v-.98c4.86-.27 6.24-1.65 6.24-5.26v-29.5c0-2.24-.58-3.23-1.96-3.23-.66 0-1.77.33-2.96.8l-1.77.65V175l11.77-5.98.6.2v39.23c0 2.82 1.3 4 6.24 4v1M992.07 210.62c0 1.9-1.7 3.54-3.68 3.54-2.05 0-3.63-1.57-3.63-3.6 0-2.05 1.65-3.7 3.68-3.7 1.9 0 3.62 1.78 3.62 3.76M1025.45 168.7l-2.36 5.57c-.2.46-.74.86-1.8.86h-12.74l-2.63 5.58c9.4 1.8 12.7 3.23 16.43 8.43 1.7 2.36 2.3 4.86 2.3 8.34 0 6.3-1.97 10.4-6.44 13.67-3.1 2.24-6.7 3.22-11.17 3.22-4.93 0-8.34-1.58-8.34-4.07 0-1.66 1.12-2.5 2.96-2.5 1.5 0 2.76.32 4.87 2.03 1.84 1.5 3.35 2.1 4.66 2.1 4.6 0 8.86-5.45 8.86-11.1 0-4.2-1.44-7.5-4.4-9.86-3.1-2.5-7.7-4.6-14-4.6-.6 0-.8-.14-.8-.53 0-.13.08-.33.08-.33l7.16-15.56h13.6c1.52 0 2.1-.33 3.16-1.7M1057.85 210.62c0 1.9-1.7 3.54-3.68 3.54-2.04 0-3.6-1.57-3.6-3.6 0-2.05 1.63-3.7 3.67-3.7 1.9 0 3.6 1.78 3.6 3.76M1085.25 210.62c0 1.9-1.7 3.54-3.68 3.54-2.03 0-3.6-1.57-3.6-3.6 0-2.05 1.63-3.7 3.67-3.7 1.9 0 3.6 1.78 3.6 3.76M1112.66 210.62c0 1.9-1.7 3.54-3.68 3.54-2.04 0-3.62-1.57-3.62-3.6 0-2.05 1.65-3.7 3.68-3.7 1.9 0 3.62 1.78 3.62 3.76M1144.33 223.7h-13.86v-1.65h5.78c2.3 0 3.1-1 3.1-3.02v-43.9c0-2.3-.86-3.55-3.36-3.55h-5.53v-1.64h13.86v53.75"/><path d="M480 240h584.32v69.98H480z" fill="#fff" fill-opacity="0"/><path d="M523.9 280.95l-4 12.5h-37.4l.26-1.06h1.12c4.93 0 6.5-1.85 7.03-4.08l7.76-31.35c.27-1.05.46-2.37.46-2.96 0-1.24-.92-2.42-5-2.42h-1.17l.26-1.05h21.5l-.26 1.05h-1.2c-4.92 0-6.3 1.7-6.9 4.14l-8 31.6c-.27 1-.33 1.92-.33 2.05 0 1.44 1.85 1.57 2.64 1.57h8c6.72 0 10.07-1.44 13.1-7.55.45-.74.78-1.53 1.1-2.45h1.06M547.14 283.45L543 299.62c-.04.2-.04.28-.04.42 0 .37.18.65.65.65.98 0 1.86-1.22 2.65-2.15l.24-.28.6.5c-1.08 1.55-3.45 5-6.14 5-1.35 0-1.86-.9-1.86-2.43 0-.42.05-1.16.2-1.72l1.2-4.4h-.05c-.33.22-4.5 5.84-6.37 7.23-1.07.8-2.27 1.3-3.34 1.3-2.2 0-2.84-1.67-2.84-3.43 0-.98.14-1.86.37-2.74l2.75-10.74c.18-.7.27-.97.27-1.16 0-.56-.52-1.07-1.54-1.07-.32 0-.88.06-1.2.15l-.15-.7 7.3-1.2-3.9 15.14c-.1.4-.13.74-.13 1.1 0 1 .37 1.6 1.2 1.6 1.17 0 3.02-1.45 4.65-3.6 2-2.64 4.14-6.77 5.06-10.16l.98-3.5h3.58M615.25 272.4h-38.7v-4.33h38.7v4.34m0 13.16h-38.7v-4.34h38.7v4.34M656.38 303.7h-13.86v-53.76h13.86v1.64h-5.45c-2.23 0-3.42.8-3.42 3.15v43.77c0 2.63 1.26 3.55 3.43 3.55h5.45v1.64M684.5 293.44h-18.13v-.98c4.87-.27 6.25-1.65 6.25-5.26v-29.5c0-2.24-.6-3.23-1.97-3.23-.66 0-1.78.33-2.96.8l-1.8.65V255l11.78-5.98.6.2v39.23c0 2.82 1.3 4 6.23 4v1M703.37 290.62c0 1.9-1.7 3.54-3.68 3.54-2.04 0-3.62-1.57-3.62-3.6 0-2.05 1.64-3.7 3.68-3.7 1.9 0 3.6 1.78 3.6 3.76M736.76 248.7l-2.37 5.57c-.2.46-.73.86-1.78.86h-12.75l-2.63 5.58c9.4 1.8 12.68 3.23 16.43 8.43 1.7 2.36 2.3 4.86 2.3 8.34 0 6.3-1.97 10.4-6.44 13.67-3.1 2.24-6.7 3.22-11.17 3.22-4.93 0-8.35-1.58-8.35-4.07 0-1.66 1.13-2.5 2.97-2.5 1.5 0 2.76.32 4.86 2.03 1.84 1.5 3.35 2.1 4.67 2.1 4.6 0 8.87-5.45 8.87-11.1 0-4.2-1.45-7.5-4.4-9.86-3.1-2.5-7.7-4.6-14-4.6-.6 0-.8-.14-.8-.53 0-.13.07-.33.07-.33l7.17-15.56H733c1.52 0 2.1-.33 3.17-1.7M746.35 302.7l-.66-1.24c3.6-2.43 5.45-4.86 5.45-7.03 0-.46-.4-.86-.92-.86-.53 0-1.18.27-1.9.27-2.44 0-3.82-1.12-3.82-3.36 0-2.23 1.6-3.74 3.95-3.74 2.96 0 5.26 2.3 5.26 5.72 0 3.94-2.8 8.08-7.35 10.25M816 271.75c0 11.3-4.13 22.6-14.84 22.6-11.24 0-14.85-12.2-14.85-23 0-11.62 4.54-22.33 15.12-22.33 8.6 0 14.6 9.26 14.6 22.73m-6.32.33c0-13.67-2.9-21.35-8.67-21.35-5.46 0-8.4 7.75-8.4 21.1 0 13.33 2.88 20.82 8.53 20.82 5.6 0 8.54-7.55 8.54-20.57M823.04 302.7l-.65-1.24c3.6-2.43 5.44-4.86 5.44-7.03 0-.46-.4-.86-.92-.86s-1.18.27-1.9.27c-2.44 0-3.82-1.12-3.82-3.36 0-2.23 1.58-3.74 3.95-3.74 2.95 0 5.25 2.3 5.25 5.72 0 3.94-2.82 8.08-7.36 10.25M892.7 271.75c0 11.3-4.14 22.6-14.85 22.6-11.24 0-14.85-12.2-14.85-23 0-11.62 4.53-22.33 15.1-22.33 8.62 0 14.6 9.26 14.6 22.73m-6.3.33c0-13.67-2.9-21.35-8.68-21.35-5.45 0-8.4 7.75-8.4 21.1 0 13.33 2.88 20.82 8.53 20.82 5.6 0 8.54-7.55 8.54-20.57M906.18 290.62c0 1.9-1.7 3.54-3.68 3.54-2.04 0-3.62-1.57-3.62-3.6 0-2.05 1.64-3.7 3.68-3.7 1.9 0 3.62 1.78 3.62 3.76M940.02 283.26c0 6.76-5.06 11.1-12.95 11.1-7.42 0-12.6-4.53-12.6-10.7 0-4.55 1.5-7.1 8.53-12.04-6.77-5.58-8.15-8.08-8.15-12.35 0-6.3 5.45-10.25 12.75-10.25 6.5 0 11.04 4.27 11.04 9.4 0 4.92-2.3 7.16-8.8 10.64 8.08 5.4 10.18 8.94 10.18 14.2m-5.9-24.85c0-4.52-2.7-7.54-7.18-7.54-4.4 0-7.23 2.43-7.23 6.5 0 4.08 2.44 7.1 8.23 10.52 4.47-2.63 6.18-5.4 6.18-9.47m-5.5 17.17l-3.9-2.63c-3.87 3.15-5.25 5.85-5.25 10.12 0 6.04 3.35 9.46 8.35 9.46 4.27 0 7.23-2.96 7.23-7.23 0-4.08-1.98-6.7-6.44-9.73M972.02 290.62c0 1.9-1.7 3.54-3.68 3.54-2.03 0-3.6-1.57-3.6-3.6 0-2.05 1.63-3.7 3.67-3.7 1.92 0 3.62 1.78 3.62 3.76M999.43 290.62c0 1.9-1.7 3.54-3.68 3.54-2.04 0-3.62-1.57-3.62-3.6 0-2.05 1.65-3.7 3.68-3.7 1.92 0 3.63 1.78 3.63 3.76M1026.83 290.62c0 1.9-1.7 3.54-3.68 3.54-2.03 0-3.6-1.57-3.6-3.6 0-2.05 1.63-3.7 3.67-3.7 1.9 0 3.6 1.78 3.6 3.76M1058.44 303.7h-13.86v-1.65h5.78c2.3 0 3.1-1 3.1-3.02v-43.9c0-2.3-.87-3.55-3.36-3.55h-5.52v-1.64h13.86v53.75"/><path d="M480 320h633.03v69.98H480z" fill="#fff" fill-opacity="0"/><path d="M523.9 360.95l-4 12.5h-37.4l.26-1.06h1.12c4.93 0 6.5-1.85 7.03-4.08l7.76-31.35c.27-1.05.46-2.37.46-2.96 0-1.24-.92-2.42-5-2.42h-1.17l.26-1.05h21.5l-.26 1.05h-1.2c-4.92 0-6.3 1.7-6.9 4.14l-8 31.6c-.27 1-.33 1.92-.33 2.05 0 1.44 1.85 1.57 2.64 1.57h8c6.72 0 10.07-1.44 13.1-7.55.45-.74.78-1.53 1.1-2.45h1.06M547.16 363.4l-4.14 16.18c-.04.2-.04.28-.04.42 0 .37.18.65.65.65.97 0 1.85-1.2 2.64-2.14l.24-.27.6.52c-1.06 1.53-3.43 4.97-6.12 4.97-1.35 0-1.86-.9-1.86-2.42 0-.42.05-1.16.18-1.72l1.2-4.4h-.03c-.33.22-4.5 5.84-6.37 7.24-1.07.8-2.28 1.3-3.34 1.3-2.2 0-2.84-1.68-2.84-3.44 0-.98.14-1.86.37-2.74l2.73-10.74c.2-.7.28-.97.28-1.16 0-.55-.5-1.07-1.52-1.07-.33 0-.88.05-1.2.14l-.15-.68 7.3-1.2-3.9 15.14c-.1.4-.14.74-.14 1.1 0 1 .36 1.6 1.2 1.6 1.15 0 3-1.45 4.64-3.6 2-2.64 4.13-6.77 5.06-10.16l.98-3.5h3.58M552.17 382l-1.58-.56c1.2-5.7 4.12-18.5 4.96-21.2.74-2.36 2.14-3.2 3.53-3.2 1.66 0 3.15 1.03 3.15 3.3 0 .52-.23 1.63-.47 2.2-.97 2.64-6.78 14.2-9.6 19.46M631.08 352.4h-38.7v-4.33h38.7v4.34m0 13.16h-38.7v-4.34h38.7v4.34M672.16 383.7H658.3v-53.76h13.86v1.64h-5.46c-2.23 0-3.4.8-3.4 3.15v43.77c0 2.63 1.23 3.55 3.4 3.55h5.46v1.64M705.74 351.75c0 11.3-4.14 22.6-14.85 22.6-11.25 0-14.87-12.2-14.87-23 0-11.62 4.54-22.33 15.12-22.33 8.6 0 14.6 9.26 14.6 22.73m-6.32.33c0-13.67-2.9-21.35-8.68-21.35-5.45 0-8.4 7.75-8.4 21.1 0 13.33 2.88 20.82 8.54 20.82 5.57 0 8.53-7.55 8.53-20.57M712.77 382.7l-.66-1.24c3.63-2.43 5.47-4.86 5.47-7.03 0-.46-.4-.86-.92-.86-.53 0-1.2.27-1.9.27-2.44 0-3.82-1.12-3.82-3.36 0-2.23 1.58-3.74 3.94-3.74 2.96 0 5.26 2.3 5.26 5.72 0 3.94-2.83 8.08-7.36 10.25M755.22 339.93l-1.05-.27c1.9-6.24 6.05-10.64 12.88-10.64 6.1 0 10.25 3.6 10.25 9 0 3.15-1.7 6.44-6.1 9.07 2.88 1.24 4.07 2.03 5.45 3.47 1.84 2.04 2.9 5.06 2.9 8.48 0 3.48-1.13 6.7-3.03 9.2-3.16 4.2-9.4 6.1-15.25 6.1-4.8 0-7.36-1.37-7.36-3.73 0-1.38 1.2-2.37 2.7-2.37 1.12 0 2.17.4 4 1.7 2.44 1.72 3.82 2.05 5.66 2.05 4.87 0 8.55-4.47 8.55-10.06 0-5-2.3-8.2-6.83-9.53-1.44-.45-2.95-.65-6.7-.65v-.92c2.5-.85 4.2-1.57 5.52-2.36 3.2-1.84 5.3-4.8 5.3-8.8 0-4.48-2.75-6.7-7.08-6.7-4.08 0-7.1 2.1-9.8 6.96M795.97 370.62c0 1.9-1.7 3.54-3.68 3.54-2.05 0-3.63-1.57-3.63-3.6 0-2.05 1.65-3.7 3.68-3.7 1.9 0 3.62 1.78 3.62 3.76M829.35 328.7l-2.36 5.57c-.2.46-.74.86-1.8.86h-12.74l-2.63 5.58c9.4 1.8 12.7 3.23 16.43 8.43 1.7 2.36 2.3 4.86 2.3 8.34 0 6.3-1.97 10.4-6.44 13.67-3.1 2.24-6.7 3.22-11.17 3.22-4.93 0-8.34-1.58-8.34-4.07 0-1.66 1.12-2.5 2.96-2.5 1.5 0 2.76.32 4.87 2.03 1.84 1.5 3.35 2.1 4.66 2.1 4.6 0 8.86-5.45 8.86-11.1 0-4.2-1.44-7.5-4.4-9.86-3.1-2.5-7.7-4.6-14-4.6-.6 0-.8-.14-.8-.53 0-.13.08-.33.08-.33l7.16-15.56h13.6c1.52 0 2.1-.33 3.16-1.7M838.88 382.7l-.66-1.24c3.62-2.43 5.46-4.86 5.46-7.03 0-.46-.4-.86-.92-.86-.53 0-1.18.27-1.9.27-2.44 0-3.82-1.12-3.82-3.36 0-2.23 1.58-3.74 3.94-3.74 2.96 0 5.26 2.3 5.26 5.72 0 3.94-2.82 8.08-7.36 10.25M908.54 351.75c0 11.3-4.14 22.6-14.85 22.6-11.25 0-14.86-12.2-14.86-23 0-11.62 4.53-22.33 15.1-22.33 8.62 0 14.6 9.26 14.6 22.73m-6.3.33c0-13.67-2.9-21.35-8.68-21.35-5.46 0-8.4 7.75-8.4 21.1 0 13.33 2.88 20.82 8.53 20.82 5.58 0 8.53-7.55 8.53-20.57M922 370.62c0 1.9-1.7 3.54-3.67 3.54-2.03 0-3.6-1.57-3.6-3.6 0-2.05 1.63-3.7 3.67-3.7 1.9 0 3.6 1.78 3.6 3.76M957.9 351.75c0 11.3-4.15 22.6-14.86 22.6-11.23 0-14.85-12.2-14.85-23 0-11.62 4.53-22.33 15.1-22.33 8.6 0 14.6 9.26 14.6 22.73m-6.3.33c0-13.67-2.9-21.35-8.7-21.35-5.44 0-8.4 7.75-8.4 21.1 0 13.33 2.9 20.82 8.54 20.82 5.6 0 8.55-7.55 8.55-20.57M985.36 373.44h-18.13v-.98c4.86-.27 6.24-1.65 6.24-5.26v-29.5c0-2.24-.6-3.23-1.97-3.23-.66 0-1.78.33-2.96.8l-1.77.65V335l11.76-5.98.6.2v39.23c0 2.82 1.3 4 6.23 4v1M1020.72 370.62c0 1.9-1.7 3.54-3.68 3.54-2.04 0-3.6-1.57-3.6-3.6 0-2.05 1.63-3.7 3.67-3.7 1.9 0 3.62 1.78 3.62 3.76M1048.12 370.62c0 1.9-1.7 3.54-3.68 3.54-2.03 0-3.6-1.57-3.6-3.6 0-2.05 1.63-3.7 3.67-3.7 1.92 0 3.62 1.78 3.62 3.76M1075.6 370.62c0 1.9-1.7 3.54-3.7 3.54-2.02 0-3.6-1.57-3.6-3.6 0-2.05 1.64-3.7 3.68-3.7 1.9 0 3.6 1.78 3.6 3.76M1107.2 383.7h-13.86v-1.65h5.78c2.3 0 3.1-1 3.1-3.02v-43.9c0-2.3-.86-3.55-3.36-3.55h-5.52v-1.64h13.86v53.75"/><path d="M120 210.26L233.14 97.13l28.28 28.28-113.14 113.15z" stroke="#000" stroke-opacity="0" stroke-width="2" fill="#fff" fill-opacity="0"/><use xlink:href="#a" transform="matrix(0.7071067811865476,-0.7071067811865475,0.7071067811865475,0.7071067811865476,127.07106781186549,210.26433269723566) translate(32.66728395061729 19.830555555555552)"/><path d="M205.27 182.9L223 221.7" stroke="#000" stroke-width="2" fill="none"/><path d="M206.2 182.5l-1.83.83-.27-.6 1.5-1.5z"/><path d="M229.32 235.6l-10.14-11.05 8.44-3.85z" stroke="#000" stroke-width="2"/><path d="M520 400h1400.5v69.98H520z" fill="#fff" fill-opacity="0"/><path d="M563.9 440.95l-4 12.5h-37.4l.26-1.06h1.12c4.93 0 6.5-1.85 7.03-4.08l7.76-31.35c.27-1.05.46-2.37.46-2.96 0-1.24-.92-2.42-5-2.42h-1.17l.26-1.05h21.5l-.26 1.05h-1.2c-4.92 0-6.3 1.7-6.9 4.14l-8 31.6c-.27 1-.33 1.92-.33 2.05 0 1.44 1.85 1.57 2.64 1.57h8c6.72 0 10.07-1.44 13.1-7.55.45-.74.78-1.53 1.1-2.45h1.06M587.14 443.45L583 459.62c-.04.2-.04.28-.04.42 0 .37.18.65.65.65.98 0 1.86-1.22 2.65-2.15l.24-.28.6.5c-1.08 1.55-3.45 5-6.14 5-1.35 0-1.86-.9-1.86-2.43 0-.42.05-1.16.2-1.72l1.2-4.4h-.05c-.33.22-4.5 5.84-6.37 7.23-1.07.8-2.27 1.3-3.34 1.3-2.2 0-2.84-1.67-2.84-3.43 0-.98.14-1.86.37-2.74l2.75-10.74c.18-.7.27-.97.27-1.16 0-.56-.52-1.07-1.54-1.07-.32 0-.88.06-1.2.15l-.15-.7 7.3-1.2-3.9 15.14c-.1.4-.13.74-.13 1.1 0 1 .37 1.6 1.2 1.6 1.17 0 3.02-1.45 4.65-3.6 2-2.64 4.14-6.77 5.06-10.16l.98-3.5h3.58M655.25 432.4h-38.7v-4.33h38.7v4.34m0 13.16h-38.7v-4.34h38.7v4.34M696.7 464.02l-.78 1.05c-10.38-5.9-16.03-17.02-16.03-28.2 0-12.15 5.7-21.6 16.22-27.85l.6 1.05c-9.14 7.82-11.18 13.93-11.18 26.6 0 12.24 1.97 19.66 11.17 27.35M729.9 431.75c0 11.3-4.14 22.6-14.85 22.6-11.24 0-14.85-12.2-14.85-23 0-11.62 4.53-22.33 15.1-22.33 8.62 0 14.6 9.26 14.6 22.73m-6.3.33c0-13.67-2.9-21.35-8.68-21.35-5.46 0-8.4 7.75-8.4 21.1 0 13.33 2.88 20.82 8.53 20.82 5.58 0 8.54-7.55 8.54-20.57M743.37 450.62c0 1.9-1.7 3.54-3.68 3.54-2.04 0-3.62-1.57-3.62-3.6 0-2.05 1.64-3.7 3.68-3.7 1.9 0 3.6 1.78 3.6 3.76M751.98 419.93l-1.05-.27c1.9-6.24 6.05-10.64 12.88-10.64 6.12 0 10.26 3.6 10.26 9 0 3.15-1.7 6.44-6.1 9.07 2.88 1.24 4.07 2.03 5.45 3.47 1.85 2.04 2.9 5.06 2.9 8.48 0 3.48-1.12 6.7-3.03 9.2-3.15 4.2-9.4 6.1-15.24 6.1-4.8 0-7.36-1.37-7.36-3.73 0-1.38 1.18-2.37 2.7-2.37 1.1 0 2.16.4 4 1.7 2.43 1.72 3.8 2.05 5.65 2.05 4.87 0 8.55-4.47 8.55-10.06 0-5-2.3-8.2-6.84-9.53-1.45-.45-2.96-.65-6.7-.65v-.92c2.5-.85 4.2-1.57 5.52-2.36 3.22-1.84 5.32-4.8 5.32-8.8 0-4.48-2.76-6.7-7.1-6.7-4.07 0-7.1 2.1-9.8 6.96M834.72 452l-3.02 3.08-15.18-15.1-15.18 15.1-3.03-3.02 15.13-15.18-15.12-15.18 3.1-3.02 15.12 15.1 15.18-15.1 3.02 2.95-15.12 15.25M883.35 444.44l-3.55 9h-25.7v-.8l11.7-12.4c6.18-6.5 8.55-11.5 8.55-17.1 0-5.97-3.55-9.26-9.14-9.26-4.72 0-7.02 2.1-9.65 8.54l-1.38-.33c1.38-7.7 5.6-13.08 13.67-13.08 7.43 0 12.16 5.06 12.16 11.56 0 5.2-2.56 10.12-8.4 16.3l-10.86 11.57h15.38c2.76 0 4.14-.73 6.3-4.4M896.95 450.62c0 1.9-1.7 3.54-3.68 3.54-2.03 0-3.6-1.57-3.6-3.6 0-2.05 1.63-3.7 3.67-3.7 1.9 0 3.6 1.78 3.6 3.76M930.34 408.7l-2.37 5.57c-.2.46-.72.86-1.77.86h-12.75l-2.63 5.58c9.4 1.8 12.68 3.23 16.43 8.43 1.7 2.36 2.3 4.86 2.3 8.34 0 6.3-1.97 10.4-6.44 13.67-3.08 2.24-6.7 3.22-11.16 3.22-4.93 0-8.35-1.58-8.35-4.07 0-1.66 1.1-2.5 2.95-2.5 1.5 0 2.76.32 4.86 2.03 1.85 1.5 3.36 2.1 4.68 2.1 4.6 0 8.87-5.45 8.87-11.1 0-4.2-1.45-7.5-4.4-9.86-3.1-2.5-7.7-4.6-14-4.6-.6 0-.8-.14-.8-.53 0-.13.08-.33.08-.33l7.16-15.56h13.6c1.5 0 2.1-.33 3.15-1.7M936.32 410.07l.8-1.05c10.04 6.04 16.02 17.02 16.02 28.2 0 12.15-5.78 21.48-16.23 27.85l-.58-1.05c9.33-7.7 11.17-13.86 11.17-26.6 0-12.3-1.65-19.86-11.18-27.35M1012.75 438.98H995.6v17.16h-4.34v-17.16H974.1v-4.33h17.16V417.5h4.34v17.15h17.15v4.33M1050.53 464.02l-.78 1.05c-10.4-5.9-16.04-17.02-16.04-28.2 0-12.15 5.73-21.6 16.24-27.85l.6 1.05c-9.14 7.82-11.18 13.93-11.18 26.6 0 12.24 1.97 19.66 11.17 27.35M1083.8 431.75c0 11.3-4.15 22.6-14.86 22.6-11.24 0-14.86-12.2-14.86-23 0-11.62 4.54-22.33 15.12-22.33 8.6 0 14.6 9.26 14.6 22.73m-6.32.33c0-13.67-2.9-21.35-8.68-21.35-5.45 0-8.4 7.75-8.4 21.1 0 13.33 2.88 20.82 8.54 20.82 5.58 0 8.54-7.55 8.54-20.57M1097.26 450.62c0 1.9-1.7 3.54-3.68 3.54-2.04 0-3.62-1.57-3.62-3.6 0-2.05 1.65-3.7 3.7-3.7 1.9 0 3.6 1.78 3.6 3.76M1133.14 431.75c0 11.3-4.14 22.6-14.85 22.6-11.25 0-14.86-12.2-14.86-23 0-11.62 4.53-22.33 15.1-22.33 8.62 0 14.6 9.26 14.6 22.73m-6.3.33c0-13.67-2.9-21.35-8.68-21.35-5.46 0-8.4 7.75-8.4 21.1 0 13.33 2.88 20.82 8.53 20.82 5.57 0 8.53-7.55 8.53-20.57M1160.6 453.44h-18.13v-.98c4.87-.27 6.25-1.65 6.25-5.26v-29.5c0-2.24-.6-3.23-1.98-3.23-.65 0-1.77.33-2.95.8l-1.8.65V415l11.78-5.98.6.2v39.23c0 2.82 1.3 4 6.23 4v1M1221.46 452l-3.02 3.08-15.18-15.1-15.18 15.1-3.02-3.02 15.1-15.18-15.1-15.18 3.1-3.02 15.1 15.1 15.18-15.1 3.02 2.95-15.1 15.25M1270.23 431.75c0 11.3-4.14 22.6-14.86 22.6-11.23 0-14.85-12.2-14.85-23 0-11.62 4.54-22.33 15.12-22.33 8.6 0 14.6 9.26 14.6 22.73m-6.32.33c0-13.67-2.9-21.35-8.68-21.35-5.45 0-8.4 7.75-8.4 21.1 0 13.33 2.88 20.82 8.53 20.82 5.6 0 8.55-7.55 8.55-20.57M1273.7 410.07l.8-1.05c10.05 6.04 16.03 17.02 16.03 28.2 0 12.15-5.78 21.48-16.23 27.85l-.6-1.05c9.34-7.7 11.18-13.86 11.18-26.6 0-12.3-1.64-19.86-11.17-27.35M1350.14 438.98H1333v17.16h-4.35v-17.16h-17.15v-4.33h17.15V417.5h4.34v17.15h17.14v4.33M1388 464.02l-.8 1.05c-10.38-5.9-16.03-17.02-16.03-28.2 0-12.15 5.72-21.6 16.23-27.85l.6 1.05c-9.14 7.82-11.18 13.93-11.18 26.6 0 12.24 1.97 19.66 11.17 27.35M1415.8 453.44h-18.15v-.98c4.87-.27 6.25-1.65 6.25-5.26v-29.5c0-2.24-.6-3.23-1.98-3.23-.65 0-1.77.33-2.95.8l-1.78.65V415l11.76-5.98.6.2v39.23c0 2.82 1.3 4 6.23 4v1M1434.65 450.62c0 1.9-1.7 3.54-3.68 3.54-2.04 0-3.6-1.57-3.6-3.6 0-2.05 1.63-3.7 3.67-3.7 1.9 0 3.6 1.78 3.6 3.76M1468.04 408.7l-2.37 5.57c-.2.46-.72.86-1.77.86h-12.75l-2.63 5.58c9.4 1.8 12.68 3.23 16.43 8.43 1.7 2.36 2.3 4.86 2.3 8.34 0 6.3-1.97 10.4-6.44 13.67-3.08 2.24-6.7 3.22-11.17 3.22-4.92 0-8.34-1.58-8.34-4.07 0-1.66 1.1-2.5 2.95-2.5 1.5 0 2.76.32 4.86 2.03 1.85 1.5 3.36 2.1 4.67 2.1 4.6 0 8.88-5.45 8.88-11.1 0-4.2-1.45-7.5-4.4-9.86-3.1-2.5-7.7-4.6-14-4.6-.6 0-.8-.14-.8-.53 0-.13.07-.33.07-.33l7.17-15.56h13.6c1.5 0 2.1-.33 3.14-1.7M1526 452l-3.02 3.08-15.2-15.1-15.17 15.1-3-3.02 15.1-15.18-15.1-15.18 3.08-3.02 15.1 15.1 15.2-15.1 3.02 2.95-15.12 15.25M1574.76 431.75c0 11.3-4.14 22.6-14.85 22.6-11.23 0-14.84-12.2-14.84-23 0-11.62 4.53-22.33 15.1-22.33 8.62 0 14.6 9.26 14.6 22.73m-6.3.33c0-13.67-2.9-21.35-8.68-21.35-5.46 0-8.42 7.75-8.42 21.1 0 13.33 2.9 20.82 8.55 20.82 5.6 0 8.55-7.55 8.55-20.57M1588.23 450.62c0 1.9-1.7 3.54-3.68 3.54-2.04 0-3.6-1.57-3.6-3.6 0-2.05 1.63-3.7 3.67-3.7 1.9 0 3.6 1.78 3.6 3.76M1622.08 443.26c0 6.76-5.06 11.1-12.95 11.1-7.43 0-12.62-4.53-12.62-10.7 0-4.55 1.52-7.1 8.56-12.04-6.77-5.58-8.15-8.08-8.15-12.35 0-6.3 5.46-10.25 12.76-10.25 6.5 0 11.04 4.27 11.04 9.4 0 4.92-2.3 7.16-8.8 10.64 8.07 5.4 10.18 8.94 10.18 14.2m-5.92-24.85c0-4.52-2.7-7.54-7.16-7.54-4.4 0-7.23 2.43-7.23 6.5 0 4.08 2.43 7.1 8.2 10.52 4.48-2.63 6.2-5.4 6.2-9.47m-5.53 17.17l-3.88-2.63c-3.87 3.15-5.25 5.85-5.25 10.12 0 6.04 3.36 9.46 8.35 9.46 4.27 0 7.23-2.96 7.23-7.23 0-4.08-1.97-6.7-6.44-9.73M1627.6 410.07l.8-1.05c10.04 6.04 16.02 17.02 16.02 28.2 0 12.15-5.78 21.48-16.23 27.85l-.6-1.05c9.33-7.7 11.17-13.86 11.17-26.6 0-12.3-1.64-19.86-11.17-27.35M1689.44 438.98h-17.16v17.16h-4.33v-17.16h-17.15v-4.33h17.15V417.5h4.33v17.15h17.16v4.33M1704.55 450.62c0 1.9-1.7 3.54-3.68 3.54-2.04 0-3.6-1.57-3.6-3.6 0-2.05 1.63-3.7 3.67-3.7 1.9 0 3.6 1.78 3.6 3.76M1731.96 450.62c0 1.9-1.7 3.54-3.68 3.54-2.04 0-3.62-1.57-3.62-3.6 0-2.05 1.64-3.7 3.68-3.7 1.9 0 3.62 1.78 3.62 3.76M1759.43 450.62c0 1.9-1.7 3.54-3.68 3.54-2.04 0-3.62-1.57-3.62-3.6 0-2.05 1.64-3.7 3.68-3.7 1.92 0 3.63 1.78 3.63 3.76M1816.8 432.4h-38.7v-4.33h38.7v4.34m0 13.16h-38.7v-4.34h38.7v4.34M1867.73 411l-13.93 42.97h-4.28l13.02-39.17h-14.13c-3.8 0-4.92.92-7.68 5.4l-1.2-.6 3.96-9.66h24.25V411M1882.97 450.62c0 1.9-1.7 3.54-3.68 3.54-2.04 0-3.62-1.57-3.62-3.6 0-2.05 1.64-3.7 3.68-3.7 1.9 0 3.6 1.78 3.6 3.76M1918.72 444.44l-3.54 9h-25.7v-.8l11.7-12.4c6.17-6.5 8.54-11.5 8.54-17.1 0-5.97-3.55-9.26-9.13-9.26-4.75 0-7.05 2.1-9.67 8.54l-1.38-.33c1.38-7.7 5.58-13.08 13.66-13.08 7.44 0 12.17 5.06 12.17 11.56 0 5.2-2.56 10.12-8.4 16.3l-10.85 11.57h15.37c2.76 0 4.14-.73 6.3-4.4"/><path d="M520 480h1449.2v69.98H520z" fill="#fff" fill-opacity="0"/><path d="M563.9 520.95l-4 12.5h-37.4l.26-1.06h1.12c4.93 0 6.5-1.85 7.03-4.08l7.76-31.35c.27-1.05.46-2.37.46-2.96 0-1.24-.92-2.42-5-2.42h-1.17l.26-1.05h21.5l-.26 1.05h-1.2c-4.92 0-6.3 1.7-6.9 4.14l-8 31.6c-.27 1-.33 1.92-.33 2.05 0 1.44 1.85 1.57 2.64 1.57h8c6.72 0 10.07-1.44 13.1-7.55.45-.74.78-1.53 1.1-2.45h1.06M587.16 523.4l-4.14 16.18c-.04.2-.04.28-.04.42 0 .37.18.65.65.65.97 0 1.85-1.2 2.64-2.14l.24-.27.6.52c-1.06 1.53-3.43 4.97-6.12 4.97-1.35 0-1.86-.9-1.86-2.42 0-.42.05-1.16.18-1.72l1.2-4.4h-.03c-.33.22-4.5 5.84-6.37 7.24-1.07.8-2.28 1.3-3.34 1.3-2.2 0-2.84-1.68-2.84-3.44 0-.98.14-1.86.37-2.74l2.73-10.74c.2-.7.28-.97.28-1.16 0-.55-.5-1.07-1.52-1.07-.33 0-.88.05-1.2.14l-.15-.68 7.3-1.2-3.9 15.14c-.1.4-.14.74-.14 1.1 0 1 .36 1.6 1.2 1.6 1.15 0 3-1.45 4.64-3.6 2-2.64 4.13-6.77 5.06-10.16l.98-3.5h3.58M592.17 542l-1.58-.56c1.2-5.7 4.12-18.5 4.96-21.2.74-2.36 2.14-3.2 3.53-3.2 1.66 0 3.15 1.03 3.15 3.3 0 .52-.23 1.63-.47 2.2-.97 2.64-6.78 14.2-9.6 19.46M671.08 512.4h-38.7v-4.33h38.7v4.34m0 13.16h-38.7v-4.34h38.7v4.34M712.5 544.02l-.8 1.05c-10.4-5.9-16.04-17.02-16.04-28.2 0-12.15 5.72-21.6 16.23-27.85l.6 1.05c-9.15 7.82-11.2 13.93-11.2 26.6 0 12.24 2 19.66 11.2 27.35M745.74 511.75c0 11.3-4.14 22.6-14.85 22.6-11.25 0-14.87-12.2-14.87-23 0-11.62 4.54-22.33 15.12-22.33 8.6 0 14.6 9.26 14.6 22.73m-6.32.33c0-13.67-2.9-21.35-8.68-21.35-5.45 0-8.4 7.75-8.4 21.1 0 13.33 2.88 20.82 8.54 20.82 5.57 0 8.53-7.55 8.53-20.57M759.2 530.62c0 1.9-1.7 3.54-3.67 3.54-2.04 0-3.6-1.57-3.6-3.6 0-2.05 1.63-3.7 3.67-3.7 1.9 0 3.6 1.78 3.6 3.76M767.82 499.93l-1.05-.27c1.9-6.24 6.04-10.64 12.88-10.64 6.1 0 10.25 3.6 10.25 9 0 3.15-1.7 6.44-6.1 9.07 2.88 1.24 4.06 2.03 5.44 3.47 1.84 2.04 2.9 5.06 2.9 8.48 0 3.48-1.12 6.7-3.03 9.2-3.14 4.2-9.4 6.1-15.23 6.1-4.8 0-7.36-1.37-7.36-3.73 0-1.38 1.2-2.37 2.7-2.37 1.12 0 2.17.4 4 1.7 2.44 1.72 3.82 2.05 5.66 2.05 4.86 0 8.54-4.47 8.54-10.06 0-5-2.3-8.2-6.83-9.53-1.45-.45-2.96-.65-6.7-.65v-.92c2.5-.85 4.2-1.57 5.52-2.36 3.2-1.84 5.3-4.8 5.3-8.8 0-4.48-2.75-6.7-7.1-6.7-4.06 0-7.1 2.1-9.78 6.96M850.56 532l-3.03 3.08-15.18-15.1-15.18 15.1-3.02-3.02 15.1-15.18-15.1-15.18 3.1-3.02 15.1 15.1 15.18-15.1 3.03 2.95-15.12 15.25M899.25 511.75c0 11.3-4.14 22.6-14.85 22.6-11.24 0-14.85-12.2-14.85-23 0-11.62 4.53-22.33 15.1-22.33 8.62 0 14.6 9.26 14.6 22.73m-6.3.33c0-13.67-2.9-21.35-8.68-21.35-5.45 0-8.4 7.75-8.4 21.1 0 13.33 2.88 20.82 8.53 20.82 5.6 0 8.54-7.55 8.54-20.57M902.8 490.07l.8-1.05c10.05 6.04 16.03 17.02 16.03 28.2 0 12.15-5.8 21.48-16.24 27.85l-.6-1.05c9.33-7.7 11.17-13.86 11.17-26.6 0-12.3-1.64-19.86-11.17-27.35M979.23 518.98h-17.15v17.16h-4.34v-17.16H940.6v-4.33h17.14V497.5h4.34v17.15h17.15v4.33M1017.02 544.02l-.8 1.05c-10.37-5.9-16.02-17.02-16.02-28.2 0-12.15 5.7-21.6 16.23-27.85l.6 1.05c-9.15 7.82-11.18 13.93-11.18 26.6 0 12.24 1.97 19.66 11.17 27.35M1050.27 511.75c0 11.3-4.14 22.6-14.85 22.6-11.24 0-14.85-12.2-14.85-23 0-11.62 4.53-22.33 15.1-22.33 8.62 0 14.6 9.26 14.6 22.73m-6.3.33c0-13.67-2.9-21.35-8.68-21.35-5.47 0-8.42 7.75-8.42 21.1 0 13.33 2.9 20.82 8.54 20.82 5.6 0 8.54-7.55 8.54-20.57M1063.74 530.62c0 1.9-1.7 3.54-3.68 3.54-2.03 0-3.6-1.57-3.6-3.6 0-2.05 1.63-3.7 3.67-3.7 1.9 0 3.6 1.78 3.6 3.76M1099.63 511.75c0 11.3-4.14 22.6-14.86 22.6-11.23 0-14.85-12.2-14.85-23 0-11.62 4.54-22.33 15.12-22.33 8.6 0 14.6 9.26 14.6 22.73m-6.32.33c0-13.67-2.9-21.35-8.68-21.35-5.45 0-8.4 7.75-8.4 21.1 0 13.33 2.88 20.82 8.53 20.82 5.6 0 8.55-7.55 8.55-20.57M1127.1 533.44h-18.14v-.98c4.86-.27 6.24-1.65 6.24-5.26v-29.5c0-2.24-.6-3.23-1.97-3.23-.66 0-1.78.33-2.96.8l-1.77.65V495l11.76-5.98.6.2v39.23c0 2.82 1.3 4 6.24 4v1M1187.95 532l-3.02 3.08-15.18-15.1-15.2 15.1-3-3.02 15.1-15.18-15.1-15.18 3.08-3.02 15.12 15.1 15.18-15.1 3.02 2.95-15.12 15.25M1209.44 499.93l-1.05-.27c1.9-6.24 6.03-10.64 12.87-10.64 6.1 0 10.25 3.6 10.25 9 0 3.15-1.7 6.44-6.1 9.07 2.88 1.24 4.06 2.03 5.44 3.47 1.84 2.04 2.9 5.06 2.9 8.48 0 3.48-1.12 6.7-3.03 9.2-3.15 4.2-9.4 6.1-15.25 6.1-4.8 0-7.36-1.37-7.36-3.73 0-1.38 1.2-2.37 2.7-2.37 1.12 0 2.17.4 4 1.7 2.44 1.72 3.82 2.05 5.66 2.05 4.86 0 8.54-4.47 8.54-10.06 0-5-2.3-8.2-6.83-9.53-1.46-.45-2.97-.65-6.72-.65v-.92c2.5-.85 4.2-1.57 5.52-2.36 3.22-1.84 5.33-4.8 5.33-8.8 0-4.48-2.76-6.7-7.1-6.7-4.07 0-7.1 2.1-9.8 6.96M1250.18 530.62c0 1.9-1.7 3.54-3.68 3.54-2.03 0-3.6-1.57-3.6-3.6 0-2.05 1.63-3.7 3.67-3.7 1.9 0 3.6 1.78 3.6 3.76M1283.57 488.7l-2.37 5.57c-.2.46-.72.86-1.77.86h-12.75l-2.63 5.58c9.4 1.8 12.68 3.23 16.43 8.43 1.7 2.36 2.3 4.86 2.3 8.34 0 6.3-1.97 10.4-6.44 13.67-3.1 2.24-6.7 3.22-11.17 3.22-4.93 0-8.35-1.58-8.35-4.07 0-1.66 1.12-2.5 2.96-2.5 1.5 0 2.76.32 4.86 2.03 1.84 1.5 3.35 2.1 4.67 2.1 4.6 0 8.88-5.45 8.88-11.1 0-4.2-1.45-7.5-4.4-9.86-3.1-2.5-7.7-4.6-14-4.6-.6 0-.8-.14-.8-.53 0-.13.08-.33.08-.33l7.16-15.56h13.6c1.5 0 2.1-.33 3.16-1.7M1289.55 490.07l.8-1.05c10.04 6.04 16.02 17.02 16.02 28.2 0 12.15-5.78 21.48-16.23 27.85l-.6-1.05c9.34-7.7 11.18-13.86 11.18-26.6 0-12.3-1.64-19.86-11.17-27.35M1365.98 518.98h-17.16v17.16h-4.33v-17.16h-17.16v-4.33h17.15V497.5h4.32v17.15h17.16v4.33M1403.83 544.02l-.8 1.05c-10.37-5.9-16.02-17.02-16.02-28.2 0-12.15 5.72-21.6 16.24-27.85l.6 1.05c-9.14 7.82-11.18 13.93-11.18 26.6 0 12.24 1.97 19.66 11.17 27.35M1431.63 533.44h-18.14v-.98c4.85-.27 6.23-1.65 6.23-5.26v-29.5c0-2.24-.6-3.23-1.97-3.23-.66 0-1.77.33-2.96.8l-1.77.65V495l11.76-5.98.6.2v39.23c0 2.82 1.3 4 6.23 4v1M1450.5 530.62c0 1.9-1.72 3.54-3.7 3.54-2.03 0-3.6-1.57-3.6-3.6 0-2.05 1.64-3.7 3.67-3.7 1.9 0 3.62 1.78 3.62 3.76M1483.87 488.7l-2.36 5.57c-.2.46-.72.86-1.77.86h-12.75l-2.62 5.58c9.4 1.8 12.68 3.23 16.42 8.43 1.7 2.36 2.3 4.86 2.3 8.34 0 6.3-1.97 10.4-6.44 13.67-3.08 2.24-6.7 3.22-11.17 3.22-4.93 0-8.34-1.58-8.34-4.07 0-1.66 1.1-2.5 2.95-2.5 1.52 0 2.76.32 4.87 2.03 1.84 1.5 3.35 2.1 4.66 2.1 4.6 0 8.88-5.45 8.88-11.1 0-4.2-1.44-7.5-4.4-9.86-3.1-2.5-7.7-4.6-14-4.6-.6 0-.78-.14-.78-.53 0-.13.06-.33.06-.33l7.16-15.56h13.6c1.52 0 2.1-.33 3.16-1.7M1541.84 532l-3.03 3.08-15.17-15.1-15.18 15.1-3.02-3.02 15.1-15.18-15.1-15.18 3.1-3.02 15.1 15.1 15.18-15.1 3.04 2.95-15.12 15.25M1590.6 511.75c0 11.3-4.14 22.6-14.85 22.6-11.24 0-14.86-12.2-14.86-23 0-11.62 4.53-22.33 15.1-22.33 8.62 0 14.6 9.26 14.6 22.73m-6.3.33c0-13.67-2.9-21.35-8.7-21.35-5.44 0-8.4 7.75-8.4 21.1 0 13.33 2.9 20.82 8.55 20.82 5.58 0 8.54-7.55 8.54-20.57M1604.07 530.62c0 1.9-1.7 3.54-3.68 3.54-2.05 0-3.62-1.57-3.62-3.6 0-2.05 1.64-3.7 3.68-3.7 1.9 0 3.6 1.78 3.6 3.76M1639.95 511.75c0 11.3-4.14 22.6-14.85 22.6-11.24 0-14.85-12.2-14.85-23 0-11.62 4.53-22.33 15.1-22.33 8.62 0 14.6 9.26 14.6 22.73m-6.3.33c0-13.67-2.9-21.35-8.68-21.35-5.46 0-8.4 7.75-8.4 21.1 0 13.33 2.88 20.82 8.53 20.82 5.6 0 8.54-7.55 8.54-20.57M1667.42 533.44h-18.14v-.98c4.87-.27 6.25-1.65 6.25-5.26v-29.5c0-2.24-.6-3.23-1.97-3.23-.66 0-1.78.33-2.96.8l-1.78.65V495l11.77-5.98.58.2v39.23c0 2.82 1.3 4 6.24 4v1M1676.36 490.07l.8-1.05c10.04 6.04 16.02 17.02 16.02 28.2 0 12.15-5.78 21.48-16.23 27.85l-.6-1.05c9.34-7.7 11.18-13.86 11.18-26.6 0-12.3-1.64-19.86-11.17-27.35M1738.13 518.98h-17.15v17.16h-4.34v-17.16h-17.15v-4.33h17.14V497.5h4.34v17.15h17.15v4.33M1753.3 530.62c0 1.9-1.7 3.54-3.67 3.54-2.03 0-3.6-1.57-3.6-3.6 0-2.05 1.63-3.7 3.67-3.7 1.9 0 3.6 1.78 3.6 3.76M1780.72 530.62c0 1.9-1.7 3.54-3.68 3.54-2.04 0-3.62-1.57-3.62-3.6 0-2.05 1.65-3.7 3.68-3.7 1.9 0 3.62 1.78 3.62 3.76M1808.12 530.62c0 1.9-1.7 3.54-3.68 3.54-2.04 0-3.6-1.57-3.6-3.6 0-2.05 1.63-3.7 3.67-3.7 1.9 0 3.62 1.78 3.62 3.76M1865.5 512.4h-38.7v-4.33h38.7v4.34m0 13.16h-38.7v-4.34h38.7v4.34M1918.2 511.75c0 11.3-4.14 22.6-14.85 22.6-11.24 0-14.86-12.2-14.86-23 0-11.62 4.53-22.33 15.1-22.33 8.62 0 14.6 9.26 14.6 22.73m-6.3.33c0-13.67-2.9-21.35-8.7-21.35-5.44 0-8.4 7.75-8.4 21.1 0 13.33 2.9 20.82 8.55 20.82 5.58 0 8.54-7.55 8.54-20.57M1931.67 530.62c0 1.9-1.7 3.54-3.68 3.54-2.05 0-3.62-1.57-3.62-3.6 0-2.05 1.64-3.7 3.68-3.7 1.9 0 3.6 1.78 3.6 3.76M1965.5 523.26c0 6.76-5.05 11.1-12.93 11.1-7.43 0-12.62-4.53-12.62-10.7 0-4.55 1.5-7.1 8.54-12.04-6.78-5.58-8.16-8.08-8.16-12.35 0-6.3 5.46-10.25 12.75-10.25 6.5 0 11.03 4.27 11.03 9.4 0 4.92-2.3 7.16-8.8 10.64 8.08 5.4 10.18 8.94 10.18 14.2m-5.9-24.85c0-4.52-2.7-7.54-7.16-7.54-4.4 0-7.23 2.43-7.23 6.5 0 4.08 2.44 7.1 8.22 10.52 4.47-2.63 6.18-5.4 6.18-9.47m-5.52 17.17l-3.88-2.63c-3.87 3.15-5.26 5.85-5.26 10.12 0 6.04 3.36 9.46 8.35 9.46 4.26 0 7.22-2.96 7.22-7.23 0-4.08-1.97-6.7-6.44-9.73"/><defs><path d="M100-194c63 0 86 42 84 106H49c0 40 14 67 53 68 26 1 43-12 49-29l28 8c-11 28-37 45-77 45C44 4 14-33 15-96c1-61 26-98 85-98zm52 81c6-60-76-77-97-28-3 7-6 17-6 28h103" id="b"/><path d="M135-143c-3-34-86-38-87 0 15 53 115 12 119 90S17 21 10-45l28-5c4 36 97 45 98 0-10-56-113-15-118-90-4-57 82-63 122-42 12 7 21 19 24 35" id="c"/><path d="M59-47c-2 24 18 29 38 22v24C64 9 27 4 27-40v-127H5v-23h24l9-43h21v43h35v23H59v120" id="d"/><path d="M24-231v-30h32v30H24zM24 0v-190h32V0H24" id="e"/><path d="M210-169c-67 3-38 105-44 169h-31v-121c0-29-5-50-35-48C34-165 62-65 56 0H25l-1-190h30c1 10-1 24 2 32 10-44 99-50 107 0 11-21 27-35 58-36 85-2 47 119 55 194h-31v-121c0-29-5-49-35-48" id="f"/><path d="M141-36C126-15 110 5 73 4 37 3 15-17 15-53c-1-64 63-63 125-63 3-35-9-54-41-54-24 1-41 7-42 31l-33-3c5-37 33-52 76-52 45 0 72 20 72 64v82c-1 20 7 32 28 27v20c-31 9-61-2-59-35zM48-53c0 20 12 33 32 33 41-3 63-29 60-74-43 2-92-5-92 41" id="g"/><g id="a"><use transform="matrix(0.06234567901234567,0,0,0.06234567901234567,0,0)" xlink:href="#b"/><use transform="matrix(0.06234567901234567,0,0,0.06234567901234567,12.469135802469133,0)" xlink:href="#c"/><use transform="matrix(0.06234567901234567,0,0,0.06234567901234567,23.691358024691354,0)" xlink:href="#d"/><use transform="matrix(0.06234567901234567,0,0,0.06234567901234567,29.92592592592592,0)" xlink:href="#e"/><use transform="matrix(0.06234567901234567,0,0,0.06234567901234567,34.85123456790123,0)" xlink:href="#f"/><use transform="matrix(0.06234567901234567,0,0,0.06234567901234567,53.49259259259259,0)" xlink:href="#g"/><use transform="matrix(0.06234567901234567,0,0,0.06234567901234567,65.96172839506173,0)" xlink:href="#d"/><use transform="matrix(0.06234567901234567,0,0,0.06234567901234567,72.1962962962963,0)" xlink:href="#b"/></g></defs></g></svg>