<svg xmlns="http://www.w3.org/2000/svg" xmlns:xlink="http://www.w3.org/1999/xlink" xmlns:lucid="lucid" width="397.11" height="258.68"><g transform="translate(-220 -140)" lucid:page-tab-id="yPux6-BhAdDI"><path d="M240 280h357.1v98.68H240z" fill="#fff" fill-opacity="0"/><path d="M247.9 331.3h341.26v-3.96H247.9zM274.83 298.27H270l-.93 6.23h4.6v2.55h-5.02l-1.44 10.04h-2.7l1.45-10.05h-6.22l-1.54 10.04h-2.7l1.53-10.05h-4.92v-2.55h5.35l.98-6.23h-5.07v-2.55h5.44l1.44-9.4h2.7l-1.45 9.4h6.17l1.4-9.4h2.7l-1.4 9.4h4.46v2.55m-7.53 0h-6.18l-.97 6.23h6.22M304.42 286.05l-6.87 27.46s-.05.2-.05.52c0 .33.2.6.56.6 1.07 0 2.46-1.8 2.88-2.55l.74.56c-1.58 1.86-3.57 4.93-6.27 4.93-1.38 0-1.8-1.2-1.8-2.37 0-.57.14-1.22.28-1.7l5.94-23.68c.14-.6.14-.98.14-1.12 0-.56-.37-1.02-1.44-1.02-.32 0-.88.1-1.25.14l-.14-.7M318.22 290.8c0 1.2-1.02 2.13-2.23 2.13-1.35 0-2.24-.93-2.24-2.14 0-1.17.9-2.33 2.23-2.33 1.2 0 2.22 1.16 2.22 2.32m-1.4 5.8l-4.27 16.9c-.04.3-.04.48-.04.66 0 .33.3.47.6.47 1.03 0 1.3-.56 3-2.37l.6.46c-1.64 2.1-3.96 4.88-6.24 4.88-1.3 0-1.85-.88-1.85-2.14 0-.55 0-1.44 3.68-15.7.04-.1.1-.42.1-.56 0-.8-.38-1.02-1.45-1.02-.42 0-.98.1-1.3.2l-.14-.76M345.26 297.2l-.18.56c-3.1.33-4.42 1.16-6.18 2.7l-4.93 4.27 2.98 7.06c.7 1.62 1.25 2.74 2.46 2.74 1.4 0 2.43-2 3.45-3.4l.7.5c-.56 1-2.75 5.96-5.9 5.96-2.14 0-3.12-2.46-3.63-3.67l-2.93-6.83-2.6 2.28-2.1 7.7h-3.53l6.88-27.36c.1-.27.14-.6.14-.92 0-.52-.48-1.03-1.5-1.03-.42 0-.88 0-1.26.1l-.14-.65 7.35-1.17-5.25 21.2 7.75-6.93c.52-.47.98-1.07.98-1.67 0-.56-.74-.9-1.2-.9h-.57l.2-.54h9M362.83 311.9l.65.6c-3.26 4-6.4 5.1-9.3 5.1-4.55 0-6.36-3.9-6.36-7.25 0-1.06.05-1.72.28-2.78 1.16-5.16 6.27-10.97 12.17-10.97 1.95 0 4.74.65 4.74 3.53 0 5.9-7.75 8.18-13.28 8.46v1.3c0 2.96 2.42 4.96 5.25 4.96 1.95 0 4.18-.84 5.86-2.97m-11.1-4.6h.4c4.84 0 9.2-3.22 9.2-7.3 0-1.17-.87-2-2.03-2-3.44 0-6.23 5.34-7.58 9.3M391.17 286.05l-6.92 27.8c-.05.13-.1.4-.1.55 0 .27.24.4.7.4.93 0 2.23-1.6 2.88-2.6l.5.57c-1.38 2.1-3.84 4.88-6.03 4.88-1.5 0-1.86-1.07-1.86-1.9 0-.94.1-1.6.47-2.98h-.22c-3.44 4.32-6.23 4.88-7.95 4.88-3.4 0-4.1-3.44-4.1-5.9 0-4.8 4.8-15.15 11.95-15.15 2.65 0 3.72 1.2 3.77 2.32h.1l2.45-9.7c.05-.2.1-.38.1-.56 0-.6-.33-.93-1.54-.93-.42 0-.93.1-1.25.14l-.18-.7m-.37 14.12c0-2.2-.7-3.3-2.6-3.3-4.6 0-8.37 9.3-8.37 13.75 0 2.27 1.3 3.06 2.6 3.06 3.26 0 6.32-4.35 7.63-8.63.52-1.62.75-3.44.75-4.88M442 311.93l.7.5c-1.35 3.4-3.9 5.26-7.02 5.26-2.7 0-4.97-1.2-7.9-4.23-3.48 3.06-6.27 4.22-10.04 4.22-4.97 0-7.94-2.33-7.94-6.97 0-3.77 2.56-7.4 7.3-10.13l1.76-1.03c-1.3-3.15-1.63-4.83-1.63-6.92 0-4.18 3.12-6.97 7.07-6.97 3.67 0 6.36 2.1 6.36 5.76 0 3.35-1.76 5.5-7.2 7.8 1.9 4.1 3.53 6.65 6.13 9.58 3-4 4.27-6.23 4.27-8.36 0-1.4-.7-1.95-3.02-2.2v-.96h10.03v.97c-2.32 0-3.2.9-4.36 2.74-2.14 3.4-3.3 5.68-5.86 9.12 2.2 2.84 4.23 4.28 7.06 4.28 1.82 0 2.8-.6 4.28-2.47m-13.8-20.67c0-2.28-1.5-4.1-3.63-4.1-2.18 0-3.67 1.54-3.67 3.87 0 2.37.33 3.9 1.86 6.73 4-1.8 5.44-3.76 5.44-6.5zm-1.58 21c-2.7-3.16-4.55-5.86-7.06-11.1-4.05 2.6-5.5 4.64-5.5 7.85 0 3.96 2.48 6.23 5.78 6.23 2 0 4-.8 6.78-2.97M478.56 296.6l-1.1 6.78h-.7c0-2.97-1.68-5.57-4.28-5.57-1.16 0-2.37.8-2.37 2.7 0 2.56 6.23 6.83 6.23 11.25 0 2.88-2.23 5.8-6.27 5.8-1.58 0-4.55-.92-5.1-.92-.43 0-.85.18-1.4.97h-.8l1.17-7.25h.74c0 2.93 1.9 6.04 4.83 6.04 2.74 0 3.4-2.33 3.4-4.14 0-3.8-6.04-6.13-6.04-10.7 0-3.66 2.74-4.96 5.3-4.96 2 0 2.92.93 4.27.93.5 0 1.02-.46 1.4-.93h.73M502.68 312.17l.65.5c-1.35 1.6-3.63 4.93-6.18 4.93-.84 0-1.9-.46-1.9-1.95 0-.56.04-1.2 2.97-12.4.1-.33.32-1.35.32-2.05 0-.88-.32-1.63-1.1-1.63-1.7 0-4.75 3.95-6.24 6.18-1.58 2.37-2.88 4.74-3.1 5.67l-1.5 5.67h-3.62l7.06-27.9c.05-.17.1-.3.1-.45 0-.6-.47-1.02-1.45-1.02-.47 0-.98.04-1.35.1l-.1-.66 7.4-1.12-5.07 19.33h.18c2.46-2.7 5.8-8.78 10.04-8.78 1.95 0 2.65 1.58 2.65 3.25 0 1.03-.28 2-.52 2.98l-2.7 10.68c-.04.25-.08.34-.08.48 0 .28.14.65.6.65 1.02 0 2.28-1.63 2.93-2.46M525.12 303.76c0 6.45-5.1 13.84-12.22 13.84-4.7 0-6.27-4.18-6.27-7.57 0-5.95 4.78-13.43 11.66-13.43 3.7 0 6.82 2.14 6.82 7.16m-3.76-1.44c0-1.77-.66-4.33-3.12-4.33-3.8 0-7.85 6.92-7.85 13.24 0 1.53.13 4.97 2.73 4.97 4.93 0 8.23-10.35 8.23-13.88M550.72 296.18L547 309.6c-.28 1.08-.56 2.15-.56 3.26 0 1.8.9 2.84 2.75 2.84 5 0 7.6-5.35 9.05-9.43.37-1.12.7-2.28.7-3.44 0-3.44-2.75-3.07-2.84-5.07-.08-1.67 1.4-1.95 2.52-1.95 1.95 0 2.18 2.38 2.18 3.87 0 6.78-4.88 17.84-12.82 17.84-3.2 0-5.16-1.3-5.16-4.64 0-1.95.56-3.95 1.07-5.8-1.87 4.13-5.68 10.45-10.88 10.45-2.6 0-3.63-1.57-3.63-4.03 0-1.54.5-2.98.88-4.42l2.18-8.22c.14-.42.23-.88.23-1.35 0-1.1-1.77-1.02-2.52-1.02v-.7c2.47-.42 4.88-1.07 7.2-2.04l.2.14-3.77 14.26c-.13.6-.5 2.1-.5 3.4 0 1.2.27 2.18 1.3 2.18 2.7-.05 6-5.3 7.1-7.02 2.47-3.76 3.68-7.4 5.12-12.5h3.9M583.8 312.63l-.23.28c-1.3 1.6-3.53 4.56-5.95 4.56-1.5 0-1.9-1.07-1.9-2.13 0-.6.18-1.35.32-1.86l2.65-10.27c.08-.37.3-1.3.3-1.95 0-.9-.26-1.77-1.1-1.77-1.77 0-4.7 4-6.13 6.18-1.68 2.5-2.88 4.7-3.16 5.67l-1.53 5.76h-3.57l4.4-17.4c0-.82-.13-1.47-1.38-1.47-.47 0-.98.1-1.3.14l-.1-.7 7.4-1.07-2.38 8.78h.14c.23 0 2.5-3.25 2.6-3.4 1.86-2.3 4.65-5.38 7.44-5.38 2.04 0 2.6 1.35 2.6 2.88 0 1.16-.28 2.32-.5 3.25l-2.75 10.74c-.05.1-.05.23-.05.46.05.28.18.65.7.65 1.1 0 2.23-1.67 2.88-2.46M371.7 353.28h-4.84l-.93 6.22h4.6v2.56h-5l-1.45 10.04h-2.7l1.44-10.04h-6.23l-1.54 10.04h-2.7l1.54-10.04h-4.93v-2.56h5.35l.97-6.22h-5.07v-2.56h5.44l1.44-9.38h2.7l-1.44 9.38h6.18l1.4-9.38h2.7l-1.4 9.38h4.45v2.56m-7.53 0H358l-1 6.22h6.24M401.3 341.06l-6.9 27.46s-.03.18-.03.5c0 .33.18.6.56.6 1.06 0 2.46-1.8 2.88-2.54l.75.56c-1.58 1.85-3.58 4.92-6.27 4.92-1.4 0-1.8-1.2-1.8-2.37 0-.57.12-1.22.26-1.68l5.95-23.7c.13-.6.13-.97.13-1.1 0-.57-.37-1.03-1.44-1.03-.33 0-.9.08-1.26.12l-.14-.7M415.1 345.8c0 1.2-1.03 2.14-2.24 2.14-1.35 0-2.23-.93-2.23-2.14 0-1.16.88-2.32 2.23-2.32 1.2 0 2.23 1.16 2.23 2.32m-1.4 5.8l-4.28 16.92c-.04.28-.04.46-.04.65 0 .32.27.46.6.46 1.02 0 1.3-.55 2.97-2.37l.6.47c-1.62 2.1-3.94 4.88-6.22 4.88-1.3 0-1.86-.88-1.86-2.13 0-.56 0-1.44 3.67-15.7.05-.1.1-.42.1-.56 0-.78-.38-1-1.44-1-.42 0-.98.08-1.3.17l-.14-.74M442.13 352.2l-.18.57c-3.12.32-4.42 1.16-6.18 2.7l-4.93 4.27 2.97 7.06c.7 1.63 1.27 2.74 2.48 2.74 1.4 0 2.4-2 3.44-3.4l.7.52c-.57.98-2.75 5.95-5.9 5.95-2.15 0-3.12-2.46-3.63-3.66l-2.94-6.83-2.6 2.28-2.1 7.72h-3.52l6.87-27.37c.1-.28.15-.6.15-.93 0-.5-.46-1.02-1.48-1.02-.42 0-.9 0-1.26.1l-.13-.66 7.34-1.16-5.24 21.2 7.76-6.94c.5-.46.98-1.07.98-1.67 0-.56-.75-.88-1.2-.88h-.57l.2-.56h9M459.7 366.9l.64.6c-3.25 4-6.4 5.1-9.3 5.1-4.54 0-6.35-3.9-6.35-7.24 0-1.07.03-1.72.27-2.8 1.16-5.15 6.27-10.95 12.17-10.95 1.95 0 4.74.66 4.74 3.54 0 5.9-7.76 8.17-13.3 8.45v1.3c0 2.97 2.43 4.97 5.26 4.97 1.95 0 4.18-.84 5.85-2.98m-11.1-4.6h.4c4.84 0 9.2-3.2 9.2-7.3 0-1.16-.88-2-2.04-2-3.44 0-6.22 5.34-7.57 9.3M488.04 341.06l-6.93 27.78c-.03.14-.08.42-.08.56 0 .28.23.42.7.42.93 0 2.23-1.63 2.88-2.6l.5.56c-1.4 2.1-3.85 4.87-6.03 4.87-1.5 0-1.86-1.07-1.86-1.9 0-.93.1-1.58.47-2.97h-.23c-3.44 4.32-6.22 4.87-7.94 4.87-3.4 0-4.1-3.43-4.1-5.9 0-4.78 4.8-15.14 11.95-15.14 2.65 0 3.72 1.2 3.76 2.33h.1l2.47-9.7c.04-.2.1-.38.1-.57 0-.6-.33-.93-1.54-.93-.42 0-.93.1-1.26.14l-.18-.7m-.38 14.13c0-2.18-.7-3.3-2.6-3.3-4.6 0-8.37 9.3-8.37 13.75 0 2.28 1.3 3.07 2.6 3.07 3.26 0 6.32-4.37 7.62-8.64.5-1.63.75-3.44.75-4.88"/><path d="M240 160h357.1v80H240z" stroke="#000" stroke-width="2" fill="#0c7cba"/><use xlink:href="#a" transform="matrix(1,0,0,1,245,165) translate(108.30277777777785 44.4833333333333)"/><defs><path fill="#fff" d="M240-174c0 40-23 61-54 70L253 0h-59l-57-94H76V0H24v-248c93 4 217-23 216 74zM76-134c48-2 112 12 112-38 0-48-66-32-112-35v73" id="b"/><path fill="#fff" d="M185-48c-13 30-37 53-82 52C43 2 14-33 14-96s30-98 90-98c62 0 83 45 84 108H66c0 31 8 55 39 56 18 0 30-7 34-22zm-45-69c5-46-57-63-70-21-2 6-4 13-4 21h74" id="c"/><path fill="#fff" d="M190-63c-7 42-38 67-86 67-59 0-84-38-90-98-12-110 154-137 174-36l-49 2c-2-19-15-32-35-32-30 0-35 28-38 64-6 74 65 87 74 30" id="d"/><path fill="#fff" d="M133-34C117-15 103 5 69 4 32 3 11-16 11-54c-1-60 55-63 116-61 1-26-3-47-28-47-18 1-26 9-28 27l-52-2c7-38 36-58 82-57s74 22 75 68l1 82c-1 14 12 18 25 15v27c-30 8-71 5-69-32zm-48 3c29 0 43-24 42-57-32 0-66-3-65 30 0 17 8 27 23 27" id="e"/><path fill="#fff" d="M25 0v-261h50V0H25" id="f"/><g id="a"><use transform="matrix(0.12407407407407395,0,0,0.12407407407407395,0,0)" xlink:href="#b"/><use transform="matrix(0.12407407407407395,0,0,0.12407407407407395,32.13518518518515,0)" xlink:href="#c"/><use transform="matrix(0.12407407407407395,0,0,0.12407407407407395,56.94999999999994,0)" xlink:href="#d"/><use transform="matrix(0.12407407407407395,0,0,0.12407407407407395,81.76481481481473,0)" xlink:href="#e"/><use transform="matrix(0.12407407407407395,0,0,0.12407407407407395,106.57962962962952,0)" xlink:href="#f"/><use transform="matrix(0.12407407407407395,0,0,0.12407407407407395,118.98703703703691,0)" xlink:href="#f"/></g></defs></g></svg>