<svg xmlns="http://www.w3.org/2000/svg" xmlns:xlink="http://www.w3.org/1999/xlink" xmlns:lucid="lucid" width="624.32" height="189.98"><g transform="translate(-140 -140)" lucid:page-tab-id="XfNlrS55QhnM"><path d="M160 240h584.32v69.98H160z" fill="#fff" fill-opacity="0"/><path d="M203.9 280.95l-4 12.5h-37.4l.26-1.06h1.12c4.93 0 6.5-1.85 7.03-4.08l7.76-31.35c.27-1.05.46-2.37.46-2.96 0-1.24-.92-2.42-5-2.42h-1.17l.26-1.05h21.5l-.26 1.05h-1.2c-4.92 0-6.3 1.7-6.9 4.14l-8 31.6c-.27 1-.33 1.92-.33 2.05 0 1.44 1.85 1.57 2.64 1.57h8c6.72 0 10.07-1.44 13.1-7.55.45-.74.78-1.53 1.1-2.45h1.06M227.14 283.45L223 299.62c-.04.2-.04.28-.04.42 0 .37.18.65.65.65.98 0 1.86-1.22 2.65-2.15l.24-.28.6.5c-1.08 1.55-3.45 5-6.14 5-1.35 0-1.86-.9-1.86-2.43 0-.42.05-1.16.2-1.72l1.2-4.4h-.05c-.33.22-4.5 5.84-6.37 7.23-1.07.8-2.27 1.3-3.34 1.3-2.2 0-2.84-1.67-2.84-3.43 0-.98.14-1.86.37-2.74l2.75-10.74c.18-.7.27-.97.27-1.16 0-.56-.52-1.07-1.54-1.07-.32 0-.88.06-1.2.15l-.15-.7 7.3-1.2-3.9 15.14c-.1.4-.13.74-.13 1.1 0 1 .37 1.6 1.2 1.6 1.17 0 3.02-1.45 4.65-3.6 2-2.64 4.14-6.77 5.06-10.16l.98-3.5h3.58M295.25 272.4h-38.7v-4.33h38.7v4.34m0 13.16h-38.7v-4.34h38.7v4.34M336.38 303.7h-13.86v-53.76h13.86v1.64h-5.45c-2.23 0-3.42.8-3.42 3.15v43.77c0 2.63 1.26 3.55 3.43 3.55h5.45v1.64M369.77 284.44l-3.55 9h-25.7v-.8l11.7-12.4c6.18-6.5 8.55-11.5 8.55-17.1 0-5.97-3.55-9.26-9.14-9.26-4.73 0-7.03 2.1-9.66 8.54l-1.38-.33c1.37-7.7 5.58-13.08 13.66-13.08 7.43 0 12.16 5.06 12.16 11.56 0 5.2-2.57 10.12-8.4 16.3l-10.86 11.57h15.38c2.76 0 4.14-.73 6.3-4.4M383.37 290.62c0 1.9-1.7 3.54-3.68 3.54-2.04 0-3.62-1.57-3.62-3.6 0-2.05 1.64-3.7 3.68-3.7 1.9 0 3.6 1.78 3.6 3.76M416.76 248.7l-2.37 5.57c-.2.46-.73.86-1.78.86h-12.75l-2.63 5.58c9.4 1.8 12.68 3.23 16.43 8.43 1.7 2.36 2.3 4.86 2.3 8.34 0 6.3-1.97 10.4-6.44 13.67-3.1 2.24-6.7 3.22-11.17 3.22-4.93 0-8.35-1.58-8.35-4.07 0-1.66 1.13-2.5 2.97-2.5 1.5 0 2.76.32 4.86 2.03 1.84 1.5 3.35 2.1 4.67 2.1 4.6 0 8.87-5.45 8.87-11.1 0-4.2-1.45-7.5-4.4-9.86-3.1-2.5-7.7-4.6-14-4.6-.6 0-.8-.14-.8-.53 0-.13.07-.33.07-.33l7.17-15.56H413c1.52 0 2.1-.33 3.17-1.7M426.35 302.7l-.66-1.24c3.6-2.43 5.45-4.86 5.45-7.03 0-.46-.4-.86-.92-.86-.53 0-1.18.27-1.9.27-2.44 0-3.82-1.12-3.82-3.36 0-2.23 1.6-3.74 3.95-3.74 2.96 0 5.26 2.3 5.26 5.72 0 3.94-2.8 8.08-7.35 10.25M496 271.75c0 11.3-4.13 22.6-14.84 22.6-11.24 0-14.85-12.2-14.85-23 0-11.62 4.54-22.33 15.12-22.33 8.6 0 14.6 9.26 14.6 22.73m-6.32.33c0-13.67-2.9-21.35-8.67-21.35-5.46 0-8.4 7.75-8.4 21.1 0 13.33 2.88 20.82 8.53 20.82 5.6 0 8.54-7.55 8.54-20.57M503.04 302.7l-.65-1.24c3.6-2.43 5.44-4.86 5.44-7.03 0-.46-.4-.86-.92-.86s-1.18.27-1.9.27c-2.44 0-3.82-1.12-3.82-3.36 0-2.23 1.58-3.74 3.95-3.74 2.95 0 5.25 2.3 5.25 5.72 0 3.94-2.82 8.08-7.36 10.25M572.7 271.75c0 11.3-4.14 22.6-14.85 22.6-11.24 0-14.85-12.2-14.85-23 0-11.62 4.53-22.33 15.1-22.33 8.62 0 14.6 9.26 14.6 22.73m-6.3.33c0-13.67-2.9-21.35-8.68-21.35-5.45 0-8.4 7.75-8.4 21.1 0 13.33 2.88 20.82 8.53 20.82 5.6 0 8.54-7.55 8.54-20.57M586.18 290.62c0 1.9-1.7 3.54-3.68 3.54-2.04 0-3.62-1.57-3.62-3.6 0-2.05 1.64-3.7 3.68-3.7 1.9 0 3.62 1.78 3.62 3.76M620.02 283.26c0 6.76-5.06 11.1-12.95 11.1-7.42 0-12.6-4.53-12.6-10.7 0-4.55 1.5-7.1 8.53-12.04-6.77-5.58-8.15-8.08-8.15-12.35 0-6.3 5.45-10.25 12.75-10.25 6.5 0 11.04 4.27 11.04 9.4 0 4.92-2.3 7.16-8.8 10.64 8.08 5.4 10.18 8.94 10.18 14.2m-5.9-24.85c0-4.52-2.7-7.54-7.18-7.54-4.4 0-7.23 2.43-7.23 6.5 0 4.08 2.44 7.1 8.23 10.52 4.47-2.63 6.18-5.4 6.18-9.47m-5.5 17.17l-3.9-2.63c-3.87 3.15-5.25 5.85-5.25 10.12 0 6.04 3.35 9.46 8.35 9.46 4.27 0 7.23-2.96 7.23-7.23 0-4.08-1.98-6.7-6.44-9.73M652.02 290.62c0 1.9-1.7 3.54-3.68 3.54-2.03 0-3.6-1.57-3.6-3.6 0-2.05 1.63-3.7 3.67-3.7 1.92 0 3.62 1.78 3.62 3.76M679.43 290.62c0 1.9-1.7 3.54-3.68 3.54-2.04 0-3.62-1.57-3.62-3.6 0-2.05 1.65-3.7 3.68-3.7 1.92 0 3.63 1.78 3.63 3.76M706.83 290.62c0 1.9-1.7 3.54-3.68 3.54-2.03 0-3.6-1.57-3.6-3.6 0-2.05 1.63-3.7 3.67-3.7 1.9 0 3.6 1.78 3.6 3.76M738.44 303.7h-13.86v-1.65h5.78c2.3 0 3.1-1 3.1-3.02v-43.9c0-2.3-.87-3.55-3.36-3.55h-5.52v-1.64h13.86v53.75"/><path d="M320 160h120v40H320z" stroke="#000" stroke-opacity="0" stroke-width="2" fill="#fff" fill-opacity="0"/><use xlink:href="#a" transform="matrix(1,0,0,1,325,165) translate(28.575 18.15)"/><path d="M420 160h120v40H420z" stroke="#000" stroke-opacity="0" stroke-width="2" fill="#fff" fill-opacity="0"/><use xlink:href="#b" transform="matrix(1,0,0,1,425,165) translate(17.549999999999997 18.15)"/><path d="M520 160h120v40H520z" stroke="#000" stroke-opacity="0" stroke-width="2" fill="#fff" fill-opacity="0"/><use xlink:href="#c" transform="matrix(1,0,0,1,525,165) translate(28.025 18.15)"/><path d="M380 201v20.5" stroke="#000" stroke-width="2" fill="none"/><path d="M381 201.03h-2V200h2z"/><path d="M380 236.76l-4.64-14.26h9.28z" stroke="#000" stroke-width="2"/><path d="M480 201v20.5" stroke="#000" stroke-width="2" fill="none"/><path d="M481 201.03h-2V200h2z"/><path d="M480 236.76l-4.64-14.26h9.28z" stroke="#000" stroke-width="2"/><path d="M580 201v20.5" stroke="#000" stroke-width="2" fill="none"/><path d="M581 201.03h-2V200h2z"/><path d="M580 236.76l-4.64-14.26h9.28z" stroke="#000" stroke-width="2"/><defs><path d="M133-34C117-15 103 5 69 4 32 3 11-16 11-54c-1-60 55-63 116-61 1-26-3-47-28-47-18 1-26 9-28 27l-52-2c7-38 36-58 82-57s74 22 75 68l1 82c-1 14 12 18 25 15v27c-30 8-71 5-69-32zm-48 3c29 0 43-24 42-57-32 0-66-3-65 30 0 17 8 27 23 27" id="d"/><path d="M190-63c-7 42-38 67-86 67-59 0-84-38-90-98-12-110 154-137 174-36l-49 2c-2-19-15-32-35-32-30 0-35 28-38 64-6 74 65 87 74 30" id="e"/><path d="M115-3C79 11 28 4 28-45v-112H4v-33h27l15-45h31v45h36v33H77v99c-1 23 16 31 38 25v30" id="f"/><path d="M25-224v-37h50v37H25zM25 0v-190h50V0H25" id="g"/><path d="M110-194c64 0 96 36 96 99 0 64-35 99-97 99-61 0-95-36-95-99 0-62 34-99 96-99zm-1 164c35 0 45-28 45-65 0-40-10-65-43-65-34 0-45 26-45 65 0 36 10 65 43 65" id="h"/><path d="M135-194c87-1 58 113 63 194h-50c-7-57 23-157-34-157-59 0-34 97-39 157H25l-1-190h47c2 12-1 28 3 38 12-26 28-41 61-42" id="i"/><g id="a"><use transform="matrix(0.05,0,0,0.05,0,0)" xlink:href="#d"/><use transform="matrix(0.05,0,0,0.05,10,0)" xlink:href="#e"/><use transform="matrix(0.05,0,0,0.05,20,0)" xlink:href="#f"/><use transform="matrix(0.05,0,0,0.05,25.950000000000003,0)" xlink:href="#g"/><use transform="matrix(0.05,0,0,0.05,30.950000000000003,0)" xlink:href="#h"/><use transform="matrix(0.05,0,0,0.05,41.9,0)" xlink:href="#i"/></g><path d="M135-150c-39-12-60 13-60 57V0H25l-1-190h47c2 13-1 29 3 40 6-28 27-53 61-41v41" id="j"/><path d="M220-157c-53 9-28 100-34 157h-49v-107c1-27-5-49-29-50C55-147 81-57 75 0H25l-1-190h47c2 12-1 28 3 38 10-53 101-56 108 0 13-22 24-43 59-42 82 1 51 116 57 194h-49v-107c-1-25-5-48-29-50" id="k"/><path d="M185-48c-13 30-37 53-82 52C43 2 14-33 14-96s30-98 90-98c62 0 83 45 84 108H66c0 31 8 55 39 56 18 0 30-7 34-22zm-45-69c5-46-57-63-70-21-2 6-4 13-4 21h74" id="l"/><g id="b"><use transform="matrix(0.05,0,0,0.05,0,0)" xlink:href="#j"/><use transform="matrix(0.05,0,0,0.05,7,0)" xlink:href="#h"/><use transform="matrix(0.05,0,0,0.05,17.950000000000003,0)" xlink:href="#k"/><use transform="matrix(0.05,0,0,0.05,33.95,0)" xlink:href="#d"/><use transform="matrix(0.05,0,0,0.05,43.95,0)" xlink:href="#i"/><use transform="matrix(0.05,0,0,0.05,54.900000000000006,0)" xlink:href="#e"/><use transform="matrix(0.05,0,0,0.05,64.9,0)" xlink:href="#l"/></g><path d="M88-194c31-1 46 15 58 34l-1-101h50l1 261h-48c-2-10 0-23-3-31C134-8 116 4 84 4 32 4 16-41 15-95c0-56 19-97 73-99zm17 164c33 0 40-30 41-66 1-37-9-64-41-64s-38 30-39 65c0 43 13 65 39 65" id="m"/><g id="c"><use transform="matrix(0.05,0,0,0.05,0,0)" xlink:href="#m"/><use transform="matrix(0.05,0,0,0.05,10.950000000000001,0)" xlink:href="#j"/><use transform="matrix(0.05,0,0,0.05,17.950000000000003,0)" xlink:href="#d"/><use transform="matrix(0.05,0,0,0.05,27.950000000000003,0)" xlink:href="#k"/><use transform="matrix(0.05,0,0,0.05,43.95,0)" xlink:href="#d"/></g></defs></g></svg>