<svg xmlns="http://www.w3.org/2000/svg" xmlns:xlink="http://www.w3.org/1999/xlink" xmlns:lucid="lucid" width="1186" height="638.83"><g transform="translate(-140 -140)" lucid:page-tab-id="yKjWviwmIBqJ"><path d="M160 160h80v80h-80z" stroke="#000" stroke-width="2" fill="#c7e8ac"/><use xlink:href="#a" transform="matrix(1,0,0,1,165,165) translate(28.82716049382716 39.65277777777778)"/><path d="M240 160h80v80h-80z" stroke="#000" stroke-width="2" fill="#c7e8ac"/><use xlink:href="#b" transform="matrix(1,0,0,1,245,165) translate(28.82716049382716 39.65277777777778)"/><path d="M320 160h80v80h-80z" stroke="#000" stroke-width="2" fill="#c7e8ac"/><use xlink:href="#b" transform="matrix(1,0,0,1,325,165) translate(28.82716049382716 39.65277777777778)"/><path d="M400 160h80v80h-80z" stroke="#000" stroke-width="2" fill="#c7e8ac"/><use xlink:href="#b" transform="matrix(1,0,0,1,405,165) translate(28.82716049382716 39.65277777777778)"/><path d="M480 160h80v80h-80z" stroke="#000" stroke-width="2" fill="#c7e8ac"/><use xlink:href="#c" transform="matrix(1,0,0,1,485,165) translate(28.82716049382716 39.65277777777778)"/><path d="M560 160h80v80h-80z" stroke="#000" stroke-width="2" fill="#c7e8ac"/><use xlink:href="#d" transform="matrix(1,0,0,1,565,165) translate(28.82716049382716 39.65277777777778)"/><path d="M640 160h80v80h-80z" stroke="#000" stroke-width="2" fill="#c7e8ac"/><use xlink:href="#b" transform="matrix(1,0,0,1,645,165) translate(28.82716049382716 39.65277777777778)"/><path d="M720 160h80v80h-80z" stroke="#000" stroke-width="2" fill="#c7e8ac"/><use xlink:href="#b" transform="matrix(1,0,0,1,725,165) translate(28.82716049382716 39.65277777777778)"/><path d="M800 160h80v80h-80z" stroke="#000" stroke-width="2" fill="#c7e8ac"/><use xlink:href="#a" transform="matrix(1,0,0,1,805,165) translate(28.82716049382716 39.65277777777778)"/><path d="M880 160h80v80h-80z" stroke="#000" stroke-width="2" fill="#c7e8ac"/><use xlink:href="#b" transform="matrix(1,0,0,1,885,165) translate(28.82716049382716 39.65277777777778)"/><path d="M960 160h80v80h-80z" stroke="#000" stroke-width="2" fill="#c7e8ac"/><use xlink:href="#b" transform="matrix(1,0,0,1,965,165) translate(28.82716049382716 39.65277777777778)"/><path d="M1040 160h80v80h-80z" stroke="#000" stroke-width="2" fill="#c7e8ac"/><use xlink:href="#b" transform="matrix(1,0,0,1,1045,165) translate(28.82716049382716 39.65277777777778)"/><path d="M1120 160h80v80h-80z" stroke="#000" stroke-width="2" fill="#c7e8ac"/><use xlink:href="#b" transform="matrix(1,0,0,1,1125,165) translate(28.82716049382716 39.65277777777778)"/><path d="M160 240h80v80h-80z" stroke="#000" stroke-width="2" fill="#c1e4f7"/><use xlink:href="#d" transform="matrix(1,0,0,1,165,245) translate(28.82716049382716 39.65277777777778)"/><path d="M240 240h80v80h-80z" stroke="#000" stroke-width="2" fill="#c1e4f7"/><use xlink:href="#b" transform="matrix(1,0,0,1,245,245) translate(28.82716049382716 39.65277777777778)"/><path d="M320 240h80v80h-80z" stroke="#000" stroke-width="2" fill="#c1e4f7"/><use xlink:href="#b" transform="matrix(1,0,0,1,325,245) translate(28.82716049382716 39.65277777777778)"/><path d="M400 240h80v80h-80z" stroke="#000" stroke-width="2" fill="#c1e4f7"/><use xlink:href="#b" transform="matrix(1,0,0,1,405,245) translate(28.82716049382716 39.65277777777778)"/><path d="M480 240h80v80h-80z" stroke="#000" stroke-width="2" fill="#c1e4f7"/><use xlink:href="#e" transform="matrix(1,0,0,1,485,245) translate(28.82716049382716 39.65277777777778)"/><path d="M560 240h80v80h-80z" stroke="#000" stroke-width="2" fill="#c1e4f7"/><use xlink:href="#b" transform="matrix(1,0,0,1,565,245) translate(28.82716049382716 39.65277777777778)"/><path d="M640 240h80v80h-80z" stroke="#000" stroke-width="2" fill="#c1e4f7"/><use xlink:href="#b" transform="matrix(1,0,0,1,645,245) translate(28.82716049382716 39.65277777777778)"/><path d="M720 240h80v80h-80z" stroke="#000" stroke-width="2" fill="#c1e4f7"/><use xlink:href="#a" transform="matrix(1,0,0,1,725,245) translate(28.82716049382716 39.65277777777778)"/><path d="M800 240h80v80h-80z" stroke="#000" stroke-width="2" fill="#c1e4f7"/><use xlink:href="#b" transform="matrix(1,0,0,1,805,245) translate(28.82716049382716 39.65277777777778)"/><path d="M880 240h80v80h-80z" stroke="#000" stroke-width="2" fill="#c1e4f7"/><use xlink:href="#a" transform="matrix(1,0,0,1,885,245) translate(28.82716049382716 39.65277777777778)"/><path d="M960 240h80v80h-80z" stroke="#000" stroke-width="2" fill="#c1e4f7"/><use xlink:href="#b" transform="matrix(1,0,0,1,965,245) translate(28.82716049382716 39.65277777777778)"/><path d="M1040 240h80v80h-80z" stroke="#000" stroke-width="2" fill="#c1e4f7"/><use xlink:href="#b" transform="matrix(1,0,0,1,1045,245) translate(28.82716049382716 39.65277777777778)"/><path d="M1120 240h80v80h-80z" stroke="#000" stroke-width="2" fill="#c1e4f7"/><use xlink:href="#b" transform="matrix(1,0,0,1,1125,245) translate(28.82716049382716 39.65277777777778)"/><path d="M802.5 240H1280v95.14M802.56 240H800" stroke="#834187" stroke-width="5" fill="none"/><path d="M1280 351.9l-4.64-14.26h9.28z" stroke="#834187" stroke-width="5" fill="#834187"/><path d="M1000 400h280v41.4h-280z" fill="#fff" fill-opacity="0"/><path d="M1022.78 401.48l-1.8 8.97-.8-.13c0-4.58-.98-7.3-5.33-7.3-3.1 0-5.03 1.65-5.03 4.47 0 2.2.36 2.9 4.44 7s5.07 6.04 5.07 8.96c0 5.1-3.9 8.74-9.06 8.74-1.4 0-2.6-.3-4.66-1.03-1.2-.45-1.6-.54-2.1-.54-.9 0-1.62.4-1.93 1.44h-.8l1.52-10.05.88.1c-.1.4-.1.7-.1 1.02 0 4.4 2.7 7.5 6.47 7.5 3.46 0 5.88-2.34 5.88-5.75 0-1.94-.63-3.28-2.7-5.52l-1.74-1.9c-.64-.66-1.18-1.3-1.76-1.87-2.7-2.86-3.36-4.3-3.36-6.72 0-4.7 3.67-7.35 7.98-7.35 1.4 0 2.87.22 3.8.62.95.36 1.5.5 2.07.5 1 0 1.4-.23 2.02-1.17h1.03M1034.62 404.53c0 1.26-1.03 2.3-2.2 2.3-1.3 0-2.15-.95-2.15-2.4 0-1.38.9-2.37 2.1-2.37 1.22 0 2.25 1.17 2.25 2.47m-1.88 21.75l.58.5c-2.46 3.76-3.9 5.1-6.14 5.1-1.48 0-2.2-.8-2.2-2.46 0-.9.32-2.46 1-4.98l2.14-7.93c.23-.8.4-1.6.4-1.97 0-.9-.44-1.03-2.87-1.07v-.72c1.75-.14 2.65-.27 7.18-1.12l.18.13-4.2 15.4c-.23.75-.45 1.33-.45 1.96 0 .46.26.68.62.68.77 0 1.84-.94 3.77-3.5M1066.87 426.7l-.22.3c-2.38 3.32-4.35 4.8-6.46 4.8-1.18 0-1.8-.72-1.8-2.06 0-.45.13-1.2.58-2.96l2.6-10.18c.22-.9.3-1.48.3-1.7 0-.55-.4-.95-.88-.95-1.35 0-3.64 2.1-5.88 5.25-2.2 3.1-3.1 5.3-4.84 12.2h-3.37l1.22-4.17c1.98-6.82 3.05-11.58 3.05-12.16 0-.72-.4-1.12-.98-1.12-1.54 0-4.18 2.6-6.7 6.4-1.52 2.35-2.15 3.96-4.3 11.05h-3.36l1.92-6.46c1.8-5.97 2.47-9.7 2.47-10.23 0-.66-.63-.97-1.84-.97h-1.13V413l7.27-1.38.13.1-2.6 9.36c4-6.5 7.13-9.46 9.87-9.46 1.8 0 2.7 1.07 2.7 2.7 0 .84-.6 3.35-1.8 6.8 3.13-4.97 4.97-7.22 7.17-8.6 1.1-.68 1.94-.9 2.83-.9 1.66 0 2.6 1.2 2.6 2.82 0 .32-.08 1.03-.13 1.26l-3.05 11.26c-.27 1.03-.45 1.83-.45 2 0 .5.18.73.54.73.76 0 1.57-.73 2.92-2.4l.94-1.15M1079.52 404.53c0 1.26-1.03 2.3-2.2 2.3-1.3 0-2.15-.95-2.15-2.4 0-1.38.9-2.37 2.1-2.37 1.22 0 2.25 1.17 2.25 2.47m-1.88 21.75l.58.5c-2.47 3.76-3.9 5.1-6.15 5.1-1.48 0-2.2-.8-2.2-2.46 0-.9.32-2.46 1-4.98l2.15-7.93c.22-.8.4-1.6.4-1.97 0-.9-.45-1.03-2.87-1.07v-.72c1.75-.14 2.64-.27 7.17-1.12l.18.13-4.2 15.4c-.24.75-.46 1.33-.46 1.96 0 .46.27.68.63.68.76 0 1.84-.94 3.77-3.5M1092.7 401l-6.86 26.23c-.22.8-.36 1.56-.36 1.92 0 .54.32.8.77.8.67 0 1.7-.7 3-2.55l1.12-1.57.63.45c-2.7 4.26-4.35 5.6-6.77 5.6-1.44 0-2.2-.84-2.2-2.5 0-.36.05-.9.18-1.35l6.15-23.5c.14-.45.14-.72.14-.85 0-.54-.77-1-2.2-1h-.82v-.7c2.65-.32 4.3-.63 6.96-1.22M1113.47 426.42l.58.5c-3.36 4.07-4.44 4.92-6.23 4.92-1.26 0-1.8-.53-1.8-1.83 0-1.12.1-1.47 1.04-5.15-3.37 5.07-5.97 7.04-9.1 7.04-2.52 0-4.5-1.8-4.5-5.2 0-6.96 6.87-15.08 12.83-15.08 1.92 0 3.22.94 3.58 2.6l.5-2.15.13-.14 2.75-.3.3.12c-.08.4-.12.5-.26.94-2.12 7.66-4 15.38-4 16.27 0 .32.27.6.63.6.4 0 .98-.37 2.33-1.85m-3.2-12.5c0-1.58-.93-2.62-2.5-2.62-2.02 0-4 1.4-5.87 4.13-1.9 2.83-3.47 6.82-3.47 9.64 0 2.47 1.08 3.32 2.7 3.32 2.24 0 4.35-2.47 5.7-4.4 2.1-3.05 3.44-6.9 3.44-10.1M1123.1 421.4l.73-1.58c.85-1.88 2.38-4.26 4.22-6.18 1.16-1.22 2.5-2.02 3.54-2.02 1.25 0 2.1.94 2.1 2.28 0 1.35-.77 2.43-2.1 2.43-.82 0-1.18-.5-1.58-1.17-.27-.45-.4-.63-.72-.63-.8 0-2.06 1.48-3.68 4.22-1.92 3.32-2.73 5.1-4.97 12.65h-3.4l3.62-13.1c.63-2.33.72-2.74.72-3.68s-.82-1.16-1.72-1.16c-.36 0-.7.04-1.4.13v-.77l6.96-1.2.14.08M1145.54 404.53c0 1.26-1.03 2.3-2.2 2.3-1.3 0-2.15-.95-2.15-2.4 0-1.38.88-2.37 2.1-2.37 1.2 0 2.24 1.17 2.24 2.47m-1.9 21.75l.6.5c-2.47 3.76-3.9 5.1-6.15 5.1-1.5 0-2.2-.8-2.2-2.46 0-.9.3-2.46.98-4.98l2.15-7.93c.23-.8.4-1.6.4-1.97 0-.9-.44-1.03-2.86-1.07v-.72c1.75-.14 2.64-.27 7.17-1.12l.18.13-4.2 15.4c-.24.75-.46 1.33-.46 1.96 0 .46.27.68.63.68.75 0 1.83-.94 3.75-3.5M1159.5 412.2l-.24 1.44h-3.77l-3.9 14.7c-.05.2-.1.5-.1.63 0 .6.27.72.68.72.7 0 1.43-.73 3.63-3.55l.6.3c-2.7 4.14-4.1 5.44-6.42 5.44-1.2 0-2.07-.55-2.07-1.67 0-.5.37-1.88.73-3.32l3.5-13.26h-3.36c-.05-.14-.05-.27-.05-.27 0-.5.4-.9 1.48-1.12 1.44-.32 4.35-2.52 5.97-4.94.18-.26.45-.4.63-.4.26 0 .4.14.4.37 0 0 0 .22-.05.3l-1.25 4.63h3.6M1170.38 423.05l.95 4.94c3.8-6.34 5.47-9.57 5.47-11.54 0-.63-.32-.9-1.17-1.43-.9-.6-1.16-1.04-1.16-1.75 0-1 .76-1.66 1.8-1.66 1.34 0 2.32 1.12 2.32 2.46 0 2.56-2.16 7.5-5.88 13.68-4.67 7.72-9.47 12.88-12.02 12.88-1.35 0-2.3-.77-2.3-1.93 0-.98.77-1.8 1.76-1.8 1.57 0 1.57 1.27 2.73 1.27.58 0 1.12-.36 2.15-1.48.8-.86 2.82-3.5 3.18-4.1.27-.53.45-1.07.45-1.56 0-1.8-2.47-11.84-3.68-14.9-.85-2.2-1.66-2.86-3.45-2.86-.5 0-.9.04-1.4.18v-.77l1.44-.28c.9-.17 2.37-.44 4.8-.8h.17c.68 0 3.05 7.44 3.8 11.43M1220.44 417.04h-26.42v-2.96h26.42v2.96m0 8.97h-26.42v-2.95h26.42V426M1252.77 431.4h-12.37v-.68c3.3-.18 4.26-1.12 4.26-3.58V407c0-1.53-.4-2.2-1.35-2.2-.44 0-1.2.22-2 .54l-1.22.45v-.64l8.03-4.08.4.13V428c0 1.92.9 2.72 4.27 2.72v.68M1260.26 408.52l-.7-.18c1.3-4.26 4.1-7.26 8.78-7.26 4.17 0 7 2.46 7 6.14 0 2.15-1.17 4.4-4.18 6.2 1.98.84 2.78 1.38 3.72 2.37 1.26 1.38 1.98 3.44 1.98 5.77 0 2.38-.76 4.58-2.07 6.28-2.16 2.87-6.42 4.17-10.4 4.17-3.28 0-5.03-.94-5.03-2.55 0-.94.8-1.62 1.84-1.62.77 0 1.5.27 2.74 1.17 1.66 1.17 2.6 1.4 3.86 1.4 3.32 0 5.83-3.06 5.83-6.87 0-3.4-1.57-5.6-4.67-6.5-.98-.32-2-.45-4.57-.45v-.63c1.7-.6 2.86-1.08 3.76-1.62 2.2-1.25 3.63-3.27 3.63-6 0-3.06-1.9-4.58-4.85-4.58-2.78 0-4.85 1.43-6.7 4.75"/><path d="M160 480h80v80h-80z" stroke="#000" stroke-width="2" fill="#c7e8ac"/><use xlink:href="#e" transform="matrix(1,0,0,1,165,485) translate(28.82716049382716 39.65277777777778)"/><path d="M240 480h80v80h-80z" stroke="#000" stroke-width="2" fill="#c7e8ac"/><use xlink:href="#b" transform="matrix(1,0,0,1,245,485) translate(28.82716049382716 39.65277777777778)"/><path d="M320 480h80v80h-80z" stroke="#000" stroke-width="2" fill="#c7e8ac"/><use xlink:href="#b" transform="matrix(1,0,0,1,325,485) translate(28.82716049382716 39.65277777777778)"/><path d="M400 480h80v80h-80z" stroke="#000" stroke-width="2" fill="#c7e8ac"/><use xlink:href="#b" transform="matrix(1,0,0,1,405,485) translate(28.82716049382716 39.65277777777778)"/><path d="M480 480h80v80h-80z" stroke="#000" stroke-width="2" fill="#c7e8ac"/><use xlink:href="#f" transform="matrix(1,0,0,1,485,485) translate(22.654320987654323 39.65277777777778)"/><path d="M560 480h80v80h-80z" stroke="#000" stroke-width="2" fill="#c7e8ac"/><use xlink:href="#g" transform="matrix(1,0,0,1,565,485) translate(28.82716049382716 39.65277777777778)"/><path d="M640 480h80v80h-80z" stroke="#000" stroke-width="2" fill="#c7e8ac"/><use xlink:href="#b" transform="matrix(1,0,0,1,645,485) translate(28.82716049382716 39.65277777777778)"/><path d="M720 480h80v80h-80z" stroke="#000" stroke-width="2" fill="#c7e8ac"/><use xlink:href="#b" transform="matrix(1,0,0,1,725,485) translate(28.82716049382716 39.65277777777778)"/><path d="M800 480h80v80h-80z" stroke="#000" stroke-width="2" fill="#c7e8ac"/><use xlink:href="#e" transform="matrix(1,0,0,1,805,485) translate(28.82716049382716 39.65277777777778)"/><path d="M880 480h80v80h-80z" stroke="#000" stroke-width="2" fill="#c7e8ac"/><use xlink:href="#b" transform="matrix(1,0,0,1,885,485) translate(28.82716049382716 39.65277777777778)"/><path d="M960 480h80v80h-80z" stroke="#000" stroke-width="2" fill="#c7e8ac"/><use xlink:href="#b" transform="matrix(1,0,0,1,965,485) translate(28.82716049382716 39.65277777777778)"/><path d="M1040 480h80v80h-80z" stroke="#000" stroke-width="2" fill="#c7e8ac"/><use xlink:href="#b" transform="matrix(1,0,0,1,1045,485) translate(28.82716049382716 39.65277777777778)"/><path d="M1120 480h80v80h-80z" stroke="#000" stroke-width="2" fill="#c7e8ac"/><use xlink:href="#b" transform="matrix(1,0,0,1,1125,485) translate(28.82716049382716 39.65277777777778)"/><path d="M160 560h80v80h-80z" stroke="#000" stroke-width="2" fill="#c1e4f7"/><use xlink:href="#g" transform="matrix(1,0,0,1,165,565) translate(28.82716049382716 39.65277777777778)"/><path d="M240 560h80v80h-80z" stroke="#000" stroke-width="2" fill="#c1e4f7"/><use xlink:href="#b" transform="matrix(1,0,0,1,245,565) translate(28.82716049382716 39.65277777777778)"/><path d="M320 560h80v80h-80z" stroke="#000" stroke-width="2" fill="#c1e4f7"/><use xlink:href="#b" transform="matrix(1,0,0,1,325,565) translate(28.82716049382716 39.65277777777778)"/><path d="M400 560h80v80h-80z" stroke="#000" stroke-width="2" fill="#c1e4f7"/><use xlink:href="#b" transform="matrix(1,0,0,1,405,565) translate(28.82716049382716 39.65277777777778)"/><path d="M480 560h80v80h-80z" stroke="#000" stroke-width="2" fill="#c1e4f7"/><use xlink:href="#h" transform="matrix(1,0,0,1,485,565) translate(28.82716049382716 39.65277777777778)"/><path d="M560 560h80v80h-80z" stroke="#000" stroke-width="2" fill="#c1e4f7"/><use xlink:href="#b" transform="matrix(1,0,0,1,565,565) translate(28.82716049382716 39.65277777777778)"/><path d="M640 560h80v80h-80z" stroke="#000" stroke-width="2" fill="#c1e4f7"/><use xlink:href="#b" transform="matrix(1,0,0,1,645,565) translate(28.82716049382716 39.65277777777778)"/><path d="M720 560h80v80h-80z" stroke="#000" stroke-width="2" fill="#c1e4f7"/><use xlink:href="#e" transform="matrix(1,0,0,1,725,565) translate(28.82716049382716 39.65277777777778)"/><path d="M800 560h80v80h-80z" stroke="#000" stroke-width="2" fill="#c1e4f7"/><use xlink:href="#b" transform="matrix(1,0,0,1,805,565) translate(28.82716049382716 39.65277777777778)"/><path d="M880 560h80v80h-80z" stroke="#000" stroke-width="2" fill="#c1e4f7"/><use xlink:href="#e" transform="matrix(1,0,0,1,885,565) translate(28.82716049382716 39.65277777777778)"/><path d="M960 560h80v80h-80z" stroke="#000" stroke-width="2" fill="#c1e4f7"/><use xlink:href="#b" transform="matrix(1,0,0,1,965,565) translate(28.82716049382716 39.65277777777778)"/><path d="M1040 560h80v80h-80z" stroke="#000" stroke-width="2" fill="#c1e4f7"/><use xlink:href="#b" transform="matrix(1,0,0,1,1045,565) translate(28.82716049382716 39.65277777777778)"/><path d="M1120 560h80v80h-80z" stroke="#000" stroke-width="2" fill="#c1e4f7"/><use xlink:href="#b" transform="matrix(1,0,0,1,1125,565) translate(28.82716049382716 39.65277777777778)"/><path d="M802.5 560H1280v95.14M802.56 560H800" stroke="#834187" stroke-width="5" fill="none"/><path d="M1280 671.9l-4.64-14.26h9.28z" stroke="#834187" stroke-width="5" fill="#834187"/><path d="M1000 717.2h280v41.63h-280z" fill="#fff" fill-opacity="0"/><path d="M1022.78 718.9l-1.8 8.98-.8-.14c0-4.57-.98-7.3-5.33-7.3-3.1 0-5.03 1.65-5.03 4.48 0 2.2.36 2.9 4.44 7 4.08 4.12 5.07 6.05 5.07 8.96 0 5.12-3.9 8.75-9.06 8.75-1.4 0-2.6-.3-4.66-1.03-1.2-.45-1.6-.54-2.1-.54-.9 0-1.62.4-1.93 1.44h-.8l1.52-10.05.88.1c-.1.4-.1.7-.1 1.02 0 4.4 2.7 7.5 6.47 7.5 3.46 0 5.88-2.34 5.88-5.75 0-1.93-.63-3.27-2.7-5.52l-1.74-1.88c-.64-.67-1.18-1.3-1.76-1.88-2.7-2.87-3.36-4.3-3.36-6.73 0-4.7 3.67-7.35 7.98-7.35 1.4 0 2.87.23 3.8.63.95.36 1.5.5 2.07.5 1 0 1.4-.23 2.02-1.17h1.03M1034.62 721.96c0 1.25-1.03 2.3-2.2 2.3-1.3 0-2.15-.96-2.15-2.4 0-1.38.9-2.37 2.1-2.37 1.22 0 2.25 1.16 2.25 2.46m-1.88 21.75l.58.5c-2.46 3.77-3.9 5.12-6.14 5.12-1.48 0-2.2-.8-2.2-2.47 0-.9.32-2.47 1-4.98l2.14-7.94c.23-.8.4-1.6.4-1.97 0-.9-.44-1.03-2.87-1.08v-.7c1.75-.15 2.65-.28 7.18-1.14l.18.14-4.2 15.38c-.23.76-.45 1.35-.45 1.98 0 .44.26.67.62.67.77 0 1.84-.93 3.77-3.5M1066.87 744.1l-.22.33c-2.38 3.32-4.35 4.8-6.46 4.8-1.18 0-1.8-.72-1.8-2.07 0-.45.13-1.2.58-2.96l2.6-10.18c.22-.9.3-1.48.3-1.7 0-.54-.4-.94-.88-.94-1.35 0-3.64 2.1-5.88 5.24-2.2 3.1-3.1 5.3-4.84 12.2h-3.37l1.22-4.17c1.98-6.82 3.05-11.57 3.05-12.15 0-.72-.4-1.12-.98-1.12-1.54 0-4.18 2.6-6.7 6.4-1.52 2.34-2.15 3.96-4.3 11.04h-3.36l1.92-6.46c1.8-5.96 2.47-9.68 2.47-10.22 0-.67-.63-1-1.84-1h-1.13v-.7l7.27-1.4.13.1-2.6 9.37c4-6.5 7.13-9.46 9.87-9.46 1.8 0 2.7 1.08 2.7 2.7 0 .85-.6 3.36-1.8 6.8 3.13-4.97 4.97-7.2 7.17-8.6 1.1-.67 1.94-.9 2.83-.9 1.66 0 2.6 1.22 2.6 2.83 0 .3-.08 1.03-.13 1.26l-3.05 11.25c-.27 1.03-.45 1.84-.45 2.02 0 .5.18.72.54.72.76 0 1.57-.72 2.92-2.38l.94-1.16M1079.52 721.96c0 1.25-1.03 2.3-2.2 2.3-1.3 0-2.15-.96-2.15-2.4 0-1.38.9-2.37 2.1-2.37 1.22 0 2.25 1.16 2.25 2.46m-1.88 21.75l.58.5c-2.47 3.77-3.9 5.12-6.15 5.12-1.48 0-2.2-.8-2.2-2.47 0-.9.32-2.47 1-4.98l2.15-7.94c.22-.8.4-1.6.4-1.97 0-.9-.45-1.03-2.87-1.08v-.7c1.75-.15 2.64-.28 7.17-1.14l.18.14-4.2 15.38c-.24.76-.46 1.35-.46 1.98 0 .44.27.67.63.67.76 0 1.84-.93 3.77-3.5M1092.7 718.4l-6.86 26.25c-.22.8-.36 1.57-.36 1.93 0 .54.32.8.77.8.67 0 1.7-.7 3-2.55l1.12-1.57.63.45c-2.7 4.27-4.35 5.62-6.77 5.62-1.44 0-2.2-.86-2.2-2.52 0-.35.05-.9.18-1.34l6.15-23.5c.14-.45.14-.72.14-.85 0-.53-.77-.98-2.2-.98h-.82v-.72c2.65-.3 4.3-.63 6.96-1.2M1113.47 743.84l.58.5c-3.36 4.08-4.44 4.93-6.23 4.93-1.26 0-1.8-.54-1.8-1.84 0-1.12.1-1.48 1.04-5.16-3.37 5.07-5.97 7.05-9.1 7.05-2.52 0-4.5-1.8-4.5-5.2 0-6.96 6.87-15.08 12.83-15.08 1.92 0 3.22.95 3.58 2.6l.5-2.15.13-.14 2.75-.32.3.14c-.08.4-.12.5-.26.94-2.12 7.67-4 15.38-4 16.28 0 .3.27.58.63.58.4 0 .98-.35 2.33-1.83m-3.2-12.52c0-1.57-.93-2.6-2.5-2.6-2.02 0-4 1.4-5.87 4.13-1.9 2.82-3.47 6.8-3.47 9.64 0 2.47 1.08 3.32 2.7 3.32 2.24 0 4.35-2.47 5.7-4.4 2.1-3.05 3.44-6.9 3.44-10.1M1123.1 738.82l.73-1.57c.85-1.88 2.38-4.26 4.22-6.2 1.16-1.2 2.5-2 3.54-2 1.25 0 2.1.94 2.1 2.28 0 1.35-.77 2.42-2.1 2.42-.82 0-1.18-.5-1.58-1.16-.27-.46-.4-.64-.72-.64-.8 0-2.06 1.48-3.68 4.22-1.92 3.3-2.73 5.1-4.97 12.64h-3.4l3.62-13.1c.63-2.33.72-2.73.72-3.67s-.82-1.17-1.72-1.17c-.36 0-.7.05-1.4.14v-.76l6.96-1.22.14.1M1145.54 721.96c0 1.25-1.03 2.3-2.2 2.3-1.3 0-2.15-.96-2.15-2.4 0-1.38.88-2.37 2.1-2.37 1.2 0 2.24 1.16 2.24 2.46m-1.9 21.75l.6.5c-2.47 3.77-3.9 5.12-6.15 5.12-1.5 0-2.2-.8-2.2-2.47 0-.9.3-2.47.98-4.98l2.15-7.94c.23-.8.4-1.6.4-1.97 0-.9-.44-1.03-2.86-1.08v-.7c1.75-.15 2.64-.28 7.17-1.14l.18.14-4.2 15.38c-.24.76-.46 1.35-.46 1.98 0 .44.27.67.63.67.75 0 1.83-.93 3.75-3.5M1159.5 729.63l-.24 1.43h-3.77l-3.9 14.7c-.05.2-.1.5-.1.64 0 .58.27.72.68.72.7 0 1.43-.72 3.63-3.54l.6.3c-2.7 4.14-4.1 5.44-6.42 5.44-1.2 0-2.07-.54-2.07-1.66 0-.5.37-1.9.73-3.32l3.5-13.28h-3.36c-.05-.13-.05-.27-.05-.27 0-.5.4-.9 1.48-1.13 1.44-.3 4.35-2.5 5.97-4.93.18-.27.45-.4.63-.4.26 0 .4.13.4.35 0 0 0 .22-.05.3l-1.25 4.63h3.6M1170.38 740.48l.95 4.93c3.8-6.3 5.47-9.54 5.47-11.5 0-.64-.32-.9-1.17-1.45-.9-.58-1.16-1.03-1.16-1.75 0-.98.76-1.66 1.8-1.66 1.34 0 2.32 1.13 2.32 2.47 0 2.57-2.16 7.5-5.88 13.7-4.67 7.7-9.47 12.86-12.02 12.86-1.35 0-2.3-.76-2.3-1.93 0-.98.77-1.8 1.76-1.8 1.57 0 1.57 1.27 2.73 1.27.58 0 1.12-.36 2.15-1.48.8-.86 2.82-3.5 3.18-4.1.27-.52.45-1.06.45-1.56 0-1.8-2.47-11.84-3.68-14.9-.85-2.18-1.66-2.86-3.45-2.86-.5 0-.9.05-1.4.18v-.76l1.44-.27c.9-.18 2.37-.45 4.8-.8h.17c.68 0 3.05 7.44 3.8 11.43M1220.44 734.47h-26.42v-2.96h26.42v2.97m0 8.97h-26.42v-2.96h26.42v2.96M1254.75 718.28l-1.62 3.8c-.13.33-.5.6-1.2.6h-8.7l-1.8 3.8c6.4 1.22 8.65 2.2 11.2 5.75 1.18 1.6 1.58 3.32 1.58 5.7 0 4.3-1.34 7.08-4.4 9.32-2.1 1.53-4.56 2.2-7.6 2.2-3.37 0-5.7-1.08-5.7-2.78 0-1.12.76-1.7 2-1.7 1.04 0 1.9.22 3.33 1.4 1.26 1.02 2.3 1.42 3.18 1.42 3.15 0 6.07-3.73 6.07-7.6 0-2.86-1-5.1-3-6.72-2.1-1.7-5.25-3.14-9.56-3.14-.4 0-.53-.08-.53-.35 0-.1.05-.24.05-.24l4.9-10.63h9.27c1.02 0 1.43-.22 2.14-1.16M1278.8 742.68l-2.44 6.14h-17.53v-.54l7.98-8.47c4.23-4.43 5.84-7.84 5.84-11.65 0-4.08-2.42-6.33-6.23-6.33-3.22 0-4.8 1.44-6.58 5.83l-.95-.22c.95-5.25 3.82-8.93 9.33-8.93 5.07 0 8.3 3.46 8.3 7.9 0 3.54-1.75 6.9-5.74 11.12l-7.4 7.9h10.5c1.88 0 2.82-.5 4.3-3"/><defs><path d="M23 0v-37h61v-169l-59 37v-38l62-41h46v211h57V0H23" id="i"/><use transform="matrix(0.06172839506172839,0,0,0.06172839506172839,0,0)" xlink:href="#i" id="a"/><path d="M101-251c68 0 84 54 84 127C185-50 166 4 99 4S15-52 14-124c-1-75 17-127 87-127zm-1 216c37-5 36-46 36-89s4-89-36-89c-39 0-36 45-36 89 0 43-3 85 36 89" id="j"/><use transform="matrix(0.06172839506172839,0,0,0.06172839506172839,0,0)" xlink:href="#j" id="b"/><path d="M139-81c0-46-55-55-73-27H18l9-140h149v37H72l-4 63c44-38 133-4 122 66C201 21 21 35 11-62l49-4c5 18 15 30 39 30 26 0 40-18 40-45" id="k"/><use transform="matrix(0.06172839506172839,0,0,0.06172839506172839,0,0)" xlink:href="#k" id="c"/><path d="M128-127c34 4 56 21 59 58 7 91-148 94-172 28-4-9-6-17-7-26l51-5c1 24 16 35 40 36 23 0 39-12 38-36-1-31-31-36-65-34v-40c32 2 59-3 59-33 0-20-13-33-34-33s-33 13-35 32l-50-3c6-44 37-68 86-68 50 0 83 20 83 66 0 35-22 52-53 58" id="l"/><use transform="matrix(0.06172839506172839,0,0,0.06172839506172839,0,0)" xlink:href="#l" id="d"/><path d="M182-182c0 78-84 86-111 141h115V0H12c-6-101 99-100 120-180 1-22-12-31-33-32-23 0-32 14-35 34l-49-3c5-45 32-70 84-70 51 0 83 22 83 69" id="m"/><use transform="matrix(0.06172839506172839,0,0,0.06172839506172839,0,0)" xlink:href="#m" id="e"/><g id="f"><use transform="matrix(0.06172839506172839,0,0,0.06172839506172839,0,0)" xlink:href="#i"/><use transform="matrix(0.06172839506172839,0,0,0.06172839506172839,12.345679012345679,0)" xlink:href="#j"/></g><path d="M115-159c48 0 72 30 72 78 0 54-30 85-83 85-64 0-91-50-91-122 0-98 58-163 141-120 15 8 21 24 27 44l-47 6c-5-31-48-31-61-4-7 14-11 33-11 60 9-17 28-27 53-27zM102-35c24 0 36-20 36-45s-11-43-37-43c-23 0-36 14-36 38 0 27 11 50 37 50" id="n"/><use transform="matrix(0.06172839506172839,0,0,0.06172839506172839,0,0)" xlink:href="#n" id="g"/><path d="M165-50V0h-47v-50H5v-38l105-160h55v161h33v37h-33zm-47-37l2-116L46-87h72" id="o"/><use transform="matrix(0.06172839506172839,0,0,0.06172839506172839,0,0)" xlink:href="#o" id="h"/></defs></g></svg>