<svg xmlns="http://www.w3.org/2000/svg" xmlns:lucid="lucid" width="520" height="560"><g lucid:page-tab-id="fgp79~nW1D.T" stroke="#000" stroke-width="2"><path d="M20 100h40v40H20zM20 180h40v40H20zM20 260h40v40H20zM100 340h40v40h-40zM100 420h40v40h-40zM180 500h40v40h-40zM460 100h40v40h-40zM460 180h40v40h-40zM460 260h40v40h-40zM380 340h40v40h-40zM380 420h40v40h-40zM300 500h40v40h-40z" fill="#e5e5e5"/><path d="M140 40c0 11.05-8.95 20-20 20s-20-8.95-20-20 8.95-20 20-20 20 8.95 20 20z" fill="#c92d39"/><path d="M140 300c0 11.05-8.95 20-20 20s-20-8.95-20-20 8.95-20 20-20 20 8.95 20 20z" fill="#c7e8ac"/><path d="M480 340c0 11.05-8.95 20-20 20s-20-8.95-20-20 8.95-20 20-20 20 8.95 20 20z" fill="#0072c6"/></g></svg>