<svg xmlns="http://www.w3.org/2000/svg" xmlns:xlink="http://www.w3.org/1999/xlink" xmlns:lucid="lucid" width="760" height="480"><g transform="translate(-140 -140)" lucid:page-tab-id="XXo7Gu39VOVW"><path d="M160 160h40v40h-40zM160 240h40v40h-40zM160 320h40v40h-40zM240 400h40v40h-40zM240 480h40v40h-40zM320 560h40v40h-40zM600 160h40v40h-40zM600 240h40v40h-40zM600 320h40v40h-40zM520 400h40v40h-40zM520 480h40v40h-40zM440 560h40v40h-40z" stroke="#000" stroke-width="2" fill="#e5e5e5"/><path d="M720 400h160v160H720z" stroke="#000" stroke-opacity="0" stroke-width="2" fill="#fff" fill-opacity="0"/><use xlink:href="#a" transform="matrix(1,0,0,1,725,405) translate(34.00555555555557 43.81666666666666)"/><use xlink:href="#b" transform="matrix(1,0,0,1,725,405) translate(60.290740740740745 81.41666666666666)"/><use xlink:href="#c" transform="matrix(1,0,0,1,725,405) translate(1.2361111111111427 119.01666666666665)"/><defs><path d="M24-248c120-7 223 5 221 122C244-46 201 0 124 0H24v-248zM76-40c74 7 117-18 117-86 0-67-45-88-117-82v168" id="d"/><path d="M199 0l-22-63H83L61 0H9l90-248h61L250 0h-51zm-33-102l-36-108c-10 38-24 72-36 108h72" id="e"/><path d="M136-208V0H84v-208H4v-40h212v40h-80" id="f"/><g id="a"><use transform="matrix(0.08703703703703701,0,0,0.08703703703703701,0,0)" xlink:href="#d"/><use transform="matrix(0.08703703703703701,0,0,0.08703703703703701,22.542592592592584,0)" xlink:href="#e"/><use transform="matrix(0.08703703703703701,0,0,0.08703703703703701,42.73518518518517,0)" xlink:href="#f"/><use transform="matrix(0.08703703703703701,0,0,0.08703703703703701,59.446296296296275,0)" xlink:href="#e"/></g><path d="M115-3C79 11 28 4 28-45v-112H4v-33h27l15-45h31v45h36v33H77v99c-1 23 16 31 38 25v30" id="g"/><path d="M110-194c64 0 96 36 96 99 0 64-35 99-97 99-61 0-95-36-95-99 0-62 34-99 96-99zm-1 164c35 0 45-28 45-65 0-40-10-65-43-65-34 0-45 26-45 65 0 36 10 65 43 65" id="h"/><g id="b"><use transform="matrix(0.08703703703703701,0,0,0.08703703703703701,0,0)" xlink:href="#g"/><use transform="matrix(0.08703703703703701,0,0,0.08703703703703701,10.357407407407404,0)" xlink:href="#h"/></g><path d="M67-125c0 53 21 87 73 88 37 1 54-22 65-47l45 17C233-25 199 4 140 4 58 4 20-42 15-125 8-235 124-281 211-232c18 10 29 29 36 50l-46 12c-8-25-30-41-62-41-52 0-71 34-72 86" id="i"/><path d="M24 0v-248h52v208h133V0H24" id="j"/><path d="M238-95c0 69-44 99-111 99C63 4 22-25 22-93v-155h51v151c-1 38 19 59 55 60 90 1 49-130 58-211h52v153" id="k"/><path d="M169-182c-1-43-94-46-97-3 18 66 151 10 154 114 3 95-165 93-204 36-6-8-10-19-12-30l50-8c3 46 112 56 116 5-17-69-150-10-154-114-4-87 153-88 188-35 5 8 8 18 10 28" id="l"/><path d="M24 0v-248h195v40H76v63h132v40H76v65h150V0H24" id="m"/><path d="M240-174c0 40-23 61-54 70L253 0h-59l-57-94H76V0H24v-248c93 4 217-23 216 74zM76-134c48-2 112 12 112-38 0-48-66-32-112-35v73" id="n"/><g id="c"><use transform="matrix(0.08703703703703701,0,0,0.08703703703703701,0,0)" xlink:href="#i"/><use transform="matrix(0.08703703703703701,0,0,0.08703703703703701,22.542592592592584,0)" xlink:href="#j"/><use transform="matrix(0.08703703703703701,0,0,0.08703703703703701,41.60370370370369,0)" xlink:href="#k"/><use transform="matrix(0.08703703703703701,0,0,0.08703703703703701,64.14629629629627,0)" xlink:href="#l"/><use transform="matrix(0.08703703703703701,0,0,0.08703703703703701,85.03518518518516,0)" xlink:href="#f"/><use transform="matrix(0.08703703703703701,0,0,0.08703703703703701,104.09629629629626,0)" xlink:href="#m"/><use transform="matrix(0.08703703703703701,0,0,0.08703703703703701,124.98518518518514,0)" xlink:href="#n"/></g></defs></g></svg>