<svg xmlns="http://www.w3.org/2000/svg" xmlns:xlink="http://www.w3.org/1999/xlink" xmlns:lucid="lucid" width="1186" height="640"><g transform="translate(-140 -140)" lucid:page-tab-id="b.iWM4sIXzta"><path d="M160 560h80v80h-80z" stroke="#000" stroke-width="2" fill="#ffbbb1"/><use xlink:href="#a" transform="matrix(1,0,0,1,165,565) translate(28.82716049382716 39.65277777777778)"/><path d="M240 560h80v80h-80z" stroke="#000" stroke-width="2" fill="#ffbbb1"/><use xlink:href="#a" transform="matrix(1,0,0,1,245,565) translate(28.82716049382716 39.65277777777778)"/><path d="M320 560h80v80h-80z" stroke="#000" stroke-width="2" fill="#ffbbb1"/><use xlink:href="#b" transform="matrix(1,0,0,1,325,565) translate(28.82716049382716 39.65277777777778)"/><path d="M400 560h80v80h-80z" stroke="#000" stroke-width="2" fill="#ffbbb1"/><use xlink:href="#a" transform="matrix(1,0,0,1,405,565) translate(28.82716049382716 39.65277777777778)"/><path d="M480 560h80v80h-80z" stroke="#000" stroke-width="2" fill="#ffbbb1"/><use xlink:href="#a" transform="matrix(1,0,0,1,485,565) translate(28.82716049382716 39.65277777777778)"/><path d="M560 560h80v80h-80z" stroke="#000" stroke-width="2" fill="#ffbbb1"/><use xlink:href="#a" transform="matrix(1,0,0,1,565,565) translate(28.82716049382716 39.65277777777778)"/><path d="M640 560h80v80h-80z" stroke="#000" stroke-width="2" fill="#ffbbb1"/><use xlink:href="#c" transform="matrix(1,0,0,1,645,565) translate(28.82716049382716 39.65277777777778)"/><path d="M720 560h80v80h-80z" stroke="#000" stroke-width="2" fill="#ffbbb1"/><use xlink:href="#a" transform="matrix(1,0,0,1,725,565) translate(28.82716049382716 39.65277777777778)"/><path d="M800 560h80v80h-80z" stroke="#000" stroke-width="2" fill="#ffbbb1"/><use xlink:href="#a" transform="matrix(1,0,0,1,805,565) translate(28.82716049382716 39.65277777777778)"/><path d="M880 560h80v80h-80z" stroke="#000" stroke-width="2" fill="#ffbbb1"/><use xlink:href="#d" transform="matrix(1,0,0,1,885,565) translate(28.82716049382716 39.65277777777778)"/><path d="M960 560h80v80h-80z" stroke="#000" stroke-width="2" fill="#ffbbb1"/><use xlink:href="#a" transform="matrix(1,0,0,1,965,565) translate(28.82716049382716 39.65277777777778)"/><path d="M1040 560h80v80h-80z" stroke="#000" stroke-width="2" fill="#ffbbb1"/><use xlink:href="#e" transform="matrix(1,0,0,1,1045,565) translate(28.82716049382716 39.65277777777778)"/><path d="M1120 560h80v80h-80z" stroke="#000" stroke-width="2" fill="#ffbbb1"/><use xlink:href="#a" transform="matrix(1,0,0,1,1125,565) translate(28.82716049382716 39.65277777777778)"/><path d="M160 160h80v80h-80z" stroke="#000" stroke-width="2" fill="#c7e8ac"/><use xlink:href="#b" transform="matrix(1,0,0,1,165,165) translate(28.82716049382716 39.65277777777778)"/><path d="M240 160h80v80h-80z" stroke="#000" stroke-width="2" fill="#c7e8ac"/><use xlink:href="#a" transform="matrix(1,0,0,1,245,165) translate(28.82716049382716 39.65277777777778)"/><path d="M320 160h80v80h-80z" stroke="#000" stroke-width="2" fill="#c7e8ac"/><use xlink:href="#a" transform="matrix(1,0,0,1,325,165) translate(28.82716049382716 39.65277777777778)"/><path d="M400 160h80v80h-80z" stroke="#000" stroke-width="2" fill="#c7e8ac"/><use xlink:href="#a" transform="matrix(1,0,0,1,405,165) translate(28.82716049382716 39.65277777777778)"/><path d="M480 160h80v80h-80z" stroke="#000" stroke-width="2" fill="#c7e8ac"/><use xlink:href="#f" transform="matrix(1,0,0,1,485,165) translate(28.82716049382716 39.65277777777778)"/><path d="M560 160h80v80h-80z" stroke="#000" stroke-width="2" fill="#c7e8ac"/><use xlink:href="#g" transform="matrix(1,0,0,1,565,165) translate(28.82716049382716 39.65277777777778)"/><path d="M640 160h80v80h-80z" stroke="#000" stroke-width="2" fill="#c7e8ac"/><use xlink:href="#a" transform="matrix(1,0,0,1,645,165) translate(28.82716049382716 39.65277777777778)"/><path d="M720 160h80v80h-80z" stroke="#000" stroke-width="2" fill="#c7e8ac"/><use xlink:href="#a" transform="matrix(1,0,0,1,725,165) translate(28.82716049382716 39.65277777777778)"/><path d="M800 160h80v80h-80z" stroke="#000" stroke-width="2" fill="#c7e8ac"/><use xlink:href="#b" transform="matrix(1,0,0,1,805,165) translate(28.82716049382716 39.65277777777778)"/><path d="M880 160h80v80h-80z" stroke="#000" stroke-width="2" fill="#c7e8ac"/><use xlink:href="#a" transform="matrix(1,0,0,1,885,165) translate(28.82716049382716 39.65277777777778)"/><path d="M960 160h80v80h-80z" stroke="#000" stroke-width="2" fill="#c7e8ac"/><use xlink:href="#a" transform="matrix(1,0,0,1,965,165) translate(28.82716049382716 39.65277777777778)"/><path d="M1040 160h80v80h-80z" stroke="#000" stroke-width="2" fill="#c7e8ac"/><use xlink:href="#a" transform="matrix(1,0,0,1,1045,165) translate(28.82716049382716 39.65277777777778)"/><path d="M1120 160h80v80h-80z" stroke="#000" stroke-width="2" fill="#c7e8ac"/><use xlink:href="#a" transform="matrix(1,0,0,1,1125,165) translate(28.82716049382716 39.65277777777778)"/><path d="M160 320h80v80h-80z" stroke="#000" stroke-width="2" fill="#ffbbb1"/><use xlink:href="#a" transform="matrix(1,0,0,1,165,325) translate(28.82716049382716 39.65277777777778)"/><path d="M240 320h80v80h-80z" stroke="#000" stroke-width="2" fill="#ffbbb1"/><use xlink:href="#a" transform="matrix(1,0,0,1,245,325) translate(28.82716049382716 39.65277777777778)"/><path d="M320 320h80v80h-80z" stroke="#000" stroke-width="2" fill="#ffbbb1"/><use xlink:href="#b" transform="matrix(1,0,0,1,325,325) translate(28.82716049382716 39.65277777777778)"/><path d="M400 320h80v80h-80z" stroke="#000" stroke-width="2" fill="#ffbbb1"/><use xlink:href="#a" transform="matrix(1,0,0,1,405,325) translate(28.82716049382716 39.65277777777778)"/><path d="M480 320h80v80h-80z" stroke="#000" stroke-width="2" fill="#ffbbb1"/><use xlink:href="#a" transform="matrix(1,0,0,1,485,325) translate(28.82716049382716 39.65277777777778)"/><path d="M560 320h80v80h-80z" stroke="#000" stroke-width="2" fill="#ffbbb1"/><use xlink:href="#a" transform="matrix(1,0,0,1,565,325) translate(28.82716049382716 39.65277777777778)"/><path d="M640 320h80v80h-80z" stroke="#000" stroke-width="2" fill="#ffbbb1"/><use xlink:href="#c" transform="matrix(1,0,0,1,645,325) translate(28.82716049382716 39.65277777777778)"/><path d="M720 320h80v80h-80z" stroke="#000" stroke-width="2" fill="#ffbbb1"/><use xlink:href="#a" transform="matrix(1,0,0,1,725,325) translate(28.82716049382716 39.65277777777778)"/><path d="M800 320h80v80h-80z" stroke="#000" stroke-width="2" fill="#ffbbb1"/><use xlink:href="#a" transform="matrix(1,0,0,1,805,325) translate(28.82716049382716 39.65277777777778)"/><path d="M880 320h80v80h-80z" stroke="#000" stroke-width="2" fill="#ffbbb1"/><use xlink:href="#d" transform="matrix(1,0,0,1,885,325) translate(28.82716049382716 39.65277777777778)"/><path d="M960 320h80v80h-80z" stroke="#000" stroke-width="2" fill="#ffbbb1"/><use xlink:href="#a" transform="matrix(1,0,0,1,965,325) translate(28.82716049382716 39.65277777777778)"/><path d="M1040 320h80v80h-80z" stroke="#000" stroke-width="2" fill="#ffbbb1"/><use xlink:href="#e" transform="matrix(1,0,0,1,1045,325) translate(28.82716049382716 39.65277777777778)"/><path d="M1120 320h80v80h-80z" stroke="#000" stroke-width="2" fill="#ffbbb1"/><use xlink:href="#a" transform="matrix(1,0,0,1,1125,325) translate(28.82716049382716 39.65277777777778)"/><path d="M160 480h80v80h-80z" stroke="#000" stroke-width="2" fill="#c7e8ac"/><use xlink:href="#b" transform="matrix(1,0,0,1,165,485) translate(28.82716049382716 39.65277777777778)"/><path d="M240 480h80v80h-80z" stroke="#000" stroke-width="2" fill="#c7e8ac"/><use xlink:href="#a" transform="matrix(1,0,0,1,245,485) translate(28.82716049382716 39.65277777777778)"/><path d="M320 480h80v80h-80z" stroke="#000" stroke-width="2" fill="#c7e8ac"/><use xlink:href="#a" transform="matrix(1,0,0,1,325,485) translate(28.82716049382716 39.65277777777778)"/><path d="M400 480h80v80h-80z" stroke="#000" stroke-width="2" fill="#c7e8ac"/><use xlink:href="#a" transform="matrix(1,0,0,1,405,485) translate(28.82716049382716 39.65277777777778)"/><path d="M480 480h80v80h-80z" stroke="#000" stroke-width="2" fill="#c7e8ac"/><use xlink:href="#f" transform="matrix(1,0,0,1,485,485) translate(28.82716049382716 39.65277777777778)"/><path d="M560 480h80v80h-80z" stroke="#000" stroke-width="2" fill="#c7e8ac"/><use xlink:href="#g" transform="matrix(1,0,0,1,565,485) translate(28.82716049382716 39.65277777777778)"/><path d="M640 480h80v80h-80z" stroke="#000" stroke-width="2" fill="#c7e8ac"/><use xlink:href="#a" transform="matrix(1,0,0,1,645,485) translate(28.82716049382716 39.65277777777778)"/><path d="M720 480h80v80h-80z" stroke="#000" stroke-width="2" fill="#c7e8ac"/><use xlink:href="#a" transform="matrix(1,0,0,1,725,485) translate(28.82716049382716 39.65277777777778)"/><path d="M800 480h80v80h-80z" stroke="#000" stroke-width="2" fill="#c7e8ac"/><use xlink:href="#b" transform="matrix(1,0,0,1,805,485) translate(28.82716049382716 39.65277777777778)"/><path d="M880 480h80v80h-80z" stroke="#000" stroke-width="2" fill="#c7e8ac"/><use xlink:href="#a" transform="matrix(1,0,0,1,885,485) translate(28.82716049382716 39.65277777777778)"/><path d="M960 480h80v80h-80z" stroke="#000" stroke-width="2" fill="#c7e8ac"/><use xlink:href="#a" transform="matrix(1,0,0,1,965,485) translate(28.82716049382716 39.65277777777778)"/><path d="M1040 480h80v80h-80z" stroke="#000" stroke-width="2" fill="#c7e8ac"/><use xlink:href="#a" transform="matrix(1,0,0,1,1045,485) translate(28.82716049382716 39.65277777777778)"/><path d="M1120 480h80v80h-80z" stroke="#000" stroke-width="2" fill="#c7e8ac"/><use xlink:href="#a" transform="matrix(1,0,0,1,1125,485) translate(28.82716049382716 39.65277777777778)"/><path d="M802.5 560H1280v95.14M802.56 560H800" stroke="#834187" stroke-width="5" fill="none"/><path d="M1280 671.9l-4.64-14.26h9.28z" stroke="#834187" stroke-width="5" fill="#834187"/><path d="M1200 720h80.87v40H1200z" fill="#fff" fill-opacity="0"/><path d="M1235.2 740.6h-32.55v-3.64h32.54v3.65m0 11.06h-32.55V748h32.54v3.66M1279.5 740.06c0 9.5-3.48 19-12.5 19-9.44 0-12.47-10.28-12.47-19.34 0-9.77 3.8-18.78 12.7-18.78 7.24 0 12.27 7.8 12.27 19.12m-5.3.27c0-11.5-2.44-17.95-7.3-17.95-4.58 0-7.07 6.52-7.07 17.73 0 11.23 2.43 17.52 7.18 17.52 4.7 0 7.2-6.35 7.2-17.3"/><defs><path d="M101-251c68 0 84 54 84 127C185-50 166 4 99 4S15-52 14-124c-1-75 17-127 87-127zm-1 216c37-5 36-46 36-89s4-89-36-89c-39 0-36 45-36 89 0 43-3 85 36 89" id="h"/><use transform="matrix(0.06172839506172839,0,0,0.06172839506172839,0,0)" xlink:href="#h" id="a"/><path d="M23 0v-37h61v-169l-59 37v-38l62-41h46v211h57V0H23" id="i"/><use transform="matrix(0.06172839506172839,0,0,0.06172839506172839,0,0)" xlink:href="#i" id="b"/><path d="M99-251c69 0 84 53 88 123 5 99-61 162-144 118-15-8-21-25-26-45l46-6c4 31 50 33 63 7 7-15 12-36 12-60-9 18-29 28-54 28-48 0-72-32-72-82 0-55 31-83 87-83zm-1 128c24 0 37-16 37-39 0-27-10-51-37-51-25 0-35 19-35 45 0 25 10 45 35 45" id="j"/><use transform="matrix(0.06172839506172839,0,0,0.06172839506172839,0,0)" xlink:href="#j" id="c"/><path d="M115-159c48 0 72 30 72 78 0 54-30 85-83 85-64 0-91-50-91-122 0-98 58-163 141-120 15 8 21 24 27 44l-47 6c-5-31-48-31-61-4-7 14-11 33-11 60 9-17 28-27 53-27zM102-35c24 0 36-20 36-45s-11-43-37-43c-23 0-36 14-36 38 0 27 11 50 37 50" id="k"/><use transform="matrix(0.06172839506172839,0,0,0.06172839506172839,0,0)" xlink:href="#k" id="d"/><path d="M165-50V0h-47v-50H5v-38l105-160h55v161h33v37h-33zm-47-37l2-116L46-87h72" id="l"/><use transform="matrix(0.06172839506172839,0,0,0.06172839506172839,0,0)" xlink:href="#l" id="e"/><path d="M139-81c0-46-55-55-73-27H18l9-140h149v37H72l-4 63c44-38 133-4 122 66C201 21 21 35 11-62l49-4c5 18 15 30 39 30 26 0 40-18 40-45" id="m"/><use transform="matrix(0.06172839506172839,0,0,0.06172839506172839,0,0)" xlink:href="#m" id="f"/><path d="M128-127c34 4 56 21 59 58 7 91-148 94-172 28-4-9-6-17-7-26l51-5c1 24 16 35 40 36 23 0 39-12 38-36-1-31-31-36-65-34v-40c32 2 59-3 59-33 0-20-13-33-34-33s-33 13-35 32l-50-3c6-44 37-68 86-68 50 0 83 20 83 66 0 35-22 52-53 58" id="n"/><use transform="matrix(0.06172839506172839,0,0,0.06172839506172839,0,0)" xlink:href="#n" id="g"/></defs></g></svg>