<svg xmlns="http://www.w3.org/2000/svg" xmlns:xlink="http://www.w3.org/1999/xlink" xmlns:lucid="lucid" width="1186" height="641.82"><g transform="translate(-140 -140)" lucid:page-tab-id="vaiWEGx5O8sB"><path d="M160 160h80v80h-80z" stroke="#000" stroke-width="2" fill="#c7e8ac"/><use xlink:href="#a" transform="matrix(1,0,0,1,165,165) translate(28.82716049382716 39.65277777777778)"/><path d="M240 160h80v80h-80z" stroke="#000" stroke-width="2" fill="#c7e8ac"/><use xlink:href="#b" transform="matrix(1,0,0,1,245,165) translate(28.82716049382716 39.65277777777778)"/><path d="M320 160h80v80h-80z" stroke="#000" stroke-width="2" fill="#c7e8ac"/><use xlink:href="#b" transform="matrix(1,0,0,1,325,165) translate(28.82716049382716 39.65277777777778)"/><path d="M400 160h80v80h-80z" stroke="#000" stroke-width="2" fill="#c7e8ac"/><use xlink:href="#b" transform="matrix(1,0,0,1,405,165) translate(28.82716049382716 39.65277777777778)"/><path d="M480 160h80v80h-80z" stroke="#000" stroke-width="2" fill="#c7e8ac"/><use xlink:href="#c" transform="matrix(1,0,0,1,485,165) translate(28.82716049382716 39.65277777777778)"/><path d="M560 160h80v80h-80z" stroke="#000" stroke-width="2" fill="#c7e8ac"/><use xlink:href="#d" transform="matrix(1,0,0,1,565,165) translate(28.82716049382716 39.65277777777778)"/><path d="M640 160h80v80h-80z" stroke="#000" stroke-width="2" fill="#c7e8ac"/><use xlink:href="#b" transform="matrix(1,0,0,1,645,165) translate(28.82716049382716 39.65277777777778)"/><path d="M720 160h80v80h-80z" stroke="#000" stroke-width="2" fill="#c7e8ac"/><use xlink:href="#b" transform="matrix(1,0,0,1,725,165) translate(28.82716049382716 39.65277777777778)"/><path d="M800 160h80v80h-80z" stroke="#000" stroke-width="2" fill="#c7e8ac"/><use xlink:href="#a" transform="matrix(1,0,0,1,805,165) translate(28.82716049382716 39.65277777777778)"/><path d="M880 160h80v80h-80z" stroke="#000" stroke-width="2" fill="#c7e8ac"/><use xlink:href="#b" transform="matrix(1,0,0,1,885,165) translate(28.82716049382716 39.65277777777778)"/><path d="M960 160h80v80h-80z" stroke="#000" stroke-width="2" fill="#c7e8ac"/><use xlink:href="#b" transform="matrix(1,0,0,1,965,165) translate(28.82716049382716 39.65277777777778)"/><path d="M1040 160h80v80h-80z" stroke="#000" stroke-width="2" fill="#c7e8ac"/><use xlink:href="#b" transform="matrix(1,0,0,1,1045,165) translate(28.82716049382716 39.65277777777778)"/><path d="M1120 160h80v80h-80z" stroke="#000" stroke-width="2" fill="#c7e8ac"/><use xlink:href="#b" transform="matrix(1,0,0,1,1125,165) translate(28.82716049382716 39.65277777777778)"/><path d="M160 320h80v80h-80z" stroke="#000" stroke-width="2" fill="#c1e4f7"/><use xlink:href="#d" transform="matrix(1,0,0,1,165,325) translate(28.82716049382716 39.65277777777778)"/><path d="M240 320h80v80h-80z" stroke="#000" stroke-width="2" fill="#c1e4f7"/><use xlink:href="#b" transform="matrix(1,0,0,1,245,325) translate(28.82716049382716 39.65277777777778)"/><path d="M320 320h80v80h-80z" stroke="#000" stroke-width="2" fill="#c1e4f7"/><use xlink:href="#b" transform="matrix(1,0,0,1,325,325) translate(28.82716049382716 39.65277777777778)"/><path d="M400 320h80v80h-80z" stroke="#000" stroke-width="2" fill="#c1e4f7"/><use xlink:href="#b" transform="matrix(1,0,0,1,405,325) translate(28.82716049382716 39.65277777777778)"/><path d="M480 320h80v80h-80z" stroke="#000" stroke-width="2" fill="#c1e4f7"/><use xlink:href="#e" transform="matrix(1,0,0,1,485,325) translate(28.82716049382716 39.65277777777778)"/><path d="M560 320h80v80h-80z" stroke="#000" stroke-width="2" fill="#c1e4f7"/><use xlink:href="#b" transform="matrix(1,0,0,1,565,325) translate(28.82716049382716 39.65277777777778)"/><path d="M640 320h80v80h-80z" stroke="#000" stroke-width="2" fill="#c1e4f7"/><use xlink:href="#b" transform="matrix(1,0,0,1,645,325) translate(28.82716049382716 39.65277777777778)"/><path d="M720 320h80v80h-80z" stroke="#000" stroke-width="2" fill="#c1e4f7"/><use xlink:href="#a" transform="matrix(1,0,0,1,725,325) translate(28.82716049382716 39.65277777777778)"/><path d="M800 320h80v80h-80z" stroke="#000" stroke-width="2" fill="#c1e4f7"/><use xlink:href="#b" transform="matrix(1,0,0,1,805,325) translate(28.82716049382716 39.65277777777778)"/><path d="M880 320h80v80h-80z" stroke="#000" stroke-width="2" fill="#c1e4f7"/><use xlink:href="#a" transform="matrix(1,0,0,1,885,325) translate(28.82716049382716 39.65277777777778)"/><path d="M960 320h80v80h-80z" stroke="#000" stroke-width="2" fill="#c1e4f7"/><use xlink:href="#b" transform="matrix(1,0,0,1,965,325) translate(28.82716049382716 39.65277777777778)"/><path d="M1040 320h80v80h-80z" stroke="#000" stroke-width="2" fill="#c1e4f7"/><use xlink:href="#b" transform="matrix(1,0,0,1,1045,325) translate(28.82716049382716 39.65277777777778)"/><path d="M1120 320h80v80h-80z" stroke="#000" stroke-width="2" fill="#c1e4f7"/><use xlink:href="#b" transform="matrix(1,0,0,1,1125,325) translate(28.82716049382716 39.65277777777778)"/><path d="M160 480h80v80h-80z" stroke="#000" stroke-width="2" fill="#c7e8ac"/><use xlink:href="#a" transform="matrix(1,0,0,1,165,485) translate(28.82716049382716 39.65277777777778)"/><path d="M240 480h80v80h-80z" stroke="#000" stroke-width="2" fill="#c7e8ac"/><use xlink:href="#b" transform="matrix(1,0,0,1,245,485) translate(28.82716049382716 39.65277777777778)"/><path d="M320 480h80v80h-80z" stroke="#000" stroke-width="2" fill="#c7e8ac"/><use xlink:href="#b" transform="matrix(1,0,0,1,325,485) translate(28.82716049382716 39.65277777777778)"/><path d="M400 480h80v80h-80z" stroke="#000" stroke-width="2" fill="#c7e8ac"/><use xlink:href="#b" transform="matrix(1,0,0,1,405,485) translate(28.82716049382716 39.65277777777778)"/><path d="M480 480h80v80h-80z" stroke="#000" stroke-width="2" fill="#c7e8ac"/><use xlink:href="#c" transform="matrix(1,0,0,1,485,485) translate(28.82716049382716 39.65277777777778)"/><path d="M560 480h80v80h-80z" stroke="#000" stroke-width="2" fill="#c7e8ac"/><use xlink:href="#d" transform="matrix(1,0,0,1,565,485) translate(28.82716049382716 39.65277777777778)"/><path d="M640 480h80v80h-80z" stroke="#000" stroke-width="2" fill="#c7e8ac"/><use xlink:href="#b" transform="matrix(1,0,0,1,645,485) translate(28.82716049382716 39.65277777777778)"/><path d="M720 480h80v80h-80z" stroke="#000" stroke-width="2" fill="#c7e8ac"/><use xlink:href="#b" transform="matrix(1,0,0,1,725,485) translate(28.82716049382716 39.65277777777778)"/><path d="M800 480h80v80h-80z" stroke="#000" stroke-width="2" fill="#c7e8ac"/><use xlink:href="#a" transform="matrix(1,0,0,1,805,485) translate(28.82716049382716 39.65277777777778)"/><path d="M880 480h80v80h-80z" stroke="#000" stroke-width="2" fill="#c7e8ac"/><use xlink:href="#b" transform="matrix(1,0,0,1,885,485) translate(28.82716049382716 39.65277777777778)"/><path d="M960 480h80v80h-80z" stroke="#000" stroke-width="2" fill="#c7e8ac"/><use xlink:href="#b" transform="matrix(1,0,0,1,965,485) translate(28.82716049382716 39.65277777777778)"/><path d="M1040 480h80v80h-80z" stroke="#000" stroke-width="2" fill="#c7e8ac"/><use xlink:href="#b" transform="matrix(1,0,0,1,1045,485) translate(28.82716049382716 39.65277777777778)"/><path d="M1120 480h80v80h-80z" stroke="#000" stroke-width="2" fill="#c7e8ac"/><use xlink:href="#b" transform="matrix(1,0,0,1,1125,485) translate(28.82716049382716 39.65277777777778)"/><path d="M160 560h80v80h-80z" stroke="#000" stroke-width="2" fill="#c1e4f7"/><use xlink:href="#d" transform="matrix(1,0,0,1,165,565) translate(28.82716049382716 39.65277777777778)"/><path d="M240 560h80v80h-80z" stroke="#000" stroke-width="2" fill="#c1e4f7"/><use xlink:href="#b" transform="matrix(1,0,0,1,245,565) translate(28.82716049382716 39.65277777777778)"/><path d="M320 560h80v80h-80z" stroke="#000" stroke-width="2" fill="#c1e4f7"/><use xlink:href="#b" transform="matrix(1,0,0,1,325,565) translate(28.82716049382716 39.65277777777778)"/><path d="M400 560h80v80h-80z" stroke="#000" stroke-width="2" fill="#c1e4f7"/><use xlink:href="#b" transform="matrix(1,0,0,1,405,565) translate(28.82716049382716 39.65277777777778)"/><path d="M480 560h80v80h-80z" stroke="#000" stroke-width="2" fill="#c1e4f7"/><use xlink:href="#e" transform="matrix(1,0,0,1,485,565) translate(28.82716049382716 39.65277777777778)"/><path d="M560 560h80v80h-80z" stroke="#000" stroke-width="2" fill="#c1e4f7"/><use xlink:href="#b" transform="matrix(1,0,0,1,565,565) translate(28.82716049382716 39.65277777777778)"/><path d="M640 560h80v80h-80z" stroke="#000" stroke-width="2" fill="#c1e4f7"/><use xlink:href="#b" transform="matrix(1,0,0,1,645,565) translate(28.82716049382716 39.65277777777778)"/><path d="M720 560h80v80h-80z" stroke="#000" stroke-width="2" fill="#c1e4f7"/><use xlink:href="#a" transform="matrix(1,0,0,1,725,565) translate(28.82716049382716 39.65277777777778)"/><path d="M800 560h80v80h-80z" stroke="#000" stroke-width="2" fill="#c1e4f7"/><use xlink:href="#b" transform="matrix(1,0,0,1,805,565) translate(28.82716049382716 39.65277777777778)"/><path d="M880 560h80v80h-80z" stroke="#000" stroke-width="2" fill="#c1e4f7"/><use xlink:href="#a" transform="matrix(1,0,0,1,885,565) translate(28.82716049382716 39.65277777777778)"/><path d="M960 560h80v80h-80z" stroke="#000" stroke-width="2" fill="#c1e4f7"/><use xlink:href="#b" transform="matrix(1,0,0,1,965,565) translate(28.82716049382716 39.65277777777778)"/><path d="M1040 560h80v80h-80z" stroke="#000" stroke-width="2" fill="#c1e4f7"/><use xlink:href="#b" transform="matrix(1,0,0,1,1045,565) translate(28.82716049382716 39.65277777777778)"/><path d="M1120 560h80v80h-80z" stroke="#000" stroke-width="2" fill="#c1e4f7"/><use xlink:href="#b" transform="matrix(1,0,0,1,1125,565) translate(28.82716049382716 39.65277777777778)"/><path d="M802.5 560H1280v95.14M802.56 560H800" stroke="#834187" stroke-width="5" fill="none"/><path d="M1280 671.9l-4.64-14.26h9.28z" stroke="#834187" stroke-width="5" fill="#834187"/><path d="M900 720h380v41.82H900z" fill="#fff" fill-opacity="0"/><path d="M914.14 760.28l-.56.75c-7.35-4.2-11.35-12.05-11.35-19.96 0-8.6 4.05-15.3 11.5-19.72l.4.74c-6.46 5.53-7.9 9.85-7.9 18.83 0 8.65 1.4 13.9 7.9 19.35M933.8 752.8H921v-.7c3.44-.2 4.42-1.17 4.42-3.73V727.5c0-1.6-.42-2.3-1.4-2.3-.46 0-1.26.24-2.1.57l-1.25.46v-.65l8.33-4.23.42.14v27.76c0 2 .93 2.83 4.4 2.83v.7M958.56 741.02c0 1.5-1.26 2.8-2.75 2.8-1.52 0-2.82-1.4-2.82-2.8s1.3-2.8 2.83-2.8c1.5 0 2.76 1.32 2.76 2.8M975.58 729.07l-.74-.18c1.35-4.43 4.28-7.55 9.1-7.55 4.34 0 7.27 2.56 7.27 6.37 0 2.23-1.2 4.56-4.32 6.42 2.05.88 2.9 1.44 3.87 2.47 1.3 1.45 2.04 3.6 2.04 6 0 2.47-.8 4.75-2.15 6.52-2.23 2.97-6.65 4.32-10.8 4.32-3.38 0-5.2-.97-5.2-2.65 0-.98.84-1.68 1.9-1.68.8 0 1.54.28 2.85 1.2 1.72 1.22 2.7 1.45 4 1.45 3.44 0 6.04-3.16 6.04-7.12 0-3.53-1.62-5.8-4.83-6.74-1.02-.32-2.1-.46-4.74-.46v-.65c1.77-.6 2.98-1.12 3.9-1.68 2.3-1.3 3.78-3.4 3.78-6.23 0-3.18-1.96-4.76-5.03-4.76-2.87 0-5 1.5-6.92 4.93M997.4 722.1l.55-.75c7.12 4.28 11.35 12.05 11.35 19.95 0 8.6-4.1 15.2-11.48 19.73l-.42-.75c6.6-5.44 7.9-9.8 7.9-18.84 0-8.7-1.16-14.04-7.9-19.35M1051.5 742.56h-12.15v12.14h-3.07v-12.14h-12.14v-3.07h12.14v-12.15h3.07v12.14h12.14v3.06M1078.23 760.28l-.55.75c-7.35-4.2-11.35-12.05-11.35-19.96 0-8.6 4.04-15.3 11.5-19.72l.4.74c-6.46 5.53-7.9 9.85-7.9 18.83 0 8.65 1.4 13.9 7.9 19.35M1100 721.12l-1.67 3.95c-.14.33-.5.6-1.26.6h-9.02l-1.86 3.96c6.64 1.26 8.97 2.28 11.62 5.95 1.2 1.68 1.62 3.44 1.62 5.9 0 4.48-1.4 7.36-4.55 9.68-2.2 1.6-4.76 2.28-7.92 2.28-3.5 0-5.9-1.1-5.9-2.88 0-1.16.78-1.77 2.1-1.77 1.06 0 1.94.22 3.43 1.43 1.3 1.07 2.38 1.5 3.3 1.5 3.27 0 6.3-3.87 6.3-7.87 0-2.97-1.03-5.3-3.13-6.97-2.18-1.78-5.44-3.27-9.9-3.27-.42 0-.56-.1-.56-.37 0-.1.05-.24.05-.24l5.07-11.02h9.63c1.07 0 1.5-.23 2.23-1.2M1122.7 741.02c0 1.5-1.26 2.8-2.74 2.8-1.54 0-2.84-1.4-2.84-2.8s1.3-2.8 2.84-2.8c1.48 0 2.74 1.32 2.74 2.8M1158.93 746.42l-2.5 6.37h-18.2v-.57l8.28-8.8c4.4-4.6 6.06-8.13 6.06-12.08 0-4.23-2.5-6.56-6.46-6.56-3.35 0-4.98 1.48-6.84 6.04l-.98-.23c.98-5.44 3.96-9.25 9.68-9.25 5.25 0 8.6 3.58 8.6 8.2 0 3.66-1.8 7.15-5.95 11.52l-7.67 8.2h10.9c1.94 0 2.92-.52 4.45-3.13M1161.54 722.1l.56-.75c7.1 4.28 11.35 12.05 11.35 19.95 0 8.6-4.1 15.2-11.5 19.73l-.4-.75c6.6-5.44 7.9-9.8 7.9-18.84 0-8.7-1.17-14.04-7.9-19.35M1218.24 737.9h-27.4v-3.06h27.4v3.07m0 9.3h-27.4v-3.06h27.4v3.07M1251.73 752.8h-12.84v-.7c3.43-.2 4.4-1.17 4.4-3.73V727.5c0-1.6-.4-2.3-1.4-2.3-.45 0-1.24.24-2.08.57l-1.26.46v-.65l8.33-4.23.4.14v27.76c0 2 .94 2.83 4.43 2.83v.7M1259.5 729.07l-.75-.18c1.35-4.43 4.28-7.55 9.12-7.55 4.32 0 7.25 2.56 7.25 6.37 0 2.23-1.2 4.56-4.32 6.42 2.04.88 2.88 1.44 3.86 2.47 1.3 1.45 2.04 3.6 2.04 6 0 2.47-.8 4.75-2.14 6.52-2.23 2.97-6.65 4.32-10.8 4.32-3.38 0-5.2-.97-5.2-2.65 0-.98.84-1.68 1.9-1.68.8 0 1.54.28 2.85 1.2 1.73 1.22 2.7 1.45 4 1.45 3.45 0 6.05-3.16 6.05-7.12 0-3.53-1.62-5.8-4.83-6.74-1.03-.32-2.1-.46-4.75-.46v-.65c1.77-.6 2.98-1.12 3.9-1.68 2.3-1.3 3.78-3.4 3.78-6.23 0-3.18-1.96-4.76-5.03-4.76-2.88 0-5.02 1.5-6.93 4.93"/><defs><path d="M23 0v-37h61v-169l-59 37v-38l62-41h46v211h57V0H23" id="f"/><use transform="matrix(0.06172839506172839,0,0,0.06172839506172839,0,0)" xlink:href="#f" id="a"/><path d="M101-251c68 0 84 54 84 127C185-50 166 4 99 4S15-52 14-124c-1-75 17-127 87-127zm-1 216c37-5 36-46 36-89s4-89-36-89c-39 0-36 45-36 89 0 43-3 85 36 89" id="g"/><use transform="matrix(0.06172839506172839,0,0,0.06172839506172839,0,0)" xlink:href="#g" id="b"/><path d="M139-81c0-46-55-55-73-27H18l9-140h149v37H72l-4 63c44-38 133-4 122 66C201 21 21 35 11-62l49-4c5 18 15 30 39 30 26 0 40-18 40-45" id="h"/><use transform="matrix(0.06172839506172839,0,0,0.06172839506172839,0,0)" xlink:href="#h" id="c"/><path d="M128-127c34 4 56 21 59 58 7 91-148 94-172 28-4-9-6-17-7-26l51-5c1 24 16 35 40 36 23 0 39-12 38-36-1-31-31-36-65-34v-40c32 2 59-3 59-33 0-20-13-33-34-33s-33 13-35 32l-50-3c6-44 37-68 86-68 50 0 83 20 83 66 0 35-22 52-53 58" id="i"/><use transform="matrix(0.06172839506172839,0,0,0.06172839506172839,0,0)" xlink:href="#i" id="d"/><path d="M182-182c0 78-84 86-111 141h115V0H12c-6-101 99-100 120-180 1-22-12-31-33-32-23 0-32 14-35 34l-49-3c5-45 32-70 84-70 51 0 83 22 83 69" id="j"/><use transform="matrix(0.06172839506172839,0,0,0.06172839506172839,0,0)" xlink:href="#j" id="e"/></defs></g></svg>