<svg xmlns="http://www.w3.org/2000/svg" xmlns:xlink="http://www.w3.org/1999/xlink" xmlns:lucid="lucid" width="814.64" height="462.28"><g transform="translate(-140 -116.71650795990303)" lucid:page-tab-id="faE5INufuaK2"><path d="M160 307.38v84c0 1.4 1.2 2.54 2.52 2.54h33.24c10.08 0 13.56 2.73 14.76 4.14.48.56 1.2.94 1.92.94h15.12c.72 0 1.44-.38 1.92-.94 1.2-1.4 4.68-4.14 14.76-4.14h33.24c1.32 0 2.52-1.13 2.52-2.55v-84c0-1.4-1.2-2.53-2.52-2.53H162.52c-1.32 0-2.52 1.13-2.52 2.54z" stroke="#000" stroke-opacity="0" stroke-width="3" fill="#e5e5e5"/><path d="M170.2 312.47h99.6v73.8h-99.6z" stroke="#000" stroke-opacity="0" stroke-width="3" fill="#fff"/><path d="M274.02 310.33C273.47 310 261.5 300 243.38 300c-14.6 0-21.07 7.73-23.38 11.64-2.3-3.9-8.78-11.64-23.38-11.64-18.12 0-30.1 10-30.64 10.33l-.87.8v75.72h109.8v-75.73l-.88-.8z" stroke="#000" stroke-opacity="0" stroke-width="3" fill="#ffed99"/><path d="M196.97 302.54c-17.6 0-29.3 9.8-29.3 9.8v71.42s15.8-3.18 29.5-3.18c11 0 22.1 5.7 22.1 5.7v-71.5s-4.7-12.24-22.3-12.24zm46.06 0c17.6 0 29.3 9.8 29.3 9.8v71.42s-15.8-3.18-29.5-3.18c-11 0-22.1 5.7-22.1 5.7v-71.5s4.7-12.24 22.3-12.24z" stroke="#000" stroke-opacity="0" stroke-width="3" fill="#fff"/><path d="M190.65 305.55c-10.44 1.4-17.92 6.26-20.44 8.04v67.1c4.23-.77 12.23-2 20.45-2.47v-72.68zm53.6-.46h-.88c-13.85 0-18.6 8.25-19.55 10.18v67.04c4.3-1.78 11.77-4.32 19.32-4.32.37 0 .75.07 1.12.07V305.1z" stroke="#000" stroke-opacity="0" stroke-width="3" fill="#fff" fill-opacity=".2"/><path d="M172.77 318.1c7.74-3.9 15.2-5.58 23.9-5.22 7.93.3 13.32 2.9 16.9 5.78v3.42c-3.1-3.06-8.4-6.37-16.9-6.67-10.68-.42-19.1 3.07-23.9 5.72v-3zm0 10.24c7.74-3.97 15.2-5.6 23.9-5.3 7.93.3 13.32 2.9 16.9 5.78v3.43c-3.1-3.07-8.4-6.3-16.9-6.68-10.68-.42-19.1 3.07-23.9 5.72v-2.96zm0 10.17c7.74-3.96 15.2-5.58 23.9-5.28 7.93.3 13.32 2.94 16.9 5.83v3.37c-3.1-3.07-8.4-6.32-16.9-6.68-10.68-.36-19.1 3.13-23.9 5.72v-2.95zm0 10.18c7.74-3.97 15.2-5.6 23.9-5.3 7.93.3 13.32 2.95 16.9 5.84v3.43c-3.1-3.07-8.4-6.38-16.9-6.68-10.68-.42-19.1 3.07-23.9 5.66v-2.95zm0 10.17c7.74-3.9 15.2-5.6 23.9-5.3 7.93.3 13.32 2.95 16.9 5.84v3.42c-3.1-3.07-8.4-6.38-16.9-6.68-10.68-.42-19.1 3.07-23.9 5.66v-2.95zm0 10.17c7.74-3.9 15.2-5.6 23.9-5.24 7.93.3 13.32 2.9 16.9 5.78V373c-3.1-3.08-8.4-6.4-16.9-6.7-10.68-.4-19.1 3.08-23.9 5.66v-2.94zm94.46-50.9c-7.74-3.92-15.2-5.6-23.9-5.24-7.93.3-13.32 2.9-16.9 5.78v3.42c3.1-3.06 8.4-6.37 16.9-6.67 10.68-.42 19.1 3.07 23.9 5.72v-3zm0 10.22c-7.74-3.97-15.2-5.6-23.9-5.3-7.93.3-13.32 2.9-16.9 5.78v3.43c3.1-3.07 8.4-6.3 16.9-6.68 10.68-.42 19.1 3.07 23.9 5.72v-2.96zm0 10.17c-7.74-3.96-15.2-5.58-23.9-5.28-7.93.3-13.32 2.94-16.9 5.83v3.37c3.1-3.07 8.4-6.32 16.9-6.68 10.68-.36 19.1 3.13 23.9 5.72v-2.95zm0 10.18c-7.74-3.97-15.2-5.6-23.9-5.3-7.93.3-13.32 2.95-16.9 5.84v3.43c3.1-3.07 8.4-6.38 16.9-6.68 10.68-.42 19.1 3.07 23.9 5.66v-2.95zm-7.65 7.04c-3.97-.96-11.15-2.35-16.25-2.17-7.93.3-13.32 2.95-16.9 5.84v3.42c3.1-3.07 8.4-6.38 16.9-6.68 4.92-.18 8.98.3 13.7 1.56l2.55-1.98z" stroke="#000" stroke-opacity="0" stroke-width="3" fill="#ff923f" fill-opacity=".4"/><path d="M190.65 305.55c-10.44 1.4-17.92 6.26-20.44 8.04v67.1c4.23-.77 12.23-2 20.45-2.47v-72.68zm53.6-.46h-.88c-13.85 0-18.6 8.25-19.55 10.18v67.04c4.3-1.78 11.77-4.32 19.32-4.32.37 0 .75.07 1.12.07V305.1z" stroke="#000" stroke-opacity="0" stroke-width="3" fill="#fff" fill-opacity=".2"/><path d="M400 227.38v84c0 1.4 1.2 2.54 2.52 2.54h33.24c10.08 0 13.56 2.73 14.76 4.14.48.56 1.2.94 1.92.94h15.12c.72 0 1.44-.38 1.92-.94 1.2-1.4 4.68-4.14 14.76-4.14h33.24c1.32 0 2.52-1.13 2.52-2.55v-84c0-1.4-1.2-2.53-2.52-2.53H402.52c-1.32 0-2.52 1.13-2.52 2.54z" stroke="#000" stroke-opacity="0" stroke-width="3" fill="#0072c6"/><path d="M410.2 232.47h99.6v73.8h-99.6z" stroke="#000" stroke-opacity="0" stroke-width="3" fill="#e5e5e5"/><path d="M514.02 230.33C513.47 230 501.5 220 483.38 220c-14.6 0-21.07 7.73-23.38 11.64-2.3-3.9-8.78-11.64-23.38-11.64-18.12 0-30.1 10-30.64 10.33l-.87.8v75.72h109.8v-75.73l-.88-.8z" stroke="#000" stroke-opacity="0" stroke-width="3" fill="#7a7a7a"/><path d="M436.97 222.54c-17.6 0-29.3 9.8-29.3 9.8v71.42s15.8-3.18 29.5-3.18c11 0 22.1 5.7 22.1 5.7v-71.5s-4.7-12.24-22.3-12.24zm46.06 0c17.6 0 29.3 9.8 29.3 9.8v71.42s-15.8-3.18-29.5-3.18c-11 0-22.1 5.7-22.1 5.7v-71.5s4.7-12.24 22.3-12.24z" stroke="#000" stroke-opacity="0" stroke-width="3" fill="#e5e5e5"/><path d="M430.65 225.55c-10.44 1.4-17.92 6.26-20.44 8.04v67.1c4.23-.77 12.23-2 20.45-2.47v-72.68zm53.6-.46h-.88c-13.85 0-18.6 8.25-19.55 10.18v67.04c4.3-1.78 11.77-4.32 19.32-4.32.37 0 .75.07 1.12.07V225.1z" stroke="#000" stroke-opacity="0" stroke-width="3" fill="#fff" fill-opacity=".2"/><path d="M412.77 238.1c7.74-3.9 15.2-5.58 23.9-5.22 7.93.3 13.32 2.9 16.9 5.78v3.42c-3.1-3.06-8.4-6.37-16.9-6.67-10.68-.42-19.1 3.07-23.9 5.72v-3zm0 10.24c7.74-3.97 15.2-5.6 23.9-5.3 7.93.3 13.32 2.9 16.9 5.78v3.43c-3.1-3.07-8.4-6.3-16.9-6.68-10.68-.42-19.1 3.07-23.9 5.72v-2.96zm0 10.17c7.74-3.96 15.2-5.58 23.9-5.28 7.93.3 13.32 2.94 16.9 5.83v3.37c-3.1-3.07-8.4-6.32-16.9-6.68-10.68-.36-19.1 3.13-23.9 5.72v-2.95zm0 10.18c7.74-3.97 15.2-5.6 23.9-5.3 7.93.3 13.32 2.95 16.9 5.84v3.43c-3.1-3.07-8.4-6.38-16.9-6.68-10.68-.42-19.1 3.07-23.9 5.66v-2.95zm0 10.17c7.74-3.9 15.2-5.6 23.9-5.3 7.93.3 13.32 2.95 16.9 5.84v3.42c-3.1-3.07-8.4-6.38-16.9-6.68-10.68-.42-19.1 3.07-23.9 5.66v-2.95zm0 10.17c7.74-3.9 15.2-5.6 23.9-5.24 7.93.3 13.32 2.9 16.9 5.78V293c-3.1-3.08-8.4-6.4-16.9-6.7-10.68-.4-19.1 3.08-23.9 5.66v-2.94zm94.46-50.9c-7.74-3.92-15.2-5.6-23.9-5.24-7.93.3-13.32 2.9-16.9 5.78v3.42c3.1-3.06 8.4-6.37 16.9-6.67 10.68-.42 19.1 3.07 23.9 5.72v-3zm0 10.22c-7.74-3.97-15.2-5.6-23.9-5.3-7.93.3-13.32 2.9-16.9 5.78v3.43c3.1-3.07 8.4-6.3 16.9-6.68 10.68-.42 19.1 3.07 23.9 5.72v-2.96zm0 10.17c-7.74-3.96-15.2-5.58-23.9-5.28-7.93.3-13.32 2.94-16.9 5.83v3.37c3.1-3.07 8.4-6.32 16.9-6.68 10.68-.36 19.1 3.13 23.9 5.72v-2.95zm0 10.18c-7.74-3.97-15.2-5.6-23.9-5.3-7.93.3-13.32 2.95-16.9 5.84v3.43c3.1-3.07 8.4-6.38 16.9-6.68 10.68-.42 19.1 3.07 23.9 5.66v-2.95zm-7.65 7.04c-3.97-.96-11.15-2.35-16.25-2.17-7.93.3-13.32 2.95-16.9 5.84v3.42c3.1-3.07 8.4-6.38 16.9-6.68 4.92-.18 8.98.3 13.7 1.56l2.55-1.98z" stroke="#000" stroke-opacity="0" stroke-width="3" fill="#231f20" fill-opacity=".4"/><path d="M430.65 225.55c-10.44 1.4-17.92 6.26-20.44 8.04v67.1c4.23-.77 12.23-2 20.45-2.47v-72.68zm53.6-.46h-.88c-13.85 0-18.6 8.25-19.55 10.18v67.04c4.3-1.78 11.77-4.32 19.32-4.32.37 0 .75.07 1.12.07V225.1z" stroke="#000" stroke-opacity="0" stroke-width="3" fill="#fff" fill-opacity=".2"/><path d="M560 167.38v84c0 1.4 1.2 2.54 2.52 2.54h33.24c10.08 0 13.56 2.73 14.76 4.14.48.56 1.2.94 1.92.94h15.12c.72 0 1.44-.38 1.92-.94 1.2-1.4 4.68-4.14 14.76-4.14h33.24c1.32 0 2.52-1.13 2.52-2.55v-84c0-1.4-1.2-2.53-2.52-2.53H562.52c-1.32 0-2.52 1.13-2.52 2.54z" stroke="#000" stroke-opacity="0" stroke-width="3" fill="#c7e8ac"/><path d="M570.2 172.47h99.6v73.8h-99.6z" stroke="#000" stroke-opacity="0" stroke-width="3" fill="#ffffcb"/><path d="M674.02 170.33C673.47 170 661.5 160 643.38 160c-14.6 0-21.07 7.73-23.38 11.64-2.3-3.9-8.78-11.64-23.38-11.64-18.12 0-30.1 10-30.64 10.33l-.87.8v75.72h109.8v-75.73l-.88-.8z" stroke="#000" stroke-opacity="0" stroke-width="3" fill="#fff060"/><path d="M596.97 162.54c-17.6 0-29.3 9.8-29.3 9.8v71.42s15.8-3.18 29.5-3.18c11 0 22.1 5.7 22.1 5.7v-71.5s-4.7-12.24-22.3-12.24zm46.06 0c17.6 0 29.3 9.8 29.3 9.8v71.42s-15.8-3.18-29.5-3.18c-11 0-22.1 5.7-22.1 5.7v-71.5s4.7-12.24 22.3-12.24z" stroke="#000" stroke-opacity="0" stroke-width="3" fill="#ffffcb"/><path d="M590.65 165.55c-10.44 1.4-17.92 6.26-20.44 8.04v67.1c4.23-.77 12.23-2 20.45-2.47v-72.68zm53.6-.46h-.88c-13.85 0-18.6 8.25-19.55 10.18v67.04c4.3-1.78 11.77-4.32 19.32-4.32.37 0 .75.07 1.12.07V165.1z" stroke="#000" stroke-opacity="0" stroke-width="3" fill="#ffffe5" fill-opacity=".2"/><path d="M572.77 178.1c7.74-3.9 15.2-5.58 23.9-5.22 7.93.3 13.32 2.9 16.9 5.78v3.42c-3.1-3.06-8.4-6.37-16.9-6.67-10.68-.42-19.1 3.07-23.9 5.72v-3zm0 10.24c7.74-3.97 15.2-5.6 23.9-5.3 7.93.3 13.32 2.9 16.9 5.78v3.43c-3.1-3.07-8.4-6.3-16.9-6.68-10.68-.42-19.1 3.07-23.9 5.72v-2.96zm0 10.17c7.74-3.96 15.2-5.58 23.9-5.28 7.93.3 13.32 2.94 16.9 5.83v3.37c-3.1-3.07-8.4-6.32-16.9-6.68-10.68-.36-19.1 3.13-23.9 5.72v-2.95zm0 10.18c7.74-3.97 15.2-5.6 23.9-5.3 7.93.3 13.32 2.95 16.9 5.84v3.43c-3.1-3.07-8.4-6.38-16.9-6.68-10.68-.42-19.1 3.07-23.9 5.66v-2.95zm0 10.17c7.74-3.9 15.2-5.6 23.9-5.3 7.93.3 13.32 2.95 16.9 5.84v3.42c-3.1-3.07-8.4-6.38-16.9-6.68-10.68-.42-19.1 3.07-23.9 5.66v-2.95zm0 10.17c7.74-3.9 15.2-5.6 23.9-5.24 7.93.3 13.32 2.9 16.9 5.78V233c-3.1-3.08-8.4-6.4-16.9-6.7-10.68-.4-19.1 3.08-23.9 5.66v-2.94zm94.46-50.9c-7.74-3.92-15.2-5.6-23.9-5.24-7.93.3-13.32 2.9-16.9 5.78v3.42c3.1-3.06 8.4-6.37 16.9-6.67 10.68-.42 19.1 3.07 23.9 5.72v-3zm0 10.22c-7.74-3.97-15.2-5.6-23.9-5.3-7.93.3-13.32 2.9-16.9 5.78v3.43c3.1-3.07 8.4-6.3 16.9-6.68 10.68-.42 19.1 3.07 23.9 5.72v-2.96zm0 10.17c-7.74-3.96-15.2-5.58-23.9-5.28-7.93.3-13.32 2.94-16.9 5.83v3.37c3.1-3.07 8.4-6.32 16.9-6.68 10.68-.36 19.1 3.13 23.9 5.72v-2.95zm0 10.18c-7.74-3.97-15.2-5.6-23.9-5.3-7.93.3-13.32 2.95-16.9 5.84v3.43c3.1-3.07 8.4-6.38 16.9-6.68 10.68-.42 19.1 3.07 23.9 5.66v-2.95zm-7.65 7.04c-3.97-.96-11.15-2.35-16.25-2.17-7.93.3-13.32 2.95-16.9 5.84v3.42c3.1-3.07 8.4-6.38 16.9-6.68 4.92-.18 8.98.3 13.7 1.56l2.55-1.98z" stroke="#000" stroke-opacity="0" stroke-width="3" fill="#ea9506" fill-opacity=".4"/><path d="M590.65 165.55c-10.44 1.4-17.92 6.26-20.44 8.04v67.1c4.23-.77 12.23-2 20.45-2.47v-72.68zm53.6-.46h-.88c-13.85 0-18.6 8.25-19.55 10.18v67.04c4.3-1.78 11.77-4.32 19.32-4.32.37 0 .75.07 1.12.07V165.1z" stroke="#000" stroke-opacity="0" stroke-width="3" fill="#ffffe5" fill-opacity=".2"/><path d="M560 307.38v84c0 1.4 1.2 2.54 2.52 2.54h33.24c10.08 0 13.56 2.73 14.76 4.14.48.56 1.2.94 1.92.94h15.12c.72 0 1.44-.38 1.92-.94 1.2-1.4 4.68-4.14 14.76-4.14h33.24c1.32 0 2.52-1.13 2.52-2.55v-84c0-1.4-1.2-2.53-2.52-2.53H562.52c-1.32 0-2.52 1.13-2.52 2.54z" stroke="#000" stroke-opacity="0" stroke-width="3" fill="#834187"/><path d="M570.2 312.47h99.6v73.8h-99.6z" stroke="#000" stroke-opacity="0" stroke-width="3" fill="#ffb4a6"/><path d="M674.02 310.33C673.47 310 661.5 300 643.38 300c-14.6 0-21.07 7.73-23.38 11.64-2.3-3.9-8.78-11.64-23.38-11.64-18.12 0-30.1 10-30.64 10.33l-.87.8v75.72h109.8v-75.73l-.88-.8z" stroke="#000" stroke-opacity="0" stroke-width="3" fill="#fd493b"/><path d="M596.97 302.54c-17.6 0-29.3 9.8-29.3 9.8v71.42s15.8-3.18 29.5-3.18c11 0 22.1 5.7 22.1 5.7v-71.5s-4.7-12.24-22.3-12.24zm46.06 0c17.6 0 29.3 9.8 29.3 9.8v71.42s-15.8-3.18-29.5-3.18c-11 0-22.1 5.7-22.1 5.7v-71.5s4.7-12.24 22.3-12.24z" stroke="#000" stroke-opacity="0" stroke-width="3" fill="#ffb4a6"/><path d="M590.65 305.55c-10.44 1.4-17.92 6.26-20.44 8.04v67.1c4.23-.77 12.23-2 20.45-2.47v-72.68zm53.6-.46h-.88c-13.85 0-18.6 8.25-19.55 10.18v67.04c4.3-1.78 11.77-4.32 19.32-4.32.37 0 .75.07 1.12.07V305.1z" stroke="#000" stroke-opacity="0" stroke-width="3" fill="#ffcec0" fill-opacity=".2"/><path d="M572.77 318.1c7.74-3.9 15.2-5.58 23.9-5.22 7.93.3 13.32 2.9 16.9 5.78v3.42c-3.1-3.06-8.4-6.37-16.9-6.67-10.68-.42-19.1 3.07-23.9 5.72v-3zm0 10.24c7.74-3.97 15.2-5.6 23.9-5.3 7.93.3 13.32 2.9 16.9 5.78v3.43c-3.1-3.07-8.4-6.3-16.9-6.68-10.68-.42-19.1 3.07-23.9 5.72v-2.96zm0 10.17c7.74-3.96 15.2-5.58 23.9-5.28 7.93.3 13.32 2.94 16.9 5.83v3.37c-3.1-3.07-8.4-6.32-16.9-6.68-10.68-.36-19.1 3.13-23.9 5.72v-2.95zm0 10.18c7.74-3.97 15.2-5.6 23.9-5.3 7.93.3 13.32 2.95 16.9 5.84v3.43c-3.1-3.07-8.4-6.38-16.9-6.68-10.68-.42-19.1 3.07-23.9 5.66v-2.95zm0 10.17c7.74-3.9 15.2-5.6 23.9-5.3 7.93.3 13.32 2.95 16.9 5.84v3.42c-3.1-3.07-8.4-6.38-16.9-6.68-10.68-.42-19.1 3.07-23.9 5.66v-2.95zm0 10.17c7.74-3.9 15.2-5.6 23.9-5.24 7.93.3 13.32 2.9 16.9 5.78V373c-3.1-3.08-8.4-6.4-16.9-6.7-10.68-.4-19.1 3.08-23.9 5.66v-2.94zm94.46-50.9c-7.74-3.92-15.2-5.6-23.9-5.24-7.93.3-13.32 2.9-16.9 5.78v3.42c3.1-3.06 8.4-6.37 16.9-6.67 10.68-.42 19.1 3.07 23.9 5.72v-3zm0 10.22c-7.74-3.97-15.2-5.6-23.9-5.3-7.93.3-13.32 2.9-16.9 5.78v3.43c3.1-3.07 8.4-6.3 16.9-6.68 10.68-.42 19.1 3.07 23.9 5.72v-2.96zm0 10.17c-7.74-3.96-15.2-5.58-23.9-5.28-7.93.3-13.32 2.94-16.9 5.83v3.37c3.1-3.07 8.4-6.32 16.9-6.68 10.68-.36 19.1 3.13 23.9 5.72v-2.95zm0 10.18c-7.74-3.97-15.2-5.6-23.9-5.3-7.93.3-13.32 2.95-16.9 5.84v3.43c3.1-3.07 8.4-6.38 16.9-6.68 10.68-.42 19.1 3.07 23.9 5.66v-2.95zm-7.65 7.04c-3.97-.96-11.15-2.35-16.25-2.17-7.93.3-13.32 2.95-16.9 5.84v3.42c3.1-3.07 8.4-6.38 16.9-6.68 4.92-.18 8.98.3 13.7 1.56l2.55-1.98z" stroke="#000" stroke-opacity="0" stroke-width="3" fill="#a60000" fill-opacity=".4"/><path d="M590.65 305.55c-10.44 1.4-17.92 6.26-20.44 8.04v67.1c4.23-.77 12.23-2 20.45-2.47v-72.68zm53.6-.46h-.88c-13.85 0-18.6 8.25-19.55 10.18v67.04c4.3-1.78 11.77-4.32 19.32-4.32.37 0 .75.07 1.12.07V305.1z" stroke="#000" stroke-opacity="0" stroke-width="3" fill="#ffcec0" fill-opacity=".2"/><path d="M400 387.38v84c0 1.4 1.2 2.54 2.52 2.54h33.24c10.08 0 13.56 2.73 14.76 4.14.48.56 1.2.94 1.92.94h15.12c.72 0 1.44-.38 1.92-.94 1.2-1.4 4.68-4.14 14.76-4.14h33.24c1.32 0 2.52-1.13 2.52-2.55v-84c0-1.4-1.2-2.53-2.52-2.53H402.52c-1.32 0-2.52 1.13-2.52 2.54z" stroke="#000" stroke-opacity="0" stroke-width="3" fill="#ffbbb1"/><path d="M410.2 392.47h99.6v73.8h-99.6z" stroke="#000" stroke-opacity="0" stroke-width="3" fill="#ffffd0"/><path d="M514.02 390.33C513.47 390 501.5 380 483.38 380c-14.6 0-21.07 7.73-23.38 11.64-2.3-3.9-8.78-11.64-23.38-11.64-18.12 0-30.1 10-30.64 10.33l-.87.8v75.72h109.8v-75.73l-.88-.8z" stroke="#000" stroke-opacity="0" stroke-width="3" fill="#ffc365"/><path d="M436.97 382.54c-17.6 0-29.3 9.8-29.3 9.8v71.42s15.8-3.18 29.5-3.18c11 0 22.1 5.7 22.1 5.7v-71.5s-4.7-12.24-22.3-12.24zm46.06 0c17.6 0 29.3 9.8 29.3 9.8v71.42s-15.8-3.18-29.5-3.18c-11 0-22.1 5.7-22.1 5.7v-71.5s4.7-12.24 22.3-12.24z" stroke="#000" stroke-opacity="0" stroke-width="3" fill="#ffffd0"/><path d="M430.65 385.55c-10.44 1.4-17.92 6.26-20.44 8.04v67.1c4.23-.77 12.23-2 20.45-2.47v-72.68zm53.6-.46h-.88c-13.85 0-18.6 8.25-19.55 10.18v67.04c4.3-1.78 11.77-4.32 19.32-4.32.37 0 .75.07 1.12.07V385.1z" stroke="#000" stroke-opacity="0" stroke-width="3" fill="#ffffea" fill-opacity=".2"/><path d="M412.77 398.1c7.74-3.9 15.2-5.58 23.9-5.22 7.93.3 13.32 2.9 16.9 5.78v3.42c-3.1-3.06-8.4-6.37-16.9-6.67-10.68-.42-19.1 3.07-23.9 5.72v-3zm0 10.24c7.74-3.97 15.2-5.6 23.9-5.3 7.93.3 13.32 2.9 16.9 5.78v3.43c-3.1-3.07-8.4-6.3-16.9-6.68-10.68-.42-19.1 3.07-23.9 5.72v-2.96zm0 10.17c7.74-3.96 15.2-5.58 23.9-5.28 7.93.3 13.32 2.94 16.9 5.83v3.37c-3.1-3.07-8.4-6.32-16.9-6.68-10.68-.36-19.1 3.13-23.9 5.72v-2.95zm0 10.18c7.74-3.97 15.2-5.6 23.9-5.3 7.93.3 13.32 2.95 16.9 5.84v3.43c-3.1-3.07-8.4-6.38-16.9-6.68-10.68-.42-19.1 3.07-23.9 5.66v-2.95zm0 10.17c7.74-3.9 15.2-5.6 23.9-5.3 7.93.3 13.32 2.95 16.9 5.84v3.42c-3.1-3.07-8.4-6.38-16.9-6.68-10.68-.42-19.1 3.07-23.9 5.66v-2.95zm0 10.17c7.74-3.9 15.2-5.6 23.9-5.24 7.93.3 13.32 2.9 16.9 5.78V453c-3.1-3.08-8.4-6.4-16.9-6.7-10.68-.4-19.1 3.08-23.9 5.66v-2.94zm94.46-50.9c-7.74-3.92-15.2-5.6-23.9-5.24-7.93.3-13.32 2.9-16.9 5.78v3.42c3.1-3.06 8.4-6.37 16.9-6.67 10.68-.42 19.1 3.07 23.9 5.72v-3zm0 10.22c-7.74-3.97-15.2-5.6-23.9-5.3-7.93.3-13.32 2.9-16.9 5.78v3.43c3.1-3.07 8.4-6.3 16.9-6.68 10.68-.42 19.1 3.07 23.9 5.72v-2.96zm0 10.17c-7.74-3.96-15.2-5.58-23.9-5.28-7.93.3-13.32 2.94-16.9 5.83v3.37c3.1-3.07 8.4-6.32 16.9-6.68 10.68-.36 19.1 3.13 23.9 5.72v-2.95zm0 10.18c-7.74-3.97-15.2-5.6-23.9-5.3-7.93.3-13.32 2.95-16.9 5.84v3.43c3.1-3.07 8.4-6.38 16.9-6.68 10.68-.42 19.1 3.07 23.9 5.66v-2.95zm-7.65 7.04c-3.97-.96-11.15-2.35-16.25-2.17-7.93.3-13.32 2.95-16.9 5.84v3.42c3.1-3.07 8.4-6.38 16.9-6.68 4.92-.18 8.98.3 13.7 1.56l2.55-1.98z" stroke="#000" stroke-opacity="0" stroke-width="3" fill="#ff680b" fill-opacity=".4"/><path d="M430.65 385.55c-10.44 1.4-17.92 6.26-20.44 8.04v67.1c4.23-.77 12.23-2 20.45-2.47v-72.68zm53.6-.46h-.88c-13.85 0-18.6 8.25-19.55 10.18v67.04c4.3-1.78 11.77-4.32 19.32-4.32.37 0 .75.07 1.12.07V385.1z" stroke="#000" stroke-opacity="0" stroke-width="3" fill="#ffffea" fill-opacity=".2"/><path d="M560 467.38v84c0 1.4 1.2 2.54 2.52 2.54h33.24c10.08 0 13.56 2.73 14.76 4.14.48.56 1.2.94 1.92.94h15.12c.72 0 1.44-.38 1.92-.94 1.2-1.4 4.68-4.14 14.76-4.14h33.24c1.32 0 2.52-1.13 2.52-2.55v-84c0-1.4-1.2-2.53-2.52-2.53H562.52c-1.32 0-2.52 1.13-2.52 2.54z" stroke="#000" stroke-opacity="0" stroke-width="3"/><path d="M570.2 472.47h99.6v73.8h-99.6z" stroke="#000" stroke-opacity="0" stroke-width="3" fill="#e5731f"/><path d="M674.02 470.33C673.47 470 661.5 460 643.38 460c-14.6 0-21.07 7.73-23.38 11.64-2.3-3.9-8.78-11.64-23.38-11.64-18.12 0-30.1 10-30.64 10.33l-.87.8v75.72h109.8v-75.73l-.88-.8z" stroke="#000" stroke-opacity="0" stroke-width="3" fill="#7a0800"/><path d="M596.97 462.54c-17.6 0-29.3 9.8-29.3 9.8v71.42s15.8-3.18 29.5-3.18c11 0 22.1 5.7 22.1 5.7v-71.5s-4.7-12.24-22.3-12.24zm46.06 0c17.6 0 29.3 9.8 29.3 9.8v71.42s-15.8-3.18-29.5-3.18c-11 0-22.1 5.7-22.1 5.7v-71.5s4.7-12.24 22.3-12.24z" stroke="#000" stroke-opacity="0" stroke-width="3" fill="#e5731f"/><path d="M590.65 465.55c-10.44 1.4-17.92 6.26-20.44 8.04v67.1c4.23-.77 12.23-2 20.45-2.47v-72.68zm53.6-.46h-.88c-13.85 0-18.6 8.25-19.55 10.18v67.04c4.3-1.78 11.77-4.32 19.32-4.32.37 0 .75.07 1.12.07V465.1z" stroke="#000" stroke-opacity="0" stroke-width="3" fill="#ff8d39" fill-opacity=".2"/><path d="M572.77 478.1c7.74-3.9 15.2-5.58 23.9-5.22 7.93.3 13.32 2.9 16.9 5.78v3.42c-3.1-3.06-8.4-6.37-16.9-6.67-10.68-.42-19.1 3.07-23.9 5.72v-3zm0 10.24c7.74-3.97 15.2-5.6 23.9-5.3 7.93.3 13.32 2.9 16.9 5.78v3.43c-3.1-3.07-8.4-6.3-16.9-6.68-10.68-.42-19.1 3.07-23.9 5.72v-2.96zm0 10.17c7.74-3.96 15.2-5.58 23.9-5.28 7.93.3 13.32 2.94 16.9 5.83v3.37c-3.1-3.07-8.4-6.32-16.9-6.68-10.68-.36-19.1 3.13-23.9 5.72v-2.95zm0 10.18c7.74-3.97 15.2-5.6 23.9-5.3 7.93.3 13.32 2.95 16.9 5.84v3.43c-3.1-3.07-8.4-6.38-16.9-6.68-10.68-.42-19.1 3.07-23.9 5.66v-2.95zm0 10.17c7.74-3.9 15.2-5.6 23.9-5.3 7.93.3 13.32 2.95 16.9 5.84v3.42c-3.1-3.07-8.4-6.38-16.9-6.68-10.68-.42-19.1 3.07-23.9 5.66v-2.95zm0 10.17c7.74-3.9 15.2-5.6 23.9-5.24 7.93.3 13.32 2.9 16.9 5.78V533c-3.1-3.08-8.4-6.4-16.9-6.7-10.68-.4-19.1 3.08-23.9 5.66v-2.94zm94.46-50.9c-7.74-3.92-15.2-5.6-23.9-5.24-7.93.3-13.32 2.9-16.9 5.78v3.42c3.1-3.06 8.4-6.37 16.9-6.67 10.68-.42 19.1 3.07 23.9 5.72v-3zm0 10.22c-7.74-3.97-15.2-5.6-23.9-5.3-7.93.3-13.32 2.9-16.9 5.78v3.43c3.1-3.07 8.4-6.3 16.9-6.68 10.68-.42 19.1 3.07 23.9 5.72v-2.96zm0 10.17c-7.74-3.96-15.2-5.58-23.9-5.28-7.93.3-13.32 2.94-16.9 5.83v3.37c3.1-3.07 8.4-6.32 16.9-6.68 10.68-.36 19.1 3.13 23.9 5.72v-2.95zm0 10.18c-7.74-3.97-15.2-5.6-23.9-5.3-7.93.3-13.32 2.95-16.9 5.84v3.43c3.1-3.07 8.4-6.38 16.9-6.68 10.68-.42 19.1 3.07 23.9 5.66v-2.95zm-7.65 7.04c-3.97-.96-11.15-2.35-16.25-2.17-7.93.3-13.32 2.95-16.9 5.84v3.42c3.1-3.07 8.4-6.38 16.9-6.68 4.92-.18 8.98.3 13.7 1.56l2.55-1.98z" stroke="#000" stroke-opacity="0" stroke-width="3" fill="#230000" fill-opacity=".4"/><path d="M590.65 465.55c-10.44 1.4-17.92 6.26-20.44 8.04v67.1c4.23-.77 12.23-2 20.45-2.47v-72.68zm53.6-.46h-.88c-13.85 0-18.6 8.25-19.55 10.18v67.04c4.3-1.78 11.77-4.32 19.32-4.32.37 0 .75.07 1.12.07V465.1z" stroke="#000" stroke-opacity="0" stroke-width="3" fill="#ff8d39" fill-opacity=".2"/><path d="M281 349.5h260.5" stroke="#000" stroke-width="2" fill="none"/><path d="M281.03 350.5H280v-2h1.03z"/><path d="M556.76 349.5l-14.26 4.64v-9.28z" stroke="#000" stroke-width="2"/><path d="M280.83 348.95l103.78-69.2" stroke="#000" stroke-width="2" fill="none"/><path d="M281.4 349.76l-1.4.94v-2.4l.3-.2z"/><path d="M397.3 271.3l-9.3 11.77-5.13-7.72z" stroke="#000" stroke-width="2"/><path d="M280.83 350.05l103.78 69.2" stroke="#000" stroke-width="2" fill="none"/><path d="M281.4 349.24l-1.1 1.66-.3-.2v-2.4z"/><path d="M397.3 427.7l-14.43-4.05 5.14-7.72z" stroke="#000" stroke-width="2"/><path d="M280.36 348.56l7.42-19.25 9.2-27.33L327.6 200.1l4.05-10.5 3.3-7.63 2.88-5.92 2.57-4.8 2.35-3.96 2.2-3.37 2.05-2.9 1.96-2.5 1.88-2.22 1.8-1.95 1.76-1.74 1.7-1.56 1.7-1.42 1.65-1.28 1.64-1.16 1.62-1.05 1.63-.96 1.63-.88 1.65-.8.37-.17 6.08-2.55 6.87-2.54 7.46-2.42 7.83-2.18 8-1.86 7.96-1.52 7.8-1.15 7.6-.78 7.32-.46 7-.14 6.68.14 6.37.4 6.07.64 5.78.86 5.52 1.06 5.26 1.23 5.03 1.4 4.8 1.58 4.64 1.72 4.44 1.87 4.3 2.02 4.12 2.16 4 2.3 3.87 2.47 3.75 2.62 3.65 2.77 3.57 2.95 3.47 3.13 3.4 3.34 3.32 3.53 3.26 3.78 3.2 4.04 3.12 4.3 3.07 4.64 3.02 4.98 2.74 5" stroke="#000" stroke-width="2" fill="none"/><path d="M281.3 348.9l-1.3 3.38v-3.88z"/><path d="M558.66 206.55l-10.1-11.07 8.43-3.83z" stroke="#000" stroke-width="2"/><path d="M280.15 350.5l10.47 67.14 4.34 21.27 3.3 13.25 2.83 9.62 2.57 7.56 2.42 6.23 2.32 5.33 2.28 4.66 2.27 4.2 2.28 3.8 2.3 3.53 2.4 3.3 2.46 3.16 2.6 3.04 2.74 2.95 2.93 2.9 3.2 2.9 3.5 2.94 3.9 3 4.47 3.14 5.22 3.35 3.7 2.2 23.63 13.24 11.04 5.52 9.05 4.04 7.92 3.16 7.17 2.5 6.62 2.02 6.2 1.6 5.83 1.25 5.57.95 5.33.68 5.13.44 4.98.2 4.84.02 4.74-.2 4.66-.38 4.6-.58 4.54-.76 4.52-.95 4.5-1.16 4.53-1.37 4.54-1.57 4.58-1.8 4.65-2.07 4.72-2.35 4.8-2.64 4.94-2.97 5.07-3.37 5.25-3.8 5.43-4.3 5.65-4.86 5.9-5.54 1.83-1.86" stroke="#000" stroke-width="2" fill="none"/><path d="M281.15 350.36l-1.15.18v-4.07l.53-.08z"/><path d="M557.8 511.88l-6.25 13.63-6.82-6.27z" stroke="#000" stroke-width="2"/><path d="M700 179.5h180v60H700z" stroke="#000" stroke-opacity="0" stroke-width="2" fill="#fff" fill-opacity="0"/><use xlink:href="#a" transform="matrix(1,0,0,1,705,184.5) translate(0 30.455555555555552)"/><path d="M700 319h180v60H700z" stroke="#000" stroke-opacity="0" stroke-width="2" fill="#fff" fill-opacity="0"/><use xlink:href="#b" transform="matrix(1,0,0,1,705,324) translate(0 30.455555555555552)"/><path d="M700 479h180v60H700z" stroke="#000" stroke-opacity="0" stroke-width="2" fill="#fff" fill-opacity="0"/><use xlink:href="#c" transform="matrix(1,0,0,1,705,484) translate(0 30.455555555555552)"/><path d="M400 479h120v60H400z" stroke="#000" stroke-opacity="0" stroke-width="2" fill="#fff" fill-opacity="0"/><use xlink:href="#d" transform="matrix(1,0,0,1,405,484) translate(12.63611111111112 30.455555555555552)"/><path d="M400 160h120v61.93H400z" stroke="#000" stroke-opacity="0" stroke-width="2" fill="#fff" fill-opacity="0"/><use xlink:href="#e" transform="matrix(1,0,0,1,405,165) translate(23.515432098765437 21.205555555555552)"/><use xlink:href="#f" transform="matrix(1,0,0,1,405,165) translate(25.72870370370371 48.138888888888886)"/><path d="M907.38 319.5c-12.35 0-20.4 5.1-26.72 14.15-1.15 1.6-.77 3.9.82 5.1l6.72 5.08c1.58 1.2 3.88.95 5.13-.64 3.88-4.94 6.78-7.72 12.84-7.72 4.8 0 10.7 3.1 10.7 7.7 0 3.5-2.88 5.34-7.58 7.96-5.53 3.1-12.8 6.92-12.8 16.54v1.5c0 2.07 1.64 3.74 3.72 3.74h11.25c2.03 0 3.72-1.67 3.72-3.73v-.9c0-6.67 19.44-6.9 19.44-24.95 0-13.6-14.04-23.85-27.26-23.85zm-1.53 57.96c-5.96 0-10.77 4.85-10.77 10.8 0 5.9 4.8 10.74 10.77 10.74 5.9 0 10.76-4.85 10.76-10.73 0-5.96-4.85-10.8-10.75-10.8z" stroke="#000" stroke-opacity="0" stroke-width=".29" fill="#834187"/><defs><path d="M169-182c-1-43-94-46-97-3 18 66 151 10 154 114 3 95-165 93-204 36-6-8-10-19-12-30l50-8c3 46 112 56 116 5-17-69-150-10-154-114-4-87 153-88 188-35 5 8 8 18 10 28" id="g"/><path d="M135-194c53 0 70 44 70 98 0 56-19 98-73 100-31 1-45-17-59-34 3 33 2 69 2 105H25l-1-265h48c2 10 0 23 3 31 11-24 29-35 60-35zM114-30c33 0 39-31 40-66 0-38-9-64-40-64-56 0-55 130 0 130" id="h"/><path d="M110-194c64 0 96 36 96 99 0 64-35 99-97 99-61 0-95-36-95-99 0-62 34-99 96-99zm-1 164c35 0 45-28 45-65 0-40-10-65-43-65-34 0-45 26-45 65 0 36 10 65 43 65" id="i"/><path d="M135-150c-39-12-60 13-60 57V0H25l-1-190h47c2 13-1 29 3 40 6-28 27-53 61-41v41" id="j"/><path d="M115-3C79 11 28 4 28-45v-112H4v-33h27l15-45h31v45h36v33H77v99c-1 23 16 31 38 25v30" id="k"/><path d="M137-138c1-29-70-34-71-4 15 46 118 7 119 86 1 83-164 76-172 9l43-7c4 19 20 25 44 25 33 8 57-30 24-41C81-84 22-81 20-136c-2-80 154-74 161-7" id="l"/><g id="a"><use transform="matrix(0.06234567901234567,0,0,0.06234567901234567,0,0)" xlink:href="#g"/><use transform="matrix(0.06234567901234567,0,0,0.06234567901234567,14.96296296296296,0)" xlink:href="#h"/><use transform="matrix(0.06234567901234567,0,0,0.06234567901234567,28.61666666666666,0)" xlink:href="#i"/><use transform="matrix(0.06234567901234567,0,0,0.06234567901234567,42.27037037037036,0)" xlink:href="#j"/><use transform="matrix(0.06234567901234567,0,0,0.06234567901234567,50.99876543209875,0)" xlink:href="#k"/><use transform="matrix(0.06234567901234567,0,0,0.06234567901234567,58.417901234567886,0)" xlink:href="#l"/></g><path d="M24 0v-248h195v40H76v63h132v40H76v65h150V0H24" id="m"/><path d="M135-194c87-1 58 113 63 194h-50c-7-57 23-157-34-157-59 0-34 97-39 157H25l-1-190h47c2 12-1 28 3 38 12-26 28-41 61-42" id="n"/><path d="M185-48c-13 30-37 53-82 52C43 2 14-33 14-96s30-98 90-98c62 0 83 45 84 108H66c0 31 8 55 39 56 18 0 30-7 34-22zm-45-69c5-46-57-63-70-21-2 6-4 13-4 21h74" id="o"/><path d="M133-34C117-15 103 5 69 4 32 3 11-16 11-54c-1-60 55-63 116-61 1-26-3-47-28-47-18 1-26 9-28 27l-52-2c7-38 36-58 82-57s74 22 75 68l1 82c-1 14 12 18 25 15v27c-30 8-71 5-69-32zm-48 3c29 0 43-24 42-57-32 0-66-3-65 30 0 17 8 27 23 27" id="p"/><path d="M25-224v-37h50v37H25zM25 0v-190h50V0H25" id="q"/><path d="M220-157c-53 9-28 100-34 157h-49v-107c1-27-5-49-29-50C55-147 81-57 75 0H25l-1-190h47c2 12-1 28 3 38 10-53 101-56 108 0 13-22 24-43 59-42 82 1 51 116 57 194h-49v-107c-1-25-5-48-29-50" id="r"/><g id="b"><use transform="matrix(0.06234567901234567,0,0,0.06234567901234567,0,0)" xlink:href="#m"/><use transform="matrix(0.06234567901234567,0,0,0.06234567901234567,14.96296296296296,0)" xlink:href="#n"/><use transform="matrix(0.06234567901234567,0,0,0.06234567901234567,28.61666666666666,0)" xlink:href="#k"/><use transform="matrix(0.06234567901234567,0,0,0.06234567901234567,36.035802469135795,0)" xlink:href="#o"/><use transform="matrix(0.06234567901234567,0,0,0.06234567901234567,48.50493827160493,0)" xlink:href="#j"/><use transform="matrix(0.06234567901234567,0,0,0.06234567901234567,57.23333333333332,0)" xlink:href="#k"/><use transform="matrix(0.06234567901234567,0,0,0.06234567901234567,64.65246913580245,0)" xlink:href="#p"/><use transform="matrix(0.06234567901234567,0,0,0.06234567901234567,77.12160493827159,0)" xlink:href="#q"/><use transform="matrix(0.06234567901234567,0,0,0.06234567901234567,83.35617283950616,0)" xlink:href="#n"/><use transform="matrix(0.06234567901234567,0,0,0.06234567901234567,97.00987654320986,0)" xlink:href="#r"/><use transform="matrix(0.06234567901234567,0,0,0.06234567901234567,116.96049382716046,0)" xlink:href="#o"/><use transform="matrix(0.06234567901234567,0,0,0.06234567901234567,129.4296296296296,0)" xlink:href="#n"/><use transform="matrix(0.06234567901234567,0,0,0.06234567901234567,143.08333333333331,0)" xlink:href="#k"/></g><path d="M136-208V0H84v-208H4v-40h212v40h-80" id="s"/><path d="M190-63c-7 42-38 67-86 67-59 0-84-38-90-98-12-110 154-137 174-36l-49 2c-2-19-15-32-35-32-30 0-35 28-38 64-6 74 65 87 74 30" id="t"/><path d="M114-157C55-157 80-60 75 0H25v-261h50l-1 109c12-26 28-41 61-42 86-1 58 113 63 194h-50c-7-57 23-157-34-157" id="u"/><path d="M25 0v-261h50V0H25" id="v"/><path d="M195-6C206 82 75 100 31 46c-4-6-6-13-8-21l49-6c3 16 16 24 34 25 40 0 42-37 40-79-11 22-30 35-61 35-53 0-70-43-70-97 0-56 18-96 73-97 30 0 46 14 59 34l2-30h47zm-90-29c32 0 41-27 41-63 0-35-9-62-40-62-32 0-39 29-40 63 0 36 9 62 39 62" id="w"/><path d="M123 10C108 53 80 86 19 72V37c35 8 53-11 59-39L3-190h52l48 148c12-52 28-100 44-148h51" id="x"/><g id="c"><use transform="matrix(0.06234567901234567,0,0,0.06234567901234567,0,0)" xlink:href="#s"/><use transform="matrix(0.06234567901234567,0,0,0.06234567901234567,11.970370370370368,0)" xlink:href="#o"/><use transform="matrix(0.06234567901234567,0,0,0.06234567901234567,24.4395061728395,0)" xlink:href="#t"/><use transform="matrix(0.06234567901234567,0,0,0.06234567901234567,36.90864197530863,0)" xlink:href="#u"/><use transform="matrix(0.06234567901234567,0,0,0.06234567901234567,50.56234567901234,0)" xlink:href="#n"/><use transform="matrix(0.06234567901234567,0,0,0.06234567901234567,64.21604938271604,0)" xlink:href="#i"/><use transform="matrix(0.06234567901234567,0,0,0.06234567901234567,77.86975308641973,0)" xlink:href="#v"/><use transform="matrix(0.06234567901234567,0,0,0.06234567901234567,84.1043209876543,0)" xlink:href="#i"/><use transform="matrix(0.06234567901234567,0,0,0.06234567901234567,97.758024691358,0)" xlink:href="#w"/><use transform="matrix(0.06234567901234567,0,0,0.06234567901234567,111.4117283950617,0)" xlink:href="#x"/></g><g id="d"><use transform="matrix(0.06234567901234567,0,0,0.06234567901234567,0,0)" xlink:href="#g"/><use transform="matrix(0.06234567901234567,0,0,0.06234567901234567,14.96296296296296,0)" xlink:href="#t"/><use transform="matrix(0.06234567901234567,0,0,0.06234567901234567,27.432098765432094,0)" xlink:href="#q"/><use transform="matrix(0.06234567901234567,0,0,0.06234567901234567,33.66666666666666,0)" xlink:href="#o"/><use transform="matrix(0.06234567901234567,0,0,0.06234567901234567,46.13580246913579,0)" xlink:href="#n"/><use transform="matrix(0.06234567901234567,0,0,0.06234567901234567,59.789506172839495,0)" xlink:href="#t"/><use transform="matrix(0.06234567901234567,0,0,0.06234567901234567,72.25864197530862,0)" xlink:href="#o"/></g><path d="M275 0h-61l-44-196L126 0H64L0-248h53L97-49l45-199h58l43 199 44-199h52" id="y"/><path d="M88-194c31-1 46 15 58 34l-1-101h50l1 261h-48c-2-10 0-23-3-31C134-8 116 4 84 4 32 4 16-41 15-95c0-56 19-97 73-99zm17 164c33 0 40-30 41-66 1-37-9-64-41-64s-38 30-39 65c0 43 13 65 39 65" id="z"/><g id="e"><use transform="matrix(0.06234567901234567,0,0,0.06234567901234567,0,0)" xlink:href="#y"/><use transform="matrix(0.06234567901234567,0,0,0.06234567901234567,20.698765432098764,0)" xlink:href="#i"/><use transform="matrix(0.06234567901234567,0,0,0.06234567901234567,34.352469135802465,0)" xlink:href="#j"/><use transform="matrix(0.06234567901234567,0,0,0.06234567901234567,43.08086419753086,0)" xlink:href="#v"/><use transform="matrix(0.06234567901234567,0,0,0.06234567901234567,49.31543209876543,0)" xlink:href="#z"/></g><path d="M175 0L67-191c6 58 2 128 3 191H24v-248h59L193-55c-6-58-2-129-3-193h46V0h-61" id="A"/><path d="M231 0h-52l-39-155L100 0H48L-1-190h46L77-45c9-52 24-97 36-145h53l37 145 32-145h46" id="B"/><g id="f"><use transform="matrix(0.06234567901234567,0,0,0.06234567901234567,0,0)" xlink:href="#A"/><use transform="matrix(0.06234567901234567,0,0,0.06234567901234567,16.147530864197527,0)" xlink:href="#o"/><use transform="matrix(0.06234567901234567,0,0,0.06234567901234567,28.61666666666666,0)" xlink:href="#B"/><use transform="matrix(0.06234567901234567,0,0,0.06234567901234567,46.073456790123444,0)" xlink:href="#l"/></g></defs></g></svg>