<svg xmlns="http://www.w3.org/2000/svg" xmlns:xlink="http://www.w3.org/1999/xlink" xmlns:lucid="lucid" width="1166" height="360"><g transform="translate(-140 -140)" lucid:page-tab-id="E8jWEXpTwC2v"><path d="M160 160h80v80h-80z" stroke="#000" stroke-width="2" fill="#c7e8ac"/><use xlink:href="#a" transform="matrix(1,0,0,1,165,165) translate(28.82716049382716 39.65277777777778)"/><path d="M240 160h80v80h-80z" stroke="#000" stroke-width="2" fill="#c7e8ac"/><use xlink:href="#b" transform="matrix(1,0,0,1,245,165) translate(28.82716049382716 39.65277777777778)"/><path d="M320 160h80v80h-80z" stroke="#000" stroke-width="2" fill="#c7e8ac"/><use xlink:href="#b" transform="matrix(1,0,0,1,325,165) translate(28.82716049382716 39.65277777777778)"/><path d="M400 160h80v80h-80z" stroke="#000" stroke-width="2" fill="#c7e8ac"/><use xlink:href="#b" transform="matrix(1,0,0,1,405,165) translate(28.82716049382716 39.65277777777778)"/><path d="M480 160h80v80h-80z" stroke="#000" stroke-width="2" fill="#c7e8ac"/><use xlink:href="#c" transform="matrix(1,0,0,1,485,165) translate(28.82716049382716 39.65277777777778)"/><path d="M560 160h80v80h-80z" stroke="#000" stroke-width="2" fill="#c7e8ac"/><use xlink:href="#d" transform="matrix(1,0,0,1,565,165) translate(28.82716049382716 39.65277777777778)"/><path d="M640 160h80v80h-80z" stroke="#000" stroke-width="2" fill="#c7e8ac"/><use xlink:href="#b" transform="matrix(1,0,0,1,645,165) translate(28.82716049382716 39.65277777777778)"/><path d="M720 160h80v80h-80z" stroke="#000" stroke-width="2" fill="#c7e8ac"/><use xlink:href="#b" transform="matrix(1,0,0,1,725,165) translate(28.82716049382716 39.65277777777778)"/><path d="M800 160h80v80h-80z" stroke="#000" stroke-width="2" fill="#c7e8ac"/><use xlink:href="#a" transform="matrix(1,0,0,1,805,165) translate(28.82716049382716 39.65277777777778)"/><path d="M880 160h80v80h-80z" stroke="#000" stroke-width="2" fill="#c7e8ac"/><use xlink:href="#b" transform="matrix(1,0,0,1,885,165) translate(28.82716049382716 39.65277777777778)"/><path d="M960 160h80v80h-80z" stroke="#000" stroke-width="2" fill="#c7e8ac"/><use xlink:href="#b" transform="matrix(1,0,0,1,965,165) translate(28.82716049382716 39.65277777777778)"/><path d="M1040 160h80v80h-80z" stroke="#000" stroke-width="2" fill="#c7e8ac"/><use xlink:href="#b" transform="matrix(1,0,0,1,1045,165) translate(28.82716049382716 39.65277777777778)"/><path d="M1120 160h80v80h-80z" stroke="#000" stroke-width="2" fill="#c7e8ac"/><use xlink:href="#b" transform="matrix(1,0,0,1,1125,165) translate(28.82716049382716 39.65277777777778)"/><path d="M802.5 260h475M802.56 260H800M1277.44 260h2.56" stroke="#7ab648" stroke-width="5" fill="none"/><path d="M480 280h400v60.25H480z" fill="#fff" fill-opacity="0"/><path d="M523.76 283.52l-21.72 56h-1.46l-9.17-24.1c-.77-2.04-1.68-2.68-2.8-2.68-.78 0-1.97.5-2.97 1.4l-.54-.9 7.08-5.63h.86l9.27 24.36h.2l18.8-48.44h2.46"/><path d="M522.17 286.2h357.8v-2.72h-357.8zM535.98 335.7l-.54.72c-7.18-4.1-11.1-11.77-11.1-19.5 0-8.4 3.96-14.95 11.23-19.26l.4.72c-6.3 5.4-7.7 9.64-7.7 18.4 0 8.46 1.35 13.6 7.7 18.9M555.2 328.37h-12.54v-.68c3.36-.2 4.32-1.14 4.32-3.64v-20.4c0-1.55-.4-2.23-1.37-2.23-.44 0-1.2.23-2.03.54l-1.23.46v-.64l8.14-4.14.4.13v27.12c0 1.95.9 2.77 4.32 2.77v.67M575.24 305.63l-1.73 4.4h-12.55v-.4l5.72-6.06c3.02-3.18 4.17-5.62 4.17-8.36 0-2.9-1.73-4.52-4.46-4.52-2.32 0-3.44 1.03-4.73 4.18l-.67-.16c.67-3.76 2.73-6.4 6.68-6.4 3.63 0 5.95 2.48 5.95 5.66 0 2.54-1.25 4.95-4.1 7.97l-5.3 5.66h7.5c1.36 0 2.03-.37 3.1-2.17M619.68 318.38h-11.86v11.86h-3v-11.86h-11.86v-3h11.86v-11.86h3v11.86h11.86v3M651.9 297.43l-1.64 3.86c-.14.3-.5.58-1.23.58h-8.8l-1.83 3.86c6.5 1.23 8.77 2.23 11.36 5.82 1.18 1.64 1.6 3.36 1.6 5.77 0 4.36-1.37 7.18-4.46 9.45-2.14 1.55-4.64 2.23-7.73 2.23-3.4 0-5.77-1.08-5.77-2.8 0-1.14.78-1.73 2.05-1.73 1.04 0 1.9.22 3.36 1.4 1.28 1.05 2.33 1.46 3.24 1.46 3.18 0 6.13-3.77 6.13-7.68 0-2.9-1-5.18-3.04-6.82-2.14-1.72-5.32-3.18-9.68-3.18-.4 0-.55-.1-.55-.36 0-.1.05-.24.05-.24l4.95-10.77h9.4c1.05 0 1.46-.23 2.2-1.2M669.94 305.08l-1.73 4.4h-12.56v-.38l5.72-6.08c3.02-3.18 4.18-5.62 4.18-8.35 0-2.93-1.74-4.53-4.47-4.53-2.3 0-3.44 1.03-4.72 4.18l-.68-.17c.68-3.75 2.74-6.4 6.7-6.4 3.62 0 5.93 2.48 5.93 5.67 0 2.53-1.25 4.94-4.1 7.96l-5.3 5.66h7.5c1.36 0 2.03-.35 3.1-2.15M714.38 318.38h-11.86v11.86h-3v-11.86h-11.86v-3h11.86v-11.86h3v11.86h11.86v3M729.5 305.2l-.72-.18c1.32-4.32 4.18-7.36 8.9-7.36 4.23 0 7.1 2.5 7.1 6.22 0 2.18-1.2 4.45-4.23 6.27 2 .87 2.82 1.4 3.77 2.4 1.27 1.42 2 3.5 2 5.87 0 2.4-.77 4.64-2.1 6.36-2.17 2.9-6.5 4.23-10.53 4.23-3.33 0-5.1-.94-5.1-2.58 0-.95.82-1.64 1.86-1.64.77 0 1.5.28 2.77 1.2 1.68 1.17 2.64 1.4 3.9 1.4 3.37 0 5.92-3.1 5.92-6.96 0-3.45-1.6-5.68-4.73-6.6-1-.3-2.04-.44-4.63-.44v-.64c1.7-.6 2.9-1.1 3.8-1.63 2.23-1.27 3.68-3.3 3.68-6.08 0-3.1-1.9-4.64-4.9-4.64-2.82 0-4.9 1.46-6.77 4.82M764.68 305.63l-1.73 4.4h-12.57v-.4l5.72-6.06c3.02-3.18 4.18-5.62 4.18-8.36 0-2.9-1.74-4.52-4.47-4.52-2.3 0-3.42 1.03-4.7 4.18l-.68-.16c.67-3.76 2.73-6.4 6.68-6.4 3.63 0 5.94 2.48 5.94 5.66 0 2.54-1.25 4.95-4.1 7.97l-5.3 5.66h7.5c1.36 0 2.03-.37 3.1-2.17M809.07 318.38H797.2v11.86h-3v-11.86h-11.85v-3h11.86v-11.86h3v11.86h11.87v3M839.33 328.37H826.8v-.68c3.35-.2 4.3-1.14 4.3-3.64v-20.4c0-1.55-.4-2.23-1.35-2.23-.46 0-1.23.23-2.05.54l-1.23.46v-.64l8.14-4.14.42.13v27.12c0 1.95.9 2.77 4.3 2.77v.67M859.38 305.63l-1.74 4.4h-12.56v-.4l5.72-6.06c3.02-3.18 4.17-5.62 4.17-8.36 0-2.9-1.73-4.52-4.46-4.52-2.3 0-3.43 1.03-4.7 4.18l-.7-.16c.7-3.76 2.74-6.4 6.7-6.4 3.62 0 5.94 2.48 5.94 5.66 0 2.54-1.26 4.95-4.1 7.97l-5.32 5.66h7.52c1.35 0 2.03-.37 3.1-2.17M866.1 298.38l.54-.72c6.95 4.18 11.1 11.77 11.1 19.5 0 8.4-4 14.85-11.23 19.26l-.4-.73c6.45-5.33 7.72-9.6 7.72-18.4 0-8.5-1.13-13.74-7.72-18.92"/><path d="M160 400h80v80h-80zM240 400h80v80h-80z" stroke="#000" stroke-width="2" fill="#c7e8ac"/><use xlink:href="#b" transform="matrix(1,0,0,1,245,405) translate(28.82716049382716 39.65277777777778)"/><path d="M320 400h80v80h-80z" stroke="#000" stroke-width="2" fill="#c7e8ac"/><use xlink:href="#b" transform="matrix(1,0,0,1,325,405) translate(28.82716049382716 39.65277777777778)"/><path d="M400 400h80v80h-80z" stroke="#000" stroke-width="2" fill="#c7e8ac"/><use xlink:href="#b" transform="matrix(1,0,0,1,405,405) translate(28.82716049382716 39.65277777777778)"/><path d="M480 400h80v80h-80zM560 400h80v80h-80zM640 400h80v80h-80z" stroke="#000" stroke-width="2" fill="#c7e8ac"/><use xlink:href="#b" transform="matrix(1,0,0,1,645,405) translate(28.82716049382716 39.65277777777778)"/><path d="M720 400h80v80h-80z" stroke="#000" stroke-width="2" fill="#c7e8ac"/><use xlink:href="#b" transform="matrix(1,0,0,1,725,405) translate(28.82716049382716 39.65277777777778)"/><path d="M800 400h80v80h-80zM880 400h80v80h-80z" stroke="#000" stroke-width="2" fill="#c7e8ac"/><use xlink:href="#b" transform="matrix(1,0,0,1,885,405) translate(28.82716049382716 39.65277777777778)"/><path d="M960 400h80v80h-80z" stroke="#000" stroke-width="2" fill="#c7e8ac"/><use xlink:href="#b" transform="matrix(1,0,0,1,965,405) translate(28.82716049382716 39.65277777777778)"/><path d="M1040 400h80v80h-80z" stroke="#000" stroke-width="2" fill="#c7e8ac"/><use xlink:href="#b" transform="matrix(1,0,0,1,1045,405) translate(28.82716049382716 39.65277777777778)"/><path d="M1120 400h80v80h-80z" stroke="#000" stroke-width="2" fill="#c7e8ac"/><use xlink:href="#b" transform="matrix(1,0,0,1,1125,405) translate(28.82716049382716 39.65277777777778)"/><path d="M184.26 410h31.48v60h-31.48z" fill="#fff" fill-opacity="0"/><path d="M189.55 440.98h20.86v-2.65h-20.85zM204.46 431.85h-8.6v-.47c2.3-.13 2.95-.78 2.95-2.5v-14c0-1.06-.27-1.53-.92-1.53-.32 0-.85.16-1.4.38l-.85.3v-.43l5.58-2.83.3.1v18.6c0 1.35.62 1.9 2.96 1.9v.48M206.08 447.5l.06.5c-4.9.8-8.4 4.18-9.23 8.9 1.54-1.2 2.6-1.4 3.97-1.4 3.65 0 5.9 2.48 5.9 6.5 0 2-.57 3.75-1.6 5-1.15 1.43-2.9 2.27-4.95 2.27-2.47 0-4.43-1.15-5.52-3.15-.88-1.6-1.47-3.8-1.47-6 0-3.36 1.18-6.32 3.4-8.6 2.68-2.8 5.14-3.55 9.45-4.02m-2.12 15.47c0-4-1.3-6.05-4.2-6.05-1.8 0-3.63.75-3.63 3.62 0 4.74 1.5 7.86 4.43 7.86 2.24 0 3.4-2.25 3.4-5.43"/><path d="M504.26 409.6h31.48v60.8h-31.48z" fill="#fff" fill-opacity="0"/><path d="M509.55 441.4h20.86v-2.66h-20.85zM525.83 410.58l-1.12 2.65c-.1.22-.34.4-.84.4h-6.05l-1.23 2.65c4.46.85 6.02 1.53 7.8 4 .8 1.12 1.08 2.3 1.08 3.96 0 3-.93 4.92-3.05 6.48-1.47 1.06-3.18 1.53-5.3 1.53-2.34 0-3.96-.75-3.96-1.93 0-.78.53-1.2 1.4-1.2.72 0 1.3.17 2.3.98.88.72 1.6 1 2.22 1 2.18 0 4.2-2.6 4.2-5.27 0-2-.67-3.56-2.08-4.68-1.46-1.2-3.65-2.18-6.64-2.18-.28 0-.37-.07-.37-.25 0-.06.03-.16.03-.16l3.4-7.4h6.45c.72 0 1-.15 1.5-.8M526.08 447.9l.06.5c-4.9.82-8.4 4.2-9.23 8.9 1.54-1.2 2.6-1.4 3.97-1.4 3.65 0 5.9 2.5 5.9 6.5 0 2-.57 3.75-1.6 5-1.15 1.43-2.9 2.27-4.95 2.27-2.47 0-4.43-1.15-5.52-3.14-.88-1.6-1.47-3.8-1.47-6 0-3.36 1.18-6.32 3.4-8.6 2.68-2.8 5.14-3.55 9.45-4.02m-2.12 15.48c0-4-1.3-6.05-4.2-6.05-1.8 0-3.63.74-3.63 3.6 0 4.75 1.5 7.87 4.43 7.87 2.24 0 3.4-2.24 3.4-5.42"/><path d="M584.26 409.78h31.48v60.44h-31.48z" fill="#fff" fill-opacity="0"/><path d="M589.55 441.2h20.86v-2.65h-20.85zM594.07 415.72l-.5-.12c.9-2.96 2.87-5.05 6.1-5.05 2.92 0 4.88 1.7 4.88 4.27 0 1.5-.8 3.06-2.9 4.3 1.37.6 1.93.97 2.6 1.66.86.96 1.36 2.4 1.36 4.02 0 1.65-.52 3.18-1.42 4.36-1.5 2-4.46 2.9-7.24 2.9-2.28 0-3.5-.65-3.5-1.77 0-.67.57-1.14 1.3-1.14.52 0 1.02.2 1.9.82 1.14.8 1.8.96 2.67.96 2.32 0 4.06-2.12 4.06-4.77 0-2.37-1.1-3.9-3.24-4.52-.68-.22-1.4-.3-3.18-.3v-.45c1.2-.4 2-.75 2.62-1.12 1.53-.88 2.53-2.28 2.53-4.18 0-2.12-1.32-3.18-3.38-3.18-1.94 0-3.37 1-4.65 3.3M606.08 447.72l.06.5c-4.9.8-8.4 4.18-9.23 8.9 1.54-1.2 2.6-1.42 3.97-1.42 3.65 0 5.9 2.5 5.9 6.52 0 2-.57 3.74-1.6 5-1.15 1.43-2.9 2.27-4.95 2.27-2.47 0-4.43-1.17-5.52-3.16-.88-1.6-1.47-3.8-1.47-6 0-3.36 1.18-6.32 3.4-8.6 2.68-2.8 5.14-3.55 9.45-4.02m-2.12 15.47c0-4-1.3-6.06-4.2-6.06-1.8 0-3.63.75-3.63 3.62 0 4.74 1.5 7.85 4.43 7.85 2.24 0 3.4-2.23 3.4-5.4"/><path d="M824.26 410h31.48v60h-31.48z" fill="#fff" fill-opacity="0"/><path d="M829.55 440.98h20.86v-2.65h-20.85zM844.46 431.85h-8.6v-.47c2.3-.13 2.95-.78 2.95-2.5v-14c0-1.06-.27-1.53-.92-1.53-.32 0-.85.16-1.4.38l-.85.3v-.43l5.58-2.83.3.1v18.6c0 1.35.62 1.9 2.96 1.9v.48M846.08 447.5l.06.5c-4.9.8-8.4 4.18-9.23 8.9 1.54-1.2 2.6-1.4 3.97-1.4 3.65 0 5.9 2.48 5.9 6.5 0 2-.57 3.75-1.6 5-1.15 1.43-2.9 2.27-4.95 2.27-2.47 0-4.43-1.15-5.52-3.15-.88-1.6-1.47-3.8-1.47-6 0-3.36 1.18-6.32 3.4-8.6 2.68-2.8 5.14-3.55 9.45-4.02m-2.12 15.47c0-4-1.3-6.05-4.2-6.05-1.8 0-3.63.75-3.63 3.62 0 4.74 1.5 7.86 4.43 7.86 2.24 0 3.4-2.25 3.4-5.43"/><defs><path d="M23 0v-37h61v-169l-59 37v-38l62-41h46v211h57V0H23" id="e"/><use transform="matrix(0.06172839506172839,0,0,0.06172839506172839,0,0)" xlink:href="#e" id="a"/><path d="M101-251c68 0 84 54 84 127C185-50 166 4 99 4S15-52 14-124c-1-75 17-127 87-127zm-1 216c37-5 36-46 36-89s4-89-36-89c-39 0-36 45-36 89 0 43-3 85 36 89" id="f"/><use transform="matrix(0.06172839506172839,0,0,0.06172839506172839,0,0)" xlink:href="#f" id="b"/><path d="M139-81c0-46-55-55-73-27H18l9-140h149v37H72l-4 63c44-38 133-4 122 66C201 21 21 35 11-62l49-4c5 18 15 30 39 30 26 0 40-18 40-45" id="g"/><use transform="matrix(0.06172839506172839,0,0,0.06172839506172839,0,0)" xlink:href="#g" id="c"/><path d="M128-127c34 4 56 21 59 58 7 91-148 94-172 28-4-9-6-17-7-26l51-5c1 24 16 35 40 36 23 0 39-12 38-36-1-31-31-36-65-34v-40c32 2 59-3 59-33 0-20-13-33-34-33s-33 13-35 32l-50-3c6-44 37-68 86-68 50 0 83 20 83 66 0 35-22 52-53 58" id="h"/><use transform="matrix(0.06172839506172839,0,0,0.06172839506172839,0,0)" xlink:href="#h" id="d"/></defs></g></svg>