<svg xmlns="http://www.w3.org/2000/svg" xmlns:xlink="http://www.w3.org/1999/xlink" xmlns:lucid="lucid" width="2220" height="609.71"><g transform="translate(-120 -140)" lucid:page-tab-id="XOSZdH2ndJB_"><path d="M160 240h80v80h-80zM240 240h80v80h-80z" stroke="#000" stroke-width="2" fill="#c7e8ac"/><use xlink:href="#a" transform="matrix(1,0,0,1,245,245) translate(10.308641975308642 39.65277777777778)"/><path d="M320 240h80v80h-80zM400 240h80v80h-80zM480 240h80v80h-80zM560 240h80v80h-80zM640 240h80v80h-80zM720 240h80v80h-80z" stroke="#000" stroke-width="2" fill="#c7e8ac"/><use xlink:href="#b" transform="matrix(1,0,0,1,725,245) translate(28.82716049382716 39.65277777777778)"/><path d="M800 240h80v80h-80zM880 240h80v80h-80zM960 240h80v80h-80zM1040 240h80v80h-80zM1120 240h80v80h-80z" stroke="#000" stroke-width="2" fill="#c7e8ac"/><path d="M140 433.14L253.14 320l56.57 56.57L196.58 489.7z" stroke="#000" stroke-opacity="0" stroke-width="2" fill="#fff" fill-opacity="0"/><use xlink:href="#c" transform="matrix(0.7071067811865476,-0.7071067811865475,0.7071067811865475,0.7071067811865476,147.07106781186553,433.13708498984766) translate(119.1358024691358 39.65277777777778)"/><path d="M160 480h80v80h-80zM240 480h80v80h-80z" stroke="#000" stroke-width="2" fill="#e5e5e5"/><use xlink:href="#d" transform="matrix(1,0,0,1,245,485) translate(28.82716049382716 39.65277777777778)"/><path d="M320 480h80v80h-80zM400 480h80v80h-80zM480 480h80v80h-80zM560 480h80v80h-80zM640 480h80v80h-80zM720 480h80v80h-80z" stroke="#000" stroke-width="2" fill="#e5e5e5"/><use xlink:href="#e" transform="matrix(1,0,0,1,724.9999999999999,485) translate(28.82716049382716 39.65277777777778)"/><path d="M800 480h80v80h-80zM880 480h80v80h-80zM960 480h80v80h-80zM1040 480h80v80h-80zM1120 480h80v80h-80z" stroke="#000" stroke-width="2" fill="#e5e5e5"/><path d="M140 673.14L253.14 560l56.57 56.57L196.58 729.7z" stroke="#000" stroke-opacity="0" stroke-width="2" fill="#fff" fill-opacity="0"/><use xlink:href="#c" transform="matrix(0.7071067811865476,-0.7071067811865475,0.7071067811865475,0.7071067811865476,147.07106781186548,673.1370849898476) translate(119.1358024691358 39.65277777777778)"/><path d="M160 160h480v80H160z" stroke="#000" stroke-opacity="0" stroke-width="2" fill="#fff" fill-opacity="0"/><use xlink:href="#f" transform="matrix(1,0,0,1,165,165) translate(0 40.20138888888889)"/><use xlink:href="#g" transform="matrix(1,0,0,1,165,165) translate(77.51851851851852 40.20138888888889)"/><path d="M620 433.14L733.14 320l56.57 56.57L676.58 489.7z" stroke="#000" stroke-opacity="0" stroke-width="2" fill="#fff" fill-opacity="0"/><use xlink:href="#h" transform="matrix(0.7071067811865476,-0.7071067811865475,0.7071067811865475,0.7071067811865476,627.0710678118655,433.13708498984755) translate(92.09876543209876 39.65277777777778)"/><path d="M160 400h480v80H160z" stroke="#000" stroke-opacity="0" stroke-width="2" fill="#fff" fill-opacity="0"/><use xlink:href="#i" transform="matrix(1,0,0,1,165,405) translate(0 40.20138888888889)"/><use xlink:href="#j" transform="matrix(1,0,0,1,165,405) translate(110.53086419753087 40.20138888888889)"/><use xlink:href="#g" transform="matrix(1,0,0,1,165,405) translate(260.7283950617284 40.20138888888889)"/><path d="M620 673.14L733.14 560l56.57 56.57L676.58 729.7z" stroke="#000" stroke-opacity="0" stroke-width="2" fill="#fff" fill-opacity="0"/><use xlink:href="#h" transform="matrix(0.7071067811865476,-0.7071067811865475,0.7071067811865475,0.7071067811865476,627.0710678118655,673.1370849898476) translate(92.09876543209876 39.65277777777778)"/><path d="M400 640h240v65.73H400z" fill="#fff" fill-opacity="0"/><path d="M412.1 684.2H401v-.7c2.96-.25 3.62-1.05 3.62-3.64v-22.1c0-2.26-.47-3-1.98-3-.38 0-1 0-1.74.08v-.75c3.25-.8 5-1.3 7.44-2.1l.23.2v27.9c0 2.58.52 3.2 3.54 3.4v.7M435.24 673.3c0 6.56-4.24 11.36-10.6 11.36-5.7 0-10.18-4.66-10.18-11.2 0-6.56 4.24-10.94 10.6-10.94 5.75 0 10.18 4.3 10.18 10.8m-4.24 1.26c0-3.2-.85-6.45-2.36-8.4-1.13-1.4-2.45-2.34-4.47-2.34-3.25 0-5.47 2.78-5.47 7.5 0 3.7.76 7.1 2.5 9.65 1.04 1.5 2.54 2.34 4.24 2.34 3.5 0 5.56-3.3 5.56-8.76M458.84 665.9h-3.9c.65 1.52.9 2.6.9 3.97 0 2.45-.77 4.2-2.46 5.46-1.5 1.14-3.25 1.84-4.9 1.84-.28 0-.94-.05-1.8-.14l-.9-.1c-1.26.38-2.8 2.03-2.8 2.97 0 .76 1.12 1.14 3.66 1.28l6.08.28c3.5.14 5.7 2.12 5.7 5.04 0 1.88-.9 3.44-2.83 4.95-2.46 1.88-6.04 3-9.43 3-4.52 0-8.15-2.06-8.15-4.56 0-1.75 1.22-3.3 4.62-5.76-1.98-.94-2.5-1.46-2.5-2.5 0-.93.6-1.88 2.17-3.24.7-.62 1.37-1.23 2.03-1.9-3.15-1.54-4.38-3.33-4.38-6.3 0-4.3 3.5-7.68 7.87-7.68 1.22 0 2.5.24 3.77.7l1.02.38c.95.33 1.65.47 2.6.47h3.62v1.84m-14.98 2.37v.14c0 4.53 1.93 7.6 4.85 7.6 2.13 0 3.5-1.65 3.5-4.25 0-1.93-.52-4.05-1.4-5.7-.77-1.4-2-2.2-3.45-2.2-2.17 0-3.5 1.64-3.5 4.42m13.25 18.94c0-1.74-1.55-2.3-5.84-2.3-2.3 0-6.03-.28-7.63-.6-1.9 2.25-2.3 2.95-2.3 4.04 0 2.07 2.67 3.44 6.82 3.44 5.37 0 8.95-1.84 8.95-4.57M473.73 673.83h78.5V671h-78.5zM511.16 640.82l.06.53c-5.23.87-8.96 4.46-9.86 9.5 1.63-1.27 2.77-1.5 4.23-1.5 3.9 0 6.3 2.66 6.3 6.96 0 2.14-.6 4-1.7 5.34-1.24 1.53-3.1 2.43-5.3 2.43-2.64 0-4.74-1.23-5.9-3.36-.94-1.7-1.57-4.06-1.57-6.4 0-3.6 1.27-6.75 3.63-9.2 2.87-2.98 5.5-3.78 10.1-4.28m-2.27 16.52c0-4.26-1.4-6.46-4.5-6.46-1.9 0-3.87.8-3.87 3.86 0 5.07 1.6 8.4 4.73 8.4 2.4 0 3.63-2.4 3.63-5.8M528.7 658.04h-3.42v5.56h-2.6v-5.56h-9.32v-2.13l10.46-14.82h1.46v14.83h3.43v2.14m-6.02-2.13V644.5l-8 11.43h8M489.68 703.6h-9.2v-.5c2.47-.13 3.17-.83 3.17-2.66v-14.96c0-1.13-.3-1.63-1-1.63-.33 0-.9.16-1.5.4l-.9.33v-.47l5.97-3.02.3.1v19.9c0 1.42.67 2.02 3.16 2.02v.5M514.4 696.27h-8.7v8.7h-2.2v-8.7h-8.7v-2.2h8.7v-8.7h2.2v8.7h8.7v2.2M530.9 680.82l.06.53c-5.23.86-8.96 4.46-9.86 9.5 1.63-1.27 2.77-1.5 4.23-1.5 3.9 0 6.3 2.66 6.3 6.96 0 2.14-.6 4-1.7 5.34-1.23 1.53-3.1 2.43-5.3 2.43-2.63 0-4.73-1.23-5.9-3.37-.93-1.7-1.56-4.06-1.56-6.4 0-3.6 1.27-6.76 3.63-9.2 2.87-3 5.5-3.78 10.1-4.28m-2.27 16.52c0-4.27-1.4-6.46-4.5-6.46-1.9 0-3.86.8-3.86 3.86 0 5.06 1.6 8.4 4.73 8.4 2.4 0 3.63-2.4 3.63-5.8M534.73 686.6l-.54-.12c.96-3.17 3.06-5.4 6.52-5.4 3.1 0 5.2 1.83 5.2 4.57 0 1.6-.87 3.26-3.1 4.6 1.47.63 2.07 1.03 2.77 1.76.92 1.04 1.45 2.57 1.45 4.3 0 1.77-.56 3.4-1.53 4.67-1.6 2.13-4.76 3.1-7.73 3.1-2.44 0-3.74-.7-3.74-1.9 0-.7.6-1.2 1.37-1.2.56 0 1.1.2 2.03.87 1.23.86 1.93 1.03 2.86 1.03 2.47 0 4.34-2.27 4.34-5.1 0-2.53-1.17-4.16-3.47-4.83-.74-.23-1.5-.33-3.4-.33v-.46c1.26-.43 2.12-.8 2.8-1.2 1.62-.93 2.7-2.43 2.7-4.46 0-2.27-1.4-3.4-3.6-3.4-2.07 0-3.6 1.07-4.97 3.53M601.03 669.12h-27.75v-3.1h27.75v3.1m0 9.42h-27.75v-3.1h27.75v3.1M638.8 668.64c0 8.1-2.95 16.2-10.63 16.2-8.06 0-10.65-8.75-10.65-16.48 0-8.34 3.25-16.02 10.84-16.02 6.17 0 10.45 6.65 10.45 16.3m-4.5.24c0-9.8-2.08-15.3-6.23-15.3-3.9 0-6.03 5.55-6.03 15.1 0 9.58 2.08 14.95 6.13 14.95 4 0 6.12-5.42 6.12-14.75"/><path d="M379.38 639.22l-67.82-84.77M379.36 639.2l.64.8" stroke="#000" stroke-width="2" fill="none"/><path d="M302.02 542.53l12.53 8.24-7.24 5.8z" stroke="#000" stroke-width="2"/><path d="M880 640h397.1v65.46H880z" fill="#fff" fill-opacity="0"/><path d="M892.1 684.2H881v-.7c2.96-.25 3.62-1.05 3.62-3.64v-22.1c0-2.26-.47-3-1.98-3-.38 0-1 0-1.74.08v-.75c3.25-.8 5-1.3 7.44-2.1l.23.2v27.9c0 2.58.52 3.2 3.54 3.4v.7M915.24 673.3c0 6.56-4.24 11.36-10.6 11.36-5.7 0-10.18-4.66-10.18-11.2 0-6.56 4.24-10.94 10.6-10.94 5.75 0 10.18 4.3 10.18 10.8m-4.24 1.26c0-3.2-.85-6.45-2.36-8.4-1.13-1.4-2.45-2.34-4.47-2.34-3.25 0-5.47 2.78-5.47 7.5 0 3.7.76 7.1 2.5 9.65 1.04 1.5 2.54 2.34 4.24 2.34 3.5 0 5.56-3.3 5.56-8.76M938.84 665.9h-3.9c.65 1.52.9 2.6.9 3.97 0 2.45-.77 4.2-2.46 5.46-1.5 1.14-3.25 1.84-4.9 1.84-.28 0-.94-.05-1.8-.14l-.9-.1c-1.26.38-2.8 2.03-2.8 2.97 0 .76 1.12 1.14 3.66 1.28l6.08.28c3.5.14 5.7 2.12 5.7 5.04 0 1.88-.9 3.44-2.83 4.95-2.46 1.88-6.04 3-9.43 3-4.52 0-8.15-2.06-8.15-4.56 0-1.75 1.22-3.3 4.62-5.76-1.98-.94-2.5-1.46-2.5-2.5 0-.93.6-1.88 2.17-3.24.7-.62 1.37-1.23 2.03-1.9-3.15-1.54-4.38-3.33-4.38-6.3 0-4.3 3.5-7.68 7.87-7.68 1.22 0 2.5.24 3.77.7l1.02.38c.95.33 1.65.47 2.6.47h3.62v1.84m-14.98 2.37v.14c0 4.53 1.93 7.6 4.85 7.6 2.13 0 3.5-1.65 3.5-4.25 0-1.93-.52-4.05-1.4-5.7-.77-1.4-2-2.2-3.45-2.2-2.17 0-3.5 1.64-3.5 4.42m13.25 18.94c0-1.74-1.55-2.3-5.84-2.3-2.3 0-6.03-.28-7.63-.6-1.9 2.25-2.3 2.95-2.3 4.04 0 2.07 2.67 3.44 6.82 3.44 5.37 0 8.95-1.84 8.95-4.57M953.73 673.83h61.8V671h-61.8zM982.82 640.82l.06.53c-5.23.87-8.96 4.46-9.86 9.5 1.64-1.27 2.77-1.5 4.23-1.5 3.9 0 6.3 2.66 6.3 6.96 0 2.14-.6 4-1.7 5.34-1.23 1.53-3.1 2.43-5.3 2.43-2.63 0-4.73-1.23-5.9-3.36-.92-1.7-1.56-4.06-1.56-6.4 0-3.6 1.26-6.75 3.62-9.2 2.87-2.98 5.5-3.78 10.1-4.28m-2.27 16.52c0-4.26-1.4-6.46-4.5-6.46-1.9 0-3.86.8-3.86 3.86 0 5.07 1.6 8.4 4.72 8.4 2.4 0 3.63-2.4 3.63-5.8M1000.37 658.04h-3.43v5.56h-2.6v-5.56h-9.32v-2.13l10.46-14.82h1.46v14.83h3.43v2.14m-6.03-2.13V644.5l-8 11.43h8M969.68 703.32h-9.2v-.5c2.47-.13 3.17-.83 3.17-2.67V685.2c0-1.14-.3-1.64-1-1.64-.33 0-.9.17-1.5.4l-.9.34v-.47l5.97-3.03.3.1v19.9c0 1.42.67 2.02 3.16 2.02v.5M994.4 696h-8.7v8.7h-2.2V696h-8.7v-2.2h8.7v-8.7h2.2v8.7h8.7v2.2M998.1 686.33l-.53-.13c.96-3.17 3.06-5.4 6.53-5.4 3.1 0 5.2 1.83 5.2 4.56 0 1.6-.87 3.27-3.1 4.6 1.46.63 2.06 1.03 2.76 1.77.93 1.03 1.47 2.56 1.47 4.3 0 1.76-.57 3.4-1.54 4.66-1.6 2.12-4.77 3.1-7.73 3.1-2.44 0-3.74-.7-3.74-1.9 0-.7.6-1.2 1.37-1.2.57 0 1.1.2 2.03.85 1.23.87 1.93 1.04 2.87 1.04 2.46 0 4.33-2.28 4.33-5.1 0-2.54-1.17-4.17-3.47-4.84-.73-.23-1.5-.33-3.4-.33v-.47c1.27-.43 2.14-.8 2.8-1.2 1.64-.93 2.7-2.43 2.7-4.46 0-2.27-1.4-3.4-3.6-3.4-2.06 0-3.6 1.06-4.96 3.53M1064.35 669.12h-27.75v-3.1h27.75v3.1m0 9.42h-27.75v-3.1h27.75v3.1M1091.82 684.2h-11.12v-.7c2.97-.25 3.63-1.05 3.63-3.64v-22.1c0-2.26-.47-3-1.98-3-.38 0-1 0-1.74.08v-.75c3.26-.8 5-1.3 7.45-2.1l.24.2v27.9c0 2.58.5 3.2 3.52 3.4v.7M1114.95 673.3c0 6.56-4.24 11.36-10.6 11.36-5.7 0-10.18-4.66-10.18-11.2 0-6.56 4.24-10.94 10.6-10.94 5.75 0 10.18 4.3 10.18 10.8m-4.24 1.26c0-3.2-.84-6.45-2.34-8.4-1.14-1.4-2.45-2.34-4.48-2.34-3.25 0-5.47 2.78-5.47 7.5 0 3.7.77 7.1 2.5 9.65 1.05 1.5 2.56 2.34 4.25 2.34 3.5 0 5.56-3.3 5.56-8.76M1138.55 665.9h-3.9c.65 1.52.9 2.6.9 3.97 0 2.45-.76 4.2-2.46 5.46-1.52 1.14-3.26 1.84-4.9 1.84-.3 0-.95-.05-1.8-.14l-.9-.1c-1.27.38-2.82 2.03-2.82 2.97 0 .76 1.13 1.14 3.67 1.28l6.08.28c3.5.14 5.7 2.12 5.7 5.04 0 1.88-.9 3.44-2.83 4.95-2.45 1.88-6.03 3-9.42 3-4.52 0-8.15-2.06-8.15-4.56 0-1.75 1.23-3.3 4.62-5.76-1.98-.94-2.5-1.46-2.5-2.5 0-.93.6-1.88 2.17-3.24.7-.62 1.36-1.23 2.02-1.9-3.15-1.54-4.38-3.33-4.38-6.3 0-4.3 3.5-7.68 7.87-7.68 1.23 0 2.5.24 3.77.7l1.04.38c.94.33 1.64.47 2.6.47h3.6v1.84m-14.97 2.37v.14c0 4.53 1.93 7.6 4.86 7.6 2.12 0 3.48-1.65 3.48-4.25 0-1.93-.5-4.05-1.4-5.7-.76-1.4-1.98-2.2-3.44-2.2-2.17 0-3.5 1.64-3.5 4.42m13.25 18.94c0-1.74-1.54-2.3-5.83-2.3-2.3 0-6.03-.28-7.63-.6-1.9 2.25-2.3 2.95-2.3 4.04 0 2.07 2.67 3.44 6.82 3.44 5.37 0 8.95-1.84 8.95-4.57M1166.4 684.2h-13v-.7c3.48-.2 4.47-1.2 4.47-3.78v-21.16c0-1.6-.42-2.3-1.4-2.3-.48 0-1.28.23-2.13.56l-1.27.47v-.67l8.43-4.3.42.15v28.13c0 2.04.94 2.9 4.48 2.9v.7M1192.4 651.97l.1.75c-7.4 1.23-12.67 6.3-13.95 13.43 2.3-1.8 3.9-2.12 6-2.12 5.5 0 8.9 3.77 8.9 9.84 0 3.02-.86 5.66-2.4 7.54-1.75 2.18-4.4 3.45-7.5 3.45-3.72 0-6.7-1.74-8.34-4.76-1.3-2.4-2.2-5.75-2.2-9.05 0-5.1 1.78-9.57 5.13-13 4.05-4.25 7.77-5.38 14.27-6.08m-3.2 23.36c0-6.03-1.98-9.14-6.36-9.14-2.68 0-5.46 1.13-5.46 5.46 0 7.16 2.26 11.87 6.7 11.87 3.38 0 5.12-3.4 5.12-8.2M1238.1 669.12h-27.75v-3.1h27.75v3.1m0 9.42h-27.75v-3.1h27.75v3.1M1275.75 676.32h-4.86v7.87h-3.68v-7.88h-13.2v-3l14.8-20.98h2.07v20.97h4.85v3.02m-8.53-3v-16.17l-11.3 16.16h11.3"/><path d="M859.38 639.22l-67.82-84.77M859.36 639.2l.64.8" stroke="#000" stroke-width="2" fill="none"/><path d="M782.02 542.53l12.53 8.24-7.24 5.8z" stroke="#000" stroke-width="2"/><path d="M160 640h160v80H160z" stroke="#000" stroke-opacity="0" stroke-width="2" fill="#fff" fill-opacity="0"/><use xlink:href="#k" transform="matrix(1,0,0,1,165,645) translate(31.025 27.525)"/><use xlink:href="#l" transform="matrix(1,0,0,1,165,645) translate(98.975 27.525)"/><use xlink:href="#m" transform="matrix(1,0,0,1,165,645) translate(31.025 49.125)"/><path d="M1280 360h80v80h-80zM1360 360h80v80h-80z" stroke="#000" stroke-width="2" fill="#ffbbb1"/><use xlink:href="#d" transform="matrix(1,0,0,1,1365,365) translate(28.82716049382716 39.65277777777778)"/><path d="M1440 360h80v80h-80zM1520 360h80v80h-80zM1600 360h80v80h-80zM1680 360h80v80h-80zM1760 360h80v80h-80zM1840 360h80v80h-80z" stroke="#000" stroke-width="2" fill="#ffbbb1"/><use xlink:href="#n" transform="matrix(1,0,0,1,1845,365) translate(22.654320987654323 39.65277777777778)"/><path d="M1920 360h80v80h-80zM2000 360h80v80h-80zM2080 360h80v80h-80zM2160 360h80v80h-80zM2240 360h80v80h-80z" stroke="#000" stroke-width="2" fill="#ffbbb1"/><path d="M1260 553.14L1373.14 440l56.57 56.57-113.13 113.14z" stroke="#000" stroke-opacity="0" stroke-width="2" fill="#fff" fill-opacity="0"/><use xlink:href="#c" transform="matrix(0.7071067811865476,-0.7071067811865475,0.7071067811865475,0.7071067811865476,1267.0710678118655,553.1370849898476) translate(119.1358024691358 39.65277777777778)"/><path d="M1740 553.14L1853.14 440l56.57 56.57-113.13 113.14z" stroke="#000" stroke-opacity="0" stroke-width="2" fill="#fff" fill-opacity="0"/><use xlink:href="#h" transform="matrix(0.7071067811865476,-0.7071067811865475,0.7071067811865475,0.7071067811865476,1747.0710678118653,553.1370849898477) translate(92.09876543209876 39.65277777777778)"/><path d="M1720 560h160v48.7h-160z" fill="#fff" fill-opacity="0"/><path d="M1735.6 574.33l-.27 1.7h-4.42l-4.58 17.27c-.05.2-.1.58-.1.74 0 .7.3.84.8.84.83 0 1.67-.84 4.26-4.16l.68.37c-3.16 4.84-4.8 6.37-7.53 6.37-1.43 0-2.43-.64-2.43-1.95 0-.58.42-2.22.85-3.9l4.1-15.6H1723c-.05-.16-.05-.32-.05-.32 0-.58.48-1.05 1.74-1.3 1.68-.38 5.1-2.96 7-5.8.2-.33.52-.48.74-.48.3 0 .47.15.47.42 0 0 0 .26-.04.37l-1.48 5.43h4.22M1737.76 574.33h4.9c1.16-3.74 2.05-6.64 3.8-9.1 1.57-2.28 3.73-4.07 6.95-4.07 2.6 0 4.54 1.37 4.54 3.27 0 1.16-1 2.26-2.2 2.26-.96 0-1.96-.8-1.96-2.06 0-.9.52-1.16.52-1.64 0-.42-.42-.68-1.16-.68-2.95 0-4.9 3.7-6.42 12h5.63l-.3 1.7h-5.7l-3.8 16.86c-2.2 9.75-5.74 14.9-10.54 14.9-2.36 0-4.15-1.36-4.15-3.2 0-1.2.9-2.2 2-2.2 1.22 0 2 .83 2 1.94 0 .68-.47.94-.47 1.52 0 .48.42.85 1.06.85 2.2 0 3.9-2.86 5.1-8.55l4.64-22.13h-4.8M1801.15 595.73l-2.43 2.47-12.17-12.12-12.17 12.12-2.42-2.42 12.1-12.17-12.1-12.16 2.47-2.43 12.12 12.13 12.17-12.12 2.43 2.38-12.12 12.23M1829.02 565.32c0 1.48-1.2 2.7-2.58 2.7-1.53 0-2.53-1.12-2.53-2.8 0-1.64 1.06-2.8 2.5-2.8 1.4 0 2.62 1.38 2.62 2.9m-2.2 25.56l.67.58c-2.9 4.43-4.6 6-7.22 6-1.74 0-2.6-.94-2.6-2.9 0-1.05.38-2.9 1.17-5.84l2.53-9.33c.27-.96.48-1.9.48-2.33 0-1.05-.53-1.2-3.38-1.26v-.83c2.06-.16 3.1-.32 8.43-1.32l.23.16-4.96 18.08c-.26.9-.52 1.58-.52 2.32 0 .53.3.8.73.8.9 0 2.16-1.12 4.43-4.12M1857.27 560.9l.3.3-2.04 8.02-3.16 11.54c-1.64 6-3.43 12.12-3.43 12.97 0 .63.26 1.05.95 1.05.88 0 1.46-.48 4.3-3.74l.64.52c-2.58 3.85-5.1 6-7.74 6-1.37 0-2.16-.94-2.16-2.36 0-1.2.1-2.05.68-4.7-3.1 5.23-5.8 6.97-9.38 6.97-3.42 0-5.64-2.16-5.64-6.17 0-8.54 8.54-17.65 15.4-17.65 2.2 0 3.1 1 3.4 3.06h.07l2.37-8.58c.8-2.8.74-3 .74-3.75 0-1.1-.48-1.26-3.38-1.37v-.9c3.38-.3 5.27-.62 8.07-1.2m-8.7 16.96c0-1.9-1.26-3-2.48-3-1.48 0-3.32.9-4.8 2.42-3.48 3.7-6.1 9.44-6.1 13.8 0 2.43 1.2 3.86 3.04 3.86 4.85 0 10.33-9.07 10.33-17.08"/><path d="M1859.74 574.33h4.9c1.16-3.74 2.06-6.64 3.8-9.1 1.58-2.28 3.74-4.07 6.95-4.07 2.57 0 4.52 1.37 4.52 3.27 0 1.16-1 2.26-2.2 2.26-.96 0-1.96-.8-1.96-2.06 0-.9.53-1.16.53-1.64 0-.42-.43-.68-1.17-.68-2.95 0-4.9 3.7-6.43 12h5.64l-.32 1.7h-5.7l-3.78 16.86c-2.22 9.75-5.75 14.9-10.54 14.9-2.37 0-4.16-1.36-4.16-3.2 0-1.2.9-2.2 2-2.2 1.2 0 2 .83 2 1.94 0 .68-.47.94-.47 1.52 0 .48.42.85 1.05.85 2.2 0 3.9-2.86 5.1-8.55l4.65-22.13h-4.8"/><path d="M1222.14 281.3l76.55 45.9M1222.2 281.32L1220 280" stroke="#c92d39" stroke-width="5" fill="none"/><path d="M1313.06 335.84l-14.6-3.37 4.75-7.95z" stroke="#c92d39" stroke-width="5" fill="#c92d39"/><path d="M1222.14 518.7l76.55-45.9M1222.2 518.68L1220 520" stroke="#c92d39" stroke-width="5" fill="none"/><path d="M1313.06 464.16l-9.85 11.32-4.75-7.95z" stroke="#c92d39" stroke-width="5" fill="#c92d39"/><defs><path d="M23 0v-37h61v-169l-59 37v-38l62-41h46v211h57V0H23" id="o"/><path d="M101-251c68 0 84 54 84 127C185-50 166 4 99 4S15-52 14-124c-1-75 17-127 87-127zm-1 216c37-5 36-46 36-89s4-89-36-89c-39 0-36 45-36 89 0 43-3 85 36 89" id="p"/><g id="a"><use transform="matrix(0.06172839506172839,0,0,0.06172839506172839,0,0)" xlink:href="#o"/><use transform="matrix(0.06172839506172839,0,0,0.06172839506172839,12.345679012345679,0)" xlink:href="#p"/><use transform="matrix(0.06172839506172839,0,0,0.06172839506172839,24.691358024691358,0)" xlink:href="#p"/><use transform="matrix(0.06172839506172839,0,0,0.06172839506172839,37.03703703703704,0)" xlink:href="#p"/></g><path d="M139-81c0-46-55-55-73-27H18l9-140h149v37H72l-4 63c44-38 133-4 122 66C201 21 21 35 11-62l49-4c5 18 15 30 39 30 26 0 40-18 40-45" id="q"/><use transform="matrix(0.06172839506172839,0,0,0.06172839506172839,0,0)" xlink:href="#q" id="b"/><path d="M59-47c-2 24 18 29 38 22v24C64 9 27 4 27-40v-127H5v-23h24l9-43h21v43h35v23H59v120" id="r"/><path d="M106-169C34-169 62-67 57 0H25v-261h32l-1 103c12-21 28-36 61-36 89 0 53 116 60 194h-32v-121c2-32-8-49-39-48" id="s"/><path d="M100-194c63 0 86 42 84 106H49c0 40 14 67 53 68 26 1 43-12 49-29l28 8c-11 28-37 45-77 45C44 4 14-33 15-96c1-61 26-98 85-98zm52 81c6-60-76-77-97-28-3 7-6 17-6 28h103" id="t"/><g id="c"><use transform="matrix(0.06172839506172839,0,0,0.06172839506172839,0,0)" xlink:href="#r"/><use transform="matrix(0.06172839506172839,0,0,0.06172839506172839,6.172839506172839,0)" xlink:href="#s"/><use transform="matrix(0.06172839506172839,0,0,0.06172839506172839,18.51851851851852,0)" xlink:href="#t"/></g><use transform="matrix(0.06172839506172839,0,0,0.06172839506172839,0,0)" xlink:href="#p" id="d"/><path d="M165-50V0h-47v-50H5v-38l105-160h55v161h33v37h-33zm-47-37l2-116L46-87h72" id="u"/><use transform="matrix(0.06172839506172839,0,0,0.06172839506172839,0,0)" xlink:href="#u" id="e"/><path d="M127-220V0H93v-220H8v-28h204v28h-85" id="v"/><path d="M114-163C36-179 61-72 57 0H25l-1-190h30c1 12-1 29 2 39 6-27 23-49 58-41v29" id="w"/><path d="M210-169c-67 3-38 105-44 169h-31v-121c0-29-5-50-35-48C34-165 62-65 56 0H25l-1-190h30c1 10-1 24 2 32 10-44 99-50 107 0 11-21 27-35 58-36 85-2 47 119 55 194h-31v-121c0-29-5-49-35-48" id="x"/><g id="f"><use transform="matrix(0.08641975308641976,0,0,0.08641975308641976,0,0)" xlink:href="#v"/><use transform="matrix(0.08641975308641976,0,0,0.08641975308641976,15.469135802469134,0)" xlink:href="#t"/><use transform="matrix(0.08641975308641976,0,0,0.08641975308641976,32.75308641975309,0)" xlink:href="#w"/><use transform="matrix(0.08641975308641976,0,0,0.08641975308641976,43.03703703703704,0)" xlink:href="#x"/></g><path d="M63-220v92h138v28H63V0H30v-248h175v28H63" id="y"/><path d="M145-31C134-9 116 4 85 4 32 4 16-35 15-94c0-59 17-99 70-100 32-1 48 14 60 33 0-11-1-24 2-32h30l-1 268h-32zM93-21c41 0 51-33 51-76s-8-73-50-73c-40 0-46 35-46 75s5 74 45 74" id="z"/><path d="M84 4C-5 8 30-112 23-190h32v120c0 31 7 50 39 49 72-2 45-101 50-169h31l1 190h-30c-1-10 1-25-2-33-11 22-28 36-60 37" id="A"/><path d="M117-194c89-4 53 116 60 194h-32v-121c0-31-8-49-39-48C34-167 62-67 57 0H25l-1-190h30c1 10-1 24 2 32 11-22 29-35 61-36" id="B"/><path d="M96-169c-40 0-48 33-48 73s9 75 48 75c24 0 41-14 43-38l32 2c-6 37-31 61-74 61-59 0-76-41-82-99-10-93 101-131 147-64 4 7 5 14 7 22l-32 3c-4-21-16-35-41-35" id="C"/><path d="M179-190L93 31C79 59 56 82 12 73V49c39 6 53-20 64-50L1-190h34L92-34l54-156h33" id="D"/><g id="g"><use transform="matrix(0.08641975308641976,0,0,0.08641975308641976,0,0)" xlink:href="#y"/><use transform="matrix(0.08641975308641976,0,0,0.08641975308641976,18.925925925925927,0)" xlink:href="#w"/><use transform="matrix(0.08641975308641976,0,0,0.08641975308641976,29.20987654320988,0)" xlink:href="#t"/><use transform="matrix(0.08641975308641976,0,0,0.08641975308641976,46.49382716049383,0)" xlink:href="#z"/><use transform="matrix(0.08641975308641976,0,0,0.08641975308641976,63.777777777777786,0)" xlink:href="#A"/><use transform="matrix(0.08641975308641976,0,0,0.08641975308641976,81.06172839506173,0)" xlink:href="#t"/><use transform="matrix(0.08641975308641976,0,0,0.08641975308641976,98.34567901234568,0)" xlink:href="#B"/><use transform="matrix(0.08641975308641976,0,0,0.08641975308641976,115.62962962962965,0)" xlink:href="#C"/><use transform="matrix(0.08641975308641976,0,0,0.08641975308641976,131.1851851851852,0)" xlink:href="#D"/></g><path d="M240 0l2-218c-23 76-54 145-80 218h-23L58-218 59 0H30v-248h44l77 211c21-75 51-140 76-211h43V0h-30" id="E"/><path d="M135-143c-3-34-86-38-87 0 15 53 115 12 119 90S17 21 10-45l28-5c4 36 97 45 98 0-10-56-113-15-118-90-4-57 82-63 122-42 12 7 21 19 24 35" id="F"/><path d="M24-231v-30h32v30H24zM24 0v-190h32V0H24" id="G"/><g id="h"><use transform="matrix(0.06172839506172839,0,0,0.06172839506172839,0,0)" xlink:href="#E"/><use transform="matrix(0.06172839506172839,0,0,0.06172839506172839,18.456790123456788,0)" xlink:href="#t"/><use transform="matrix(0.06172839506172839,0,0,0.06172839506172839,30.80246913580247,0)" xlink:href="#F"/><use transform="matrix(0.06172839506172839,0,0,0.06172839506172839,41.91358024691358,0)" xlink:href="#F"/><use transform="matrix(0.06172839506172839,0,0,0.06172839506172839,53.0246913580247,0)" xlink:href="#G"/></g><path d="M33 0v-248h34V0H33" id="H"/><path d="M108 0H70L1-190h34L89-25l56-165h34" id="I"/><g id="i"><use transform="matrix(0.08641975308641976,0,0,0.08641975308641976,0,0)" xlink:href="#H"/><use transform="matrix(0.08641975308641976,0,0,0.08641975308641976,8.641975308641976,0)" xlink:href="#B"/><use transform="matrix(0.08641975308641976,0,0,0.08641975308641976,25.925925925925927,0)" xlink:href="#I"/><use transform="matrix(0.08641975308641976,0,0,0.08641975308641976,41.48148148148149,0)" xlink:href="#t"/><use transform="matrix(0.08641975308641976,0,0,0.08641975308641976,58.76543209876545,0)" xlink:href="#w"/><use transform="matrix(0.08641975308641976,0,0,0.08641975308641976,69.0493827160494,0)" xlink:href="#F"/><use transform="matrix(0.08641975308641976,0,0,0.08641975308641976,84.60493827160495,0)" xlink:href="#t"/></g><path d="M30-248c118-7 216 8 213 122C240-48 200 0 122 0H30v-248zM63-27c89 8 146-16 146-99s-60-101-146-95v194" id="J"/><path d="M100-194c62-1 85 37 85 99 1 63-27 99-86 99S16-35 15-95c0-66 28-99 85-99zM99-20c44 1 53-31 53-75 0-43-8-75-51-75s-53 32-53 75 10 74 51 75" id="K"/><g id="j"><use transform="matrix(0.08641975308641976,0,0,0.08641975308641976,0,0)" xlink:href="#J"/><use transform="matrix(0.08641975308641976,0,0,0.08641975308641976,22.38271604938272,0)" xlink:href="#K"/><use transform="matrix(0.08641975308641976,0,0,0.08641975308641976,39.66666666666667,0)" xlink:href="#C"/><use transform="matrix(0.08641975308641976,0,0,0.08641975308641976,55.22222222222223,0)" xlink:href="#A"/><use transform="matrix(0.08641975308641976,0,0,0.08641975308641976,72.50617283950618,0)" xlink:href="#x"/><use transform="matrix(0.08641975308641976,0,0,0.08641975308641976,98.34567901234568,0)" xlink:href="#t"/><use transform="matrix(0.08641975308641976,0,0,0.08641975308641976,115.62962962962965,0)" xlink:href="#B"/><use transform="matrix(0.08641975308641976,0,0,0.08641975308641976,132.9135802469136,0)" xlink:href="#r"/></g><path d="M141-36C126-15 110 5 73 4 37 3 15-17 15-53c-1-64 63-63 125-63 3-35-9-54-41-54-24 1-41 7-42 31l-33-3c5-37 33-52 76-52 45 0 72 20 72 64v82c-1 20 7 32 28 27v20c-31 9-61-2-59-35zM48-53c0 20 12 33 32 33 41-3 63-29 60-74-43 2-92-5-92 41" id="L"/><g id="k"><use transform="matrix(0.05,0,0,0.05,0,0)" xlink:href="#L"/><use transform="matrix(0.05,0,0,0.05,10,0)" xlink:href="#F"/><use transform="matrix(0.05,0,0,0.05,19,0)" xlink:href="#F"/><use transform="matrix(0.05,0,0,0.05,28,0)" xlink:href="#A"/><use transform="matrix(0.05,0,0,0.05,38,0)" xlink:href="#x"/><use transform="matrix(0.05,0,0,0.05,52.95,0)" xlink:href="#t"/></g><path d="M110-160c48 1 74 30 74 79 0 53-28 85-80 85-65 0-83-55-86-122-5-90 50-162 133-122 14 7 22 21 27 39l-31 6c-5-40-67-38-82-6-9 19-15 44-15 74 11-20 30-34 60-33zm-7 138c34 0 49-23 49-58s-16-56-50-56c-29 0-50 16-49 49 1 36 15 65 50 65" id="M"/><path d="M155-56V0h-30v-56H8v-25l114-167h33v167h35v25h-35zm-30-156c-27 46-58 90-88 131h88v-131" id="N"/><g id="l"><use transform="matrix(0.05,0,0,0.05,0,0)" xlink:href="#M"/><use transform="matrix(0.05,0,0,0.05,10,0)" xlink:href="#N"/></g><path d="M85-194c31 0 48 13 60 33l-1-100h32l1 261h-30c-2-10 0-23-3-31C134-8 116 4 85 4 32 4 16-35 15-94c0-66 23-100 70-100zm9 24c-40 0-46 34-46 75 0 40 6 74 45 74 42 0 51-32 51-76 0-42-9-74-50-73" id="O"/><g id="m"><use transform="matrix(0.05,0,0,0.05,0,0)" xlink:href="#O"/><use transform="matrix(0.05,0,0,0.05,10,0)" xlink:href="#K"/><use transform="matrix(0.05,0,0,0.05,20,0)" xlink:href="#C"/><use transform="matrix(0.05,0,0,0.05,29,0)" xlink:href="#A"/><use transform="matrix(0.05,0,0,0.05,39,0)" xlink:href="#x"/><use transform="matrix(0.05,0,0,0.05,53.95,0)" xlink:href="#t"/><use transform="matrix(0.05,0,0,0.05,63.95,0)" xlink:href="#B"/><use transform="matrix(0.05,0,0,0.05,73.95,0)" xlink:href="#r"/><use transform="matrix(0.05,0,0,0.05,78.95,0)" xlink:href="#F"/></g><path d="M182-182c0 78-84 86-111 141h115V0H12c-6-101 99-100 120-180 1-22-12-31-33-32-23 0-32 14-35 34l-49-3c5-45 32-70 84-70 51 0 83 22 83 69" id="P"/><g id="n"><use transform="matrix(0.06172839506172839,0,0,0.06172839506172839,0,0)" xlink:href="#P"/><use transform="matrix(0.06172839506172839,0,0,0.06172839506172839,12.345679012345679,0)" xlink:href="#p"/></g></defs></g></svg>