<svg xmlns="http://www.w3.org/2000/svg" xmlns:xlink="http://www.w3.org/1999/xlink" xmlns:lucid="lucid" width="1200" height="360.38"><g transform="translate(-140 -99.99999999999997)" lucid:page-tab-id="g0QZROLbNftO"><path d="M160 240h480v88.1H160z" fill="#fff" fill-opacity="0"/><path d="M175 294.65h-13.77v-.87c3.67-.3 4.5-1.3 4.5-4.5v-27.36c0-2.8-.6-3.74-2.46-3.74-.47 0-1.23 0-2.16.12v-.93c4.04-1 6.2-1.58 9.23-2.57l.3.23v34.55c0 3.2.63 3.96 4.37 4.2v.87M203.65 281.17c0 8.12-5.25 14.07-13.13 14.07-7.06 0-12.6-5.78-12.6-13.9 0-8.1 5.25-13.53 13.12-13.53 7.12 0 12.6 5.32 12.6 13.37m-5.24 1.58c0-3.97-1.05-8-2.92-10.4-1.4-1.74-3.04-2.9-5.54-2.9-4.03 0-6.77 3.44-6.77 9.27 0 4.6.93 8.8 3.1 11.97 1.27 1.85 3.14 2.9 5.24 2.9 4.33 0 6.9-4.08 6.9-10.85M232.88 272h-4.84c.82 1.88 1.1 3.22 1.1 4.9 0 3.05-.92 5.2-3.02 6.78-1.87 1.4-4.03 2.28-6.07 2.28-.35 0-1.17-.06-2.22-.18l-1.1-.1c-1.6.45-3.5 2.5-3.5 3.66 0 .94 1.4 1.4 4.54 1.58l7.53.35c4.32.17 7.06 2.63 7.06 6.24 0 2.35-1.1 4.27-3.5 6.14-3.04 2.33-7.47 3.73-11.67 3.73-5.6 0-10.1-2.56-10.1-5.66 0-2.14 1.5-4.07 5.7-7.1-2.44-1.17-3.08-1.8-3.08-3.1 0-1.16.76-2.33 2.68-4.02.88-.76 1.7-1.52 2.5-2.34-3.9-1.92-5.42-4.14-5.42-7.82 0-5.3 4.32-9.5 9.75-9.5 1.52 0 3.1.28 4.67.87l1.28.45c1.17.4 2.04.6 3.2.6h4.5V272m-18.55 2.93v.17c0 5.6 2.4 9.4 6 9.4 2.63 0 4.33-2.04 4.33-5.25 0-2.4-.65-5.02-1.75-7.06-.93-1.76-2.45-2.76-4.25-2.76-2.7 0-4.32 2.05-4.32 5.5m16.4 23.45c0-2.17-1.93-2.87-7.24-2.87-2.87 0-7.48-.35-9.46-.76-2.34 2.8-2.86 3.68-2.86 5.02 0 2.56 3.32 4.25 8.46 4.25 6.65 0 11.1-2.28 11.1-5.66M251.32 281.82H632.9v-3.5H251.32zM408.6 252.5h-4.3l-.83 5.53h4.1v2.27h-4.47l-1.28 8.9h-2.4l1.3-8.9h-5.54l-1.36 8.9h-2.4l1.37-8.9h-4.4v-2.27h4.76l.86-5.53h-4.5v-2.27h4.83l1.28-8.33h2.4l-1.28 8.33h5.5l1.22-8.33h2.4l-1.24 8.33h3.96v2.27m-6.7 0h-5.48l-.87 5.53h5.53M440.65 241.03l.25.25-1.6 6.27-2.5 9.03c-1.27 4.7-2.67 9.5-2.67 10.16 0 .5.2.82.74.82.7 0 1.16-.37 3.4-2.93l.48.4c-2.02 3.03-4 4.72-6.06 4.72-1.1 0-1.7-.75-1.7-1.86 0-.96.08-1.62.53-3.68-2.43 4.08-4.54 5.45-7.34 5.45-2.7 0-4.43-1.7-4.43-4.83 0-6.7 6.7-13.83 12.05-13.83 1.73 0 2.44.8 2.68 2.4h.04l1.86-6.72c.62-2.2.58-2.35.58-2.93 0-.86-.37-1-2.64-1.07v-.7c2.64-.25 4.12-.5 6.3-.95m-6.8 13.3c0-1.5-1-2.37-1.94-2.37-1.15 0-2.6.7-3.75 1.9-2.73 2.9-4.8 7.4-4.8 10.8 0 1.9.96 3.02 2.4 3.02 3.8 0 8.1-7.1 8.1-13.36M460.2 256.8c0 3.13-1.64 6.76-4.36 9.44-2.4 2.4-5.04 3.43-7.76 3.43-3.88 0-6.07-2.15-6.07-5.74 0-4.62 3.1-9.37 7.44-11.68 1.6-.86 3.26-1.24 4.95-1.24 3.33 0 5.8 2.16 5.8 5.8m-3.46-1.04c0-2.52-1.15-3.88-2.93-3.88-1.8 0-3.62 1.28-5.27 3.76-1.9 2.88-3.05 6.14-3.05 9.4 0 2.48 1.28 3.76 3.22 3.76 1.8 0 3.38-1.2 5-3.43 1.9-2.6 3.04-6.47 3.04-9.6M476 264.8l.67.4c-2.5 3.2-4.7 4.47-7.8 4.47-3.83 0-6.06-2.15-6.06-6.36 0-3.83 2.15-7.42 5.08-9.77 2.03-1.6 4.38-2.52 6.9-2.52 2.5 0 4.33 1.42 4.33 3.36 0 1.1-.9 1.98-1.97 1.98-1.16 0-1.6-.83-1.6-1.65 0-.76.6-1.2.6-2 0-.5-.57-.82-1.52-.82-1.64 0-3.3.74-4.5 1.98-2.3 2.44-3.74 5.94-3.74 9.62 0 2.97 1.32 4.7 3.67 4.7 2.2 0 3.75-1.03 5.98-3.38M495 250.97l-.83 5.78h-.66c-.4-3.42-1.64-4.8-3.66-4.8-1.45 0-2.44.84-2.44 2.37 0 1.1.62 2.3 2.23 4.2 2.06 2.4 2.8 4 2.8 5.62 0 3.42-2.5 5.53-5.94 5.53-.7 0-1.33-.05-2.28-.42-.78-.33-1.36-.37-1.8-.37-.47 0-.92.2-1.2.87h-.67l.83-6.56h.66c.57 3.9 1.98 5.6 4.12 5.6 1.94 0 3.14-1.16 3.14-3.18 0-1.32-.7-2.72-2.3-4.74-1.8-2.23-2.6-4.1-2.6-5.4 0-2.73 1.93-4.47 4.98-4.47.7 0 1.28.14 2.3.43.8.24 1.17.3 1.5.3.62 0 .9-.18 1.24-.76h.57M271.08 318.64h-11.4v-.62c3.07-.17 3.93-1.03 3.93-3.3V296.2c0-1.4-.36-2.03-1.22-2.03-.42 0-1.12.2-1.86.5l-1.1.4v-.57l7.37-3.76.36.13v24.63c0 1.78.83 2.52 3.92 2.52v.62M312.06 309.56H301.3v10.77h-2.74v-10.77H287.8v-2.72h10.76v-10.77h2.73v10.77h10.76v2.72M344.82 301.93h-4.3l-.82 5.52h4.1v2.27h-4.47l-1.28 8.92h-2.4l1.3-8.92h-5.54l-1.35 8.92h-2.4l1.37-8.92h-4.38v-2.27h4.75l.85-5.52h-4.5v-2.27h4.83l1.28-8.34h2.4l-1.28 8.34h5.48l1.24-8.34h2.4l-1.24 8.34h3.96v2.27m-6.7 0h-5.47l-.87 5.52h5.53M376.92 290.45l.25.25-1.6 6.27-2.5 9.04c-1.26 4.7-2.67 9.5-2.67 10.16 0 .5.2.83.74.83.7 0 1.16-.38 3.4-2.94l.48.4c-2.02 3.02-4 4.7-6.06 4.7-1.07 0-1.7-.73-1.7-1.84 0-.95.1-1.6.54-3.68-2.43 4.1-4.54 5.45-7.34 5.45-2.68 0-4.42-1.7-4.42-4.84 0-6.68 6.7-13.82 12.05-13.82 1.72 0 2.43.78 2.67 2.4h.04l1.87-6.73c.62-2.18.58-2.34.58-2.92 0-.87-.37-1-2.64-1.07v-.7c2.65-.24 4.13-.5 6.32-.95m-6.8 13.3c0-1.5-1-2.36-1.95-2.36-1.15 0-2.6.7-3.75 1.9-2.72 2.88-4.8 7.37-4.8 10.8 0 1.9.96 3 2.4 3 3.8 0 8.1-7.1 8.1-13.36M396.48 306.22c0 3.13-1.65 6.76-4.37 9.45-2.4 2.4-5.03 3.42-7.75 3.42-3.88 0-6.07-2.15-6.07-5.74 0-4.63 3.1-9.37 7.43-11.68 1.62-.87 3.27-1.24 4.96-1.24 3.34 0 5.82 2.15 5.82 5.78M393 305.2c0-2.53-1.14-3.9-2.92-3.9-1.8 0-3.63 1.3-5.28 3.76-1.9 2.9-3.05 6.15-3.05 9.4 0 2.5 1.28 3.76 3.22 3.76 1.8 0 3.38-1.2 5-3.42 1.9-2.6 3.04-6.48 3.04-9.6M412.28 314.22l.66.4c-2.5 3.2-4.7 4.47-7.8 4.47-3.83 0-6.06-2.15-6.06-6.36 0-3.84 2.15-7.43 5.07-9.78 2.03-1.6 4.38-2.52 6.9-2.52 2.5 0 4.33 1.4 4.33 3.34 0 1.12-.9 1.98-1.98 1.98-1.16 0-1.6-.82-1.6-1.65 0-.73.6-1.18.6-1.97 0-.5-.57-.82-1.52-.82-1.65 0-3.3.75-4.5 2-2.3 2.42-3.75 5.93-3.75 9.6 0 2.97 1.32 4.7 3.67 4.7 2.2 0 3.76-1.03 5.98-3.38M431.26 300.4l-.82 5.78h-.66c-.4-3.43-1.65-4.8-3.67-4.8-1.44 0-2.43.83-2.43 2.36 0 1.12.62 2.3 2.23 4.2 2.06 2.4 2.8 4 2.8 5.62 0 3.43-2.5 5.53-5.94 5.53-.7 0-1.32-.05-2.27-.42-.8-.33-1.37-.37-1.82-.37-.45 0-.9.2-1.2.87h-.66l.83-6.56h.66c.6 3.93 2 5.62 4.13 5.62 1.94 0 3.14-1.15 3.14-3.17 0-1.32-.7-2.73-2.3-4.75-1.78-2.23-2.6-4.08-2.6-5.4 0-2.73 1.93-4.46 4.98-4.46.7 0 1.28.12 2.3.4.8.26 1.17.3 1.5.3.62 0 .9-.16 1.24-.74h.56M461.6 313.73l.57.37c-2.68 4.08-3.75 4.9-5.7 4.9-1.23 0-1.97-.7-1.97-1.97 0-.9.53-3.67 1.85-8.13-4.87 8-6.93 10.2-9.86 10.2-1.45 0-2.2-.67-2.2-2.2 0-.78.37-2.27 1.12-5.28l1.44-5.73c.33-1.37.58-2.45.58-2.78 0-.3-.2-.62-.45-.74-.4-.2-.5-.25-2.08-.25v-.58c2.35-.28 3.84-.57 6.2-1.1l.16.1-3.68 14.66c-.04.14-.12.5-.12.67 0 .62.2 1.03.83 1.03 1.4 0 3.3-2.18 5.87-6.06 1.93-2.93 2.5-4.5 4.53-10.03h3.06l-3.26 12.35c-.2.78-.8 2.72-.8 3.22 0 .45.18.7.47.7.66 0 1.32-.58 3.42-3.34M478.35 300.4l-.83 5.78h-.66c-.4-3.43-1.65-4.8-3.67-4.8-1.46 0-2.45.83-2.45 2.36 0 1.12.62 2.3 2.23 4.2 2.06 2.4 2.8 4 2.8 5.62 0 3.43-2.5 5.53-5.94 5.53-.7 0-1.32-.05-2.26-.42-.8-.33-1.37-.37-1.82-.37-.45 0-.9.2-1.2.87h-.66l.83-6.56h.66c.57 3.93 1.97 5.62 4.1 5.62 1.95 0 3.15-1.15 3.15-3.17 0-1.32-.7-2.73-2.3-4.75-1.78-2.23-2.6-4.08-2.6-5.4 0-2.73 1.93-4.46 4.98-4.46.7 0 1.28.12 2.3.4.8.26 1.17.3 1.5.3.62 0 .9-.16 1.24-.74h.58M490.2 293.92c0 1.16-.96 2.1-2.03 2.1-1.2 0-2-.86-2-2.18 0-1.28.84-2.2 1.95-2.2 1.12 0 2.07 1.08 2.07 2.28m-1.75 20l.54.47c-2.28 3.45-3.6 4.7-5.66 4.7-1.36 0-2.02-.75-2.02-2.28 0-.82.28-2.27.9-4.58l1.98-7.3c.2-.74.38-1.5.38-1.82 0-.82-.42-.95-2.65-1v-.65c1.6-.12 2.44-.25 6.6-1.03l.17.12-3.88 14.16c-.2.7-.4 1.24-.4 1.8 0 .43.24.63.57.63.7 0 1.68-.86 3.45-3.22M509.8 313.8l.56.55c-2.8 3.83-3.83 4.66-5.77 4.66-1.04 0-1.95-.65-1.95-2.22 0-.4.08-.95.66-3.1l1.82-6.68c.33-1.28.58-2.76.58-3.26 0-.74-.37-1.2-1-1.2-1.64 0-3.5 2.03-6.1 5.86-1.85 2.77-2.18 3.72-4.12 10.24h-3.1l3.97-14.44c.04-.2.08-.46.08-.7 0-.83-.58-1.08-2.68-1.12v-.66c3.34-.66 4.5-.83 6.68-1.28l.17.08-2.77 9c4.13-6.6 6.9-9.08 9.53-9.08 1.78 0 2.68 1.03 2.68 2.52 0 .74-.16 1.6-.4 2.47l-2.32 8.38c-.4 1.5-.58 2.2-.58 2.53 0 .37.17.74.66.74.58 0 1.32-.66 2.52-2.2.3-.32.58-.7.87-1.06M530.87 303.54h-2.02c.37.74.37 1.4.37 2.1 0 3.47-3.8 6.77-7.63 6.77-.47 0-.92-.03-1.3-.12-.1-.04-.2-.04-.28-.04-.7 0-1.5.83-1.5 1.7 0 .74 1.13 1.27 2.94 1.73 3.97.95 5.86 2.76 5.86 5.24 0 3.6-3.17 6.24-8.66 6.24-4.2 0-6.9-1.5-6.9-4.46 0-2.1.8-3.22 4.84-5.65-.75-.46-1.12-1.07-1.12-1.6 0-1.2.95-2.45 3.18-3.48-2.3-.82-3.26-2.3-3.26-4.45 0-4.2 4.13-7.06 8.3-7.06 1.56 0 2.92.37 4.04 1.16.33.24.53.33.66.33h2.47v1.6m-4.9.75c0-2.2-.8-2.93-2.32-2.93-2.56 0-5.03 3-5.03 7.1 0 1.93.9 3.1 2.47 3.1 1.4 0 2.5-.75 3.5-2.44.83-1.4 1.36-3.1 1.36-4.82m-1.1 18.07c0-1.9-1.5-3.05-5.9-4.4-.55-.18-.96-.3-1.42-.47-.37 0-2.1 1.4-2.68 2.15-.62.78-.82 1.44-.82 2.4 0 2.88 1.94 4.2 5.24 4.2 3.34 0 5.57-1.77 5.57-3.88M559.05 301.06l1.33 14.52c5.4-6.76 6.8-8.95 6.8-10.72 0-.5-.24-.83-.9-1.45-.66-.6-.87-1.1-.87-1.68 0-.66.7-1.28 1.62-1.28 1.24 0 2.14 1 2.14 2.3 0 2.65-3.05 7.48-8.74 14.4l-.37.47c-1.12 1.37-1.5 1.78-1.86 1.78-.3 0-.38-.37-.47-1.44l-1.2-12.8-3.66 6.28c-.75 1.23-1.5 2.6-2.27 4.08-1.5 2.85-2.2 3.88-2.64 3.88-.38 0-.46-.33-.54-1.94l-.17-3.75c-.16-3.6-.62-8.02-1.1-10-.38-1.53-.75-1.73-1.95-1.73h-1.16v-.54c1.28-.2 2.7-.37 3.92-.7.54-.12.9-.3 1.2-.3.46 0 .5.1.8 1.4.56 2.82 1.14 7.98 1.3 11.6l7.93-12.54c.2-.34.32-.42.52-.42.25 0 .33.13.33.58M589.26 306.22c0 3.13-1.65 6.76-4.37 9.45-2.4 2.4-5.05 3.42-7.77 3.42-3.88 0-6.07-2.15-6.07-5.74 0-4.63 3.1-9.37 7.43-11.68 1.6-.87 3.25-1.24 4.94-1.24 3.34 0 5.82 2.15 5.82 5.78m-3.47-1.03c0-2.53-1.16-3.9-2.94-3.9-1.8 0-3.63 1.3-5.28 3.76-1.9 2.9-3.05 6.15-3.05 9.4 0 2.5 1.28 3.76 3.22 3.76 1.8 0 3.38-1.2 5-3.42 1.9-2.6 3.04-6.48 3.04-9.6M597.88 309.44l.66-1.45c.8-1.74 2.2-3.93 3.88-5.7 1.07-1.12 2.3-1.86 3.26-1.86 1.16 0 1.94.87 1.94 2.1 0 1.24-.7 2.23-1.94 2.23-.74 0-1.07-.45-1.44-1.07-.25-.4-.37-.58-.66-.58-.75 0-1.9 1.36-3.4 3.88-1.76 3.05-2.5 4.7-4.57 11.64h-3.12l3.34-12.05c.58-2.16.66-2.53.66-3.4 0-.86-.74-1.07-1.57-1.07-.32 0-.65.04-1.27.13v-.7l6.4-1.12.12.08M629.12 290.45l.25.25-1.6 6.27-2.5 9.04c-1.27 4.7-2.67 9.5-2.67 10.16 0 .5.2.83.74.83.7 0 1.16-.38 3.4-2.94l.48.4c-2.02 3.02-4 4.7-6.06 4.7-1.08 0-1.7-.73-1.7-1.84 0-.95.1-1.6.54-3.68-2.43 4.1-4.54 5.45-7.35 5.45-2.68 0-4.4-1.7-4.4-4.84 0-6.68 6.67-13.82 12.04-13.82 1.72 0 2.42.78 2.67 2.4h.04l1.87-6.73c.62-2.18.58-2.34.58-2.92 0-.87-.38-1-2.64-1.07v-.7c2.65-.24 4.13-.5 6.32-.95m-6.8 13.3c0-1.5-1-2.36-1.95-2.36-1.15 0-2.6.7-3.75 1.9-2.73 2.88-4.8 7.37-4.8 10.8 0 1.9.96 3 2.4 3 3.8 0 8.1-7.1 8.1-13.36"/><path d="M840 120.57h480v79.24H840z" fill="#fff" fill-opacity="0"/><path d="M852.37 172.22H841v-.72c3.04-.24 3.72-1.06 3.72-3.7v-22.58c0-2.3-.48-3.08-2.02-3.08-.4 0-1.02 0-1.8.1v-.78c3.34-.8 5.12-1.3 7.62-2.1l.24.18v28.5c0 2.64.53 3.27 3.6 3.46v.72M876 161.1c0 6.7-4.33 11.6-10.82 11.6-5.83 0-10.4-4.76-10.4-11.45 0-6.7 4.33-11.17 10.83-11.17 5.88 0 10.4 4.38 10.4 11.02m-4.33 1.3c0-3.27-.86-6.6-2.4-8.56-1.16-1.45-2.5-2.4-4.58-2.4-3.33 0-5.6 2.83-5.6 7.64 0 3.8.78 7.27 2.56 9.87 1.06 1.54 2.6 2.4 4.33 2.4 3.56 0 5.67-3.36 5.67-8.95M900.12 153.55h-4c.68 1.54.92 2.64.92 4.04 0 2.5-.77 4.27-2.5 5.57-1.54 1.16-3.32 1.88-5 1.88-.3 0-.97-.05-1.84-.14l-.9-.1c-1.3.4-2.9 2.08-2.9 3.04 0 .77 1.16 1.16 3.76 1.3l6.2.3c3.57.14 5.83 2.16 5.83 5.14 0 1.93-.92 3.52-2.9 5.06-2.5 1.92-6.16 3.08-9.63 3.08-4.62 0-8.32-2.12-8.32-4.67 0-1.78 1.25-3.37 4.7-5.87-2-.97-2.54-1.5-2.54-2.55 0-.97.64-1.93 2.23-3.33.72-.62 1.4-1.25 2.07-1.92-3.23-1.6-4.48-3.42-4.48-6.45 0-4.38 3.56-7.85 8.04-7.85 1.25 0 2.55.24 3.85.72l1.07.4c.96.33 1.68.47 2.65.47h3.7v1.88m-15.3 2.4v.15c0 4.62 1.97 7.75 4.95 7.75 2.17 0 3.57-1.7 3.57-4.33 0-1.98-.53-4.14-1.45-5.83-.78-1.45-2.03-2.27-3.52-2.27-2.22 0-3.56 1.68-3.56 4.52m13.52 19.36c0-1.78-1.6-2.35-5.97-2.35-2.36 0-6.16-.3-7.8-.63-1.92 2.3-2.35 3.03-2.35 4.14 0 2.12 2.74 3.5 6.98 3.5 5.48 0 9.14-1.86 9.14-4.65M915.33 161.63h161.55v-2.88H915.33zM956.4 121.56l-5.2 19.92c-.17.6-.27 1.2-.27 1.46 0 .4.24.6.58.6.52 0 1.3-.53 2.3-1.93l.84-1.18.48.34c-2.05 3.24-3.3 4.26-5.14 4.26-1.1 0-1.67-.65-1.67-1.9 0-.28.04-.7.14-1.03l4.67-17.85c.1-.34.1-.54.1-.64 0-.4-.57-.74-1.66-.74h-.6v-.55c2-.23 3.26-.46 5.26-.9M972.17 140.86l.44.38c-2.54 3.1-3.36 3.74-4.72 3.74-.95 0-1.36-.4-1.36-1.4 0-.84.07-1.12.78-3.9-2.55 3.84-4.53 5.34-6.9 5.34-1.9 0-3.4-1.37-3.4-3.95 0-5.28 5.2-11.44 9.72-11.44 1.47 0 2.45.72 2.73 1.98l.37-1.63.1-.1 2.08-.24.24.1c-.07.3-.1.38-.2.72-1.6 5.82-3.04 11.67-3.04 12.35 0 .24.2.45.48.45.3 0 .75-.28 1.77-1.4m-2.42-9.5c0-1.2-.7-1.97-1.9-1.97-1.53 0-3.03 1.06-4.46 3.13-1.43 2.16-2.62 5.2-2.62 7.33 0 1.87.8 2.52 2.04 2.52 1.7 0 3.3-1.87 4.3-3.34 1.6-2.3 2.63-5.23 2.63-7.65M979.5 137.05l.53-1.2c.65-1.42 1.8-3.22 3.2-4.7.9-.9 1.9-1.52 2.7-1.52.94 0 1.6.72 1.6 1.74s-.6 1.84-1.6 1.84c-.62 0-.9-.37-1.2-.88-.2-.34-.3-.48-.55-.48-.6 0-1.56 1.13-2.8 3.2-1.45 2.52-2.06 3.88-3.77 9.6h-2.57l2.76-9.94c.46-1.77.53-2.07.53-2.8 0-.7-.6-.87-1.3-.87-.27 0-.54.03-1.05.1v-.58l5.28-.92.1.07M1003.55 132.18h-1.67c.3.62.3 1.16.3 1.74 0 2.86-3.12 5.58-6.3 5.58-.36 0-.74-.03-1.04-.1-.1-.03-.17-.03-.24-.03-.58 0-1.23.68-1.23 1.4 0 .6.92 1.05 2.42 1.42 3.26.77 4.82 2.27 4.82 4.3 0 2.98-2.62 5.15-7.14 5.15-3.48 0-5.7-1.22-5.7-3.67 0-1.74.66-2.66 4-4.67-.62-.36-.92-.87-.92-1.3 0-1 .78-2.02 2.62-2.87-1.9-.68-2.7-1.9-2.7-3.68 0-3.47 3.4-5.82 6.85-5.82 1.3 0 2.42.3 3.33.95.28.2.45.28.55.28h2.05v1.32m-4.05.62c0-1.8-.65-2.42-1.9-2.42-2.12 0-4.16 2.48-4.16 5.85 0 1.6.75 2.56 2.04 2.56 1.16 0 2.08-.63 2.9-2.02.68-1.16 1.12-2.55 1.12-3.98m-.92 14.9c0-1.56-1.22-2.5-4.87-3.64l-1.14-.37c-.3 0-1.74 1.15-2.2 1.76-.53.65-.7 1.2-.7 1.97 0 2.4 1.6 3.47 4.33 3.47 2.74 0 4.58-1.46 4.58-3.2M1016.76 140.93l.4.4c-1.93 2.4-4.1 3.7-6.94 3.7-2.75 0-4.6-1.85-4.6-4.68 0-5.27 5.08-10.72 10.2-10.72 1.8 0 2.78.9 2.78 2.32 0 2.92-3.58 5.58-9.67 6.36-.34.7-.34 1.58-.34 2.1 0 1.86 1.25 3.08 3.16 3.08 1.5 0 2.55-.54 5-2.55m-7-4.87l-.6 1.5c2.94-.7 4.23-1.33 5.5-2.52 1.04-1.02 1.7-2.24 1.7-3.3 0-.82-.25-1.33-1.2-1.33-1.94 0-4.26 2.63-5.4 5.66M1045.08 130.86h-3.54l-.68 4.56h3.37v1.87h-3.68l-1.05 7.34h-1.98l1.06-7.35h-4.56l-1.13 7.34h-1.98l1.12-7.35h-3.6v-1.88h3.9l.72-4.56h-3.7v-1.88h3.98l1.05-6.87h1.96l-1.05 6.88h4.54l1.02-6.87h1.97l-1.02 6.88h3.28v1.88m-5.52 0h-4.52l-.72 4.56h4.56M931.63 192h-9.4v-.5c2.53-.14 3.24-.85 3.24-2.72v-15.3c0-1.15-.3-1.66-1.02-1.66-.34 0-.92.17-1.53.4l-.92.35v-.47l6.1-3.1.3.1v20.32c0 1.47.68 2.08 3.23 2.08v.5M965.43 184.52h-8.88v8.88h-2.25v-8.88h-8.88v-2.25h8.88v-8.88h2.25v8.87h8.88v2.25M985.1 168.93l-5.2 19.9c-.17.63-.27 1.2-.27 1.48 0 .42.24.62.58.62.52 0 1.3-.55 2.3-1.94l.84-1.2.47.35c-2.03 3.23-3.3 4.25-5.13 4.25-1.08 0-1.66-.64-1.66-1.9 0-.28.04-.68.14-1.02l4.67-17.84c.1-.34.1-.54.1-.65 0-.4-.57-.75-1.66-.75h-.6v-.54c2-.24 3.26-.48 5.26-.92M1000.9 188.23l.44.37c-2.55 3.1-3.37 3.75-4.73 3.75-.94 0-1.35-.4-1.35-1.4 0-.85.07-1.12.78-3.9-2.55 3.84-4.52 5.33-6.9 5.33-1.9 0-3.4-1.36-3.4-3.95 0-5.27 5.2-11.43 9.73-11.43 1.46 0 2.45.7 2.72 1.97l.37-1.63.1-.1 2.08-.24.24.1c-.07.3-.1.37-.2.7-1.6 5.84-3.03 11.7-3.03 12.37 0 .24.2.44.47.44.32 0 .76-.26 1.78-1.38m-2.4-9.5c0-1.2-.73-1.97-1.92-1.97-1.53 0-3.03 1.05-4.46 3.13-1.43 2.14-2.62 5.17-2.62 7.32 0 1.87.82 2.52 2.04 2.52 1.7 0 3.3-1.88 4.32-3.34 1.6-2.3 2.63-5.24 2.63-7.66M1008.22 184.42l.54-1.2c.65-1.42 1.8-3.23 3.2-4.7.9-.9 1.9-1.52 2.7-1.52.95 0 1.6.7 1.6 1.73s-.6 1.84-1.6 1.84c-.62 0-.9-.37-1.2-.88-.2-.35-.3-.5-.54-.5-.62 0-1.57 1.13-2.8 3.2-1.46 2.53-2.07 3.9-3.77 9.6h-2.6l2.77-9.93c.47-1.77.54-2.08.54-2.8 0-.7-.6-.88-1.3-.88-.26 0-.54.03-1.05.1v-.58l5.3-.92.1.07M1032.28 179.55h-1.66c.3.6.3 1.16.3 1.74 0 2.85-3.13 5.57-6.3 5.57-.37 0-.74-.03-1.05-.1-.1-.04-.17-.04-.24-.04-.58 0-1.22.68-1.22 1.4 0 .6.93 1.05 2.42 1.43 3.27.78 4.84 2.28 4.84 4.32 0 2.96-2.62 5.14-7.15 5.14-3.46 0-5.68-1.22-5.68-3.68 0-1.73.65-2.65 4-4.66-.63-.37-.93-.88-.93-1.33 0-.98.77-2 2.6-2.86-1.9-.7-2.68-1.9-2.68-3.68 0-3.47 3.4-5.82 6.84-5.82 1.3 0 2.42.3 3.34.95.27.2.44.27.54.27h2.04v1.33m-4.05.6c0-1.8-.64-2.4-1.9-2.4-2.1 0-4.15 2.48-4.15 5.85 0 1.6.74 2.55 2.04 2.55 1.15 0 2.07-.6 2.9-2 .67-1.16 1.1-2.56 1.1-4m-.9 14.92c0-1.56-1.23-2.52-4.87-3.64-.45-.14-.8-.24-1.16-.37-.32 0-1.75 1.15-2.22 1.77-.5.64-.68 1.2-.68 1.97 0 2.38 1.6 3.47 4.32 3.47 2.76 0 4.6-1.46 4.6-3.2M1045.5 188.3l.4.4c-1.94 2.4-4.12 3.68-6.94 3.68-2.76 0-4.6-1.83-4.6-4.66 0-5.28 5.07-10.72 10.18-10.72 1.8 0 2.8.88 2.8 2.3 0 2.94-3.58 5.6-9.68 6.38-.34.68-.34 1.56-.34 2.07 0 1.88 1.26 3.1 3.17 3.1 1.5 0 2.54-.54 5-2.55m-7.02-4.87l-.58 1.5c2.93-.72 4.22-1.33 5.48-2.52 1.06-1 1.7-2.24 1.7-3.3 0-.8-.24-1.32-1.2-1.32-1.93 0-4.24 2.62-5.4 5.65M1073.8 178.22h-3.53l-.68 4.56h3.36v1.88h-3.68l-1.05 7.35h-1.98l1.06-7.34h-4.55l-1.12 7.35h-1.98l1.12-7.34h-3.6v-1.88h3.9l.73-4.56h-3.7v-1.87h3.97l1.05-6.87h1.98l-1.06 6.87h4.53l1.02-6.87h1.96l-1.02 6.87h3.27v1.87m-5.5 0h-4.53l-.72 4.56h4.57M1125.16 149.36h1.6c-.3 4.1-2.9 9.82-7.6 9.82-4.63 0-9.78-6.16-13.25-6.16-3.36 0-5.14 3.22-5.9 6.64h-1.6c.24-4.8 3.13-9.82 7.85-9.82 4.62 0 9.77 6.16 13.28 6.16 3.32 0 4.9-3.22 5.63-6.64m0 11.36h1.6c-.3 4.1-2.9 9.82-7.6 9.82-4.63 0-9.78-6.16-13.25-6.16-3.36 0-5.14 3.22-5.9 6.64h-1.6c.24-4.8 3.13-9.82 7.85-9.82 4.62 0 9.77 6.16 13.28 6.16 3.32 0 4.9-3.22 5.63-6.64M1154.82 172.22h-11.36v-.72c3.03-.24 3.7-1.06 3.7-3.7v-22.58c0-2.3-.48-3.08-2.02-3.08-.38 0-1 0-1.78.1v-.78c3.32-.8 5.1-1.3 7.6-2.1l.25.18v28.5c0 2.64.54 3.27 3.62 3.46v.72M1178.45 161.1c0 6.7-4.33 11.6-10.83 11.6-5.82 0-10.4-4.76-10.4-11.45 0-6.7 4.34-11.17 10.83-11.17 5.88 0 10.4 4.38 10.4 11.02m-4.33 1.3c0-3.27-.87-6.6-2.4-8.56-1.16-1.45-2.5-2.4-4.58-2.4-3.32 0-5.58 2.83-5.58 7.64 0 3.8.77 7.27 2.55 9.87 1.07 1.54 2.6 2.4 4.34 2.4 3.56 0 5.68-3.36 5.68-8.95M1202.57 153.55h-4c.68 1.54.92 2.64.92 4.04 0 2.5-.78 4.27-2.52 5.57-1.54 1.16-3.32 1.88-5 1.88-.3 0-.96-.05-1.83-.14l-.92-.1c-1.3.4-2.88 2.08-2.88 3.04 0 .77 1.15 1.16 3.75 1.3l6.2.3c3.57.14 5.84 2.16 5.84 5.14 0 1.93-.92 3.52-2.9 5.06-2.5 1.92-6.15 3.08-9.62 3.08-4.62 0-8.33-2.12-8.33-4.67 0-1.78 1.24-3.37 4.7-5.87-2-.97-2.54-1.5-2.54-2.55 0-.97.62-1.93 2.2-3.33.73-.62 1.4-1.25 2.08-1.92-3.22-1.6-4.47-3.42-4.47-6.45 0-4.38 3.56-7.85 8.03-7.85 1.26 0 2.56.24 3.86.72l1.05.4c.98.33 1.7.47 2.66.47h3.7v1.88m-15.3 2.4v.15c0 4.62 1.97 7.75 4.96 7.75 2.17 0 3.56-1.7 3.56-4.33 0-1.98-.53-4.14-1.44-5.83-.77-1.45-2.02-2.27-3.52-2.27-2.2 0-3.56 1.68-3.56 4.52m13.53 19.36c0-1.78-1.6-2.35-5.98-2.35-2.36 0-6.16-.3-7.8-.63-1.93 2.3-2.36 3.03-2.36 4.14 0 2.12 2.75 3.5 6.98 3.5 5.5 0 9.15-1.86 9.15-4.65M1231.02 172.22h-13.3v-.72c3.57-.2 4.58-1.2 4.58-3.85v-21.6c0-1.65-.43-2.37-1.44-2.37-.48 0-1.3.24-2.17.58l-1.3.48v-.68l8.6-4.38.44.15v28.74c0 2.07.97 2.93 4.58 2.93v.72M1280.17 156.82h-28.36v-3.18h28.37v3.18m0 9.63h-28.36v-3.18h28.37v3.18M1318.82 156.34c0 8.28-3.03 16.56-10.88 16.56-8.23 0-10.88-8.96-10.88-16.85 0-8.52 3.32-16.37 11.07-16.37 6.3 0 10.7 6.8 10.7 16.66m-4.63.24c0-10-2.12-15.64-6.36-15.64-4 0-6.16 5.68-6.16 15.45 0 9.76 2.12 15.25 6.26 15.25 4.1 0 6.26-5.54 6.26-15.07"/><path d="M560.1 140l204 .32.03-20 35.93 40.06L764 200.32l.03-20-204-.32z" stroke="#000" stroke-width="2" fill="#fff"/><use xlink:href="#a" transform="matrix(0.9999987435461108,0.0015852148749132893,-0.0015852148749132893,0.9999987435461108,565.1188848333492,125.00791979210511) translate(38.099999999999994 38.4625)"/><use xlink:href="#b" transform="matrix(0.9999987435461108,0.0015852148749132893,-0.0015852148749132893,0.9999987435461108,565.1188848333492,125.00791979210511) translate(82 38.4625)"/><use xlink:href="#c" transform="matrix(0.9999987435461108,0.0015852148749132893,-0.0015852148749132893,0.9999987435461108,565.1188848333492,125.00791979210511) translate(100.95 38.4625)"/><use xlink:href="#d" transform="matrix(0.9999987435461108,0.0015852148749132893,-0.0015852148749132893,0.9999987435461108,565.1188848333492,125.00791979210511) translate(149.9 38.4625)"/><path d="M560.03 380l204 .32.03-20L800 400.38l-36.06 39.94.03-20-204-.32z" stroke="#000" stroke-width="2" fill="#fff"/><use xlink:href="#e" transform="matrix(0.9999987435461108,0.0015852148749132893,-0.0015852148749132893,0.9999987435461108,565.0556270130088,365.0079197921051) translate(75.1 38.4625)"/><use xlink:href="#f" transform="matrix(0.9999987435461108,0.0015852148749132893,-0.0015852148749132893,0.9999987435461108,565.0556270130088,365.0079197921051) translate(112 38.4625)"/><path d="M840 360.57h454.3v73.62H840z" fill="#fff" fill-opacity="0"/><path d="M852.37 412.22H841v-.72c3.04-.24 3.72-1.06 3.72-3.7v-22.58c0-2.3-.48-3.08-2.02-3.08-.4 0-1.02 0-1.8.1v-.78c3.34-.8 5.12-1.3 7.62-2.1l.24.18v28.5c0 2.64.53 3.27 3.6 3.46v.72M876 401.1c0 6.7-4.33 11.6-10.82 11.6-5.83 0-10.4-4.76-10.4-11.45 0-6.7 4.33-11.17 10.83-11.17 5.88 0 10.4 4.38 10.4 11.02m-4.33 1.3c0-3.27-.86-6.6-2.4-8.56-1.16-1.45-2.5-2.4-4.58-2.4-3.33 0-5.6 2.83-5.6 7.64 0 3.8.78 7.27 2.56 9.87 1.06 1.54 2.6 2.4 4.33 2.4 3.56 0 5.67-3.36 5.67-8.95M900.12 393.55h-4c.68 1.54.92 2.64.92 4.04 0 2.5-.77 4.27-2.5 5.57-1.54 1.16-3.32 1.88-5 1.88-.3 0-.97-.05-1.84-.14l-.9-.1c-1.3.4-2.9 2.08-2.9 3.04 0 .77 1.16 1.16 3.76 1.3l6.2.3c3.57.14 5.83 2.16 5.83 5.14 0 1.93-.92 3.52-2.9 5.06-2.5 1.92-6.16 3.08-9.63 3.08-4.62 0-8.32-2.12-8.32-4.67 0-1.78 1.25-3.37 4.7-5.87-2-.97-2.54-1.5-2.54-2.55 0-.97.64-1.93 2.23-3.33.72-.62 1.4-1.25 2.07-1.92-3.23-1.6-4.48-3.42-4.48-6.45 0-4.38 3.56-7.85 8.04-7.85 1.25 0 2.55.24 3.85.72l1.07.4c.96.33 1.68.47 2.65.47h3.7v1.88m-15.3 2.4v.15c0 4.62 1.97 7.75 4.95 7.75 2.17 0 3.57-1.7 3.57-4.33 0-1.98-.53-4.14-1.45-5.83-.78-1.45-2.03-2.27-3.52-2.27-2.22 0-3.56 1.68-3.56 4.52m13.52 19.36c0-1.78-1.6-2.35-5.97-2.35-2.36 0-6.16-.3-7.8-.63-1.92 2.3-2.35 3.03-2.35 4.14 0 2.12 2.74 3.5 6.98 3.5 5.48 0 9.14-1.86 9.14-4.65M915.33 401.63h162.7v-2.88h-162.7zM957 361.56l-5.22 19.92c-.17.6-.27 1.2-.27 1.46 0 .4.24.6.6.6.5 0 1.28-.53 2.27-1.93l.85-1.18.47.34c-2.05 3.24-3.3 4.26-5.15 4.26-1.1 0-1.66-.65-1.66-1.9 0-.28.02-.7.12-1.03l4.67-17.85c.1-.34.1-.54.1-.64 0-.4-.6-.74-1.68-.74h-.6v-.55c2-.23 3.25-.46 5.26-.9M972.75 380.86l.44.38c-2.56 3.1-3.38 3.74-4.74 3.74-.96 0-1.36-.4-1.36-1.4 0-.84.06-1.12.78-3.9-2.55 3.84-4.53 5.34-6.9 5.34-1.92 0-3.4-1.37-3.4-3.95 0-5.28 5.2-11.44 9.72-11.44 1.46 0 2.45.72 2.72 1.98l.38-1.63.1-.1 2.08-.24.23.1c-.05.3-.1.38-.2.72-1.6 5.82-3.02 11.67-3.02 12.35 0 .24.2.45.48.45.3 0 .75-.28 1.77-1.4m-2.42-9.5c0-1.2-.7-1.97-1.9-1.97-1.53 0-3.02 1.06-4.45 3.13-1.43 2.16-2.63 5.2-2.63 7.33 0 1.87.82 2.52 2.05 2.52 1.7 0 3.3-1.87 4.32-3.34 1.6-2.3 2.6-5.23 2.6-7.65M980.06 377.05l.55-1.2c.66-1.42 1.8-3.22 3.2-4.7.9-.9 1.9-1.52 2.7-1.52.95 0 1.6.72 1.6 1.74s-.58 1.84-1.6 1.84c-.6 0-.9-.37-1.2-.88-.2-.34-.3-.48-.54-.48-.6 0-1.56 1.13-2.8 3.2-1.45 2.52-2.07 3.88-3.77 9.6h-2.6l2.76-9.94c.48-1.77.55-2.07.55-2.8 0-.7-.6-.87-1.3-.87-.26 0-.53.03-1.04.1v-.58l5.27-.92.1.07M1004.13 372.18h-1.67c.3.62.3 1.16.3 1.74 0 2.86-3.12 5.58-6.3 5.58-.36 0-.74-.03-1.04-.1-.1-.03-.17-.03-.24-.03-.58 0-1.23.68-1.23 1.4 0 .6.92 1.05 2.42 1.42 3.27.77 4.83 2.27 4.83 4.3 0 2.98-2.62 5.15-7.15 5.15-3.47 0-5.68-1.22-5.68-3.67 0-1.74.65-2.66 3.98-4.67-.6-.36-.92-.87-.92-1.3 0-1 .8-2.02 2.62-2.87-1.9-.68-2.68-1.9-2.68-3.68 0-3.47 3.4-5.82 6.84-5.82 1.3 0 2.42.3 3.34.95.27.2.45.28.55.28h2.03v1.32m-4.05.62c0-1.8-.65-2.42-1.9-2.42-2.12 0-4.16 2.48-4.16 5.85 0 1.6.75 2.56 2.04 2.56 1.16 0 2.08-.63 2.9-2.02.68-1.16 1.12-2.55 1.12-3.98m-.92 14.9c0-1.56-1.23-2.5-4.87-3.64-.45-.13-.8-.24-1.16-.37-.3 0-1.74 1.15-2.22 1.76-.5.65-.68 1.2-.68 1.97 0 2.4 1.6 3.47 4.32 3.47 2.76 0 4.6-1.46 4.6-3.2M1017.34 380.93l.4.4c-1.94 2.4-4.1 3.7-6.94 3.7-2.76 0-4.6-1.85-4.6-4.68 0-5.27 5.08-10.72 10.18-10.72 1.8 0 2.8.9 2.8 2.32 0 2.92-3.58 5.58-9.67 6.36-.33.7-.33 1.58-.33 2.1 0 1.86 1.26 3.08 3.16 3.08 1.5 0 2.56-.54 5-2.55m-7-4.87l-.58 1.5c2.92-.7 4.22-1.33 5.48-2.52 1.05-1.02 1.7-2.24 1.7-3.3 0-.82-.24-1.33-1.2-1.33-1.93 0-4.25 2.63-5.4 5.66M1045.66 370.86h-3.54l-.68 4.56h3.36v1.87h-3.67l-1.06 7.34h-1.97l1.05-7.35h-4.56l-1.13 7.34h-1.97l1.12-7.35h-3.6v-1.88h3.9l.72-4.56h-3.7v-1.88h3.97l1.07-6.87h1.97l-1.05 6.88h4.5l1.04-6.87h1.97l-1 6.88h3.26v1.88m-5.52 0h-4.53l-.7 4.56h4.56M931.63 432h-9.4v-.5c2.53-.14 3.24-.85 3.24-2.72v-15.3c0-1.15-.3-1.66-1.02-1.66-.34 0-.92.17-1.53.4l-.92.35v-.47l6.1-3.1.3.1v20.32c0 1.47.68 2.08 3.23 2.08v.5M965.43 424.52h-8.88v8.88h-2.25v-8.88h-8.88v-2.25h8.88v-8.88h2.25v8.87h8.88v2.25M988.07 416.96l-.68 4.77h-.56c-.34-2.83-1.36-3.95-3.03-3.95-1.18 0-2 .68-2 1.94 0 .92.52 1.9 1.84 3.47 1.7 1.97 2.32 3.3 2.32 4.62 0 2.83-2.08 4.56-4.9 4.56-.58 0-1.1-.03-1.88-.34-.64-.27-1.12-.3-1.5-.3-.37 0-.74.17-.98.7h-.54l.68-5.4h.54c.48 3.23 1.63 4.63 3.4 4.63 1.6 0 2.6-.95 2.6-2.62 0-1.1-.6-2.25-1.9-3.92-1.48-1.83-2.16-3.37-2.16-4.46 0-2.24 1.6-3.67 4.12-3.67.58 0 1.05.1 1.9.34.65.2.96.24 1.23.24.5 0 .75-.14 1.02-.62h.47M1012.85 428.43l-.17.24c-1.8 2.52-3.3 3.65-4.9 3.65-.9 0-1.36-.55-1.36-1.57 0-.34.1-.92.44-2.25l1.97-7.72c.17-.68.24-1.13.24-1.3 0-.4-.3-.7-.68-.7-1.03 0-2.77 1.6-4.47 3.97-1.67 2.35-2.35 4.02-3.68 9.26h-2.55l.92-3.16c1.5-5.17 2.32-8.78 2.32-9.22 0-.55-.3-.85-.75-.85-1.17 0-3.18 1.97-5.1 4.87-1.14 1.77-1.62 3-3.25 8.37h-2.56l1.46-4.9c1.36-4.52 1.87-7.34 1.87-7.75 0-.5-.48-.75-1.4-.75h-.85v-.55l5.52-1.05.1.07-1.97 7.1c3.02-4.93 5.4-7.17 7.48-7.17 1.38 0 2.06.8 2.06 2.04 0 .65-.45 2.55-1.37 5.17 2.38-3.76 3.77-5.47 5.44-6.52.82-.5 1.46-.68 2.15-.68 1.24 0 1.96.92 1.96 2.14 0 .24-.07.8-.1.96l-2.32 8.54c-.2.78-.34 1.4-.34 1.53 0 .38.14.55.4.55.6 0 1.2-.55 2.22-1.8l.72-.9M1029.25 428.23l.45.37c-2.56 3.1-3.37 3.75-4.73 3.75-.96 0-1.37-.4-1.37-1.4 0-.85.07-1.12.8-3.9-2.57 3.84-4.54 5.33-6.92 5.33-1.9 0-3.4-1.36-3.4-3.95 0-5.27 5.2-11.43 9.73-11.43 1.47 0 2.46.7 2.73 1.97l.38-1.63.1-.1 2.08-.24.24.1c-.07.3-.1.37-.2.7-1.6 5.84-3.03 11.7-3.03 12.37 0 .24.2.44.47.44.3 0 .74-.26 1.77-1.38m-2.42-9.5c0-1.2-.72-1.97-1.9-1.97-1.54 0-3.04 1.05-4.47 3.13-1.43 2.14-2.62 5.17-2.62 7.32 0 1.87.82 2.52 2.05 2.52 1.7 0 3.3-1.88 4.32-3.34 1.6-2.3 2.62-5.24 2.62-7.66M1040.05 408.93l-5.2 19.9c-.18.63-.3 1.2-.3 1.48 0 .42.25.62.6.62.5 0 1.3-.55 2.27-1.94l.86-1.2.47.35c-2.04 3.23-3.3 4.25-5.14 4.25-1.08 0-1.66-.64-1.66-1.9 0-.28.04-.68.14-1.02l4.66-17.84c.1-.34.1-.54.1-.65 0-.4-.57-.75-1.66-.75h-.62v-.54c2-.24 3.27-.48 5.28-.92M1049.58 408.93l-5.2 19.9c-.18.63-.28 1.2-.28 1.48 0 .42.23.62.57.62.5 0 1.3-.55 2.28-1.94l.86-1.2.48.35c-2.04 3.23-3.3 4.25-5.14 4.25-1.1 0-1.67-.64-1.67-1.9 0-.28.04-.68.14-1.02l4.67-17.84c.1-.34.1-.54.1-.65 0-.4-.57-.75-1.66-.75h-.6v-.54c2-.24 3.26-.48 5.27-.92M1074.97 418.22h-3.54l-.68 4.56h3.37v1.88h-3.68l-1.05 7.35h-2l1.07-7.34h-4.56l-1.12 7.35h-1.97l1.13-7.34h-3.6v-1.88h3.9l.72-4.56h-3.7v-1.87h3.97l1.06-6.87h1.97l-1.05 6.87h4.53l1.02-6.87h1.97l-1.02 6.87h3.27v1.87m-5.52 0h-4.52l-.72 4.56h4.57M1138.45 399.8v.5c-4.62 1.96-8.28 5.52-11.46 9.18l-.97-.9c1.1-1.6 2.5-3.14 3.95-4.64.43-.43.67-.96.67-1.34 0-.48-.38-.97-1.25-.97h-28.8v-3.17h28.85c.48 0 1.25-.58 1.25-1.06 0-.44-.2-.72-.67-1.2-1.4-1.35-2.9-3.04-3.95-4.63l.96-.9c3.13 3.6 6.8 7.2 11.4 9.14M1168.63 379.6l-7.36 28.15c-.24.86-.4 1.68-.4 2.07 0 .58.35.86.83.86.72 0 1.83-.77 3.23-2.74l1.2-1.68.67.48c-2.9 4.57-4.67 6-7.27 6-1.54 0-2.35-.9-2.35-2.68 0-.4.04-.96.2-1.45l6.58-25.2c.15-.5.15-.78.15-.92 0-.58-.8-1.06-2.35-1.06h-.87v-.77c2.84-.34 4.62-.68 7.46-1.3M1190.92 406.88l.63.53c-3.62 4.4-4.77 5.3-6.7 5.3-1.34 0-1.92-.57-1.92-1.97 0-1.2.1-1.6 1.1-5.53-3.6 5.44-6.4 7.55-9.77 7.55-2.7 0-4.8-1.92-4.8-5.58 0-7.46 7.36-16.17 13.76-16.17 2.07 0 3.46 1 3.85 2.8l.53-2.32.14-.15 2.94-.33.34.14c-.1.43-.15.53-.3 1-2.26 8.24-4.28 16.52-4.28 17.5 0 .32.3.6.68.6.43 0 1.06-.37 2.5-1.96m-3.42-13.43c0-1.7-1-2.8-2.7-2.8-2.16 0-4.28 1.5-6.3 4.43-2.02 3.04-3.7 7.32-3.7 10.35 0 2.65 1.15 3.57 2.88 3.57 2.4 0 4.67-2.65 6.12-4.72 2.26-3.28 3.7-7.42 3.7-10.83M1201.27 401.5l.77-1.7c.9-2.02 2.55-4.57 4.52-6.64 1.26-1.3 2.7-2.16 3.8-2.16 1.35 0 2.27 1 2.27 2.45 0 1.45-.82 2.6-2.26 2.6-.87 0-1.25-.53-1.7-1.25-.28-.48-.42-.68-.76-.68-.85 0-2.2 1.6-3.94 4.53-2.07 3.56-2.93 5.5-5.34 13.57h-3.66l3.9-14.05c.68-2.5.77-2.94.77-3.95 0-1-.86-1.25-1.83-1.25-.38 0-.77.05-1.5.14v-.8l7.47-1.3.15.1M1235.3 394.6h-2.36c.44.87.44 1.64.44 2.46 0 4.04-4.43 7.9-8.9 7.9-.54 0-1.07-.05-1.5-.15-.15-.04-.24-.04-.34-.04-.82 0-1.73.97-1.73 1.98 0 .86 1.3 1.5 3.43 2.02 4.62 1.1 6.83 3.22 6.83 6.1 0 4.2-3.7 7.28-10.1 7.28-4.92 0-8.05-1.73-8.05-5.2 0-2.45.93-3.75 5.65-6.6-.87-.52-1.3-1.24-1.3-1.87 0-1.4 1.1-2.84 3.7-4.04-2.7-.97-3.8-2.7-3.8-5.2 0-4.9 4.8-8.23 9.68-8.23 1.83 0 3.4.43 4.7 1.34.4.3.64.4.78.4h2.9v1.87m-5.73.87c0-2.55-.9-3.4-2.7-3.4-2.98 0-5.86 3.5-5.86 8.26 0 2.27 1.06 3.6 2.9 3.6 1.63 0 2.93-.85 4.1-2.83.95-1.63 1.57-3.6 1.57-5.63m-1.3 21.1c0-2.23-1.73-3.58-6.88-5.16-.64-.2-1.12-.33-1.65-.52-.43 0-2.45 1.63-3.13 2.5-.72.9-.96 1.68-.96 2.8 0 3.36 2.26 4.9 6.12 4.9 3.9 0 6.5-2.07 6.5-4.52M1253.98 406.98l.58.58c-2.75 3.36-5.83 5.2-9.82 5.2-3.9 0-6.5-2.6-6.5-6.6 0-7.46 7.17-15.16 14.4-15.16 2.54 0 3.94 1.25 3.94 3.27 0 4.14-5.06 7.9-13.67 9-.47.96-.47 2.22-.47 2.94 0 2.65 1.78 4.4 4.47 4.4 2.12 0 3.6-.78 7.08-3.62m-9.92-6.9l-.82 2.13c4.14-1 5.97-1.87 7.75-3.55 1.5-1.44 2.4-3.18 2.4-4.67 0-1.15-.34-1.88-1.68-1.88-2.75 0-6.02 3.7-7.66 8M1294.03 392.73h-5l-.97 6.45h4.77v2.65h-5.2l-1.5 10.4h-2.8l1.5-10.4h-6.45l-1.58 10.4h-2.8l1.6-10.4h-5.1v-2.65h5.53l1-6.45h-5.24v-2.65h5.62l1.5-9.72h2.8l-1.5 9.72h6.4l1.44-9.72h2.8l-1.45 9.72h4.63v2.65m-7.8 0h-6.4l-1 6.45h6.44"/><defs><path d="M206 0h-36l-40-164L89 0H53L-1-190h32L70-26l43-164h34l41 164 42-164h31" id="g"/><path d="M100-194c62-1 85 37 85 99 1 63-27 99-86 99S16-35 15-95c0-66 28-99 85-99zM99-20c44 1 53-31 53-75 0-43-8-75-51-75s-53 32-53 75 10 74 51 75" id="h"/><path d="M114-163C36-179 61-72 57 0H25l-1-190h30c1 12-1 29 2 39 6-27 23-49 58-41v29" id="i"/><path d="M85-194c31 0 48 13 60 33l-1-100h32l1 261h-30c-2-10 0-23-3-31C134-8 116 4 85 4 32 4 16-35 15-94c0-66 23-100 70-100zm9 24c-40 0-46 34-46 75 0 40 6 74 45 74 42 0 51-32 51-76 0-42-9-74-50-73" id="j"/><g id="a"><use transform="matrix(0.05,0,0,0.05,0,0)" xlink:href="#g"/><use transform="matrix(0.05,0,0,0.05,12.950000000000001,0)" xlink:href="#h"/><use transform="matrix(0.05,0,0,0.05,22.950000000000003,0)" xlink:href="#i"/><use transform="matrix(0.05,0,0,0.05,28.900000000000002,0)" xlink:href="#j"/></g><path d="M24-231v-30h32v30H24zM24 0v-190h32V0H24" id="k"/><path d="M117-194c89-4 53 116 60 194h-32v-121c0-31-8-49-39-48C34-167 62-67 57 0H25l-1-190h30c1 10-1 24 2 32 11-22 29-35 61-36" id="l"/><g id="b"><use transform="matrix(0.05,0,0,0.05,0,0)" xlink:href="#k"/><use transform="matrix(0.05,0,0,0.05,3.95,0)" xlink:href="#l"/></g><path d="M210-169c-67 3-38 105-44 169h-31v-121c0-29-5-50-35-48C34-165 62-65 56 0H25l-1-190h30c1 10-1 24 2 32 10-44 99-50 107 0 11-21 27-35 58-36 85-2 47 119 55 194h-31v-121c0-29-5-49-35-48" id="m"/><path d="M141-36C126-15 110 5 73 4 37 3 15-17 15-53c-1-64 63-63 125-63 3-35-9-54-41-54-24 1-41 7-42 31l-33-3c5-37 33-52 76-52 45 0 72 20 72 64v82c-1 20 7 32 28 27v20c-31 9-61-2-59-35zM48-53c0 20 12 33 32 33 41-3 63-29 60-74-43 2-92-5-92 41" id="n"/><path d="M179-190L93 31C79 59 56 82 12 73V49c39 6 53-20 64-50L1-190h34L92-34l54-156h33" id="o"/><g id="c"><use transform="matrix(0.05,0,0,0.05,0,0)" xlink:href="#m"/><use transform="matrix(0.05,0,0,0.05,14.950000000000001,0)" xlink:href="#n"/><use transform="matrix(0.05,0,0,0.05,24.950000000000003,0)" xlink:href="#l"/><use transform="matrix(0.05,0,0,0.05,34.95,0)" xlink:href="#o"/></g><path d="M96-169c-40 0-48 33-48 73s9 75 48 75c24 0 41-14 43-38l32 2c-6 37-31 61-74 61-59 0-76-41-82-99-10-93 101-131 147-64 4 7 5 14 7 22l-32 3c-4-21-16-35-41-35" id="p"/><path d="M135-143c-3-34-86-38-87 0 15 53 115 12 119 90S17 21 10-45l28-5c4 36 97 45 98 0-10-56-113-15-118-90-4-57 82-63 122-42 12 7 21 19 24 35" id="q"/><g id="d"><use transform="matrix(0.05,0,0,0.05,0,0)" xlink:href="#j"/><use transform="matrix(0.05,0,0,0.05,10,0)" xlink:href="#h"/><use transform="matrix(0.05,0,0,0.05,20,0)" xlink:href="#p"/><use transform="matrix(0.05,0,0,0.05,29,0)" xlink:href="#q"/></g><path d="M100-194c63 0 86 42 84 106H49c0 40 14 67 53 68 26 1 43-12 49-29l28 8c-11 28-37 45-77 45C44 4 14-33 15-96c1-61 26-98 85-98zm52 81c6-60-76-77-97-28-3 7-6 17-6 28h103" id="r"/><g id="e"><use transform="matrix(0.05,0,0,0.05,0,0)" xlink:href="#i"/><use transform="matrix(0.05,0,0,0.05,5.95,0)" xlink:href="#n"/><use transform="matrix(0.05,0,0,0.05,15.949999999999998,0)" xlink:href="#i"/><use transform="matrix(0.05,0,0,0.05,21.9,0)" xlink:href="#r"/></g><g id="f"><use transform="matrix(0.05,0,0,0.05,0,0)" xlink:href="#g"/><use transform="matrix(0.05,0,0,0.05,12.950000000000001,0)" xlink:href="#h"/><use transform="matrix(0.05,0,0,0.05,22.950000000000003,0)" xlink:href="#i"/><use transform="matrix(0.05,0,0,0.05,28.900000000000002,0)" xlink:href="#j"/></g></defs></g></svg>