<svg xmlns="http://www.w3.org/2000/svg" xmlns:lucid="lucid" width="760" height="145.87"><g lucid:page-tab-id="zpDKhvFxz1y5"><path d="M20 20h720v105.87H20z" fill="#fff" fill-opacity="0"/><path d="M49.82 81.78l.83.7c-4.83 5.86-6.37 7.1-8.95 7.1-1.8 0-2.57-.8-2.57-2.65 0-1.6.13-2.13 1.48-7.4-4.82 7.27-8.56 10.1-13.07 10.1-3.6 0-6.44-2.57-6.44-7.47 0-9.98 9.85-21.64 18.4-21.64 2.78 0 4.65 1.36 5.17 3.74l.7-3.1.2-.2 3.93-.44.45.2c-.13.58-.2.7-.4 1.35-3.02 11-5.72 22.1-5.72 23.38 0 .45.38.83.9.83.58 0 1.42-.5 3.35-2.64M43.5 65.67c0-2.25-1.35-3.73-3.6-3.73-2.9 0-5.73 2-8.44 5.92-2.7 4.06-4.96 9.8-4.96 13.85 0 3.55 1.55 4.78 3.87 4.78 3.22 0 6.25-3.55 8.18-6.3 3.02-4.4 4.96-9.93 4.96-14.5M74.8 82.03l1.04.65c-3.93 4.96-7.35 6.95-12.18 6.95-6 0-9.46-3.35-9.46-9.92 0-5.97 3.35-11.58 7.92-15.25 3.15-2.5 6.82-3.93 10.75-3.93 3.93 0 6.77 2.2 6.77 5.22 0 1.74-1.42 3.1-3.1 3.1-1.8 0-2.5-1.3-2.5-2.6 0-1.14.96-1.85.96-3.08 0-.77-.9-1.28-2.38-1.28-2.58 0-5.16 1.15-7.02 3.1-3.6 3.8-5.86 9.26-5.86 15 0 4.63 2.06 7.33 5.73 7.33 3.4 0 5.86-1.6 9.34-5.27M103.46 82.03l1.03.65c-3.93 4.96-7.35 6.95-12.18 6.95-6 0-9.46-3.35-9.46-9.92 0-5.97 3.34-11.58 7.92-15.25 3.15-2.5 6.82-3.93 10.75-3.93 3.93 0 6.76 2.2 6.76 5.22 0 1.74-1.42 3.1-3.1 3.1-1.8 0-2.5-1.3-2.5-2.6 0-1.14.96-1.85.96-3.08 0-.77-.9-1.28-2.4-1.28-2.56 0-5.14 1.15-7 3.1-3.6 3.8-5.87 9.26-5.87 15 0 4.63 2.05 7.33 5.73 7.33 3.4 0 5.86-1.6 9.33-5.27M139.2 81.26l.9.58c-4.18 6.38-5.85 7.66-8.88 7.66-1.93 0-3.1-1.1-3.1-3.1 0-1.4.85-5.72 2.9-12.67-7.6 12.5-10.8 15.9-15.38 15.9-2.26 0-3.42-1.03-3.42-3.4 0-1.23.58-3.55 1.74-8.25l2.26-8.96c.5-2.12.9-3.8.9-4.3 0-.46-.33-.98-.7-1.17-.6-.32-.78-.4-3.23-.4v-.9c3.66-.44 5.98-.9 9.65-1.73l.26.2-5.73 22.86c-.06.2-.2.77-.2 1.03 0 .97.33 1.62 1.3 1.62 2.2 0 5.15-3.4 9.14-9.47 3.04-4.57 3.94-7.02 7.1-15.65h4.76l-5.08 19.26c-.33 1.22-1.23 4.25-1.23 5.02 0 .7.26 1.1.7 1.1 1.04 0 2.07-.9 5.36-5.22M153.12 74.56l1.03-2.25c1.22-2.7 3.4-6.1 6.05-8.88 1.68-1.74 3.6-2.9 5.1-2.9 1.8 0 3.02 1.36 3.02 3.3 0 1.92-1.1 3.47-3.03 3.47-1.17 0-1.7-.72-2.27-1.7-.38-.63-.58-.9-1.03-.9-1.16 0-2.96 2.13-5.28 6.06-2.77 4.77-3.93 7.34-7.15 18.16h-4.9l5.23-18.8c.9-3.35 1.03-3.93 1.03-5.28s-1.16-1.68-2.45-1.68c-.52 0-1.03.07-2 .2v-1.1l10-1.74.18.13M198.13 81.78l.84.7c-4.83 5.86-6.38 7.1-8.95 7.1-1.8 0-2.58-.8-2.58-2.65 0-1.6.13-2.13 1.48-7.4-4.83 7.27-8.56 10.1-13.07 10.1-3.6 0-6.44-2.57-6.44-7.47 0-9.98 9.86-21.64 18.43-21.64 2.77 0 4.64 1.36 5.15 3.74l.7-3.1.2-.2 3.93-.44.46.2c-.13.58-.2.7-.38 1.35-3.03 11-5.74 22.1-5.74 23.38 0 .45.4.83.9.83.6 0 1.42-.5 3.35-2.64m-4.58-17.97c0-2.25-1.35-3.73-3.6-3.73-2.9 0-5.74 2-8.44 5.92-2.7 4.06-4.96 9.8-4.96 13.85 0 3.55 1.55 4.78 3.86 4.78 3.22 0 6.25-3.55 8.18-6.3 3.03-4.4 4.96-9.93 4.96-14.5M223.2 82.03l1.02.65c-3.93 4.96-7.35 6.95-12.18 6.95-6 0-9.46-3.35-9.46-9.92 0-5.97 3.35-11.58 7.92-15.25 3.15-2.5 6.82-3.93 10.75-3.93 3.93 0 6.77 2.2 6.77 5.22 0 1.74-1.42 3.1-3.1 3.1-1.8 0-2.5-1.3-2.5-2.6 0-1.14.96-1.85.96-3.08 0-.77-.9-1.28-2.38-1.28-2.58 0-5.16 1.15-7.02 3.1-3.6 3.8-5.86 9.26-5.86 15 0 4.63 2.06 7.33 5.73 7.33 3.4 0 5.86-1.6 9.34-5.27M244.9 76.95l1.34 7.08c5.47-9.08 7.86-13.72 7.86-16.55 0-.9-.45-1.3-1.68-2.06-1.28-.84-1.67-1.48-1.67-2.5 0-1.43 1.1-2.4 2.57-2.4 1.94 0 3.35 1.6 3.35 3.54 0 3.68-3.1 10.76-8.43 19.65-6.7 11.08-13.6 18.5-17.26 18.5-1.93 0-3.3-1.1-3.3-2.78 0-1.42 1.1-2.57 2.52-2.57 2.26 0 2.26 1.8 3.93 1.8.84 0 1.6-.52 3.1-2.13 1.15-1.22 4.05-5.02 4.57-5.86.38-.77.64-1.54.64-2.25 0-2.57-3.54-17-5.28-21.37-1.22-3.16-2.38-4.12-4.96-4.12-.7 0-1.3.07-2 .26v-1.1c.7-.12 1.42-.25 2.07-.38 1.28-.26 3.4-.64 6.9-1.16h.24c.98 0 4.4 10.7 5.5 16.43M316.76 68.32h-37.93v-4.26h37.93v4.26m0 12.88h-37.93v-4.25h37.93v4.25M345.48 74.76h386.67V70.9H345.48zM426.1 33.5h-4.72l-.9 6.12h4.5v2.5h-4.92l-1.4 9.84H416l1.42-9.84h-6.1l-1.5 9.84h-2.65l1.5-9.84h-4.82v-2.5h5.23l.96-6.1h-4.96V31h5.32l1.4-9.2h2.66l-1.42 9.2h6.06l1.37-9.2h2.64l-1.36 9.2h4.37v2.5m-7.36 0h-6.06l-.96 6.1h6.1M459.08 38.25c0 3.46-1.82 7.47-4.82 10.43-2.64 2.64-5.56 3.78-8.56 3.78-4.3 0-6.7-2.37-6.7-6.33 0-5.1 3.42-10.34 8.2-12.9 1.77-.95 3.6-1.35 5.46-1.35 3.7 0 6.42 2.36 6.42 6.37m-3.82-1.14c0-2.77-1.28-4.27-3.23-4.27-2 0-4 1.4-5.83 4.15-2.1 3.18-3.37 6.78-3.37 10.38 0 2.73 1.4 4.14 3.55 4.14 2 0 3.73-1.32 5.5-3.78 2.1-2.87 3.38-7.15 3.38-10.6M462.4 32.47h4.24c1-3.24 1.78-5.74 3.28-7.88 1.37-1.97 3.23-3.52 6-3.52 2.24 0 3.93 1.2 3.93 2.83 0 1-.87 1.96-1.9 1.96-.83 0-1.7-.68-1.7-1.77 0-.8.46-1 .46-1.42 0-.37-.36-.6-1-.6-2.55 0-4.23 3.2-5.55 10.4h4.87l-.27 1.44h-4.92l-3.28 14.58c-1.9 8.42-4.96 12.88-9.1 12.88-2.06 0-3.6-1.18-3.6-2.77 0-1.04.77-1.9 1.73-1.9 1.04 0 1.73.72 1.73 1.68 0 .6-.4.82-.4 1.32 0 .4.36.73.9.73 1.92 0 3.38-2.46 4.43-7.38l4-19.13h-4.14M507.22 47.08l.73.46c-2.78 3.5-5.2 4.92-8.6 4.92-4.25 0-6.7-2.37-6.7-7 0-4.25 2.36-8.2 5.6-10.8 2.23-1.78 4.82-2.78 7.6-2.78 2.78 0 4.78 1.54 4.78 3.68 0 1.23-1 2.2-2.18 2.2-1.28 0-1.78-.92-1.78-1.83 0-.82.68-1.32.68-2.2 0-.53-.63-.9-1.68-.9-1.82 0-3.64.82-4.96 2.2-2.54 2.67-4.14 6.54-4.14 10.6 0 3.28 1.46 5.2 4.05 5.2 2.43 0 4.16-1.15 6.62-3.75M532.86 38.25c0 3.46-1.83 7.47-4.83 10.43-2.64 2.64-5.56 3.78-8.56 3.78-4.28 0-6.7-2.37-6.7-6.33 0-5.1 3.42-10.34 8.2-12.9 1.78-.95 3.6-1.35 5.46-1.35 3.7 0 6.43 2.36 6.43 6.37m-3.83-1.14c0-2.77-1.27-4.27-3.23-4.27-2 0-4 1.4-5.83 4.15-2.1 3.18-3.37 6.78-3.37 10.38 0 2.73 1.4 4.14 3.55 4.14 2 0 3.73-1.32 5.5-3.78 2.1-2.87 3.38-7.15 3.38-10.6M542.33 41.8l.73-1.6c.86-1.9 2.4-4.32 4.28-6.28 1.18-1.23 2.55-2.04 3.6-2.04 1.27 0 2.13.95 2.13 2.32 0 1.36-.77 2.46-2.14 2.46-.82 0-1.18-.5-1.6-1.2-.26-.44-.4-.62-.72-.62-.8 0-2.08 1.5-3.72 4.28-1.96 3.37-2.78 5.2-5.06 12.84h-3.46l3.7-13.3c.63-2.37.72-2.78.72-3.73 0-.96-.82-1.2-1.73-1.2-.37 0-.73.06-1.4.15v-.78l7.05-1.22.13.1M561.14 41.8l.72-1.6c.87-1.9 2.42-4.32 4.28-6.28 1.2-1.23 2.55-2.04 3.6-2.04 1.28 0 2.14.95 2.14 2.32 0 1.36-.77 2.46-2.14 2.46-.82 0-1.18-.5-1.6-1.2-.27-.44-.4-.62-.72-.62-.82 0-2.1 1.5-3.73 4.28-1.97 3.37-2.8 5.2-5.07 12.84h-3.46l3.7-13.3c.63-2.37.72-2.78.72-3.73 0-.96-.83-1.2-1.74-1.2-.37 0-.73.06-1.42.15v-.78l7.06-1.22.14.1M588.18 47l.55.54c-2.6 3.2-5.5 4.92-9.3 4.92-3.68 0-6.14-2.46-6.14-6.24 0-7.06 6.78-14.34 13.6-14.34 2.42 0 3.74 1.18 3.74 3.1 0 3.9-4.78 7.46-12.93 8.5-.44.92-.44 2.1-.44 2.8 0 2.5 1.68 4.13 4.23 4.13 2 0 3.4-.72 6.68-3.4m-9.38-6.52l-.77 2c3.92-.95 5.65-1.77 7.33-3.36 1.4-1.37 2.28-3 2.28-4.42 0-1.1-.32-1.78-1.6-1.78-2.6 0-5.7 3.5-7.24 7.56M608.1 47.08l.7.46c-2.76 3.5-5.18 4.92-8.6 4.92-4.23 0-6.7-2.37-6.7-7 0-4.25 2.38-8.2 5.6-10.8 2.25-1.78 4.84-2.78 7.62-2.78 2.78 0 4.78 1.54 4.78 3.68 0 1.23-1 2.2-2.2 2.2-1.26 0-1.76-.92-1.76-1.83 0-.82.68-1.32.68-2.2 0-.53-.64-.9-1.68-.9-1.82 0-3.65.82-4.97 2.2-2.55 2.67-4.14 6.54-4.14 10.6 0 3.28 1.46 5.2 4.05 5.2 2.42 0 4.15-1.15 6.6-3.75M625.85 32.47l-.23 1.45h-3.83l-3.97 14.94c-.05.18-.1.5-.1.64 0 .6.28.73.7.73.72 0 1.45-.73 3.68-3.6l.6.32c-2.73 4.2-4.14 5.5-6.5 5.5-1.24 0-2.1-.54-2.1-1.68 0-.5.36-1.9.72-3.37l3.56-13.48h-3.42c-.04-.13-.04-.27-.04-.27 0-.5.4-.9 1.5-1.14 1.46-.3 4.42-2.54 6.06-5 .18-.27.45-.4.63-.4.3 0 .42.13.42.36 0 0 0 .23-.04.32l-1.28 4.7h3.65M639.7 59.3l-.56.72c-7.2-4.1-11.1-11.8-11.1-19.54 0-8.42 3.95-14.98 11.24-19.3l.4.72c-6.32 5.42-7.73 9.66-7.73 18.45 0 8.47 1.36 13.6 7.74 18.94M657.72 31.83l-.9 6.37h-.74c-.45-3.77-1.82-5.28-4.05-5.28-1.6 0-2.7.9-2.7 2.6 0 1.23.7 2.55 2.47 4.64 2.28 2.64 3.1 4.42 3.1 6.2 0 3.78-2.78 6.1-6.56 6.1-.77 0-1.46-.05-2.5-.46-.87-.36-1.5-.4-2-.4s-1 .22-1.33.95h-.72l.9-7.24h.74c.64 4.34 2.2 6.2 4.56 6.2 2.14 0 3.46-1.27 3.46-3.5 0-1.46-.78-3-2.55-5.24-1.97-2.46-2.88-4.5-2.88-5.97 0-3 2.14-4.92 5.5-4.92.78 0 1.42.13 2.56.45.86.27 1.27.32 1.64.32.68 0 1-.18 1.36-.82h.64M660.1 21.9l.54-.73c6.96 4.2 11.1 11.8 11.1 19.54 0 8.43-4 14.9-11.24 19.32l-.4-.73c6.46-5.34 7.73-9.62 7.73-18.45 0-8.52-1.14-13.76-7.74-18.95M362.83 95.9l-.23 1.46h-3.83l-3.96 14.94c-.03.18-.08.5-.08.63 0 .6.27.73.68.73.73 0 1.46-.73 3.7-3.6l.58.32c-2.73 4.2-4.14 5.5-6.5 5.5-1.24 0-2.1-.53-2.1-1.67 0-.5.36-1.9.73-3.36l3.56-13.48h-3.42c-.04-.14-.04-.27-.04-.27 0-.5.4-.92 1.5-1.15 1.46-.32 4.42-2.55 6.06-5 .18-.28.45-.42.63-.42.27 0 .4.14.4.36 0 0 0 .22-.04.3l-1.28 4.7h3.65M384.14 101.7c0 3.45-1.82 7.45-4.83 10.4-2.63 2.66-5.54 3.8-8.55 3.8-4.28 0-6.7-2.37-6.7-6.34 0-5.1 3.42-10.33 8.2-12.88 1.78-.96 3.6-1.37 5.47-1.37 3.7 0 6.42 2.38 6.42 6.4m-3.83-1.15c0-2.78-1.26-4.28-3.22-4.28-2 0-4 1.4-5.83 4.14-2.1 3.2-3.37 6.8-3.37 10.4 0 2.73 1.4 4.14 3.55 4.14 2 0 3.74-1.32 5.5-3.78 2.1-2.87 3.38-7.15 3.38-10.6M399.12 95.9l-.23 1.46h-3.83l-3.96 14.94c-.04.18-.1.5-.1.63 0 .6.3.73.7.73.73 0 1.45-.73 3.7-3.6l.58.32c-2.73 4.2-4.15 5.5-6.5 5.5-1.24 0-2.1-.53-2.1-1.67 0-.5.36-1.9.72-3.36l3.55-13.48h-3.4c-.06-.14-.06-.27-.06-.27 0-.5.4-.92 1.5-1.15 1.45-.32 4.4-2.55 6.05-5 .18-.28.46-.42.64-.42.26 0 .4.14.4.36 0 0 0 .22-.05.3l-1.27 4.7h3.64M420.2 110.34l.6.5c-3.42 4.14-4.5 5-6.33 5-1.28 0-1.82-.54-1.82-1.86 0-1.14.1-1.5 1.04-5.24-3.42 5.15-6.06 7.15-9.25 7.15-2.55 0-4.56-1.83-4.56-5.3 0-7.05 6.96-15.3 13.02-15.3 1.96 0 3.28.97 3.64 2.65l.5-2.18.14-.14 2.78-.32.32.15c-.1.4-.14.5-.28.95-2.14 7.8-4.05 15.62-4.05 16.53 0 .32.27.6.64.6.42 0 1-.37 2.37-1.87m-3.23-12.7c0-1.6-.95-2.65-2.55-2.65-2.06 0-4.06 1.42-5.97 4.2-1.92 2.87-3.5 6.92-3.5 9.8 0 2.5 1.08 3.36 2.72 3.36 2.28 0 4.42-2.5 5.8-4.46 2.13-3.1 3.5-7 3.5-10.25M434.7 84.52l-6.98 26.64c-.23.82-.37 1.6-.37 1.96 0 .54.32.82.78.82.68 0 1.73-.73 3.05-2.6l1.14-1.6.64.46c-2.74 4.33-4.42 5.7-6.88 5.7-1.46 0-2.23-.87-2.23-2.56 0-.36.04-.9.18-1.36l6.24-23.86c.13-.46.13-.73.13-.87 0-.55-.77-1-2.23-1h-.82v-.73c2.7-.32 4.38-.64 7.06-1.23M468.66 96.95h-4.74l-.9 6.1h4.5v2.5h-4.92l-1.4 9.84h-2.65l1.4-9.84h-6.1l-1.5 9.83h-2.64l1.52-9.84h-4.83v-2.5h5.23l.95-6.1h-4.96v-2.52h5.33l1.4-9.2H457l-1.4 9.2h6.04l1.37-9.2h2.65l-1.36 9.2h4.36v2.5m-7.38 0h-6.06l-.95 6.1h6.1M501.63 101.7c0 3.45-1.82 7.45-4.83 10.4-2.64 2.66-5.56 3.8-8.56 3.8-4.28 0-6.7-2.37-6.7-6.34 0-5.1 3.42-10.33 8.2-12.88 1.78-.96 3.6-1.37 5.47-1.37 3.7 0 6.43 2.38 6.43 6.4m-3.83-1.15c0-2.78-1.27-4.28-3.23-4.28-2 0-4 1.4-5.83 4.14-2.1 3.2-3.37 6.8-3.37 10.4 0 2.73 1.4 4.14 3.55 4.14 2 0 3.74-1.32 5.5-3.78 2.1-2.87 3.38-7.15 3.38-10.6M504.95 95.9h4.24c1-3.23 1.76-5.74 3.27-7.88 1.36-1.95 3.23-3.5 6-3.5 2.24 0 3.92 1.18 3.92 2.82 0 1-.87 1.96-1.92 1.96-.82 0-1.7-.68-1.7-1.78 0-.77.47-1 .47-1.4 0-.37-.36-.6-1-.6-2.55 0-4.24 3.2-5.56 10.38h4.87l-.28 1.46h-4.93l-3.27 14.57c-1.92 8.43-4.97 12.9-9.1 12.9-2.06 0-3.6-1.2-3.6-2.8 0-1.04.76-1.9 1.72-1.9 1.05 0 1.73.73 1.73 1.68 0 .6-.4.83-.4 1.33 0 .4.36.73.9.73 1.9 0 3.37-2.46 4.42-7.37l4-19.14h-4.14M539.1 95.26l-.9 6.38h-.73c-.46-3.78-1.83-5.28-4.06-5.28-1.58 0-2.67.9-2.67 2.6 0 1.22.68 2.54 2.46 4.64 2.26 2.64 3.08 4.42 3.08 6.2 0 3.77-2.78 6.1-6.56 6.1-.77 0-1.45-.05-2.5-.46-.87-.37-1.5-.4-2-.4s-1 .22-1.32.94h-.73l.9-7.24h.74c.64 4.33 2.2 6.2 4.56 6.2 2.14 0 3.46-1.28 3.46-3.5 0-1.47-.77-3-2.55-5.25-1.96-2.47-2.87-4.5-2.87-5.97 0-3 2.14-4.92 5.5-4.92.8 0 1.42.15 2.56.47.87.27 1.28.3 1.64.3.68 0 1-.17 1.37-.8h.64M556.46 110.43l.54.55c-2.6 3.18-5.5 4.9-9.3 4.9-3.68 0-6.14-2.45-6.14-6.23 0-7.05 6.8-14.34 13.62-14.34 2.4 0 3.73 1.2 3.73 3.1 0 3.92-4.77 7.48-12.92 8.52-.45.9-.45 2.1-.45 2.78 0 2.5 1.68 4.14 4.23 4.14 2 0 3.42-.72 6.7-3.4m-9.4-6.52l-.76 2c3.92-.96 5.65-1.78 7.33-3.37 1.4-1.37 2.28-3 2.28-4.42 0-1.1-.3-1.77-1.6-1.77-2.58 0-5.68 3.5-7.23 7.56M581.36 110.06l.64.6c-3.1 4.23-4.23 5.14-6.37 5.14-1.14 0-2.14-.73-2.14-2.46 0-.45.08-1.04.72-3.4l2-7.4c.36-1.4.64-3.04.64-3.6 0-.8-.4-1.3-1.1-1.3-1.82 0-3.87 2.22-6.74 6.46-2.05 3.05-2.4 4.1-4.55 11.3h-3.42l4.38-15.95c.04-.22.1-.5.1-.77 0-.9-.65-1.18-2.97-1.23v-.73c3.7-.73 4.96-.9 7.37-1.4l.2.08-3.06 9.93c4.55-7.3 7.6-10.02 10.52-10.02 1.94 0 2.95 1.15 2.95 2.8 0 .8-.2 1.76-.46 2.72l-2.56 9.24c-.46 1.64-.64 2.42-.64 2.78 0 .4.18.82.73.82.64 0 1.46-.73 2.78-2.4.33-.38.65-.8.96-1.2M596.67 95.9l-.23 1.46h-3.83l-3.95 14.94c-.04.18-.1.5-.1.63 0 .6.28.73.7.73.72 0 1.45-.73 3.68-3.6l.6.32c-2.74 4.2-4.15 5.5-6.52 5.5-1.22 0-2.08-.53-2.08-1.67 0-.5.36-1.9.73-3.36l3.55-13.48h-3.42c-.04-.14-.04-.27-.04-.27 0-.5.4-.92 1.5-1.15 1.46-.32 4.42-2.55 6.06-5 .18-.28.45-.42.63-.42.28 0 .4.14.4.36 0 0 0 .22-.03.3l-1.28 4.7h3.65M613 110.43l.56.55c-2.6 3.18-5.5 4.9-9.3 4.9-3.68 0-6.14-2.45-6.14-6.23 0-7.05 6.8-14.34 13.62-14.34 2.4 0 3.73 1.2 3.73 3.1 0 3.92-4.78 7.48-12.93 8.52-.46.9-.46 2.1-.46 2.78 0 2.5 1.7 4.14 4.24 4.14 2 0 3.42-.72 6.7-3.4m-9.4-6.52l-.76 2c3.92-.96 5.65-1.78 7.33-3.37 1.4-1.37 2.27-3 2.27-4.42 0-1.1-.32-1.77-1.6-1.77-2.6 0-5.7 3.5-7.24 7.56M637.88 110.06l.64.6c-3.1 4.23-4.24 5.14-6.38 5.14-1.14 0-2.14-.73-2.14-2.46 0-.45.1-1.04.73-3.4l2-7.4c.37-1.4.64-3.04.64-3.6 0-.8-.4-1.3-1.1-1.3-1.8 0-3.86 2.22-6.73 6.46-2.05 3.05-2.42 4.1-4.56 11.3h-3.4l4.36-15.95c.04-.22.1-.5.1-.77 0-.9-.65-1.18-2.97-1.23v-.73c3.7-.73 4.96-.9 7.38-1.4l.18.08-3.05 9.93c4.55-7.3 7.6-10.02 10.52-10.02 1.96 0 2.96 1.15 2.96 2.8 0 .8-.18 1.76-.46 2.72l-2.55 9.24c-.45 1.64-.63 2.42-.63 2.78 0 .4.18.82.72.82.64 0 1.46-.73 2.78-2.4.32-.38.64-.8.96-1.2M655.68 110.52l.73.46c-2.77 3.5-5.18 4.9-8.6 4.9-4.23 0-6.7-2.35-6.7-7 0-4.23 2.38-8.2 5.6-10.8 2.24-1.77 4.84-2.77 7.62-2.77 2.78 0 4.78 1.56 4.78 3.7 0 1.23-1 2.18-2.2 2.18-1.26 0-1.76-.9-1.76-1.82 0-.82.68-1.32.68-2.18 0-.55-.64-.9-1.68-.9-1.83 0-3.65.8-4.97 2.17-2.55 2.7-4.14 6.56-4.14 10.6 0 3.3 1.45 5.2 4.05 5.2 2.4 0 4.14-1.13 6.6-3.73M676.27 110.43l.54.55c-2.58 3.18-5.5 4.9-9.28 4.9-3.7 0-6.14-2.45-6.14-6.23 0-7.05 6.78-14.34 13.6-14.34 2.43 0 3.75 1.2 3.75 3.1 0 3.92-4.8 7.48-12.94 8.52-.46.9-.46 2.1-.46 2.78 0 2.5 1.68 4.14 4.23 4.14 2 0 3.42-.72 6.7-3.4m-9.38-6.52l-.8 2c3.93-.96 5.66-1.78 7.34-3.37 1.42-1.37 2.28-3 2.28-4.42 0-1.1-.32-1.77-1.6-1.77-2.6 0-5.7 3.5-7.23 7.56M694.07 122.72l-.54.73c-7.2-4.1-11.12-11.8-11.12-19.53 0-8.43 3.98-15 11.26-19.3l.4.72c-6.32 5.42-7.73 9.65-7.73 18.44 0 8.47 1.37 13.62 7.74 18.94M712.06 95.26l-.9 6.38h-.74c-.45-3.78-1.82-5.28-4.05-5.28-1.6 0-2.7.9-2.7 2.6 0 1.22.7 2.54 2.47 4.64 2.28 2.64 3.1 4.42 3.1 6.2 0 3.77-2.78 6.1-6.56 6.1-.78 0-1.46-.05-2.5-.46-.87-.37-1.5-.4-2-.4s-1 .22-1.33.94h-.73l.9-7.24h.74c.64 4.33 2.2 6.2 4.55 6.2 2.15 0 3.48-1.28 3.48-3.5 0-1.47-.78-3-2.55-5.25-1.96-2.47-2.87-4.5-2.87-5.97 0-3 2.14-4.92 5.5-4.92.78 0 1.42.15 2.56.47.86.27 1.27.3 1.64.3.68 0 1-.17 1.36-.8h.64M714.47 85.34l.55-.73c6.97 4.2 11.1 11.8 11.1 19.54 0 8.43-4 14.9-11.24 19.3l-.4-.72c6.46-5.32 7.73-9.6 7.73-18.44 0-8.5-1.12-13.75-7.73-18.94"/></g></svg>