<svg xmlns="http://www.w3.org/2000/svg" xmlns:lucid="lucid" width="760" height="162.69"><g lucid:page-tab-id="QlDKqCKIlL1~"><path d="M20 20h720v122.7H20z" fill="#fff" fill-opacity="0"/><path d="M46.66 91.84l.9.9c-4.25 5.2-9.02 8.04-15.2 8.04-6.03 0-10.05-4.02-10.05-10.2 0-11.54 11.1-23.46 22.27-23.46 3.95 0 6.1 1.94 6.1 5.07 0 6.4-7.8 12.2-21.14 13.9-.74 1.5-.74 3.44-.74 4.55 0 4.1 2.74 6.78 6.9 6.78 3.3 0 5.6-1.2 10.96-5.6M31.32 81.2l-1.27 3.27c6.4-1.56 9.24-2.9 12-5.5 2.3-2.24 3.72-4.92 3.72-7.23 0-1.8-.53-2.9-2.6-2.9-4.25 0-9.32 5.73-11.85 12.36M66.17 83.36l1.2-2.6c1.4-3.14 3.94-7.1 7-10.3 1.93-2 4.16-3.34 5.88-3.34 2.08 0 3.5 1.57 3.5 3.8 0 2.23-1.27 4.02-3.5 4.02-1.35 0-1.94-.82-2.6-1.94-.46-.74-.68-1.04-1.2-1.04-1.34 0-3.43 2.46-6.1 7-3.2 5.5-4.55 8.5-8.28 21h-5.65l6.03-21.74c1.04-3.88 1.2-4.55 1.2-6.1 0-1.57-1.35-1.95-2.84-1.95-.6 0-1.18.08-2.3.23v-1.27l11.54-2 .23.14M96.93 83.36l1.2-2.6c1.4-3.14 3.93-7.1 7-10.3 1.92-2 4.16-3.34 5.87-3.34 2.1 0 3.5 1.57 3.5 3.8 0 2.23-1.26 4.02-3.5 4.02-1.34 0-1.94-.82-2.6-1.94-.45-.74-.68-1.04-1.2-1.04-1.34 0-3.42 2.46-6.1 7-3.2 5.5-4.55 8.5-8.27 21h-5.66l6.03-21.74c1.05-3.88 1.2-4.55 1.2-6.1 0-1.57-1.35-1.95-2.84-1.95-.6 0-1.2.08-2.3.23v-1.27l11.54-2 .22.14M149.35 77.55c0 5.66-2.98 12.2-7.9 17.05-4.3 4.32-9.08 6.18-14 6.18-7 0-10.94-3.87-10.94-10.35 0-8.34 5.6-16.9 13.42-21.07 2.9-1.57 5.88-2.24 8.93-2.24 6.03 0 10.5 3.87 10.5 10.43m-6.25-1.86c0-4.56-2.1-7-5.3-7-3.27 0-6.54 2.3-9.52 6.76-3.43 5.2-5.5 11.1-5.5 16.98 0 4.47 2.3 6.78 5.8 6.78 3.27 0 6.1-2.16 9-6.18 3.43-4.7 5.52-11.7 5.52-17.35M164.92 83.36l1.2-2.6c1.4-3.14 3.94-7.1 7-10.3 1.92-2 4.16-3.34 5.87-3.34 2.08 0 3.5 1.57 3.5 3.8 0 2.23-1.27 4.02-3.5 4.02-1.35 0-1.94-.82-2.62-1.94-.44-.74-.67-1.04-1.2-1.04-1.33 0-3.4 2.46-6.1 7-3.2 5.5-4.54 8.5-8.26 21h-5.66l6.03-21.74c1.04-3.88 1.18-4.55 1.18-6.1 0-1.57-1.34-1.95-2.83-1.95-.6 0-1.2.08-2.3.23v-1.27l11.54-2 .2.14M250.63 76.13h-43.86v-4.9h43.86v4.9m0 14.9h-43.86V86.1h43.86v4.93M283.77 83.58h447.1V79.1h-447.1zM373.36 35.9h-5.48l-1.05 7.05h5.2v2.9h-5.68l-1.63 11.37h-3.05l1.63-11.38h-7.06l-1.73 11.38h-3.05l1.74-11.38h-5.6v-2.9h6.06l1.1-7.05h-5.73V33h6.16l1.62-10.64h3.06L358.24 33h7l1.6-10.64h3.04L368.3 33h5.06v2.9m-8.53 0h-7l-1.1 7.05h7.04M411.48 41.37c0 4-2.1 8.63-5.58 12.06-3.06 3.05-6.43 4.37-9.9 4.37-4.95 0-7.74-2.74-7.74-7.32 0-5.9 3.95-11.96 9.48-14.9 2.05-1.1 4.16-1.6 6.32-1.6 4.26 0 7.42 2.75 7.42 7.4m-4.42-1.33c0-3.2-1.48-4.95-3.74-4.95-2.32 0-4.63 1.63-6.74 4.8-2.42 3.68-3.9 7.84-3.9 12 0 3.16 1.63 4.8 4.1 4.8 2.33 0 4.33-1.54 6.38-4.38 2.42-3.32 3.9-8.27 3.9-12.27M415.32 34.68h4.9c1.16-3.74 2.06-6.64 3.8-9.1 1.57-2.27 3.73-4.06 6.94-4.06 2.58 0 4.53 1.36 4.53 3.26 0 1.16-1 2.26-2.22 2.26-.95 0-1.95-.8-1.95-2.05 0-.9.53-1.17.53-1.64 0-.42-.42-.7-1.16-.7-2.95 0-4.9 3.7-6.42 12.02h5.63l-.3 1.68h-5.7l-3.78 16.85c-2.2 9.76-5.74 14.92-10.53 14.92-2.38 0-4.17-1.37-4.17-3.22 0-1.2.9-2.2 2-2.2 1.2 0 2 .84 2 1.94 0 .7-.48.95-.48 1.53 0 .47.42.84 1.06.84 2.22 0 3.9-2.83 5.1-8.52l4.65-22.12h-4.8M485.78 51.7l-.26.36c-2.8 3.9-5.1 5.63-7.6 5.63-1.35 0-2.1-.85-2.1-2.43 0-.53.17-1.42.7-3.48l3.05-11.96c.26-1.05.37-1.74.37-2 0-.63-.48-1.1-1.06-1.1-1.58 0-4.26 2.47-6.9 6.15-2.58 3.63-3.63 6.2-5.68 14.32h-3.95l1.42-4.9c2.32-8 3.58-13.6 3.58-14.27 0-.84-.47-1.32-1.16-1.32-1.8 0-4.9 3.06-7.85 7.53-1.8 2.74-2.53 4.64-5.06 12.96h-3.96l2.27-7.6c2.1-7 2.9-11.36 2.9-12 0-.78-.74-1.15-2.16-1.15h-1.3v-.84l8.52-1.64.16.1-3.06 11c4.7-7.63 8.37-11.1 11.6-11.1 2.1 0 3.15 1.26 3.15 3.15 0 1-.68 3.95-2.1 8 3.68-5.84 5.84-8.47 8.42-10.1C479 34.25 480 34 481.04 34c1.95 0 3.06 1.42 3.06 3.3 0 .38-.1 1.22-.16 1.5L480.36 52c-.32 1.2-.53 2.16-.53 2.37 0 .58.2.85.63.85.9 0 1.85-.85 3.42-2.8l1.1-1.36M500.68 25.68c0 1.47-1.2 2.68-2.58 2.68-1.52 0-2.53-1.1-2.53-2.8 0-1.62 1.06-2.78 2.48-2.78s2.63 1.37 2.63 2.9m-2.2 25.53l.68.6c-2.9 4.42-4.6 6-7.22 6-1.74 0-2.58-.95-2.58-2.9 0-1.05.37-2.9 1.16-5.85l2.53-9.32c.26-.94.47-1.9.47-2.3 0-1.07-.53-1.22-3.37-1.28v-.84c2.05-.15 3.1-.3 8.43-1.3l.2.15-4.94 18.06c-.27.9-.53 1.6-.53 2.33 0 .53.33.8.75.8.9 0 2.16-1.1 4.42-4.12M520.7 33.94l-1.06 7.37h-.84c-.53-4.36-2.1-6.1-4.7-6.1-1.83 0-3.1 1.06-3.1 3 0 1.43.8 2.96 2.85 5.38 2.63 3.05 3.58 5.1 3.58 7.16 0 4.37-3.2 7.06-7.58 7.06-.9 0-1.7-.06-2.9-.53-1-.42-1.74-.47-2.32-.47-.58 0-1.16.26-1.53 1.1h-.84l1.06-8.37h.84c.74 5 2.53 7.16 5.26 7.16 2.48 0 4-1.48 4-4.06 0-1.7-.9-3.48-2.94-6.06-2.27-2.84-3.32-5.2-3.32-6.9 0-3.47 2.47-5.7 6.37-5.7.9 0 1.63.17 2.95.54 1 .32 1.47.37 1.9.37.8 0 1.15-.22 1.58-.96h.73M537.5 34.68l-.27 1.68h-4.43l-4.58 17.28c-.05.2-.1.58-.1.73 0 .7.3.85.8.85.83 0 1.67-.85 4.25-4.16l.7.36c-3.17 4.85-4.8 6.38-7.54 6.38-1.42 0-2.43-.64-2.43-1.95 0-.58.43-2.2.85-3.9l4.1-15.6h-3.94c-.05-.14-.05-.3-.05-.3 0-.58.48-1.05 1.74-1.32 1.68-.37 5.1-2.95 7-5.8.2-.3.52-.46.73-.46.32 0 .47.15.47.42 0 0 0 .25-.05.36l-1.47 5.42h4.2M561.92 51.37l.7.58c-3.96 4.8-5.23 5.8-7.33 5.8-1.5 0-2.12-.64-2.12-2.17 0-1.3.1-1.73 1.2-6.05-3.94 5.95-7 8.27-10.68 8.27-2.94 0-5.26-2.1-5.26-6.1 0-8.17 8.05-17.7 15.06-17.7 2.26 0 3.8 1.1 4.2 3.05l.6-2.53.15-.16 3.2-.37.38.15c-.1.48-.16.58-.32 1.1-2.46 9-4.67 18.07-4.67 19.12 0 .37.3.7.73.7.48 0 1.16-.43 2.74-2.17m-3.74-14.7c0-1.84-1.1-3.05-2.95-3.05-2.36 0-4.67 1.64-6.88 4.85-2.22 3.32-4.06 8-4.06 11.32 0 2.9 1.27 3.9 3.16 3.9 2.63 0 5.1-2.9 6.7-5.16 2.46-3.6 4.04-8.1 4.04-11.85M588.2 34.68v.84c-2.48.16-4.1 1.2-11.85 8.1l1.95 4.65c2.05 4.84 3.26 6.8 4.27 6.8.8 0 1.42-.6 2.36-2.22.27-.42.53-.9.8-1.37l.78.58c-2.4 4.42-3.72 5.74-5.83 5.74-1.53 0-2.58-1-4.27-4.32-.94-1.84-2.3-5.1-3.16-7.43l-2.1 1.7-2.53 9.47h-3.94l7.43-27.8c.67-2.53.83-3.74.93-4.64-.1-.95-.9-1.26-2.68-1.26h-.95v-.85c3.1-.37 5.16-.73 8.27-1.42l.3.32-6.3 24 2.26-1.73c4.95-3.8 7.53-6.32 7.53-7.37 0-.58-.63-.95-1.95-.95h-.73v-.84h9.43M607.1 51.48l.64.63c-3 3.7-6.38 5.7-10.75 5.7-4.27 0-7.12-2.85-7.12-7.22 0-8.16 7.85-16.6 15.75-16.6 2.8 0 4.32 1.38 4.32 3.6 0 4.52-5.53 8.63-14.96 9.84-.53 1.06-.53 2.42-.53 3.2 0 2.9 1.94 4.8 4.9 4.8 2.3 0 3.94-.84 7.73-3.94m-10.84-7.53l-.9 2.3c4.53-1.1 6.53-2.04 8.48-3.88 1.63-1.58 2.63-3.48 2.63-5.1 0-1.27-.37-2.06-1.84-2.06-3 0-6.58 4.06-8.37 8.75M627.64 65.7l-.63.84c-8.3-4.74-12.84-13.64-12.84-22.6 0-9.73 4.58-17.32 13-22.32l.48.84c-7.32 6.27-8.95 11.17-8.95 21.33 0 9.78 1.57 15.73 8.94 21.9M648.5 33.94l-1.06 7.37h-.84c-.53-4.36-2.1-6.1-4.7-6.1-1.83 0-3.1 1.06-3.1 3 0 1.43.8 2.96 2.85 5.38 2.63 3.05 3.58 5.1 3.58 7.16 0 4.37-3.2 7.06-7.6 7.06-.88 0-1.67-.06-2.88-.53-1-.42-1.74-.47-2.32-.47-.58 0-1.16.26-1.53 1.1h-.84l1.06-8.37h.84c.74 5 2.53 7.16 5.26 7.16 2.48 0 4-1.48 4-4.06 0-1.7-.9-3.48-2.94-6.06-2.27-2.84-3.32-5.2-3.32-6.9 0-3.47 2.47-5.7 6.37-5.7.9 0 1.63.17 2.95.54 1 .32 1.47.37 1.9.37.8 0 1.15-.22 1.58-.96h.73M651.28 22.46l.64-.84c8.05 4.84 12.84 13.64 12.84 22.6 0 9.73-4.63 17.2-13 22.32l-.48-.85c7.48-6.17 8.96-11.12 8.96-21.33 0-9.85-1.32-15.9-8.96-21.9M303.82 108.03l-.26 1.7h-4.42l-4.58 17.26c-.06.2-.1.57-.1.73 0 .68.3.84.78.84.84 0 1.7-.84 4.27-4.16l.7.38c-3.17 4.84-4.8 6.37-7.54 6.37-1.42 0-2.42-.63-2.42-1.95 0-.58.42-2.2.84-3.9l4.1-15.58h-3.94c-.05-.16-.05-.32-.05-.32 0-.58.46-1.05 1.72-1.32 1.7-.36 5.1-2.94 7-5.8.22-.3.53-.46.74-.46.32 0 .48.16.48.42 0 0 0 .26-.05.37l-1.5 5.43h4.22M328.47 114.72c0 4-2.1 8.63-5.58 12.06-3.07 3.05-6.44 4.37-9.9 4.37-4.96 0-7.75-2.74-7.75-7.32 0-5.9 3.95-11.95 9.47-14.9 2.06-1.1 4.16-1.58 6.32-1.58 4.27 0 7.43 2.74 7.43 7.37m-4.43-1.32c0-3.2-1.47-4.95-3.73-4.95-2.3 0-4.63 1.64-6.73 4.8-2.43 3.68-3.9 7.84-3.9 12 0 3.16 1.63 4.8 4.1 4.8 2.32 0 4.32-1.53 6.38-4.38 2.42-3.32 3.9-8.27 3.9-12.27M345.8 108.03l-.27 1.7h-4.42l-4.58 17.26c-.05.2-.1.57-.1.73 0 .68.3.84.8.84.83 0 1.67-.84 4.25-4.16l.7.38c-3.17 4.84-4.8 6.37-7.54 6.37-1.42 0-2.42-.63-2.42-1.95 0-.58.43-2.2.85-3.9l4.1-15.58h-3.94c-.05-.16-.05-.32-.05-.32 0-.58.48-1.05 1.74-1.32 1.68-.36 5.1-2.94 7-5.8.2-.3.52-.46.73-.46.32 0 .48.16.48.42 0 0 0 .26-.05.37l-1.47 5.43h4.2M370.17 124.72l.7.58c-3.96 4.8-5.23 5.8-7.33 5.8-1.48 0-2.1-.64-2.1-2.16 0-1.32.1-1.74 1.2-6.06-3.95 5.95-7 8.27-10.7 8.27-2.94 0-5.25-2.1-5.25-6.1 0-8.17 8.04-17.7 15.05-17.7 2.26 0 3.8 1.1 4.2 3.05l.6-2.53.15-.15 3.2-.37.38.15c-.1.48-.16.58-.32 1.1-2.47 9.02-4.68 18.07-4.68 19.13 0 .36.3.68.73.68.5 0 1.17-.4 2.75-2.15m-3.74-14.7c0-1.83-1.1-3.04-2.94-3.04-2.37 0-4.68 1.64-6.9 4.85-2.2 3.32-4.05 8-4.05 11.32 0 2.9 1.27 3.9 3.17 3.9 2.63 0 5.1-2.9 6.7-5.16 2.46-3.57 4.04-8.1 4.04-11.84M386.92 94.87l-8.06 30.8c-.26.95-.42 1.84-.42 2.27 0 .63.37.94.9.94.78 0 2-.84 3.52-3l1.32-1.84.74.53c-3.16 5-5.1 6.58-7.95 6.58-1.7 0-2.58-1-2.58-2.95 0-.42.04-1.05.2-1.58l7.2-27.6c.17-.52.17-.84.17-1 0-.63-.9-1.15-2.58-1.15h-.96v-.84c3.1-.37 5.05-.74 8.16-1.43M426.2 109.24h-5.48l-1.05 7.06h5.2v2.9h-5.67l-1.64 11.37h-3.05l1.64-11.38h-7.05l-1.75 11.37h-3.06l1.73-11.38h-5.58v-2.9h6.06l1.1-7.06h-5.73v-2.9h6.16l1.64-10.63h3.05l-1.63 10.65h7l1.57-10.64h3.05l-1.58 10.65h5.06v2.9m-8.53 0h-7l-1.1 7.05h7.05M464.32 114.72c0 4-2.1 8.63-5.58 12.06-3.05 3.05-6.42 4.37-9.9 4.37-4.95 0-7.74-2.74-7.74-7.32 0-5.9 3.95-11.95 9.48-14.9 2.05-1.1 4.16-1.58 6.32-1.58 4.26 0 7.42 2.74 7.42 7.37m-4.42-1.32c0-3.2-1.47-4.95-3.74-4.95-2.3 0-4.63 1.64-6.74 4.8-2.42 3.68-3.9 7.84-3.9 12 0 3.16 1.64 4.8 4.1 4.8 2.33 0 4.33-1.53 6.38-4.38 2.43-3.32 3.9-8.27 3.9-12.27M468.17 108.03h4.9c1.15-3.74 2.05-6.63 3.8-9.1 1.57-2.27 3.73-4.06 6.94-4.06 2.6 0 4.54 1.37 4.54 3.26 0 1.16-1 2.27-2.22 2.27-.94 0-1.94-.8-1.94-2.06 0-.9.52-1.16.52-1.63 0-.4-.42-.67-1.16-.67-2.94 0-4.9 3.68-6.42 12h5.63l-.3 1.7h-5.7l-3.8 16.84c-2.2 9.74-5.73 14.9-10.52 14.9-2.37 0-4.16-1.37-4.16-3.2 0-1.22.9-2.22 2-2.22 1.2 0 2 .84 2 1.94 0 .68-.47.94-.47 1.52 0 .47.42.84 1.05.84 2.2 0 3.9-2.84 5.1-8.53l4.64-22.1h-4.8M507.66 107.3l-1.05 7.37h-.83c-.53-4.37-2.1-6.1-4.7-6.1-1.83 0-3.1 1.04-3.1 3 0 1.4.8 2.94 2.85 5.36 2.63 3.05 3.58 5.1 3.58 7.16 0 4.36-3.22 7.05-7.6 7.05-.88 0-1.67-.05-2.88-.53-1-.42-1.74-.47-2.32-.47-.58 0-1.16.26-1.53 1.1h-.84l1.05-8.37h.85c.73 5 2.52 7.16 5.26 7.16 2.47 0 4-1.47 4-4.05 0-1.7-.9-3.5-2.95-6.07-2.27-2.84-3.32-5.2-3.32-6.9 0-3.47 2.47-5.68 6.37-5.68.9 0 1.63.15 2.95.52 1 .32 1.47.37 1.9.37.78 0 1.15-.2 1.57-.95h.74M527.72 124.83l.64.63c-3 3.7-6.38 5.7-10.75 5.7-4.25 0-7.1-2.86-7.1-7.23 0-8.16 7.85-16.58 15.75-16.58 2.8 0 4.32 1.37 4.32 3.58 0 4.53-5.53 8.63-14.96 9.84-.5 1.06-.5 2.43-.5 3.22 0 2.88 1.93 4.78 4.88 4.78 2.32 0 3.95-.84 7.74-3.95m-10.84-7.53l-.9 2.32c4.53-1.1 6.53-2.06 8.48-3.9 1.63-1.58 2.63-3.48 2.63-5.1 0-1.27-.38-2.06-1.85-2.06-3 0-6.58 4.05-8.37 8.74M556.53 124.4l.73.7c-3.58 4.9-4.9 5.94-7.37 5.94-1.32 0-2.48-.84-2.48-2.84 0-.53.1-1.2.84-3.95l2.32-8.53c.42-1.63.73-3.53.73-4.16 0-.95-.46-1.53-1.25-1.53-2.1 0-4.48 2.58-7.8 7.48-2.36 3.54-2.78 4.75-5.26 13.07h-3.96l5.06-18.43c.05-.26.1-.58.1-.9 0-1.05-.73-1.37-3.42-1.42v-.84c4.27-.84 5.74-1.05 8.53-1.63l.22.1-3.53 11.48c5.26-8.42 8.8-11.58 12.16-11.58 2.26 0 3.42 1.3 3.42 3.2 0 .96-.2 2.06-.53 3.17l-2.95 10.7c-.52 1.88-.73 2.78-.73 3.2 0 .47.2.95.84.95.75 0 1.7-.84 3.22-2.8.37-.4.74-.9 1.1-1.36M574.22 108.03l-.26 1.7h-4.43l-4.58 17.26c-.05.2-.1.57-.1.73 0 .68.3.84.8.84.83 0 1.67-.84 4.25-4.16l.7.38c-3.17 4.84-4.8 6.37-7.54 6.37-1.42 0-2.43-.63-2.43-1.95 0-.58.43-2.2.85-3.9l4.1-15.58h-3.94c-.06-.16-.06-.32-.06-.32 0-.58.48-1.05 1.74-1.32 1.7-.36 5.1-2.94 7-5.8.2-.3.53-.46.74-.46.32 0 .47.16.47.42 0 0 0 .26-.05.37l-1.47 5.43h4.22M593.12 124.83l.64.63c-3 3.7-6.38 5.7-10.75 5.7-4.25 0-7.1-2.86-7.1-7.23 0-8.16 7.85-16.58 15.75-16.58 2.8 0 4.32 1.37 4.32 3.58 0 4.53-5.53 8.63-14.96 9.84-.5 1.06-.5 2.43-.5 3.22 0 2.88 1.94 4.78 4.88 4.78 2.32 0 3.95-.84 7.74-3.95m-10.84-7.53l-.9 2.32c4.53-1.1 6.53-2.06 8.48-3.9 1.63-1.58 2.63-3.48 2.63-5.1 0-1.27-.38-2.06-1.85-2.06-3 0-6.58 4.05-8.37 8.74M621.88 124.4l.73.7c-3.57 4.9-4.88 5.94-7.36 5.94-1.32 0-2.47-.84-2.47-2.84 0-.53.1-1.2.84-3.95l2.33-8.53c.42-1.63.73-3.53.73-4.16 0-.95-.47-1.53-1.26-1.53-2.1 0-4.48 2.58-7.8 7.48-2.36 3.54-2.8 4.75-5.26 13.07h-3.95l5.05-18.43c.05-.26.1-.58.1-.9 0-1.05-.74-1.37-3.42-1.42v-.84c4.26-.84 5.74-1.05 8.53-1.63l.2.1-3.52 11.48c5.27-8.42 8.8-11.58 12.16-11.58 2.27 0 3.43 1.3 3.43 3.2 0 .96-.2 2.06-.53 3.17l-2.95 10.7c-.52 1.88-.73 2.78-.73 3.2 0 .47.2.95.84.95.73 0 1.68-.84 3.2-2.8.38-.4.75-.9 1.12-1.36M642.46 124.93l.85.53c-3.2 4.06-6 5.7-9.95 5.7-4.9 0-7.74-2.75-7.74-8.12 0-4.9 2.75-9.48 6.5-12.48 2.57-2.05 5.57-3.2 8.78-3.2 3.22 0 5.53 1.78 5.53 4.25 0 1.43-1.14 2.54-2.5 2.54-1.5 0-2.07-1.05-2.07-2.1 0-.95.8-1.53.8-2.53 0-.63-.74-1.05-1.96-1.05-2.1 0-4.2.95-5.74 2.53-2.94 3.1-4.8 7.58-4.8 12.27 0 3.8 1.7 6 4.7 6 2.8 0 4.8-1.3 7.63-4.32M666.27 124.83l.63.63c-3 3.7-6.37 5.7-10.74 5.7-4.27 0-7.1-2.86-7.1-7.23 0-8.16 7.83-16.58 15.73-16.58 2.78 0 4.3 1.37 4.3 3.58 0 4.53-5.52 8.63-14.95 9.84-.52 1.06-.52 2.43-.52 3.22 0 2.88 1.95 4.78 4.9 4.78 2.3 0 3.94-.84 7.74-3.95m-10.85-7.53l-.9 2.32c4.53-1.1 6.53-2.06 8.48-3.9 1.63-1.58 2.63-3.48 2.63-5.1 0-1.27-.36-2.06-1.84-2.06-3 0-6.6 4.05-8.38 8.74M686.85 139.05l-.63.84c-8.32-4.75-12.85-13.65-12.85-22.6 0-9.74 4.6-17.33 13-22.33l.48.84c-7.3 6.28-8.95 11.18-8.95 21.34 0 9.8 1.58 15.75 8.95 21.9M707.65 107.3l-1.05 7.37h-.84c-.53-4.37-2.1-6.1-4.7-6.1-1.83 0-3.1 1.04-3.1 3 0 1.4.8 2.94 2.85 5.36 2.64 3.05 3.6 5.1 3.6 7.16 0 4.36-3.22 7.05-7.6 7.05-.9 0-1.68-.05-2.9-.53-1-.42-1.73-.47-2.3-.47-.6 0-1.16.26-1.53 1.1h-.85l1.06-8.37h.84c.74 5 2.53 7.16 5.27 7.16 2.46 0 4-1.47 4-4.05 0-1.7-.9-3.5-2.96-6.07-2.27-2.84-3.32-5.2-3.32-6.9 0-3.47 2.48-5.68 6.37-5.68.9 0 1.63.15 2.94.52 1 .32 1.48.37 1.9.37.8 0 1.16-.2 1.58-.95h.73M710.45 95.8l.63-.83c8.05 4.85 12.85 13.64 12.85 22.6 0 9.73-4.64 17.2-13 22.32l-.48-.85c7.47-6.16 8.95-11.1 8.95-21.33 0-9.85-1.32-15.9-8.95-21.9"/></g></svg>