<svg xmlns="http://www.w3.org/2000/svg" xmlns:xlink="http://www.w3.org/1999/xlink" xmlns:lucid="lucid" width="1068.1" height="440"><g transform="translate(-140 -140)" lucid:page-tab-id="4wWK82y14g.X"><path d="M240 320h80v80h-80z" stroke="#000" stroke-width="2" fill="#834187"/><use xlink:href="#a" transform="matrix(1,0,0,1,245,325) translate(4.549999999999997 38.4625)"/><path d="M240 400h80v80h-80z" stroke="#000" stroke-width="2" fill="#834187"/><use xlink:href="#b" transform="matrix(1,0,0,1,245,405) translate(16.549999999999997 38.4625)"/><path d="M320 240h80v80h-80z" stroke="#000" stroke-width="2" fill="#834187"/><use xlink:href="#a" transform="matrix(1,0,0,1,325,245) translate(4.549999999999997 38.4625)"/><path d="M400 240h80v80h-80z" stroke="#000" stroke-width="2" fill="#834187"/><use xlink:href="#b" transform="matrix(1,0,0,1,405,245) translate(16.549999999999997 38.4625)"/><path d="M320 160h240v80H320z" stroke="#000" stroke-opacity="0" stroke-width="2" fill="#fff" fill-opacity="0"/><use xlink:href="#c" transform="matrix(1,0,0,1,325,165) translate(22.518518518518505 41.020833333333336)"/><use xlink:href="#d" transform="matrix(1,0,0,1,325,165) translate(142.37037037037038 41.020833333333336)"/><path d="M160 560V320h80v240z" stroke="#000" stroke-opacity="0" stroke-width="2" fill="#fff" fill-opacity="0"/><use xlink:href="#e" transform="matrix(6.123233995736766e-17,-1,1,6.123233995736766e-17,165,555) translate(51.888888888888886 41.020833333333336)"/><use xlink:href="#d" transform="matrix(6.123233995736766e-17,-1,1,6.123233995736766e-17,165,555) translate(113 41.020833333333336)"/><path d="M480 240h80v80h-80z" stroke="#000" stroke-width="2" fill="#834187"/><use xlink:href="#f" transform="matrix(1,0,0,1,485,245) translate(22.549999999999997 38.4625)"/><path d="M240 480h80v80h-80z" stroke="#000" stroke-width="2" fill="#834187"/><use xlink:href="#f" transform="matrix(1,0,0,1,245,485) translate(22.549999999999997 38.4625)"/><path d="M320 320h80v80h-80z" stroke="#000" stroke-width="2" fill="#d1bcd2"/><use xlink:href="#g" transform="matrix(1,0,0,1,325,325) translate(25 38.4625)"/><path d="M400 400h80v80h-80z" stroke="#000" stroke-width="2" fill="#d1bcd2"/><use xlink:href="#h" transform="matrix(1,0,0,1,405,405) translate(25 38.4625)"/><path d="M480 480h80v80h-80z" stroke="#000" stroke-width="2" fill="#d1bcd2"/><use xlink:href="#i" transform="matrix(1,0,0,1,485,485) translate(30 38.4625)"/><path d="M480 320h80v80h-80z" stroke="#000" stroke-width="2" fill="#e5e5e5"/><use xlink:href="#j" transform="matrix(1,0,0,1,485,325) translate(30 38.4625)"/><path d="M400 320h80v80h-80z" stroke="#000" stroke-width="2" fill="#e5e5e5"/><use xlink:href="#i" transform="matrix(1,0,0,1,405,325) translate(30 38.4625)"/><path d="M480 400h80v80h-80z" stroke="#000" stroke-width="2" fill="#e5e5e5"/><use xlink:href="#k" transform="matrix(1,0,0,1,485,405) translate(30 38.4625)"/><path d="M320 400h80v80h-80z" stroke="#000" stroke-width="2" fill="#e5e5e5"/><use xlink:href="#k" transform="matrix(1,0,0,1,325,405) translate(30 38.4625)"/><path d="M320 480h80v80h-80z" stroke="#000" stroke-width="2" fill="#e5e5e5"/><use xlink:href="#l" transform="matrix(1,0,0,1,325,485) translate(30 38.4625)"/><path d="M400 480h80v80h-80z" stroke="#000" stroke-width="2" fill="#e5e5e5"/><use xlink:href="#j" transform="matrix(1,0,0,1,405,485) translate(30 38.4625)"/><path d="M640 400h548.1v80H640z" fill="#fff" fill-opacity="0"/><path d="M667.14 448.15l.76.64c-4.4 5.33-5.8 6.44-8.14 6.44-1.65 0-2.35-.7-2.35-2.4 0-1.47.13-1.94 1.36-6.74-4.4 6.62-7.8 9.2-11.9 9.2-3.28 0-5.86-2.34-5.86-6.8 0-9.1 8.97-19.7 16.76-19.7 2.52 0 4.22 1.23 4.7 3.4l.64-2.8.17-.2 3.58-.4.4.18c-.1.53-.17.64-.34 1.23-2.75 10.03-5.2 20.12-5.2 21.3 0 .4.34.75.8.75.54 0 1.3-.47 3.06-2.4m-4.16-16.36c0-2.06-1.23-3.4-3.3-3.4-2.62 0-5.2 1.8-7.67 5.4-2.46 3.68-4.5 8.9-4.5 12.6 0 3.2 1.4 4.33 3.5 4.33 2.94 0 5.7-3.23 7.45-5.75 2.76-3.98 4.52-9.02 4.52-13.2M689.9 448.38l.92.6c-3.57 4.5-6.68 6.32-11.07 6.32-5.46 0-8.62-3.05-8.62-9.03 0-5.45 3.05-10.55 7.2-13.9 2.88-2.28 6.22-3.57 9.8-3.57 3.57 0 6.15 2 6.15 4.75 0 1.58-1.3 2.82-2.8 2.82-1.65 0-2.3-1.18-2.3-2.35 0-1.05.88-1.7.88-2.8 0-.72-.82-1.2-2.17-1.2-2.35 0-4.7 1.07-6.4 2.83-3.28 3.46-5.33 8.44-5.33 13.66 0 4.23 1.88 6.7 5.22 6.7 3.1 0 5.32-1.48 8.5-4.82M715.97 448.38l.94.6c-3.56 4.5-6.67 6.32-11.07 6.32-5.45 0-8.62-3.05-8.62-9.03 0-5.45 3.06-10.55 7.23-13.9 2.87-2.28 6.2-3.57 9.78-3.57 3.6 0 6.17 2 6.17 4.75 0 1.58-1.3 2.82-2.8 2.82-1.66 0-2.3-1.18-2.3-2.35 0-1.05.88-1.7.88-2.8 0-.72-.82-1.2-2.17-1.2-2.34 0-4.7 1.07-6.4 2.83-3.27 3.46-5.32 8.44-5.32 13.66 0 4.23 1.87 6.7 5.2 6.7 3.12 0 5.35-1.48 8.5-4.82M748.5 447.68l.83.53c-3.8 5.8-5.34 6.98-8.1 6.98-1.75 0-2.8-1-2.8-2.8 0-1.3.76-5.23 2.63-11.56-6.9 11.37-9.84 14.48-14 14.48-2.06 0-3.1-.94-3.1-3.1 0-1.12.5-3.23 1.57-7.5l2.05-8.16c.47-1.93.82-3.46.82-3.93 0-.4-.3-.87-.64-1.04-.53-.3-.7-.35-2.93-.35v-.8c3.34-.42 5.45-.83 8.8-1.6l.22.18-5.2 20.8c-.07.2-.2.7-.2.95 0 .88.3 1.46 1.18 1.46 2 0 4.7-3.1 8.33-8.62 2.75-4.17 3.57-6.4 6.45-14.25h4.34l-4.63 17.53c-.28 1.1-1.1 3.87-1.1 4.57 0 .65.23 1 .64 1 .94 0 1.88-.82 4.87-4.75M761.17 441.58l.94-2.05c1.12-2.46 3.12-5.57 5.52-8.1 1.52-1.57 3.28-2.63 4.63-2.63 1.64 0 2.76 1.23 2.76 3 0 1.75-1 3.16-2.75 3.16-1.05 0-1.52-.65-2.05-1.53-.35-.58-.53-.82-.94-.82-1.05 0-2.7 1.95-4.8 5.52-2.53 4.34-3.58 6.7-6.5 16.54h-4.47l4.74-17.12c.82-3.05.94-3.58.94-4.8 0-1.24-1.06-1.53-2.23-1.53-.47 0-.94.07-1.82.18v-1l9.1-1.58.17.12M802.15 448.15l.76.64c-4.4 5.33-5.8 6.44-8.14 6.44-1.64 0-2.34-.7-2.34-2.4 0-1.47.1-1.94 1.34-6.74-4.4 6.62-7.8 9.2-11.9 9.2-3.28 0-5.86-2.34-5.86-6.8 0-9.1 8.97-19.7 16.77-19.7 2.52 0 4.22 1.23 4.7 3.4l.63-2.8.18-.2 3.57-.4.4.18c-.1.53-.16.64-.34 1.23-2.74 10.03-5.2 20.12-5.2 21.3 0 .4.35.75.82.75.52 0 1.3-.47 3.04-2.4m-4.16-16.36c0-2.06-1.23-3.4-3.28-3.4-2.64 0-5.22 1.8-7.68 5.4-2.46 3.68-4.5 8.9-4.5 12.6 0 3.2 1.4 4.33 3.5 4.33 2.93 0 5.7-3.23 7.45-5.75 2.74-3.98 4.5-9.02 4.5-13.2M824.95 448.38l.94.6c-3.6 4.5-6.7 6.32-11.1 6.32-5.44 0-8.6-3.05-8.6-9.03 0-5.45 3.04-10.55 7.2-13.9 2.88-2.28 6.22-3.57 9.8-3.57 3.57 0 6.15 2 6.15 4.75 0 1.58-1.3 2.82-2.82 2.82-1.64 0-2.28-1.18-2.28-2.35 0-1.05.88-1.7.88-2.8 0-.72-.82-1.2-2.17-1.2-2.35 0-4.7 1.07-6.4 2.83-3.27 3.46-5.33 8.44-5.33 13.66 0 4.23 1.88 6.7 5.22 6.7 3.1 0 5.34-1.48 8.5-4.82M844.7 443.75l1.24 6.45c4.98-8.27 7.15-12.5 7.15-15.07 0-.82-.42-1.17-1.53-1.87-1.18-.76-1.53-1.35-1.53-2.3 0-1.28 1-2.16 2.35-2.16 1.74 0 3.03 1.47 3.03 3.23 0 3.34-2.8 9.8-7.67 17.88-6.1 10.1-12.37 16.83-15.72 16.83-1.75 0-3-1-3-2.52 0-1.28 1-2.33 2.3-2.33 2.05 0 2.05 1.64 3.58 1.64.76 0 1.46-.46 2.8-1.93 1.07-1.1 3.7-4.57 4.17-5.33.34-.7.58-1.4.58-2.05 0-2.36-3.23-15.5-4.8-19.48-1.12-2.87-2.18-3.75-4.52-3.75-.65 0-1.17.06-1.82.24v-1c.65-.1 1.3-.22 1.88-.34 1.17-.24 3.1-.6 6.27-1.06h.22c.88 0 4 9.73 5 14.95M910.13 435.9H875.6v-3.87h34.53v3.87m0 11.72H875.6v-3.87h34.53v3.87M936.27 441.76h69.24v-3.52h-69.23zM968.55 422.6c0 4.28-3.2 7.02-8.16 7.02-4.7 0-7.97-2.86-7.97-6.76 0-2.86.95-4.48 5.4-7.58-4.28-3.53-5.15-5.1-5.15-7.8 0-3.98 3.44-6.46 8.04-6.46 4.1 0 6.96 2.7 6.96 5.92 0 3.1-1.45 4.52-5.55 6.72 5.1 3.4 6.42 5.64 6.42 8.95m-3.73-15.66c0-2.86-1.7-4.76-4.5-4.76s-4.57 1.53-4.57 4.1c0 2.57 1.53 4.48 5.18 6.63 2.82-1.65 3.9-3.4 3.9-5.96m-3.5 10.82l-2.43-1.66c-2.45 2-3.32 3.7-3.32 6.4 0 3.8 2.1 5.96 5.26 5.96 2.7 0 4.56-1.87 4.56-4.56 0-2.57-1.24-4.23-4.06-6.14M990.57 415.36c0 7.13-2.62 14.26-9.37 14.26-7.1 0-9.37-7.7-9.37-14.5 0-7.35 2.86-14.1 9.53-14.1 5.43 0 9.2 5.84 9.2 14.34m-3.97.2c0-8.62-1.84-13.47-5.5-13.47-3.43 0-5.3 4.9-5.3 13.3s1.83 13.14 5.4 13.14c3.52 0 5.4-4.77 5.4-12.97M956.12 478.46h-11.44v-.63c3.07-.16 3.94-1.03 3.94-3.3V455.9c0-1.4-.37-2.03-1.24-2.03-.42 0-1.12.2-1.87.5l-1.1.42v-.6l7.4-3.77.4.13v24.75c0 1.8.8 2.53 3.92 2.53v.63M980.25 464.78c0 7.13-2.6 14.26-9.37 14.26-7.1 0-9.37-7.7-9.37-14.5 0-7.35 2.87-14.1 9.55-14.1 5.43 0 9.2 5.84 9.2 14.34m-3.98.2c0-8.62-1.83-13.47-5.47-13.47-3.44 0-5.3 4.9-5.3 13.32 0 8.4 1.8 13.14 5.38 13.14 3.52 0 5.4-4.77 5.4-12.98M1001.02 464.78c0 7.13-2.62 14.26-9.37 14.26-7.1 0-9.37-7.7-9.37-14.5 0-7.35 2.86-14.1 9.53-14.1 5.44 0 9.22 5.84 9.22 14.34m-3.98.2c0-8.62-1.83-13.47-5.48-13.47-3.44 0-5.3 4.9-5.3 13.32 0 8.4 1.82 13.14 5.4 13.14 3.5 0 5.38-4.77 5.38-12.98M1066.24 435.9h-34.53v-3.87h34.54v3.87m0 11.72h-34.53v-3.87h34.54v3.87M1113.25 435.3c0 10.1-3.7 20.18-13.25 20.18-10.02 0-13.24-10.9-13.24-20.52 0-10.38 4.04-19.93 13.48-19.93 7.68 0 13 8.26 13 20.28m-5.62.3c0-12.2-2.57-19.05-7.73-19.05-4.88 0-7.52 6.92-7.52 18.82s2.58 18.58 7.62 18.58c5 0 7.62-6.74 7.62-18.35M1125.27 452.13c0 1.7-1.52 3.17-3.28 3.17-1.83 0-3.24-1.4-3.24-3.22 0-1.82 1.47-3.3 3.3-3.3 1.7 0 3.2 1.6 3.2 3.35M1155.46 445.57c0 6.04-4.5 9.9-11.55 9.9-6.6 0-11.24-4.04-11.24-9.55 0-4.04 1.34-6.33 7.62-10.73-6.04-5-7.27-7.22-7.27-11.03 0-5.63 4.87-9.14 11.38-9.14 5.8 0 9.85 3.8 9.85 8.38 0 4.4-2.05 6.4-7.86 9.5 7.2 4.8 9.1 7.98 9.1 12.67m-5.3-22.16c0-4.03-2.4-6.73-6.38-6.73-3.93 0-6.45 2.17-6.45 5.8 0 3.64 2.16 6.33 7.32 9.38 4-2.34 5.5-4.8 5.5-8.44m-4.9 15.3l-3.47-2.33c-3.46 2.8-4.7 5.2-4.7 9.02 0 5.4 3 8.43 7.46 8.43 3.8 0 6.44-2.63 6.44-6.44 0-3.65-1.75-6-5.74-8.7M1186.6 435.3c0 10.1-3.7 20.18-13.26 20.18-10.02 0-13.25-10.9-13.25-20.52 0-10.38 4.04-19.93 13.47-19.93 7.68 0 13.02 8.26 13.02 20.28m-5.64.3c0-12.2-2.58-19.05-7.74-19.05-4.86 0-7.5 6.92-7.5 18.82s2.58 18.58 7.62 18.58c4.98 0 7.62-6.74 7.62-18.35"/><defs><path fill="#fff" d="M197 0v-115H63V0H30v-248h33v105h134v-105h34V0h-34" id="m"/><path fill="#fff" d="M100-194c63 0 86 42 84 106H49c0 40 14 67 53 68 26 1 43-12 49-29l28 8c-11 28-37 45-77 45C44 4 14-33 15-96c1-61 26-98 85-98zm52 81c6-60-76-77-97-28-3 7-6 17-6 28h103" id="n"/><path fill="#fff" d="M141-36C126-15 110 5 73 4 37 3 15-17 15-53c-1-64 63-63 125-63 3-35-9-54-41-54-24 1-41 7-42 31l-33-3c5-37 33-52 76-52 45 0 72 20 72 64v82c-1 20 7 32 28 27v20c-31 9-61-2-59-35zM48-53c0 20 12 33 32 33 41-3 63-29 60-74-43 2-92-5-92 41" id="o"/><path fill="#fff" d="M24 0v-261h32V0H24" id="p"/><path fill="#fff" d="M59-47c-2 24 18 29 38 22v24C64 9 27 4 27-40v-127H5v-23h24l9-43h21v43h35v23H59v120" id="q"/><path fill="#fff" d="M106-169C34-169 62-67 57 0H25v-261h32l-1 103c12-21 28-36 61-36 89 0 53 116 60 194h-32v-121c2-32-8-49-39-48" id="r"/><path fill="#fff" d="M179-190L93 31C79 59 56 82 12 73V49c39 6 53-20 64-50L1-190h34L92-34l54-156h33" id="s"/><g id="a"><use transform="matrix(0.05,0,0,0.05,0,0)" xlink:href="#m"/><use transform="matrix(0.05,0,0,0.05,12.950000000000001,0)" xlink:href="#n"/><use transform="matrix(0.05,0,0,0.05,22.950000000000003,0)" xlink:href="#o"/><use transform="matrix(0.05,0,0,0.05,32.95,0)" xlink:href="#p"/><use transform="matrix(0.05,0,0,0.05,36.900000000000006,0)" xlink:href="#q"/><use transform="matrix(0.05,0,0,0.05,41.900000000000006,0)" xlink:href="#r"/><use transform="matrix(0.05,0,0,0.05,51.900000000000006,0)" xlink:href="#s"/></g><path fill="#fff" d="M212-179c-10-28-35-45-73-45-59 0-87 40-87 99 0 60 29 101 89 101 43 0 62-24 78-52l27 14C228-24 195 4 139 4 59 4 22-46 18-125c-6-104 99-153 187-111 19 9 31 26 39 46" id="t"/><path fill="#fff" d="M100-194c62-1 85 37 85 99 1 63-27 99-86 99S16-35 15-95c0-66 28-99 85-99zM99-20c44 1 53-31 53-75 0-43-8-75-51-75s-53 32-53 75 10 74 51 75" id="u"/><path fill="#fff" d="M85-194c31 0 48 13 60 33l-1-100h32l1 261h-30c-2-10 0-23-3-31C134-8 116 4 85 4 32 4 16-35 15-94c0-66 23-100 70-100zm9 24c-40 0-46 34-46 75 0 40 6 74 45 74 42 0 51-32 51-76 0-42-9-74-50-73" id="v"/><g id="b"><use transform="matrix(0.05,0,0,0.05,0,0)" xlink:href="#t"/><use transform="matrix(0.05,0,0,0.05,12.950000000000001,0)" xlink:href="#u"/><use transform="matrix(0.05,0,0,0.05,22.950000000000003,0)" xlink:href="#p"/><use transform="matrix(0.05,0,0,0.05,26.900000000000002,0)" xlink:href="#v"/></g><path d="M30-248c87 1 191-15 191 75 0 78-77 80-158 76V0H30v-248zm33 125c57 0 124 11 124-50 0-59-68-47-124-48v98" id="w"/><path d="M114-163C36-179 61-72 57 0H25l-1-190h30c1 12-1 29 2 39 6-27 23-49 58-41v29" id="x"/><path d="M100-194c63 0 86 42 84 106H49c0 40 14 67 53 68 26 1 43-12 49-29l28 8c-11 28-37 45-77 45C44 4 14-33 15-96c1-61 26-98 85-98zm52 81c6-60-76-77-97-28-3 7-6 17-6 28h103" id="y"/><path d="M85-194c31 0 48 13 60 33l-1-100h32l1 261h-30c-2-10 0-23-3-31C134-8 116 4 85 4 32 4 16-35 15-94c0-66 23-100 70-100zm9 24c-40 0-46 34-46 75 0 40 6 74 45 74 42 0 51-32 51-76 0-42-9-74-50-73" id="z"/><path d="M24-231v-30h32v30H24zM24 0v-190h32V0H24" id="A"/><path d="M96-169c-40 0-48 33-48 73s9 75 48 75c24 0 41-14 43-38l32 2c-6 37-31 61-74 61-59 0-76-41-82-99-10-93 101-131 147-64 4 7 5 14 7 22l-32 3c-4-21-16-35-41-35" id="B"/><path d="M59-47c-2 24 18 29 38 22v24C64 9 27 4 27-40v-127H5v-23h24l9-43h21v43h35v23H59v120" id="C"/><g id="c"><use transform="matrix(0.07407407407407408,0,0,0.07407407407407408,0,0)" xlink:href="#w"/><use transform="matrix(0.07407407407407408,0,0,0.07407407407407408,17.77777777777778,0)" xlink:href="#x"/><use transform="matrix(0.07407407407407408,0,0,0.07407407407407408,26.592592592592595,0)" xlink:href="#y"/><use transform="matrix(0.07407407407407408,0,0,0.07407407407407408,41.40740740740741,0)" xlink:href="#z"/><use transform="matrix(0.07407407407407408,0,0,0.07407407407407408,56.22222222222223,0)" xlink:href="#A"/><use transform="matrix(0.07407407407407408,0,0,0.07407407407407408,62.07407407407408,0)" xlink:href="#B"/><use transform="matrix(0.07407407407407408,0,0,0.07407407407407408,75.40740740740742,0)" xlink:href="#C"/><use transform="matrix(0.07407407407407408,0,0,0.07407407407407408,82.81481481481482,0)" xlink:href="#y"/><use transform="matrix(0.07407407407407408,0,0,0.07407407407407408,97.62962962962965,0)" xlink:href="#z"/></g><path d="M30 0v-248h33v221h125V0H30" id="D"/><path d="M141-36C126-15 110 5 73 4 37 3 15-17 15-53c-1-64 63-63 125-63 3-35-9-54-41-54-24 1-41 7-42 31l-33-3c5-37 33-52 76-52 45 0 72 20 72 64v82c-1 20 7 32 28 27v20c-31 9-61-2-59-35zM48-53c0 20 12 33 32 33 41-3 63-29 60-74-43 2-92-5-92 41" id="E"/><path d="M115-194c53 0 69 39 70 98 0 66-23 100-70 100C84 3 66-7 56-30L54 0H23l1-261h32v101c10-23 28-34 59-34zm-8 174c40 0 45-34 45-75 0-40-5-75-45-74-42 0-51 32-51 76 0 43 10 73 51 73" id="F"/><path d="M24 0v-261h32V0H24" id="G"/><g id="d"><use transform="matrix(0.07407407407407408,0,0,0.07407407407407408,0,0)" xlink:href="#D"/><use transform="matrix(0.07407407407407408,0,0,0.07407407407407408,14.814814814814817,0)" xlink:href="#E"/><use transform="matrix(0.07407407407407408,0,0,0.07407407407407408,29.629629629629633,0)" xlink:href="#F"/><use transform="matrix(0.07407407407407408,0,0,0.07407407407407408,44.44444444444445,0)" xlink:href="#y"/><use transform="matrix(0.07407407407407408,0,0,0.07407407407407408,59.25925925925927,0)" xlink:href="#G"/></g><path d="M127-220V0H93v-220H8v-28h204v28h-85" id="H"/><path d="M84 4C-5 8 30-112 23-190h32v120c0 31 7 50 39 49 72-2 45-101 50-169h31l1 190h-30c-1-10 1-25-2-33-11 22-28 36-60 37" id="I"/><g id="e"><use transform="matrix(0.07407407407407408,0,0,0.07407407407407408,0,0)" xlink:href="#H"/><use transform="matrix(0.07407407407407408,0,0,0.07407407407407408,15.259259259259261,0)" xlink:href="#x"/><use transform="matrix(0.07407407407407408,0,0,0.07407407407407408,24.074074074074076,0)" xlink:href="#I"/><use transform="matrix(0.07407407407407408,0,0,0.07407407407407408,38.88888888888889,0)" xlink:href="#y"/></g><path fill="#fff" d="M63-220v92h138v28H63V0H30v-248h175v28H63" id="J"/><path fill="#fff" d="M84 4C-5 8 30-112 23-190h32v120c0 31 7 50 39 49 72-2 45-101 50-169h31l1 190h-30c-1-10 1-25-2-33-11 22-28 36-60 37" id="K"/><g id="f"><use transform="matrix(0.05,0,0,0.05,0,0)" xlink:href="#J"/><use transform="matrix(0.05,0,0,0.05,10.950000000000001,0)" xlink:href="#p"/><use transform="matrix(0.05,0,0,0.05,14.9,0)" xlink:href="#K"/></g><path d="M110-160c48 1 74 30 74 79 0 53-28 85-80 85-65 0-83-55-86-122-5-90 50-162 133-122 14 7 22 21 27 39l-31 6c-5-40-67-38-82-6-9 19-15 44-15 74 11-20 30-34 60-33zm-7 138c34 0 49-23 49-58s-16-56-50-56c-29 0-50 16-49 49 1 36 15 65 50 65" id="L"/><path d="M101-251c68 0 85 55 85 127S166 4 100 4C33 4 14-52 14-124c0-73 17-127 87-127zm-1 229c47 0 54-49 54-102s-4-102-53-102c-51 0-55 48-55 102 0 53 5 102 54 102" id="M"/><g id="g"><use transform="matrix(0.05,0,0,0.05,0,0)" xlink:href="#L"/><use transform="matrix(0.05,0,0,0.05,10,0)" xlink:href="#M"/></g><path d="M27 0v-27h64v-190l-56 39v-29l58-41h29v221h61V0H27" id="N"/><path d="M101-251c82-7 93 87 43 132L82-64C71-53 59-42 53-27h129V0H18c2-99 128-94 128-182 0-28-16-43-45-43s-46 15-49 41l-32-3c6-41 34-60 81-64" id="O"/><g id="h"><use transform="matrix(0.05,0,0,0.05,0,0)" xlink:href="#N"/><use transform="matrix(0.05,0,0,0.05,10,0)" xlink:href="#O"/></g><path d="M134-131c28 9 52 24 51 62-1 50-34 73-85 73S17-19 16-69c0-36 21-54 49-61-75-25-45-126 34-121 46 3 78 18 79 63 0 33-17 51-44 57zm-34-11c31 1 46-15 46-44 0-28-17-43-47-42-29 0-46 13-45 42 1 28 16 44 46 44zm1 122c35 0 51-18 51-52 0-30-18-46-53-46-33 0-51 17-51 47 0 34 19 51 53 51" id="P"/><use transform="matrix(0.05,0,0,0.05,0,0)" xlink:href="#P" id="i"/><use transform="matrix(0.05,0,0,0.05,0,0)" xlink:href="#O" id="j"/><path d="M155-56V0h-30v-56H8v-25l114-167h33v167h35v25h-35zm-30-156c-27 46-58 90-88 131h88v-131" id="Q"/><use transform="matrix(0.05,0,0,0.05,0,0)" xlink:href="#Q" id="k"/><use transform="matrix(0.05,0,0,0.05,0,0)" xlink:href="#M" id="l"/></defs></g></svg>