<svg xmlns="http://www.w3.org/2000/svg" xmlns:xlink="http://www.w3.org/1999/xlink" xmlns:lucid="lucid" width="1224.72" height="360"><g transform="translate(-140 -140)" lucid:page-tab-id="FwWKKgSsAQoQ"><path d="M240 320h160v80H240zM240 400h160v80H240z" stroke="#000" stroke-width="2" fill="#834187"/><path d="M337.16 355.72h-12.88v-12.88c0-1.56-1.28-2.84-2.84-2.84h-2.88c-1.56 0-2.84 1.28-2.84 2.84v12.88h-12.88c-1.56 0-2.84 1.28-2.84 2.84v2.88c0 1.56 1.28 2.84 2.84 2.84h12.88v12.88c0 1.56 1.28 2.84 2.84 2.84h2.88c1.56 0 2.84-1.28 2.84-2.84v-12.88h12.88c1.56 0 2.84-1.28 2.84-2.84v-2.88c0-1.56-1.28-2.84-2.84-2.84z" stroke="#000" stroke-width="2" fill="#0c7cba"/><path d="M337.16 440h-34.32c-1.56 0-2.84 1.28-2.84 2.85v2.87c0 1.57 1.28 2.85 2.84 2.85h34.32c1.56 0 2.84-1.28 2.84-2.85v-2.87c0-1.57-1.28-2.85-2.84-2.85z" stroke="#000" stroke-width="2" fill="#ef8d22"/><path d="M400 240h160v80H400z" stroke="#000" stroke-width="2" fill="#834187"/><path d="M497.16 275.72h-12.88v-12.88c0-1.56-1.28-2.84-2.84-2.84h-2.88c-1.56 0-2.84 1.28-2.84 2.84v12.88h-12.88c-1.56 0-2.84 1.28-2.84 2.84v2.88c0 1.56 1.28 2.84 2.84 2.84h12.88v12.88c0 1.56 1.28 2.84 2.84 2.84h2.88c1.56 0 2.84-1.28 2.84-2.84v-12.88h12.88c1.56 0 2.84-1.28 2.84-2.84v-2.88c0-1.56-1.28-2.84-2.84-2.84z" stroke="#000" stroke-width="2" fill="#0c7cba"/><path d="M560 240h160v80H560z" stroke="#000" stroke-width="2" fill="#834187"/><path d="M657.16 280h-34.32c-1.56 0-2.84 1.28-2.84 2.85v2.87c0 1.57 1.28 2.85 2.84 2.85h34.32c1.56 0 2.84-1.28 2.84-2.85v-2.87c0-1.57-1.28-2.85-2.84-2.85z" stroke="#000" stroke-width="2" fill="#ef8d22"/><path d="M400 320h160v80H400z" stroke="#000" stroke-width="2" fill="#d1bcd2"/><use xlink:href="#a" transform="matrix(1,0,0,1,405,325) translate(65 38.4625)"/><path d="M560 320h160v80H560z" stroke="#000" stroke-width="2" fill="#e5e5e5"/><use xlink:href="#b" transform="matrix(1,0,0,1,565,325) translate(65 38.4625)"/><path d="M560 400h160v80H560z" stroke="#000" stroke-width="2" fill="#d1bcd2"/><use xlink:href="#c" transform="matrix(1,0,0,1,565,405) translate(65 38.4625)"/><path d="M400 400h160v80H400z" stroke="#000" stroke-width="2" fill="#e5e5e5"/><use xlink:href="#d" transform="matrix(1,0,0,1,405,405) translate(70 38.4625)"/><path d="M400 160h320v80H400z" stroke="#000" stroke-opacity="0" stroke-width="2" fill="#fff" fill-opacity="0"/><use xlink:href="#e" transform="matrix(1,0,0,1,405,165) translate(62.518518518518505 41.020833333333336)"/><use xlink:href="#f" transform="matrix(1,0,0,1,405,165) translate(182.37037037037038 41.020833333333336)"/><path d="M160 480V320h80v160z" stroke="#000" stroke-opacity="0" stroke-width="2" fill="#fff" fill-opacity="0"/><use xlink:href="#g" transform="matrix(6.123233995736766e-17,-1,1,6.123233995736766e-17,165,475) translate(11.888888888888886 41.020833333333336)"/><use xlink:href="#f" transform="matrix(6.123233995736766e-17,-1,1,6.123233995736766e-17,165,475) translate(73 41.020833333333336)"/><path d="M800 320h544.72v80H800z" fill="#fff" fill-opacity="0"/><path d="M826.97 368.35l.76.64c-4.37 5.3-5.77 6.4-8.1 6.4-1.63 0-2.33-.7-2.33-2.4 0-1.45.12-1.92 1.34-6.7-4.37 6.6-7.75 9.15-11.82 9.15-3.27 0-5.83-2.33-5.83-6.76 0-9.04 8.9-19.58 16.65-19.58 2.5 0 4.2 1.22 4.66 3.38l.65-2.8.18-.17 3.55-.4.4.16c-.1.52-.16.64-.34 1.22-2.74 9.96-5.18 19.98-5.18 21.15 0 .4.35.75.8.75.54 0 1.3-.46 3.04-2.4m-4.14-16.24c0-2.04-1.22-3.38-3.26-3.38-2.62 0-5.18 1.8-7.63 5.36-2.45 3.67-4.5 8.86-4.5 12.53 0 3.2 1.4 4.3 3.5 4.3 2.92 0 5.66-3.2 7.4-5.7 2.75-3.97 4.5-8.98 4.5-13.12M849.58 368.58l.93.58c-3.54 4.5-6.63 6.3-11 6.3-5.42 0-8.56-3.04-8.56-8.98 0-5.42 3.03-10.5 7.16-13.8 2.86-2.28 6.18-3.56 9.73-3.56 3.55 0 6.12 1.98 6.12 4.72 0 1.57-1.28 2.8-2.8 2.8-1.63 0-2.27-1.17-2.27-2.34 0-1.04.87-1.68.87-2.8 0-.7-.8-1.16-2.15-1.16-2.33 0-4.66 1.05-6.35 2.8-3.26 3.44-5.3 8.4-5.3 13.57 0 4.2 1.86 6.66 5.18 6.66 3.1 0 5.3-1.46 8.45-4.78M875.5 368.58l.94.58c-3.56 4.5-6.65 6.3-11 6.3-5.43 0-8.58-3.04-8.58-8.98 0-5.42 3.03-10.5 7.17-13.8 2.85-2.28 6.17-3.56 9.73-3.56 3.55 0 6.1 1.98 6.1 4.72 0 1.57-1.27 2.8-2.78 2.8-1.63 0-2.27-1.17-2.27-2.34 0-1.04.88-1.68.88-2.8 0-.7-.82-1.16-2.16-1.16-2.33 0-4.66 1.05-6.35 2.8-3.26 3.44-5.3 8.4-5.3 13.57 0 4.2 1.87 6.66 5.2 6.66 3.07 0 5.3-1.46 8.43-4.78M907.84 367.88l.8.52c-3.77 5.77-5.3 6.94-8.03 6.94-1.73 0-2.78-1-2.78-2.8 0-1.28.75-5.2 2.62-11.48-6.88 11.3-9.8 14.4-13.92 14.4-2.04 0-3.1-.94-3.1-3.1 0-1.1.53-3.2 1.58-7.45l2.04-8.1c.47-1.9.82-3.43.82-3.9 0-.4-.3-.87-.65-1.04-.5-.3-.68-.35-2.9-.35v-.8c3.32-.42 5.42-.82 8.74-1.58l.23.17-5.18 20.68c-.07.17-.2.7-.2.93 0 .88.3 1.47 1.18 1.47 1.98 0 4.66-3.1 8.27-8.57 2.74-4.14 3.56-6.35 6.4-14.16h4.32l-4.6 17.42c-.3 1.1-1.1 3.85-1.1 4.55 0 .65.22 1 .63 1 .93 0 1.87-.82 4.84-4.72M920.42 361.82l.93-2.04c1.1-2.45 3.1-5.53 5.48-8.04 1.52-1.57 3.26-2.62 4.6-2.62 1.63 0 2.74 1.22 2.74 2.97 0 1.74-1 3.14-2.74 3.14-1.05 0-1.5-.64-2.04-1.52-.36-.58-.53-.8-.94-.8-1.05 0-2.68 1.9-4.78 5.46-2.5 4.3-3.55 6.64-6.46 16.43h-4.43l4.7-17c.82-3.03.94-3.55.94-4.78 0-1.22-1.05-1.5-2.2-1.5-.48 0-.94.05-1.82.16v-1l9.03-1.56.18.12M961.15 368.35l.75.64c-4.37 5.3-5.76 6.4-8.1 6.4-1.63 0-2.33-.7-2.33-2.4 0-1.45.12-1.92 1.34-6.7-4.36 6.6-7.73 9.15-11.8 9.15-3.27 0-5.84-2.33-5.84-6.76 0-9.04 8.92-19.58 16.66-19.58 2.5 0 4.2 1.22 4.66 3.38l.65-2.8.17-.17 3.55-.4.4.16c-.1.52-.16.64-.34 1.22-2.73 9.96-5.17 19.98-5.17 21.15 0 .4.35.75.8.75.54 0 1.3-.46 3.04-2.4m-4.13-16.24c0-2.04-1.23-3.38-3.27-3.38-2.62 0-5.18 1.8-7.63 5.36-2.45 3.67-4.48 8.86-4.48 12.53 0 3.2 1.4 4.3 3.5 4.3 2.9 0 5.64-3.2 7.4-5.7 2.73-3.97 4.48-8.98 4.48-13.12M983.8 368.58l.94.58c-3.55 4.5-6.64 6.3-11 6.3-5.43 0-8.57-3.04-8.57-8.98 0-5.42 3.02-10.5 7.16-13.8 2.86-2.28 6.18-3.56 9.73-3.56 3.55 0 6.12 1.98 6.12 4.72 0 1.57-1.28 2.8-2.8 2.8-1.63 0-2.27-1.17-2.27-2.34 0-1.04.88-1.68.88-2.8 0-.7-.8-1.16-2.15-1.16-2.33 0-4.66 1.05-6.35 2.8-3.27 3.44-5.3 8.4-5.3 13.57 0 4.2 1.86 6.66 5.18 6.66 3.1 0 5.3-1.46 8.45-4.78M1003.44 363.98l1.23 6.4c4.95-8.2 7.1-12.4 7.1-14.97 0-.8-.4-1.15-1.5-1.85-1.18-.76-1.53-1.34-1.53-2.27 0-1.3 1-2.16 2.33-2.16 1.75 0 3.03 1.46 3.03 3.2 0 3.32-2.8 9.73-7.63 17.77-6.06 10-12.3 16.7-15.6 16.7-1.76 0-2.98-.98-2.98-2.5 0-1.27.98-2.32 2.26-2.32 2.04 0 2.04 1.63 3.55 1.63.77 0 1.47-.46 2.8-1.9 1.06-1.12 3.68-4.56 4.15-5.3.34-.7.58-1.4.58-2.05 0-2.33-3.2-15.38-4.78-19.35-1.1-2.85-2.15-3.72-4.5-3.72-.63 0-1.15.05-1.8.23v-.98l1.87-.35c1.17-.23 3.1-.58 6.24-1.05h.23c.86 0 3.95 9.67 4.94 14.86M1068.46 356.17h-34.32v-3.85h34.32v3.85m0 11.65h-34.32v-3.84h34.32v3.84M1094.44 362h68.8v-3.5h-68.8zM1126.52 342.97c0 4.24-3.17 6.96-8.1 6.96-4.67 0-7.92-2.84-7.92-6.72 0-2.83.95-4.43 5.35-7.52-4.24-3.5-5.1-5.07-5.1-7.75 0-3.95 3.42-6.43 8-6.43 4.07 0 6.9 2.68 6.9 5.9 0 3.1-1.43 4.5-5.5 6.67 5.06 3.38 6.37 5.6 6.37 8.9m-3.7-15.57c0-2.85-1.7-4.74-4.5-4.74-2.75 0-4.53 1.52-4.53 4.08 0 2.55 1.52 4.45 5.14 6.6 2.8-1.66 3.88-3.4 3.88-5.94m-3.46 10.75l-2.43-1.65c-2.43 1.98-3.3 3.67-3.3 6.34 0 3.8 2.1 5.94 5.23 5.94 2.68 0 4.53-1.86 4.53-4.54 0-2.55-1.24-4.2-4.04-6.1M1146.83 321.3l-1.48 3.5c-.12.3-.45.54-1.1.54h-8l-1.65 3.5c5.9 1.1 7.95 2.02 10.3 5.27 1.07 1.5 1.44 3.06 1.44 5.24 0 3.96-1.24 6.5-4.04 8.57-1.93 1.4-4.2 2.03-7 2.03-3.1 0-5.23-1-5.23-2.55 0-1.03.7-1.57 1.85-1.57.95 0 1.73.22 3.05 1.3 1.15.93 2.1 1.3 2.92 1.3 2.88 0 5.56-3.4 5.56-6.96 0-2.63-.9-4.7-2.76-6.18-1.94-1.56-4.82-2.88-8.78-2.88-.37 0-.5-.08-.5-.33 0-.08.05-.2.05-.2l4.5-9.77h8.52c.93 0 1.3-.2 1.96-1.07M1114.17 398.47h-11.37v-.62c3.05-.17 3.9-1.03 3.9-3.3v-18.5c0-1.4-.36-2-1.22-2-.4 0-1.12.2-1.86.48l-1.1.4v-.56l7.37-3.75.36.12v24.6c0 1.77.82 2.5 3.9 2.5v.63M1138.15 384.87c0 7.1-2.6 14.17-9.3 14.17-7.06 0-9.33-7.66-9.33-14.42 0-7.3 2.85-14 9.48-14 5.4 0 9.15 5.8 9.15 14.25m-3.96.2c0-8.56-1.82-13.38-5.45-13.38-3.42 0-5.27 4.85-5.27 13.2 0 8.37 1.8 13.07 5.36 13.07 3.5 0 5.35-4.74 5.35-12.9M1158.78 384.87c0 7.1-2.6 14.17-9.3 14.17-7.05 0-9.32-7.66-9.32-14.42 0-7.3 2.85-14 9.48-14 5.4 0 9.14 5.8 9.14 14.25m-3.95.2c0-8.56-1.8-13.38-5.44-13.38-3.43 0-5.28 4.85-5.28 13.2 0 8.37 1.8 13.07 5.35 13.07 3.5 0 5.36-4.74 5.36-12.9M1223.6 356.17h-34.3v-3.85h34.3v3.85m0 11.65h-34.3v-3.84h34.3v3.84M1270.33 355.6c0 10-3.67 20.03-13.17 20.03-9.96 0-13.17-10.84-13.17-20.4 0-10.3 4-19.8 13.4-19.8 7.63 0 12.93 8.2 12.93 20.16m-5.6.28c0-12.12-2.56-18.94-7.7-18.94-4.82 0-7.44 6.88-7.44 18.7 0 11.83 2.55 18.47 7.56 18.47 4.95 0 7.58-6.7 7.58-18.22M1282.27 372.3c0 1.7-1.5 3.15-3.26 3.15-1.8 0-3.2-1.4-3.2-3.2 0-1.8 1.46-3.26 3.27-3.26 1.7 0 3.2 1.56 3.2 3.3M1312.27 365.78c0 6-4.48 9.85-11.47 9.85-6.6 0-11.2-4.02-11.2-9.5 0-4.02 1.35-6.3 7.6-10.66-6.02-4.95-7.24-7.17-7.24-10.95 0-5.6 4.84-9.1 11.3-9.1 5.77 0 9.8 3.8 9.8 8.34 0 4.37-2.05 6.35-7.82 9.44 7.17 4.78 9.03 7.92 9.03 12.58m-5.24-22.02c0-4.02-2.4-6.7-6.35-6.7-3.9 0-6.4 2.16-6.4 5.77 0 3.6 2.15 6.3 7.27 9.32 3.97-2.33 5.48-4.78 5.48-8.4m-4.9 15.22l-3.43-2.33c-3.44 2.8-4.66 5.18-4.66 8.97 0 5.37 2.97 8.4 7.4 8.4 3.8 0 6.4-2.63 6.4-6.4 0-3.62-1.74-5.95-5.7-8.63M1341 335.14l-2.1 4.95c-.18.4-.64.75-1.57.75h-11.3l-2.34 4.95c8.32 1.57 11.24 2.85 14.56 7.46 1.5 2.1 2.04 4.3 2.04 7.4 0 5.6-1.75 9.2-5.7 12.1-2.75 2-5.95 2.87-9.92 2.87-4.37 0-7.4-1.4-7.4-3.6 0-1.47 1-2.23 2.63-2.23 1.35 0 2.45.3 4.32 1.8 1.63 1.35 2.97 1.87 4.13 1.87 4.08 0 7.87-4.83 7.87-9.84 0-3.73-1.28-6.65-3.9-8.74-2.74-2.23-6.82-4.1-12.4-4.1-.54 0-.7-.1-.7-.46 0-.1.05-.3.05-.3l6.35-13.8h12.06c1.34 0 1.86-.3 2.8-1.5"/><defs><path d="M54-142c48-35 137-8 131 61C196 18 31 33 14-55l32-4c7 23 22 37 52 37 35-1 51-22 54-58 4-55-73-65-99-34H22l8-134h141v27H59" id="h"/><path d="M101-251c68 0 85 55 85 127S166 4 100 4C33 4 14-52 14-124c0-73 17-127 87-127zm-1 229c47 0 54-49 54-102s-4-102-53-102c-51 0-55 48-55 102 0 53 5 102 54 102" id="i"/><g id="a"><use transform="matrix(0.05,0,0,0.05,0,0)" xlink:href="#h"/><use transform="matrix(0.05,0,0,0.05,10,0)" xlink:href="#i"/></g><path d="M27 0v-27h64v-190l-56 39v-29l58-41h29v221h61V0H27" id="j"/><g id="b"><use transform="matrix(0.05,0,0,0.05,0,0)" xlink:href="#j"/><use transform="matrix(0.05,0,0,0.05,10,0)" xlink:href="#i"/></g><path d="M126-127c33 6 58 20 58 59 0 88-139 92-164 29-3-8-5-16-6-25l32-3c6 27 21 44 54 44 32 0 52-15 52-46 0-38-36-46-79-43v-28c39 1 72-4 72-42 0-27-17-43-46-43-28 0-47 15-49 41l-32-3c6-42 35-63 81-64 48-1 79 21 79 65 0 36-21 52-52 59" id="k"/><g id="c"><use transform="matrix(0.05,0,0,0.05,0,0)" xlink:href="#k"/><use transform="matrix(0.05,0,0,0.05,10,0)" xlink:href="#h"/></g><use transform="matrix(0.05,0,0,0.05,0,0)" xlink:href="#h" id="d"/><path d="M30-248c87 1 191-15 191 75 0 78-77 80-158 76V0H30v-248zm33 125c57 0 124 11 124-50 0-59-68-47-124-48v98" id="l"/><path d="M114-163C36-179 61-72 57 0H25l-1-190h30c1 12-1 29 2 39 6-27 23-49 58-41v29" id="m"/><path d="M100-194c63 0 86 42 84 106H49c0 40 14 67 53 68 26 1 43-12 49-29l28 8c-11 28-37 45-77 45C44 4 14-33 15-96c1-61 26-98 85-98zm52 81c6-60-76-77-97-28-3 7-6 17-6 28h103" id="n"/><path d="M85-194c31 0 48 13 60 33l-1-100h32l1 261h-30c-2-10 0-23-3-31C134-8 116 4 85 4 32 4 16-35 15-94c0-66 23-100 70-100zm9 24c-40 0-46 34-46 75 0 40 6 74 45 74 42 0 51-32 51-76 0-42-9-74-50-73" id="o"/><path d="M24-231v-30h32v30H24zM24 0v-190h32V0H24" id="p"/><path d="M96-169c-40 0-48 33-48 73s9 75 48 75c24 0 41-14 43-38l32 2c-6 37-31 61-74 61-59 0-76-41-82-99-10-93 101-131 147-64 4 7 5 14 7 22l-32 3c-4-21-16-35-41-35" id="q"/><path d="M59-47c-2 24 18 29 38 22v24C64 9 27 4 27-40v-127H5v-23h24l9-43h21v43h35v23H59v120" id="r"/><g id="e"><use transform="matrix(0.07407407407407408,0,0,0.07407407407407408,0,0)" xlink:href="#l"/><use transform="matrix(0.07407407407407408,0,0,0.07407407407407408,17.77777777777778,0)" xlink:href="#m"/><use transform="matrix(0.07407407407407408,0,0,0.07407407407407408,26.592592592592595,0)" xlink:href="#n"/><use transform="matrix(0.07407407407407408,0,0,0.07407407407407408,41.40740740740741,0)" xlink:href="#o"/><use transform="matrix(0.07407407407407408,0,0,0.07407407407407408,56.22222222222223,0)" xlink:href="#p"/><use transform="matrix(0.07407407407407408,0,0,0.07407407407407408,62.07407407407408,0)" xlink:href="#q"/><use transform="matrix(0.07407407407407408,0,0,0.07407407407407408,75.40740740740742,0)" xlink:href="#r"/><use transform="matrix(0.07407407407407408,0,0,0.07407407407407408,82.81481481481482,0)" xlink:href="#n"/><use transform="matrix(0.07407407407407408,0,0,0.07407407407407408,97.62962962962965,0)" xlink:href="#o"/></g><path d="M30 0v-248h33v221h125V0H30" id="s"/><path d="M141-36C126-15 110 5 73 4 37 3 15-17 15-53c-1-64 63-63 125-63 3-35-9-54-41-54-24 1-41 7-42 31l-33-3c5-37 33-52 76-52 45 0 72 20 72 64v82c-1 20 7 32 28 27v20c-31 9-61-2-59-35zM48-53c0 20 12 33 32 33 41-3 63-29 60-74-43 2-92-5-92 41" id="t"/><path d="M115-194c53 0 69 39 70 98 0 66-23 100-70 100C84 3 66-7 56-30L54 0H23l1-261h32v101c10-23 28-34 59-34zm-8 174c40 0 45-34 45-75 0-40-5-75-45-74-42 0-51 32-51 76 0 43 10 73 51 73" id="u"/><path d="M24 0v-261h32V0H24" id="v"/><g id="f"><use transform="matrix(0.07407407407407408,0,0,0.07407407407407408,0,0)" xlink:href="#s"/><use transform="matrix(0.07407407407407408,0,0,0.07407407407407408,14.814814814814817,0)" xlink:href="#t"/><use transform="matrix(0.07407407407407408,0,0,0.07407407407407408,29.629629629629633,0)" xlink:href="#u"/><use transform="matrix(0.07407407407407408,0,0,0.07407407407407408,44.44444444444445,0)" xlink:href="#n"/><use transform="matrix(0.07407407407407408,0,0,0.07407407407407408,59.25925925925927,0)" xlink:href="#v"/></g><path d="M127-220V0H93v-220H8v-28h204v28h-85" id="w"/><path d="M84 4C-5 8 30-112 23-190h32v120c0 31 7 50 39 49 72-2 45-101 50-169h31l1 190h-30c-1-10 1-25-2-33-11 22-28 36-60 37" id="x"/><g id="g"><use transform="matrix(0.07407407407407408,0,0,0.07407407407407408,0,0)" xlink:href="#w"/><use transform="matrix(0.07407407407407408,0,0,0.07407407407407408,15.259259259259261,0)" xlink:href="#m"/><use transform="matrix(0.07407407407407408,0,0,0.07407407407407408,24.074074074074076,0)" xlink:href="#x"/><use transform="matrix(0.07407407407407408,0,0,0.07407407407407408,38.88888888888889,0)" xlink:href="#n"/></g></defs></g></svg>