<svg xmlns="http://www.w3.org/2000/svg" xmlns:xlink="http://www.w3.org/1999/xlink" xmlns:lucid="lucid" width="440" height="605.33"><g transform="translate(-300 -140)" lucid:page-tab-id="cU6Il_dWKxJ6"><path d="M320 160h400v80H320z" stroke="#000" stroke-opacity="0" stroke-width="2" fill="#fff" fill-opacity="0"/><use xlink:href="#a" transform="matrix(1,0,0,1,325,165) translate(36.66666666666666 41.020833333333336)"/><use xlink:href="#b" transform="matrix(1,0,0,1,325,165) translate(115.03703703703704 41.020833333333336)"/><use xlink:href="#c" transform="matrix(1,0,0,1,325,165) translate(172.8148148148148 41.020833333333336)"/><use xlink:href="#d" transform="matrix(1,0,0,1,325,165) translate(242.37037037037038 41.020833333333336)"/><use xlink:href="#e" transform="matrix(1,0,0,1,325,165) translate(270.44444444444446 41.020833333333336)"/><path d="M540 240v44h20l-40 36-40-36h20v-44z" stroke="#000" stroke-width="2" fill="#834187"/><path d="M320 360h400v120H320z" stroke="#000" stroke-width="2"/><use xlink:href="#f" transform="matrix(1,0,0,1,325,365) translate(46.66049382716051 42.07638888888889)"/><use xlink:href="#g" transform="matrix(1,0,0,1,325,365) translate(193.31481481481484 42.07638888888889)"/><use xlink:href="#h" transform="matrix(1,0,0,1,325,365) translate(125.08641975308642 79.40972222222223)"/><path d="M397.68 687.8c1.52-2.5 2.32-5.13 2.32-8.3 0-7.33-6.24-14.33-14.32-14.33h-6.08c.8-2.13 1.52-4.6 1.52-7.68 0-12.2-6.32-17.5-15.92-17.5-10.24 0-9.68 15.8-11.92 18.1-3.84 3.83-8.32 11.08-11.52 13.9h-16.4c-2.96 0-5.36 2.4-5.36 5.38v39.93c0 3 2.4 5.4 5.36 5.4H336c2.48 0 4.56-1.72 5.2-4.02 7.36.17 12.48 6.65 29.6 6.65h3.68c12.88 0 18.72-6.57 18.88-15.87 2.16-3.07 3.36-7.17 2.88-11.18 1.6-3.07 2.24-6.74 1.44-10.5zm-10.24 8.95c2.08 3.5.16 8.27-2.32 9.64 1.28 8.1-2.96 10.9-8.88 10.9h-6.32c-11.92 0-19.68-6.3-28.56-6.3v-30.98h1.76c4.8 0 11.36-11.86 15.76-16.3 4.72-4.7 3.2-12.54 6.32-15.7 7.92 0 7.92 5.46 7.92 9.47 0 6.48-4.72 9.38-4.72 15.7h17.28c3.52 0 6.32 3.15 6.32 6.3 0 3.17-2.16 6.32-3.68 6.32 2.24 2.4 2.72 7.5-.88 10.93zm-52.8 15.27c0 2.22-1.76 4-4 4-2.16 0-4-1.78-4-4 0-2.22 1.84-4 4-4 2.24 0 4 1.78 4 4z" stroke="#000" stroke-opacity="0" stroke-width=".29" fill="#19967d"/><path d="M717.68 677.55c.8-3.76.16-7.43-1.44-10.5.48-4-.72-8.1-2.88-11.18-.16-9.3-6-15.87-18.88-15.87h-3.68c-17.28 0-22.64 6.66-29.44 6.66h-1.84c-.96-.86-2.16-1.28-3.52-1.28h-10.64c-2.96 0-5.36 2.3-5.36 5.3v40c0 2.9 2.4 5.3 5.36 5.3H656c2 0 3.68-1.03 4.64-2.65h1.12c3.2 2.82 7.68 10.07 11.52 13.9 2.24 2.32 1.68 18.1 11.92 18.1 9.6 0 15.92-5.3 15.92-17.5 0-3.06-.72-5.54-1.52-7.67h6.08c8.08 0 14.32-7 14.32-14.34 0-3.15-.8-5.8-2.32-8.27zm-67.04 11.77c-2.16 0-4-1.8-4-4 0-2.23 1.84-4.02 4-4.02 2.24 0 4 1.8 4 4 0 2.23-1.76 4.02-4 4.02zm55.04 2.82H688.4c0 6.3 4.72 9.2 4.72 15.7 0 4 0 9.47-7.92 9.47-3.12-3.15-1.6-11-6.32-15.7-4.4-4.43-10.96-16.3-15.76-16.3h-1.76v-30.96c8.88 0 16.64-6.32 28.56-6.32h6.32c5.92 0 10.16 2.82 8.88 10.92 2.48 1.37 4.4 6.15 2.32 9.65 3.6 3.4 3.12 8.52.88 10.9 1.52 0 3.68 3.17 3.68 6.32 0 3.16-2.8 6.32-6.32 6.32z" stroke="#000" stroke-opacity="0" stroke-width=".29" fill="#c92d39"/><g><path d="M442.43 545.86l-31.12 31.1 14.16 14.15-53.74-2.82-2.83-53.74 14.13 14.15 31.1-31.13z" stroke="#000" stroke-width="2" fill="#834187"/></g><g><path d="M625.86 517.57l31.1 31.12 14.15-14.16-2.82 53.74-53.74 2.83 14.15-14.13-31.13-31.1z" stroke="#000" stroke-width="2" fill="#834187"/></g><defs><path d="M30 0v-248h187v28H63v79h144v27H63v87h162V0H30" id="i"/><path d="M141-36C126-15 110 5 73 4 37 3 15-17 15-53c-1-64 63-63 125-63 3-35-9-54-41-54-24 1-41 7-42 31l-33-3c5-37 33-52 76-52 45 0 72 20 72 64v82c-1 20 7 32 28 27v20c-31 9-61-2-59-35zM48-53c0 20 12 33 32 33 41-3 63-29 60-74-43 2-92-5-92 41" id="j"/><path d="M135-143c-3-34-86-38-87 0 15 53 115 12 119 90S17 21 10-45l28-5c4 36 97 45 98 0-10-56-113-15-118-90-4-57 82-63 122-42 12 7 21 19 24 35" id="k"/><path d="M24-231v-30h32v30H24zM24 0v-190h32V0H24" id="l"/><path d="M24 0v-261h32V0H24" id="m"/><path d="M179-190L93 31C79 59 56 82 12 73V49c39 6 53-20 64-50L1-190h34L92-34l54-156h33" id="n"/><g id="a"><use transform="matrix(0.07407407407407408,0,0,0.07407407407407408,0,0)" xlink:href="#i"/><use transform="matrix(0.07407407407407408,0,0,0.07407407407407408,17.77777777777778,0)" xlink:href="#j"/><use transform="matrix(0.07407407407407408,0,0,0.07407407407407408,32.592592592592595,0)" xlink:href="#k"/><use transform="matrix(0.07407407407407408,0,0,0.07407407407407408,45.92592592592593,0)" xlink:href="#l"/><use transform="matrix(0.07407407407407408,0,0,0.07407407407407408,51.777777777777786,0)" xlink:href="#m"/><use transform="matrix(0.07407407407407408,0,0,0.07407407407407408,57.62962962962964,0)" xlink:href="#n"/></g><path d="M115-194c53 0 69 39 70 98 0 66-23 100-70 100C84 3 66-7 56-30L54 0H23l1-261h32v101c10-23 28-34 59-34zm-8 174c40 0 45-34 45-75 0-40-5-75-45-74-42 0-51 32-51 76 0 43 10 73 51 73" id="o"/><path d="M100-194c63 0 86 42 84 106H49c0 40 14 67 53 68 26 1 43-12 49-29l28 8c-11 28-37 45-77 45C44 4 14-33 15-96c1-61 26-98 85-98zm52 81c6-60-76-77-97-28-3 7-6 17-6 28h103" id="p"/><path d="M59-47c-2 24 18 29 38 22v24C64 9 27 4 27-40v-127H5v-23h24l9-43h21v43h35v23H59v120" id="q"/><g id="b"><use transform="matrix(0.07407407407407408,0,0,0.07407407407407408,0,0)" xlink:href="#o"/><use transform="matrix(0.07407407407407408,0,0,0.07407407407407408,14.814814814814817,0)" xlink:href="#p"/><use transform="matrix(0.07407407407407408,0,0,0.07407407407407408,29.629629629629633,0)" xlink:href="#k"/><use transform="matrix(0.07407407407407408,0,0,0.07407407407407408,42.96296296296297,0)" xlink:href="#q"/></g><path d="M84 4C-5 8 30-112 23-190h32v120c0 31 7 50 39 49 72-2 45-101 50-169h31l1 190h-30c-1-10 1-25-2-33-11 22-28 36-60 37" id="r"/><path d="M106-169C34-169 62-67 57 0H25v-261h32l-1 103c12-21 28-36 61-36 89 0 53 116 60 194h-32v-121c2-32-8-49-39-48" id="s"/><g id="c"><use transform="matrix(0.07407407407407408,0,0,0.07407407407407408,0,0)" xlink:href="#k"/><use transform="matrix(0.07407407407407408,0,0,0.07407407407407408,13.333333333333336,0)" xlink:href="#r"/><use transform="matrix(0.07407407407407408,0,0,0.07407407407407408,28.148148148148152,0)" xlink:href="#k"/><use transform="matrix(0.07407407407407408,0,0,0.07407407407407408,41.48148148148149,0)" xlink:href="#s"/><use transform="matrix(0.07407407407407408,0,0,0.07407407407407408,56.296296296296305,0)" xlink:href="#l"/></g><path d="M117-194c89-4 53 116 60 194h-32v-121c0-31-8-49-39-48C34-167 62-67 57 0H25l-1-190h30c1 10-1 24 2 32 11-22 29-35 61-36" id="t"/><g id="d"><use transform="matrix(0.07407407407407408,0,0,0.07407407407407408,0,0)" xlink:href="#l"/><use transform="matrix(0.07407407407407408,0,0,0.07407407407407408,5.851851851851853,0)" xlink:href="#t"/></g><path d="M185-189c-5-48-123-54-124 2 14 75 158 14 163 119 3 78-121 87-175 55-17-10-28-26-33-46l33-7c5 56 141 63 141-1 0-78-155-14-162-118-5-82 145-84 179-34 5 7 8 16 11 25" id="u"/><g id="e"><use transform="matrix(0.07407407407407408,0,0,0.07407407407407408,0,0)" xlink:href="#u"/><use transform="matrix(0.07407407407407408,0,0,0.07407407407407408,17.77777777777778,0)" xlink:href="#p"/><use transform="matrix(0.07407407407407408,0,0,0.07407407407407408,32.592592592592595,0)" xlink:href="#j"/><use transform="matrix(0.07407407407407408,0,0,0.07407407407407408,47.40740740740741,0)" xlink:href="#q"/><use transform="matrix(0.07407407407407408,0,0,0.07407407407407408,54.814814814814824,0)" xlink:href="#q"/><use transform="matrix(0.07407407407407408,0,0,0.07407407407407408,62.22222222222223,0)" xlink:href="#m"/><use transform="matrix(0.07407407407407408,0,0,0.07407407407407408,68.07407407407408,0)" xlink:href="#p"/></g><path fill="#fff" d="M169-182c-1-43-94-46-97-3 18 66 151 10 154 114 3 95-165 93-204 36-6-8-10-19-12-30l50-8c3 46 112 56 116 5-17-69-150-10-154-114-4-87 153-88 188-35 5 8 8 18 10 28" id="v"/><path fill="#fff" d="M185-48c-13 30-37 53-82 52C43 2 14-33 14-96s30-98 90-98c62 0 83 45 84 108H66c0 31 8 55 39 56 18 0 30-7 34-22zm-45-69c5-46-57-63-70-21-2 6-4 13-4 21h74" id="w"/><path fill="#fff" d="M135-194c87-1 58 113 63 194h-50c-7-57 23-157-34-157-59 0-34 97-39 157H25l-1-190h47c2 12-1 28 3 38 12-26 28-41 61-42" id="x"/><path fill="#fff" d="M115-3C79 11 28 4 28-45v-112H4v-33h27l15-45h31v45h36v33H77v99c-1 23 16 31 38 25v30" id="y"/><path fill="#fff" d="M190-63c-7 42-38 67-86 67-59 0-84-38-90-98-12-110 154-137 174-36l-49 2c-2-19-15-32-35-32-30 0-35 28-38 64-6 74 65 87 74 30" id="z"/><g id="f"><use transform="matrix(0.08641975308641976,0,0,0.08641975308641976,0,0)" xlink:href="#v"/><use transform="matrix(0.08641975308641976,0,0,0.08641975308641976,20.740740740740744,0)" xlink:href="#w"/><use transform="matrix(0.08641975308641976,0,0,0.08641975308641976,38.0246913580247,0)" xlink:href="#x"/><use transform="matrix(0.08641975308641976,0,0,0.08641975308641976,56.95061728395062,0)" xlink:href="#y"/><use transform="matrix(0.08641975308641976,0,0,0.08641975308641976,67.23456790123457,0)" xlink:href="#w"/><use transform="matrix(0.08641975308641976,0,0,0.08641975308641976,84.51851851851852,0)" xlink:href="#x"/><use transform="matrix(0.08641975308641976,0,0,0.08641975308641976,103.44444444444443,0)" xlink:href="#z"/><use transform="matrix(0.08641975308641976,0,0,0.08641975308641976,120.72839506172839,0)" xlink:href="#w"/></g><path fill="#fff" d="M25-224v-37h50v37H25zM25 0v-190h50V0H25" id="A"/><path fill="#fff" d="M220-157c-53 9-28 100-34 157h-49v-107c1-27-5-49-29-50C55-147 81-57 75 0H25l-1-190h47c2 12-1 28 3 38 10-53 101-56 108 0 13-22 24-43 59-42 82 1 51 116 57 194h-49v-107c-1-25-5-48-29-50" id="B"/><g id="g"><use transform="matrix(0.08641975308641976,0,0,0.08641975308641976,0,0)" xlink:href="#v"/><use transform="matrix(0.08641975308641976,0,0,0.08641975308641976,20.740740740740744,0)" xlink:href="#w"/><use transform="matrix(0.08641975308641976,0,0,0.08641975308641976,38.0246913580247,0)" xlink:href="#x"/><use transform="matrix(0.08641975308641976,0,0,0.08641975308641976,56.95061728395062,0)" xlink:href="#y"/><use transform="matrix(0.08641975308641976,0,0,0.08641975308641976,67.23456790123457,0)" xlink:href="#A"/><use transform="matrix(0.08641975308641976,0,0,0.08641975308641976,75.87654320987654,0)" xlink:href="#B"/><use transform="matrix(0.08641975308641976,0,0,0.08641975308641976,103.53086419753086,0)" xlink:href="#w"/><use transform="matrix(0.08641975308641976,0,0,0.08641975308641976,120.81481481481481,0)" xlink:href="#x"/><use transform="matrix(0.08641975308641976,0,0,0.08641975308641976,139.74074074074073,0)" xlink:href="#y"/></g><path fill="#fff" d="M67-125c0 53 21 87 73 88 37 1 54-22 65-47l45 17C233-25 199 4 140 4 58 4 20-42 15-125 8-235 124-281 211-232c18 10 29 29 36 50l-46 12c-8-25-30-41-62-41-52 0-71 34-72 86" id="C"/><path fill="#fff" d="M25 0v-261h50V0H25" id="D"/><path fill="#fff" d="M133-34C117-15 103 5 69 4 32 3 11-16 11-54c-1-60 55-63 116-61 1-26-3-47-28-47-18 1-26 9-28 27l-52-2c7-38 36-58 82-57s74 22 75 68l1 82c-1 14 12 18 25 15v27c-30 8-71 5-69-32zm-48 3c29 0 43-24 42-57-32 0-66-3-65 30 0 17 8 27 23 27" id="E"/><path fill="#fff" d="M137-138c1-29-70-34-71-4 15 46 118 7 119 86 1 83-164 76-172 9l43-7c4 19 20 25 44 25 33 8 57-30 24-41C81-84 22-81 20-136c-2-80 154-74 161-7" id="F"/><path fill="#fff" d="M121-226c-27-7-43 5-38 36h38v33H83V0H34v-157H6v-33h28c-9-59 32-81 87-68v32" id="G"/><path fill="#fff" d="M135-150c-39-12-60 13-60 57V0H25l-1-190h47c2 13-1 29 3 40 6-28 27-53 61-41v41" id="H"/><g id="h"><use transform="matrix(0.08641975308641976,0,0,0.08641975308641976,0,0)" xlink:href="#C"/><use transform="matrix(0.08641975308641976,0,0,0.08641975308641976,22.38271604938272,0)" xlink:href="#D"/><use transform="matrix(0.08641975308641976,0,0,0.08641975308641976,31.024691358024693,0)" xlink:href="#E"/><use transform="matrix(0.08641975308641976,0,0,0.08641975308641976,48.308641975308646,0)" xlink:href="#F"/><use transform="matrix(0.08641975308641976,0,0,0.08641975308641976,65.5925925925926,0)" xlink:href="#F"/><use transform="matrix(0.08641975308641976,0,0,0.08641975308641976,82.87654320987654,0)" xlink:href="#A"/><use transform="matrix(0.08641975308641976,0,0,0.08641975308641976,91.51851851851853,0)" xlink:href="#G"/><use transform="matrix(0.08641975308641976,0,0,0.08641975308641976,101.80246913580245,0)" xlink:href="#A"/><use transform="matrix(0.08641975308641976,0,0,0.08641975308641976,110.44444444444444,0)" xlink:href="#w"/><use transform="matrix(0.08641975308641976,0,0,0.08641975308641976,127.72839506172839,0)" xlink:href="#H"/></g></defs></g></svg>