<svg xmlns="http://www.w3.org/2000/svg" xmlns:xlink="http://www.w3.org/1999/xlink" xmlns:lucid="lucid" width="1011" height="760"><g transform="translate(-140 -140)" lucid:page-tab-id="wpOLPpe8B8n0"><path d="M320 384c0 8.84-35.82 16-80 16s-80-7.16-80-16V256c0-8.84 35.82-16 80-16s80 7.16 80 16z" stroke="#000" stroke-width="2" fill="#834187"/><path d="M320 256c0 8.84-35.82 16-80 16s-80-7.16-80-16" stroke="#000" stroke-width="2" fill="none"/><use xlink:href="#a" transform="matrix(1,0,0,1,165,277) translate(31.913580246913583 50.96527777777778)"/><use xlink:href="#b" transform="matrix(1,0,0,1,165,277) translate(50.98765432098766 77.63194444444446)"/><path d="M400 280h160v80H400z" stroke="#000" stroke-width="2" fill="#3aa6dd"/><use xlink:href="#c" transform="matrix(1,0,0,1,405,285) translate(34.96913580246913 26.52777777777778)"/><use xlink:href="#d" transform="matrix(1,0,0,1,405,285) translate(20.80246913580247 53.19444444444445)"/><path d="M640 240h160v160H640z" stroke="#000" stroke-width="2" fill="#7ab648"/><use xlink:href="#e" transform="matrix(1,0,0,1,645,245) translate(30.648148148148145 50.59027777777778)"/><use xlink:href="#f" transform="matrix(1,0,0,1,645,245) translate(28.20987654320988 77.25694444444446)"/><use xlink:href="#g" transform="matrix(1,0,0,1,645,245) translate(42.99382716049383 103.92361111111111)"/><path d="M322 320h58.5" stroke="#000" stroke-width="2" fill="none"/><path d="M322.03 321H321v-2h1.03z"/><path d="M395.76 320l-14.26 4.64v-9.28z" stroke="#000" stroke-width="2"/><path d="M562 320h58.5" stroke="#000" stroke-width="2" fill="none"/><path d="M562.03 321H561v-2h1.03z"/><path d="M635.76 320l-14.26 4.64v-9.28z" stroke="#000" stroke-width="2"/><path d="M802 320h299.5" stroke="#000" stroke-width="2" fill="none"/><path d="M802.03 321H801v-2h1.03z"/><path d="M1116.76 320l-14.26 4.64v-9.28z" stroke="#000" stroke-width="2"/><path d="M840 260h19.84v40H840z" fill="#fff" fill-opacity="0"/><path d="M851.3 282.66l.9 4.66c3.6-5.97 5.16-9.02 5.16-10.9 0-.58-.3-.84-1.1-1.35-.85-.55-1.1-.97-1.1-1.65 0-.93.7-1.57 1.7-1.57 1.26 0 2.2 1.06 2.2 2.33 0 2.42-2.04 7.08-5.56 12.93-4.4 7.3-8.94 12.18-11.36 12.18-1.27 0-2.16-.72-2.16-1.82 0-.94.72-1.7 1.65-1.7 1.5 0 1.5 1.2 2.6 1.2.54 0 1.05-.35 2.02-1.4.77-.82 2.67-3.32 3-3.87.27-.52.44-1.03.44-1.5 0-1.7-2.35-11.18-3.5-14.07-.8-2.07-1.56-2.7-3.25-2.7-.47 0-.85.03-1.32.16v-.73l1.36-.25c.84-.17 2.23-.43 4.52-.77h.17c.63 0 2.88 7.04 3.6 10.8M855.37 267.83h-1.45l-5.17-4.37-5.13 4.37h-1.44l5.26-7.08h2.63"/><path d="M160 160h240v60H160z" stroke="#000" stroke-opacity="0" stroke-width="2" fill="#fff" fill-opacity="0"/><use xlink:href="#h" transform="matrix(1,0,0,1,165,165) translate(18.625 30.025)"/><use xlink:href="#i" transform="matrix(1,0,0,1,165,165) translate(52.625 30.025)"/><use xlink:href="#j" transform="matrix(1,0,0,1,165,165) translate(72.625 30.025)"/><use xlink:href="#k" transform="matrix(1,0,0,1,165,165) translate(133.475 30.025)"/><path d="M560 160h120v60H560z" stroke="#000" stroke-opacity="0" stroke-width="2" fill="#fff" fill-opacity="0"/><use xlink:href="#l" transform="matrix(1,0,0,1,565,165) translate(6.549999999999997 30.025)"/><use xlink:href="#m" transform="matrix(1,0,0,1,565,165) translate(50.45 30.025)"/><path d="M720 160h120v60H720z" stroke="#000" stroke-opacity="0" stroke-width="2" fill="#fff" fill-opacity="0"/><use xlink:href="#n" transform="matrix(1,0,0,1,725,165) translate(13.075000000000003 30.025)"/><path d="M760 201v19.5M760 201.03V200" stroke="#000" stroke-width="2" fill="none"/><path d="M760 235.76l-4.64-14.26h9.28z" stroke="#000" stroke-width="2"/><path d="M880 240h120v80H880z" stroke="#000" stroke-opacity="0" stroke-width="2" fill="#fff" fill-opacity="0"/><use xlink:href="#o" transform="matrix(1,0,0,1,885,245) translate(18.049999999999997 27.7125)"/><use xlink:href="#k" transform="matrix(1,0,0,1,885,245) translate(16.049999999999997 49.3125)"/><path d="M720 439v-20.5M720 438.97V440" stroke="#000" stroke-width="2" fill="none"/><path d="M720 403.24l4.64 14.26h-9.28z" stroke="#000" stroke-width="2"/><path d="M700 460h28.3v32.03H700z" fill="#fff" fill-opacity="0"/><path d="M717.08 472.5l1.36 14.9c5.55-6.94 7-9.2 7-11 0-.52-.26-.86-.94-1.5-.68-.63-.9-1.14-.9-1.73 0-.68.73-1.32 1.66-1.32 1.28 0 2.2 1.02 2.2 2.38 0 2.7-3.13 7.67-8.98 14.8l-.38.46c-1.14 1.4-1.53 1.8-1.9 1.8-.3 0-.4-.37-.47-1.47l-1.23-13.14-3.78 6.43c-.76 1.27-1.52 2.67-2.33 4.2-1.53 2.92-2.25 3.98-2.72 3.98-.38 0-.47-.33-.55-1.98l-.17-3.86c-.17-3.7-.64-8.22-1.15-10.26-.37-1.57-.75-1.78-1.98-1.78h-1.18v-.55c1.3-.2 2.75-.38 4.02-.72.55-.13.94-.3 1.23-.3.46 0 .5.1.8 1.44.6 2.88 1.18 8.18 1.35 11.9l8.14-12.88c.2-.34.33-.42.54-.42.26 0 .34.12.34.6M719.12 467.83h-1.44l-5.18-4.37-5.12 4.37h-1.45l5.26-7.08h2.62"/><path d="M740 420h240v80H740z" stroke="#000" stroke-opacity="0" stroke-width="2" fill="#fff" fill-opacity="0"/><use xlink:href="#p" transform="matrix(1,0,0,1,745,425) translate(27.624999999999986 38.80625)"/><use xlink:href="#q" transform="matrix(1,0,0,1,745,425) translate(93.52499999999999 38.80625)"/><use xlink:href="#r" transform="matrix(1,0,0,1,745,425) translate(119.475 38.80625)"/><use xlink:href="#s" transform="matrix(1,0,0,1,745,425) translate(163.47500000000002 38.80625)"/><path d="M240 402v398h380.5" stroke="#000" stroke-width="2" fill="none"/><path d="M240 401h1v1.03h-2v-1.06z"/><path d="M635.76 800l-14.26 4.64v-9.28z" stroke="#000" stroke-width="2"/><path d="M640 720h160v160H640z" stroke="#000" stroke-width="2" fill="#ef8d22"/><use xlink:href="#t" transform="matrix(1,0,0,1,645,725) translate(37.407407407407405 64.65277777777777)"/><use xlink:href="#u" transform="matrix(1,0,0,1,645,725) translate(42.34567901234568 91.31944444444446)"/><path d="M600 560h240v80H600z" stroke="#000" stroke-width="2" fill="#3aa6dd"/><use xlink:href="#v" transform="matrix(1,0,0,1,605,565) translate(20.771604938271608 26.52777777777778)"/><use xlink:href="#f" transform="matrix(1,0,0,1,605,565) translate(115.64814814814815 26.52777777777778)"/><use xlink:href="#w" transform="matrix(1,0,0,1,605,565) translate(62.68518518518518 53.19444444444445)"/><path d="M720 558v-39.5" stroke="#000" stroke-width="2" fill="none"/><path d="M721 559h-2v-1.03h2z"/><path d="M720 503.24l4.64 14.26h-9.28z" stroke="#000" stroke-width="2"/><path d="M720 718v-58.5" stroke="#000" stroke-width="2" fill="none"/><path d="M721 719h-2v-1.03h2z"/><path d="M720 644.24l4.64 14.26h-9.28z" stroke="#000" stroke-width="2"/><path d="M740 640h220v80H740z" stroke="#000" stroke-opacity="0" stroke-width="2" fill="#fff" fill-opacity="0"/><use xlink:href="#x" transform="matrix(1,0,0,1,745,645) translate(15.625 38.80625)"/><use xlink:href="#y" transform="matrix(1,0,0,1,745,645) translate(122.42500000000001 38.80625)"/><path d="M1040 321v479H819.5M1040 321.03V320" stroke="#000" stroke-width="2" fill="none"/><path d="M804.24 800l14.26-4.64v9.28z" stroke="#000" stroke-width="2"/><path d="M588.05 268h23.9v24h-23.9z" fill="#fff" fill-opacity="0"/><path d="M611.93 268.6v.55c-1.5.5-2.62 1.3-4.37 3.32l-5.9 6.78 3.53 8.9c.83 2.1 1.28 2.42 3.66 2.7v.56h-9.47v-.55c2.08-.04 2.68-.46 2.68-1.3 0-.45-.2-1.08-.5-1.78l-2.33-5.76-5.28 6.02c-.48.56-.8 1.18-.8 1.67 0 .76.63 1.15 2.3 1.15v.56h-7.43v-.55c1.95-.35 2.9-1.4 7.68-7l2.9-3.38-3.6-8.9c-.66-1.68-1.3-2.24-3.32-2.42v-.56h9.2v.55c-1.93.25-2.5.56-2.5 1.44 0 .44.2 1 .57 1.94l2.06 5.14 5.07-5.84c.48-.56.73-1.08.73-1.5 0-.66-.63-1.12-2.13-1.2v-.55h7.23"/><path d="M260 420h16.5v24H260z" fill="#fff" fill-opacity="0"/><path d="M269.4 429.6l.73 3.86c3-4.97 4.3-7.5 4.3-9.05 0-.5-.25-.7-.92-1.12-.7-.46-.9-.8-.9-1.38 0-.77.6-1.3 1.4-1.3 1.06 0 1.84.88 1.84 1.94 0 2-1.7 5.88-4.62 10.75-3.66 6.05-7.43 10.1-9.44 10.1-1.06 0-1.8-.6-1.8-1.52 0-.77.6-1.4 1.38-1.4 1.23 0 1.23.98 2.15.98.46 0 .9-.28 1.7-1.16.63-.67 2.22-2.75 2.5-3.2.2-.43.35-.85.35-1.24 0-1.4-1.94-9.3-2.9-11.7-.66-1.73-1.3-2.26-2.7-2.26-.4 0-.7.04-1.1.14v-.6c.4-.06.78-.14 1.13-.2.7-.15 1.87-.36 3.78-.64h.14c.52 0 2.4 5.85 3 9"/><path d="M280 420h160v40H280z" stroke="#000" stroke-opacity="0" stroke-width="2" fill="#fff" fill-opacity="0"/><g><use xlink:href="#z" transform="matrix(1,0,0,1,285,425) translate(14.599999999999994 18.15)"/><use xlink:href="#A" transform="matrix(1,0,0,1,285,425) translate(97.5 18.15)"/></g><path d="M680.77 539.44l-6.27-4.23-5.95-5.72-4.4-6.02-2.66-5.34-1.2-3.98-.3-2.67v-.27l.37-7.24.85-3.5 1.4-3.33 2.26-3.55 2.1-2.37M680.75 539.43l.85.57" stroke="#000" stroke-width="2" fill="none"/><path d="M679.03 481.97l-8.5 12.36-5.64-7.36z" stroke="#000" stroke-width="2"/><path d="M820 740h19.84v40H820z" fill="#fff" fill-opacity="0"/><path d="M831.3 762.66l.9 4.66c3.6-5.97 5.16-9.02 5.16-10.9 0-.58-.3-.84-1.1-1.35-.85-.55-1.1-.97-1.1-1.65 0-.93.7-1.57 1.7-1.57 1.26 0 2.2 1.06 2.2 2.33 0 2.42-2.04 7.08-5.56 12.93-4.4 7.3-8.94 12.18-11.36 12.18-1.27 0-2.16-.72-2.16-1.82 0-.94.72-1.7 1.65-1.7 1.5 0 1.5 1.2 2.6 1.2.54 0 1.05-.35 2.02-1.4.77-.82 2.67-3.32 3-3.87.27-.52.44-1.03.44-1.5 0-1.7-2.35-11.18-3.5-14.07-.8-2.07-1.56-2.7-3.25-2.7-.47 0-.85.03-1.32.16v-.73l1.36-.25c.84-.17 2.23-.43 4.52-.77h.17c.63 0 2.88 7.04 3.6 10.8M835.37 747.83h-1.45l-5.17-4.37-5.13 4.37h-1.44l5.26-7.08h2.63"/><path d="M600 745.57h19.84v28.86H600z" fill="#fff" fill-opacity="0"/><path d="M611.3 757.1l.9 4.66c3.6-5.98 5.16-9.03 5.16-10.9 0-.6-.3-.84-1.1-1.35-.85-.54-1.1-.97-1.1-1.64 0-.94.7-1.57 1.7-1.57 1.26 0 2.2 1.05 2.2 2.32 0 2.4-2.04 7.08-5.56 12.93-4.4 7.3-8.94 12.16-11.36 12.16-1.27 0-2.16-.7-2.16-1.8 0-.94.72-1.7 1.65-1.7 1.5 0 1.5 1.18 2.6 1.18.54 0 1.05-.34 2.02-1.4.77-.8 2.67-3.3 3-3.85.27-.5.44-1.02.44-1.5 0-1.68-2.35-11.18-3.5-14.06-.8-2.08-1.56-2.7-3.25-2.7-.47 0-.85.03-1.32.16v-.73c.47-.08.93-.16 1.36-.25.84-.17 2.23-.42 4.52-.76h.17c.63 0 2.88 7.02 3.6 10.8"/><defs><path fill="#fff" d="M136-208V0H84v-208H4v-40h212v40h-80" id="B"/><path fill="#fff" d="M135-150c-39-12-60 13-60 57V0H25l-1-190h47c2 13-1 29 3 40 6-28 27-53 61-41v41" id="C"/><path fill="#fff" d="M133-34C117-15 103 5 69 4 32 3 11-16 11-54c-1-60 55-63 116-61 1-26-3-47-28-47-18 1-26 9-28 27l-52-2c7-38 36-58 82-57s74 22 75 68l1 82c-1 14 12 18 25 15v27c-30 8-71 5-69-32zm-48 3c29 0 43-24 42-57-32 0-66-3-65 30 0 17 8 27 23 27" id="D"/><path fill="#fff" d="M25-224v-37h50v37H25zM25 0v-190h50V0H25" id="E"/><path fill="#fff" d="M135-194c87-1 58 113 63 194h-50c-7-57 23-157-34-157-59 0-34 97-39 157H25l-1-190h47c2 12-1 28 3 38 12-26 28-41 61-42" id="F"/><path fill="#fff" d="M195-6C206 82 75 100 31 46c-4-6-6-13-8-21l49-6c3 16 16 24 34 25 40 0 42-37 40-79-11 22-30 35-61 35-53 0-70-43-70-97 0-56 18-96 73-97 30 0 46 14 59 34l2-30h47zm-90-29c32 0 41-27 41-63 0-35-9-62-40-62-32 0-39 29-40 63 0 36 9 62 39 62" id="G"/><g id="a"><use transform="matrix(0.06172839506172839,0,0,0.06172839506172839,0,0)" xlink:href="#B"/><use transform="matrix(0.06172839506172839,0,0,0.06172839506172839,12.28395061728395,0)" xlink:href="#C"/><use transform="matrix(0.06172839506172839,0,0,0.06172839506172839,20.925925925925924,0)" xlink:href="#D"/><use transform="matrix(0.06172839506172839,0,0,0.06172839506172839,33.2716049382716,0)" xlink:href="#E"/><use transform="matrix(0.06172839506172839,0,0,0.06172839506172839,39.44444444444444,0)" xlink:href="#F"/><use transform="matrix(0.06172839506172839,0,0,0.06172839506172839,52.96296296296296,0)" xlink:href="#E"/><use transform="matrix(0.06172839506172839,0,0,0.06172839506172839,59.135802469135804,0)" xlink:href="#F"/><use transform="matrix(0.06172839506172839,0,0,0.06172839506172839,72.65432098765432,0)" xlink:href="#G"/></g><path fill="#fff" d="M24-248c120-7 223 5 221 122C244-46 201 0 124 0H24v-248zM76-40c74 7 117-18 117-86 0-67-45-88-117-82v168" id="H"/><path fill="#fff" d="M115-3C79 11 28 4 28-45v-112H4v-33h27l15-45h31v45h36v33H77v99c-1 23 16 31 38 25v30" id="I"/><g id="b"><use transform="matrix(0.06172839506172839,0,0,0.06172839506172839,0,0)" xlink:href="#H"/><use transform="matrix(0.06172839506172839,0,0,0.06172839506172839,15.987654320987653,0)" xlink:href="#D"/><use transform="matrix(0.06172839506172839,0,0,0.06172839506172839,28.333333333333332,0)" xlink:href="#I"/><use transform="matrix(0.06172839506172839,0,0,0.06172839506172839,35.67901234567901,0)" xlink:href="#D"/></g><path fill="#fff" d="M76-208v77h127v40H76V0H24v-248h183v40H76" id="J"/><path fill="#fff" d="M185-48c-13 30-37 53-82 52C43 2 14-33 14-96s30-98 90-98c62 0 83 45 84 108H66c0 31 8 55 39 56 18 0 30-7 34-22zm-45-69c5-46-57-63-70-21-2 6-4 13-4 21h74" id="K"/><path fill="#fff" d="M85 4C-2 5 27-109 22-190h50c7 57-23 150 33 157 60-5 35-97 40-157h50l1 190h-47c-2-12 1-28-3-38-12 25-28 42-61 42" id="L"/><g id="c"><use transform="matrix(0.06172839506172839,0,0,0.06172839506172839,0,0)" xlink:href="#J"/><use transform="matrix(0.06172839506172839,0,0,0.06172839506172839,13.518518518518517,0)" xlink:href="#K"/><use transform="matrix(0.06172839506172839,0,0,0.06172839506172839,25.864197530864196,0)" xlink:href="#D"/><use transform="matrix(0.06172839506172839,0,0,0.06172839506172839,38.20987654320987,0)" xlink:href="#I"/><use transform="matrix(0.06172839506172839,0,0,0.06172839506172839,45.55555555555555,0)" xlink:href="#L"/><use transform="matrix(0.06172839506172839,0,0,0.06172839506172839,59.07407407407407,0)" xlink:href="#C"/><use transform="matrix(0.06172839506172839,0,0,0.06172839506172839,67.71604938271605,0)" xlink:href="#K"/></g><path fill="#fff" d="M24 0v-248h195v40H76v63h132v40H76v65h150V0H24" id="M"/><path fill="#fff" d="M144 0l-44-69L55 0H2l70-98-66-92h53l41 62 40-62h54l-67 91 71 99h-54" id="N"/><path fill="#fff" d="M190-63c-7 42-38 67-86 67-59 0-84-38-90-98-12-110 154-137 174-36l-49 2c-2-19-15-32-35-32-30 0-35 28-38 64-6 74 65 87 74 30" id="O"/><path fill="#fff" d="M110-194c64 0 96 36 96 99 0 64-35 99-97 99-61 0-95-36-95-99 0-62 34-99 96-99zm-1 164c35 0 45-28 45-65 0-40-10-65-43-65-34 0-45 26-45 65 0 36 10 65 43 65" id="P"/><g id="d"><use transform="matrix(0.06172839506172839,0,0,0.06172839506172839,0,0)" xlink:href="#M"/><use transform="matrix(0.06172839506172839,0,0,0.06172839506172839,14.814814814814813,0)" xlink:href="#N"/><use transform="matrix(0.06172839506172839,0,0,0.06172839506172839,27.160493827160494,0)" xlink:href="#I"/><use transform="matrix(0.06172839506172839,0,0,0.06172839506172839,34.50617283950617,0)" xlink:href="#C"/><use transform="matrix(0.06172839506172839,0,0,0.06172839506172839,43.148148148148145,0)" xlink:href="#D"/><use transform="matrix(0.06172839506172839,0,0,0.06172839506172839,55.49382716049382,0)" xlink:href="#O"/><use transform="matrix(0.06172839506172839,0,0,0.06172839506172839,67.8395061728395,0)" xlink:href="#I"/><use transform="matrix(0.06172839506172839,0,0,0.06172839506172839,75.18518518518519,0)" xlink:href="#E"/><use transform="matrix(0.06172839506172839,0,0,0.06172839506172839,81.35802469135803,0)" xlink:href="#P"/><use transform="matrix(0.06172839506172839,0,0,0.06172839506172839,94.87654320987654,0)" xlink:href="#F"/></g><path fill="#fff" d="M230 0l2-204L168 0h-37L68-204 70 0H24v-248h70l56 185 57-185h69V0h-46" id="Q"/><path fill="#fff" d="M114-157C55-157 80-60 75 0H25v-261h50l-1 109c12-26 28-41 61-42 86-1 58 113 63 194h-50c-7-57 23-157-34-157" id="R"/><g id="e"><use transform="matrix(0.06172839506172839,0,0,0.06172839506172839,0,0)" xlink:href="#Q"/><use transform="matrix(0.06172839506172839,0,0,0.06172839506172839,18.456790123456788,0)" xlink:href="#D"/><use transform="matrix(0.06172839506172839,0,0,0.06172839506172839,30.80246913580247,0)" xlink:href="#O"/><use transform="matrix(0.06172839506172839,0,0,0.06172839506172839,43.148148148148145,0)" xlink:href="#R"/><use transform="matrix(0.06172839506172839,0,0,0.06172839506172839,56.666666666666664,0)" xlink:href="#E"/><use transform="matrix(0.06172839506172839,0,0,0.06172839506172839,62.839506172839506,0)" xlink:href="#F"/><use transform="matrix(0.06172839506172839,0,0,0.06172839506172839,76.35802469135803,0)" xlink:href="#K"/></g><path fill="#fff" d="M24 0v-248h52v208h133V0H24" id="S"/><g id="f"><use transform="matrix(0.06172839506172839,0,0,0.06172839506172839,0,0)" xlink:href="#S"/><use transform="matrix(0.06172839506172839,0,0,0.06172839506172839,13.518518518518517,0)" xlink:href="#K"/><use transform="matrix(0.06172839506172839,0,0,0.06172839506172839,25.864197530864196,0)" xlink:href="#D"/><use transform="matrix(0.06172839506172839,0,0,0.06172839506172839,38.20987654320987,0)" xlink:href="#C"/><use transform="matrix(0.06172839506172839,0,0,0.06172839506172839,46.85185185185185,0)" xlink:href="#F"/><use transform="matrix(0.06172839506172839,0,0,0.06172839506172839,60.37037037037037,0)" xlink:href="#E"/><use transform="matrix(0.06172839506172839,0,0,0.06172839506172839,66.5432098765432,0)" xlink:href="#F"/><use transform="matrix(0.06172839506172839,0,0,0.06172839506172839,80.06172839506172,0)" xlink:href="#G"/></g><path fill="#fff" d="M88-194c31-1 46 15 58 34l-1-101h50l1 261h-48c-2-10 0-23-3-31C134-8 116 4 84 4 32 4 16-41 15-95c0-56 19-97 73-99zm17 164c33 0 40-30 41-66 1-37-9-64-41-64s-38 30-39 65c0 43 13 65 39 65" id="T"/><path fill="#fff" d="M25 0v-261h50V0H25" id="U"/><g id="g"><use transform="matrix(0.06172839506172839,0,0,0.06172839506172839,0,0)" xlink:href="#Q"/><use transform="matrix(0.06172839506172839,0,0,0.06172839506172839,18.456790123456788,0)" xlink:href="#P"/><use transform="matrix(0.06172839506172839,0,0,0.06172839506172839,31.9753086419753,0)" xlink:href="#T"/><use transform="matrix(0.06172839506172839,0,0,0.06172839506172839,45.49382716049382,0)" xlink:href="#K"/><use transform="matrix(0.06172839506172839,0,0,0.06172839506172839,57.8395061728395,0)" xlink:href="#U"/></g><path d="M59-47c-2 24 18 29 38 22v24C64 9 27 4 27-40v-127H5v-23h24l9-43h21v43h35v23H59v120" id="V"/><path d="M100-194c63 0 86 42 84 106H49c0 40 14 67 53 68 26 1 43-12 49-29l28 8c-11 28-37 45-77 45C44 4 14-33 15-96c1-61 26-98 85-98zm52 81c6-60-76-77-97-28-3 7-6 17-6 28h103" id="W"/><path d="M141 0L90-78 38 0H4l68-98-65-92h35l48 74 47-74h35l-64 92 68 98h-35" id="X"/><g id="h"><use transform="matrix(0.05,0,0,0.05,0,0)" xlink:href="#V"/><use transform="matrix(0.05,0,0,0.05,5,0)" xlink:href="#W"/><use transform="matrix(0.05,0,0,0.05,15,0)" xlink:href="#X"/><use transform="matrix(0.05,0,0,0.05,24,0)" xlink:href="#V"/></g><path d="M100-194c62-1 85 37 85 99 1 63-27 99-86 99S16-35 15-95c0-66 28-99 85-99zM99-20c44 1 53-31 53-75 0-43-8-75-51-75s-53 32-53 75 10 74 51 75" id="Y"/><path d="M101-234c-31-9-42 10-38 44h38v23H63V0H32v-167H5v-23h27c-7-52 17-82 69-68v24" id="Z"/><g id="i"><use transform="matrix(0.05,0,0,0.05,0,0)" xlink:href="#Y"/><use transform="matrix(0.05,0,0,0.05,10,0)" xlink:href="#Z"/></g><path d="M114-163C36-179 61-72 57 0H25l-1-190h30c1 12-1 29 2 39 6-27 23-49 58-41v29" id="aa"/><path d="M108 0H70L1-190h34L89-25l56-165h34" id="ab"/><path d="M24-231v-30h32v30H24zM24 0v-190h32V0H24" id="ac"/><path d="M206 0h-36l-40-164L89 0H53L-1-190h32L70-26l43-164h34l41 164 42-164h31" id="ad"/><path d="M68-38c1 34 0 65-14 84H32c9-13 17-26 17-46H33v-38h35" id="ae"/><g id="j"><use transform="matrix(0.05,0,0,0.05,0,0)" xlink:href="#aa"/><use transform="matrix(0.05,0,0,0.05,5.95,0)" xlink:href="#W"/><use transform="matrix(0.05,0,0,0.05,15.949999999999998,0)" xlink:href="#ab"/><use transform="matrix(0.05,0,0,0.05,24.95,0)" xlink:href="#ac"/><use transform="matrix(0.05,0,0,0.05,28.899999999999995,0)" xlink:href="#W"/><use transform="matrix(0.05,0,0,0.05,38.9,0)" xlink:href="#ad"/><use transform="matrix(0.05,0,0,0.05,50.85,0)" xlink:href="#ae"/></g><path d="M135-143c-3-34-86-38-87 0 15 53 115 12 119 90S17 21 10-45l28-5c4 36 97 45 98 0-10-56-113-15-118-90-4-57 82-63 122-42 12 7 21 19 24 35" id="af"/><path d="M117-194c89-4 53 116 60 194h-32v-121c0-31-8-49-39-48C34-167 62-67 57 0H25l-1-190h30c1 10-1 24 2 32 11-22 29-35 61-36" id="ag"/><path d="M210-169c-67 3-38 105-44 169h-31v-121c0-29-5-50-35-48C34-165 62-65 56 0H25l-1-190h30c1 10-1 24 2 32 10-44 99-50 107 0 11-21 27-35 58-36 85-2 47 119 55 194h-31v-121c0-29-5-49-35-48" id="ah"/><g id="k"><use transform="matrix(0.05,0,0,0.05,0,0)" xlink:href="#af"/><use transform="matrix(0.05,0,0,0.05,9,0)" xlink:href="#W"/><use transform="matrix(0.05,0,0,0.05,19,0)" xlink:href="#ag"/><use transform="matrix(0.05,0,0,0.05,29,0)" xlink:href="#V"/><use transform="matrix(0.05,0,0,0.05,34,0)" xlink:href="#ac"/><use transform="matrix(0.05,0,0,0.05,37.95,0)" xlink:href="#ah"/><use transform="matrix(0.05,0,0,0.05,52.900000000000006,0)" xlink:href="#W"/><use transform="matrix(0.05,0,0,0.05,62.900000000000006,0)" xlink:href="#ag"/><use transform="matrix(0.05,0,0,0.05,72.9,0)" xlink:href="#V"/></g><path d="M85-194c31 0 48 13 60 33l-1-100h32l1 261h-30c-2-10 0-23-3-31C134-8 116 4 85 4 32 4 16-35 15-94c0-66 23-100 70-100zm9 24c-40 0-46 34-46 75 0 40 6 74 45 74 42 0 51-32 51-76 0-42-9-74-50-73" id="ai"/><g id="l"><use transform="matrix(0.05,0,0,0.05,0,0)" xlink:href="#ad"/><use transform="matrix(0.05,0,0,0.05,12.950000000000001,0)" xlink:href="#Y"/><use transform="matrix(0.05,0,0,0.05,22.950000000000003,0)" xlink:href="#aa"/><use transform="matrix(0.05,0,0,0.05,28.900000000000002,0)" xlink:href="#ai"/></g><path d="M96-169c-40 0-48 33-48 73s9 75 48 75c24 0 41-14 43-38l32 2c-6 37-31 61-74 61-59 0-76-41-82-99-10-93 101-131 147-64 4 7 5 14 7 22l-32 3c-4-21-16-35-41-35" id="aj"/><path d="M84 4C-5 8 30-112 23-190h32v120c0 31 7 50 39 49 72-2 45-101 50-169h31l1 190h-30c-1-10 1-25-2-33-11 22-28 36-60 37" id="ak"/><g id="m"><use transform="matrix(0.05,0,0,0.05,0,0)" xlink:href="#aj"/><use transform="matrix(0.05,0,0,0.05,9,0)" xlink:href="#Y"/><use transform="matrix(0.05,0,0,0.05,19,0)" xlink:href="#ak"/><use transform="matrix(0.05,0,0,0.05,29,0)" xlink:href="#ag"/><use transform="matrix(0.05,0,0,0.05,39,0)" xlink:href="#V"/><use transform="matrix(0.05,0,0,0.05,44,0)" xlink:href="#af"/></g><path d="M177-190C167-65 218 103 67 71c-23-6-38-20-44-43l32-5c15 47 100 32 89-28v-30C133-14 115 1 83 1 29 1 15-40 15-95c0-56 16-97 71-98 29-1 48 16 59 35 1-10 0-23 2-32h30zM94-22c36 0 50-32 50-73 0-42-14-75-50-75-39 0-46 34-46 75s6 73 46 73" id="al"/><g id="n"><use transform="matrix(0.05,0,0,0.05,0,0)" xlink:href="#aa"/><use transform="matrix(0.05,0,0,0.05,5.95,0)" xlink:href="#W"/><use transform="matrix(0.05,0,0,0.05,15.949999999999998,0)" xlink:href="#al"/><use transform="matrix(0.05,0,0,0.05,25.950000000000003,0)" xlink:href="#aa"/><use transform="matrix(0.05,0,0,0.05,31.899999999999995,0)" xlink:href="#W"/><use transform="matrix(0.05,0,0,0.05,41.9,0)" xlink:href="#af"/><use transform="matrix(0.05,0,0,0.05,50.9,0)" xlink:href="#af"/><use transform="matrix(0.05,0,0,0.05,59.900000000000006,0)" xlink:href="#ac"/><use transform="matrix(0.05,0,0,0.05,63.85,0)" xlink:href="#Y"/><use transform="matrix(0.05,0,0,0.05,73.85,0)" xlink:href="#ag"/></g><path d="M115-194c55 1 70 41 70 98S169 2 115 4C84 4 66-9 55-30l1 105H24l-1-265h31l2 30c10-21 28-34 59-34zm-8 174c40 0 45-34 45-75s-6-73-45-74c-42 0-51 32-51 76 0 43 10 73 51 73" id="am"/><g id="o"><use transform="matrix(0.05,0,0,0.05,0,0)" xlink:href="#am"/><use transform="matrix(0.05,0,0,0.05,10,0)" xlink:href="#aa"/><use transform="matrix(0.05,0,0,0.05,15.949999999999998,0)" xlink:href="#W"/><use transform="matrix(0.05,0,0,0.05,25.950000000000003,0)" xlink:href="#ai"/><use transform="matrix(0.05,0,0,0.05,35.95,0)" xlink:href="#ac"/><use transform="matrix(0.05,0,0,0.05,39.900000000000006,0)" xlink:href="#aj"/><use transform="matrix(0.05,0,0,0.05,48.900000000000006,0)" xlink:href="#V"/><use transform="matrix(0.05,0,0,0.05,53.900000000000006,0)" xlink:href="#W"/><use transform="matrix(0.05,0,0,0.05,63.900000000000006,0)" xlink:href="#ai"/></g><path d="M106-169C34-169 62-67 57 0H25v-261h32l-1 103c12-21 28-36 61-36 89 0 53 116 60 194h-32v-121c2-32-8-49-39-48" id="an"/><g id="p"><use transform="matrix(0.05,0,0,0.05,0,0)" xlink:href="#ad"/><use transform="matrix(0.05,0,0,0.05,12.950000000000001,0)" xlink:href="#W"/><use transform="matrix(0.05,0,0,0.05,22.950000000000003,0)" xlink:href="#ac"/><use transform="matrix(0.05,0,0,0.05,26.900000000000002,0)" xlink:href="#al"/><use transform="matrix(0.05,0,0,0.05,36.900000000000006,0)" xlink:href="#an"/><use transform="matrix(0.05,0,0,0.05,46.900000000000006,0)" xlink:href="#V"/><use transform="matrix(0.05,0,0,0.05,51.900000000000006,0)" xlink:href="#af"/></g><g id="q"><use transform="matrix(0.05,0,0,0.05,0,0)" xlink:href="#Z"/><use transform="matrix(0.05,0,0,0.05,5,0)" xlink:href="#Y"/><use transform="matrix(0.05,0,0,0.05,15,0)" xlink:href="#aa"/></g><path d="M141-36C126-15 110 5 73 4 37 3 15-17 15-53c-1-64 63-63 125-63 3-35-9-54-41-54-24 1-41 7-42 31l-33-3c5-37 33-52 76-52 45 0 72 20 72 64v82c-1 20 7 32 28 27v20c-31 9-61-2-59-35zM48-53c0 20 12 33 32 33 41-3 63-29 60-74-43 2-92-5-92 41" id="ao"/><g id="r"><use transform="matrix(0.05,0,0,0.05,0,0)" xlink:href="#W"/><use transform="matrix(0.05,0,0,0.05,10,0)" xlink:href="#ao"/><use transform="matrix(0.05,0,0,0.05,20,0)" xlink:href="#aj"/><use transform="matrix(0.05,0,0,0.05,29,0)" xlink:href="#an"/></g><g id="s"><use transform="matrix(0.05,0,0,0.05,0,0)" xlink:href="#ad"/><use transform="matrix(0.05,0,0,0.05,12.950000000000001,0)" xlink:href="#Y"/><use transform="matrix(0.05,0,0,0.05,22.950000000000003,0)" xlink:href="#aa"/><use transform="matrix(0.05,0,0,0.05,28.900000000000002,0)" xlink:href="#ai"/></g><path fill="#fff" d="M140-251c80 0 125 45 125 126 0 70-33 111-92 124 6 28 34 38 68 31l-1 36C177 83 129 55 120 2 51-6 15-50 15-125c0-81 44-126 125-126zm-1 214c52 0 73-35 73-88 0-50-21-86-72-86-52 0-73 35-73 86s22 88 72 88" id="ap"/><path fill="#fff" d="M123 10C108 53 80 86 19 72V37c35 8 53-11 59-39L3-190h52l48 148c12-52 28-100 44-148h51" id="aq"/><g id="t"><use transform="matrix(0.06172839506172839,0,0,0.06172839506172839,0,0)" xlink:href="#ap"/><use transform="matrix(0.06172839506172839,0,0,0.06172839506172839,17.28395061728395,0)" xlink:href="#L"/><use transform="matrix(0.06172839506172839,0,0,0.06172839506172839,30.80246913580247,0)" xlink:href="#D"/><use transform="matrix(0.06172839506172839,0,0,0.06172839506172839,43.148148148148145,0)" xlink:href="#U"/><use transform="matrix(0.06172839506172839,0,0,0.06172839506172839,49.32098765432099,0)" xlink:href="#E"/><use transform="matrix(0.06172839506172839,0,0,0.06172839506172839,55.49382716049383,0)" xlink:href="#I"/><use transform="matrix(0.06172839506172839,0,0,0.06172839506172839,62.839506172839506,0)" xlink:href="#aq"/></g><g id="u"><use transform="matrix(0.06172839506172839,0,0,0.06172839506172839,0,0)" xlink:href="#Q"/><use transform="matrix(0.06172839506172839,0,0,0.06172839506172839,18.456790123456788,0)" xlink:href="#K"/><use transform="matrix(0.06172839506172839,0,0,0.06172839506172839,30.80246913580247,0)" xlink:href="#I"/><use transform="matrix(0.06172839506172839,0,0,0.06172839506172839,38.148148148148145,0)" xlink:href="#C"/><use transform="matrix(0.06172839506172839,0,0,0.06172839506172839,46.79012345679012,0)" xlink:href="#E"/><use transform="matrix(0.06172839506172839,0,0,0.06172839506172839,52.96296296296296,0)" xlink:href="#O"/></g><g id="v"><use transform="matrix(0.06172839506172839,0,0,0.06172839506172839,0,0)" xlink:href="#Q"/><use transform="matrix(0.06172839506172839,0,0,0.06172839506172839,18.456790123456788,0)" xlink:href="#D"/><use transform="matrix(0.06172839506172839,0,0,0.06172839506172839,30.80246913580247,0)" xlink:href="#O"/><use transform="matrix(0.06172839506172839,0,0,0.06172839506172839,43.148148148148145,0)" xlink:href="#R"/><use transform="matrix(0.06172839506172839,0,0,0.06172839506172839,56.666666666666664,0)" xlink:href="#E"/><use transform="matrix(0.06172839506172839,0,0,0.06172839506172839,62.839506172839506,0)" xlink:href="#F"/><use transform="matrix(0.06172839506172839,0,0,0.06172839506172839,76.35802469135803,0)" xlink:href="#K"/></g><path fill="#fff" d="M199 0l-22-63H83L61 0H9l90-248h61L250 0h-51zm-33-102l-36-108c-10 38-24 72-36 108h72" id="ar"/><path fill="#fff" d="M220-157c-53 9-28 100-34 157h-49v-107c1-27-5-49-29-50C55-147 81-57 75 0H25l-1-190h47c2 12-1 28 3 38 10-53 101-56 108 0 13-22 24-43 59-42 82 1 51 116 57 194h-49v-107c-1-25-5-48-29-50" id="as"/><g id="w"><use transform="matrix(0.06172839506172839,0,0,0.06172839506172839,0,0)" xlink:href="#ar"/><use transform="matrix(0.06172839506172839,0,0,0.06172839506172839,15.987654320987653,0)" xlink:href="#U"/><use transform="matrix(0.06172839506172839,0,0,0.06172839506172839,22.160493827160494,0)" xlink:href="#G"/><use transform="matrix(0.06172839506172839,0,0,0.06172839506172839,35.67901234567901,0)" xlink:href="#P"/><use transform="matrix(0.06172839506172839,0,0,0.06172839506172839,49.19753086419753,0)" xlink:href="#C"/><use transform="matrix(0.06172839506172839,0,0,0.06172839506172839,57.839506172839506,0)" xlink:href="#E"/><use transform="matrix(0.06172839506172839,0,0,0.06172839506172839,64.01234567901234,0)" xlink:href="#I"/><use transform="matrix(0.06172839506172839,0,0,0.06172839506172839,71.35802469135803,0)" xlink:href="#R"/><use transform="matrix(0.06172839506172839,0,0,0.06172839506172839,84.87654320987654,0)" xlink:href="#as"/></g><path d="M24 0v-261h32V0H24" id="at"/><g id="x"><use transform="matrix(0.05,0,0,0.05,0,0)" xlink:href="#aj"/><use transform="matrix(0.05,0,0,0.05,9,0)" xlink:href="#at"/><use transform="matrix(0.05,0,0,0.05,12.949999999999998,0)" xlink:href="#ao"/><use transform="matrix(0.05,0,0,0.05,22.95,0)" xlink:href="#af"/><use transform="matrix(0.05,0,0,0.05,31.950000000000003,0)" xlink:href="#af"/><use transform="matrix(0.05,0,0,0.05,40.95,0)" xlink:href="#ac"/><use transform="matrix(0.05,0,0,0.05,44.900000000000006,0)" xlink:href="#Z"/><use transform="matrix(0.05,0,0,0.05,49.900000000000006,0)" xlink:href="#ac"/><use transform="matrix(0.05,0,0,0.05,53.85,0)" xlink:href="#aj"/><use transform="matrix(0.05,0,0,0.05,62.85,0)" xlink:href="#ao"/><use transform="matrix(0.05,0,0,0.05,72.85000000000001,0)" xlink:href="#V"/><use transform="matrix(0.05,0,0,0.05,77.85000000000001,0)" xlink:href="#ac"/><use transform="matrix(0.05,0,0,0.05,81.80000000000001,0)" xlink:href="#Y"/><use transform="matrix(0.05,0,0,0.05,91.80000000000001,0)" xlink:href="#ag"/></g><path d="M179-190L93 31C79 59 56 82 12 73V49c39 6 53-20 64-50L1-190h34L92-34l54-156h33" id="au"/><g id="y"><use transform="matrix(0.05,0,0,0.05,0,0)" xlink:href="#ao"/><use transform="matrix(0.05,0,0,0.05,10,0)" xlink:href="#aj"/><use transform="matrix(0.05,0,0,0.05,19,0)" xlink:href="#aj"/><use transform="matrix(0.05,0,0,0.05,28,0)" xlink:href="#ak"/><use transform="matrix(0.05,0,0,0.05,38,0)" xlink:href="#aa"/><use transform="matrix(0.05,0,0,0.05,43.95,0)" xlink:href="#ao"/><use transform="matrix(0.05,0,0,0.05,53.95,0)" xlink:href="#aj"/><use transform="matrix(0.05,0,0,0.05,62.95,0)" xlink:href="#au"/></g><g id="z"><use transform="matrix(0.05,0,0,0.05,0,0)" xlink:href="#af"/><use transform="matrix(0.05,0,0,0.05,9,0)" xlink:href="#W"/><use transform="matrix(0.05,0,0,0.05,19,0)" xlink:href="#ag"/><use transform="matrix(0.05,0,0,0.05,29,0)" xlink:href="#V"/><use transform="matrix(0.05,0,0,0.05,34,0)" xlink:href="#ac"/><use transform="matrix(0.05,0,0,0.05,37.95,0)" xlink:href="#ah"/><use transform="matrix(0.05,0,0,0.05,52.900000000000006,0)" xlink:href="#W"/><use transform="matrix(0.05,0,0,0.05,62.900000000000006,0)" xlink:href="#ag"/><use transform="matrix(0.05,0,0,0.05,72.9,0)" xlink:href="#V"/></g><path d="M115-194c53 0 69 39 70 98 0 66-23 100-70 100C84 3 66-7 56-30L54 0H23l1-261h32v101c10-23 28-34 59-34zm-8 174c40 0 45-34 45-75 0-40-5-75-45-74-42 0-51 32-51 76 0 43 10 73 51 73" id="av"/><g id="A"><use transform="matrix(0.05,0,0,0.05,0,0)" xlink:href="#at"/><use transform="matrix(0.05,0,0,0.05,3.95,0)" xlink:href="#ao"/><use transform="matrix(0.05,0,0,0.05,13.949999999999998,0)" xlink:href="#av"/><use transform="matrix(0.05,0,0,0.05,23.95,0)" xlink:href="#W"/><use transform="matrix(0.05,0,0,0.05,33.95,0)" xlink:href="#at"/></g></defs></g></svg>