<svg xmlns="http://www.w3.org/2000/svg" xmlns:xlink="http://www.w3.org/1999/xlink" xmlns:lucid="lucid" width="2120" height="640"><g transform="translate(-60 -140)" lucid:page-tab-id="Fo7Ikyj7k3uW"><path d="M80 160h320v80H80z" stroke="#000" stroke-opacity="0" stroke-width="2" fill="#fff" fill-opacity="0"/><use xlink:href="#a" transform="matrix(1,0,0,1,85,165) translate(93.33333333333333 26.52777777777778)"/><use xlink:href="#b" transform="matrix(1,0,0,1,85,165) translate(127.83950617283949 26.52777777777778)"/><use xlink:href="#c" transform="matrix(1,0,0,1,85,165) translate(76.2037037037037 53.19444444444445)"/><use xlink:href="#d" transform="matrix(1,0,0,1,85,165) translate(118.05555555555554 53.19444444444445)"/><path d="M80 280h320v80H80z" stroke="#000" stroke-width="2" fill="#d1bcd2"/><path d="M120 300l-4.7 13.53-14.32.3 11.4 8.64-4.14 13.7L120 328l11.76 8.18-4.15-13.7 11.42-8.66-14.32-.3zM180 300l-4.7 13.53-14.32.3 11.4 8.64-4.14 13.7L180 328l11.76 8.18-4.15-13.7 11.42-8.66-14.32-.3zM240 300l-4.7 13.53-14.32.3 11.4 8.64-4.14 13.7L240 328l11.76 8.18-4.15-13.7 11.42-8.66-14.32-.3zM300 300l-4.7 13.53-14.32.3 11.4 8.64-4.14 13.7L300 328l11.76 8.18-4.15-13.7 11.42-8.66-14.32-.3z" stroke="#000" stroke-width="2" fill="#ffeca9"/><path d="M360 300l-4.7 13.53-14.32.3 11.4 8.64-4.14 13.7L360 328l11.76 8.18-4.15-13.7 11.42-8.66-14.32-.3z" stroke="#000" stroke-width="2" fill="#fff"/><path d="M80 400h320v80H80z" stroke="#000" stroke-width="2" fill="#b2d6ef"/><path d="M120 420l-4.7 13.53-14.32.3 11.4 8.64-4.14 13.7L120 448l11.76 8.18-4.15-13.7 11.42-8.66-14.32-.3zM180 420l-4.7 13.53-14.32.3 11.4 8.64-4.14 13.7L180 448l11.76 8.18-4.15-13.7 11.42-8.66-14.32-.3zM240 420l-4.7 13.53-14.32.3 11.4 8.64-4.14 13.7L240 448l11.76 8.18-4.15-13.7 11.42-8.66-14.32-.3z" stroke="#000" stroke-width="2" fill="#ffeca9"/><path d="M300 420l-4.7 13.53-14.32.3 11.4 8.64-4.14 13.7L300 448l11.76 8.18-4.15-13.7 11.42-8.66-14.32-.3zM360 420l-4.7 13.53-14.32.3 11.4 8.64-4.14 13.7L360 448l11.76 8.18-4.15-13.7 11.42-8.66-14.32-.3z" stroke="#000" stroke-width="2" fill="#fff"/><path d="M80 520h320v80H80z" stroke="#000" stroke-width="2" fill="#c7e8ac"/><path d="M120 540l-4.7 13.53-14.32.3 11.4 8.64-4.14 13.7L120 568l11.76 8.18-4.15-13.7 11.42-8.66-14.32-.3zM180 540l-4.7 13.53-14.32.3 11.4 8.64-4.14 13.7L180 568l11.76 8.18-4.15-13.7 11.42-8.66-14.32-.3zM240 540l-4.7 13.53-14.32.3 11.4 8.64-4.14 13.7L240 568l11.76 8.18-4.15-13.7 11.42-8.66-14.32-.3zM300 540l-4.7 13.53-14.32.3 11.4 8.64-4.14 13.7L300 568l11.76 8.18-4.15-13.7 11.42-8.66-14.32-.3zM360 540l-4.7 13.53-14.32.3 11.4 8.64-4.14 13.7L360 568l11.76 8.18-4.15-13.7 11.42-8.66-14.32-.3z" stroke="#000" stroke-width="2" fill="#ffeca9"/><path d="M440 420h44v-20l36 40-36 40v-20h-44z" stroke="#000" stroke-width="2" fill="#834187"/><path d="M560 160h320v80H560z" stroke="#000" stroke-opacity="0" stroke-width="2" fill="#fff" fill-opacity="0"/><use xlink:href="#e" transform="matrix(1,0,0,1,565,165) translate(59.41358024691358 26.52777777777778)"/><use xlink:href="#f" transform="matrix(1,0,0,1,565,165) translate(127.25308641975307 26.52777777777778)"/><use xlink:href="#g" transform="matrix(1,0,0,1,565,165) translate(161.75925925925924 26.52777777777778)"/><use xlink:href="#h" transform="matrix(1,0,0,1,565,165) translate(76.17283950617283 53.19444444444445)"/><use xlink:href="#i" transform="matrix(1,0,0,1,565,165) translate(122.90123456790124 53.19444444444445)"/><path d="M560 280h320v53.2H560z" stroke="#000" stroke-opacity="0" stroke-width="2" fill="#fff" fill-opacity="0"/><use xlink:href="#j" transform="matrix(1,0,0,1,565,285) translate(24.125 14.4)"/><use xlink:href="#k" transform="matrix(1,0,0,1,565,285) translate(60.075 14.4)"/><use xlink:href="#l" transform="matrix(1,0,0,1,565,285) translate(137.025 14.4)"/><use xlink:href="#m" transform="matrix(1,0,0,1,565,285) translate(184.97500000000002 14.4)"/><use xlink:href="#n" transform="matrix(1,0,0,1,565,285) translate(221.925 14.4)"/><use xlink:href="#o" transform="matrix(1,0,0,1,565,285) translate(254.875 14.4)"/><use xlink:href="#p" transform="matrix(1,0,0,1,565,285) translate(25.349999999999994 36)"/><use xlink:href="#q" transform="matrix(1,0,0,1,565,285) translate(108.3 36)"/><use xlink:href="#m" transform="matrix(1,0,0,1,565,285) translate(146.25 36)"/><use xlink:href="#n" transform="matrix(1,0,0,1,565,285) translate(183.20000000000002 36)"/><use xlink:href="#r" transform="matrix(1,0,0,1,565,285) translate(216.15 36)"/><path d="M560 340h320v53.2H560z" stroke="#000" stroke-opacity="0" stroke-width="2" fill="#fff" fill-opacity="0"/><use xlink:href="#s" transform="matrix(1,0,0,1,565,345) translate(14.699999999999989 14.4)"/><use xlink:href="#t" transform="matrix(1,0,0,1,565,345) translate(24.69999999999999 14.4)"/><use xlink:href="#u" transform="matrix(1,0,0,1,565,345) translate(56.59999999999999 14.4)"/><use xlink:href="#v" transform="matrix(1,0,0,1,565,345) translate(86.6 14.4)"/><use xlink:href="#w" transform="matrix(1,0,0,1,565,345) translate(146.4 14.4)"/><use xlink:href="#x" transform="matrix(1,0,0,1,565,345) translate(235.3 14.4)"/><use xlink:href="#y" transform="matrix(1,0,0,1,565,345) translate(270.3 14.4)"/><use xlink:href="#z" transform="matrix(1,0,0,1,565,345) translate(38.14999999999999 36)"/><use xlink:href="#A" transform="matrix(1,0,0,1,565,345) translate(131.05 36)"/><use xlink:href="#B" transform="matrix(1,0,0,1,565,345) translate(181 36)"/><use xlink:href="#u" transform="matrix(1,0,0,1,565,345) translate(206 36)"/><use xlink:href="#C" transform="matrix(1,0,0,1,565,345) translate(236 36)"/><path d="M560 400h320v20H560z" stroke="#000" stroke-opacity="0" stroke-width="2" fill="#fff" fill-opacity="0"/><use xlink:href="#D" transform="matrix(1,0,0,1,565,405) translate(48.175 14.4)"/><use xlink:href="#u" transform="matrix(1,0,0,1,565,405) translate(73.07499999999999 14.4)"/><use xlink:href="#E" transform="matrix(1,0,0,1,565,405) translate(103.07499999999999 14.4)"/><use xlink:href="#m" transform="matrix(1,0,0,1,565,405) translate(150.02499999999998 14.4)"/><use xlink:href="#F" transform="matrix(1,0,0,1,565,405) translate(186.97500000000002 14.4)"/><path d="M560 440h320v53.2H560z" stroke="#000" stroke-opacity="0" stroke-width="2" fill="#fff" fill-opacity="0"/><use xlink:href="#G" transform="matrix(1,0,0,1,565,445) translate(13.775000000000006 14.4)"/><use xlink:href="#H" transform="matrix(1,0,0,1,565,445) translate(42.72500000000001 14.4)"/><use xlink:href="#I" transform="matrix(1,0,0,1,565,445) translate(79.62500000000001 14.4)"/><use xlink:href="#J" transform="matrix(1,0,0,1,565,445) translate(119.525 14.4)"/><use xlink:href="#K" transform="matrix(1,0,0,1,565,445) translate(159.425 14.4)"/><use xlink:href="#x" transform="matrix(1,0,0,1,565,445) translate(215.32500000000002 14.4)"/><use xlink:href="#L" transform="matrix(1,0,0,1,565,445) translate(250.32500000000002 14.4)"/><use xlink:href="#M" transform="matrix(1,0,0,1,565,445) translate(264.275 14.4)"/><use xlink:href="#N" transform="matrix(1,0,0,1,565,445) translate(85.07499999999999 36)"/><use xlink:href="#O" transform="matrix(1,0,0,1,565,445) translate(135.02499999999998 36)"/><path d="M560 500h320v53.2H560z" stroke="#000" stroke-opacity="0" stroke-width="2" fill="#fff" fill-opacity="0"/><g><use xlink:href="#j" transform="matrix(1,0,0,1,565,505) translate(0.20000000000001705 14.4)"/><use xlink:href="#E" transform="matrix(1,0,0,1,565,505) translate(36.15000000000002 14.4)"/><use xlink:href="#m" transform="matrix(1,0,0,1,565,505) translate(83.10000000000002 14.4)"/><use xlink:href="#P" transform="matrix(1,0,0,1,565,505) translate(120.05000000000003 14.4)"/><use xlink:href="#x" transform="matrix(1,0,0,1,565,505) translate(197.95000000000002 14.4)"/><use xlink:href="#u" transform="matrix(1,0,0,1,565,505) translate(232.95000000000002 14.4)"/><use xlink:href="#Q" transform="matrix(1,0,0,1,565,505) translate(262.95000000000005 14.4)"/><use xlink:href="#R" transform="matrix(1,0,0,1,565,505) translate(296.85 14.4)"/><use xlink:href="#n" transform="matrix(1,0,0,1,565,505) translate(89.55 36)"/><use xlink:href="#S" transform="matrix(1,0,0,1,565,505) translate(122.5 36)"/></g><path d="M560 560h320v20H560z" stroke="#000" stroke-opacity="0" stroke-width="2" fill="#fff" fill-opacity="0"/><g><use xlink:href="#j" transform="matrix(1,0,0,1,565,565) translate(27.674999999999983 14.4)"/><use xlink:href="#T" transform="matrix(1,0,0,1,565,565) translate(63.624999999999986 14.4)"/><use xlink:href="#U" transform="matrix(1,0,0,1,565,565) translate(125.52499999999999 14.4)"/><use xlink:href="#V" transform="matrix(1,0,0,1,565,565) translate(143.475 14.4)"/><use xlink:href="#W" transform="matrix(1,0,0,1,565,565) translate(230.375 14.4)"/></g><path d="M560 600h320v20H560z" stroke="#000" stroke-opacity="0" stroke-width="2" fill="#fff" fill-opacity="0"/><g><use xlink:href="#X" transform="matrix(1,0,0,1,565,605) translate(45.625 14.4)"/><use xlink:href="#Y" transform="matrix(1,0,0,1,565,605) translate(98.525 14.4)"/><use xlink:href="#E" transform="matrix(1,0,0,1,565,605) translate(137.525 14.4)"/><use xlink:href="#Z" transform="matrix(1,0,0,1,565,605) translate(184.47500000000002 14.4)"/><use xlink:href="#aa" transform="matrix(1,0,0,1,565,605) translate(203.425 14.4)"/></g><path d="M920 420h44v-20l36 40-36 40v-20h-44z" stroke="#000" stroke-width="2" fill="#834187"/><path d="M1040 160h320v80h-320z" stroke="#000" stroke-opacity="0" stroke-width="2" fill="#fff" fill-opacity="0"/><g><use xlink:href="#ab" transform="matrix(1,0,0,1,1045,165) translate(63.76543209876543 26.52777777777778)"/><use xlink:href="#ac" transform="matrix(1,0,0,1,1045,165) translate(135.30864197530863 26.52777777777778)"/><use xlink:href="#ad" transform="matrix(1,0,0,1,1045,165) translate(79.29012345679013 53.19444444444445)"/><use xlink:href="#ae" transform="matrix(1,0,0,1,1045,165) translate(149.35185185185185 53.19444444444445)"/></g><path d="M1040 400h320v20h-320z" stroke="#000" stroke-opacity="0" stroke-width="2" fill="#fff" fill-opacity="0"/><g><use xlink:href="#D" transform="matrix(1,0,0,1,1045,405) translate(48.175 14.4)"/><use xlink:href="#u" transform="matrix(1,0,0,1,1045,405) translate(73.07499999999999 14.4)"/><use xlink:href="#E" transform="matrix(1,0,0,1,1045,405) translate(103.07499999999999 14.4)"/><use xlink:href="#m" transform="matrix(1,0,0,1,1045,405) translate(150.02499999999998 14.4)"/><use xlink:href="#F" transform="matrix(1,0,0,1,1045,405) translate(186.97500000000002 14.4)"/></g><path d="M1040 500h320v53.2h-320z" stroke="#000" stroke-opacity="0" stroke-width="2" fill="#fff" fill-opacity="0"/><g><use xlink:href="#j" transform="matrix(1,0,0,1,1045,505) translate(0.20000000000001705 14.4)"/><use xlink:href="#E" transform="matrix(1,0,0,1,1045,505) translate(36.15000000000002 14.4)"/><use xlink:href="#m" transform="matrix(1,0,0,1,1045,505) translate(83.10000000000002 14.4)"/><use xlink:href="#P" transform="matrix(1,0,0,1,1045,505) translate(120.05000000000003 14.4)"/><use xlink:href="#x" transform="matrix(1,0,0,1,1045,505) translate(197.95000000000002 14.4)"/><use xlink:href="#u" transform="matrix(1,0,0,1,1045,505) translate(232.95000000000002 14.4)"/><use xlink:href="#Q" transform="matrix(1,0,0,1,1045,505) translate(262.95000000000005 14.4)"/><use xlink:href="#R" transform="matrix(1,0,0,1,1045,505) translate(296.85 14.4)"/><use xlink:href="#n" transform="matrix(1,0,0,1,1045,505) translate(89.55 36)"/><use xlink:href="#S" transform="matrix(1,0,0,1,1045,505) translate(122.5 36)"/></g><path d="M1040 600h320v20h-320z" stroke="#000" stroke-opacity="0" stroke-width="2" fill="#fff" fill-opacity="0"/><g><use xlink:href="#X" transform="matrix(1,0,0,1,1045,605) translate(45.625 14.4)"/><use xlink:href="#Y" transform="matrix(1,0,0,1,1045,605) translate(98.525 14.4)"/><use xlink:href="#E" transform="matrix(1,0,0,1,1045,605) translate(137.525 14.4)"/><use xlink:href="#Z" transform="matrix(1,0,0,1,1045,605) translate(184.47500000000002 14.4)"/><use xlink:href="#aa" transform="matrix(1,0,0,1,1045,605) translate(203.425 14.4)"/></g><path d="M1400 420h44v-20l36 40-36 40v-20h-44z" stroke="#000" stroke-width="2" fill="#834187"/><path d="M1520 380h160v120h-160z" stroke="#000" stroke-width="2"/><g><use xlink:href="#af" transform="matrix(1,0,0,1,1525,385) translate(25.709876543209873 31.52777777777778)"/><use xlink:href="#ag" transform="matrix(1,0,0,1,1525,385) translate(21.419753086419746 58.19444444444445)"/><use xlink:href="#ah" transform="matrix(1,0,0,1,1525,385) translate(25.061728395061728 84.86111111111111)"/></g><path d="M1720 420h44v-20l36 40-36 40v-20h-44z" stroke="#000" stroke-width="2" fill="#834187"/><path d="M1840 160h320v80h-320z" stroke="#000" stroke-opacity="0" stroke-width="2" fill="#fff" fill-opacity="0"/><g><use xlink:href="#ai" transform="matrix(1,0,0,1,1845,165) translate(48.17901234567901 39.65277777777778)"/><use xlink:href="#aj" transform="matrix(1,0,0,1,1845,165) translate(141.08024691358025 39.65277777777778)"/></g><path d="M1840 240h320v120h-320z" stroke="#000" stroke-width="2" fill="#c7e8ac"/><g><use xlink:href="#ak" transform="matrix(1,0,0,1,1845,245) translate(121.7037037037037 21.333333333333336)"/></g><path d="M1880 300l-4.7 13.53-14.32.3 11.4 8.64-4.14 13.7L1880 328l11.76 8.18-4.15-13.7 11.42-8.66-14.32-.3zM1940 300l-4.7 13.53-14.32.3 11.4 8.64-4.14 13.7L1940 328l11.76 8.18-4.15-13.7 11.42-8.66-14.32-.3zM2000 300l-4.7 13.53-14.32.3 11.4 8.64-4.14 13.7L2000 328l11.76 8.18-4.15-13.7 11.42-8.66-14.32-.3zM2060 300l-4.7 13.53-14.32.3 11.4 8.64-4.14 13.7L2060 328l11.76 8.18-4.15-13.7 11.42-8.66-14.32-.3zM2120 300l-4.7 13.53-14.32.3 11.4 8.64-4.14 13.7L2120 328l11.76 8.18-4.15-13.7 11.42-8.66-14.32-.3z" stroke="#000" stroke-width="2" fill="#ffeca9"/><path d="M1958.84 583.9c.76-1.24 1.16-2.57 1.16-4.15 0-3.66-3.12-7.16-7.16-7.16h-3.04c.4-1.08.76-2.32.76-3.85 0-6.1-3.16-8.75-7.96-8.75-5.12 0-4.84 7.9-5.96 9.05-1.92 1.92-4.16 5.54-5.76 6.95h-8.2c-1.48 0-2.68 1.2-2.68 2.7v19.96c0 1.5 1.2 2.68 2.68 2.68h5.32c1.24 0 2.28-.85 2.6-2 3.68.08 6.24 3.33 14.8 3.33h1.84c6.44 0 9.36-3.3 9.44-7.94 1.08-1.54 1.68-3.58 1.44-5.6.8-1.52 1.12-3.36.72-5.24zm-5.12 4.47c1.04 1.75.08 4.14-1.16 4.82.64 4.05-1.48 5.46-4.44 5.46h-3.16c-5.96 0-9.84-3.16-14.28-3.16V580h.88c2.4 0 5.68-5.92 7.88-8.14 2.36-2.35 1.6-6.27 3.16-7.85 3.96 0 3.96 2.74 3.96 4.75 0 3.24-2.36 4.7-2.36 7.85h8.64c1.76 0 3.16 1.58 3.16 3.15 0 1.58-1.08 3.16-1.84 3.16 1.12 1.2 1.36 3.77-.44 5.47zm-26.4 7.64c0 1.12-.88 2.02-2 2.02-1.08 0-2-.9-2-2 0-1.12.92-2 2-2 1.12 0 2 .88 2 2z" stroke="#000" stroke-opacity="0" stroke-width=".29" fill="#19967d"/><path d="M2078.84 578.77c.4-1.87.08-3.7-.72-5.24.24-2-.36-4.06-1.44-5.6-.08-4.64-3-7.93-9.44-7.93h-1.84c-8.64 0-11.32 3.33-14.72 3.33h-.92c-.48-.43-1.08-.64-1.76-.64h-5.32c-1.48 0-2.68 1.14-2.68 2.63v20c0 1.46 1.2 2.66 2.68 2.66h5.32c1 0 1.84-.52 2.32-1.33h.56c1.6 1.4 3.84 5.03 5.76 6.95 1.12 1.15.84 9.05 5.96 9.05 4.8 0 7.96-2.65 7.96-8.75 0-1.54-.36-2.77-.76-3.84h3.04c4.04 0 7.16-3.5 7.16-7.17 0-1.57-.4-2.9-1.16-4.13zm-33.52 5.9c-1.08 0-2-.9-2-2 0-1.12.92-2.02 2-2.02 1.12 0 2 .9 2 2 0 1.12-.88 2-2 2zm27.52 1.4h-8.64c0 3.16 2.36 4.6 2.36 7.85 0 2 0 4.74-3.96 4.74-1.56-1.58-.8-5.5-3.16-7.85-2.2-2.2-5.48-8.14-7.88-8.14h-.88v-15.5c4.44 0 8.32-3.15 14.28-3.15h3.16c2.96 0 5.08 1.42 4.44 5.47 1.24.68 2.2 3.07 1.16 4.82 1.8 1.7 1.56 4.26.44 5.45.76 0 1.84 1.58 1.84 3.16 0 1.6-1.4 3.17-3.16 3.17z" stroke="#000" stroke-opacity="0" stroke-width=".29" fill="#c92d39"/><path d="M1920 480h160v80h-160z" stroke="#000" stroke-opacity="0" stroke-width="2" fill="#fff" fill-opacity="0"/><g><use xlink:href="#al" transform="matrix(1,0,0,1,1925,485) translate(49.16666666666667 39.65277777777778)"/></g><path d="M1920 540h160v80h-160z" stroke="#000" stroke-opacity="0" stroke-width="2" fill="#fff" fill-opacity="0"/><g><use xlink:href="#am" transform="matrix(1,0,0,1,1925,545) translate(67.00617283950618 39.65277777777778)"/></g><path d="M1920 620h160v140h-160z" stroke="#000" stroke-width="2" fill="#c7e8ac"/><g><use xlink:href="#an" transform="matrix(1,0,0,1,1925,625) translate(10.629629629629619 37.583333333333336)"/><use xlink:href="#ao" transform="matrix(1,0,0,1,1925,625) translate(89 37.583333333333336)"/><use xlink:href="#ap" transform="matrix(1,0,0,1,1925,625) translate(29.88888888888888 69.58333333333334)"/><use xlink:href="#aq" transform="matrix(1,0,0,1,1925,625) translate(99.44444444444446 69.58333333333334)"/><use xlink:href="#ar" transform="matrix(1,0,0,1,1925,625) translate(33.55555555555556 101.58333333333334)"/></g><defs><path d="M199 0l-22-63H83L61 0H9l90-248h61L250 0h-51zm-33-102l-36-108c-10 38-24 72-36 108h72" id="as"/><path d="M25 0v-261h50V0H25" id="at"/><g id="a"><use transform="matrix(0.06172839506172839,0,0,0.06172839506172839,0,0)" xlink:href="#as"/><use transform="matrix(0.06172839506172839,0,0,0.06172839506172839,15.987654320987653,0)" xlink:href="#at"/><use transform="matrix(0.06172839506172839,0,0,0.06172839506172839,22.160493827160494,0)" xlink:href="#at"/></g><path d="M240-174c0 40-23 61-54 70L253 0h-59l-57-94H76V0H24v-248c93 4 217-23 216 74zM76-134c48-2 112 12 112-38 0-48-66-32-112-35v73" id="au"/><path d="M185-48c-13 30-37 53-82 52C43 2 14-33 14-96s30-98 90-98c62 0 83 45 84 108H66c0 31 8 55 39 56 18 0 30-7 34-22zm-45-69c5-46-57-63-70-21-2 6-4 13-4 21h74" id="av"/><path d="M128 0H69L1-190h53L99-40l48-150h52" id="aw"/><path d="M25-224v-37h50v37H25zM25 0v-190h50V0H25" id="ax"/><path d="M231 0h-52l-39-155L100 0H48L-1-190h46L77-45c9-52 24-97 36-145h53l37 145 32-145h46" id="ay"/><path d="M137-138c1-29-70-34-71-4 15 46 118 7 119 86 1 83-164 76-172 9l43-7c4 19 20 25 44 25 33 8 57-30 24-41C81-84 22-81 20-136c-2-80 154-74 161-7" id="az"/><g id="b"><use transform="matrix(0.06172839506172839,0,0,0.06172839506172839,0,0)" xlink:href="#au"/><use transform="matrix(0.06172839506172839,0,0,0.06172839506172839,15.987654320987653,0)" xlink:href="#av"/><use transform="matrix(0.06172839506172839,0,0,0.06172839506172839,28.333333333333332,0)" xlink:href="#aw"/><use transform="matrix(0.06172839506172839,0,0,0.06172839506172839,40.67901234567901,0)" xlink:href="#ax"/><use transform="matrix(0.06172839506172839,0,0,0.06172839506172839,46.851851851851855,0)" xlink:href="#av"/><use transform="matrix(0.06172839506172839,0,0,0.06172839506172839,59.19753086419753,0)" xlink:href="#ay"/><use transform="matrix(0.06172839506172839,0,0,0.06172839506172839,76.48148148148148,0)" xlink:href="#az"/></g><path d="M76-208v77h127v40H76V0H24v-248h183v40H76" id="aA"/><path d="M110-194c64 0 96 36 96 99 0 64-35 99-97 99-61 0-95-36-95-99 0-62 34-99 96-99zm-1 164c35 0 45-28 45-65 0-40-10-65-43-65-34 0-45 26-45 65 0 36 10 65 43 65" id="aB"/><path d="M135-150c-39-12-60 13-60 57V0H25l-1-190h47c2 13-1 29 3 40 6-28 27-53 61-41v41" id="aC"/><g id="c"><use transform="matrix(0.06172839506172839,0,0,0.06172839506172839,0,0)" xlink:href="#aA"/><use transform="matrix(0.06172839506172839,0,0,0.06172839506172839,13.518518518518517,0)" xlink:href="#aB"/><use transform="matrix(0.06172839506172839,0,0,0.06172839506172839,27.037037037037035,0)" xlink:href="#aC"/></g><path d="M115-3C79 11 28 4 28-45v-112H4v-33h27l15-45h31v45h36v33H77v99c-1 23 16 31 38 25v30" id="aD"/><path d="M133-34C117-15 103 5 69 4 32 3 11-16 11-54c-1-60 55-63 116-61 1-26-3-47-28-47-18 1-26 9-28 27l-52-2c7-38 36-58 82-57s74 22 75 68l1 82c-1 14 12 18 25 15v27c-30 8-71 5-69-32zm-48 3c29 0 43-24 42-57-32 0-66-3-65 30 0 17 8 27 23 27" id="aE"/><path d="M85 4C-2 5 27-109 22-190h50c7 57-23 150 33 157 60-5 35-97 40-157h50l1 190h-47c-2-12 1-28-3-38-12 25-28 42-61 42" id="aF"/><path d="M135-194c87-1 58 113 63 194h-50c-7-57 23-157-34-157-59 0-34 97-39 157H25l-1-190h47c2 12-1 28 3 38 12-26 28-41 61-42" id="aG"/><g id="d"><use transform="matrix(0.06172839506172839,0,0,0.06172839506172839,0,0)" xlink:href="#au"/><use transform="matrix(0.06172839506172839,0,0,0.06172839506172839,15.987654320987653,0)" xlink:href="#av"/><use transform="matrix(0.06172839506172839,0,0,0.06172839506172839,28.333333333333332,0)" xlink:href="#az"/><use transform="matrix(0.06172839506172839,0,0,0.06172839506172839,40.67901234567901,0)" xlink:href="#aD"/><use transform="matrix(0.06172839506172839,0,0,0.06172839506172839,48.02469135802469,0)" xlink:href="#aE"/><use transform="matrix(0.06172839506172839,0,0,0.06172839506172839,60.37037037037037,0)" xlink:href="#aF"/><use transform="matrix(0.06172839506172839,0,0,0.06172839506172839,73.88888888888889,0)" xlink:href="#aC"/><use transform="matrix(0.06172839506172839,0,0,0.06172839506172839,82.53086419753086,0)" xlink:href="#aE"/><use transform="matrix(0.06172839506172839,0,0,0.06172839506172839,94.87654320987654,0)" xlink:href="#aG"/><use transform="matrix(0.06172839506172839,0,0,0.06172839506172839,108.39506172839506,0)" xlink:href="#aD"/></g><path d="M182-130c37 4 62 22 62 59C244 23 116-4 24 0v-248c84 5 203-23 205 63 0 31-19 50-47 55zM76-148c40-3 101 13 101-30 0-44-60-28-101-31v61zm0 110c48-3 116 14 116-37 0-48-69-32-116-35v72" id="aH"/><path d="M147 0L96-86 75-71V0H25v-261h50v150l67-79h53l-66 74L201 0h-54" id="aI"/><g id="e"><use transform="matrix(0.06172839506172839,0,0,0.06172839506172839,0,0)" xlink:href="#aH"/><use transform="matrix(0.06172839506172839,0,0,0.06172839506172839,15.987654320987653,0)" xlink:href="#aC"/><use transform="matrix(0.06172839506172839,0,0,0.06172839506172839,24.629629629629626,0)" xlink:href="#av"/><use transform="matrix(0.06172839506172839,0,0,0.06172839506172839,36.9753086419753,0)" xlink:href="#aE"/><use transform="matrix(0.06172839506172839,0,0,0.06172839506172839,49.32098765432098,0)" xlink:href="#aI"/></g><g id="f"><use transform="matrix(0.06172839506172839,0,0,0.06172839506172839,0,0)" xlink:href="#as"/><use transform="matrix(0.06172839506172839,0,0,0.06172839506172839,15.987654320987653,0)" xlink:href="#at"/><use transform="matrix(0.06172839506172839,0,0,0.06172839506172839,22.160493827160494,0)" xlink:href="#at"/></g><g id="g"><use transform="matrix(0.06172839506172839,0,0,0.06172839506172839,0,0)" xlink:href="#au"/><use transform="matrix(0.06172839506172839,0,0,0.06172839506172839,15.987654320987653,0)" xlink:href="#av"/><use transform="matrix(0.06172839506172839,0,0,0.06172839506172839,28.333333333333332,0)" xlink:href="#aw"/><use transform="matrix(0.06172839506172839,0,0,0.06172839506172839,40.67901234567901,0)" xlink:href="#ax"/><use transform="matrix(0.06172839506172839,0,0,0.06172839506172839,46.851851851851855,0)" xlink:href="#av"/><use transform="matrix(0.06172839506172839,0,0,0.06172839506172839,59.19753086419753,0)" xlink:href="#ay"/><use transform="matrix(0.06172839506172839,0,0,0.06172839506172839,76.48148148148148,0)" xlink:href="#az"/></g><path d="M24 0v-248h52V0H24" id="aJ"/><g id="h"><use transform="matrix(0.06172839506172839,0,0,0.06172839506172839,0,0)" xlink:href="#aJ"/><use transform="matrix(0.06172839506172839,0,0,0.06172839506172839,6.172839506172839,0)" xlink:href="#aG"/><use transform="matrix(0.06172839506172839,0,0,0.06172839506172839,19.691358024691358,0)" xlink:href="#aD"/><use transform="matrix(0.06172839506172839,0,0,0.06172839506172839,27.037037037037038,0)" xlink:href="#aB"/></g><path d="M169-182c-1-43-94-46-97-3 18 66 151 10 154 114 3 95-165 93-204 36-6-8-10-19-12-30l50-8c3 46 112 56 116 5-17-69-150-10-154-114-4-87 153-88 188-35 5 8 8 18 10 28" id="aK"/><path d="M190-63c-7 42-38 67-86 67-59 0-84-38-90-98-12-110 154-137 174-36l-49 2c-2-19-15-32-35-32-30 0-35 28-38 64-6 74 65 87 74 30" id="aL"/><g id="i"><use transform="matrix(0.06172839506172839,0,0,0.06172839506172839,0,0)" xlink:href="#aK"/><use transform="matrix(0.06172839506172839,0,0,0.06172839506172839,14.814814814814813,0)" xlink:href="#av"/><use transform="matrix(0.06172839506172839,0,0,0.06172839506172839,27.160493827160494,0)" xlink:href="#aG"/><use transform="matrix(0.06172839506172839,0,0,0.06172839506172839,40.67901234567901,0)" xlink:href="#aD"/><use transform="matrix(0.06172839506172839,0,0,0.06172839506172839,48.02469135802469,0)" xlink:href="#av"/><use transform="matrix(0.06172839506172839,0,0,0.06172839506172839,60.37037037037037,0)" xlink:href="#aG"/><use transform="matrix(0.06172839506172839,0,0,0.06172839506172839,73.88888888888889,0)" xlink:href="#aL"/><use transform="matrix(0.06172839506172839,0,0,0.06172839506172839,86.23456790123457,0)" xlink:href="#av"/><use transform="matrix(0.06172839506172839,0,0,0.06172839506172839,98.58024691358025,0)" xlink:href="#az"/></g><path d="M127-220V0H93v-220H8v-28h204v28h-85" id="aM"/><path d="M106-169C34-169 62-67 57 0H25v-261h32l-1 103c12-21 28-36 61-36 89 0 53 116 60 194h-32v-121c2-32-8-49-39-48" id="aN"/><path d="M100-194c63 0 86 42 84 106H49c0 40 14 67 53 68 26 1 43-12 49-29l28 8c-11 28-37 45-77 45C44 4 14-33 15-96c1-61 26-98 85-98zm52 81c6-60-76-77-97-28-3 7-6 17-6 28h103" id="aO"/><g id="j"><use transform="matrix(0.05,0,0,0.05,0,0)" xlink:href="#aM"/><use transform="matrix(0.05,0,0,0.05,10.950000000000001,0)" xlink:href="#aN"/><use transform="matrix(0.05,0,0,0.05,20.950000000000003,0)" xlink:href="#aO"/></g><path d="M135-143c-3-34-86-38-87 0 15 53 115 12 119 90S17 21 10-45l28-5c4 36 97 45 98 0-10-56-113-15-118-90-4-57 82-63 122-42 12 7 21 19 24 35" id="aP"/><path d="M141-36C126-15 110 5 73 4 37 3 15-17 15-53c-1-64 63-63 125-63 3-35-9-54-41-54-24 1-41 7-42 31l-33-3c5-37 33-52 76-52 45 0 72 20 72 64v82c-1 20 7 32 28 27v20c-31 9-61-2-59-35zM48-53c0 20 12 33 32 33 41-3 63-29 60-74-43 2-92-5-92 41" id="aQ"/><path d="M206 0h-36l-40-164L89 0H53L-1-190h32L70-26l43-164h34l41 164 42-164h31" id="aR"/><path d="M85-194c31 0 48 13 60 33l-1-100h32l1 261h-30c-2-10 0-23-3-31C134-8 116 4 85 4 32 4 16-35 15-94c0-66 23-100 70-100zm9 24c-40 0-46 34-46 75 0 40 6 74 45 74 42 0 51-32 51-76 0-42-9-74-50-73" id="aS"/><g id="k"><use transform="matrix(0.05,0,0,0.05,0,0)" xlink:href="#aP"/><use transform="matrix(0.05,0,0,0.05,9,0)" xlink:href="#aO"/><use transform="matrix(0.05,0,0,0.05,19,0)" xlink:href="#aQ"/><use transform="matrix(0.05,0,0,0.05,29,0)" xlink:href="#aR"/><use transform="matrix(0.05,0,0,0.05,41.95,0)" xlink:href="#aO"/><use transform="matrix(0.05,0,0,0.05,51.95,0)" xlink:href="#aO"/><use transform="matrix(0.05,0,0,0.05,61.95,0)" xlink:href="#aS"/></g><path d="M24 0v-261h32V0H24" id="aT"/><g id="l"><use transform="matrix(0.05,0,0,0.05,0,0)" xlink:href="#aP"/><use transform="matrix(0.05,0,0,0.05,9,0)" xlink:href="#aQ"/><use transform="matrix(0.05,0,0,0.05,19,0)" xlink:href="#aT"/><use transform="matrix(0.05,0,0,0.05,22.95,0)" xlink:href="#aQ"/><use transform="matrix(0.05,0,0,0.05,32.95,0)" xlink:href="#aS"/></g><g id="m"><use transform="matrix(0.05,0,0,0.05,0,0)" xlink:href="#aR"/><use transform="matrix(0.05,0,0,0.05,12.950000000000001,0)" xlink:href="#aQ"/><use transform="matrix(0.05,0,0,0.05,22.950000000000003,0)" xlink:href="#aP"/></g><path d="M24-231v-30h32v30H24zM-9 49c24 4 33-6 33-30v-209h32V24c2 40-23 58-65 49V49" id="aU"/><path d="M84 4C-5 8 30-112 23-190h32v120c0 31 7 50 39 49 72-2 45-101 50-169h31l1 190h-30c-1-10 1-25-2-33-11 22-28 36-60 37" id="aV"/><path d="M59-47c-2 24 18 29 38 22v24C64 9 27 4 27-40v-127H5v-23h24l9-43h21v43h35v23H59v120" id="aW"/><g id="n"><use transform="matrix(0.05,0,0,0.05,0,0)" xlink:href="#aU"/><use transform="matrix(0.05,0,0,0.05,3.95,0)" xlink:href="#aV"/><use transform="matrix(0.05,0,0,0.05,13.949999999999998,0)" xlink:href="#aP"/><use transform="matrix(0.05,0,0,0.05,22.95,0)" xlink:href="#aW"/></g><path d="M140-251c81 0 123 46 123 126C263-46 219 4 140 4 59 4 17-45 17-125s42-126 123-126zm0 227c63 0 89-41 89-101s-29-99-89-99c-61 0-89 39-89 99S79-25 140-24" id="aX"/><path d="M194 0L95-120 63-95V0H30v-248h33v124l119-124h40L117-140 236 0h-42" id="aY"/><path d="M68-38c1 34 0 65-14 84H32c9-13 17-26 17-46H33v-38h35" id="aZ"/><g id="o"><use transform="matrix(0.05,0,0,0.05,0,0)" xlink:href="#aX"/><use transform="matrix(0.05,0,0,0.05,14,0)" xlink:href="#aY"/><use transform="matrix(0.05,0,0,0.05,26,0)" xlink:href="#aZ"/></g><path d="M108 0H70L1-190h34L89-25l56-165h34" id="ba"/><path d="M177-190C167-65 218 103 67 71c-23-6-38-20-44-43l32-5c15 47 100 32 89-28v-30C133-14 115 1 83 1 29 1 15-40 15-95c0-56 16-97 71-98 29-1 48 16 59 35 1-10 0-23 2-32h30zM94-22c36 0 50-32 50-73 0-42-14-75-50-75-39 0-46 34-46 75s6 73 46 73" id="bb"/><path d="M115-194c53 0 69 39 70 98 0 66-23 100-70 100C84 3 66-7 56-30L54 0H23l1-261h32v101c10-23 28-34 59-34zm-8 174c40 0 45-34 45-75 0-40-5-75-45-74-42 0-51 32-51 76 0 43 10 73 51 73" id="bc"/><g id="p"><use transform="matrix(0.05,0,0,0.05,0,0)" xlink:href="#ba"/><use transform="matrix(0.05,0,0,0.05,9,0)" xlink:href="#aO"/><use transform="matrix(0.05,0,0,0.05,19,0)" xlink:href="#bb"/><use transform="matrix(0.05,0,0,0.05,29,0)" xlink:href="#aO"/><use transform="matrix(0.05,0,0,0.05,39,0)" xlink:href="#aW"/><use transform="matrix(0.05,0,0,0.05,44,0)" xlink:href="#aQ"/><use transform="matrix(0.05,0,0,0.05,54,0)" xlink:href="#bc"/><use transform="matrix(0.05,0,0,0.05,64,0)" xlink:href="#aT"/><use transform="matrix(0.05,0,0,0.05,67.95,0)" xlink:href="#aO"/></g><g id="q"><use transform="matrix(0.05,0,0,0.05,0,0)" xlink:href="#aP"/><use transform="matrix(0.05,0,0,0.05,9,0)" xlink:href="#aQ"/><use transform="matrix(0.05,0,0,0.05,19,0)" xlink:href="#aT"/><use transform="matrix(0.05,0,0,0.05,22.95,0)" xlink:href="#aS"/></g><path d="M100-194c62-1 85 37 85 99 1 63-27 99-86 99S16-35 15-95c0-66 28-99 85-99zM99-20c44 1 53-31 53-75 0-43-8-75-51-75s-53 32-53 75 10 74 51 75" id="bd"/><path d="M114-163C36-179 61-72 57 0H25l-1-190h30c1 12-1 29 2 39 6-27 23-49 58-41v29" id="be"/><path d="M24-231v-30h32v30H24zM24 0v-190h32V0H24" id="bf"/><path d="M117-194c89-4 53 116 60 194h-32v-121c0-31-8-49-39-48C34-167 62-67 57 0H25l-1-190h30c1 10-1 24 2 32 11-22 29-35 61-36" id="bg"/><path d="M179-190L93 31C79 59 56 82 12 73V49c39 6 53-20 64-50L1-190h34L92-34l54-156h33" id="bh"/><path d="M33 0v-38h34V0H33" id="bi"/><g id="r"><use transform="matrix(0.05,0,0,0.05,0,0)" xlink:href="#bd"/><use transform="matrix(0.05,0,0,0.05,10,0)" xlink:href="#be"/><use transform="matrix(0.05,0,0,0.05,15.949999999999998,0)" xlink:href="#aS"/><use transform="matrix(0.05,0,0,0.05,25.950000000000003,0)" xlink:href="#bf"/><use transform="matrix(0.05,0,0,0.05,29.899999999999995,0)" xlink:href="#bg"/><use transform="matrix(0.05,0,0,0.05,39.9,0)" xlink:href="#aQ"/><use transform="matrix(0.05,0,0,0.05,49.9,0)" xlink:href="#be"/><use transform="matrix(0.05,0,0,0.05,55.85,0)" xlink:href="#bh"/><use transform="matrix(0.05,0,0,0.05,63.5,0)" xlink:href="#bi"/></g><path d="M33 0v-248h34V0H33" id="bj"/><use transform="matrix(0.05,0,0,0.05,0,0)" xlink:href="#bj" id="s"/><path d="M143 0L79-87 56-68V0H24v-261h32v163l83-92h37l-77 82L181 0h-38" id="bk"/><g id="t"><use transform="matrix(0.05,0,0,0.05,0,0)" xlink:href="#aT"/><use transform="matrix(0.05,0,0,0.05,3.95,0)" xlink:href="#bf"/><use transform="matrix(0.05,0,0,0.05,7.9,0)" xlink:href="#bk"/><use transform="matrix(0.05,0,0,0.05,16.9,0)" xlink:href="#aO"/></g><g id="u"><use transform="matrix(0.05,0,0,0.05,0,0)" xlink:href="#aW"/><use transform="matrix(0.05,0,0,0.05,5,0)" xlink:href="#aN"/><use transform="matrix(0.05,0,0,0.05,15,0)" xlink:href="#aO"/></g><g id="v"><use transform="matrix(0.05,0,0,0.05,0,0)" xlink:href="#bf"/><use transform="matrix(0.05,0,0,0.05,3.95,0)" xlink:href="#bg"/><use transform="matrix(0.05,0,0,0.05,13.949999999999998,0)" xlink:href="#aW"/><use transform="matrix(0.05,0,0,0.05,18.95,0)" xlink:href="#aO"/><use transform="matrix(0.05,0,0,0.05,28.950000000000003,0)" xlink:href="#be"/><use transform="matrix(0.05,0,0,0.05,34.9,0)" xlink:href="#bf"/><use transform="matrix(0.05,0,0,0.05,38.85,0)" xlink:href="#bd"/><use transform="matrix(0.05,0,0,0.05,48.85,0)" xlink:href="#be"/></g><path d="M96-169c-40 0-48 33-48 73s9 75 48 75c24 0 41-14 43-38l32 2c-6 37-31 61-74 61-59 0-76-41-82-99-10-93 101-131 147-64 4 7 5 14 7 22l-32 3c-4-21-16-35-41-35" id="bl"/><g id="w"><use transform="matrix(0.05,0,0,0.05,0,0)" xlink:href="#aS"/><use transform="matrix(0.05,0,0,0.05,10,0)" xlink:href="#aO"/><use transform="matrix(0.05,0,0,0.05,20,0)" xlink:href="#bl"/><use transform="matrix(0.05,0,0,0.05,29,0)" xlink:href="#bd"/><use transform="matrix(0.05,0,0,0.05,39,0)" xlink:href="#be"/><use transform="matrix(0.05,0,0,0.05,44.95,0)" xlink:href="#aQ"/><use transform="matrix(0.05,0,0,0.05,54.95,0)" xlink:href="#aW"/><use transform="matrix(0.05,0,0,0.05,59.95,0)" xlink:href="#bf"/><use transform="matrix(0.05,0,0,0.05,63.900000000000006,0)" xlink:href="#bd"/><use transform="matrix(0.05,0,0,0.05,73.9,0)" xlink:href="#bg"/></g><g id="x"><use transform="matrix(0.05,0,0,0.05,0,0)" xlink:href="#aQ"/><use transform="matrix(0.05,0,0,0.05,10,0)" xlink:href="#bg"/><use transform="matrix(0.05,0,0,0.05,20,0)" xlink:href="#aS"/></g><g id="y"><use transform="matrix(0.05,0,0,0.05,0,0)" xlink:href="#aW"/><use transform="matrix(0.05,0,0,0.05,5,0)" xlink:href="#aN"/><use transform="matrix(0.05,0,0,0.05,15,0)" xlink:href="#aO"/></g><g id="z"><use transform="matrix(0.05,0,0,0.05,0,0)" xlink:href="#bc"/><use transform="matrix(0.05,0,0,0.05,10,0)" xlink:href="#aT"/><use transform="matrix(0.05,0,0,0.05,13.949999999999998,0)" xlink:href="#aQ"/><use transform="matrix(0.05,0,0,0.05,23.95,0)" xlink:href="#bl"/><use transform="matrix(0.05,0,0,0.05,32.95,0)" xlink:href="#bk"/><use transform="matrix(0.05,0,0,0.05,41.95,0)" xlink:href="#bc"/><use transform="matrix(0.05,0,0,0.05,51.95,0)" xlink:href="#bd"/><use transform="matrix(0.05,0,0,0.05,61.95,0)" xlink:href="#aQ"/><use transform="matrix(0.05,0,0,0.05,71.95,0)" xlink:href="#be"/><use transform="matrix(0.05,0,0,0.05,77.9,0)" xlink:href="#aS"/></g><path d="M210-169c-67 3-38 105-44 169h-31v-121c0-29-5-50-35-48C34-165 62-65 56 0H25l-1-190h30c1 10-1 24 2 32 10-44 99-50 107 0 11-21 27-35 58-36 85-2 47 119 55 194h-31v-121c0-29-5-49-35-48" id="bm"/><g id="A"><use transform="matrix(0.05,0,0,0.05,0,0)" xlink:href="#bm"/><use transform="matrix(0.05,0,0,0.05,14.950000000000001,0)" xlink:href="#aO"/><use transform="matrix(0.05,0,0,0.05,24.950000000000003,0)" xlink:href="#bg"/><use transform="matrix(0.05,0,0,0.05,34.95,0)" xlink:href="#aV"/></g><g id="B"><use transform="matrix(0.05,0,0,0.05,0,0)" xlink:href="#bd"/><use transform="matrix(0.05,0,0,0.05,10,0)" xlink:href="#bg"/></g><g id="C"><use transform="matrix(0.05,0,0,0.05,0,0)" xlink:href="#aR"/><use transform="matrix(0.05,0,0,0.05,12.950000000000001,0)" xlink:href="#aQ"/><use transform="matrix(0.05,0,0,0.05,22.950000000000003,0)" xlink:href="#aT"/><use transform="matrix(0.05,0,0,0.05,26.900000000000002,0)" xlink:href="#aT"/><use transform="matrix(0.05,0,0,0.05,30.85,0)" xlink:href="#bi"/></g><path d="M205 0l-28-72H64L36 0H1l101-248h38L239 0h-34zm-38-99l-47-123c-12 45-31 82-46 123h93" id="bn"/><g id="D"><use transform="matrix(0.05,0,0,0.05,0,0)" xlink:href="#bn"/><use transform="matrix(0.05,0,0,0.05,12,0)" xlink:href="#aT"/><use transform="matrix(0.05,0,0,0.05,15.949999999999998,0)" xlink:href="#aT"/></g><g id="E"><use transform="matrix(0.05,0,0,0.05,0,0)" xlink:href="#aP"/><use transform="matrix(0.05,0,0,0.05,9,0)" xlink:href="#aV"/><use transform="matrix(0.05,0,0,0.05,19,0)" xlink:href="#aP"/><use transform="matrix(0.05,0,0,0.05,28,0)" xlink:href="#aN"/><use transform="matrix(0.05,0,0,0.05,38,0)" xlink:href="#bf"/></g><g id="F"><use transform="matrix(0.05,0,0,0.05,0,0)" xlink:href="#aS"/><use transform="matrix(0.05,0,0,0.05,10,0)" xlink:href="#aO"/><use transform="matrix(0.05,0,0,0.05,20,0)" xlink:href="#aT"/><use transform="matrix(0.05,0,0,0.05,23.95,0)" xlink:href="#bf"/><use transform="matrix(0.05,0,0,0.05,27.899999999999995,0)" xlink:href="#bl"/><use transform="matrix(0.05,0,0,0.05,36.9,0)" xlink:href="#bf"/><use transform="matrix(0.05,0,0,0.05,40.85,0)" xlink:href="#bd"/><use transform="matrix(0.05,0,0,0.05,50.85,0)" xlink:href="#aV"/><use transform="matrix(0.05,0,0,0.05,60.85,0)" xlink:href="#aP"/><use transform="matrix(0.05,0,0,0.05,69.85,0)" xlink:href="#bi"/></g><path d="M240 0l2-218c-23 76-54 145-80 218h-23L58-218 59 0H30v-248h44l77 211c21-75 51-140 76-211h43V0h-30" id="bo"/><g id="G"><use transform="matrix(0.05,0,0,0.05,0,0)" xlink:href="#bo"/><use transform="matrix(0.05,0,0,0.05,14.950000000000001,0)" xlink:href="#bh"/></g><path d="M101-234c-31-9-42 10-38 44h38v23H63V0H32v-167H5v-23h27c-7-52 17-82 69-68v24" id="bp"/><g id="H"><use transform="matrix(0.05,0,0,0.05,0,0)" xlink:href="#aR"/><use transform="matrix(0.05,0,0,0.05,12.950000000000001,0)" xlink:href="#bf"/><use transform="matrix(0.05,0,0,0.05,16.900000000000002,0)" xlink:href="#bp"/><use transform="matrix(0.05,0,0,0.05,21.900000000000002,0)" xlink:href="#aO"/></g><g id="I"><use transform="matrix(0.05,0,0,0.05,0,0)" xlink:href="#aW"/><use transform="matrix(0.05,0,0,0.05,5,0)" xlink:href="#be"/><use transform="matrix(0.05,0,0,0.05,10.95,0)" xlink:href="#bf"/><use transform="matrix(0.05,0,0,0.05,14.899999999999999,0)" xlink:href="#aO"/><use transform="matrix(0.05,0,0,0.05,24.9,0)" xlink:href="#aS"/></g><g id="J"><use transform="matrix(0.05,0,0,0.05,0,0)" xlink:href="#aW"/><use transform="matrix(0.05,0,0,0.05,5,0)" xlink:href="#aN"/><use transform="matrix(0.05,0,0,0.05,15,0)" xlink:href="#aO"/><use transform="matrix(0.05,0,0,0.05,25,0)" xlink:href="#bf"/><use transform="matrix(0.05,0,0,0.05,28.950000000000003,0)" xlink:href="#be"/></g><g id="K"><use transform="matrix(0.05,0,0,0.05,0,0)" xlink:href="#be"/><use transform="matrix(0.05,0,0,0.05,5.95,0)" xlink:href="#aQ"/><use transform="matrix(0.05,0,0,0.05,15.949999999999998,0)" xlink:href="#bm"/><use transform="matrix(0.05,0,0,0.05,30.899999999999995,0)" xlink:href="#aO"/><use transform="matrix(0.05,0,0,0.05,40.9,0)" xlink:href="#bg"/></g><g id="L"><use transform="matrix(0.05,0,0,0.05,0,0)" xlink:href="#bf"/><use transform="matrix(0.05,0,0,0.05,3.95,0)" xlink:href="#aW"/></g><g id="M"><use transform="matrix(0.05,0,0,0.05,0,0)" xlink:href="#aR"/><use transform="matrix(0.05,0,0,0.05,12.950000000000001,0)" xlink:href="#aQ"/><use transform="matrix(0.05,0,0,0.05,22.950000000000003,0)" xlink:href="#aP"/></g><path d="M115-194c55 1 70 41 70 98S169 2 115 4C84 4 66-9 55-30l1 105H24l-1-265h31l2 30c10-21 28-34 59-34zm-8 174c40 0 45-34 45-75s-6-73-45-74c-42 0-51 32-51 76 0 43 10 73 51 73" id="bq"/><g id="N"><use transform="matrix(0.05,0,0,0.05,0,0)" xlink:href="#bq"/><use transform="matrix(0.05,0,0,0.05,10,0)" xlink:href="#be"/><use transform="matrix(0.05,0,0,0.05,15.949999999999998,0)" xlink:href="#aO"/><use transform="matrix(0.05,0,0,0.05,25.950000000000003,0)" xlink:href="#aW"/><use transform="matrix(0.05,0,0,0.05,30.950000000000003,0)" xlink:href="#aW"/><use transform="matrix(0.05,0,0,0.05,35.95,0)" xlink:href="#bh"/></g><g id="O"><use transform="matrix(0.05,0,0,0.05,0,0)" xlink:href="#bp"/><use transform="matrix(0.05,0,0,0.05,5,0)" xlink:href="#bd"/><use transform="matrix(0.05,0,0,0.05,15,0)" xlink:href="#be"/><use transform="matrix(0.05,0,0,0.05,20.95,0)" xlink:href="#bb"/><use transform="matrix(0.05,0,0,0.05,30.950000000000003,0)" xlink:href="#aO"/><use transform="matrix(0.05,0,0,0.05,40.95,0)" xlink:href="#aW"/><use transform="matrix(0.05,0,0,0.05,45.95,0)" xlink:href="#aW"/><use transform="matrix(0.05,0,0,0.05,50.95,0)" xlink:href="#aQ"/><use transform="matrix(0.05,0,0,0.05,60.95,0)" xlink:href="#bc"/><use transform="matrix(0.05,0,0,0.05,70.95,0)" xlink:href="#aT"/><use transform="matrix(0.05,0,0,0.05,74.9,0)" xlink:href="#aO"/><use transform="matrix(0.05,0,0,0.05,84.9,0)" xlink:href="#bi"/></g><path d="M9 0v-24l116-142H16v-24h144v24L44-24h123V0H9" id="br"/><g id="P"><use transform="matrix(0.05,0,0,0.05,0,0)" xlink:href="#aQ"/><use transform="matrix(0.05,0,0,0.05,10,0)" xlink:href="#bm"/><use transform="matrix(0.05,0,0,0.05,24.950000000000003,0)" xlink:href="#aQ"/><use transform="matrix(0.05,0,0,0.05,34.95,0)" xlink:href="#br"/><use transform="matrix(0.05,0,0,0.05,43.95,0)" xlink:href="#bf"/><use transform="matrix(0.05,0,0,0.05,47.900000000000006,0)" xlink:href="#bg"/><use transform="matrix(0.05,0,0,0.05,57.900000000000006,0)" xlink:href="#bb"/><use transform="matrix(0.05,0,0,0.05,67.9,0)" xlink:href="#aZ"/></g><g id="Q"><use transform="matrix(0.05,0,0,0.05,0,0)" xlink:href="#be"/><use transform="matrix(0.05,0,0,0.05,5.95,0)" xlink:href="#bf"/><use transform="matrix(0.05,0,0,0.05,9.9,0)" xlink:href="#bl"/><use transform="matrix(0.05,0,0,0.05,18.9,0)" xlink:href="#aO"/></g><g id="R"><use transform="matrix(0.05,0,0,0.05,0,0)" xlink:href="#bf"/><use transform="matrix(0.05,0,0,0.05,3.95,0)" xlink:href="#aP"/></g><g id="S"><use transform="matrix(0.05,0,0,0.05,0,0)" xlink:href="#bd"/><use transform="matrix(0.05,0,0,0.05,10,0)" xlink:href="#aV"/><use transform="matrix(0.05,0,0,0.05,20,0)" xlink:href="#aW"/><use transform="matrix(0.05,0,0,0.05,25,0)" xlink:href="#aP"/><use transform="matrix(0.05,0,0,0.05,34,0)" xlink:href="#aW"/><use transform="matrix(0.05,0,0,0.05,39,0)" xlink:href="#aQ"/><use transform="matrix(0.05,0,0,0.05,49,0)" xlink:href="#bg"/><use transform="matrix(0.05,0,0,0.05,59,0)" xlink:href="#aS"/><use transform="matrix(0.05,0,0,0.05,69,0)" xlink:href="#bf"/><use transform="matrix(0.05,0,0,0.05,72.95,0)" xlink:href="#bg"/><use transform="matrix(0.05,0,0,0.05,82.95,0)" xlink:href="#bb"/><use transform="matrix(0.05,0,0,0.05,92.95,0)" xlink:href="#bi"/></g><g id="T"><use transform="matrix(0.05,0,0,0.05,0,0)" xlink:href="#aP"/><use transform="matrix(0.05,0,0,0.05,9,0)" xlink:href="#aO"/><use transform="matrix(0.05,0,0,0.05,19,0)" xlink:href="#be"/><use transform="matrix(0.05,0,0,0.05,24.95,0)" xlink:href="#ba"/><use transform="matrix(0.05,0,0,0.05,33.95,0)" xlink:href="#bf"/><use transform="matrix(0.05,0,0,0.05,37.900000000000006,0)" xlink:href="#bl"/><use transform="matrix(0.05,0,0,0.05,46.900000000000006,0)" xlink:href="#aO"/></g><g id="U"><use transform="matrix(0.05,0,0,0.05,0,0)" xlink:href="#bf"/><use transform="matrix(0.05,0,0,0.05,3.95,0)" xlink:href="#aP"/></g><g id="V"><use transform="matrix(0.05,0,0,0.05,0,0)" xlink:href="#aP"/><use transform="matrix(0.05,0,0,0.05,9,0)" xlink:href="#bd"/><use transform="matrix(0.05,0,0,0.05,19,0)" xlink:href="#bm"/><use transform="matrix(0.05,0,0,0.05,33.95,0)" xlink:href="#aO"/><use transform="matrix(0.05,0,0,0.05,43.95,0)" xlink:href="#aR"/><use transform="matrix(0.05,0,0,0.05,56.900000000000006,0)" xlink:href="#aN"/><use transform="matrix(0.05,0,0,0.05,66.9,0)" xlink:href="#aQ"/><use transform="matrix(0.05,0,0,0.05,76.9,0)" xlink:href="#aW"/></g><g id="W"><use transform="matrix(0.05,0,0,0.05,0,0)" xlink:href="#aN"/><use transform="matrix(0.05,0,0,0.05,10,0)" xlink:href="#aO"/><use transform="matrix(0.05,0,0,0.05,20,0)" xlink:href="#bl"/><use transform="matrix(0.05,0,0,0.05,29,0)" xlink:href="#aW"/><use transform="matrix(0.05,0,0,0.05,34,0)" xlink:href="#bf"/><use transform="matrix(0.05,0,0,0.05,37.95,0)" xlink:href="#bl"/><use transform="matrix(0.05,0,0,0.05,46.95,0)" xlink:href="#bi"/></g><path d="M30 0v-248h187v28H63v79h144v27H63v87h162V0H30" id="bs"/><g id="X"><use transform="matrix(0.05,0,0,0.05,0,0)" xlink:href="#bs"/><use transform="matrix(0.05,0,0,0.05,12,0)" xlink:href="#aQ"/><use transform="matrix(0.05,0,0,0.05,22,0)" xlink:href="#aP"/><use transform="matrix(0.05,0,0,0.05,31,0)" xlink:href="#bf"/><use transform="matrix(0.05,0,0,0.05,34.95,0)" xlink:href="#aT"/><use transform="matrix(0.05,0,0,0.05,38.900000000000006,0)" xlink:href="#bh"/></g><g id="Y"><use transform="matrix(0.05,0,0,0.05,0,0)" xlink:href="#bc"/><use transform="matrix(0.05,0,0,0.05,10,0)" xlink:href="#aO"/><use transform="matrix(0.05,0,0,0.05,20,0)" xlink:href="#aP"/><use transform="matrix(0.05,0,0,0.05,29,0)" xlink:href="#aW"/></g><g id="Z"><use transform="matrix(0.05,0,0,0.05,0,0)" xlink:href="#bf"/><use transform="matrix(0.05,0,0,0.05,3.95,0)" xlink:href="#bg"/></g><path d="M185-189c-5-48-123-54-124 2 14 75 158 14 163 119 3 78-121 87-175 55-17-10-28-26-33-46l33-7c5 56 141 63 141-1 0-78-155-14-162-118-5-82 145-84 179-34 5 7 8 16 11 25" id="bt"/><g id="aa"><use transform="matrix(0.05,0,0,0.05,0,0)" xlink:href="#bt"/><use transform="matrix(0.05,0,0,0.05,12,0)" xlink:href="#aO"/><use transform="matrix(0.05,0,0,0.05,22,0)" xlink:href="#aQ"/><use transform="matrix(0.05,0,0,0.05,32,0)" xlink:href="#aW"/><use transform="matrix(0.05,0,0,0.05,37,0)" xlink:href="#aW"/><use transform="matrix(0.05,0,0,0.05,42,0)" xlink:href="#aT"/><use transform="matrix(0.05,0,0,0.05,45.95,0)" xlink:href="#aO"/><use transform="matrix(0.05,0,0,0.05,55.95,0)" xlink:href="#bi"/></g><g id="ab"><use transform="matrix(0.06172839506172839,0,0,0.06172839506172839,0,0)" xlink:href="#aK"/><use transform="matrix(0.06172839506172839,0,0,0.06172839506172839,14.814814814814813,0)" xlink:href="#av"/><use transform="matrix(0.06172839506172839,0,0,0.06172839506172839,27.160493827160494,0)" xlink:href="#at"/><use transform="matrix(0.06172839506172839,0,0,0.06172839506172839,33.333333333333336,0)" xlink:href="#av"/><use transform="matrix(0.06172839506172839,0,0,0.06172839506172839,45.67901234567901,0)" xlink:href="#aL"/><use transform="matrix(0.06172839506172839,0,0,0.06172839506172839,58.02469135802469,0)" xlink:href="#aD"/></g><g id="ac"><use transform="matrix(0.06172839506172839,0,0,0.06172839506172839,0,0)" xlink:href="#aK"/><use transform="matrix(0.06172839506172839,0,0,0.06172839506172839,14.814814814814813,0)" xlink:href="#av"/><use transform="matrix(0.06172839506172839,0,0,0.06172839506172839,27.160493827160494,0)" xlink:href="#aG"/><use transform="matrix(0.06172839506172839,0,0,0.06172839506172839,40.67901234567901,0)" xlink:href="#aD"/><use transform="matrix(0.06172839506172839,0,0,0.06172839506172839,48.02469135802469,0)" xlink:href="#av"/><use transform="matrix(0.06172839506172839,0,0,0.06172839506172839,60.37037037037037,0)" xlink:href="#aG"/><use transform="matrix(0.06172839506172839,0,0,0.06172839506172839,73.88888888888889,0)" xlink:href="#aL"/><use transform="matrix(0.06172839506172839,0,0,0.06172839506172839,86.23456790123457,0)" xlink:href="#av"/><use transform="matrix(0.06172839506172839,0,0,0.06172839506172839,98.58024691358025,0)" xlink:href="#az"/></g><path d="M135-194c52 0 70 43 70 98 0 56-19 99-73 100-30 1-46-15-58-35L72 0H24l1-261h50v104c11-23 29-37 60-37zM114-30c31 0 40-27 40-66 0-37-7-63-39-63s-41 28-41 65c0 36 8 64 40 64" id="bu"/><g id="ad"><use transform="matrix(0.06172839506172839,0,0,0.06172839506172839,0,0)" xlink:href="#as"/><use transform="matrix(0.06172839506172839,0,0,0.06172839506172839,15.987654320987653,0)" xlink:href="#bu"/><use transform="matrix(0.06172839506172839,0,0,0.06172839506172839,29.50617283950617,0)" xlink:href="#aB"/><use transform="matrix(0.06172839506172839,0,0,0.06172839506172839,43.02469135802469,0)" xlink:href="#aF"/><use transform="matrix(0.06172839506172839,0,0,0.06172839506172839,56.54320987654321,0)" xlink:href="#aD"/></g><path d="M142-158h-39l-4-90h48zm-75 0H28l-4-90h48" id="bv"/><path d="M114-157C55-157 80-60 75 0H25v-261h50l-1 109c12-26 28-41 61-42 86-1 58 113 63 194h-50c-7-57 23-157-34-157" id="bw"/><g id="ae"><use transform="matrix(0.06172839506172839,0,0,0.06172839506172839,0,0)" xlink:href="#bv"/><use transform="matrix(0.06172839506172839,0,0,0.06172839506172839,10.493827160493826,0)" xlink:href="#aK"/><use transform="matrix(0.06172839506172839,0,0,0.06172839506172839,25.30864197530864,0)" xlink:href="#aF"/><use transform="matrix(0.06172839506172839,0,0,0.06172839506172839,38.82716049382716,0)" xlink:href="#az"/><use transform="matrix(0.06172839506172839,0,0,0.06172839506172839,51.172839506172835,0)" xlink:href="#bw"/><use transform="matrix(0.06172839506172839,0,0,0.06172839506172839,64.69135802469135,0)" xlink:href="#ax"/><use transform="matrix(0.06172839506172839,0,0,0.06172839506172839,70.86419753086419,0)" xlink:href="#bv"/></g><path fill="#fff" d="M169-182c-1-43-94-46-97-3 18 66 151 10 154 114 3 95-165 93-204 36-6-8-10-19-12-30l50-8c3 46 112 56 116 5-17-69-150-10-154-114-4-87 153-88 188-35 5 8 8 18 10 28" id="bx"/><path fill="#fff" d="M185-48c-13 30-37 53-82 52C43 2 14-33 14-96s30-98 90-98c62 0 83 45 84 108H66c0 31 8 55 39 56 18 0 30-7 34-22zm-45-69c5-46-57-63-70-21-2 6-4 13-4 21h74" id="by"/><path fill="#fff" d="M135-194c87-1 58 113 63 194h-50c-7-57 23-157-34-157-59 0-34 97-39 157H25l-1-190h47c2 12-1 28 3 38 12-26 28-41 61-42" id="bz"/><path fill="#fff" d="M115-3C79 11 28 4 28-45v-112H4v-33h27l15-45h31v45h36v33H77v99c-1 23 16 31 38 25v30" id="bA"/><path fill="#fff" d="M190-63c-7 42-38 67-86 67-59 0-84-38-90-98-12-110 154-137 174-36l-49 2c-2-19-15-32-35-32-30 0-35 28-38 64-6 74 65 87 74 30" id="bB"/><g id="af"><use transform="matrix(0.06172839506172839,0,0,0.06172839506172839,0,0)" xlink:href="#bx"/><use transform="matrix(0.06172839506172839,0,0,0.06172839506172839,14.814814814814813,0)" xlink:href="#by"/><use transform="matrix(0.06172839506172839,0,0,0.06172839506172839,27.160493827160494,0)" xlink:href="#bz"/><use transform="matrix(0.06172839506172839,0,0,0.06172839506172839,40.67901234567901,0)" xlink:href="#bA"/><use transform="matrix(0.06172839506172839,0,0,0.06172839506172839,48.02469135802469,0)" xlink:href="#by"/><use transform="matrix(0.06172839506172839,0,0,0.06172839506172839,60.37037037037037,0)" xlink:href="#bz"/><use transform="matrix(0.06172839506172839,0,0,0.06172839506172839,73.88888888888889,0)" xlink:href="#bB"/><use transform="matrix(0.06172839506172839,0,0,0.06172839506172839,86.23456790123457,0)" xlink:href="#by"/></g><path fill="#fff" d="M25-224v-37h50v37H25zM25 0v-190h50V0H25" id="bC"/><path fill="#fff" d="M220-157c-53 9-28 100-34 157h-49v-107c1-27-5-49-29-50C55-147 81-57 75 0H25l-1-190h47c2 12-1 28 3 38 10-53 101-56 108 0 13-22 24-43 59-42 82 1 51 116 57 194h-49v-107c-1-25-5-48-29-50" id="bD"/><g id="ag"><use transform="matrix(0.06172839506172839,0,0,0.06172839506172839,0,0)" xlink:href="#bx"/><use transform="matrix(0.06172839506172839,0,0,0.06172839506172839,14.814814814814813,0)" xlink:href="#by"/><use transform="matrix(0.06172839506172839,0,0,0.06172839506172839,27.160493827160494,0)" xlink:href="#bz"/><use transform="matrix(0.06172839506172839,0,0,0.06172839506172839,40.67901234567901,0)" xlink:href="#bA"/><use transform="matrix(0.06172839506172839,0,0,0.06172839506172839,48.02469135802469,0)" xlink:href="#bC"/><use transform="matrix(0.06172839506172839,0,0,0.06172839506172839,54.19753086419753,0)" xlink:href="#bD"/><use transform="matrix(0.06172839506172839,0,0,0.06172839506172839,73.95061728395062,0)" xlink:href="#by"/><use transform="matrix(0.06172839506172839,0,0,0.06172839506172839,86.2962962962963,0)" xlink:href="#bz"/><use transform="matrix(0.06172839506172839,0,0,0.06172839506172839,99.81481481481482,0)" xlink:href="#bA"/></g><path fill="#fff" d="M67-125c0 53 21 87 73 88 37 1 54-22 65-47l45 17C233-25 199 4 140 4 58 4 20-42 15-125 8-235 124-281 211-232c18 10 29 29 36 50l-46 12c-8-25-30-41-62-41-52 0-71 34-72 86" id="bE"/><path fill="#fff" d="M25 0v-261h50V0H25" id="bF"/><path fill="#fff" d="M133-34C117-15 103 5 69 4 32 3 11-16 11-54c-1-60 55-63 116-61 1-26-3-47-28-47-18 1-26 9-28 27l-52-2c7-38 36-58 82-57s74 22 75 68l1 82c-1 14 12 18 25 15v27c-30 8-71 5-69-32zm-48 3c29 0 43-24 42-57-32 0-66-3-65 30 0 17 8 27 23 27" id="bG"/><path fill="#fff" d="M137-138c1-29-70-34-71-4 15 46 118 7 119 86 1 83-164 76-172 9l43-7c4 19 20 25 44 25 33 8 57-30 24-41C81-84 22-81 20-136c-2-80 154-74 161-7" id="bH"/><path fill="#fff" d="M121-226c-27-7-43 5-38 36h38v33H83V0H34v-157H6v-33h28c-9-59 32-81 87-68v32" id="bI"/><path fill="#fff" d="M135-150c-39-12-60 13-60 57V0H25l-1-190h47c2 13-1 29 3 40 6-28 27-53 61-41v41" id="bJ"/><g id="ah"><use transform="matrix(0.06172839506172839,0,0,0.06172839506172839,0,0)" xlink:href="#bE"/><use transform="matrix(0.06172839506172839,0,0,0.06172839506172839,15.987654320987653,0)" xlink:href="#bF"/><use transform="matrix(0.06172839506172839,0,0,0.06172839506172839,22.160493827160494,0)" xlink:href="#bG"/><use transform="matrix(0.06172839506172839,0,0,0.06172839506172839,34.50617283950617,0)" xlink:href="#bH"/><use transform="matrix(0.06172839506172839,0,0,0.06172839506172839,46.85185185185185,0)" xlink:href="#bH"/><use transform="matrix(0.06172839506172839,0,0,0.06172839506172839,59.197530864197525,0)" xlink:href="#bC"/><use transform="matrix(0.06172839506172839,0,0,0.06172839506172839,65.37037037037037,0)" xlink:href="#bI"/><use transform="matrix(0.06172839506172839,0,0,0.06172839506172839,72.71604938271605,0)" xlink:href="#bC"/><use transform="matrix(0.06172839506172839,0,0,0.06172839506172839,78.88888888888889,0)" xlink:href="#by"/><use transform="matrix(0.06172839506172839,0,0,0.06172839506172839,91.23456790123457,0)" xlink:href="#bJ"/></g><path d="M195-6C206 82 75 100 31 46c-4-6-6-13-8-21l49-6c3 16 16 24 34 25 40 0 42-37 40-79-11 22-30 35-61 35-53 0-70-43-70-97 0-56 18-96 73-97 30 0 46 14 59 34l2-30h47zm-90-29c32 0 41-27 41-63 0-35-9-62-40-62-32 0-39 29-40 63 0 36 9 62 39 62" id="bK"/><g id="ai"><use transform="matrix(0.06172839506172839,0,0,0.06172839506172839,0,0)" xlink:href="#as"/><use transform="matrix(0.06172839506172839,0,0,0.06172839506172839,15.185185185185183,0)" xlink:href="#aw"/><use transform="matrix(0.06172839506172839,0,0,0.06172839506172839,27.53086419753086,0)" xlink:href="#av"/><use transform="matrix(0.06172839506172839,0,0,0.06172839506172839,39.87654320987654,0)" xlink:href="#aC"/><use transform="matrix(0.06172839506172839,0,0,0.06172839506172839,48.51851851851851,0)" xlink:href="#aE"/><use transform="matrix(0.06172839506172839,0,0,0.06172839506172839,60.86419753086419,0)" xlink:href="#bK"/><use transform="matrix(0.06172839506172839,0,0,0.06172839506172839,74.38271604938271,0)" xlink:href="#av"/></g><path d="M24-248c93 1 206-16 204 79-1 75-69 88-152 82V0H24v-248zm52 121c47 0 100 7 100-41 0-47-54-39-100-39v80" id="bL"/><path d="M88-194c31-1 46 15 58 34l-1-101h50l1 261h-48c-2-10 0-23-3-31C134-8 116 4 84 4 32 4 16-41 15-95c0-56 19-97 73-99zm17 164c33 0 40-30 41-66 1-37-9-64-41-64s-38 30-39 65c0 43 13 65 39 65" id="bM"/><g id="aj"><use transform="matrix(0.06172839506172839,0,0,0.06172839506172839,0,0)" xlink:href="#bL"/><use transform="matrix(0.06172839506172839,0,0,0.06172839506172839,14.814814814814813,0)" xlink:href="#aC"/><use transform="matrix(0.06172839506172839,0,0,0.06172839506172839,23.456790123456788,0)" xlink:href="#av"/><use transform="matrix(0.06172839506172839,0,0,0.06172839506172839,35.80246913580247,0)" xlink:href="#bM"/><use transform="matrix(0.06172839506172839,0,0,0.06172839506172839,49.32098765432099,0)" xlink:href="#ax"/><use transform="matrix(0.06172839506172839,0,0,0.06172839506172839,55.49382716049383,0)" xlink:href="#aL"/><use transform="matrix(0.06172839506172839,0,0,0.06172839506172839,67.8395061728395,0)" xlink:href="#aD"/><use transform="matrix(0.06172839506172839,0,0,0.06172839506172839,75.18518518518519,0)" xlink:href="#ax"/><use transform="matrix(0.06172839506172839,0,0,0.06172839506172839,81.35802469135803,0)" xlink:href="#aB"/><use transform="matrix(0.06172839506172839,0,0,0.06172839506172839,94.87654320987654,0)" xlink:href="#aG"/><use transform="matrix(0.06172839506172839,0,0,0.06172839506172839,108.39506172839506,0)" xlink:href="#az"/></g><g id="ak"><use transform="matrix(0.07407407407407408,0,0,0.07407407407407408,0,0)" xlink:href="#bt"/><use transform="matrix(0.07407407407407408,0,0,0.07407407407407408,17.77777777777778,0)" xlink:href="#aV"/><use transform="matrix(0.07407407407407408,0,0,0.07407407407407408,32.592592592592595,0)" xlink:href="#aP"/><use transform="matrix(0.07407407407407408,0,0,0.07407407407407408,45.92592592592593,0)" xlink:href="#aN"/><use transform="matrix(0.07407407407407408,0,0,0.07407407407407408,60.74074074074075,0)" xlink:href="#bf"/></g><path d="M230 0l2-204L168 0h-37L68-204 70 0H24v-248h70l56 185 57-185h69V0h-46" id="bN"/><g id="al"><use transform="matrix(0.06172839506172839,0,0,0.06172839506172839,0,0)" xlink:href="#bN"/><use transform="matrix(0.06172839506172839,0,0,0.06172839506172839,18.456790123456788,0)" xlink:href="#aB"/><use transform="matrix(0.06172839506172839,0,0,0.06172839506172839,31.9753086419753,0)" xlink:href="#az"/><use transform="matrix(0.06172839506172839,0,0,0.06172839506172839,44.32098765432098,0)" xlink:href="#aD"/></g><path d="M168-19C124 19 11 11 16-68c3-43 29-60 59-75-25-44-12-111 53-106 37 3 64 15 64 52 0 43-40 52-69 68 12 22 27 41 43 59 14-19 21-38 28-64l37 13c-8 29-19 52-34 74 12 10 32 16 52 10v35c-28 11-65-2-81-17zm-58-139c19-9 43-14 43-39 0-14-10-22-25-22-34 0-33 41-18 61zM60-68c-3 40 55 47 79 25-18-20-34-42-48-67-18 8-30 20-31 42" id="bO"/><use transform="matrix(0.06172839506172839,0,0,0.06172839506172839,0,0)" xlink:href="#bO" id="am"/><g id="an"><use transform="matrix(0.07407407407407408,0,0,0.07407407407407408,0,0)" xlink:href="#bs"/><use transform="matrix(0.07407407407407408,0,0,0.07407407407407408,17.77777777777778,0)" xlink:href="#aQ"/><use transform="matrix(0.07407407407407408,0,0,0.07407407407407408,32.592592592592595,0)" xlink:href="#aP"/><use transform="matrix(0.07407407407407408,0,0,0.07407407407407408,45.92592592592593,0)" xlink:href="#bf"/><use transform="matrix(0.07407407407407408,0,0,0.07407407407407408,51.777777777777786,0)" xlink:href="#aT"/><use transform="matrix(0.07407407407407408,0,0,0.07407407407407408,57.62962962962964,0)" xlink:href="#bh"/></g><g id="ao"><use transform="matrix(0.07407407407407408,0,0,0.07407407407407408,0,0)" xlink:href="#bc"/><use transform="matrix(0.07407407407407408,0,0,0.07407407407407408,14.814814814814817,0)" xlink:href="#aO"/><use transform="matrix(0.07407407407407408,0,0,0.07407407407407408,29.629629629629633,0)" xlink:href="#aP"/><use transform="matrix(0.07407407407407408,0,0,0.07407407407407408,42.96296296296297,0)" xlink:href="#aW"/></g><g id="ap"><use transform="matrix(0.07407407407407408,0,0,0.07407407407407408,0,0)" xlink:href="#aP"/><use transform="matrix(0.07407407407407408,0,0,0.07407407407407408,13.333333333333336,0)" xlink:href="#aV"/><use transform="matrix(0.07407407407407408,0,0,0.07407407407407408,28.148148148148152,0)" xlink:href="#aP"/><use transform="matrix(0.07407407407407408,0,0,0.07407407407407408,41.48148148148149,0)" xlink:href="#aN"/><use transform="matrix(0.07407407407407408,0,0,0.07407407407407408,56.296296296296305,0)" xlink:href="#bf"/></g><g id="aq"><use transform="matrix(0.07407407407407408,0,0,0.07407407407407408,0,0)" xlink:href="#bf"/><use transform="matrix(0.07407407407407408,0,0,0.07407407407407408,5.851851851851853,0)" xlink:href="#bg"/></g><g id="ar"><use transform="matrix(0.07407407407407408,0,0,0.07407407407407408,0,0)" xlink:href="#bt"/><use transform="matrix(0.07407407407407408,0,0,0.07407407407407408,17.77777777777778,0)" xlink:href="#aO"/><use transform="matrix(0.07407407407407408,0,0,0.07407407407407408,32.592592592592595,0)" xlink:href="#aQ"/><use transform="matrix(0.07407407407407408,0,0,0.07407407407407408,47.40740740740741,0)" xlink:href="#aW"/><use transform="matrix(0.07407407407407408,0,0,0.07407407407407408,54.814814814814824,0)" xlink:href="#aW"/><use transform="matrix(0.07407407407407408,0,0,0.07407407407407408,62.22222222222223,0)" xlink:href="#aT"/><use transform="matrix(0.07407407407407408,0,0,0.07407407407407408,68.07407407407408,0)" xlink:href="#aO"/></g></defs></g></svg>