<svg xmlns="http://www.w3.org/2000/svg" xmlns:xlink="http://www.w3.org/1999/xlink" xmlns:lucid="lucid" width="600" height="360"><g transform="translate(-140 -140)" lucid:page-tab-id="WEUK0JX.2Rq-"><path d="M240 320h160v80H240zM240 400h160v80H240z" stroke="#000" stroke-width="2" fill="#834187"/><path d="M337.16 355.72h-12.88v-12.88c0-1.56-1.28-2.84-2.84-2.84h-2.88c-1.56 0-2.84 1.28-2.84 2.84v12.88h-12.88c-1.56 0-2.84 1.28-2.84 2.84v2.88c0 1.56 1.28 2.84 2.84 2.84h12.88v12.88c0 1.56 1.28 2.84 2.84 2.84h2.88c1.56 0 2.84-1.28 2.84-2.84v-12.88h12.88c1.56 0 2.84-1.28 2.84-2.84v-2.88c0-1.56-1.28-2.84-2.84-2.84z" stroke="#000" stroke-width="2" fill="#0c7cba"/><path d="M337.16 440h-34.32c-1.56 0-2.84 1.28-2.84 2.85v2.87c0 1.57 1.28 2.85 2.84 2.85h34.32c1.56 0 2.84-1.28 2.84-2.85v-2.87c0-1.57-1.28-2.85-2.84-2.85z" stroke="#000" stroke-width="2" fill="#ef8d22"/><path d="M400 240h160v80H400z" stroke="#000" stroke-width="2" fill="#834187"/><path d="M497.16 275.72h-12.88v-12.88c0-1.56-1.28-2.84-2.84-2.84h-2.88c-1.56 0-2.84 1.28-2.84 2.84v12.88h-12.88c-1.56 0-2.84 1.28-2.84 2.84v2.88c0 1.56 1.28 2.84 2.84 2.84h12.88v12.88c0 1.56 1.28 2.84 2.84 2.84h2.88c1.56 0 2.84-1.28 2.84-2.84v-12.88h12.88c1.56 0 2.84-1.28 2.84-2.84v-2.88c0-1.56-1.28-2.84-2.84-2.84z" stroke="#000" stroke-width="2" fill="#0c7cba"/><path d="M560 240h160v80H560z" stroke="#000" stroke-width="2" fill="#834187"/><path d="M657.16 280h-34.32c-1.56 0-2.84 1.28-2.84 2.85v2.87c0 1.57 1.28 2.85 2.84 2.85h34.32c1.56 0 2.84-1.28 2.84-2.85v-2.87c0-1.57-1.28-2.85-2.84-2.85z" stroke="#000" stroke-width="2" fill="#ef8d22"/><path d="M400 320h160v80H400z" stroke="#000" stroke-width="2" fill="#d1bcd2"/><use xlink:href="#a" transform="matrix(1,0,0,1,405,325) translate(22.924999999999997 38.4625)"/><use xlink:href="#b" transform="matrix(1,0,0,1,405,325) translate(64.175 38.4625)"/><path d="M560 320h160v80H560z" stroke="#000" stroke-width="2" fill="#e5e5e5"/><use xlink:href="#c" transform="matrix(1,0,0,1,565,325) translate(15.099999999999994 27.525)"/><use xlink:href="#d" transform="matrix(1,0,0,1,565,325) translate(64 27.525)"/><use xlink:href="#e" transform="matrix(1,0,0,1,565,325) translate(57.099999999999994 49.125)"/><path d="M560 400h160v80H560z" stroke="#000" stroke-width="2" fill="#d1bcd2"/><use xlink:href="#a" transform="matrix(1,0,0,1,565,405) translate(18.924999999999997 38.4625)"/><use xlink:href="#f" transform="matrix(1,0,0,1,565,405) translate(60.175 38.4625)"/><path d="M400 400h160v80H400z" stroke="#000" stroke-width="2" fill="#e5e5e5"/><use xlink:href="#c" transform="matrix(1,0,0,1,405,405) translate(19.099999999999994 27.525)"/><use xlink:href="#g" transform="matrix(1,0,0,1,405,405) translate(68 27.525)"/><use xlink:href="#h" transform="matrix(1,0,0,1,405,405) translate(57.575 49.125)"/><path d="M400 160h320v80H400z" stroke="#000" stroke-opacity="0" stroke-width="2" fill="#fff" fill-opacity="0"/><g><use xlink:href="#i" transform="matrix(1,0,0,1,405,165) translate(62.518518518518505 41.020833333333336)"/><use xlink:href="#j" transform="matrix(1,0,0,1,405,165) translate(182.37037037037038 41.020833333333336)"/></g><g><path d="M160 480V320h80v160z" stroke="#000" stroke-opacity="0" stroke-width="2" fill="#fff" fill-opacity="0"/></g><g><use xlink:href="#k" transform="matrix(6.123233995736766e-17,-1,1,6.123233995736766e-17,165,475) translate(11.888888888888886 41.020833333333336)"/><use xlink:href="#j" transform="matrix(6.123233995736766e-17,-1,1,6.123233995736766e-17,165,475) translate(73 41.020833333333336)"/></g><defs><path d="M127-220V0H93v-220H8v-28h204v28h-85" id="l"/><path d="M114-163C36-179 61-72 57 0H25l-1-190h30c1 12-1 29 2 39 6-27 23-49 58-41v29" id="m"/><path d="M84 4C-5 8 30-112 23-190h32v120c0 31 7 50 39 49 72-2 45-101 50-169h31l1 190h-30c-1-10 1-25-2-33-11 22-28 36-60 37" id="n"/><path d="M100-194c63 0 86 42 84 106H49c0 40 14 67 53 68 26 1 43-12 49-29l28 8c-11 28-37 45-77 45C44 4 14-33 15-96c1-61 26-98 85-98zm52 81c6-60-76-77-97-28-3 7-6 17-6 28h103" id="o"/><g id="a"><use transform="matrix(0.05,0,0,0.05,0,0)" xlink:href="#l"/><use transform="matrix(0.05,0,0,0.05,10.3,0)" xlink:href="#m"/><use transform="matrix(0.05,0,0,0.05,16.25,0)" xlink:href="#n"/><use transform="matrix(0.05,0,0,0.05,26.25,0)" xlink:href="#o"/></g><path d="M30-248c87 1 191-15 191 75 0 78-77 80-158 76V0H30v-248zm33 125c57 0 124 11 124-50 0-59-68-47-124-48v98" id="p"/><path d="M100-194c62-1 85 37 85 99 1 63-27 99-86 99S16-35 15-95c0-66 28-99 85-99zM99-20c44 1 53-31 53-75 0-43-8-75-51-75s-53 32-53 75 10 74 51 75" id="q"/><path d="M135-143c-3-34-86-38-87 0 15 53 115 12 119 90S17 21 10-45l28-5c4 36 97 45 98 0-10-56-113-15-118-90-4-57 82-63 122-42 12 7 21 19 24 35" id="r"/><path d="M24-231v-30h32v30H24zM24 0v-190h32V0H24" id="s"/><path d="M59-47c-2 24 18 29 38 22v24C64 9 27 4 27-40v-127H5v-23h24l9-43h21v43h35v23H59v120" id="t"/><path d="M108 0H70L1-190h34L89-25l56-165h34" id="u"/><g id="b"><use transform="matrix(0.05,0,0,0.05,0,0)" xlink:href="#p"/><use transform="matrix(0.05,0,0,0.05,12,0)" xlink:href="#q"/><use transform="matrix(0.05,0,0,0.05,22,0)" xlink:href="#r"/><use transform="matrix(0.05,0,0,0.05,31,0)" xlink:href="#s"/><use transform="matrix(0.05,0,0,0.05,34.95,0)" xlink:href="#t"/><use transform="matrix(0.05,0,0,0.05,39.95,0)" xlink:href="#s"/><use transform="matrix(0.05,0,0,0.05,43.900000000000006,0)" xlink:href="#u"/><use transform="matrix(0.05,0,0,0.05,52.900000000000006,0)" xlink:href="#o"/></g><path d="M63-220v92h138v28H63V0H30v-248h175v28H63" id="v"/><path d="M141-36C126-15 110 5 73 4 37 3 15-17 15-53c-1-64 63-63 125-63 3-35-9-54-41-54-24 1-41 7-42 31l-33-3c5-37 33-52 76-52 45 0 72 20 72 64v82c-1 20 7 32 28 27v20c-31 9-61-2-59-35zM48-53c0 20 12 33 32 33 41-3 63-29 60-74-43 2-92-5-92 41" id="w"/><path d="M24 0v-261h32V0H24" id="x"/><g id="c"><use transform="matrix(0.05,0,0,0.05,0,0)" xlink:href="#v"/><use transform="matrix(0.05,0,0,0.05,10.950000000000001,0)" xlink:href="#w"/><use transform="matrix(0.05,0,0,0.05,20.950000000000003,0)" xlink:href="#x"/><use transform="matrix(0.05,0,0,0.05,24.900000000000002,0)" xlink:href="#r"/><use transform="matrix(0.05,0,0,0.05,33.900000000000006,0)" xlink:href="#o"/></g><path d="M190 0L58-211 59 0H30v-248h39L202-35l-2-213h31V0h-41" id="y"/><path d="M177-190C167-65 218 103 67 71c-23-6-38-20-44-43l32-5c15 47 100 32 89-28v-30C133-14 115 1 83 1 29 1 15-40 15-95c0-56 16-97 71-98 29-1 48 16 59 35 1-10 0-23 2-32h30zM94-22c36 0 50-32 50-73 0-42-14-75-50-75-39 0-46 34-46 75s6 73 46 73" id="z"/><g id="d"><use transform="matrix(0.05,0,0,0.05,0,0)" xlink:href="#y"/><use transform="matrix(0.05,0,0,0.05,12.950000000000001,0)" xlink:href="#o"/><use transform="matrix(0.05,0,0,0.05,22.950000000000003,0)" xlink:href="#z"/><use transform="matrix(0.05,0,0,0.05,32.95,0)" xlink:href="#w"/><use transform="matrix(0.05,0,0,0.05,42.95,0)" xlink:href="#t"/><use transform="matrix(0.05,0,0,0.05,47.95,0)" xlink:href="#s"/><use transform="matrix(0.05,0,0,0.05,51.900000000000006,0)" xlink:href="#u"/><use transform="matrix(0.05,0,0,0.05,60.900000000000006,0)" xlink:href="#o"/></g><path d="M87 75C49 33 22-17 22-94c0-76 28-126 65-167h31c-38 41-64 92-64 168S80 34 118 75H87" id="A"/><path d="M33-261c38 41 65 92 65 168S71 34 33 75H2C39 34 66-17 66-93S39-220 2-261h31" id="B"/><g id="e"><use transform="matrix(0.05,0,0,0.05,0,0)" xlink:href="#A"/><use transform="matrix(0.05,0,0,0.05,5.95,0)" xlink:href="#v"/><use transform="matrix(0.05,0,0,0.05,16.900000000000002,0)" xlink:href="#y"/><use transform="matrix(0.05,0,0,0.05,29.85,0)" xlink:href="#B"/></g><g id="f"><use transform="matrix(0.05,0,0,0.05,0,0)" xlink:href="#y"/><use transform="matrix(0.05,0,0,0.05,12.950000000000001,0)" xlink:href="#o"/><use transform="matrix(0.05,0,0,0.05,22.950000000000003,0)" xlink:href="#z"/><use transform="matrix(0.05,0,0,0.05,32.95,0)" xlink:href="#w"/><use transform="matrix(0.05,0,0,0.05,42.95,0)" xlink:href="#t"/><use transform="matrix(0.05,0,0,0.05,47.95,0)" xlink:href="#s"/><use transform="matrix(0.05,0,0,0.05,51.900000000000006,0)" xlink:href="#u"/><use transform="matrix(0.05,0,0,0.05,60.900000000000006,0)" xlink:href="#o"/></g><g id="g"><use transform="matrix(0.05,0,0,0.05,0,0)" xlink:href="#p"/><use transform="matrix(0.05,0,0,0.05,12,0)" xlink:href="#q"/><use transform="matrix(0.05,0,0,0.05,22,0)" xlink:href="#r"/><use transform="matrix(0.05,0,0,0.05,31,0)" xlink:href="#s"/><use transform="matrix(0.05,0,0,0.05,34.95,0)" xlink:href="#t"/><use transform="matrix(0.05,0,0,0.05,39.95,0)" xlink:href="#s"/><use transform="matrix(0.05,0,0,0.05,43.900000000000006,0)" xlink:href="#u"/><use transform="matrix(0.05,0,0,0.05,52.900000000000006,0)" xlink:href="#o"/></g><g id="h"><use transform="matrix(0.05,0,0,0.05,0,0)" xlink:href="#A"/><use transform="matrix(0.05,0,0,0.05,5.95,0)" xlink:href="#v"/><use transform="matrix(0.05,0,0,0.05,16.900000000000002,0)" xlink:href="#p"/><use transform="matrix(0.05,0,0,0.05,28.900000000000002,0)" xlink:href="#B"/></g><path d="M85-194c31 0 48 13 60 33l-1-100h32l1 261h-30c-2-10 0-23-3-31C134-8 116 4 85 4 32 4 16-35 15-94c0-66 23-100 70-100zm9 24c-40 0-46 34-46 75 0 40 6 74 45 74 42 0 51-32 51-76 0-42-9-74-50-73" id="C"/><path d="M96-169c-40 0-48 33-48 73s9 75 48 75c24 0 41-14 43-38l32 2c-6 37-31 61-74 61-59 0-76-41-82-99-10-93 101-131 147-64 4 7 5 14 7 22l-32 3c-4-21-16-35-41-35" id="D"/><g id="i"><use transform="matrix(0.07407407407407408,0,0,0.07407407407407408,0,0)" xlink:href="#p"/><use transform="matrix(0.07407407407407408,0,0,0.07407407407407408,17.77777777777778,0)" xlink:href="#m"/><use transform="matrix(0.07407407407407408,0,0,0.07407407407407408,26.592592592592595,0)" xlink:href="#o"/><use transform="matrix(0.07407407407407408,0,0,0.07407407407407408,41.40740740740741,0)" xlink:href="#C"/><use transform="matrix(0.07407407407407408,0,0,0.07407407407407408,56.22222222222223,0)" xlink:href="#s"/><use transform="matrix(0.07407407407407408,0,0,0.07407407407407408,62.07407407407408,0)" xlink:href="#D"/><use transform="matrix(0.07407407407407408,0,0,0.07407407407407408,75.40740740740742,0)" xlink:href="#t"/><use transform="matrix(0.07407407407407408,0,0,0.07407407407407408,82.81481481481482,0)" xlink:href="#o"/><use transform="matrix(0.07407407407407408,0,0,0.07407407407407408,97.62962962962965,0)" xlink:href="#C"/></g><path d="M30 0v-248h33v221h125V0H30" id="E"/><path d="M115-194c53 0 69 39 70 98 0 66-23 100-70 100C84 3 66-7 56-30L54 0H23l1-261h32v101c10-23 28-34 59-34zm-8 174c40 0 45-34 45-75 0-40-5-75-45-74-42 0-51 32-51 76 0 43 10 73 51 73" id="F"/><g id="j"><use transform="matrix(0.07407407407407408,0,0,0.07407407407407408,0,0)" xlink:href="#E"/><use transform="matrix(0.07407407407407408,0,0,0.07407407407407408,14.814814814814817,0)" xlink:href="#w"/><use transform="matrix(0.07407407407407408,0,0,0.07407407407407408,29.629629629629633,0)" xlink:href="#F"/><use transform="matrix(0.07407407407407408,0,0,0.07407407407407408,44.44444444444445,0)" xlink:href="#o"/><use transform="matrix(0.07407407407407408,0,0,0.07407407407407408,59.25925925925927,0)" xlink:href="#x"/></g><g id="k"><use transform="matrix(0.07407407407407408,0,0,0.07407407407407408,0,0)" xlink:href="#l"/><use transform="matrix(0.07407407407407408,0,0,0.07407407407407408,15.259259259259261,0)" xlink:href="#m"/><use transform="matrix(0.07407407407407408,0,0,0.07407407407407408,24.074074074074076,0)" xlink:href="#n"/><use transform="matrix(0.07407407407407408,0,0,0.07407407407407408,38.88888888888889,0)" xlink:href="#o"/></g></defs></g></svg>