<svg xmlns="http://www.w3.org/2000/svg" xmlns:xlink="http://www.w3.org/1999/xlink" xmlns:lucid="lucid" width="740" height="740"><g transform="translate(-160 -300)" lucid:page-tab-id="SviKD2oSZOwp"><path d="M240 999V418.5M240 998.97v1.03" stroke="#000" stroke-width="2" fill="none"/><path d="M240 403.24l4.64 14.26h-9.28z" stroke="#000" stroke-width="2"/><path d="M201 960h580.5M201.03 960H200" stroke="#000" stroke-width="2" fill="none"/><path d="M796.76 960l-14.26 4.64v-9.28z" stroke="#000" stroke-width="2"/><path d="M720 960h160v60H720z" stroke="#000" stroke-opacity="0" stroke-width="2" fill="#fff" fill-opacity="0"/><use xlink:href="#a" transform="matrix(1,0,0,1,725,965) translate(18.037037037037038 30.708333333333336)"/><path d="M260 530c0 5.52-4.48 10-10 10s-10-4.48-10-10 4.48-10 10-10 10 4.48 10 10z" stroke="#000" stroke-width="2" fill="#c1e4f7"/><path d="M180 480V320h60v160z" stroke="#000" stroke-opacity="0" stroke-width="2" fill="#fff" fill-opacity="0"/><use xlink:href="#b" transform="matrix(6.123233995736766e-17,-1,1,6.123233995736766e-17,185,475) translate(43.96296296296296 30.708333333333336)"/><path d="M360 670c0 5.52-4.48 10-10 10s-10-4.48-10-10 4.48-10 10-10 10 4.48 10 10zM460 850c0 5.52-4.48 10-10 10s-10-4.48-10-10 4.48-10 10-10 10 4.48 10 10zM540 950c0 5.52-4.48 10-10 10s-10-4.48-10-10 4.48-10 10-10 10 4.48 10 10z" stroke="#000" stroke-width="2" fill="#c1e4f7"/><path d="M260 980h40v40h-40z" stroke="#000" stroke-opacity="0" stroke-width="2" fill="#fff" fill-opacity="0"/><use xlink:href="#c" transform="matrix(1,0,0,1,265,985) translate(7.592592592592592 23.208333333333336)"/><path d="M340 980h40v40h-40z" stroke="#000" stroke-opacity="0" stroke-width="2" fill="#fff" fill-opacity="0"/><use xlink:href="#d" transform="matrix(1,0,0,1,345,985) translate(7.592592592592592 23.208333333333336)"/><path d="M420 980h40v40h-40z" stroke="#000" stroke-opacity="0" stroke-width="2" fill="#fff" fill-opacity="0"/><use xlink:href="#e" transform="matrix(1,0,0,1,425,985) translate(7.592592592592592 23.208333333333336)"/><path d="M500 980h40v40h-40z" stroke="#000" stroke-opacity="0" stroke-width="2" fill="#fff" fill-opacity="0"/><use xlink:href="#f" transform="matrix(1,0,0,1,505,985) translate(7.592592592592592 23.208333333333336)"/><path d="M580 980h40v40h-40z" stroke="#000" stroke-opacity="0" stroke-width="2" fill="#fff" fill-opacity="0"/><use xlink:href="#g" transform="matrix(1,0,0,1,585,985) translate(7.592592592592592 23.208333333333336)"/><path d="M660 980h40v40h-40z" stroke="#000" stroke-opacity="0" stroke-width="2" fill="#fff" fill-opacity="0"/><use xlink:href="#h" transform="matrix(1,0,0,1,665,985) translate(3.8888888888888875 23.208333333333336)"/><path d="M180 900h40v40h-40z" stroke="#000" stroke-opacity="0" stroke-width="2" fill="#fff" fill-opacity="0"/><use xlink:href="#c" transform="matrix(1,0,0,1,185,905) translate(7.592592592592592 23.208333333333336)"/><path d="M180 820h40v40h-40z" stroke="#000" stroke-opacity="0" stroke-width="2" fill="#fff" fill-opacity="0"/><use xlink:href="#d" transform="matrix(1,0,0,1,185,825) translate(7.592592592592592 23.208333333333336)"/><path d="M180 740h40v40h-40z" stroke="#000" stroke-opacity="0" stroke-width="2" fill="#fff" fill-opacity="0"/><use xlink:href="#e" transform="matrix(1,0,0,1,185,745) translate(7.592592592592592 23.208333333333336)"/><path d="M180 660h40v40h-40z" stroke="#000" stroke-opacity="0" stroke-width="2" fill="#fff" fill-opacity="0"/><use xlink:href="#f" transform="matrix(1,0,0,1,185,665) translate(7.592592592592592 23.208333333333336)"/><path d="M180 580h40v40h-40z" stroke="#000" stroke-opacity="0" stroke-width="2" fill="#fff" fill-opacity="0"/><use xlink:href="#g" transform="matrix(1,0,0,1,185,585) translate(7.592592592592592 23.208333333333336)"/><path d="M180 500h40v40h-40z" stroke="#000" stroke-opacity="0" stroke-width="2" fill="#fff" fill-opacity="0"/><use xlink:href="#h" transform="matrix(1,0,0,1,185,505) translate(3.8888888888888875 23.208333333333336)"/><path d="M440 670c0 5.52-4.48 10-10 10s-10-4.48-10-10 4.48-10 10-10 10 4.48 10 10zM440 590c0 5.52-4.48 10-10 10s-10-4.48-10-10 4.48-10 10-10 10 4.48 10 10zM540 530c0 5.52-4.48 10-10 10s-10-4.48-10-10 4.48-10 10-10 10 4.48 10 10zM600 850c0 5.52-4.48 10-10 10s-10-4.48-10-10 4.48-10 10-10 10 4.48 10 10zM600 770c0 5.52-4.48 10-10 10s-10-4.48-10-10 4.48-10 10-10 10 4.48 10 10zM700 770c0 5.52-4.48 10-10 10s-10-4.48-10-10 4.48-10 10-10 10 4.48 10 10z" stroke="#000" stroke-width="2" fill="#c1e4f7"/><path d="M241.77 958.23l516.46-516.46M241.8 958.2L240 960M758.2 441.8l1.8-1.8" stroke="#000" stroke-width="5" fill="none"/><path d="M360 774.68L674.68 460l22.63 22.63L382.64 797.3z" fill="#fff" fill-opacity="0"/><path d="M386.77 782.26l-6.72 6.72-.37-.36c1.7-1.9 1.7-2.93.37-4.27l-10.94-10.93c-.82-.83-1.4-.98-1.9-.46-.26.24-.55.77-.82 1.38l-.4.9-.35-.34 2.14-6.57.3-.15 14.53 14.54c1.05 1.05 1.98 1 3.8-.83l.37.36M392.7 774.22c.72.7.7 1.95-.04 2.68-.75.76-1.92.76-2.68 0-.75-.75-.75-1.97 0-2.73.7-.7 2-.68 2.73.05M399.02 753.93c4.2 4.2 6.84 9.92 2.87 13.9-4.17 4.15-10.04.96-14.04-3.03-4.3-4.3-6.6-9.97-2.68-13.9 3.2-3.18 8.85-1.96 13.84 3.03m-2.22 2.46c-5.06-5.07-9-6.85-11.13-4.7-2.02 2-.24 5.98 4.7 10.93 4.95 4.94 8.8 6.65 10.9 4.55 2.06-2.07.35-5.96-4.47-10.8M415.94 733.35l-2.53 2.54 2.8 3.74 2.4-2.4 1.34 1.33-2.63 2.63 4.5 6-1.4 1.42-4.5-6-3.27 3.25 4.46 6.07-1.42 1.4-4.46-6.06-2.58 2.6-1.34-1.35 2.8-2.8-2.75-3.78-2.66 2.66-1.35-1.33 2.85-2.85-4.16-5.68 1.4-1.4 4.18 5.66 3.23-3.24-4.18-5.65 1.4-1.4 4.2 5.65 2.34-2.34 1.34 1.35M412 737.3l-3.24 3.24 2.75 3.77 3.28-3.25M434.5 729.12l.6-.05c.38 4.04.26 5.1-.72 6.06-.68.68-1.26.68-1.97-.02-.6-.6-.75-.85-2.23-3.35.92 4.57.58 7.06-1.12 8.76-1.37 1.38-3.4 1.48-5.26-.38-3.8-3.77-4.47-11.9-1.23-15.14 1.05-1.05 2.26-1.25 3.36-.54l-.9-1.44v-.14l1.3-1.66.26-.1c.16.27.18.34.35.66 3.02 5.3 6.2 10.52 6.68 11 .17.18.46.18.65-.02.22-.2.35-.73.27-2.26m-8.52-5.07c-.85-.84-1.93-.9-2.78-.04-1.1 1.1-1.4 2.93-.95 5.44.5 2.55 1.83 5.57 3.36 7.1 1.34 1.35 2.4 1.23 3.27.35 1.2-1.22 1.02-3.7.7-5.48-.5-2.8-1.87-5.63-3.6-7.36M437.6 710.68l9.35 7.8c-.8-7.2-1.27-9.3-2.3-10.36-.3-.3-.65-.34-1.4-.32-.76.03-1.17-.14-1.5-.48-.4-.4-.35-1.17.18-1.7.73-.74 1.85-.7 2.63.1 1.56 1.55 2.6 6.2 3.34 13.65l.05.5c.14 1.45.17 1.9-.05 2.13-.17.17-.44 0-1.12-.58l-8.26-6.84 1.54 5.86c.3 1.17.65 2.42 1.07 3.76.8 2.55 1 3.58.73 3.84-.22.22-.46.08-1.46-.82l-2.32-2.12c-2.2-2.02-5.1-4.36-6.55-5.24-1.12-.68-1.46-.58-2.17.12l-.68.68-.3-.3c.62-.9 1.35-1.8 1.9-2.74.23-.4.35-.7.52-.88.27-.26.34-.24 1.3.37 2 1.32 5.38 4.03 7.62 6.07L437 711.1c-.1-.32-.06-.45.06-.57.15-.14.27-.12.54.15M460.47 703.25h.58c.32 3.1-.32 5.58-2.34 7.6-1.96 1.97-4.6 1.97-6.6-.05-3.8-3.77-4.05-11.3-.4-14.95 1.3-1.3 2.63-1.37 3.65-.34 2.1 2.1 1.44 6.56-2.36 11.48.23.73.87 1.36 1.23 1.73 1.34 1.35 3.12 1.32 4.48-.04 1.08-1.07 1.45-2.22 1.77-5.4m-8.5 1.52l.65 1.5c1.6-2.62 2.07-3.98 2.12-5.73.03-1.5-.4-2.83-1.14-3.58-.6-.6-1.12-.78-1.8-.1-1.4 1.4-1.17 4.92.17 7.9M463.4 684.1l2.9 3.9-.38.4c-2.26-1.78-3.8-1.86-5-.66-.84.85-.94 1.92-.04 2.82.66.66 1.73 1 3.8 1.17 2.63.2 4.02.7 4.97 1.66 2.02 2 1.78 4.74-.24 6.76-.4.4-.8.75-1.58 1.1-.66.26-1.02.58-1.3.85-.26.27-.4.66-.18 1.22l-.4.4-3.38-4.37.4-.4c2.65 2 4.47 2.16 5.74.9 1.14-1.15 1.17-2.54-.03-3.74-.77-.77-2.02-1.18-4.16-1.42-2.35-.27-3.94-.88-4.72-1.66-1.6-1.6-1.48-3.77.32-5.58.42-.4.83-.68 1.6-1.12.62-.3.86-.5 1.06-.7.36-.37.43-.64.3-1.17l.33-.34M478.78 675.58c1.85 1.85 3.02 4.97 3 8.16 0 2.83-.95 5-2.56 6.6-2.3 2.3-4.85 2.32-6.97.2-2.72-2.73-3.7-7.36-2.5-11.28.43-1.46 1.2-2.65 2.2-3.65 1.96-1.97 4.7-2.16 6.83-.02m-2.65 1.44c-1.5-1.5-2.97-1.6-4.02-.56-1.06 1.07-1.38 2.9-.9 5.33.6 2.82 1.83 5.42 3.76 7.35 1.46 1.46 2.97 1.46 4.1.3 1.1-1.06 1.3-2.7.94-4.95-.4-2.66-2.02-5.63-3.87-7.48M501.5 662.4l.05.3c.52 3.1.25 4.97-.9 6.1-.63.64-1.36.6-2.1-.13-.24-.25-.58-.74-1.28-1.93l-4.12-6.94c-.36-.6-.63-.97-.75-1.1-.3-.3-.73-.3-1-.02-.73.73-.83 3.12-.34 6.04.48 2.87 1.2 4.55 4 9.25l-1.84 1.83-1.6-2.92c-2.63-4.77-4.63-7.94-4.95-8.26-.4-.4-.83-.4-1.14-.07-.83.83-.85 3.68-.15 7.1.44 2.1.98 3.32 3.66 8.34l-1.83 1.82-2.45-4.56c-2.27-4.2-3.92-6.6-4.2-6.9-.38-.36-.9-.18-1.55.47l-.6.6-.4-.38 3.2-4.7.1-.02 3.7 6.5c-1.37-5.7-1.27-9 .2-10.5 1-.97 2.06-.87 2.93 0 .47.47 1.5 2.15 2.73 4.68-1-4.4-1.22-6.62-.78-8.56.22-.95.56-1.54 1.05-2.03.9-.9 2.07-.74 2.95.14.17.17.5.6.6.75l4.46 7.76c.42.7.76 1.24.86 1.34.26.27.48.3.68.1.4-.42.46-1.24.3-2.88l-.13-1.14M510.57 653.15h.58c.32 3.1-.32 5.58-2.34 7.6-1.96 1.97-4.6 1.97-6.6-.05-3.8-3.77-4.06-11.3-.4-14.95 1.3-1.3 2.63-1.37 3.65-.34 2.1 2.1 1.44 6.56-2.36 11.48.23.73.87 1.36 1.23 1.73 1.34 1.35 3.12 1.32 4.48-.04 1.08-1.07 1.45-2.22 1.77-5.4m-8.5 1.53l.65 1.47c1.6-2.6 2.07-3.97 2.12-5.72.03-1.5-.4-2.83-1.14-3.58-.6-.6-1.12-.78-1.8-.1-1.4 1.4-1.17 4.92.17 7.92M530.5 627.8l-13.55 13.56-1.6-1.6 13.56-13.57 1.6 1.6M552.43 616.6l-6.72 6.72-.35-.37c1.7-1.9 1.7-2.92.36-4.26l-10.93-10.95c-.82-.83-1.4-.97-1.92-.46-.24.23-.53.77-.8 1.38l-.42.9-.34-.34 2.14-6.58.3-.14 14.53 14.54c1.05 1.04 1.97 1 3.8-.83l.36.36M558.38 608.56c.7.7.68 1.94-.05 2.68-.76.75-1.93.75-2.68 0-.76-.76-.76-1.98 0-2.73.7-.7 2-.67 2.73.06M555.2 580.65l1.2 2.94c.1.24.05.58-.34.97l-4.72 4.72 1.1 3.04c4.13-2.83 5.9-3.5 9.2-2.98 1.5.25 2.65.95 3.94 2.24 2.34 2.34 3.12 4.58 2.68 7.46-.3 1.97-1.3 3.68-2.94 5.33-1.83 1.82-3.68 2.5-4.6 1.57-.62-.6-.52-1.33.16-2.02.56-.56 1.15-.9 2.56-1.04 1.24-.12 2.02-.46 2.5-.94 1.7-1.7 1.28-5.3-.82-7.4-1.56-1.57-3.3-2.25-5.28-2.03-2.07.22-4.56 1.15-6.9 3.48-.22.23-.34.26-.48.1-.05-.04-.1-.14-.1-.14l-3.12-8.42 5.04-5.04c.56-.56.66-.9.54-1.8M581.6 567.7l-2.52 2.52 2.77 3.75 2.42-2.4 1.33 1.33-2.63 2.63 4.5 6.02-1.4 1.4-4.5-6-3.27 3.26 4.46 6.07-1.42 1.4-4.45-6.05-2.6 2.58-1.34-1.34 2.8-2.8-2.75-3.77-2.64 2.64-1.34-1.34 2.85-2.85-4.17-5.67 1.42-1.42 4.16 5.68 3.24-3.24-4.2-5.65 1.42-1.4 4.2 5.64 2.33-2.35 1.34 1.34m-3.94 3.93l-3.23 3.24 2.75 3.78 3.26-3.27M600.2 563.43l.58-.05c.4 4.04.27 5.1-.7 6.06-.7.68-1.27.68-1.98-.02-.6-.6-.76-.86-2.24-3.36.92 4.57.58 7.06-1.12 8.76-1.37 1.37-3.4 1.47-5.26-.4-3.78-3.76-4.46-11.9-1.22-15.13 1.05-1.06 2.26-1.26 3.36-.55l-.9-1.44v-.13l1.3-1.66.26-.1c.17.28.2.35.36.67 3.02 5.3 6.2 10.52 6.68 11 .17.18.46.18.65-.02.22-.2.35-.73.27-2.26m-8.52-5.08c-.85-.85-1.93-.9-2.78-.04-1.1 1.1-1.4 2.92-.95 5.43.5 2.56 1.82 5.58 3.35 7.12 1.34 1.34 2.4 1.22 3.27.34 1.2-1.22 1.02-3.7.7-5.48-.5-2.8-1.87-5.63-3.6-7.36M603.26 545l9.35 7.8c-.8-7.18-1.25-9.3-2.3-10.34-.3-.3-.63-.35-1.4-.32-.74.02-1.16-.15-1.5-.5-.4-.38-.34-1.16.2-1.7.73-.72 1.85-.67 2.63.1 1.56 1.56 2.6 6.22 3.33 13.67l.05.5c.16 1.46.18 1.92-.04 2.14-.17.17-.43 0-1.12-.6l-8.25-6.83 1.52 5.88c.3 1.17.66 2.4 1.07 3.75.8 2.56 1 3.58.72 3.85-.2.22-.46.07-1.46-.83l-2.3-2.12c-2.23-2.02-5.1-4.36-6.56-5.23-1.12-.7-1.46-.6-2.17.12l-.68.68-.32-.32c.63-.87 1.37-1.8 1.9-2.73.24-.4.37-.7.54-.87.27-.27.34-.25 1.3.36 2 1.32 5.37 4.02 7.6 6.07l-2.72-12.07c-.07-.32-.05-.44.08-.56.14-.15.26-.12.53.14M610.67 537.5l2.26-2.25c-1.2-2.27-2.12-4.02-2.46-5.97-.32-1.78-.14-3.6 1.34-5.1 1.2-1.18 2.74-1.45 3.62-.58.53.54.58 1.5.02 2.07-.44.44-1.27.54-1.85-.04-.43-.42-.3-.78-.52-1-.2-.2-.5-.12-.85.22-1.37 1.36-.57 3.97 2.58 8.52l2.6-2.6.65.92-2.63 2.62 6.04 9.55c3.48 5.53 4.23 9.55 2.02 11.76-1.1 1.1-2.56 1.3-3.4.44-.57-.56-.62-1.44-.1-1.95.55-.56 1.3-.53 1.82-.02.3.3.22.66.48.92.22.22.6.2.88-.1 1.02-1.02.5-3.1-1.58-6.3l-8.1-12.37-2.2 2.2M638.75 524.48l.56-.12c.84 4 .7 5.1-.45 6.26-.74.73-1.6.75-2.34 0-.53-.54-1.84-2.5-3.7-5.9 1.86 7.6 1.93 10.1.2 11.84-.85.85-1.68.9-2.58 0-.46-.46-1.12-1.56-2.46-3.77l-2.53-4.25c-.6-1-1.1-1.78-1.3-1.97-.17-.17-.48-.25-.7-.17-.34.1-.44.15-1.37 1.08l-.34-.34c1.22-1.56 1.93-2.6 3-4.3l.17-.04 6.47 10.8c.05.1.22.38.32.48.35.36.72.48 1.08.12.83-.83.66-3.24-.12-7.04-.6-2.87-1.17-4.14-3.24-8.6l1.8-1.8 5.36 9.2c.34.6 1.15 2.08 1.44 2.37.27.27.5.32.68.15.4-.4.44-1.12.05-4M632.9 503.1l10.52 17.97c.32.56.66 1.05.86 1.24.3.3.6.28.85.04.36-.37.53-1.32.24-3.02l-.24-1.46.58-.1c.87 3.77.7 5.4-.62 6.72-.78.78-1.66.73-2.56-.17-.2-.18-.46-.5-.63-.82l-9.44-16.1c-.17-.3-.3-.46-.4-.53-.28-.3-.94-.12-1.7.66l-.45.44-.38-.4c1.26-1.6 2-2.66 3.1-4.42M663.9 489.53l-14.34 14.35-1.6-1.6 14.34-14.36 1.6 1.6m4.88 4.88l-14.35 14.35-1.6-1.6 14.34-14.35 1.6 1.6M683.22 469.73c4.2 4.2 6.84 9.9 2.87 13.88-4.17 4.18-10.04 1-14.03-3-4.3-4.32-6.6-9.97-2.68-13.9 3.18-3.18 8.83-1.96 13.82 3.03M681 472.2c-5.06-5.08-8.98-6.85-11.13-4.7-2.02 2-.24 5.98 4.7 10.93 4.95 4.94 8.8 6.64 10.9 4.55 2.06-2.07.36-5.97-4.47-10.8"/><path d="M477.16 835.72h-12.88v-12.88c0-1.56-1.28-2.84-2.84-2.84h-2.88c-1.56 0-2.84 1.28-2.84 2.84v12.88h-12.88c-1.56 0-2.84 1.28-2.84 2.84v2.88c0 1.56 1.28 2.84 2.84 2.84h12.88v12.88c0 1.56 1.28 2.84 2.84 2.84h2.88c1.56 0 2.84-1.28 2.84-2.84v-12.88h12.88c1.56 0 2.84-1.28 2.84-2.84v-2.88c0-1.56-1.28-2.84-2.84-2.84z" stroke="#000" stroke-width="2" fill="#0c7cba"/><path d="M557.16 520h-34.32c-1.56 0-2.84 1.28-2.84 2.85v2.87c0 1.57 1.28 2.85 2.84 2.85h34.32c1.56 0 2.84-1.28 2.84-2.85v-2.87c0-1.57-1.28-2.85-2.84-2.85zM457.16 580h-34.32c-1.56 0-2.84 1.28-2.84 2.85v2.87c0 1.57 1.28 2.85 2.84 2.85h34.32c1.56 0 2.84-1.28 2.84-2.85v-2.87c0-1.57-1.28-2.85-2.84-2.85zM457.16 660h-34.32c-1.56 0-2.84 1.28-2.84 2.85v2.87c0 1.57 1.28 2.85 2.84 2.85h34.32c1.56 0 2.84-1.28 2.84-2.85v-2.87c0-1.57-1.28-2.85-2.84-2.85zM377.16 660h-34.32c-1.56 0-2.84 1.28-2.84 2.85v2.87c0 1.57 1.28 2.85 2.84 2.85h34.32c1.56 0 2.84-1.28 2.84-2.85v-2.87c0-1.57-1.28-2.85-2.84-2.85zM277.16 520h-34.32c-1.56 0-2.84 1.28-2.84 2.85v2.87c0 1.57 1.28 2.85 2.84 2.85h34.32c1.56 0 2.84-1.28 2.84-2.85v-2.87c0-1.57-1.28-2.85-2.84-2.85z" stroke="#000" stroke-width="2" fill="#ef8d22"/><path d="M617.16 755.72h-12.88v-12.88c0-1.56-1.28-2.84-2.84-2.84h-2.88c-1.56 0-2.84 1.28-2.84 2.84v12.88h-12.88c-1.56 0-2.84 1.28-2.84 2.84v2.88c0 1.56 1.28 2.84 2.84 2.84h12.88v12.88c0 1.56 1.28 2.84 2.84 2.84h2.88c1.56 0 2.84-1.28 2.84-2.84v-12.88h12.88c1.56 0 2.84-1.28 2.84-2.84v-2.88c0-1.56-1.28-2.84-2.84-2.84zM717.16 755.72h-12.88v-12.88c0-1.56-1.28-2.84-2.84-2.84h-2.88c-1.56 0-2.84 1.28-2.84 2.84v12.88h-12.88c-1.56 0-2.84 1.28-2.84 2.84v2.88c0 1.56 1.28 2.84 2.84 2.84h12.88v12.88c0 1.56 1.28 2.84 2.84 2.84h2.88c1.56 0 2.84-1.28 2.84-2.84v-12.88h12.88c1.56 0 2.84-1.28 2.84-2.84v-2.88c0-1.56-1.28-2.84-2.84-2.84zM617.16 835.72h-12.88v-12.88c0-1.56-1.28-2.84-2.84-2.84h-2.88c-1.56 0-2.84 1.28-2.84 2.84v12.88h-12.88c-1.56 0-2.84 1.28-2.84 2.84v2.88c0 1.56 1.28 2.84 2.84 2.84h12.88v12.88c0 1.56 1.28 2.84 2.84 2.84h2.88c1.56 0 2.84-1.28 2.84-2.84v-12.88h12.88c1.56 0 2.84-1.28 2.84-2.84v-2.88c0-1.56-1.28-2.84-2.84-2.84zM557.16 935.72h-12.88v-12.88c0-1.56-1.28-2.84-2.84-2.84h-2.88c-1.56 0-2.84 1.28-2.84 2.84v12.88h-12.88c-1.56 0-2.84 1.28-2.84 2.84v2.88c0 1.56 1.28 2.84 2.84 2.84h12.88v12.88c0 1.56 1.28 2.84 2.84 2.84h2.88c1.56 0 2.84-1.28 2.84-2.84v-12.88h12.88c1.56 0 2.84-1.28 2.84-2.84v-2.88c0-1.56-1.28-2.84-2.84-2.84z" stroke="#000" stroke-width="2" fill="#0c7cba"/><path d="M320 400h160v80H320z" stroke="#000" stroke-width="2" fill="#ef8d22"/><g><use xlink:href="#i" transform="matrix(1,0,0,1,325,405) translate(11.820987654320987 39.65277777777778)"/><use xlink:href="#j" transform="matrix(1,0,0,1,325,405) translate(106.69753086419753 39.65277777777778)"/><use xlink:href="#k" transform="matrix(1,0,0,1,325,405) translate(125.83333333333333 39.65277777777778)"/></g><path d="M720 840h160v80H720z" stroke="#000" stroke-width="2" fill="#0c7cba"/><g><use xlink:href="#i" transform="matrix(1,0,0,1,725,845) translate(11.820987654320987 39.65277777777778)"/><use xlink:href="#l" transform="matrix(1,0,0,1,725,845) translate(106.69753086419753 39.65277777777778)"/><use xlink:href="#k" transform="matrix(1,0,0,1,725,845) translate(125.83333333333333 39.65277777777778)"/></g><defs><path d="M141-36C126-15 110 5 73 4 37 3 15-17 15-53c-1-64 63-63 125-63 3-35-9-54-41-54-24 1-41 7-42 31l-33-3c5-37 33-52 76-52 45 0 72 20 72 64v82c-1 20 7 32 28 27v20c-31 9-61-2-59-35zM48-53c0 20 12 33 32 33 41-3 63-29 60-74-43 2-92-5-92 41" id="m"/><path d="M206 0h-36l-40-164L89 0H53L-1-190h32L70-26l43-164h34l41 164 42-164h31" id="n"/><path d="M100-194c63 0 86 42 84 106H49c0 40 14 67 53 68 26 1 43-12 49-29l28 8c-11 28-37 45-77 45C44 4 14-33 15-96c1-61 26-98 85-98zm52 81c6-60-76-77-97-28-3 7-6 17-6 28h103" id="o"/><path d="M135-143c-3-34-86-38-87 0 15 53 115 12 119 90S17 21 10-45l28-5c4 36 97 45 98 0-10-56-113-15-118-90-4-57 82-63 122-42 12 7 21 19 24 35" id="p"/><path d="M100-194c62-1 85 37 85 99 1 63-27 99-86 99S16-35 15-95c0-66 28-99 85-99zM99-20c44 1 53-31 53-75 0-43-8-75-51-75s-53 32-53 75 10 74 51 75" id="q"/><path d="M210-169c-67 3-38 105-44 169h-31v-121c0-29-5-50-35-48C34-165 62-65 56 0H25l-1-190h30c1 10-1 24 2 32 10-44 99-50 107 0 11-21 27-35 58-36 85-2 47 119 55 194h-31v-121c0-29-5-49-35-48" id="r"/><g id="a"><use transform="matrix(0.07407407407407408,0,0,0.07407407407407408,0,0)" xlink:href="#m"/><use transform="matrix(0.07407407407407408,0,0,0.07407407407407408,14.814814814814817,0)" xlink:href="#n"/><use transform="matrix(0.07407407407407408,0,0,0.07407407407407408,34,0)" xlink:href="#o"/><use transform="matrix(0.07407407407407408,0,0,0.07407407407407408,48.81481481481481,0)" xlink:href="#p"/><use transform="matrix(0.07407407407407408,0,0,0.07407407407407408,62.14814814814816,0)" xlink:href="#q"/><use transform="matrix(0.07407407407407408,0,0,0.07407407407407408,76.96296296296296,0)" xlink:href="#r"/><use transform="matrix(0.07407407407407408,0,0,0.07407407407407408,99.11111111111111,0)" xlink:href="#o"/></g><path d="M101-234c-31-9-42 10-38 44h38v23H63V0H32v-167H5v-23h27c-7-52 17-82 69-68v24" id="s"/><path d="M84 4C-5 8 30-112 23-190h32v120c0 31 7 50 39 49 72-2 45-101 50-169h31l1 190h-30c-1-10 1-25-2-33-11 22-28 36-60 37" id="t"/><path d="M24 0v-261h32V0H24" id="u"/><g id="b"><use transform="matrix(0.07407407407407408,0,0,0.07407407407407408,0,0)" xlink:href="#m"/><use transform="matrix(0.07407407407407408,0,0,0.07407407407407408,14.814814814814817,0)" xlink:href="#n"/><use transform="matrix(0.07407407407407408,0,0,0.07407407407407408,34,0)" xlink:href="#s"/><use transform="matrix(0.07407407407407408,0,0,0.07407407407407408,41.407407407407405,0)" xlink:href="#t"/><use transform="matrix(0.07407407407407408,0,0,0.07407407407407408,56.22222222222222,0)" xlink:href="#u"/></g><path d="M101-251c68 0 85 55 85 127S166 4 100 4C33 4 14-52 14-124c0-73 17-127 87-127zm-1 229c47 0 54-49 54-102s-4-102-53-102c-51 0-55 48-55 102 0 53 5 102 54 102" id="v"/><use transform="matrix(0.07407407407407408,0,0,0.07407407407407408,0,0)" xlink:href="#v" id="c"/><path d="M27 0v-27h64v-190l-56 39v-29l58-41h29v221h61V0H27" id="w"/><use transform="matrix(0.07407407407407408,0,0,0.07407407407407408,0,0)" xlink:href="#w" id="d"/><path d="M101-251c82-7 93 87 43 132L82-64C71-53 59-42 53-27h129V0H18c2-99 128-94 128-182 0-28-16-43-45-43s-46 15-49 41l-32-3c6-41 34-60 81-64" id="x"/><use transform="matrix(0.07407407407407408,0,0,0.07407407407407408,0,0)" xlink:href="#x" id="e"/><path d="M126-127c33 6 58 20 58 59 0 88-139 92-164 29-3-8-5-16-6-25l32-3c6 27 21 44 54 44 32 0 52-15 52-46 0-38-36-46-79-43v-28c39 1 72-4 72-42 0-27-17-43-46-43-28 0-47 15-49 41l-32-3c6-42 35-63 81-64 48-1 79 21 79 65 0 36-21 52-52 59" id="y"/><use transform="matrix(0.07407407407407408,0,0,0.07407407407407408,0,0)" xlink:href="#y" id="f"/><path d="M155-56V0h-30v-56H8v-25l114-167h33v167h35v25h-35zm-30-156c-27 46-58 90-88 131h88v-131" id="z"/><use transform="matrix(0.07407407407407408,0,0,0.07407407407407408,0,0)" xlink:href="#z" id="g"/><path d="M33 0v-38h34V0H33" id="A"/><g id="h"><use transform="matrix(0.07407407407407408,0,0,0.07407407407407408,0,0)" xlink:href="#A"/><use transform="matrix(0.07407407407407408,0,0,0.07407407407407408,7.407407407407408,0)" xlink:href="#A"/><use transform="matrix(0.07407407407407408,0,0,0.07407407407407408,14.814814814814817,0)" xlink:href="#A"/></g><path fill="#fff" d="M169-182c-1-43-94-46-97-3 18 66 151 10 154 114 3 95-165 93-204 36-6-8-10-19-12-30l50-8c3 46 112 56 116 5-17-69-150-10-154-114-4-87 153-88 188-35 5 8 8 18 10 28" id="B"/><path fill="#fff" d="M190-63c-7 42-38 67-86 67-59 0-84-38-90-98-12-110 154-137 174-36l-49 2c-2-19-15-32-35-32-30 0-35 28-38 64-6 74 65 87 74 30" id="C"/><path fill="#fff" d="M110-194c64 0 96 36 96 99 0 64-35 99-97 99-61 0-95-36-95-99 0-62 34-99 96-99zm-1 164c35 0 45-28 45-65 0-40-10-65-43-65-34 0-45 26-45 65 0 36 10 65 43 65" id="D"/><path fill="#fff" d="M135-150c-39-12-60 13-60 57V0H25l-1-190h47c2 13-1 29 3 40 6-28 27-53 61-41v41" id="E"/><path fill="#fff" d="M185-48c-13 30-37 53-82 52C43 2 14-33 14-96s30-98 90-98c62 0 83 45 84 108H66c0 31 8 55 39 56 18 0 30-7 34-22zm-45-69c5-46-57-63-70-21-2 6-4 13-4 21h74" id="F"/><path fill="#fff" d="M67-93c0 74 22 123 53 168H70C40 30 18-18 18-93s22-123 52-168h50c-32 44-53 94-53 168" id="G"/><path fill="#fff" d="M144 0l-44-69L55 0H2l70-98-66-92h53l41 62 40-62h54l-67 91 71 99h-54" id="H"/><path fill="#fff" d="M102-93c0 74-22 123-52 168H0C30 29 54-18 53-93c0-74-22-123-53-168h50c30 45 52 94 52 168" id="I"/><g id="i"><use transform="matrix(0.06172839506172839,0,0,0.06172839506172839,0,0)" xlink:href="#B"/><use transform="matrix(0.06172839506172839,0,0,0.06172839506172839,14.814814814814813,0)" xlink:href="#C"/><use transform="matrix(0.06172839506172839,0,0,0.06172839506172839,27.160493827160494,0)" xlink:href="#D"/><use transform="matrix(0.06172839506172839,0,0,0.06172839506172839,40.67901234567901,0)" xlink:href="#E"/><use transform="matrix(0.06172839506172839,0,0,0.06172839506172839,49.32098765432099,0)" xlink:href="#F"/><use transform="matrix(0.06172839506172839,0,0,0.06172839506172839,61.666666666666664,0)" xlink:href="#G"/><use transform="matrix(0.06172839506172839,0,0,0.06172839506172839,69.01234567901234,0)" xlink:href="#H"/><use transform="matrix(0.06172839506172839,0,0,0.06172839506172839,81.35802469135803,0)" xlink:href="#I"/></g><path fill="#fff" d="M15-91v-56l181-69v40L49-119l147 57v40" id="J"/><use transform="matrix(0.06172839506172839,0,0,0.06172839506172839,0,0)" xlink:href="#J" id="j"/><path fill="#fff" d="M101-251c68 0 84 54 84 127C185-50 166 4 99 4S15-52 14-124c-1-75 17-127 87-127zm-1 216c37-5 36-46 36-89s4-89-36-89c-39 0-36 45-36 89 0 43-3 85 36 89" id="K"/><use transform="matrix(0.06172839506172839,0,0,0.06172839506172839,0,0)" xlink:href="#K" id="k"/><path fill="#fff" d="M15-22v-40l146-57-146-57v-40l181 69v56" id="L"/><use transform="matrix(0.06172839506172839,0,0,0.06172839506172839,0,0)" xlink:href="#L" id="l"/></defs></g></svg>