<svg xmlns="http://www.w3.org/2000/svg" xmlns:xlink="http://www.w3.org/1999/xlink" xmlns:lucid="lucid" width="680" height="760"><g transform="translate(-140 -60)" lucid:page-tab-id="_B2Jl3Orrwq7"><path d="M160 480h160v160H160z" stroke="#000" stroke-width="2" fill="#834187"/><use xlink:href="#a" transform="matrix(1,0,0,1,165,485) translate(18.703703703703695 49.458333333333336)"/><use xlink:href="#b" transform="matrix(1,0,0,1,165,485) translate(43.99999999999999 81.45833333333334)"/><use xlink:href="#c" transform="matrix(1,0,0,1,165,485) translate(31.407407407407405 113.45833333333334)"/><path d="M400 320h400v480H400z" stroke="#000" stroke-width="2" fill="#c7e8ac"/><path d="M400 320h400v80H400z" stroke="#000" stroke-opacity="0" stroke-width="2" fill="#fff" fill-opacity="0"/><use xlink:href="#d" transform="matrix(1,0,0,1,405,325) translate(19.740740740740733 41.020833333333336)"/><use xlink:href="#e" transform="matrix(1,0,0,1,405,325) translate(114.48148148148148 41.020833333333336)"/><use xlink:href="#f" transform="matrix(1,0,0,1,405,325) translate(250.40740740740742 41.020833333333336)"/><path d="M400 400h400v80H400z" stroke="#000" stroke-opacity="0" stroke-width="2" fill="#fff" fill-opacity="0"/><use xlink:href="#g" transform="matrix(1,0,0,1,405,405) translate(0 38.4625)"/><use xlink:href="#h" transform="matrix(1,0,0,1,405,405) translate(52.95 38.4625)"/><use xlink:href="#i" transform="matrix(1,0,0,1,405,405) translate(118.85000000000001 38.4625)"/><use xlink:href="#j" transform="matrix(1,0,0,1,405,405) translate(135.85000000000002 38.4625)"/><use xlink:href="#k" transform="matrix(1,0,0,1,405,405) translate(208.8 38.4625)"/><use xlink:href="#l" transform="matrix(1,0,0,1,405,405) translate(261.70000000000005 38.4625)"/><use xlink:href="#m" transform="matrix(1,0,0,1,405,405) translate(280.65000000000003 38.4625)"/><path d="M400 480h400v80H400z" stroke="#000" stroke-opacity="0" stroke-width="2" fill="#fff" fill-opacity="0"/><use xlink:href="#n" transform="matrix(1,0,0,1,405,485) translate(0 38.4625)"/><use xlink:href="#o" transform="matrix(1,0,0,1,405,485) translate(15 38.4625)"/><use xlink:href="#p" transform="matrix(1,0,0,1,405,485) translate(80.9 38.4625)"/><use xlink:href="#h" transform="matrix(1,0,0,1,405,485) translate(100.9 38.4625)"/><use xlink:href="#k" transform="matrix(1,0,0,1,405,485) translate(166.8 38.4625)"/><use xlink:href="#q" transform="matrix(1,0,0,1,405,485) translate(219.70000000000002 38.4625)"/><use xlink:href="#j" transform="matrix(1,0,0,1,405,485) translate(235.20000000000002 38.4625)"/><use xlink:href="#r" transform="matrix(1,0,0,1,405,485) translate(308.15000000000003 38.4625)"/><path d="M400 640h400v80H400z" stroke="#000" stroke-opacity="0" stroke-width="2" fill="#fff" fill-opacity="0"/><use xlink:href="#s" transform="matrix(1,0,0,1,405,645) translate(0 38.4625)"/><path d="M440 576h72.8v48H440z" fill="#fff" fill-opacity="0"/><path d="M453.56 603.2l1.06 5.6c4.33-7.18 6.2-10.84 6.2-13.08 0-.72-.35-1.02-1.3-1.63-1.03-.67-1.34-1.18-1.34-2 0-1.1.87-1.88 2.04-1.88 1.53 0 2.64 1.28 2.64 2.8 0 2.9-2.44 8.5-6.66 15.52-5.3 8.74-10.73 14.6-13.63 14.6-1.53 0-2.6-.87-2.6-2.2 0-1.1.87-2.03 2-2.03 1.77 0 1.77 1.44 3.1 1.44.65 0 1.26-.4 2.43-1.68.92-.97 3.2-3.97 3.6-4.63.32-.6.52-1.22.52-1.78 0-2.04-2.8-13.43-4.17-16.9-.96-2.48-1.88-3.24-3.9-3.24-.57 0-1.03.06-1.6.2v-.86l1.64-.3c1-.2 2.68-.5 5.43-.92h.2c.77 0 3.46 8.45 4.33 12.97M458.44 585.4h-1.73l-6.2-5.25-6.15 5.24h-1.73l6.3-8.5h3.16M510.32 596.38h-29.96v-3.36h29.96v3.36m0 10.17h-29.96v-3.36h29.96v3.35"/><path d="M436 720h76.8v40H436z" fill="#fff" fill-opacity="0"/><path d="M450.4 739.54l.65 3.04c3.74-5.72 5.72-7.64 8.07-7.64 1.28 0 2.2.8 2.2 1.98 0 1.12-.76 1.92-1.83 1.92-1.02 0-1.5-.9-2.8-.9-.95 0-2.87 2.34-5.22 6.46 0 .37.1 1.12.43 2.4l1.72 7.16c.37 1.5.85 2.2 1.6 2.2.7 0 1.28-.54 2.5-2.15.5-.63.7-.95 1.13-1.48l.8.48c-3.1 4.8-4.48 6.1-6.52 6.1-1.7 0-2.5-.97-3.15-3.64l-1.55-6.36-4.7 6.36c-2.35 3.15-3.42 3.63-5.07 3.63-1.66 0-2.68-.86-2.68-2.25 0-1.07.75-1.93 1.82-1.93.48 0 1.02.22 1.7.6.54.3 1.08.47 1.4.47.6 0 1.6-1.02 2.72-2.63l4.4-6.2-1.5-6.62c-.76-3.2-1.13-3.63-2.47-3.63-.43 0-1.07.1-2.08.37l-.96.26-.15-.86.58-.2c3.26-1.2 5.03-1.56 6.26-1.56 1.32 0 1.96.96 2.7 4.6M455.75 729.86h-1.8l-6.53-5.5-6.47 5.5h-1.8l6.6-8.92h3.32M510.2 741.4h-31.47v-3.52h31.47v3.53m0 10.7h-31.47v-3.54h31.47v3.53"/><path d="M571.44 598.56v2.88c0 .56-.48 1.08-1.08 1.08h-7.88v7.84c0 .6-.48 1.08-1.04 1.08h-2.88c-.56 0-1.08-.48-1.08-1.08v-7.84h-7.84c-.6 0-1.08-.52-1.08-1.08v-2.88c0-.56.48-1.04 1.08-1.04h7.84v-7.88c0-.6.52-1.08 1.08-1.08h2.88c.56 0 1.04.48 1.04 1.08v7.88h7.88c.6 0 1.08.48 1.08 1.04zm8.56-14.28v31.44c0 2.36-1.92 4.28-4.28 4.28h-31.44c-2.36 0-4.28-1.92-4.28-4.28v-31.44c0-2.36 1.92-4.28 4.28-4.28h31.44c2.36 0 4.28 1.92 4.28 4.28zm-4.28 30.88v-30.32c0-.32-.24-.56-.56-.56h-30.32c-.32 0-.56.24-.56.56v30.32c0 .32.24.56.56.56h30.32c.32 0 .56-.24.56-.56z" stroke="#000" stroke-opacity="0" stroke-width=".29" fill="#0c7cba"/><path d="M549.64 742.52c-.6 0-1.08-.52-1.08-1.08v-2.88c0-.56.48-1.04 1.08-1.04h20.72c.6 0 1.08.48 1.08 1.04v2.88c0 .56-.48 1.08-1.08 1.08h-20.72zM580 724.28v31.44c0 2.36-1.92 4.28-4.28 4.28h-31.44c-2.36 0-4.28-1.92-4.28-4.28v-31.44c0-2.36 1.92-4.28 4.28-4.28h31.44c2.36 0 4.28 1.92 4.28 4.28zm-4.28 30.88v-30.32c0-.32-.24-.56-.56-.56h-30.32c-.32 0-.56.24-.56.56v30.32c0 .32.24.56.56.56h30.32c.32 0 .56-.24.56-.56z" stroke="#000" stroke-opacity="0" stroke-width=".29" fill="#ef8d22"/><path d="M323.5 560h53.17" stroke="#834187" stroke-width="5" fill="none"/><path d="M323.56 562.5H321v-5h2.56z" fill="#834187"/><path d="M393.43 560l-14.26 4.64v-9.28z" stroke="#834187" stroke-width="5" fill="#834187"/><path d="M160 640h160v80H160z" stroke="#000" stroke-opacity="0" stroke-width="2" fill="#fff" fill-opacity="0"/><g><use xlink:href="#t" transform="matrix(1,0,0,1,165,645) translate(31.29629629629629 41.020833333333336)"/><use xlink:href="#u" transform="matrix(1,0,0,1,165,645) translate(105.37037037037037 41.020833333333336)"/></g><path d="M400 160h200v80H400z" stroke="#000" stroke-width="2" fill="#d1bcd2"/><g><use xlink:href="#v" transform="matrix(1,0,0,1,405,165) translate(4.703703703703695 27.34722222222222)"/><use xlink:href="#w" transform="matrix(1,0,0,1,405,165) translate(55.02469135802469 27.34722222222222)"/><use xlink:href="#x" transform="matrix(1,0,0,1,405,165) translate(140.85185185185185 27.34722222222222)"/><use xlink:href="#y" transform="matrix(1,0,0,1,405,165) translate(49.123456790123456 48.68055555555556)"/><use xlink:href="#z" transform="matrix(1,0,0,1,405,165) translate(126.06172839506173 48.68055555555556)"/></g><path d="M600 160h200v80H600z" stroke="#000" stroke-width="2" fill="#d1bcd2"/><g><use xlink:href="#A" transform="matrix(1,0,0,1,605,165) translate(45.1 27.525)"/><use xlink:href="#B" transform="matrix(1,0,0,1,605,165) translate(85.1 27.525)"/><use xlink:href="#C" transform="matrix(1,0,0,1,605,165) translate(14.049999999999997 49.125)"/><use xlink:href="#D" transform="matrix(1,0,0,1,605,165) translate(104.95 49.125)"/><use xlink:href="#E" transform="matrix(1,0,0,1,605,165) translate(160.95 49.125)"/></g><path d="M400 80h200v80H400z" stroke="#000" stroke-width="2" fill="#834187"/><g><use xlink:href="#F" transform="matrix(1,0,0,1,405,85) translate(16.172839506172835 26.52777777777778)"/><use xlink:href="#G" transform="matrix(1,0,0,1,405,85) translate(61.72839506172839 26.52777777777778)"/><use xlink:href="#H" transform="matrix(1,0,0,1,405,85) translate(88.76543209876543 26.52777777777778)"/><use xlink:href="#I" transform="matrix(1,0,0,1,405,85) translate(60.74074074074074 53.19444444444445)"/></g><path d="M600 80h200v80H600z" stroke="#000" stroke-width="2" fill="#834187"/><g><use xlink:href="#F" transform="matrix(1,0,0,1,605,85) translate(12.5 26.52777777777778)"/><use xlink:href="#G" transform="matrix(1,0,0,1,605,85) translate(58.05555555555556 26.52777777777778)"/><use xlink:href="#J" transform="matrix(1,0,0,1,605,85) translate(85.0925925925926 26.52777777777778)"/><use xlink:href="#I" transform="matrix(1,0,0,1,605,85) translate(60.74074074074074 53.19444444444445)"/></g><path d="M600 242.5v52.64M600 242.56V240" stroke="#834187" stroke-width="5" fill="none"/><path d="M600 311.9l-4.64-14.26h9.28z" stroke="#834187" stroke-width="5" fill="#834187"/><defs><path fill="#fff" d="M185-189c-5-48-123-54-124 2 14 75 158 14 163 119 3 78-121 87-175 55-17-10-28-26-33-46l33-7c5 56 141 63 141-1 0-78-155-14-162-118-5-82 145-84 179-34 5 7 8 16 11 25" id="K"/><path fill="#fff" d="M100-194c63 0 86 42 84 106H49c0 40 14 67 53 68 26 1 43-12 49-29l28 8c-11 28-37 45-77 45C44 4 14-33 15-96c1-61 26-98 85-98zm52 81c6-60-76-77-97-28-3 7-6 17-6 28h103" id="L"/><path fill="#fff" d="M117-194c89-4 53 116 60 194h-32v-121c0-31-8-49-39-48C34-167 62-67 57 0H25l-1-190h30c1 10-1 24 2 32 11-22 29-35 61-36" id="M"/><path fill="#fff" d="M59-47c-2 24 18 29 38 22v24C64 9 27 4 27-40v-127H5v-23h24l9-43h21v43h35v23H59v120" id="N"/><path fill="#fff" d="M96-169c-40 0-48 33-48 73s9 75 48 75c24 0 41-14 43-38l32 2c-6 37-31 61-74 61-59 0-76-41-82-99-10-93 101-131 147-64 4 7 5 14 7 22l-32 3c-4-21-16-35-41-35" id="O"/><g id="a"><use transform="matrix(0.07407407407407408,0,0,0.07407407407407408,0,0)" xlink:href="#K"/><use transform="matrix(0.07407407407407408,0,0,0.07407407407407408,17.77777777777778,0)" xlink:href="#L"/><use transform="matrix(0.07407407407407408,0,0,0.07407407407407408,32.592592592592595,0)" xlink:href="#M"/><use transform="matrix(0.07407407407407408,0,0,0.07407407407407408,47.40740740740741,0)" xlink:href="#N"/><use transform="matrix(0.07407407407407408,0,0,0.07407407407407408,54.814814814814824,0)" xlink:href="#L"/><use transform="matrix(0.07407407407407408,0,0,0.07407407407407408,69.62962962962965,0)" xlink:href="#M"/><use transform="matrix(0.07407407407407408,0,0,0.07407407407407408,84.44444444444446,0)" xlink:href="#O"/><use transform="matrix(0.07407407407407408,0,0,0.07407407407407408,97.77777777777781,0)" xlink:href="#L"/></g><path fill="#fff" d="M63-220v92h138v28H63V0H30v-248h175v28H63" id="P"/><path fill="#fff" d="M114-163C36-179 61-72 57 0H25l-1-190h30c1 12-1 29 2 39 6-27 23-49 58-41v29" id="Q"/><path fill="#fff" d="M100-194c62-1 85 37 85 99 1 63-27 99-86 99S16-35 15-95c0-66 28-99 85-99zM99-20c44 1 53-31 53-75 0-43-8-75-51-75s-53 32-53 75 10 74 51 75" id="R"/><path fill="#fff" d="M210-169c-67 3-38 105-44 169h-31v-121c0-29-5-50-35-48C34-165 62-65 56 0H25l-1-190h30c1 10-1 24 2 32 10-44 99-50 107 0 11-21 27-35 58-36 85-2 47 119 55 194h-31v-121c0-29-5-49-35-48" id="S"/><g id="b"><use transform="matrix(0.07407407407407408,0,0,0.07407407407407408,0,0)" xlink:href="#P"/><use transform="matrix(0.07407407407407408,0,0,0.07407407407407408,16.222222222222225,0)" xlink:href="#Q"/><use transform="matrix(0.07407407407407408,0,0,0.07407407407407408,25.03703703703704,0)" xlink:href="#R"/><use transform="matrix(0.07407407407407408,0,0,0.07407407407407408,39.85185185185187,0)" xlink:href="#S"/></g><path fill="#fff" d="M233-177c-1 41-23 64-60 70L243 0h-38l-65-103H63V0H30v-248c88 3 205-21 203 71zM63-129c60-2 137 13 137-47 0-61-80-42-137-45v92" id="T"/><path fill="#fff" d="M108 0H70L1-190h34L89-25l56-165h34" id="U"/><path fill="#fff" d="M24-231v-30h32v30H24zM24 0v-190h32V0H24" id="V"/><path fill="#fff" d="M206 0h-36l-40-164L89 0H53L-1-190h32L70-26l43-164h34l41 164 42-164h31" id="W"/><g id="c"><use transform="matrix(0.07407407407407408,0,0,0.07407407407407408,0,0)" xlink:href="#T"/><use transform="matrix(0.07407407407407408,0,0,0.07407407407407408,19.185185185185187,0)" xlink:href="#L"/><use transform="matrix(0.07407407407407408,0,0,0.07407407407407408,34,0)" xlink:href="#U"/><use transform="matrix(0.07407407407407408,0,0,0.07407407407407408,47.33333333333334,0)" xlink:href="#V"/><use transform="matrix(0.07407407407407408,0,0,0.07407407407407408,53.18518518518519,0)" xlink:href="#L"/><use transform="matrix(0.07407407407407408,0,0,0.07407407407407408,68,0)" xlink:href="#W"/></g><path d="M169-182c-1-43-94-46-97-3 18 66 151 10 154 114 3 95-165 93-204 36-6-8-10-19-12-30l50-8c3 46 112 56 116 5-17-69-150-10-154-114-4-87 153-88 188-35 5 8 8 18 10 28" id="X"/><path d="M25-224v-37h50v37H25zM25 0v-190h50V0H25" id="Y"/><path d="M220-157c-53 9-28 100-34 157h-49v-107c1-27-5-49-29-50C55-147 81-57 75 0H25l-1-190h47c2 12-1 28 3 38 10-53 101-56 108 0 13-22 24-43 59-42 82 1 51 116 57 194h-49v-107c-1-25-5-48-29-50" id="Z"/><path d="M135-194c53 0 70 44 70 98 0 56-19 98-73 100-31 1-45-17-59-34 3 33 2 69 2 105H25l-1-265h48c2 10 0 23 3 31 11-24 29-35 60-35zM114-30c33 0 39-31 40-66 0-38-9-64-40-64-56 0-55 130 0 130" id="aa"/><path d="M25 0v-261h50V0H25" id="ab"/><path d="M185-48c-13 30-37 53-82 52C43 2 14-33 14-96s30-98 90-98c62 0 83 45 84 108H66c0 31 8 55 39 56 18 0 30-7 34-22zm-45-69c5-46-57-63-70-21-2 6-4 13-4 21h74" id="ac"/><g id="d"><use transform="matrix(0.07407407407407408,0,0,0.07407407407407408,0,0)" xlink:href="#X"/><use transform="matrix(0.07407407407407408,0,0,0.07407407407407408,17.77777777777778,0)" xlink:href="#Y"/><use transform="matrix(0.07407407407407408,0,0,0.07407407407407408,25.185185185185187,0)" xlink:href="#Z"/><use transform="matrix(0.07407407407407408,0,0,0.07407407407407408,48.88888888888889,0)" xlink:href="#aa"/><use transform="matrix(0.07407407407407408,0,0,0.07407407407407408,65.11111111111111,0)" xlink:href="#ab"/><use transform="matrix(0.07407407407407408,0,0,0.07407407407407408,72.51851851851852,0)" xlink:href="#ac"/></g><path d="M136-208V0H84v-208H4v-40h212v40h-80" id="ad"/><path d="M114-157C55-157 80-60 75 0H25v-261h50l-1 109c12-26 28-41 61-42 86-1 58 113 63 194h-50c-7-57 23-157-34-157" id="ae"/><path d="M135-150c-39-12-60 13-60 57V0H25l-1-190h47c2 13-1 29 3 40 6-28 27-53 61-41v41" id="af"/><path d="M137-138c1-29-70-34-71-4 15 46 118 7 119 86 1 83-164 76-172 9l43-7c4 19 20 25 44 25 33 8 57-30 24-41C81-84 22-81 20-136c-2-80 154-74 161-7" id="ag"/><path d="M110-194c64 0 96 36 96 99 0 64-35 99-97 99-61 0-95-36-95-99 0-62 34-99 96-99zm-1 164c35 0 45-28 45-65 0-40-10-65-43-65-34 0-45 26-45 65 0 36 10 65 43 65" id="ah"/><path d="M88-194c31-1 46 15 58 34l-1-101h50l1 261h-48c-2-10 0-23-3-31C134-8 116 4 84 4 32 4 16-41 15-95c0-56 19-97 73-99zm17 164c33 0 40-30 41-66 1-37-9-64-41-64s-38 30-39 65c0 43 13 65 39 65" id="ai"/><g id="e"><use transform="matrix(0.07407407407407408,0,0,0.07407407407407408,0,0)" xlink:href="#ad"/><use transform="matrix(0.07407407407407408,0,0,0.07407407407407408,16.222222222222225,0)" xlink:href="#ae"/><use transform="matrix(0.07407407407407408,0,0,0.07407407407407408,32.44444444444445,0)" xlink:href="#af"/><use transform="matrix(0.07407407407407408,0,0,0.07407407407407408,42.814814814814824,0)" xlink:href="#ac"/><use transform="matrix(0.07407407407407408,0,0,0.07407407407407408,57.62962962962964,0)" xlink:href="#ag"/><use transform="matrix(0.07407407407407408,0,0,0.07407407407407408,72.44444444444446,0)" xlink:href="#ae"/><use transform="matrix(0.07407407407407408,0,0,0.07407407407407408,88.66666666666667,0)" xlink:href="#ah"/><use transform="matrix(0.07407407407407408,0,0,0.07407407407407408,104.88888888888891,0)" xlink:href="#ab"/><use transform="matrix(0.07407407407407408,0,0,0.07407407407407408,112.2962962962963,0)" xlink:href="#ai"/></g><path d="M67-125c0 53 21 87 73 88 37 1 54-22 65-47l45 17C233-25 199 4 140 4 58 4 20-42 15-125 8-235 124-281 211-232c18 10 29 29 36 50l-46 12c-8-25-30-41-62-41-52 0-71 34-72 86" id="aj"/><path d="M133-34C117-15 103 5 69 4 32 3 11-16 11-54c-1-60 55-63 116-61 1-26-3-47-28-47-18 1-26 9-28 27l-52-2c7-38 36-58 82-57s74 22 75 68l1 82c-1 14 12 18 25 15v27c-30 8-71 5-69-32zm-48 3c29 0 43-24 42-57-32 0-66-3-65 30 0 17 8 27 23 27" id="ak"/><path d="M121-226c-27-7-43 5-38 36h38v33H83V0H34v-157H6v-33h28c-9-59 32-81 87-68v32" id="al"/><g id="f"><use transform="matrix(0.07407407407407408,0,0,0.07407407407407408,0,0)" xlink:href="#aj"/><use transform="matrix(0.07407407407407408,0,0,0.07407407407407408,19.185185185185187,0)" xlink:href="#ab"/><use transform="matrix(0.07407407407407408,0,0,0.07407407407407408,26.592592592592595,0)" xlink:href="#ak"/><use transform="matrix(0.07407407407407408,0,0,0.07407407407407408,41.40740740740741,0)" xlink:href="#ag"/><use transform="matrix(0.07407407407407408,0,0,0.07407407407407408,56.22222222222223,0)" xlink:href="#ag"/><use transform="matrix(0.07407407407407408,0,0,0.07407407407407408,71.03703703703704,0)" xlink:href="#Y"/><use transform="matrix(0.07407407407407408,0,0,0.07407407407407408,78.44444444444444,0)" xlink:href="#al"/><use transform="matrix(0.07407407407407408,0,0,0.07407407407407408,87.25925925925927,0)" xlink:href="#Y"/><use transform="matrix(0.07407407407407408,0,0,0.07407407407407408,94.66666666666669,0)" xlink:href="#ac"/><use transform="matrix(0.07407407407407408,0,0,0.07407407407407408,109.4814814814815,0)" xlink:href="#af"/></g><path d="M212-179c-10-28-35-45-73-45-59 0-87 40-87 99 0 60 29 101 89 101 43 0 62-24 78-52l27 14C228-24 195 4 139 4 59 4 22-46 18-125c-6-104 99-153 187-111 19 9 31 26 39 46" id="am"/><path d="M100-194c62-1 85 37 85 99 1 63-27 99-86 99S16-35 15-95c0-66 28-99 85-99zM99-20c44 1 53-31 53-75 0-43-8-75-51-75s-53 32-53 75 10 74 51 75" id="an"/><path d="M84 4C-5 8 30-112 23-190h32v120c0 31 7 50 39 49 72-2 45-101 50-169h31l1 190h-30c-1-10 1-25-2-33-11 22-28 36-60 37" id="ao"/><path d="M117-194c89-4 53 116 60 194h-32v-121c0-31-8-49-39-48C34-167 62-67 57 0H25l-1-190h30c1 10-1 24 2 32 11-22 29-35 61-36" id="ap"/><path d="M59-47c-2 24 18 29 38 22v24C64 9 27 4 27-40v-127H5v-23h24l9-43h21v43h35v23H59v120" id="aq"/><g id="g"><use transform="matrix(0.05,0,0,0.05,0,0)" xlink:href="#am"/><use transform="matrix(0.05,0,0,0.05,12.950000000000001,0)" xlink:href="#an"/><use transform="matrix(0.05,0,0,0.05,22.950000000000003,0)" xlink:href="#ao"/><use transform="matrix(0.05,0,0,0.05,32.95,0)" xlink:href="#ap"/><use transform="matrix(0.05,0,0,0.05,42.95,0)" xlink:href="#aq"/></g><path d="M115-194c55 1 70 41 70 98S169 2 115 4C84 4 66-9 55-30l1 105H24l-1-265h31l2 30c10-21 28-34 59-34zm-8 174c40 0 45-34 45-75s-6-73-45-74c-42 0-51 32-51 76 0 43 10 73 51 73" id="ar"/><path d="M135-143c-3-34-86-38-87 0 15 53 115 12 119 90S17 21 10-45l28-5c4 36 97 45 98 0-10-56-113-15-118-90-4-57 82-63 122-42 12 7 21 19 24 35" id="as"/><path d="M24-231v-30h32v30H24zM24 0v-190h32V0H24" id="at"/><path d="M108 0H70L1-190h34L89-25l56-165h34" id="au"/><path d="M100-194c63 0 86 42 84 106H49c0 40 14 67 53 68 26 1 43-12 49-29l28 8c-11 28-37 45-77 45C44 4 14-33 15-96c1-61 26-98 85-98zm52 81c6-60-76-77-97-28-3 7-6 17-6 28h103" id="av"/><g id="h"><use transform="matrix(0.05,0,0,0.05,0,0)" xlink:href="#ar"/><use transform="matrix(0.05,0,0,0.05,10,0)" xlink:href="#an"/><use transform="matrix(0.05,0,0,0.05,20,0)" xlink:href="#as"/><use transform="matrix(0.05,0,0,0.05,29,0)" xlink:href="#at"/><use transform="matrix(0.05,0,0,0.05,32.95,0)" xlink:href="#aq"/><use transform="matrix(0.05,0,0,0.05,37.95,0)" xlink:href="#at"/><use transform="matrix(0.05,0,0,0.05,41.900000000000006,0)" xlink:href="#au"/><use transform="matrix(0.05,0,0,0.05,50.900000000000006,0)" xlink:href="#av"/></g><path d="M234-2c-28 10-62 0-77-18C117 19 8 12 13-65c3-43 29-61 60-76-25-40-17-114 47-108 35 3 59 15 59 50 0 44-40 53-71 69 14 26 32 50 51 72 14-21 24-43 30-72l26 8c-9 33-21 57-38 82 13 13 33 22 57 15v23zM97-151c25-10 52-18 56-48-1-18-13-29-33-29-42 0-39 50-23 77zM42-66c-3 51 71 58 98 28-20-24-41-51-56-80-23 10-40 24-42 52" id="aw"/><use transform="matrix(0.05,0,0,0.05,0,0)" xlink:href="#aw" id="i"/><path d="M177-190C167-65 218 103 67 71c-23-6-38-20-44-43l32-5c15 47 100 32 89-28v-30C133-14 115 1 83 1 29 1 15-40 15-95c0-56 16-97 71-98 29-1 48 16 59 35 1-10 0-23 2-32h30zM94-22c36 0 50-32 50-73 0-42-14-75-50-75-39 0-46 34-46 75s6 73 46 73" id="ax"/><path d="M141-36C126-15 110 5 73 4 37 3 15-17 15-53c-1-64 63-63 125-63 3-35-9-54-41-54-24 1-41 7-42 31l-33-3c5-37 33-52 76-52 45 0 72 20 72 64v82c-1 20 7 32 28 27v20c-31 9-61-2-59-35zM48-53c0 20 12 33 32 33 41-3 63-29 60-74-43 2-92-5-92 41" id="ay"/><g id="j"><use transform="matrix(0.05,0,0,0.05,0,0)" xlink:href="#ap"/><use transform="matrix(0.05,0,0,0.05,10,0)" xlink:href="#av"/><use transform="matrix(0.05,0,0,0.05,20,0)" xlink:href="#ax"/><use transform="matrix(0.05,0,0,0.05,30,0)" xlink:href="#ay"/><use transform="matrix(0.05,0,0,0.05,40,0)" xlink:href="#aq"/><use transform="matrix(0.05,0,0,0.05,45,0)" xlink:href="#at"/><use transform="matrix(0.05,0,0,0.05,48.95,0)" xlink:href="#au"/><use transform="matrix(0.05,0,0,0.05,57.95,0)" xlink:href="#av"/></g><path d="M206 0h-36l-40-164L89 0H53L-1-190h32L70-26l43-164h34l41 164 42-164h31" id="az"/><path d="M114-163C36-179 61-72 57 0H25l-1-190h30c1 12-1 29 2 39 6-27 23-49 58-41v29" id="aA"/><path d="M85-194c31 0 48 13 60 33l-1-100h32l1 261h-30c-2-10 0-23-3-31C134-8 116 4 85 4 32 4 16-35 15-94c0-66 23-100 70-100zm9 24c-40 0-46 34-46 75 0 40 6 74 45 74 42 0 51-32 51-76 0-42-9-74-50-73" id="aB"/><g id="k"><use transform="matrix(0.05,0,0,0.05,0,0)" xlink:href="#az"/><use transform="matrix(0.05,0,0,0.05,12.950000000000001,0)" xlink:href="#an"/><use transform="matrix(0.05,0,0,0.05,22.950000000000003,0)" xlink:href="#aA"/><use transform="matrix(0.05,0,0,0.05,28.900000000000002,0)" xlink:href="#aB"/><use transform="matrix(0.05,0,0,0.05,38.900000000000006,0)" xlink:href="#as"/></g><g id="l"><use transform="matrix(0.05,0,0,0.05,0,0)" xlink:href="#at"/><use transform="matrix(0.05,0,0,0.05,3.95,0)" xlink:href="#ap"/></g><path d="M96-169c-40 0-48 33-48 73s9 75 48 75c24 0 41-14 43-38l32 2c-6 37-31 61-74 61-59 0-76-41-82-99-10-93 101-131 147-64 4 7 5 14 7 22l-32 3c-4-21-16-35-41-35" id="aC"/><g id="m"><use transform="matrix(0.05,0,0,0.05,0,0)" xlink:href="#as"/><use transform="matrix(0.05,0,0,0.05,9,0)" xlink:href="#av"/><use transform="matrix(0.05,0,0,0.05,19,0)" xlink:href="#ap"/><use transform="matrix(0.05,0,0,0.05,29,0)" xlink:href="#aq"/><use transform="matrix(0.05,0,0,0.05,34,0)" xlink:href="#av"/><use transform="matrix(0.05,0,0,0.05,44,0)" xlink:href="#ap"/><use transform="matrix(0.05,0,0,0.05,54,0)" xlink:href="#aC"/><use transform="matrix(0.05,0,0,0.05,63,0)" xlink:href="#av"/></g><path d="M33 0v-248h34V0H33" id="aD"/><path d="M101-234c-31-9-42 10-38 44h38v23H63V0H32v-167H5v-23h27c-7-52 17-82 69-68v24" id="aE"/><g id="n"><use transform="matrix(0.05,0,0,0.05,0,0)" xlink:href="#aD"/><use transform="matrix(0.05,0,0,0.05,5,0)" xlink:href="#aE"/></g><path d="M210-169c-67 3-38 105-44 169h-31v-121c0-29-5-50-35-48C34-165 62-65 56 0H25l-1-190h30c1 10-1 24 2 32 10-44 99-50 107 0 11-21 27-35 58-36 85-2 47 119 55 194h-31v-121c0-29-5-49-35-48" id="aF"/><path d="M115-194c53 0 69 39 70 98 0 66-23 100-70 100C84 3 66-7 56-30L54 0H23l1-261h32v101c10-23 28-34 59-34zm-8 174c40 0 45-34 45-75 0-40-5-75-45-74-42 0-51 32-51 76 0 43 10 73 51 73" id="aG"/><g id="o"><use transform="matrix(0.05,0,0,0.05,0,0)" xlink:href="#ap"/><use transform="matrix(0.05,0,0,0.05,10,0)" xlink:href="#ao"/><use transform="matrix(0.05,0,0,0.05,20,0)" xlink:href="#aF"/><use transform="matrix(0.05,0,0,0.05,34.95,0)" xlink:href="#aG"/><use transform="matrix(0.05,0,0,0.05,44.95,0)" xlink:href="#av"/><use transform="matrix(0.05,0,0,0.05,54.95,0)" xlink:href="#aA"/></g><g id="p"><use transform="matrix(0.05,0,0,0.05,0,0)" xlink:href="#an"/><use transform="matrix(0.05,0,0,0.05,10,0)" xlink:href="#aE"/></g><path d="M18-27v-27l151-64-151-65v-27l175 74v36" id="aH"/><use transform="matrix(0.05,0,0,0.05,0,0)" xlink:href="#aH" id="q"/><path d="M33-154v-36h34v36H33zM33 0v-36h34V0H33" id="aI"/><g id="r"><use transform="matrix(0.05,0,0,0.05,0,0)" xlink:href="#az"/><use transform="matrix(0.05,0,0,0.05,12.950000000000001,0)" xlink:href="#an"/><use transform="matrix(0.05,0,0,0.05,22.950000000000003,0)" xlink:href="#aA"/><use transform="matrix(0.05,0,0,0.05,28.900000000000002,0)" xlink:href="#aB"/><use transform="matrix(0.05,0,0,0.05,38.900000000000006,0)" xlink:href="#as"/><use transform="matrix(0.05,0,0,0.05,47.900000000000006,0)" xlink:href="#aI"/></g><path d="M30 0v-248h187v28H63v79h144v27H63v87h162V0H30" id="aJ"/><path d="M24 0v-261h32V0H24" id="aK"/><g id="s"><use transform="matrix(0.05,0,0,0.05,0,0)" xlink:href="#aJ"/><use transform="matrix(0.05,0,0,0.05,12,0)" xlink:href="#aK"/><use transform="matrix(0.05,0,0,0.05,15.949999999999998,0)" xlink:href="#as"/><use transform="matrix(0.05,0,0,0.05,24.95,0)" xlink:href="#av"/><use transform="matrix(0.05,0,0,0.05,34.95,0)" xlink:href="#aI"/></g><g id="t"><use transform="matrix(0.07407407407407408,0,0,0.07407407407407408,0,0)" xlink:href="#aD"/><use transform="matrix(0.07407407407407408,0,0,0.07407407407407408,7.407407407407408,0)" xlink:href="#ap"/><use transform="matrix(0.07407407407407408,0,0,0.07407407407407408,22.222222222222225,0)" xlink:href="#ar"/><use transform="matrix(0.07407407407407408,0,0,0.07407407407407408,37.03703703703704,0)" xlink:href="#ao"/><use transform="matrix(0.07407407407407408,0,0,0.07407407407407408,51.85185185185186,0)" xlink:href="#aq"/><use transform="matrix(0.07407407407407408,0,0,0.07407407407407408,59.25925925925927,0)" xlink:href="#aI"/></g><path d="M141 0L90-78 38 0H4l68-98-65-92h35l48 74 47-74h35l-64 92 68 98h-35" id="aL"/><use transform="matrix(0.07407407407407408,0,0,0.07407407407407408,0,0)" xlink:href="#aL" id="u"/><path d="M68-38c1 34 0 65-14 84H32c9-13 17-26 17-46H33v-38h35" id="aM"/><g id="v"><use transform="matrix(0.04938271604938272,0,0,0.04938271604938272,0,0)" xlink:href="#ax"/><use transform="matrix(0.04938271604938272,0,0,0.04938271604938272,9.876543209876544,0)" xlink:href="#aA"/><use transform="matrix(0.04938271604938272,0,0,0.04938271604938272,15.753086419753087,0)" xlink:href="#av"/><use transform="matrix(0.04938271604938272,0,0,0.04938271604938272,25.629629629629633,0)" xlink:href="#ay"/><use transform="matrix(0.04938271604938272,0,0,0.04938271604938272,35.50617283950618,0)" xlink:href="#aq"/><use transform="matrix(0.04938271604938272,0,0,0.04938271604938272,40.44444444444445,0)" xlink:href="#aM"/></g><g id="w"><use transform="matrix(0.04938271604938272,0,0,0.04938271604938272,0,0)" xlink:href="#ay"/><use transform="matrix(0.04938271604938272,0,0,0.04938271604938272,9.876543209876544,0)" xlink:href="#az"/><use transform="matrix(0.04938271604938272,0,0,0.04938271604938272,22.66666666666667,0)" xlink:href="#av"/><use transform="matrix(0.04938271604938272,0,0,0.04938271604938272,32.543209876543216,0)" xlink:href="#as"/><use transform="matrix(0.04938271604938272,0,0,0.04938271604938272,41.4320987654321,0)" xlink:href="#an"/><use transform="matrix(0.04938271604938272,0,0,0.04938271604938272,51.308641975308646,0)" xlink:href="#aF"/><use transform="matrix(0.04938271604938272,0,0,0.04938271604938272,66.07407407407408,0)" xlink:href="#av"/><use transform="matrix(0.04938271604938272,0,0,0.04938271604938272,75.95061728395062,0)" xlink:href="#aM"/></g><g id="x"><use transform="matrix(0.04938271604938272,0,0,0.04938271604938272,0,0)" xlink:href="#ax"/><use transform="matrix(0.04938271604938272,0,0,0.04938271604938272,9.876543209876544,0)" xlink:href="#an"/><use transform="matrix(0.04938271604938272,0,0,0.04938271604938272,19.75308641975309,0)" xlink:href="#an"/><use transform="matrix(0.04938271604938272,0,0,0.04938271604938272,29.629629629629633,0)" xlink:href="#aB"/><use transform="matrix(0.04938271604938272,0,0,0.04938271604938272,39.50617283950618,0)" xlink:href="#aM"/></g><path d="M9 0v-24l116-142H16v-24h144v24L44-24h123V0H9" id="aN"/><g id="y"><use transform="matrix(0.04938271604938272,0,0,0.04938271604938272,0,0)" xlink:href="#ay"/><use transform="matrix(0.04938271604938272,0,0,0.04938271604938272,9.876543209876544,0)" xlink:href="#aF"/><use transform="matrix(0.04938271604938272,0,0,0.04938271604938272,24.641975308641978,0)" xlink:href="#ay"/><use transform="matrix(0.04938271604938272,0,0,0.04938271604938272,34.51851851851852,0)" xlink:href="#aN"/><use transform="matrix(0.04938271604938272,0,0,0.04938271604938272,43.407407407407405,0)" xlink:href="#at"/><use transform="matrix(0.04938271604938272,0,0,0.04938271604938272,47.30864197530864,0)" xlink:href="#ap"/><use transform="matrix(0.04938271604938272,0,0,0.04938271604938272,57.185185185185176,0)" xlink:href="#ax"/><use transform="matrix(0.04938271604938272,0,0,0.04938271604938272,67.06172839506172,0)" xlink:href="#aM"/></g><path d="M33 0v-38h34V0H33" id="aO"/><g id="z"><use transform="matrix(0.04938271604938272,0,0,0.04938271604938272,0,0)" xlink:href="#aO"/><use transform="matrix(0.04938271604938272,0,0,0.04938271604938272,4.938271604938272,0)" xlink:href="#aO"/><use transform="matrix(0.04938271604938272,0,0,0.04938271604938272,9.876543209876544,0)" xlink:href="#aO"/></g><g id="A"><use transform="matrix(0.05,0,0,0.05,0,0)" xlink:href="#aG"/><use transform="matrix(0.05,0,0,0.05,10,0)" xlink:href="#ay"/><use transform="matrix(0.05,0,0,0.05,20,0)" xlink:href="#aB"/><use transform="matrix(0.05,0,0,0.05,30,0)" xlink:href="#aM"/></g><g id="B"><use transform="matrix(0.05,0,0,0.05,0,0)" xlink:href="#aq"/><use transform="matrix(0.05,0,0,0.05,5,0)" xlink:href="#av"/><use transform="matrix(0.05,0,0,0.05,15,0)" xlink:href="#aA"/><use transform="matrix(0.05,0,0,0.05,20.95,0)" xlink:href="#aA"/><use transform="matrix(0.05,0,0,0.05,26.899999999999995,0)" xlink:href="#at"/><use transform="matrix(0.05,0,0,0.05,30.849999999999994,0)" xlink:href="#aG"/><use transform="matrix(0.05,0,0,0.05,40.849999999999994,0)" xlink:href="#aK"/><use transform="matrix(0.05,0,0,0.05,44.8,0)" xlink:href="#av"/><use transform="matrix(0.05,0,0,0.05,54.79999999999999,0)" xlink:href="#aM"/></g><g id="C"><use transform="matrix(0.05,0,0,0.05,0,0)" xlink:href="#aB"/><use transform="matrix(0.05,0,0,0.05,10,0)" xlink:href="#at"/><use transform="matrix(0.05,0,0,0.05,13.949999999999998,0)" xlink:href="#as"/><use transform="matrix(0.05,0,0,0.05,22.95,0)" xlink:href="#ax"/><use transform="matrix(0.05,0,0,0.05,32.95,0)" xlink:href="#ao"/><use transform="matrix(0.05,0,0,0.05,42.95,0)" xlink:href="#as"/><use transform="matrix(0.05,0,0,0.05,51.95,0)" xlink:href="#aq"/><use transform="matrix(0.05,0,0,0.05,56.95,0)" xlink:href="#at"/><use transform="matrix(0.05,0,0,0.05,60.900000000000006,0)" xlink:href="#ap"/><use transform="matrix(0.05,0,0,0.05,70.9,0)" xlink:href="#ax"/><use transform="matrix(0.05,0,0,0.05,80.9,0)" xlink:href="#aM"/></g><path d="M143 0L79-87 56-68V0H24v-261h32v163l83-92h37l-77 82L181 0h-38" id="aP"/><g id="D"><use transform="matrix(0.05,0,0,0.05,0,0)" xlink:href="#as"/><use transform="matrix(0.05,0,0,0.05,9,0)" xlink:href="#ao"/><use transform="matrix(0.05,0,0,0.05,19,0)" xlink:href="#aC"/><use transform="matrix(0.05,0,0,0.05,28,0)" xlink:href="#aP"/><use transform="matrix(0.05,0,0,0.05,37,0)" xlink:href="#as"/><use transform="matrix(0.05,0,0,0.05,46,0)" xlink:href="#aM"/></g><g id="E"><use transform="matrix(0.05,0,0,0.05,0,0)" xlink:href="#aO"/><use transform="matrix(0.05,0,0,0.05,5,0)" xlink:href="#aO"/><use transform="matrix(0.05,0,0,0.05,10,0)" xlink:href="#aO"/></g><path fill="#fff" d="M24 0v-248h52v208h133V0H24" id="aQ"/><path fill="#fff" d="M25-224v-37h50v37H25zM25 0v-190h50V0H25" id="aR"/><path fill="#fff" d="M137-138c1-29-70-34-71-4 15 46 118 7 119 86 1 83-164 76-172 9l43-7c4 19 20 25 44 25 33 8 57-30 24-41C81-84 22-81 20-136c-2-80 154-74 161-7" id="aS"/><path fill="#fff" d="M115-3C79 11 28 4 28-45v-112H4v-33h27l15-45h31v45h36v33H77v99c-1 23 16 31 38 25v30" id="aT"/><g id="F"><use transform="matrix(0.06172839506172839,0,0,0.06172839506172839,0,0)" xlink:href="#aQ"/><use transform="matrix(0.06172839506172839,0,0,0.06172839506172839,13.518518518518517,0)" xlink:href="#aR"/><use transform="matrix(0.06172839506172839,0,0,0.06172839506172839,19.691358024691358,0)" xlink:href="#aS"/><use transform="matrix(0.06172839506172839,0,0,0.06172839506172839,32.03703703703704,0)" xlink:href="#aT"/></g><path fill="#fff" d="M110-194c64 0 96 36 96 99 0 64-35 99-97 99-61 0-95-36-95-99 0-62 34-99 96-99zm-1 164c35 0 45-28 45-65 0-40-10-65-43-65-34 0-45 26-45 65 0 36 10 65 43 65" id="aU"/><path fill="#fff" d="M121-226c-27-7-43 5-38 36h38v33H83V0H34v-157H6v-33h28c-9-59 32-81 87-68v32" id="aV"/><g id="G"><use transform="matrix(0.06172839506172839,0,0,0.06172839506172839,0,0)" xlink:href="#aU"/><use transform="matrix(0.06172839506172839,0,0,0.06172839506172839,13.518518518518517,0)" xlink:href="#aV"/></g><path fill="#fff" d="M24-248c93 1 206-16 204 79-1 75-69 88-152 82V0H24v-248zm52 121c47 0 100 7 100-41 0-47-54-39-100-39v80" id="aW"/><path fill="#fff" d="M128 0H69L1-190h53L99-40l48-150h52" id="aX"/><path fill="#fff" d="M185-48c-13 30-37 53-82 52C43 2 14-33 14-96s30-98 90-98c62 0 83 45 84 108H66c0 31 8 55 39 56 18 0 30-7 34-22zm-45-69c5-46-57-63-70-21-2 6-4 13-4 21h74" id="aY"/><g id="H"><use transform="matrix(0.06172839506172839,0,0,0.06172839506172839,0,0)" xlink:href="#aW"/><use transform="matrix(0.06172839506172839,0,0,0.06172839506172839,14.814814814814813,0)" xlink:href="#aU"/><use transform="matrix(0.06172839506172839,0,0,0.06172839506172839,28.33333333333333,0)" xlink:href="#aS"/><use transform="matrix(0.06172839506172839,0,0,0.06172839506172839,40.679012345679006,0)" xlink:href="#aR"/><use transform="matrix(0.06172839506172839,0,0,0.06172839506172839,46.85185185185185,0)" xlink:href="#aT"/><use transform="matrix(0.06172839506172839,0,0,0.06172839506172839,54.197530864197525,0)" xlink:href="#aR"/><use transform="matrix(0.06172839506172839,0,0,0.06172839506172839,60.37037037037037,0)" xlink:href="#aX"/><use transform="matrix(0.06172839506172839,0,0,0.06172839506172839,72.71604938271605,0)" xlink:href="#aY"/></g><path fill="#fff" d="M275 0h-61l-44-196L126 0H64L0-248h53L97-49l45-199h58l43 199 44-199h52" id="aZ"/><path fill="#fff" d="M135-150c-39-12-60 13-60 57V0H25l-1-190h47c2 13-1 29 3 40 6-28 27-53 61-41v41" id="ba"/><path fill="#fff" d="M88-194c31-1 46 15 58 34l-1-101h50l1 261h-48c-2-10 0-23-3-31C134-8 116 4 84 4 32 4 16-41 15-95c0-56 19-97 73-99zm17 164c33 0 40-30 41-66 1-37-9-64-41-64s-38 30-39 65c0 43 13 65 39 65" id="bb"/><g id="I"><use transform="matrix(0.06172839506172839,0,0,0.06172839506172839,0,0)" xlink:href="#aZ"/><use transform="matrix(0.06172839506172839,0,0,0.06172839506172839,20.493827160493826,0)" xlink:href="#aU"/><use transform="matrix(0.06172839506172839,0,0,0.06172839506172839,34.01234567901234,0)" xlink:href="#ba"/><use transform="matrix(0.06172839506172839,0,0,0.06172839506172839,42.654320987654316,0)" xlink:href="#bb"/><use transform="matrix(0.06172839506172839,0,0,0.06172839506172839,56.172839506172835,0)" xlink:href="#aS"/></g><path fill="#fff" d="M175 0L67-191c6 58 2 128 3 191H24v-248h59L193-55c-6-58-2-129-3-193h46V0h-61" id="bc"/><path fill="#fff" d="M195-6C206 82 75 100 31 46c-4-6-6-13-8-21l49-6c3 16 16 24 34 25 40 0 42-37 40-79-11 22-30 35-61 35-53 0-70-43-70-97 0-56 18-96 73-97 30 0 46 14 59 34l2-30h47zm-90-29c32 0 41-27 41-63 0-35-9-62-40-62-32 0-39 29-40 63 0 36 9 62 39 62" id="bd"/><path fill="#fff" d="M133-34C117-15 103 5 69 4 32 3 11-16 11-54c-1-60 55-63 116-61 1-26-3-47-28-47-18 1-26 9-28 27l-52-2c7-38 36-58 82-57s74 22 75 68l1 82c-1 14 12 18 25 15v27c-30 8-71 5-69-32zm-48 3c29 0 43-24 42-57-32 0-66-3-65 30 0 17 8 27 23 27" id="be"/><g id="J"><use transform="matrix(0.06172839506172839,0,0,0.06172839506172839,0,0)" xlink:href="#bc"/><use transform="matrix(0.06172839506172839,0,0,0.06172839506172839,15.987654320987653,0)" xlink:href="#aY"/><use transform="matrix(0.06172839506172839,0,0,0.06172839506172839,28.333333333333332,0)" xlink:href="#bd"/><use transform="matrix(0.06172839506172839,0,0,0.06172839506172839,41.85185185185185,0)" xlink:href="#be"/><use transform="matrix(0.06172839506172839,0,0,0.06172839506172839,54.197530864197525,0)" xlink:href="#aT"/><use transform="matrix(0.06172839506172839,0,0,0.06172839506172839,61.5432098765432,0)" xlink:href="#aR"/><use transform="matrix(0.06172839506172839,0,0,0.06172839506172839,67.71604938271604,0)" xlink:href="#aX"/><use transform="matrix(0.06172839506172839,0,0,0.06172839506172839,80.06172839506172,0)" xlink:href="#aY"/></g></defs></g></svg>