<svg xmlns="http://www.w3.org/2000/svg" xmlns:xlink="http://www.w3.org/1999/xlink" xmlns:lucid="lucid" width="1360" height="520"><g transform="translate(-140 -140)" lucid:page-tab-id="0_0"><path d="M480 160h80v480h-80z" fill="none"/><path d="M480 640c16.57 0 30-13.43 30-30V430c0-16.57 13.43-30 30-30-16.57 0-30-13.43-30-30V190c0-16.57-13.43-30-30-30" stroke="#000" stroke-width="2" fill="none"/><path d="M160 160h320v80H160z" stroke="#000" stroke-opacity="0" stroke-width="2" fill="#fff" fill-opacity="0"/><use xlink:href="#a" transform="matrix(1,0,0,1,165,165) translate(93.33333333333333 26.52777777777778)"/><use xlink:href="#b" transform="matrix(1,0,0,1,165,165) translate(127.83950617283949 26.52777777777778)"/><use xlink:href="#c" transform="matrix(1,0,0,1,165,165) translate(76.2037037037037 53.19444444444445)"/><use xlink:href="#d" transform="matrix(1,0,0,1,165,165) translate(118.05555555555554 53.19444444444445)"/><path d="M160 280h320v80H160z" stroke="#000" stroke-width="2" fill="#d1bcd2"/><path d="M200 300l-4.7 13.53-14.32.3 11.4 8.64-4.14 13.7L200 328l11.76 8.18-4.15-13.7 11.42-8.66-14.32-.3zM260 300l-4.7 13.53-14.32.3 11.4 8.64-4.14 13.7L260 328l11.76 8.18-4.15-13.7 11.42-8.66-14.32-.3zM320 300l-4.7 13.53-14.32.3 11.4 8.64-4.14 13.7L320 328l11.76 8.18-4.15-13.7 11.42-8.66-14.32-.3zM380 300l-4.7 13.53-14.32.3 11.4 8.64-4.14 13.7L380 328l11.76 8.18-4.15-13.7 11.42-8.66-14.32-.3z" stroke="#000" stroke-width="2" fill="#ffeca9"/><path d="M440 300l-4.7 13.53-14.32.3 11.4 8.64-4.14 13.7L440 328l11.76 8.18-4.15-13.7 11.42-8.66-14.32-.3z" stroke="#000" stroke-width="2" fill="#fff"/><path d="M160 400h320v80H160z" stroke="#000" stroke-width="2" fill="#b2d6ef"/><path d="M200 420l-4.7 13.53-14.32.3 11.4 8.64-4.14 13.7L200 448l11.76 8.18-4.15-13.7 11.42-8.66-14.32-.3zM260 420l-4.7 13.53-14.32.3 11.4 8.64-4.14 13.7L260 448l11.76 8.18-4.15-13.7 11.42-8.66-14.32-.3zM320 420l-4.7 13.53-14.32.3 11.4 8.64-4.14 13.7L320 448l11.76 8.18-4.15-13.7 11.42-8.66-14.32-.3z" stroke="#000" stroke-width="2" fill="#ffeca9"/><path d="M380 420l-4.7 13.53-14.32.3 11.4 8.64-4.14 13.7L380 448l11.76 8.18-4.15-13.7 11.42-8.66-14.32-.3zM440 420l-4.7 13.53-14.32.3 11.4 8.64-4.14 13.7L440 448l11.76 8.18-4.15-13.7 11.42-8.66-14.32-.3z" stroke="#000" stroke-width="2" fill="#fff"/><path d="M160 520h320v80H160z" stroke="#000" stroke-width="2" fill="#c7e8ac"/><path d="M200 540l-4.7 13.53-14.32.3 11.4 8.64-4.14 13.7L200 568l11.76 8.18-4.15-13.7 11.42-8.66-14.32-.3zM260 540l-4.7 13.53-14.32.3 11.4 8.64-4.14 13.7L260 568l11.76 8.18-4.15-13.7 11.42-8.66-14.32-.3zM320 540l-4.7 13.53-14.32.3 11.4 8.64-4.14 13.7L320 568l11.76 8.18-4.15-13.7 11.42-8.66-14.32-.3zM380 540l-4.7 13.53-14.32.3 11.4 8.64-4.14 13.7L380 568l11.76 8.18-4.15-13.7 11.42-8.66-14.32-.3zM440 540l-4.7 13.53-14.32.3 11.4 8.64-4.14 13.7L440 568l11.76 8.18-4.15-13.7 11.42-8.66-14.32-.3z" stroke="#000" stroke-width="2" fill="#ffeca9"/><path d="M600 320h400v160H600z" stroke="#000" stroke-opacity="0" stroke-width="2"/><use xlink:href="#e" transform="matrix(1,0,0,1,605,325) translate(75.17901234567901 43.63888888888889)"/><use xlink:href="#f" transform="matrix(1,0,0,1,605,325) translate(168.3395061728395 43.63888888888889)"/><use xlink:href="#g" transform="matrix(1,0,0,1,605,325) translate(56.12345679012344 80.97222222222223)"/><use xlink:href="#h" transform="matrix(1,0,0,1,605,325) translate(226.80246913580245 80.97222222222223)"/><use xlink:href="#i" transform="matrix(1,0,0,1,605,325) translate(110.5679012345679 118.30555555555557)"/><path d="M1040 160h80v480h-80z" fill="none"/><path d="M1040 640c16.57 0 30-13.43 30-30V430c0-16.57 13.43-30 30-30-16.57 0-30-13.43-30-30V190c0-16.57-13.43-30-30-30" stroke="#000" stroke-width="2" fill="none"/><path d="M1160 160h320v120h-320z" stroke="#000" stroke-width="2" fill="#d1bcd2"/><use xlink:href="#j" transform="matrix(1,0,0,1,1165,165) translate(88.4074074074074 21.333333333333336)"/><path d="M1200 220l-4.7 13.53-14.32.3 11.4 8.64-4.14 13.7L1200 248l11.76 8.18-4.15-13.7 11.42-8.66-14.32-.3zM1260 220l-4.7 13.53-14.32.3 11.4 8.64-4.14 13.7L1260 248l11.76 8.18-4.15-13.7 11.42-8.66-14.32-.3zM1320 220l-4.7 13.53-14.32.3 11.4 8.64-4.14 13.7L1320 248l11.76 8.18-4.15-13.7 11.42-8.66-14.32-.3zM1380 220l-4.7 13.53-14.32.3 11.4 8.64-4.14 13.7L1380 248l11.76 8.18-4.15-13.7 11.42-8.66-14.32-.3z" stroke="#000" stroke-width="2" fill="#ffeca9"/><path d="M1440 220l-4.7 13.53-14.32.3 11.4 8.64-4.14 13.7L1440 248l11.76 8.18-4.15-13.7 11.42-8.66-14.32-.3z" stroke="#000" stroke-width="2" fill="#fff"/><path d="M1160 300h320v120h-320z" stroke="#000" stroke-width="2" fill="#b2d6ef"/><use xlink:href="#k" transform="matrix(1,0,0,1,1165,305) translate(112.11111111111111 21.333333333333336)"/><path d="M1200 360l-4.7 13.53-14.32.3 11.4 8.64-4.14 13.7L1200 388l11.76 8.18-4.15-13.7 11.42-8.66-14.32-.3zM1260 360l-4.7 13.53-14.32.3 11.4 8.64-4.14 13.7L1260 388l11.76 8.18-4.15-13.7 11.42-8.66-14.32-.3zM1320 360l-4.7 13.53-14.32.3 11.4 8.64-4.14 13.7L1320 388l11.76 8.18-4.15-13.7 11.42-8.66-14.32-.3z" stroke="#000" stroke-width="2" fill="#ffeca9"/><path d="M1380 360l-4.7 13.53-14.32.3 11.4 8.64-4.14 13.7L1380 388l11.76 8.18-4.15-13.7 11.42-8.66-14.32-.3zM1440 360l-4.7 13.53-14.32.3 11.4 8.64-4.14 13.7L1440 388l11.76 8.18-4.15-13.7 11.42-8.66-14.32-.3z" stroke="#000" stroke-width="2" fill="#fff"/><path d="M1160 440h320v120h-320z" stroke="#000" stroke-width="2" fill="#c7e8ac"/><use xlink:href="#l" transform="matrix(1,0,0,1,1165,445) translate(121.7037037037037 21.333333333333336)"/><path d="M1200 500l-4.7 13.53-14.32.3 11.4 8.64-4.14 13.7L1200 528l11.76 8.18-4.15-13.7 11.42-8.66-14.32-.3zM1260 500l-4.7 13.53-14.32.3 11.4 8.64-4.14 13.7L1260 528l11.76 8.18-4.15-13.7 11.42-8.66-14.32-.3zM1320 500l-4.7 13.53-14.32.3 11.4 8.64-4.14 13.7L1320 528l11.76 8.18-4.15-13.7 11.42-8.66-14.32-.3zM1380 500l-4.7 13.53-14.32.3 11.4 8.64-4.14 13.7L1380 528l11.76 8.18-4.15-13.7 11.42-8.66-14.32-.3zM1440 500l-4.7 13.53-14.32.3 11.4 8.64-4.14 13.7L1440 528l11.76 8.18-4.15-13.7 11.42-8.66-14.32-.3z" stroke="#000" stroke-width="2" fill="#ffeca9"/><path d="M1160 600h320v40h-320z" stroke="#000" stroke-opacity="0" stroke-width="2" fill="#fff" fill-opacity="0"/><g><use xlink:href="#m" transform="matrix(1,0,0,1,1165,605) translate(23.08641975308643 19.65277777777778)"/><use xlink:href="#n" transform="matrix(1,0,0,1,1165,605) translate(93.4567901234568 19.65277777777778)"/><use xlink:href="#o" transform="matrix(1,0,0,1,1165,605) translate(172.34567901234567 19.65277777777778)"/><use xlink:href="#p" transform="matrix(1,0,0,1,1165,605) translate(226.5432098765432 19.65277777777778)"/></g><defs><path d="M199 0l-22-63H83L61 0H9l90-248h61L250 0h-51zm-33-102l-36-108c-10 38-24 72-36 108h72" id="q"/><path d="M25 0v-261h50V0H25" id="r"/><g id="a"><use transform="matrix(0.06172839506172839,0,0,0.06172839506172839,0,0)" xlink:href="#q"/><use transform="matrix(0.06172839506172839,0,0,0.06172839506172839,15.987654320987653,0)" xlink:href="#r"/><use transform="matrix(0.06172839506172839,0,0,0.06172839506172839,22.160493827160494,0)" xlink:href="#r"/></g><path d="M240-174c0 40-23 61-54 70L253 0h-59l-57-94H76V0H24v-248c93 4 217-23 216 74zM76-134c48-2 112 12 112-38 0-48-66-32-112-35v73" id="s"/><path d="M185-48c-13 30-37 53-82 52C43 2 14-33 14-96s30-98 90-98c62 0 83 45 84 108H66c0 31 8 55 39 56 18 0 30-7 34-22zm-45-69c5-46-57-63-70-21-2 6-4 13-4 21h74" id="t"/><path d="M128 0H69L1-190h53L99-40l48-150h52" id="u"/><path d="M25-224v-37h50v37H25zM25 0v-190h50V0H25" id="v"/><path d="M231 0h-52l-39-155L100 0H48L-1-190h46L77-45c9-52 24-97 36-145h53l37 145 32-145h46" id="w"/><path d="M137-138c1-29-70-34-71-4 15 46 118 7 119 86 1 83-164 76-172 9l43-7c4 19 20 25 44 25 33 8 57-30 24-41C81-84 22-81 20-136c-2-80 154-74 161-7" id="x"/><g id="b"><use transform="matrix(0.06172839506172839,0,0,0.06172839506172839,0,0)" xlink:href="#s"/><use transform="matrix(0.06172839506172839,0,0,0.06172839506172839,15.987654320987653,0)" xlink:href="#t"/><use transform="matrix(0.06172839506172839,0,0,0.06172839506172839,28.333333333333332,0)" xlink:href="#u"/><use transform="matrix(0.06172839506172839,0,0,0.06172839506172839,40.67901234567901,0)" xlink:href="#v"/><use transform="matrix(0.06172839506172839,0,0,0.06172839506172839,46.851851851851855,0)" xlink:href="#t"/><use transform="matrix(0.06172839506172839,0,0,0.06172839506172839,59.19753086419753,0)" xlink:href="#w"/><use transform="matrix(0.06172839506172839,0,0,0.06172839506172839,76.48148148148148,0)" xlink:href="#x"/></g><path d="M76-208v77h127v40H76V0H24v-248h183v40H76" id="y"/><path d="M110-194c64 0 96 36 96 99 0 64-35 99-97 99-61 0-95-36-95-99 0-62 34-99 96-99zm-1 164c35 0 45-28 45-65 0-40-10-65-43-65-34 0-45 26-45 65 0 36 10 65 43 65" id="z"/><path d="M135-150c-39-12-60 13-60 57V0H25l-1-190h47c2 13-1 29 3 40 6-28 27-53 61-41v41" id="A"/><g id="c"><use transform="matrix(0.06172839506172839,0,0,0.06172839506172839,0,0)" xlink:href="#y"/><use transform="matrix(0.06172839506172839,0,0,0.06172839506172839,13.518518518518517,0)" xlink:href="#z"/><use transform="matrix(0.06172839506172839,0,0,0.06172839506172839,27.037037037037035,0)" xlink:href="#A"/></g><path d="M115-3C79 11 28 4 28-45v-112H4v-33h27l15-45h31v45h36v33H77v99c-1 23 16 31 38 25v30" id="B"/><path d="M133-34C117-15 103 5 69 4 32 3 11-16 11-54c-1-60 55-63 116-61 1-26-3-47-28-47-18 1-26 9-28 27l-52-2c7-38 36-58 82-57s74 22 75 68l1 82c-1 14 12 18 25 15v27c-30 8-71 5-69-32zm-48 3c29 0 43-24 42-57-32 0-66-3-65 30 0 17 8 27 23 27" id="C"/><path d="M85 4C-2 5 27-109 22-190h50c7 57-23 150 33 157 60-5 35-97 40-157h50l1 190h-47c-2-12 1-28-3-38-12 25-28 42-61 42" id="D"/><path d="M135-194c87-1 58 113 63 194h-50c-7-57 23-157-34-157-59 0-34 97-39 157H25l-1-190h47c2 12-1 28 3 38 12-26 28-41 61-42" id="E"/><g id="d"><use transform="matrix(0.06172839506172839,0,0,0.06172839506172839,0,0)" xlink:href="#s"/><use transform="matrix(0.06172839506172839,0,0,0.06172839506172839,15.987654320987653,0)" xlink:href="#t"/><use transform="matrix(0.06172839506172839,0,0,0.06172839506172839,28.333333333333332,0)" xlink:href="#x"/><use transform="matrix(0.06172839506172839,0,0,0.06172839506172839,40.67901234567901,0)" xlink:href="#B"/><use transform="matrix(0.06172839506172839,0,0,0.06172839506172839,48.02469135802469,0)" xlink:href="#C"/><use transform="matrix(0.06172839506172839,0,0,0.06172839506172839,60.37037037037037,0)" xlink:href="#D"/><use transform="matrix(0.06172839506172839,0,0,0.06172839506172839,73.88888888888889,0)" xlink:href="#A"/><use transform="matrix(0.06172839506172839,0,0,0.06172839506172839,82.53086419753086,0)" xlink:href="#C"/><use transform="matrix(0.06172839506172839,0,0,0.06172839506172839,94.87654320987654,0)" xlink:href="#E"/><use transform="matrix(0.06172839506172839,0,0,0.06172839506172839,108.39506172839506,0)" xlink:href="#B"/></g><path fill="#fff" d="M175 0L67-191c6 58 2 128 3 191H24v-248h59L193-55c-6-58-2-129-3-193h46V0h-61" id="F"/><path fill="#fff" d="M110-194c64 0 96 36 96 99 0 64-35 99-97 99-61 0-95-36-95-99 0-62 34-99 96-99zm-1 164c35 0 45-28 45-65 0-40-10-65-43-65-34 0-45 26-45 65 0 36 10 65 43 65" id="G"/><path fill="#fff" d="M128 0H69L1-190h53L99-40l48-150h52" id="H"/><path fill="#fff" d="M185-48c-13 30-37 53-82 52C43 2 14-33 14-96s30-98 90-98c62 0 83 45 84 108H66c0 31 8 55 39 56 18 0 30-7 34-22zm-45-69c5-46-57-63-70-21-2 6-4 13-4 21h74" id="I"/><path fill="#fff" d="M25 0v-261h50V0H25" id="J"/><g id="e"><use transform="matrix(0.08641975308641976,0,0,0.08641975308641976,0,0)" xlink:href="#F"/><use transform="matrix(0.08641975308641976,0,0,0.08641975308641976,22.38271604938272,0)" xlink:href="#G"/><use transform="matrix(0.08641975308641976,0,0,0.08641975308641976,41.308641975308646,0)" xlink:href="#H"/><use transform="matrix(0.08641975308641976,0,0,0.08641975308641976,58.592592592592595,0)" xlink:href="#I"/><use transform="matrix(0.08641975308641976,0,0,0.08641975308641976,75.87654320987654,0)" xlink:href="#J"/></g><path fill="#fff" d="M24 0v-248h52V0H24" id="K"/><path fill="#fff" d="M135-194c87-1 58 113 63 194h-50c-7-57 23-157-34-157-59 0-34 97-39 157H25l-1-190h47c2 12-1 28 3 38 12-26 28-41 61-42" id="L"/><path fill="#fff" d="M115-3C79 11 28 4 28-45v-112H4v-33h27l15-45h31v45h36v33H77v99c-1 23 16 31 38 25v30" id="M"/><path fill="#fff" d="M25-224v-37h50v37H25zM25 0v-190h50V0H25" id="N"/><path fill="#fff" d="M195-6C206 82 75 100 31 46c-4-6-6-13-8-21l49-6c3 16 16 24 34 25 40 0 42-37 40-79-11 22-30 35-61 35-53 0-70-43-70-97 0-56 18-96 73-97 30 0 46 14 59 34l2-30h47zm-90-29c32 0 41-27 41-63 0-35-9-62-40-62-32 0-39 29-40 63 0 36 9 62 39 62" id="O"/><g id="f"><use transform="matrix(0.08641975308641976,0,0,0.08641975308641976,0,0)" xlink:href="#K"/><use transform="matrix(0.08641975308641976,0,0,0.08641975308641976,8.641975308641976,0)" xlink:href="#L"/><use transform="matrix(0.08641975308641976,0,0,0.08641975308641976,27.567901234567906,0)" xlink:href="#M"/><use transform="matrix(0.08641975308641976,0,0,0.08641975308641976,37.851851851851855,0)" xlink:href="#I"/><use transform="matrix(0.08641975308641976,0,0,0.08641975308641976,55.13580246913581,0)" xlink:href="#J"/><use transform="matrix(0.08641975308641976,0,0,0.08641975308641976,63.777777777777786,0)" xlink:href="#J"/><use transform="matrix(0.08641975308641976,0,0,0.08641975308641976,72.41975308641976,0)" xlink:href="#N"/><use transform="matrix(0.08641975308641976,0,0,0.08641975308641976,81.06172839506173,0)" xlink:href="#O"/><use transform="matrix(0.08641975308641976,0,0,0.08641975308641976,99.98765432098766,0)" xlink:href="#I"/><use transform="matrix(0.08641975308641976,0,0,0.08641975308641976,117.27160493827162,0)" xlink:href="#L"/><use transform="matrix(0.08641975308641976,0,0,0.08641975308641976,136.19753086419755,0)" xlink:href="#M"/></g><path fill="#fff" d="M240-174c0 40-23 61-54 70L253 0h-59l-57-94H76V0H24v-248c93 4 217-23 216 74zM76-134c48-2 112 12 112-38 0-48-66-32-112-35v73" id="P"/><path fill="#fff" d="M137-138c1-29-70-34-71-4 15 46 118 7 119 86 1 83-164 76-172 9l43-7c4 19 20 25 44 25 33 8 57-30 24-41C81-84 22-81 20-136c-2-80 154-74 161-7" id="Q"/><path fill="#fff" d="M133-34C117-15 103 5 69 4 32 3 11-16 11-54c-1-60 55-63 116-61 1-26-3-47-28-47-18 1-26 9-28 27l-52-2c7-38 36-58 82-57s74 22 75 68l1 82c-1 14 12 18 25 15v27c-30 8-71 5-69-32zm-48 3c29 0 43-24 42-57-32 0-66-3-65 30 0 17 8 27 23 27" id="R"/><path fill="#fff" d="M85 4C-2 5 27-109 22-190h50c7 57-23 150 33 157 60-5 35-97 40-157h50l1 190h-47c-2-12 1-28-3-38-12 25-28 42-61 42" id="S"/><path fill="#fff" d="M135-150c-39-12-60 13-60 57V0H25l-1-190h47c2 13-1 29 3 40 6-28 27-53 61-41v41" id="T"/><g id="g"><use transform="matrix(0.08641975308641976,0,0,0.08641975308641976,0,0)" xlink:href="#P"/><use transform="matrix(0.08641975308641976,0,0,0.08641975308641976,22.38271604938272,0)" xlink:href="#I"/><use transform="matrix(0.08641975308641976,0,0,0.08641975308641976,39.66666666666667,0)" xlink:href="#Q"/><use transform="matrix(0.08641975308641976,0,0,0.08641975308641976,56.95061728395062,0)" xlink:href="#M"/><use transform="matrix(0.08641975308641976,0,0,0.08641975308641976,67.23456790123457,0)" xlink:href="#R"/><use transform="matrix(0.08641975308641976,0,0,0.08641975308641976,84.51851851851852,0)" xlink:href="#S"/><use transform="matrix(0.08641975308641976,0,0,0.08641975308641976,103.44444444444443,0)" xlink:href="#T"/><use transform="matrix(0.08641975308641976,0,0,0.08641975308641976,115.54320987654322,0)" xlink:href="#R"/><use transform="matrix(0.08641975308641976,0,0,0.08641975308641976,132.82716049382717,0)" xlink:href="#L"/><use transform="matrix(0.08641975308641976,0,0,0.08641975308641976,151.7530864197531,0)" xlink:href="#M"/></g><path fill="#fff" d="M231 0h-52l-39-155L100 0H48L-1-190h46L77-45c9-52 24-97 36-145h53l37 145 32-145h46" id="U"/><g id="h"><use transform="matrix(0.08641975308641976,0,0,0.08641975308641976,0,0)" xlink:href="#P"/><use transform="matrix(0.08641975308641976,0,0,0.08641975308641976,22.38271604938272,0)" xlink:href="#I"/><use transform="matrix(0.08641975308641976,0,0,0.08641975308641976,39.66666666666667,0)" xlink:href="#H"/><use transform="matrix(0.08641975308641976,0,0,0.08641975308641976,56.95061728395062,0)" xlink:href="#N"/><use transform="matrix(0.08641975308641976,0,0,0.08641975308641976,65.5925925925926,0)" xlink:href="#I"/><use transform="matrix(0.08641975308641976,0,0,0.08641975308641976,82.87654320987654,0)" xlink:href="#U"/></g><path fill="#fff" d="M199 0l-22-63H83L61 0H9l90-248h61L250 0h-51zm-33-102l-36-108c-10 38-24 72-36 108h72" id="V"/><path fill="#fff" d="M135-194c53 0 70 44 70 98 0 56-19 98-73 100-31 1-45-17-59-34 3 33 2 69 2 105H25l-1-265h48c2 10 0 23 3 31 11-24 29-35 60-35zM114-30c33 0 39-31 40-66 0-38-9-64-40-64-56 0-55 130 0 130" id="W"/><path fill="#fff" d="M190-63c-7 42-38 67-86 67-59 0-84-38-90-98-12-110 154-137 174-36l-49 2c-2-19-15-32-35-32-30 0-35 28-38 64-6 74 65 87 74 30" id="X"/><g id="i"><use transform="matrix(0.08641975308641976,0,0,0.08641975308641976,0,0)" xlink:href="#V"/><use transform="matrix(0.08641975308641976,0,0,0.08641975308641976,22.38271604938272,0)" xlink:href="#W"/><use transform="matrix(0.08641975308641976,0,0,0.08641975308641976,41.308641975308646,0)" xlink:href="#W"/><use transform="matrix(0.08641975308641976,0,0,0.08641975308641976,60.23456790123458,0)" xlink:href="#J"/><use transform="matrix(0.08641975308641976,0,0,0.08641975308641976,68.87654320987654,0)" xlink:href="#N"/><use transform="matrix(0.08641975308641976,0,0,0.08641975308641976,77.51851851851852,0)" xlink:href="#X"/><use transform="matrix(0.08641975308641976,0,0,0.08641975308641976,94.80246913580245,0)" xlink:href="#R"/><use transform="matrix(0.08641975308641976,0,0,0.08641975308641976,112.08641975308642,0)" xlink:href="#M"/><use transform="matrix(0.08641975308641976,0,0,0.08641975308641976,122.37037037037037,0)" xlink:href="#N"/><use transform="matrix(0.08641975308641976,0,0,0.08641975308641976,131.01234567901236,0)" xlink:href="#G"/><use transform="matrix(0.08641975308641976,0,0,0.08641975308641976,149.93827160493828,0)" xlink:href="#L"/></g><path d="M30 0v-248h187v28H63v79h144v27H63v87h162V0H30" id="Y"/><path d="M141 0L90-78 38 0H4l68-98-65-92h35l48 74 47-74h35l-64 92 68 98h-35" id="Z"/><path d="M115-194c55 1 70 41 70 98S169 2 115 4C84 4 66-9 55-30l1 105H24l-1-265h31l2 30c10-21 28-34 59-34zm-8 174c40 0 45-34 45-75s-6-73-45-74c-42 0-51 32-51 76 0 43 10 73 51 73" id="aa"/><path d="M100-194c63 0 86 42 84 106H49c0 40 14 67 53 68 26 1 43-12 49-29l28 8c-11 28-37 45-77 45C44 4 14-33 15-96c1-61 26-98 85-98zm52 81c6-60-76-77-97-28-3 7-6 17-6 28h103" id="ab"/><path d="M114-163C36-179 61-72 57 0H25l-1-190h30c1 12-1 29 2 39 6-27 23-49 58-41v29" id="ac"/><path d="M24-231v-30h32v30H24zM24 0v-190h32V0H24" id="ad"/><path d="M117-194c89-4 53 116 60 194h-32v-121c0-31-8-49-39-48C34-167 62-67 57 0H25l-1-190h30c1 10-1 24 2 32 11-22 29-35 61-36" id="ae"/><path d="M96-169c-40 0-48 33-48 73s9 75 48 75c24 0 41-14 43-38l32 2c-6 37-31 61-74 61-59 0-76-41-82-99-10-93 101-131 147-64 4 7 5 14 7 22l-32 3c-4-21-16-35-41-35" id="af"/><g id="j"><use transform="matrix(0.07407407407407408,0,0,0.07407407407407408,0,0)" xlink:href="#Y"/><use transform="matrix(0.07407407407407408,0,0,0.07407407407407408,17.77777777777778,0)" xlink:href="#Z"/><use transform="matrix(0.07407407407407408,0,0,0.07407407407407408,31.111111111111114,0)" xlink:href="#aa"/><use transform="matrix(0.07407407407407408,0,0,0.07407407407407408,45.92592592592593,0)" xlink:href="#ab"/><use transform="matrix(0.07407407407407408,0,0,0.07407407407407408,60.74074074074075,0)" xlink:href="#ac"/><use transform="matrix(0.07407407407407408,0,0,0.07407407407407408,69.55555555555557,0)" xlink:href="#ad"/><use transform="matrix(0.07407407407407408,0,0,0.07407407407407408,75.40740740740742,0)" xlink:href="#ab"/><use transform="matrix(0.07407407407407408,0,0,0.07407407407407408,90.22222222222223,0)" xlink:href="#ae"/><use transform="matrix(0.07407407407407408,0,0,0.07407407407407408,105.03703703703704,0)" xlink:href="#af"/><use transform="matrix(0.07407407407407408,0,0,0.07407407407407408,118.37037037037038,0)" xlink:href="#ab"/></g><path d="M233-177c-1 41-23 64-60 70L243 0h-38l-65-103H63V0H30v-248c88 3 205-21 203 71zM63-129c60-2 137 13 137-47 0-61-80-42-137-45v92" id="ag"/><path d="M141-36C126-15 110 5 73 4 37 3 15-17 15-53c-1-64 63-63 125-63 3-35-9-54-41-54-24 1-41 7-42 31l-33-3c5-37 33-52 76-52 45 0 72 20 72 64v82c-1 20 7 32 28 27v20c-31 9-61-2-59-35zM48-53c0 20 12 33 32 33 41-3 63-29 60-74-43 2-92-5-92 41" id="ah"/><path d="M210-169c-67 3-38 105-44 169h-31v-121c0-29-5-50-35-48C34-165 62-65 56 0H25l-1-190h30c1 10-1 24 2 32 10-44 99-50 107 0 11-21 27-35 58-36 85-2 47 119 55 194h-31v-121c0-29-5-49-35-48" id="ai"/><g id="k"><use transform="matrix(0.07407407407407408,0,0,0.07407407407407408,0,0)" xlink:href="#ag"/><use transform="matrix(0.07407407407407408,0,0,0.07407407407407408,19.185185185185187,0)" xlink:href="#ah"/><use transform="matrix(0.07407407407407408,0,0,0.07407407407407408,34,0)" xlink:href="#ai"/><use transform="matrix(0.07407407407407408,0,0,0.07407407407407408,56.14814814814815,0)" xlink:href="#ab"/><use transform="matrix(0.07407407407407408,0,0,0.07407407407407408,70.96296296296296,0)" xlink:href="#ae"/></g><path d="M185-189c-5-48-123-54-124 2 14 75 158 14 163 119 3 78-121 87-175 55-17-10-28-26-33-46l33-7c5 56 141 63 141-1 0-78-155-14-162-118-5-82 145-84 179-34 5 7 8 16 11 25" id="aj"/><path d="M84 4C-5 8 30-112 23-190h32v120c0 31 7 50 39 49 72-2 45-101 50-169h31l1 190h-30c-1-10 1-25-2-33-11 22-28 36-60 37" id="ak"/><path d="M135-143c-3-34-86-38-87 0 15 53 115 12 119 90S17 21 10-45l28-5c4 36 97 45 98 0-10-56-113-15-118-90-4-57 82-63 122-42 12 7 21 19 24 35" id="al"/><path d="M106-169C34-169 62-67 57 0H25v-261h32l-1 103c12-21 28-36 61-36 89 0 53 116 60 194h-32v-121c2-32-8-49-39-48" id="am"/><g id="l"><use transform="matrix(0.07407407407407408,0,0,0.07407407407407408,0,0)" xlink:href="#aj"/><use transform="matrix(0.07407407407407408,0,0,0.07407407407407408,17.77777777777778,0)" xlink:href="#ak"/><use transform="matrix(0.07407407407407408,0,0,0.07407407407407408,32.592592592592595,0)" xlink:href="#al"/><use transform="matrix(0.07407407407407408,0,0,0.07407407407407408,45.92592592592593,0)" xlink:href="#am"/><use transform="matrix(0.07407407407407408,0,0,0.07407407407407408,60.74074074074075,0)" xlink:href="#ad"/></g><path d="M24 0v-248h195v40H76v63h132v40H76v65h150V0H24" id="an"/><path d="M123 10C108 53 80 86 19 72V37c35 8 53-11 59-39L3-190h52l48 148c12-52 28-100 44-148h51" id="ao"/><g id="m"><use transform="matrix(0.06172839506172839,0,0,0.06172839506172839,0,0)" xlink:href="#an"/><use transform="matrix(0.06172839506172839,0,0,0.06172839506172839,14.814814814814813,0)" xlink:href="#C"/><use transform="matrix(0.06172839506172839,0,0,0.06172839506172839,27.160493827160494,0)" xlink:href="#x"/><use transform="matrix(0.06172839506172839,0,0,0.06172839506172839,39.50617283950617,0)" xlink:href="#v"/><use transform="matrix(0.06172839506172839,0,0,0.06172839506172839,45.67901234567901,0)" xlink:href="#r"/><use transform="matrix(0.06172839506172839,0,0,0.06172839506172839,51.851851851851855,0)" xlink:href="#ao"/></g><path d="M169-182c-1-43-94-46-97-3 18 66 151 10 154 114 3 95-165 93-204 36-6-8-10-19-12-30l50-8c3 46 112 56 116 5-17-69-150-10-154-114-4-87 153-88 188-35 5 8 8 18 10 28" id="ap"/><g id="n"><use transform="matrix(0.06172839506172839,0,0,0.06172839506172839,0,0)" xlink:href="#ap"/><use transform="matrix(0.06172839506172839,0,0,0.06172839506172839,14.814814814814813,0)" xlink:href="#t"/><use transform="matrix(0.06172839506172839,0,0,0.06172839506172839,27.160493827160494,0)" xlink:href="#C"/><use transform="matrix(0.06172839506172839,0,0,0.06172839506172839,39.50617283950617,0)" xlink:href="#B"/><use transform="matrix(0.06172839506172839,0,0,0.06172839506172839,46.85185185185185,0)" xlink:href="#B"/><use transform="matrix(0.06172839506172839,0,0,0.06172839506172839,54.197530864197525,0)" xlink:href="#r"/><use transform="matrix(0.06172839506172839,0,0,0.06172839506172839,60.37037037037037,0)" xlink:href="#t"/></g><path d="M182-130c37 4 62 22 62 59C244 23 116-4 24 0v-248c84 5 203-23 205 63 0 31-19 50-47 55zM76-148c40-3 101 13 101-30 0-44-60-28-101-31v61zm0 110c48-3 116 14 116-37 0-48-69-32-116-35v72" id="aq"/><g id="o"><use transform="matrix(0.06172839506172839,0,0,0.06172839506172839,0,0)" xlink:href="#aq"/><use transform="matrix(0.06172839506172839,0,0,0.06172839506172839,15.987654320987653,0)" xlink:href="#t"/><use transform="matrix(0.06172839506172839,0,0,0.06172839506172839,28.333333333333332,0)" xlink:href="#x"/><use transform="matrix(0.06172839506172839,0,0,0.06172839506172839,40.67901234567901,0)" xlink:href="#B"/></g><path d="M114-157C55-157 80-60 75 0H25v-261h50l-1 109c12-26 28-41 61-42 86-1 58 113 63 194h-50c-7-57 23-157-34-157" id="ar"/><g id="p"><use transform="matrix(0.06172839506172839,0,0,0.06172839506172839,0,0)" xlink:href="#ap"/><use transform="matrix(0.06172839506172839,0,0,0.06172839506172839,14.814814814814813,0)" xlink:href="#D"/><use transform="matrix(0.06172839506172839,0,0,0.06172839506172839,28.33333333333333,0)" xlink:href="#x"/><use transform="matrix(0.06172839506172839,0,0,0.06172839506172839,40.679012345679006,0)" xlink:href="#ar"/><use transform="matrix(0.06172839506172839,0,0,0.06172839506172839,54.197530864197525,0)" xlink:href="#v"/></g></defs></g></svg>