<svg xmlns="http://www.w3.org/2000/svg" xmlns:xlink="http://www.w3.org/1999/xlink" xmlns:lucid="lucid" width="680" height="680"><g transform="translate(-140 -140)" lucid:page-tab-id="UHgK~GiH6pyH"><path d="M160 480h160v160H160z" stroke="#000" stroke-width="2" fill="#834187"/><use xlink:href="#a" transform="matrix(1,0,0,1,165,485) translate(18.703703703703695 49.458333333333336)"/><use xlink:href="#b" transform="matrix(1,0,0,1,165,485) translate(43.99999999999999 81.45833333333334)"/><use xlink:href="#c" transform="matrix(1,0,0,1,165,485) translate(31.407407407407405 113.45833333333334)"/><path d="M400 320h400v480H400z" stroke="#000" stroke-width="2" fill="#c7e8ac"/><path d="M400 320h400v80H400z" stroke="#000" stroke-opacity="0" stroke-width="2" fill="#fff" fill-opacity="0"/><use xlink:href="#d" transform="matrix(1,0,0,1,405,325) translate(44.074074074074076 41.020833333333336)"/><use xlink:href="#e" transform="matrix(1,0,0,1,405,325) translate(138.81481481481484 41.020833333333336)"/><use xlink:href="#f" transform="matrix(1,0,0,1,405,325) translate(226.07407407407408 41.020833333333336)"/><path d="M400 400h400v80H400z" stroke="#000" stroke-opacity="0" stroke-width="2" fill="#fff" fill-opacity="0"/><use xlink:href="#g" transform="matrix(1,0,0,1,405,405) translate(0 38.4625)"/><use xlink:href="#h" transform="matrix(1,0,0,1,405,405) translate(72.85000000000001 38.4625)"/><use xlink:href="#i" transform="matrix(1,0,0,1,405,405) translate(88.35000000000001 38.4625)"/><use xlink:href="#j" transform="matrix(1,0,0,1,405,405) translate(165.25 38.4625)"/><use xlink:href="#k" transform="matrix(1,0,0,1,405,405) translate(214.25 38.4625)"/><use xlink:href="#l" transform="matrix(1,0,0,1,405,405) translate(234.25 38.4625)"/><use xlink:href="#m" transform="matrix(1,0,0,1,405,405) translate(287.15 38.4625)"/><use xlink:href="#n" transform="matrix(1,0,0,1,405,405) translate(306.09999999999997 38.4625)"/><path d="M400 480h400v80H400z" stroke="#000" stroke-opacity="0" stroke-width="2" fill="#fff" fill-opacity="0"/><use xlink:href="#o" transform="matrix(1,0,0,1,405,485) translate(0 38.4625)"/><use xlink:href="#p" transform="matrix(1,0,0,1,405,485) translate(15 38.4625)"/><use xlink:href="#q" transform="matrix(1,0,0,1,405,485) translate(87.85000000000001 38.4625)"/><use xlink:href="#r" transform="matrix(1,0,0,1,405,485) translate(103.35000000000001 38.4625)"/><path d="M400 640h400v80H400z" stroke="#000" stroke-opacity="0" stroke-width="2" fill="#fff" fill-opacity="0"/><use xlink:href="#s" transform="matrix(1,0,0,1,405,645) translate(0 38.4625)"/><path d="M440 576h72.8v48H440z" fill="#fff" fill-opacity="0"/><path d="M453.56 603.2l1.06 5.6c4.33-7.18 6.2-10.84 6.2-13.08 0-.72-.35-1.02-1.3-1.63-1.03-.67-1.34-1.18-1.34-2 0-1.1.87-1.88 2.04-1.88 1.53 0 2.64 1.28 2.64 2.8 0 2.9-2.44 8.5-6.66 15.52-5.3 8.74-10.73 14.6-13.63 14.6-1.53 0-2.6-.87-2.6-2.2 0-1.1.87-2.03 2-2.03 1.77 0 1.77 1.44 3.1 1.44.65 0 1.26-.4 2.43-1.68.92-.97 3.2-3.97 3.6-4.63.32-.6.52-1.22.52-1.78 0-2.04-2.8-13.43-4.17-16.9-.96-2.48-1.88-3.24-3.9-3.24-.57 0-1.03.06-1.6.2v-.86l1.64-.3c1-.2 2.68-.5 5.43-.92h.2c.77 0 3.46 8.45 4.33 12.97M458.44 585.4h-1.73l-6.2-5.25-6.15 5.24h-1.73l6.3-8.5h3.16M510.32 596.38h-29.96v-3.36h29.96v3.36m0 10.17h-29.96v-3.36h29.96v3.35"/><path d="M571.44 598.56v2.88c0 .56-.48 1.08-1.08 1.08h-7.88v7.84c0 .6-.48 1.08-1.04 1.08h-2.88c-.56 0-1.08-.48-1.08-1.08v-7.84h-7.84c-.6 0-1.08-.52-1.08-1.08v-2.88c0-.56.48-1.04 1.08-1.04h7.84v-7.88c0-.6.52-1.08 1.08-1.08h2.88c.56 0 1.04.48 1.04 1.08v7.88h7.88c.6 0 1.08.48 1.08 1.04zm8.56-14.28v31.44c0 2.36-1.92 4.28-4.28 4.28h-31.44c-2.36 0-4.28-1.92-4.28-4.28v-31.44c0-2.36 1.92-4.28 4.28-4.28h31.44c2.36 0 4.28 1.92 4.28 4.28zm-4.28 30.88v-30.32c0-.32-.24-.56-.56-.56h-30.32c-.32 0-.56.24-.56.56v30.32c0 .32.24.56.56.56h30.32c.32 0 .56-.24.56-.56z" stroke="#000" stroke-opacity="0" stroke-width=".29" fill="#0c7cba"/><path d="M549.64 742.52c-.6 0-1.08-.52-1.08-1.08v-2.88c0-.56.48-1.04 1.08-1.04h20.72c.6 0 1.08.48 1.08 1.04v2.88c0 .56-.48 1.08-1.08 1.08h-20.72zM580 724.28v31.44c0 2.36-1.92 4.28-4.28 4.28h-31.44c-2.36 0-4.28-1.92-4.28-4.28v-31.44c0-2.36 1.92-4.28 4.28-4.28h31.44c2.36 0 4.28 1.92 4.28 4.28zm-4.28 30.88v-30.32c0-.32-.24-.56-.56-.56h-30.32c-.32 0-.56.24-.56.56v30.32c0 .32.24.56.56.56h30.32c.32 0 .56-.24.56-.56z" stroke="#000" stroke-opacity="0" stroke-width=".29" fill="#ef8d22"/><path d="M323.5 560h53.17" stroke="#834187" stroke-width="5" fill="none"/><path d="M323.56 562.5H321v-5h2.56z" fill="#834187"/><path d="M393.43 560l-14.26 4.64v-9.28z" stroke="#834187" stroke-width="5" fill="#834187"/><path d="M160 640h160v80H160z" stroke="#000" stroke-opacity="0" stroke-width="2" fill="#fff" fill-opacity="0"/><use xlink:href="#t" transform="matrix(1,0,0,1,165,645) translate(31.29629629629629 41.020833333333336)"/><use xlink:href="#u" transform="matrix(1,0,0,1,165,645) translate(105.37037037037037 41.020833333333336)"/><path d="M400 200h200v40H400z" stroke="#000" stroke-width="2" fill="#d1bcd2"/><g><use xlink:href="#v" transform="matrix(1,0,0,1,405,205) translate(87.5925925925926 17.97222222222222)"/></g><path d="M600 200h200v40H600z" stroke="#000" stroke-width="2" fill="#d1bcd2"/><g><use xlink:href="#w" transform="matrix(1,0,0,1,605,205) translate(87.5 18.15)"/></g><path d="M400 160h200v40H400z" stroke="#000" stroke-width="2" fill="#834187"/><g><use xlink:href="#x" transform="matrix(1,0,0,1,405,165) translate(66.91358024691358 19.65277777777778)"/></g><path d="M600 160h200v40H600z" stroke="#000" stroke-width="2" fill="#834187"/><g><use xlink:href="#y" transform="matrix(1,0,0,1,605,165) translate(58.30246913580247 19.71527777777778)"/></g><path d="M600 242.5v52.64M600 242.56V240" stroke="#834187" stroke-width="5" fill="none"/><path d="M600 311.9l-4.64-14.26h9.28z" stroke="#834187" stroke-width="5" fill="#834187"/><path d="M440 720h72.8v48H440z" fill="#fff" fill-opacity="0"/><path d="M453.56 747.2l1.06 5.6c4.33-7.18 6.2-10.84 6.2-13.08 0-.72-.35-1.02-1.3-1.63-1.03-.67-1.34-1.18-1.34-2 0-1.1.87-1.88 2.04-1.88 1.53 0 2.64 1.28 2.64 2.8 0 2.9-2.44 8.5-6.66 15.52-5.3 8.74-10.73 14.6-13.63 14.6-1.53 0-2.6-.87-2.6-2.2 0-1.1.87-2.03 2-2.03 1.77 0 1.77 1.44 3.1 1.44.65 0 1.26-.4 2.43-1.68.92-.97 3.2-3.97 3.6-4.63.32-.6.52-1.22.52-1.78 0-2.04-2.8-13.43-4.17-16.9-.96-2.48-1.88-3.24-3.9-3.24-.57 0-1.03.06-1.6.2v-.86l1.64-.3c1-.2 2.68-.5 5.43-.92h.2c.77 0 3.46 8.45 4.33 12.97M458.44 729.4h-1.73l-6.2-5.25-6.15 5.24h-1.73l6.3-8.5h3.16M510.32 740.38h-29.96v-3.36h29.96v3.36m0 10.17h-29.96v-3.36h29.96v3.35"/><defs><path fill="#fff" d="M185-189c-5-48-123-54-124 2 14 75 158 14 163 119 3 78-121 87-175 55-17-10-28-26-33-46l33-7c5 56 141 63 141-1 0-78-155-14-162-118-5-82 145-84 179-34 5 7 8 16 11 25" id="z"/><path fill="#fff" d="M100-194c63 0 86 42 84 106H49c0 40 14 67 53 68 26 1 43-12 49-29l28 8c-11 28-37 45-77 45C44 4 14-33 15-96c1-61 26-98 85-98zm52 81c6-60-76-77-97-28-3 7-6 17-6 28h103" id="A"/><path fill="#fff" d="M117-194c89-4 53 116 60 194h-32v-121c0-31-8-49-39-48C34-167 62-67 57 0H25l-1-190h30c1 10-1 24 2 32 11-22 29-35 61-36" id="B"/><path fill="#fff" d="M59-47c-2 24 18 29 38 22v24C64 9 27 4 27-40v-127H5v-23h24l9-43h21v43h35v23H59v120" id="C"/><path fill="#fff" d="M96-169c-40 0-48 33-48 73s9 75 48 75c24 0 41-14 43-38l32 2c-6 37-31 61-74 61-59 0-76-41-82-99-10-93 101-131 147-64 4 7 5 14 7 22l-32 3c-4-21-16-35-41-35" id="D"/><g id="a"><use transform="matrix(0.07407407407407408,0,0,0.07407407407407408,0,0)" xlink:href="#z"/><use transform="matrix(0.07407407407407408,0,0,0.07407407407407408,17.77777777777778,0)" xlink:href="#A"/><use transform="matrix(0.07407407407407408,0,0,0.07407407407407408,32.592592592592595,0)" xlink:href="#B"/><use transform="matrix(0.07407407407407408,0,0,0.07407407407407408,47.40740740740741,0)" xlink:href="#C"/><use transform="matrix(0.07407407407407408,0,0,0.07407407407407408,54.814814814814824,0)" xlink:href="#A"/><use transform="matrix(0.07407407407407408,0,0,0.07407407407407408,69.62962962962965,0)" xlink:href="#B"/><use transform="matrix(0.07407407407407408,0,0,0.07407407407407408,84.44444444444446,0)" xlink:href="#D"/><use transform="matrix(0.07407407407407408,0,0,0.07407407407407408,97.77777777777781,0)" xlink:href="#A"/></g><path fill="#fff" d="M63-220v92h138v28H63V0H30v-248h175v28H63" id="E"/><path fill="#fff" d="M114-163C36-179 61-72 57 0H25l-1-190h30c1 12-1 29 2 39 6-27 23-49 58-41v29" id="F"/><path fill="#fff" d="M100-194c62-1 85 37 85 99 1 63-27 99-86 99S16-35 15-95c0-66 28-99 85-99zM99-20c44 1 53-31 53-75 0-43-8-75-51-75s-53 32-53 75 10 74 51 75" id="G"/><path fill="#fff" d="M210-169c-67 3-38 105-44 169h-31v-121c0-29-5-50-35-48C34-165 62-65 56 0H25l-1-190h30c1 10-1 24 2 32 10-44 99-50 107 0 11-21 27-35 58-36 85-2 47 119 55 194h-31v-121c0-29-5-49-35-48" id="H"/><g id="b"><use transform="matrix(0.07407407407407408,0,0,0.07407407407407408,0,0)" xlink:href="#E"/><use transform="matrix(0.07407407407407408,0,0,0.07407407407407408,16.222222222222225,0)" xlink:href="#F"/><use transform="matrix(0.07407407407407408,0,0,0.07407407407407408,25.03703703703704,0)" xlink:href="#G"/><use transform="matrix(0.07407407407407408,0,0,0.07407407407407408,39.85185185185187,0)" xlink:href="#H"/></g><path fill="#fff" d="M233-177c-1 41-23 64-60 70L243 0h-38l-65-103H63V0H30v-248c88 3 205-21 203 71zM63-129c60-2 137 13 137-47 0-61-80-42-137-45v92" id="I"/><path fill="#fff" d="M108 0H70L1-190h34L89-25l56-165h34" id="J"/><path fill="#fff" d="M24-231v-30h32v30H24zM24 0v-190h32V0H24" id="K"/><path fill="#fff" d="M206 0h-36l-40-164L89 0H53L-1-190h32L70-26l43-164h34l41 164 42-164h31" id="L"/><g id="c"><use transform="matrix(0.07407407407407408,0,0,0.07407407407407408,0,0)" xlink:href="#I"/><use transform="matrix(0.07407407407407408,0,0,0.07407407407407408,19.185185185185187,0)" xlink:href="#A"/><use transform="matrix(0.07407407407407408,0,0,0.07407407407407408,34,0)" xlink:href="#J"/><use transform="matrix(0.07407407407407408,0,0,0.07407407407407408,47.33333333333334,0)" xlink:href="#K"/><use transform="matrix(0.07407407407407408,0,0,0.07407407407407408,53.18518518518519,0)" xlink:href="#A"/><use transform="matrix(0.07407407407407408,0,0,0.07407407407407408,68,0)" xlink:href="#L"/></g><path d="M169-182c-1-43-94-46-97-3 18 66 151 10 154 114 3 95-165 93-204 36-6-8-10-19-12-30l50-8c3 46 112 56 116 5-17-69-150-10-154-114-4-87 153-88 188-35 5 8 8 18 10 28" id="M"/><path d="M25-224v-37h50v37H25zM25 0v-190h50V0H25" id="N"/><path d="M220-157c-53 9-28 100-34 157h-49v-107c1-27-5-49-29-50C55-147 81-57 75 0H25l-1-190h47c2 12-1 28 3 38 10-53 101-56 108 0 13-22 24-43 59-42 82 1 51 116 57 194h-49v-107c-1-25-5-48-29-50" id="O"/><path d="M135-194c53 0 70 44 70 98 0 56-19 98-73 100-31 1-45-17-59-34 3 33 2 69 2 105H25l-1-265h48c2 10 0 23 3 31 11-24 29-35 60-35zM114-30c33 0 39-31 40-66 0-38-9-64-40-64-56 0-55 130 0 130" id="P"/><path d="M25 0v-261h50V0H25" id="Q"/><path d="M185-48c-13 30-37 53-82 52C43 2 14-33 14-96s30-98 90-98c62 0 83 45 84 108H66c0 31 8 55 39 56 18 0 30-7 34-22zm-45-69c5-46-57-63-70-21-2 6-4 13-4 21h74" id="R"/><g id="d"><use transform="matrix(0.07407407407407408,0,0,0.07407407407407408,0,0)" xlink:href="#M"/><use transform="matrix(0.07407407407407408,0,0,0.07407407407407408,17.77777777777778,0)" xlink:href="#N"/><use transform="matrix(0.07407407407407408,0,0,0.07407407407407408,25.185185185185187,0)" xlink:href="#O"/><use transform="matrix(0.07407407407407408,0,0,0.07407407407407408,48.88888888888889,0)" xlink:href="#P"/><use transform="matrix(0.07407407407407408,0,0,0.07407407407407408,65.11111111111111,0)" xlink:href="#Q"/><use transform="matrix(0.07407407407407408,0,0,0.07407407407407408,72.51851851851852,0)" xlink:href="#R"/></g><path d="M24 0v-248h52v208h133V0H24" id="S"/><path d="M135-194c87-1 58 113 63 194h-50c-7-57 23-157-34-157-59 0-34 97-39 157H25l-1-190h47c2 12-1 28 3 38 12-26 28-41 61-42" id="T"/><path d="M133-34C117-15 103 5 69 4 32 3 11-16 11-54c-1-60 55-63 116-61 1-26-3-47-28-47-18 1-26 9-28 27l-52-2c7-38 36-58 82-57s74 22 75 68l1 82c-1 14 12 18 25 15v27c-30 8-71 5-69-32zm-48 3c29 0 43-24 42-57-32 0-66-3-65 30 0 17 8 27 23 27" id="U"/><path d="M135-150c-39-12-60 13-60 57V0H25l-1-190h47c2 13-1 29 3 40 6-28 27-53 61-41v41" id="V"/><g id="e"><use transform="matrix(0.07407407407407408,0,0,0.07407407407407408,0,0)" xlink:href="#S"/><use transform="matrix(0.07407407407407408,0,0,0.07407407407407408,16.222222222222225,0)" xlink:href="#N"/><use transform="matrix(0.07407407407407408,0,0,0.07407407407407408,23.629629629629633,0)" xlink:href="#T"/><use transform="matrix(0.07407407407407408,0,0,0.07407407407407408,39.85185185185187,0)" xlink:href="#R"/><use transform="matrix(0.07407407407407408,0,0,0.07407407407407408,54.666666666666686,0)" xlink:href="#U"/><use transform="matrix(0.07407407407407408,0,0,0.07407407407407408,69.4814814814815,0)" xlink:href="#V"/></g><path d="M67-125c0 53 21 87 73 88 37 1 54-22 65-47l45 17C233-25 199 4 140 4 58 4 20-42 15-125 8-235 124-281 211-232c18 10 29 29 36 50l-46 12c-8-25-30-41-62-41-52 0-71 34-72 86" id="W"/><path d="M137-138c1-29-70-34-71-4 15 46 118 7 119 86 1 83-164 76-172 9l43-7c4 19 20 25 44 25 33 8 57-30 24-41C81-84 22-81 20-136c-2-80 154-74 161-7" id="X"/><path d="M121-226c-27-7-43 5-38 36h38v33H83V0H34v-157H6v-33h28c-9-59 32-81 87-68v32" id="Y"/><g id="f"><use transform="matrix(0.07407407407407408,0,0,0.07407407407407408,0,0)" xlink:href="#W"/><use transform="matrix(0.07407407407407408,0,0,0.07407407407407408,19.185185185185187,0)" xlink:href="#Q"/><use transform="matrix(0.07407407407407408,0,0,0.07407407407407408,26.592592592592595,0)" xlink:href="#U"/><use transform="matrix(0.07407407407407408,0,0,0.07407407407407408,41.40740740740741,0)" xlink:href="#X"/><use transform="matrix(0.07407407407407408,0,0,0.07407407407407408,56.22222222222223,0)" xlink:href="#X"/><use transform="matrix(0.07407407407407408,0,0,0.07407407407407408,71.03703703703704,0)" xlink:href="#N"/><use transform="matrix(0.07407407407407408,0,0,0.07407407407407408,78.44444444444444,0)" xlink:href="#Y"/><use transform="matrix(0.07407407407407408,0,0,0.07407407407407408,87.25925925925927,0)" xlink:href="#N"/><use transform="matrix(0.07407407407407408,0,0,0.07407407407407408,94.66666666666669,0)" xlink:href="#R"/><use transform="matrix(0.07407407407407408,0,0,0.07407407407407408,109.4814814814815,0)" xlink:href="#V"/></g><path d="M185-189c-5-48-123-54-124 2 14 75 158 14 163 119 3 78-121 87-175 55-17-10-28-26-33-46l33-7c5 56 141 63 141-1 0-78-155-14-162-118-5-82 145-84 179-34 5 7 8 16 11 25" id="Z"/><path d="M96-169c-40 0-48 33-48 73s9 75 48 75c24 0 41-14 43-38l32 2c-6 37-31 61-74 61-59 0-76-41-82-99-10-93 101-131 147-64 4 7 5 14 7 22l-32 3c-4-21-16-35-41-35" id="aa"/><path d="M100-194c62-1 85 37 85 99 1 63-27 99-86 99S16-35 15-95c0-66 28-99 85-99zM99-20c44 1 53-31 53-75 0-43-8-75-51-75s-53 32-53 75 10 74 51 75" id="ab"/><path d="M114-163C36-179 61-72 57 0H25l-1-190h30c1 12-1 29 2 39 6-27 23-49 58-41v29" id="ac"/><path d="M100-194c63 0 86 42 84 106H49c0 40 14 67 53 68 26 1 43-12 49-29l28 8c-11 28-37 45-77 45C44 4 14-33 15-96c1-61 26-98 85-98zm52 81c6-60-76-77-97-28-3 7-6 17-6 28h103" id="ad"/><path d="M87 75C49 33 22-17 22-94c0-76 28-126 65-167h31c-38 41-64 92-64 168S80 34 118 75H87" id="ae"/><path d="M141 0L90-78 38 0H4l68-98-65-92h35l48 74 47-74h35l-64 92 68 98h-35" id="af"/><path d="M33-261c38 41 65 92 65 168S71 34 33 75H2C39 34 66-17 66-93S39-220 2-261h31" id="ag"/><g id="g"><use transform="matrix(0.05,0,0,0.05,0,0)" xlink:href="#Z"/><use transform="matrix(0.05,0,0,0.05,12,0)" xlink:href="#aa"/><use transform="matrix(0.05,0,0,0.05,21,0)" xlink:href="#ab"/><use transform="matrix(0.05,0,0,0.05,31,0)" xlink:href="#ac"/><use transform="matrix(0.05,0,0,0.05,36.95,0)" xlink:href="#ad"/><use transform="matrix(0.05,0,0,0.05,46.95,0)" xlink:href="#ae"/><use transform="matrix(0.05,0,0,0.05,52.900000000000006,0)" xlink:href="#af"/><use transform="matrix(0.05,0,0,0.05,61.900000000000006,0)" xlink:href="#ag"/></g><path d="M18-150v-26h174v26H18zm0 90v-26h174v26H18" id="ah"/><use transform="matrix(0.05,0,0,0.05,0,0)" xlink:href="#ah" id="h"/><path d="M206 0h-36l-40-164L89 0H53L-1-190h32L70-26l43-164h34l41 164 42-164h31" id="ai"/><path d="M24-231v-30h32v30H24zM24 0v-190h32V0H24" id="aj"/><path d="M177-190C167-65 218 103 67 71c-23-6-38-20-44-43l32-5c15 47 100 32 89-28v-30C133-14 115 1 83 1 29 1 15-40 15-95c0-56 16-97 71-98 29-1 48 16 59 35 1-10 0-23 2-32h30zM94-22c36 0 50-32 50-73 0-42-14-75-50-75-39 0-46 34-46 75s6 73 46 73" id="ak"/><path d="M106-169C34-169 62-67 57 0H25v-261h32l-1 103c12-21 28-36 61-36 89 0 53 116 60 194h-32v-121c2-32-8-49-39-48" id="al"/><path d="M59-47c-2 24 18 29 38 22v24C64 9 27 4 27-40v-127H5v-23h24l9-43h21v43h35v23H59v120" id="am"/><path d="M85-194c31 0 48 13 60 33l-1-100h32l1 261h-30c-2-10 0-23-3-31C134-8 116 4 85 4 32 4 16-35 15-94c0-66 23-100 70-100zm9 24c-40 0-46 34-46 75 0 40 6 74 45 74 42 0 51-32 51-76 0-42-9-74-50-73" id="an"/><g id="i"><use transform="matrix(0.05,0,0,0.05,0,0)" xlink:href="#ai"/><use transform="matrix(0.05,0,0,0.05,12.950000000000001,0)" xlink:href="#ad"/><use transform="matrix(0.05,0,0,0.05,22.950000000000003,0)" xlink:href="#aj"/><use transform="matrix(0.05,0,0,0.05,26.900000000000002,0)" xlink:href="#ak"/><use transform="matrix(0.05,0,0,0.05,36.900000000000006,0)" xlink:href="#al"/><use transform="matrix(0.05,0,0,0.05,46.900000000000006,0)" xlink:href="#am"/><use transform="matrix(0.05,0,0,0.05,51.900000000000006,0)" xlink:href="#ad"/><use transform="matrix(0.05,0,0,0.05,61.900000000000006,0)" xlink:href="#an"/></g><path d="M84 4C-5 8 30-112 23-190h32v120c0 31 7 50 39 49 72-2 45-101 50-169h31l1 190h-30c-1-10 1-25-2-33-11 22-28 36-60 37" id="ao"/><path d="M117-194c89-4 53 116 60 194h-32v-121c0-31-8-49-39-48C34-167 62-67 57 0H25l-1-190h30c1 10-1 24 2 32 11-22 29-35 61-36" id="ap"/><g id="j"><use transform="matrix(0.05,0,0,0.05,0,0)" xlink:href="#aa"/><use transform="matrix(0.05,0,0,0.05,9,0)" xlink:href="#ab"/><use transform="matrix(0.05,0,0,0.05,19,0)" xlink:href="#ao"/><use transform="matrix(0.05,0,0,0.05,29,0)" xlink:href="#ap"/><use transform="matrix(0.05,0,0,0.05,39,0)" xlink:href="#am"/></g><path d="M101-234c-31-9-42 10-38 44h38v23H63V0H32v-167H5v-23h27c-7-52 17-82 69-68v24" id="aq"/><g id="k"><use transform="matrix(0.05,0,0,0.05,0,0)" xlink:href="#ab"/><use transform="matrix(0.05,0,0,0.05,10,0)" xlink:href="#aq"/></g><path d="M135-143c-3-34-86-38-87 0 15 53 115 12 119 90S17 21 10-45l28-5c4 36 97 45 98 0-10-56-113-15-118-90-4-57 82-63 122-42 12 7 21 19 24 35" id="ar"/><g id="l"><use transform="matrix(0.05,0,0,0.05,0,0)" xlink:href="#ai"/><use transform="matrix(0.05,0,0,0.05,12.950000000000001,0)" xlink:href="#ab"/><use transform="matrix(0.05,0,0,0.05,22.950000000000003,0)" xlink:href="#ac"/><use transform="matrix(0.05,0,0,0.05,28.900000000000002,0)" xlink:href="#an"/><use transform="matrix(0.05,0,0,0.05,38.900000000000006,0)" xlink:href="#ar"/></g><g id="m"><use transform="matrix(0.05,0,0,0.05,0,0)" xlink:href="#aj"/><use transform="matrix(0.05,0,0,0.05,3.95,0)" xlink:href="#ap"/></g><g id="n"><use transform="matrix(0.05,0,0,0.05,0,0)" xlink:href="#ar"/><use transform="matrix(0.05,0,0,0.05,9,0)" xlink:href="#ad"/><use transform="matrix(0.05,0,0,0.05,19,0)" xlink:href="#ap"/><use transform="matrix(0.05,0,0,0.05,29,0)" xlink:href="#am"/><use transform="matrix(0.05,0,0,0.05,34,0)" xlink:href="#ad"/><use transform="matrix(0.05,0,0,0.05,44,0)" xlink:href="#ap"/><use transform="matrix(0.05,0,0,0.05,54,0)" xlink:href="#aa"/><use transform="matrix(0.05,0,0,0.05,63,0)" xlink:href="#ad"/></g><path d="M33 0v-248h34V0H33" id="as"/><g id="o"><use transform="matrix(0.05,0,0,0.05,0,0)" xlink:href="#as"/><use transform="matrix(0.05,0,0,0.05,5,0)" xlink:href="#aq"/></g><g id="p"><use transform="matrix(0.05,0,0,0.05,0,0)" xlink:href="#Z"/><use transform="matrix(0.05,0,0,0.05,12,0)" xlink:href="#aa"/><use transform="matrix(0.05,0,0,0.05,21,0)" xlink:href="#ab"/><use transform="matrix(0.05,0,0,0.05,31,0)" xlink:href="#ac"/><use transform="matrix(0.05,0,0,0.05,36.95,0)" xlink:href="#ad"/><use transform="matrix(0.05,0,0,0.05,46.95,0)" xlink:href="#ae"/><use transform="matrix(0.05,0,0,0.05,52.900000000000006,0)" xlink:href="#af"/><use transform="matrix(0.05,0,0,0.05,61.900000000000006,0)" xlink:href="#ag"/></g><path d="M18-27v-27l151-64-151-65v-27l175 74v36" id="at"/><use transform="matrix(0.05,0,0,0.05,0,0)" xlink:href="#at" id="q"/><path d="M101-251c68 0 85 55 85 127S166 4 100 4C33 4 14-52 14-124c0-73 17-127 87-127zm-1 229c47 0 54-49 54-102s-4-102-53-102c-51 0-55 48-55 102 0 53 5 102 54 102" id="au"/><use transform="matrix(0.05,0,0,0.05,0,0)" xlink:href="#au" id="r"/><path d="M30 0v-248h187v28H63v79h144v27H63v87h162V0H30" id="av"/><path d="M24 0v-261h32V0H24" id="aw"/><path d="M33-154v-36h34v36H33zM33 0v-36h34V0H33" id="ax"/><g id="s"><use transform="matrix(0.05,0,0,0.05,0,0)" xlink:href="#av"/><use transform="matrix(0.05,0,0,0.05,12,0)" xlink:href="#aw"/><use transform="matrix(0.05,0,0,0.05,15.949999999999998,0)" xlink:href="#ar"/><use transform="matrix(0.05,0,0,0.05,24.95,0)" xlink:href="#ad"/><use transform="matrix(0.05,0,0,0.05,34.95,0)" xlink:href="#ax"/></g><path d="M115-194c55 1 70 41 70 98S169 2 115 4C84 4 66-9 55-30l1 105H24l-1-265h31l2 30c10-21 28-34 59-34zm-8 174c40 0 45-34 45-75s-6-73-45-74c-42 0-51 32-51 76 0 43 10 73 51 73" id="ay"/><g id="t"><use transform="matrix(0.07407407407407408,0,0,0.07407407407407408,0,0)" xlink:href="#as"/><use transform="matrix(0.07407407407407408,0,0,0.07407407407407408,7.407407407407408,0)" xlink:href="#ap"/><use transform="matrix(0.07407407407407408,0,0,0.07407407407407408,22.222222222222225,0)" xlink:href="#ay"/><use transform="matrix(0.07407407407407408,0,0,0.07407407407407408,37.03703703703704,0)" xlink:href="#ao"/><use transform="matrix(0.07407407407407408,0,0,0.07407407407407408,51.85185185185186,0)" xlink:href="#am"/><use transform="matrix(0.07407407407407408,0,0,0.07407407407407408,59.25925925925927,0)" xlink:href="#ax"/></g><use transform="matrix(0.07407407407407408,0,0,0.07407407407407408,0,0)" xlink:href="#af" id="u"/><path d="M33 0v-38h34V0H33" id="az"/><g id="v"><use transform="matrix(0.04938271604938272,0,0,0.04938271604938272,0,0)" xlink:href="#az"/><use transform="matrix(0.04938271604938272,0,0,0.04938271604938272,4.938271604938272,0)" xlink:href="#az"/><use transform="matrix(0.04938271604938272,0,0,0.04938271604938272,9.876543209876544,0)" xlink:href="#az"/></g><g id="w"><use transform="matrix(0.05,0,0,0.05,0,0)" xlink:href="#az"/><use transform="matrix(0.05,0,0,0.05,5,0)" xlink:href="#az"/><use transform="matrix(0.05,0,0,0.05,10,0)" xlink:href="#az"/></g><path fill="#fff" d="M275 0h-61l-44-196L126 0H64L0-248h53L97-49l45-199h58l43 199 44-199h52" id="aA"/><path fill="#fff" d="M110-194c64 0 96 36 96 99 0 64-35 99-97 99-61 0-95-36-95-99 0-62 34-99 96-99zm-1 164c35 0 45-28 45-65 0-40-10-65-43-65-34 0-45 26-45 65 0 36 10 65 43 65" id="aB"/><path fill="#fff" d="M135-150c-39-12-60 13-60 57V0H25l-1-190h47c2 13-1 29 3 40 6-28 27-53 61-41v41" id="aC"/><path fill="#fff" d="M88-194c31-1 46 15 58 34l-1-101h50l1 261h-48c-2-10 0-23-3-31C134-8 116 4 84 4 32 4 16-41 15-95c0-56 19-97 73-99zm17 164c33 0 40-30 41-66 1-37-9-64-41-64s-38 30-39 65c0 43 13 65 39 65" id="aD"/><g id="x"><use transform="matrix(0.06172839506172839,0,0,0.06172839506172839,0,0)" xlink:href="#aA"/><use transform="matrix(0.06172839506172839,0,0,0.06172839506172839,20.493827160493826,0)" xlink:href="#aB"/><use transform="matrix(0.06172839506172839,0,0,0.06172839506172839,34.01234567901234,0)" xlink:href="#aC"/><use transform="matrix(0.06172839506172839,0,0,0.06172839506172839,42.654320987654316,0)" xlink:href="#aD"/></g><path fill="#fff" d="M185-48c-13 30-37 53-82 52C43 2 14-33 14-96s30-98 90-98c62 0 83 45 84 108H66c0 31 8 55 39 56 18 0 30-7 34-22zm-45-69c5-46-57-63-70-21-2 6-4 13-4 21h74" id="aE"/><path fill="#fff" d="M25-224v-37h50v37H25zM25 0v-190h50V0H25" id="aF"/><path fill="#fff" d="M195-6C206 82 75 100 31 46c-4-6-6-13-8-21l49-6c3 16 16 24 34 25 40 0 42-37 40-79-11 22-30 35-61 35-53 0-70-43-70-97 0-56 18-96 73-97 30 0 46 14 59 34l2-30h47zm-90-29c32 0 41-27 41-63 0-35-9-62-40-62-32 0-39 29-40 63 0 36 9 62 39 62" id="aG"/><path fill="#fff" d="M114-157C55-157 80-60 75 0H25v-261h50l-1 109c12-26 28-41 61-42 86-1 58 113 63 194h-50c-7-57 23-157-34-157" id="aH"/><path fill="#fff" d="M115-3C79 11 28 4 28-45v-112H4v-33h27l15-45h31v45h36v33H77v99c-1 23 16 31 38 25v30" id="aI"/><g id="y"><use transform="matrix(0.06172839506172839,0,0,0.06172839506172839,0,0)" xlink:href="#aA"/><use transform="matrix(0.06172839506172839,0,0,0.06172839506172839,20.493827160493826,0)" xlink:href="#aE"/><use transform="matrix(0.06172839506172839,0,0,0.06172839506172839,32.839506172839506,0)" xlink:href="#aF"/><use transform="matrix(0.06172839506172839,0,0,0.06172839506172839,39.01234567901235,0)" xlink:href="#aG"/><use transform="matrix(0.06172839506172839,0,0,0.06172839506172839,52.53086419753087,0)" xlink:href="#aH"/><use transform="matrix(0.06172839506172839,0,0,0.06172839506172839,66.04938271604938,0)" xlink:href="#aI"/></g></defs></g></svg>