<svg xmlns="http://www.w3.org/2000/svg" xmlns:xlink="http://www.w3.org/1999/xlink" xmlns:lucid="lucid" width="904" height="755"><g transform="translate(-60 -85)" lucid:page-tab-id="BTBKY~rFZJg1"><path d="M240 552c0 4.42-17.9 8-40 8s-40-3.58-40-8v-64c0-4.42 17.9-8 40-8s40 3.58 40 8z" stroke="#000" stroke-width="2" fill="#834187"/><path d="M240 488c0 4.42-17.9 8-40 8s-40-3.58-40-8" stroke="#000" stroke-width="2" fill="none"/><use xlink:href="#a" transform="matrix(1,0,0,1,165,501) translate(16.025 31.275)"/><path d="M320 400h160v80H320z" stroke="#000" stroke-width="2" fill="#0c7cba"/><use xlink:href="#b" transform="matrix(1,0,0,1,325,405) translate(26.924999999999997 38.4625)"/><use xlink:href="#c" transform="matrix(1,0,0,1,325,405) translate(96.075 38.4625)"/><path d="M320 560h160v80H320z" stroke="#000" stroke-width="2" fill="#0c7cba"/><use xlink:href="#d" transform="matrix(1,0,0,1,325,565) translate(30.549999999999997 38.4625)"/><use xlink:href="#c" transform="matrix(1,0,0,1,325,565) translate(92.45 38.4625)"/><path d="M241.7 519.3l64.22-64.22" stroke="#000" stroke-width="2" fill="none"/><path d="M242.43 519.98L241 521.4v-2.8l.02-.03z"/><path d="M316.7 444.3l-6.8 13.35-6.55-6.55z" stroke="#000" stroke-width="2"/><path d="M241.7 520.7l64.22 64.22" stroke="#000" stroke-width="2" fill="none"/><path d="M242.43 520.02l-1.4 1.4H241v-2.83z"/><path d="M316.7 595.7l-13.35-6.8 6.55-6.55z" stroke="#000" stroke-width="2"/><path d="M720 440c0 22.1-35.82 40-80 40s-80-17.9-80-40 35.82-40 80-40 80 17.9 80 40z" stroke="#000" stroke-width="2" fill="#7ab648"/><use xlink:href="#e" transform="matrix(1,0,0,1,565,405) translate(12.649999999999991 38.4625)"/><use xlink:href="#f" transform="matrix(1,0,0,1,565,405) translate(63.599999999999994 38.4625)"/><path d="M640 540l80 60-80 60-80-60z" stroke="#000" stroke-width="2" fill="#ef8d22"/><use xlink:href="#g" transform="matrix(1,0,0,1,565,545) translate(35.029999999999994 59.0875)"/><path d="M482 600h57.83" stroke="#000" stroke-width="2" fill="none"/><path d="M482.03 601H481v-2h1.03z"/><path d="M555.1 600l-14.27 4.64v-9.28z" stroke="#000" stroke-width="2"/><path d="M482 440h58.5" stroke="#000" stroke-width="2" fill="none"/><path d="M482.03 441H481v-2h1.03z"/><path d="M555.76 440l-14.26 4.64v-9.28z" stroke="#000" stroke-width="2"/><path d="M640 482v38.25" stroke="#000" stroke-width="2" fill="none"/><path d="M640 481h1v1.03h-2v-1.06z"/><path d="M640 535.5l-4.64-14.25h9.28z" stroke="#000" stroke-width="2"/><path d="M720 105h224v216H720z" fill="#c7e8ac"/><path d="M720 105h224v36H720z" fill="#9fba8a"/><path d="M720 177h224v36H720zM720 249h224v36H720z" fill="#bbdaa2"/><path d="M832 105v216M720 105h224v216H720z" stroke="#000" stroke-width="2" fill="none"/><use xlink:href="#h" transform="matrix(1,0,0,1,726,105) translate(0 21.6)"/><use xlink:href="#i" transform="matrix(1,0,0,1,838,105) translate(22.225 21.6)"/><use xlink:href="#j" transform="matrix(1,0,0,1,726,141) translate(0 21.6)"/><use xlink:href="#k" transform="matrix(1,0,0,1,838,141) translate(37.5 21.6)"/><use xlink:href="#l" transform="matrix(1,0,0,1,726,177) translate(0 21.6)"/><use xlink:href="#m" transform="matrix(1,0,0,1,838,177) translate(37.5 21.6)"/><use xlink:href="#n" transform="matrix(1,0,0,1,726,213) translate(0 21.6)"/><use xlink:href="#o" transform="matrix(1,0,0,1,838,213) translate(34.525 21.6)"/><use xlink:href="#p" transform="matrix(1,0,0,1,726,249) translate(0 21.6)"/><use xlink:href="#q" transform="matrix(1,0,0,1,838,249) translate(34.525 21.6)"/><use xlink:href="#r" transform="matrix(1,0,0,1,726,285) translate(0 21.6)"/><use xlink:href="#r" transform="matrix(1,0,0,1,838,285) translate(42.5 21.6)"/><path d="M640.4 398.08l71.36-167.72" stroke="#000" stroke-width="2" fill="none"/><path d="M641.32 398.45l-.25.58L640 399h-1.1l.58-1.34z"/><path d="M717.73 216.3l-1.32 14.95-8.52-3.63z" stroke="#000" stroke-width="2"/><path d="M160 580h69.03v32H160z" fill="#fff" fill-opacity="0"/><path d="M170.62 609.83l-.42.56c-5.52-3.15-8.52-9.06-8.52-15 0-6.46 3.04-11.5 8.63-14.8l.32.55c-4.86 4.16-5.94 7.4-5.94 14.15 0 6.5 1.05 10.45 5.94 14.53M180.12 591.8l.42 2c2.45-3.74 3.74-5 5.28-5 .83 0 1.43.53 1.43 1.3 0 .73-.5 1.25-1.2 1.25-.65 0-.97-.6-1.8-.6-.64 0-1.9 1.55-3.43 4.24 0 .23.07.72.28 1.56l1.12 4.68c.24.98.56 1.43 1.05 1.43.45 0 .83-.35 1.64-1.4.32-.4.46-.62.74-.97l.52.3c-2.02 3.16-2.93 4-4.26 4-1.12 0-1.64-.64-2.06-2.38l-1-4.16-3.1 4.16c-1.52 2.06-2.22 2.37-3.3 2.37-1.1 0-1.75-.57-1.75-1.47 0-.7.48-1.26 1.18-1.26.3 0 .66.14 1.1.38.36.2.7.32.92.32.4 0 1.05-.67 1.78-1.7l2.87-4.07-.98-4.33c-.5-2.1-.73-2.37-1.6-2.37-.3 0-.7.07-1.37.24l-.63.18-.1-.56.38-.14c2.13-.77 3.3-1.02 4.1-1.02.86 0 1.28.63 1.77 3M190.18 609.13l-.35-.66c1.92-1.3 2.9-2.58 2.9-3.74 0-.24-.2-.45-.5-.45-.27 0-.62.14-1 .14-1.3 0-2.03-.6-2.03-1.78 0-1.2.84-2 2.1-2 1.57 0 2.8 1.23 2.8 3.05 0 2.08-1.5 4.28-3.92 5.43M210.34 597.7l.73 3.85c2.97-4.92 4.26-7.44 4.26-8.97 0-.5-.24-.7-.9-1.12-.7-.46-.9-.8-.9-1.36 0-.77.58-1.3 1.38-1.3 1.06 0 1.83.88 1.83 1.93 0 2-1.68 5.83-4.58 10.65-3.63 6-7.37 10.03-9.36 10.03-1.06 0-1.8-.6-1.8-1.5 0-.77.6-1.4 1.37-1.4 1.23 0 1.23.98 2.13.98.46 0 .88-.28 1.68-1.15.63-.66 2.2-2.72 2.48-3.18.2-.42.35-.84.35-1.22 0-1.4-1.9-9.22-2.85-11.6-.67-1.7-1.3-2.23-2.7-2.23-.38 0-.7.03-1.08.14v-.6l1.12-.2c.7-.15 1.84-.36 3.73-.64h.14c.52 0 2.37 5.8 2.97 8.9M218.37 581.15l.42-.56c5.34 3.2 8.5 9.04 8.5 14.98 0 6.46-3.06 11.42-8.6 14.8l-.33-.55c4.96-4.08 5.94-7.37 5.94-14.14 0-6.55-.86-10.56-5.93-14.55"/><path d="M80 640h240v60H80z" stroke="#000" stroke-opacity="0" stroke-width="2" fill="#fff" fill-opacity="0"/><use xlink:href="#s" transform="matrix(1,0,0,1,85,645) translate(0 30.708333333333336)"/><use xlink:href="#t" transform="matrix(1,0,0,1,85,645) translate(202.888888888889 30.708333333333336)"/><path d="M277.16 660h-34.32c-1.56 0-2.84 1.28-2.84 2.85v2.87c0 1.57 1.28 2.85 2.84 2.85h34.32c1.56 0 2.84-1.28 2.84-2.85v-2.87c0-1.57-1.28-2.85-2.84-2.85z" stroke="#000" stroke-width="2" fill="#ef8d22"/><path d="M80 700h240v60H80z" stroke="#000" stroke-opacity="0" stroke-width="2" fill="#fff" fill-opacity="0"/><use xlink:href="#u" transform="matrix(1,0,0,1,85,705) translate(0 30.708333333333336)"/><use xlink:href="#t" transform="matrix(1,0,0,1,85,705) translate(202.888888888889 30.708333333333336)"/><path d="M277.16 715.72h-12.88v-12.88c0-1.56-1.28-2.84-2.84-2.84h-2.88c-1.56 0-2.84 1.28-2.84 2.84v12.88h-12.88c-1.56 0-2.84 1.28-2.84 2.84v2.88c0 1.56 1.28 2.84 2.84 2.84h12.88v12.88c0 1.56 1.28 2.84 2.84 2.84h2.88c1.56 0 2.84-1.28 2.84-2.84v-12.88h12.88c1.56 0 2.84-1.28 2.84-2.84v-2.88c0-1.56-1.28-2.84-2.84-2.84z" stroke="#000" stroke-width="2" fill="#0c7cba"/><path d="M80 760h240v60H80z" stroke="#000" stroke-opacity="0" stroke-width="2" fill="#fff" fill-opacity="0"/><g><use xlink:href="#v" transform="matrix(1,0,0,1,85,765) translate(103.88888888888889 30.708333333333336)"/></g><defs><path fill="#fff" d="M30-248c118-7 216 8 213 122C240-48 200 0 122 0H30v-248zM63-27c89 8 146-16 146-99s-60-101-146-95v194" id="w"/><path fill="#fff" d="M141-36C126-15 110 5 73 4 37 3 15-17 15-53c-1-64 63-63 125-63 3-35-9-54-41-54-24 1-41 7-42 31l-33-3c5-37 33-52 76-52 45 0 72 20 72 64v82c-1 20 7 32 28 27v20c-31 9-61-2-59-35zM48-53c0 20 12 33 32 33 41-3 63-29 60-74-43 2-92-5-92 41" id="x"/><path fill="#fff" d="M59-47c-2 24 18 29 38 22v24C64 9 27 4 27-40v-127H5v-23h24l9-43h21v43h35v23H59v120" id="y"/><g id="a"><use transform="matrix(0.05,0,0,0.05,0,0)" xlink:href="#w"/><use transform="matrix(0.05,0,0,0.05,12.950000000000001,0)" xlink:href="#x"/><use transform="matrix(0.05,0,0,0.05,22.950000000000003,0)" xlink:href="#y"/><use transform="matrix(0.05,0,0,0.05,27.950000000000003,0)" xlink:href="#x"/></g><path fill="#fff" d="M127-220V0H93v-220H8v-28h204v28h-85" id="z"/><path fill="#fff" d="M114-163C36-179 61-72 57 0H25l-1-190h30c1 12-1 29 2 39 6-27 23-49 58-41v29" id="A"/><path fill="#fff" d="M24-231v-30h32v30H24zM24 0v-190h32V0H24" id="B"/><path fill="#fff" d="M117-194c89-4 53 116 60 194h-32v-121c0-31-8-49-39-48C34-167 62-67 57 0H25l-1-190h30c1 10-1 24 2 32 11-22 29-35 61-36" id="C"/><path fill="#fff" d="M177-190C167-65 218 103 67 71c-23-6-38-20-44-43l32-5c15 47 100 32 89-28v-30C133-14 115 1 83 1 29 1 15-40 15-95c0-56 16-97 71-98 29-1 48 16 59 35 1-10 0-23 2-32h30zM94-22c36 0 50-32 50-73 0-42-14-75-50-75-39 0-46 34-46 75s6 73 46 73" id="D"/><g id="b"><use transform="matrix(0.05,0,0,0.05,0,0)" xlink:href="#z"/><use transform="matrix(0.05,0,0,0.05,10.3,0)" xlink:href="#A"/><use transform="matrix(0.05,0,0,0.05,16.25,0)" xlink:href="#x"/><use transform="matrix(0.05,0,0,0.05,26.25,0)" xlink:href="#B"/><use transform="matrix(0.05,0,0,0.05,30.200000000000003,0)" xlink:href="#C"/><use transform="matrix(0.05,0,0,0.05,40.2,0)" xlink:href="#B"/><use transform="matrix(0.05,0,0,0.05,44.150000000000006,0)" xlink:href="#C"/><use transform="matrix(0.05,0,0,0.05,54.150000000000006,0)" xlink:href="#D"/></g><path fill="#fff" d="M185-189c-5-48-123-54-124 2 14 75 158 14 163 119 3 78-121 87-175 55-17-10-28-26-33-46l33-7c5 56 141 63 141-1 0-78-155-14-162-118-5-82 145-84 179-34 5 7 8 16 11 25" id="E"/><path fill="#fff" d="M100-194c63 0 86 42 84 106H49c0 40 14 67 53 68 26 1 43-12 49-29l28 8c-11 28-37 45-77 45C44 4 14-33 15-96c1-61 26-98 85-98zm52 81c6-60-76-77-97-28-3 7-6 17-6 28h103" id="F"/><g id="c"><use transform="matrix(0.05,0,0,0.05,0,0)" xlink:href="#E"/><use transform="matrix(0.05,0,0,0.05,12,0)" xlink:href="#F"/><use transform="matrix(0.05,0,0,0.05,22,0)" xlink:href="#y"/></g><path fill="#fff" d="M135-143c-3-34-86-38-87 0 15 53 115 12 119 90S17 21 10-45l28-5c4 36 97 45 98 0-10-56-113-15-118-90-4-57 82-63 122-42 12 7 21 19 24 35" id="G"/><g id="d"><use transform="matrix(0.05,0,0,0.05,0,0)" xlink:href="#z"/><use transform="matrix(0.05,0,0,0.05,8.950000000000001,0)" xlink:href="#F"/><use transform="matrix(0.05,0,0,0.05,18.950000000000003,0)" xlink:href="#G"/><use transform="matrix(0.05,0,0,0.05,27.950000000000003,0)" xlink:href="#y"/><use transform="matrix(0.05,0,0,0.05,32.95,0)" xlink:href="#B"/><use transform="matrix(0.05,0,0,0.05,36.900000000000006,0)" xlink:href="#C"/><use transform="matrix(0.05,0,0,0.05,46.900000000000006,0)" xlink:href="#D"/></g><path fill="#fff" d="M30 0v-248h33v221h125V0H30" id="H"/><g id="e"><use transform="matrix(0.05,0,0,0.05,0,0)" xlink:href="#H"/><use transform="matrix(0.05,0,0,0.05,10,0)" xlink:href="#F"/><use transform="matrix(0.05,0,0,0.05,20,0)" xlink:href="#x"/><use transform="matrix(0.05,0,0,0.05,30,0)" xlink:href="#A"/><use transform="matrix(0.05,0,0,0.05,35.95,0)" xlink:href="#C"/></g><path fill="#fff" d="M212-179c-10-28-35-45-73-45-59 0-87 40-87 99 0 60 29 101 89 101 43 0 62-24 78-52l27 14C228-24 195 4 139 4 59 4 22-46 18-125c-6-104 99-153 187-111 19 9 31 26 39 46" id="I"/><path fill="#fff" d="M24 0v-261h32V0H24" id="J"/><path fill="#fff" d="M101-234c-31-9-42 10-38 44h38v23H63V0H32v-167H5v-23h27c-7-52 17-82 69-68v24" id="K"/><g id="f"><use transform="matrix(0.05,0,0,0.05,0,0)" xlink:href="#I"/><use transform="matrix(0.05,0,0,0.05,12.950000000000001,0)" xlink:href="#J"/><use transform="matrix(0.05,0,0,0.05,16.900000000000002,0)" xlink:href="#x"/><use transform="matrix(0.05,0,0,0.05,26.900000000000002,0)" xlink:href="#G"/><use transform="matrix(0.05,0,0,0.05,35.900000000000006,0)" xlink:href="#G"/><use transform="matrix(0.05,0,0,0.05,44.900000000000006,0)" xlink:href="#B"/><use transform="matrix(0.05,0,0,0.05,48.85000000000001,0)" xlink:href="#K"/><use transform="matrix(0.05,0,0,0.05,53.85,0)" xlink:href="#B"/><use transform="matrix(0.05,0,0,0.05,57.80000000000001,0)" xlink:href="#F"/><use transform="matrix(0.05,0,0,0.05,67.80000000000001,0)" xlink:href="#A"/></g><path fill="#fff" d="M30 0v-248h187v28H63v79h144v27H63v87h162V0H30" id="L"/><path fill="#fff" d="M108 0H70L1-190h34L89-25l56-165h34" id="M"/><path fill="#fff" d="M84 4C-5 8 30-112 23-190h32v120c0 31 7 50 39 49 72-2 45-101 50-169h31l1 190h-30c-1-10 1-25-2-33-11 22-28 36-60 37" id="N"/><path fill="#fff" d="M103-251c84 0 111 97 45 133-19 10-37 24-39 52H78c0-63 77-55 77-114 0-30-21-42-52-43-32 0-53 17-56 46l-32-2c7-45 34-72 88-72zM77 0v-35h34V0H77" id="O"/><g id="g"><use transform="matrix(0.05,0,0,0.05,0,0)" xlink:href="#L"/><use transform="matrix(0.05,0,0,0.05,12,0)" xlink:href="#M"/><use transform="matrix(0.05,0,0,0.05,21,0)" xlink:href="#x"/><use transform="matrix(0.05,0,0,0.05,31,0)" xlink:href="#J"/><use transform="matrix(0.05,0,0,0.05,34.95,0)" xlink:href="#N"/><use transform="matrix(0.05,0,0,0.05,44.95,0)" xlink:href="#x"/><use transform="matrix(0.05,0,0,0.05,54.95,0)" xlink:href="#y"/><use transform="matrix(0.05,0,0,0.05,59.95,0)" xlink:href="#F"/><use transform="matrix(0.05,0,0,0.05,69.95,0)" xlink:href="#O"/></g><path d="M266 0h-40l-56-210L115 0H75L2-248h35L96-30l15-64 43-154h32l59 218 59-218h35" id="P"/><path d="M100-194c62-1 85 37 85 99 1 63-27 99-86 99S16-35 15-95c0-66 28-99 85-99zM99-20c44 1 53-31 53-75 0-43-8-75-51-75s-53 32-53 75 10 74 51 75" id="Q"/><path d="M114-163C36-179 61-72 57 0H25l-1-190h30c1 12-1 29 2 39 6-27 23-49 58-41v29" id="R"/><path d="M85-194c31 0 48 13 60 33l-1-100h32l1 261h-30c-2-10 0-23-3-31C134-8 116 4 85 4 32 4 16-35 15-94c0-66 23-100 70-100zm9 24c-40 0-46 34-46 75 0 40 6 74 45 74 42 0 51-32 51-76 0-42-9-74-50-73" id="S"/><g id="h"><use transform="matrix(0.05,0,0,0.05,0,0)" xlink:href="#P"/><use transform="matrix(0.05,0,0,0.05,16.599999999999998,0)" xlink:href="#Q"/><use transform="matrix(0.05,0,0,0.05,26.599999999999994,0)" xlink:href="#R"/><use transform="matrix(0.05,0,0,0.05,32.55,0)" xlink:href="#S"/></g><path d="M100-194c63 0 86 42 84 106H49c0 40 14 67 53 68 26 1 43-12 49-29l28 8c-11 28-37 45-77 45C44 4 14-33 15-96c1-61 26-98 85-98zm52 81c6-60-76-77-97-28-3 7-6 17-6 28h103" id="T"/><path d="M24-231v-30h32v30H24zM24 0v-190h32V0H24" id="U"/><path d="M177-190C167-65 218 103 67 71c-23-6-38-20-44-43l32-5c15 47 100 32 89-28v-30C133-14 115 1 83 1 29 1 15-40 15-95c0-56 16-97 71-98 29-1 48 16 59 35 1-10 0-23 2-32h30zM94-22c36 0 50-32 50-73 0-42-14-75-50-75-39 0-46 34-46 75s6 73 46 73" id="V"/><path d="M106-169C34-169 62-67 57 0H25v-261h32l-1 103c12-21 28-36 61-36 89 0 53 116 60 194h-32v-121c2-32-8-49-39-48" id="W"/><path d="M59-47c-2 24 18 29 38 22v24C64 9 27 4 27-40v-127H5v-23h24l9-43h21v43h35v23H59v120" id="X"/><g id="i"><use transform="matrix(0.05,0,0,0.05,0,0)" xlink:href="#P"/><use transform="matrix(0.05,0,0,0.05,16.599999999999998,0)" xlink:href="#T"/><use transform="matrix(0.05,0,0,0.05,26.599999999999994,0)" xlink:href="#U"/><use transform="matrix(0.05,0,0,0.05,30.549999999999997,0)" xlink:href="#V"/><use transform="matrix(0.05,0,0,0.05,40.55,0)" xlink:href="#W"/><use transform="matrix(0.05,0,0,0.05,50.55,0)" xlink:href="#X"/></g><g id="j"><use transform="matrix(0.05,0,0,0.05,0,0)" xlink:href="#V"/><use transform="matrix(0.05,0,0,0.05,10,0)" xlink:href="#Q"/><use transform="matrix(0.05,0,0,0.05,20,0)" xlink:href="#Q"/><use transform="matrix(0.05,0,0,0.05,30,0)" xlink:href="#S"/></g><path d="M27 0v-27h64v-190l-56 39v-29l58-41h29v221h61V0H27" id="Y"/><path d="M33 0v-38h34V0H33" id="Z"/><path d="M101-251c68 0 85 55 85 127S166 4 100 4C33 4 14-52 14-124c0-73 17-127 87-127zm-1 229c47 0 54-49 54-102s-4-102-53-102c-51 0-55 48-55 102 0 53 5 102 54 102" id="aa"/><g id="k"><use transform="matrix(0.05,0,0,0.05,0,0)" xlink:href="#Y"/><use transform="matrix(0.05,0,0,0.05,10,0)" xlink:href="#Z"/><use transform="matrix(0.05,0,0,0.05,15,0)" xlink:href="#aa"/></g><path d="M141-36C126-15 110 5 73 4 37 3 15-17 15-53c-1-64 63-63 125-63 3-35-9-54-41-54-24 1-41 7-42 31l-33-3c5-37 33-52 76-52 45 0 72 20 72 64v82c-1 20 7 32 28 27v20c-31 9-61-2-59-35zM48-53c0 20 12 33 32 33 41-3 63-29 60-74-43 2-92-5-92 41" id="ab"/><path d="M206 0h-36l-40-164L89 0H53L-1-190h32L70-26l43-164h34l41 164 42-164h31" id="ac"/><path d="M135-143c-3-34-86-38-87 0 15 53 115 12 119 90S17 21 10-45l28-5c4 36 97 45 98 0-10-56-113-15-118-90-4-57 82-63 122-42 12 7 21 19 24 35" id="ad"/><path d="M210-169c-67 3-38 105-44 169h-31v-121c0-29-5-50-35-48C34-165 62-65 56 0H25l-1-190h30c1 10-1 24 2 32 10-44 99-50 107 0 11-21 27-35 58-36 85-2 47 119 55 194h-31v-121c0-29-5-49-35-48" id="ae"/><g id="l"><use transform="matrix(0.05,0,0,0.05,0,0)" xlink:href="#ab"/><use transform="matrix(0.05,0,0,0.05,10,0)" xlink:href="#ac"/><use transform="matrix(0.05,0,0,0.05,22.950000000000003,0)" xlink:href="#T"/><use transform="matrix(0.05,0,0,0.05,32.95,0)" xlink:href="#ad"/><use transform="matrix(0.05,0,0,0.05,41.95,0)" xlink:href="#Q"/><use transform="matrix(0.05,0,0,0.05,51.95,0)" xlink:href="#ae"/><use transform="matrix(0.05,0,0,0.05,66.9,0)" xlink:href="#T"/></g><path d="M64 0c3-98 48-159 88-221H18v-27h164v26C143-157 98-101 97 0H64" id="af"/><g id="m"><use transform="matrix(0.05,0,0,0.05,0,0)" xlink:href="#Y"/><use transform="matrix(0.05,0,0,0.05,10,0)" xlink:href="#Z"/><use transform="matrix(0.05,0,0,0.05,15,0)" xlink:href="#af"/></g><path d="M115-194c53 0 69 39 70 98 0 66-23 100-70 100C84 3 66-7 56-30L54 0H23l1-261h32v101c10-23 28-34 59-34zm-8 174c40 0 45-34 45-75 0-40-5-75-45-74-42 0-51 32-51 76 0 43 10 73 51 73" id="ag"/><g id="n"><use transform="matrix(0.05,0,0,0.05,0,0)" xlink:href="#ag"/><use transform="matrix(0.05,0,0,0.05,10,0)" xlink:href="#ab"/><use transform="matrix(0.05,0,0,0.05,20,0)" xlink:href="#S"/></g><path d="M16-82v-28h88v28H16" id="ah"/><g id="o"><use transform="matrix(0.05,0,0,0.05,0,0)" xlink:href="#ah"/><use transform="matrix(0.05,0,0,0.05,5.95,0)" xlink:href="#Y"/><use transform="matrix(0.05,0,0,0.05,15.949999999999998,0)" xlink:href="#Z"/><use transform="matrix(0.05,0,0,0.05,20.95,0)" xlink:href="#aa"/></g><path d="M101-234c-31-9-42 10-38 44h38v23H63V0H32v-167H5v-23h27c-7-52 17-82 69-68v24" id="ai"/><path d="M84 4C-5 8 30-112 23-190h32v120c0 31 7 50 39 49 72-2 45-101 50-169h31l1 190h-30c-1-10 1-25-2-33-11 22-28 36-60 37" id="aj"/><path d="M24 0v-261h32V0H24" id="ak"/><g id="p"><use transform="matrix(0.05,0,0,0.05,0,0)" xlink:href="#ab"/><use transform="matrix(0.05,0,0,0.05,10,0)" xlink:href="#ac"/><use transform="matrix(0.05,0,0,0.05,22.950000000000003,0)" xlink:href="#ai"/><use transform="matrix(0.05,0,0,0.05,27.950000000000003,0)" xlink:href="#aj"/><use transform="matrix(0.05,0,0,0.05,37.95,0)" xlink:href="#ak"/></g><path d="M126-127c33 6 58 20 58 59 0 88-139 92-164 29-3-8-5-16-6-25l32-3c6 27 21 44 54 44 32 0 52-15 52-46 0-38-36-46-79-43v-28c39 1 72-4 72-42 0-27-17-43-46-43-28 0-47 15-49 41l-32-3c6-42 35-63 81-64 48-1 79 21 79 65 0 36-21 52-52 59" id="al"/><g id="q"><use transform="matrix(0.05,0,0,0.05,0,0)" xlink:href="#ah"/><use transform="matrix(0.05,0,0,0.05,5.95,0)" xlink:href="#al"/><use transform="matrix(0.05,0,0,0.05,15.949999999999998,0)" xlink:href="#Z"/><use transform="matrix(0.05,0,0,0.05,20.95,0)" xlink:href="#al"/></g><g id="r"><use transform="matrix(0.05,0,0,0.05,0,0)" xlink:href="#Z"/><use transform="matrix(0.05,0,0,0.05,5,0)" xlink:href="#Z"/><use transform="matrix(0.05,0,0,0.05,10,0)" xlink:href="#Z"/></g><path d="M87 75C49 33 22-17 22-94c0-76 28-126 65-167h31c-38 41-64 92-64 168S80 34 118 75H87" id="am"/><path d="M185-189c-5-48-123-54-124 2 14 75 158 14 163 119 3 78-121 87-175 55-17-10-28-26-33-46l33-7c5 56 141 63 141-1 0-78-155-14-162-118-5-82 145-84 179-34 5 7 8 16 11 25" id="an"/><path d="M117-194c89-4 53 116 60 194h-32v-121c0-31-8-49-39-48C34-167 62-67 57 0H25l-1-190h30c1 10-1 24 2 32 11-22 29-35 61-36" id="ao"/><path d="M96-169c-40 0-48 33-48 73s9 75 48 75c24 0 41-14 43-38l32 2c-6 37-31 61-74 61-59 0-76-41-82-99-10-93 101-131 147-64 4 7 5 14 7 22l-32 3c-4-21-16-35-41-35" id="ap"/><path d="M68-38c1 34 0 65-14 84H32c9-13 17-26 17-46H33v-38h35" id="aq"/><g id="s"><use transform="matrix(0.07407407407407408,0,0,0.07407407407407408,0,0)" xlink:href="#am"/><use transform="matrix(0.07407407407407408,0,0,0.07407407407407408,8.814814814814817,0)" xlink:href="#an"/><use transform="matrix(0.07407407407407408,0,0,0.07407407407407408,26.592592592592595,0)" xlink:href="#T"/><use transform="matrix(0.07407407407407408,0,0,0.07407407407407408,41.40740740740741,0)" xlink:href="#ao"/><use transform="matrix(0.07407407407407408,0,0,0.07407407407407408,56.22222222222223,0)" xlink:href="#X"/><use transform="matrix(0.07407407407407408,0,0,0.07407407407407408,63.629629629629626,0)" xlink:href="#T"/><use transform="matrix(0.07407407407407408,0,0,0.07407407407407408,78.44444444444446,0)" xlink:href="#ao"/><use transform="matrix(0.07407407407407408,0,0,0.07407407407407408,93.25925925925927,0)" xlink:href="#ap"/><use transform="matrix(0.07407407407407408,0,0,0.07407407407407408,106.59259259259261,0)" xlink:href="#T"/><use transform="matrix(0.07407407407407408,0,0,0.07407407407407408,121.40740740740742,0)" xlink:href="#Y"/><use transform="matrix(0.07407407407407408,0,0,0.07407407407407408,136.22222222222223,0)" xlink:href="#aq"/></g><path d="M33-261c38 41 65 92 65 168S71 34 33 75H2C39 34 66-17 66-93S39-220 2-261h31" id="ar"/><use transform="matrix(0.07407407407407408,0,0,0.07407407407407408,0,0)" xlink:href="#ar" id="t"/><path d="M101-251c82-7 93 87 43 132L82-64C71-53 59-42 53-27h129V0H18c2-99 128-94 128-182 0-28-16-43-45-43s-46 15-49 41l-32-3c6-41 34-60 81-64" id="as"/><g id="u"><use transform="matrix(0.07407407407407408,0,0,0.07407407407407408,0,0)" xlink:href="#am"/><use transform="matrix(0.07407407407407408,0,0,0.07407407407407408,8.814814814814817,0)" xlink:href="#an"/><use transform="matrix(0.07407407407407408,0,0,0.07407407407407408,26.592592592592595,0)" xlink:href="#T"/><use transform="matrix(0.07407407407407408,0,0,0.07407407407407408,41.40740740740741,0)" xlink:href="#ao"/><use transform="matrix(0.07407407407407408,0,0,0.07407407407407408,56.22222222222223,0)" xlink:href="#X"/><use transform="matrix(0.07407407407407408,0,0,0.07407407407407408,63.629629629629626,0)" xlink:href="#T"/><use transform="matrix(0.07407407407407408,0,0,0.07407407407407408,78.44444444444446,0)" xlink:href="#ao"/><use transform="matrix(0.07407407407407408,0,0,0.07407407407407408,93.25925925925927,0)" xlink:href="#ap"/><use transform="matrix(0.07407407407407408,0,0,0.07407407407407408,106.59259259259261,0)" xlink:href="#T"/><use transform="matrix(0.07407407407407408,0,0,0.07407407407407408,121.40740740740742,0)" xlink:href="#as"/><use transform="matrix(0.07407407407407408,0,0,0.07407407407407408,136.22222222222223,0)" xlink:href="#aq"/></g><g id="v"><use transform="matrix(0.07407407407407408,0,0,0.07407407407407408,0,0)" xlink:href="#Z"/><use transform="matrix(0.07407407407407408,0,0,0.07407407407407408,7.407407407407408,0)" xlink:href="#Z"/><use transform="matrix(0.07407407407407408,0,0,0.07407407407407408,14.814814814814817,0)" xlink:href="#Z"/></g></defs></g></svg>