<svg xmlns="http://www.w3.org/2000/svg" xmlns:xlink="http://www.w3.org/1999/xlink" xmlns:lucid="lucid" width="1120" height="920"><g transform="translate(-220 -180)" lucid:page-tab-id="eip7HwGRCilH"><path d="M360 380c0 33.14-26.86 60-60 60s-60-26.86-60-60 26.86-60 60-60 60 26.86 60 60zM360 540c0 33.14-26.86 60-60 60s-60-26.86-60-60 26.86-60 60-60 60 26.86 60 60zM360 700c0 33.14-26.86 60-60 60s-60-26.86-60-60 26.86-60 60-60 60 26.86 60 60zM360 1020c0 33.14-26.86 60-60 60s-60-26.86-60-60 26.86-60 60-60 60 26.86 60 60z" stroke="#5e5e5e" stroke-width="3" fill="#fff"/><path d="M354 800c3.3 0 6 2.7 6 6v108c0 3.3-2.7 6-6 6H246c-3.3 0-6-2.7-6-6V806c0-3.3 2.7-6 6-6z" stroke="#000" stroke-opacity="0" stroke-width="3" fill="#fff" fill-opacity="0"/><use xlink:href="#a" transform="matrix(6.123233995736766e-17,1,-1,6.123233995736766e-17,355,805.0000000000001) translate(36.48148148148149 63.05555555555554)"/><path d="M240 206c0-3.3 2.7-6 6-6h148c3.3 0 6 2.7 6 6v68c0 3.3-2.7 6-6 6H246c-3.3 0-6-2.7-6-6z" stroke="#000" stroke-opacity="0" stroke-width="3" fill="#fff" fill-opacity="0"/><use xlink:href="#b" transform="matrix(1,0,0,1,245,205) translate(20.925925925925945 44.30555555555554)"/><path d="M267 513.2h66v53.6h-66z" fill="#fff" fill-opacity="0"/><path d="M287.04 531.33l2.96-4.54c1.7-2.64 4-5.53 7.3-5.53 2.1 0 3.2.8 3.2 2.17 0 1.25-.84 2.76-2.55 2.76-1.45 0-1.77-.6-2.9-.6-1.96 0-2.7 1.06-3.6 2.5l-3.62 5.6c1.97 4.07 3.48 12.94 6.44 12.94 1.05 0 2.63-.92 4-3.75l.93.65c-.8.98-3.75 7.3-7.56 7.3-2.7 0-3.94-2.7-4.8-5.07l-2.63-7.42-4.13 6.44c-2.1 3.22-4 6.04-7.68 6.04-2.38 0-3.43-1.64-3.43-3.1 0-1.04.85-2.42 2.5-2.42 1.7 0 1.44 1.32 3.08 1.32.8 0 2.5-.66 4.6-3.88l4.28-6.64-2.17-6.04c-1.12-3.16-2.83-5.85-6.44-5.85-.86 0-1.84.13-2.5.4l-.2-1.2 8.68-2.16c2.9 1.58 4.14 4.27 4.93 6.44M321.45 560.15h-12.82v-.7c3.44-.18 4.4-1.16 4.4-3.72v-20.86c0-1.58-.4-2.27-1.38-2.27-.47 0-1.26.23-2.1.55l-1.25.47v-.65l8.32-4.23.42.14v27.74c0 2 .93 2.83 4.4 2.83v.7"/><path d="M283.55 351.16h32.9v57.68h-32.9z" fill="#fff" fill-opacity="0"/><path d="M309.45 400.5H291.3v-.98c4.87-.26 6.25-1.64 6.25-5.26v-29.5c0-2.24-.6-3.23-1.97-3.23-.66 0-1.77.33-2.96.8l-1.77.65v-.92l11.76-5.98.6.2v39.23c0 2.84 1.32 4.02 6.25 4.02v.98"/><path d="M267 673.2h66v53.6h-66z" fill="#fff" fill-opacity="0"/><path d="M287.04 691.33l2.96-4.54c1.7-2.64 4-5.53 7.3-5.53 2.1 0 3.2.8 3.2 2.17 0 1.25-.84 2.76-2.55 2.76-1.45 0-1.77-.6-2.9-.6-1.96 0-2.7 1.06-3.6 2.5l-3.62 5.6c1.97 4.07 3.48 12.94 6.44 12.94 1.05 0 2.63-.92 4-3.75l.93.65c-.8.98-3.75 7.3-7.56 7.3-2.7 0-3.94-2.7-4.8-5.07l-2.63-7.42-4.13 6.44c-2.1 3.22-4 6.04-7.68 6.04-2.38 0-3.43-1.64-3.43-3.1 0-1.04.85-2.42 2.5-2.42 1.7 0 1.44 1.32 3.08 1.32.8 0 2.5-.66 4.6-3.88l4.28-6.64-2.17-6.04c-1.12-3.16-2.83-5.85-6.44-5.85-.86 0-1.84.13-2.5.4l-.2-1.2 8.68-2.16c2.9 1.58 4.14 4.27 4.93 6.44M325.17 713.78l-2.5 6.37h-18.18v-.56l8.26-8.8c4.37-4.6 6.04-8.12 6.04-12.07 0-4.23-2.5-6.55-6.46-6.55-3.34 0-4.97 1.48-6.83 6.04l-.96-.23c.97-5.45 3.95-9.26 9.66-9.26 5.25 0 8.6 3.58 8.6 8.18 0 3.67-1.8 7.15-5.95 11.52l-7.67 8.18h10.88c1.95 0 2.92-.5 4.46-3.12"/><path d="M267 993.2h67.5v53.6H267z" fill="#fff" fill-opacity="0"/><path d="M287.04 1011.33l2.96-4.54c1.7-2.64 4-5.53 7.3-5.53 2.1 0 3.2.8 3.2 2.17 0 1.25-.84 2.76-2.55 2.76-1.45 0-1.77-.6-2.9-.6-1.96 0-2.7 1.06-3.6 2.5l-3.62 5.6c1.97 4.07 3.48 12.94 6.44 12.94 1.05 0 2.63-.92 4-3.75l.93.65c-.8.98-3.75 7.3-7.56 7.3-2.7 0-3.94-2.7-4.8-5.07l-2.63-7.42-4.13 6.44c-2.1 3.22-4 6.04-7.68 6.04-2.38 0-3.43-1.64-3.43-3.1 0-1.04.85-2.42 2.5-2.42 1.7 0 1.44 1.32 3.08 1.32.8 0 2.5-.66 4.6-3.88l4.28-6.64-2.17-6.04c-1.12-3.16-2.83-5.85-6.44-5.85-.86 0-1.84.13-2.5.4l-.2-1.2 8.68-2.16c2.9 1.58 4.14 4.27 4.93 6.44M327.63 1009.1l-6.92 27.8c-.04.14-.1.4-.1.55 0 .28.25.42.7.42.94 0 2.24-1.62 2.9-2.6l.5.56c-1.4 2.1-3.85 4.88-6.04 4.88-1.48 0-1.86-1.06-1.86-1.9 0-.93.1-1.58.47-2.97h-.23c-3.44 4.32-6.23 4.88-7.95 4.88-3.4 0-4.1-3.43-4.1-5.9 0-4.78 4.8-15.14 11.94-15.14 2.65 0 3.72 1.2 3.77 2.32h.1l2.46-9.7c.05-.2.1-.38.1-.57 0-.6-.33-.92-1.54-.92-.42 0-.93.1-1.25.14l-.2-.7m-.36 14.13c0-2.18-.7-3.3-2.6-3.3-4.6 0-8.36 9.3-8.36 13.76 0 2.28 1.3 3.07 2.6 3.07 3.26 0 6.33-4.37 7.63-8.64.5-1.63.74-3.44.74-4.88"/><path d="M920 700c0 33.14-26.86 60-60 60s-60-26.86-60-60 26.86-60 60-60 60 26.86 60 60z" stroke="#5e5e5e" stroke-width="3" fill="#fff"/><path d="M843.7 673.2h32.6v53.6h-32.6z" fill="#fff" fill-opacity="0"/><path d="M861.43 690.08l1.84 15.44c4-5.45 6.3-9.4 7.75-12.1 1.32-2.42 1.84-3.74 1.84-4.92 0-1.38-3.4-2.04-3.4-4.53 0-1.45 1.17-2.63 3.08-2.63 2.1 0 3.74 1.5 3.74 4.07 0 5.14-10.64 20.9-13.4 24.4-4.8 6.04-9.07 12.48-13.54 12.48-2.43 0-3.68-2.04-3.68-3.62 0-1.97 1.77-2.7 2.63-2.7 2.8 0 2.68 2.05 3.73 2.05 1.12 0 4.86-4.07 6.57-6.7l-2.5-20.63c-.32-2.96-.9-6.9-4.6-6.9-.72 0-1.77.2-2.36.26l-.13-1.05 9.87-1.64c1.5 2.16 1.97 3.87 2.56 8.74"/><path d="M362.3 380.6l421.27 308.47" stroke="#5e5e5e" stroke-width="2" fill="none"/><path d="M362.92 379.8l-1.18 1.6-.3-.2.06-1.2-.04-1.27z" fill="#5e5e5e"/><path d="M795.9 698.1l-14.26-4.7 5.48-7.48z" stroke="#5e5e5e" stroke-width="2" fill="#5e5e5e"/><path d="M362.44 540.34l418.7 153.3" stroke="#5e5e5e" stroke-width="2" fill="none"/><path d="M362.8 539.4l-.68 1.9-.66-.25.04-1.05-.04-1.08z" fill="#5e5e5e"/><path d="M795.46 698.9l-15-.56 3.2-8.7z" stroke="#5e5e5e" stroke-width="2" fill="#5e5e5e"/><path d="M362.5 700H780" stroke="#5e5e5e" stroke-width="2" fill="none"/><path d="M362.53 701h-1.07l.04-1-.03-1h1.06z" fill="#5e5e5e"/><path d="M795.26 700L781 704.64v-9.28z" stroke="#5e5e5e" stroke-width="2" fill="#5e5e5e"/><path d="M362.3 1019.4l421.27-308.47" stroke="#5e5e5e" stroke-width="2" fill="none"/><path d="M362.92 1020.2l-1.47 1.08.05-1.28-.04-1.2.28-.2z" fill="#5e5e5e"/><path d="M795.9 701.9l-8.78 12.18-5.48-7.48z" stroke="#5e5e5e" stroke-width="2" fill="#5e5e5e"/><path d="M434.28 520l56 21.53L476 578.67l-56-21.53z" fill="#fff" fill-opacity="0"/><path d="M456.48 534.47l-8.7 11.77c-.7.94-1.36 1.88-1.78 2.98-.68 1.77-.2 3.1 1.62 3.8 4.92 1.9 9.48-2.36 12.44-5.82.78-.96 1.54-1.97 1.97-3.1 1.3-3.38-1.53-4.05-.87-6.05.54-1.67 2.1-1.38 3.2-.96 1.9.72 1.25 3.13.7 4.6-2.57 6.64-11.52 15.64-19.3 12.65-3.15-1.2-4.58-3.22-3.32-6.5.74-1.9 2.04-3.66 3.24-5.3-3.38 3.36-9.5 8.12-14.6 6.16-2.55-.97-2.96-2.9-2.03-5.32.58-1.5 1.62-2.72 2.53-4l5.24-7.23c.3-.36.56-.78.74-1.24.42-1.08-1.35-1.65-2.08-1.93l.27-.7c2.57.53 5.18.8 7.83.72l.13.2-9.06 12.57c-.36.54-1.3 1.85-1.78 3.13-.45 1.18-.55 2.24.45 2.63 2.67.97 7.9-2.93 9.63-4.2 3.83-2.76 6.38-5.86 9.72-10.33l3.83 1.47M469.76 570.98l-8.9-3.4.2-.5c2.43.8 3.36.37 4.04-1.4l5.56-14.46c.42-1.1.32-1.7-.36-1.95-.32-.12-.93-.17-1.6-.17h-1l.2-.46 6.88-.72.25.2-7.4 19.24c-.52 1.38-.1 2.2 2.3 3.14l-.17.48"/><path d="M463.62 400.1l48.26 35.64-23.63 32-48.27-35.63z" fill="#fff" fill-opacity="0"/><path d="M481.17 419.95l-11.52 9.03c-.9.73-1.8 1.46-2.5 2.4-1.13 1.53-1.02 2.95.55 4.1 4.24 3.14 9.77.25 13.54-2.3 1-.72 2-1.5 2.73-2.48 2.15-2.9-.4-4.3.77-6.05.96-1.47 2.4-.78 3.34-.08 1.65 1.2.36 3.36-.56 4.62-4.24 5.72-15.26 12.02-21.97 7.06-2.7-2-3.55-4.3-1.46-7.14 1.2-1.65 2.92-3 4.52-4.24-4.15 2.33-11.32 5.3-15.7 2.05-2.2-1.62-2.1-3.6-.55-5.68.95-1.3 2.28-2.2 3.5-3.18l6.97-5.58c.38-.28.75-.6 1.04-1 .7-.95-.86-1.97-1.48-2.44l.43-.6c2.34 1.2 4.8 2.16 7.36 2.78l.06.23-12.08 9.7c-.5.43-1.73 1.46-2.55 2.56-.75 1.02-1.12 2.02-.26 2.65 2.3 1.65 8.37-.73 10.4-1.5 4.4-1.63 7.7-3.94 12.1-7.36l3.3 2.43M493.3 451.2c-3.5 4.77-8.8 8.26-13.3 4.9-4.76-3.5-2.47-9.78.9-14.33 3.62-4.92 8.87-8.03 13.34-4.73 3.64 2.7 3.27 8.47-.93 14.16m-2.76-1.83c4.27-5.77 5.44-9.92 3-11.73-2.3-1.7-5.97.65-10.13 6.3-4.15 5.62-5.27 9.7-2.88 11.45 2.36 1.74 5.97-.53 10.02-6.03"/><path d="M420 660h60v39.8h-60z" fill="#fff" fill-opacity="0"/><path d="M445.92 665.54l-3.9 14.1c-.3 1.13-.6 2.25-.6 3.42 0 1.9.93 2.98 2.88 2.98 5.28 0 8-5.6 9.52-9.9.4-1.18.73-2.4.73-3.62 0-3.6-2.88-3.22-2.97-5.32-.1-1.75 1.46-2.05 2.63-2.05 2.06 0 2.3 2.5 2.3 4.05 0 7.13-5.12 18.75-13.46 18.75-3.37 0-5.42-1.37-5.42-4.9 0-2.03.58-4.13 1.12-6.1-1.95 4.36-5.95 11-11.42 11-2.73 0-3.8-1.66-3.8-4.25 0-1.6.53-3.12.92-4.64l2.3-8.64c.14-.43.24-.92.24-1.4 0-1.18-1.86-1.08-2.64-1.08v-.74c2.6-.44 5.13-1.12 7.57-2.14l.2.14-3.95 15c-.15.62-.54 2.18-.54 3.55 0 1.27.3 2.3 1.38 2.3 2.83-.06 6.3-5.57 7.47-7.38 2.58-3.95 3.85-7.76 5.37-13.13h4.1M474.17 690.13l-1.86 4.73h-13.48v-.42l6.14-6.52c3.24-3.42 4.5-6.04 4.5-8.97 0-3.14-1.88-4.87-4.8-4.87-2.5 0-3.7 1.1-5.08 4.5l-.73-.18c.73-4.04 2.94-6.87 7.18-6.87 3.9 0 6.38 2.66 6.38 6.07 0 2.73-1.33 5.32-4.4 8.56l-5.7 6.07h8.08c1.45 0 2.17-.38 3.3-2.3"/><path d="M420.08 916.7l48.73-36.88 24 31.73-48.72 36.87z" fill="#fff" fill-opacity="0"/><path d="M444.1 905.48l5.4 13.6c.43 1.07.87 2.14 1.58 3.08 1.15 1.52 2.54 1.8 4.1.63 4.2-3.2 3-9.3 1.6-13.65-.4-1.17-.85-2.35-1.6-3.32-2.17-2.88-4.23-.83-5.57-2.45-1.13-1.34-.06-2.5.87-3.22 1.64-1.24 3.33.6 4.27 1.85 4.3 5.7 7.23 18.04.57 23.08-2.68 2.03-5.13 2.18-7.26-.63-1.23-1.63-2.03-3.66-2.78-5.54 1.06 4.65 1.88 12.36-2.48 15.66-2.18 1.65-4.04.97-5.6-1.1-.97-1.27-1.46-2.8-2.06-4.25l-3.38-8.26c-.15-.44-.37-.9-.66-1.28-.7-.93-2.13.27-2.75.74l-.44-.6c1.8-1.9 3.4-3.97 4.73-6.26h.24l5.9 14.33c.25.6.88 2.08 1.7 3.17.77 1 1.63 1.65 2.48 1 2.23-1.75 1.67-8.24 1.5-10.38-.3-4.72-1.6-8.52-3.63-13.7l3.27-2.48M471.86 892.32l8.35 19.55c.05.1.14.3.2.38.13.16.33.14.6-.07.56-.4.6-1.96.55-2.83l.55.1c.1 1.86-.1 4.62-1.4 5.6-.87.66-1.57.2-1.95-.3-.4-.55-.65-.98-1.05-1.97l-.14.1c-.1 4.1-1.5 5.7-2.52 6.46-2 1.52-3.96-.2-5.07-1.67-2.14-2.83-3.95-11.1.3-14.32 1.56-1.18 2.73-.95 3.26-.3l.05-.05-2.9-6.85c-.05-.14-.1-.27-.18-.38-.27-.35-.6-.4-1.33.14-.25.2-.5.48-.68.66l-.43-.33m6.1 8.53c-.97-1.3-1.88-1.64-3-.8-2.74 2.07-.8 9.26 1.2 11.9 1.02 1.35 2.14 1.23 2.9.65 1.94-1.45 1.8-5.4.65-8.52-.42-1.2-1.1-2.37-1.74-3.22"/><path d="M760 206c0-3.3 2.7-6 6-6h148c3.3 0 6 2.7 6 6v68c0 3.3-2.7 6-6 6H766c-3.3 0-6-2.7-6-6z" stroke="#000" stroke-opacity="0" stroke-width="3" fill="#fff" fill-opacity="0"/><use xlink:href="#c" transform="matrix(1,0,0,1,765,205) translate(2.469135802469168 44.30555555555554)"/><path d="M760 460h180v39.32H760z" fill="#fff" fill-opacity="0"/><path d="M786.67 463.25l-2.08 8.67h-.64c.04-.32.04-.63.04-.95 0-3.3-1.88-6.27-6.27-6.27-1.7 0-4.75 1.02-4.75 3.8 0 2.7 2.4 4.36 4.6 6.24 2.3 1.92 4.62 4.2 4.62 7.6 0 3.9-3.4 7.5-9.57 7.5-3.7 0-4.9-1.5-7.88-1.5-.98 0-1.53.44-2.16 1.5h-.64l2.35-9.26h.64c0 .4.04.83.04 1.22.12 3.1 1.57 6.55 6.7 6.55 5 0 6.13-2.8 6.13-5.33 0-1.38-.7-2.67-1.8-3.77-1.17-1.22-3.06-2.63-4.47-4-1.1-1.1-2.86-3.22-2.86-5.14 0-3.17 2.55-6.85 8.74-6.85 3.27 0 5.5 1.45 7.2 1.45.78 0 1.33-.86 1.44-1.45h.63M800.9 485.1l.48.5c-2 2.36-4.43 4.28-7.77 4.28-3.8 0-5.36-3.06-5.36-6.08 0-5.5 4.75-11.65 10.3-11.65 1.98 0 3.82 1.06 3.82 2.98 0 1.5-.63 2.75-2.12 2.75-1.02 0-1.5-.83-1.5-1.5 0-.93 1.15-1.4 1.15-2.27 0-.46-.4-.8-1.35-.8-4.66 0-6.9 7-6.9 10.15 0 3.4 1.92 4.27 3.7 4.27 2.38 0 4.2-1.3 5.56-2.63M820.17 478.2c0 5.44-4.32 11.68-10.32 11.68-3.96 0-5.3-3.53-5.3-6.4 0-5 4.05-11.33 9.85-11.33 3.14 0 5.77 1.8 5.77 6.04m-3.18-1.22c0-1.5-.56-3.65-2.64-3.65-3.2 0-6.63 5.84-6.63 11.18 0 1.3.12 4.2 2.32 4.2 4.15 0 6.94-8.74 6.94-11.72M827.8 478.98l.2.03c.36-.7.83-1.48 1.27-2.18 1.33-2.12 3.2-4.67 5.37-4.67 1.14 0 1.72.82 1.72 1.88 0 1.5-.94 3.22-2.54 3.22-1.53 0-1.14-1.5-1.85-1.5-2.4 0-5.8 10.05-6 10.72l-.82 2.98h-3.02l3.6-14.28c.12-.43.16-.7.16-.9 0-.5-.44-.75-1.3-.75-.28 0-.83.08-1.06.12l-.08-.6 6.16-.9M851.23 485.05l.55.5c-2.75 3.4-5.4 4.33-7.85 4.33-3.84 0-5.37-3.3-5.37-6.12 0-.9.04-1.45.24-2.35.98-4.35 5.3-9.25 10.27-9.25 1.65 0 4 .55 4 2.98 0 4.98-6.55 6.9-11.2 7.14v1.1c0 2.5 2.03 4.2 4.42 4.2 1.63 0 3.52-.7 4.93-2.52m-9.37-3.88h.35c4.1 0 7.77-2.7 7.77-6.16 0-.97-.74-1.67-1.72-1.67-2.9 0-5.26 4.5-6.4 7.84M866.37 495.76l-.47.63c-6.2-3.54-9.57-10.17-9.57-16.84 0-7.25 3.4-12.9 9.7-16.63l.34.63c-5.45 4.67-6.67 8.32-6.67 15.9 0 7.28 1.18 11.7 6.67 16.3M879.5 478.15l1.77-2.7c1.02-1.57 2.4-3.3 4.36-3.3 1.25 0 1.92.47 1.92 1.3 0 .74-.5 1.64-1.53 1.64-.86 0-1.06-.36-1.73-.36-1.18 0-1.6.63-2.16 1.5l-2.16 3.32c1.18 2.44 2.08 7.73 3.84 7.73.63 0 1.57-.56 2.4-2.25l.54.4c-.47.6-2.23 4.35-4.5 4.35-1.6 0-2.36-1.6-2.87-3.02l-1.58-4.43-2.47 3.84c-1.25 1.9-2.4 3.6-4.6 3.6-1.4 0-2.03-.98-2.03-1.84 0-.63.5-1.45 1.5-1.45s.86.8 1.84.8c.47 0 1.5-.4 2.74-2.32l2.55-3.97-1.3-3.6c-.66-1.88-1.68-3.48-3.84-3.48-.5 0-1.1.07-1.48.23l-.1-.7 5.16-1.3c1.73.94 2.47 2.55 2.94 3.84M890.26 463.56l.47-.63c6 3.6 9.57 10.16 9.57 16.83 0 7.26-3.46 12.83-9.7 16.63l-.34-.64c5.56-4.6 6.66-8.27 6.66-15.88 0-7.34-.98-11.85-6.66-16.32M938.07 476.9h-23.1v-2.6h23.1v2.6m0 7.84h-23.1v-2.6h23.1v2.6"/><path d="M760 519.45h560v38.22H760z" fill="#fff" fill-opacity="0"/><path d="M783.13 527.12l-3.5 12.58c-.25 1-.5 2-.5 3.05 0 1.7.82 2.66 2.56 2.66 4.7 0 7.13-5 8.48-8.83.35-1.05.65-2.14.65-3.22 0-3.23-2.57-2.88-2.65-4.75-.1-1.57 1.3-1.83 2.35-1.83 1.83 0 2.05 2.22 2.05 3.6 0 6.37-4.58 16.74-12.02 16.74-3 0-4.84-1.2-4.84-4.35 0-1.83.52-3.7 1-5.44-1.74 3.88-5.3 9.8-10.2 9.8-2.43 0-3.38-1.47-3.38-3.78 0-1.44.47-2.8.82-4.14l2.05-7.7c.14-.4.23-.83.23-1.27 0-1.04-1.66-.95-2.35-.95v-.65c2.3-.4 4.57-1 6.75-1.92l.17.13-3.53 13.38c-.13.57-.48 1.96-.48 3.18 0 1.13.26 2.05 1.2 2.05 2.54-.03 5.63-4.96 6.68-6.57 2.3-3.52 3.44-6.92 4.8-11.7h3.65M808.4 543.1c0 5.3-1.94 10.6-6.96 10.6-5.26 0-6.95-5.72-6.95-10.77 0-5.45 2.1-10.47 7.07-10.47 4.03 0 6.83 4.34 6.83 10.65m-2.95.17c0-6.4-1.36-10-4.07-10-2.55 0-3.94 3.62-3.94 9.87 0 6.25 1.36 9.76 4 9.76 2.62 0 4-3.54 4-9.63M850.9 537.13H839.5v11.37h-2.87v-11.37h-11.37v-2.87h11.37V522.9h2.87v11.36h11.37v2.87M885.86 527.12l-3.48 12.58c-.26 1-.52 2-.52 3.05 0 1.7.82 2.66 2.57 2.66 4.7 0 7.14-5 8.5-8.83.34-1.05.64-2.14.64-3.22 0-3.23-2.57-2.88-2.66-4.75-.07-1.57 1.32-1.83 2.37-1.83 1.83 0 2.04 2.22 2.04 3.6 0 6.37-4.56 16.74-12 16.74-3 0-4.84-1.2-4.84-4.35 0-1.83.52-3.7 1-5.44-1.74 3.88-5.3 9.8-10.2 9.8-2.43 0-3.4-1.47-3.4-3.78 0-1.44.5-2.8.84-4.14l2.05-7.7c.13-.4.2-.83.2-1.27 0-1.04-1.64-.95-2.34-.95v-.65c2.32-.4 4.6-1 6.76-1.92l.18.13L870 540.2c-.12.57-.47 1.96-.47 3.18 0 1.13.26 2.05 1.22 2.05 2.53-.03 5.62-4.96 6.66-6.57 2.32-3.52 3.45-6.92 4.8-11.7h3.66M908.6 553.27h-8.48v-.46c2.27-.1 2.92-.76 2.92-2.45v-13.83c0-1.04-.28-1.5-.92-1.5-.3 0-.83.15-1.4.37l-.82.3v-.44l5.5-2.8.3.1v18.37c0 1.33.6 1.88 2.9 1.88v.47M929.54 534.17l1.96-3c1.14-1.74 2.66-3.66 4.84-3.66 1.4 0 2.13.53 2.13 1.45 0 .82-.56 1.83-1.7 1.83-.95 0-1.17-.4-1.9-.4-1.32 0-1.8.7-2.4 1.66l-2.4 3.7c1.3 2.7 2.3 8.58 4.26 8.58.7 0 1.75-.6 2.66-2.48l.6.43c-.52.66-2.48 4.84-5 4.84-1.8 0-2.62-1.78-3.2-3.35l-1.73-4.92-2.74 4.27c-1.4 2.14-2.66 4-5.1 4-1.57 0-2.26-1.08-2.26-2.04 0-.7.56-1.6 1.65-1.6 1.13 0 .96.86 2.05.86.52 0 1.65-.43 3.05-2.57l2.83-4.4-1.44-4c-.73-2.1-1.86-3.88-4.26-3.88-.56 0-1.22.1-1.65.26l-.14-.78 5.75-1.44c1.92 1.06 2.75 2.84 3.27 4.28M952.35 553.27h-8.5v-.46c2.28-.1 2.92-.76 2.92-2.45v-13.83c0-1.04-.27-1.5-.92-1.5-.3 0-.83.15-1.4.37l-.82.3v-.44l5.52-2.8.27.1v18.37c0 1.33.62 1.88 2.93 1.88v.47M997.4 537.13h-11.37v11.37h-2.87v-11.37H971.8v-2.87h11.36V522.9h2.87v11.36h11.37v2.87M1032.37 527.12l-3.5 12.58c-.25 1-.5 2-.5 3.05 0 1.7.82 2.66 2.56 2.66 4.7 0 7.14-5 8.5-8.83.34-1.05.65-2.14.65-3.22 0-3.23-2.57-2.88-2.66-4.75-.1-1.57 1.3-1.83 2.35-1.83 1.83 0 2.05 2.22 2.05 3.6 0 6.37-4.57 16.74-12.02 16.74-3 0-4.84-1.2-4.84-4.35 0-1.83.53-3.7 1-5.44-1.74 3.88-5.3 9.8-10.2 9.8-2.42 0-3.38-1.47-3.38-3.78 0-1.44.48-2.8.83-4.14l2.05-7.7c.13-.4.22-.83.22-1.27 0-1.04-1.66-.95-2.35-.95v-.65c2.3-.4 4.57-1 6.75-1.92l.17.13-3.52 13.38c-.14.57-.48 1.96-.48 3.18 0 1.13.26 2.05 1.22 2.05 2.52-.03 5.6-4.96 6.66-6.57 2.3-3.52 3.44-6.92 4.8-11.7h3.65M1057.58 549.06l-1.66 4.2h-12.04v-.36l5.48-5.8c2.9-3.06 4-5.4 4-8.02 0-2.8-1.66-4.34-4.27-4.34-2.23 0-3.3.98-4.54 4l-.65-.15c.66-3.62 2.63-6.14 6.42-6.14 3.48 0 5.7 2.37 5.7 5.42 0 2.43-1.2 4.74-3.95 7.64l-5.08 5.4h7.2c1.3 0 1.94-.32 2.95-2.05M1076.05 534.17l1.96-3c1.14-1.74 2.67-3.66 4.84-3.66 1.4 0 2.14.53 2.14 1.45 0 .82-.57 1.83-1.7 1.83-.96 0-1.18-.4-1.92-.4-1.3 0-1.78.7-2.4 1.66l-2.4 3.7c1.32 2.7 2.32 8.58 4.28 8.58.7 0 1.74-.6 2.66-2.48l.6.43c-.52.66-2.48 4.84-5 4.84-1.8 0-2.62-1.78-3.18-3.35l-1.74-4.92-2.75 4.27c-1.4 2.14-2.65 4-5.1 4-1.56 0-2.26-1.08-2.26-2.04 0-.7.57-1.6 1.66-1.6 1.13 0 .96.86 2.04.86.53 0 1.66-.43 3.05-2.57l2.83-4.4-1.43-4c-.74-2.1-1.88-3.88-4.27-3.88-.57 0-1.22.1-1.66.26l-.14-.78 5.75-1.44c1.93 1.06 2.76 2.84 3.28 4.28M1101.32 549.06l-1.67 4.2h-12.04v-.36l5.5-5.8c2.9-3.06 4-5.4 4-8.02 0-2.8-1.66-4.34-4.28-4.34-2.22 0-3.3.98-4.53 4l-.65-.15c.64-3.62 2.6-6.14 6.4-6.14 3.48 0 5.7 2.37 5.7 5.42 0 2.43-1.2 4.74-3.95 7.64l-5.08 5.4h7.2c1.3 0 1.95-.32 2.96-2.05M1134.2 537.13h-11.38v11.37h-2.87v-11.37h-11.37v-2.87h11.37V522.9h2.87v11.36h11.37v2.87M1144.25 544.84c0 1.27-1.13 2.36-2.44 2.36-1.34 0-2.38-1.05-2.38-2.4 0-1.35 1.08-2.44 2.43-2.44 1.27 0 2.4 1.18 2.4 2.48M1162.4 544.84c0 1.27-1.12 2.36-2.43 2.36-1.35 0-2.4-1.05-2.4-2.4 0-1.35 1.1-2.44 2.45-2.44 1.26 0 2.4 1.18 2.4 2.48M1180.57 544.84c0 1.27-1.13 2.36-2.44 2.36-1.35 0-2.4-1.05-2.4-2.4 0-1.35 1.1-2.44 2.45-2.44 1.26 0 2.4 1.18 2.4 2.48M1218.55 537.13h-11.37v11.37h-2.87v-11.37h-11.36v-2.87h11.37V522.9h2.88v11.36h11.37v2.87M1243.85 527.12l-3.48 12.58c-.26 1-.53 2-.53 3.05 0 1.7.83 2.66 2.57 2.66 4.72 0 7.16-5 8.5-8.83.35-1.05.66-2.14.66-3.22 0-3.23-2.57-2.88-2.66-4.75-.08-1.57 1.3-1.83 2.35-1.83 1.83 0 2.05 2.22 2.05 3.6 0 6.37-4.57 16.74-12.02 16.74-3 0-4.83-1.2-4.83-4.35 0-1.83.52-3.7 1-5.44-1.74 3.88-5.3 9.8-10.2 9.8-2.43 0-3.4-1.47-3.4-3.78 0-1.44.5-2.8.84-4.14l2.04-7.7c.13-.4.2-.83.2-1.27 0-1.04-1.64-.95-2.34-.95v-.65c2.3-.4 4.57-1 6.75-1.92l.18.13-3.53 13.38c-.13.57-.48 1.96-.48 3.18 0 1.13.26 2.05 1.22 2.05 2.52-.03 5.62-4.96 6.66-6.57 2.3-3.52 3.44-6.92 4.8-11.7h3.65M1270.7 532.7l-4.6 18.42c-.02.1-.05.28-.05.37 0 .17.15.27.46.27.63 0 1.5-1.08 1.92-1.73l.34.37c-.92 1.4-2.56 3.24-4 3.24-1 0-1.24-.7-1.24-1.26 0-.6.07-1.05.3-1.97h-.14c-2.28 2.87-4.13 3.24-5.27 3.24-2.23 0-2.7-2.27-2.7-3.9 0-3.18 3.18-10.04 7.92-10.04 1.75 0 2.46.8 2.5 1.54h.05l1.63-6.44c.04-.12.07-.25.07-.37 0-.4-.22-.62-1.02-.62-.28 0-.62.08-.83.1l-.12-.45m-.25 9.36c0-1.44-.46-2.18-1.73-2.18-3.04 0-5.54 6.16-5.54 9.1 0 1.52.86 2.05 1.73 2.05 2.16 0 4.2-2.9 5.06-5.73.34-1.08.5-2.28.5-3.23M1288.53 534.17l1.96-3c1.13-1.74 2.65-3.66 4.83-3.66 1.4 0 2.13.53 2.13 1.45 0 .82-.56 1.83-1.7 1.83-.95 0-1.17-.4-1.9-.4-1.32 0-1.8.7-2.4 1.66l-2.4 3.7c1.3 2.7 2.3 8.58 4.27 8.58.7 0 1.74-.6 2.65-2.48l.6.43c-.5.66-2.47 4.84-5 4.84-1.78 0-2.6-1.78-3.18-3.35l-1.74-4.92-2.74 4.27c-1.4 2.14-2.66 4-5.1 4-1.57 0-2.26-1.08-2.26-2.04 0-.7.56-1.6 1.65-1.6 1.15 0 .97.86 2.06.86.52 0 1.65-.43 3.05-2.57l2.84-4.4-1.44-4c-.74-2.1-1.87-3.88-4.27-3.88-.56 0-1.22.1-1.65.26l-.13-.78 5.75-1.44c1.9 1.06 2.74 2.84 3.26 4.28M1315.43 532.7l-4.58 18.42c-.04.1-.07.28-.07.37 0 .17.16.27.47.27.6 0 1.47-1.08 1.9-1.73l.34.37c-.93 1.4-2.56 3.24-4 3.24-1 0-1.24-.7-1.24-1.26 0-.6.06-1.05.3-1.97h-.15c-2.27 2.87-4.1 3.24-5.25 3.24-2.25 0-2.7-2.27-2.7-3.9 0-3.18 3.16-10.04 7.9-10.04 1.76 0 2.46.8 2.5 1.54h.06l1.64-6.44c.03-.12.06-.25.06-.37 0-.4-.22-.62-1.02-.62-.27 0-.6.08-.83.1l-.12-.45m-.25 9.36c0-1.44-.46-2.18-1.72-2.18-3.05 0-5.54 6.16-5.54 9.1 0 1.52.86 2.05 1.72 2.05 2.16 0 4.2-2.9 5.05-5.73.33-1.08.48-2.28.48-3.23"/><g fill="none"><path d="M766 820c-3.3 0-6-2.7-6-6v-68c0-3.3 2.7-6 6-6h188c3.3 0 6 2.7 6 6v68c0 3.3-2.7 6-6 6z"/><path d="M960 820c0-5.52-4.48-10-10-10h-80c-5.52 0-10-4.48-10-10 0 5.52-4.48 10-10 10h-80c-5.52 0-10 4.48-10 10" stroke="#834187" stroke-width="3"/></g><path d="M760 846c0-3.3 2.7-6 6-6h188c3.3 0 6 2.7 6 6v28c0 3.3-2.7 6-6 6H766c-3.3 0-6-2.7-6-6z" stroke="#000" stroke-opacity="0" stroke-width="3" fill="#fff" fill-opacity="0"/><g><use xlink:href="#d" transform="matrix(1,0,0,1,765,845) translate(29.444444444444457 19.65277777777778)"/><use xlink:href="#e" transform="matrix(1,0,0,1,765,845) translate(48.580246913580254 19.65277777777778)"/><use xlink:href="#f" transform="matrix(1,0,0,1,765,845) translate(73.27160493827162 19.65277777777778)"/><use xlink:href="#g" transform="matrix(1,0,0,1,765,845) translate(148.20987654320987 19.65277777777778)"/></g><path d="M760 886c0-3.3 2.7-6 6-6h188c3.3 0 6 2.7 6 6v28c0 3.3-2.7 6-6 6H766c-3.3 0-6-2.7-6-6z" stroke="#000" stroke-opacity="0" stroke-width="3" fill="#fff" fill-opacity="0"/><g><use xlink:href="#h" transform="matrix(1,0,0,1,765,885) translate(29.444444444444457 19.65277777777778)"/><use xlink:href="#e" transform="matrix(1,0,0,1,765,885) translate(48.580246913580254 19.65277777777778)"/><use xlink:href="#f" transform="matrix(1,0,0,1,765,885) translate(73.27160493827162 19.65277777777778)"/><use xlink:href="#i" transform="matrix(1,0,0,1,765,885) translate(148.20987654320987 19.65277777777778)"/></g><defs><path fill="#333" d="M24 0v-54h51V0H24" id="j"/><g id="a"><use transform="matrix(0.12345679012345674,0,0,0.12345679012345674,0,0)" xlink:href="#j"/><use transform="matrix(0.12345679012345674,0,0,0.12345679012345674,12.345679012345673,0)" xlink:href="#j"/><use transform="matrix(0.12345679012345674,0,0,0.12345679012345674,24.691358024691347,0)" xlink:href="#j"/></g><path fill="#333" d="M24 0v-248h52V0H24" id="k"/><path fill="#333" d="M135-194c87-1 58 113 63 194h-50c-7-57 23-157-34-157-59 0-34 97-39 157H25l-1-190h47c2 12-1 28 3 38 12-26 28-41 61-42" id="l"/><path fill="#333" d="M135-194c53 0 70 44 70 98 0 56-19 98-73 100-31 1-45-17-59-34 3 33 2 69 2 105H25l-1-265h48c2 10 0 23 3 31 11-24 29-35 60-35zM114-30c33 0 39-31 40-66 0-38-9-64-40-64-56 0-55 130 0 130" id="m"/><path fill="#333" d="M85 4C-2 5 27-109 22-190h50c7 57-23 150 33 157 60-5 35-97 40-157h50l1 190h-47c-2-12 1-28-3-38-12 25-28 42-61 42" id="n"/><path fill="#333" d="M115-3C79 11 28 4 28-45v-112H4v-33h27l15-45h31v45h36v33H77v99c-1 23 16 31 38 25v30" id="o"/><g id="b"><use transform="matrix(0.12345679012345674,0,0,0.12345679012345674,0,0)" xlink:href="#k"/><use transform="matrix(0.12345679012345674,0,0,0.12345679012345674,12.345679012345673,0)" xlink:href="#l"/><use transform="matrix(0.12345679012345674,0,0,0.12345679012345674,39.3827160493827,0)" xlink:href="#m"/><use transform="matrix(0.12345679012345674,0,0,0.12345679012345674,66.41975308641973,0)" xlink:href="#n"/><use transform="matrix(0.12345679012345674,0,0,0.12345679012345674,93.45679012345676,0)" xlink:href="#o"/></g><path fill="#333" d="M140-251c80 0 125 45 125 126S219 4 139 4C58 4 15-44 15-125s44-126 125-126zm-1 214c52 0 73-35 73-88 0-50-21-86-72-86-52 0-73 35-73 86s22 88 72 88" id="p"/><g id="c"><use transform="matrix(0.12345679012345674,0,0,0.12345679012345674,0,0)" xlink:href="#p"/><use transform="matrix(0.12345679012345674,0,0,0.12345679012345674,34.567901234567884,0)" xlink:href="#n"/><use transform="matrix(0.12345679012345674,0,0,0.12345679012345674,61.60493827160491,0)" xlink:href="#o"/><use transform="matrix(0.12345679012345674,0,0,0.12345679012345674,76.29629629629626,0)" xlink:href="#m"/><use transform="matrix(0.12345679012345674,0,0,0.12345679012345674,103.33333333333329,0)" xlink:href="#n"/><use transform="matrix(0.12345679012345674,0,0,0.12345679012345674,130.37037037037032,0)" xlink:href="#o"/></g><path fill="#333" d="M15-22v-40l146-57-146-57v-40l181 69v56" id="q"/><use transform="matrix(0.06172839506172839,0,0,0.06172839506172839,0,0)" xlink:href="#q" id="d"/><path fill="#333" d="M101-251c68 0 84 54 84 127C185-50 166 4 99 4S15-52 14-124c-1-75 17-127 87-127zm-1 216c37-5 36-46 36-89s4-89-36-89c-39 0-36 45-36 89 0 43-3 85 36 89" id="r"/><path fill="#333" d="M76-54c-1 42 2 86-19 110H24C36 42 46 24 48 0H25v-54h51" id="s"/><g id="e"><use transform="matrix(0.06172839506172839,0,0,0.06172839506172839,0,0)" xlink:href="#r"/><use transform="matrix(0.06172839506172839,0,0,0.06172839506172839,12.345679012345679,0)" xlink:href="#s"/></g><path fill="#333" d="M110-194c64 0 96 36 96 99 0 64-35 99-97 99-61 0-95-36-95-99 0-62 34-99 96-99zm-1 164c35 0 45-28 45-65 0-40-10-65-43-65-34 0-45 26-45 65 0 36 10 65 43 65" id="t"/><g id="f"><use transform="matrix(0.06172839506172839,0,0,0.06172839506172839,0,0)" xlink:href="#t"/><use transform="matrix(0.06172839506172839,0,0,0.06172839506172839,13.518518518518517,0)" xlink:href="#n"/><use transform="matrix(0.06172839506172839,0,0,0.06172839506172839,27.037037037037035,0)" xlink:href="#o"/><use transform="matrix(0.06172839506172839,0,0,0.06172839506172839,34.382716049382715,0)" xlink:href="#m"/><use transform="matrix(0.06172839506172839,0,0,0.06172839506172839,47.901234567901234,0)" xlink:href="#n"/><use transform="matrix(0.06172839506172839,0,0,0.06172839506172839,61.41975308641975,0)" xlink:href="#o"/></g><path fill="#333" d="M23 0v-37h61v-169l-59 37v-38l62-41h46v211h57V0H23" id="u"/><use transform="matrix(0.06172839506172839,0,0,0.06172839506172839,0,0)" xlink:href="#u" id="g"/><path fill="#333" d="M15-91v-56l181-69v40L49-119l147 57v40" id="v"/><use transform="matrix(0.06172839506172839,0,0,0.06172839506172839,0,0)" xlink:href="#v" id="h"/><use transform="matrix(0.06172839506172839,0,0,0.06172839506172839,0,0)" xlink:href="#r" id="i"/></defs></g></svg>