<svg xmlns="http://www.w3.org/2000/svg" xmlns:xlink="http://www.w3.org/1999/xlink" xmlns:lucid="lucid" width="680" height="600"><g transform="translate(-140 -140)" lucid:page-tab-id="e7y94v9Aec6_"><path d="M320 200c0 22.1-35.82 40-80 40s-80-17.9-80-40 35.82-40 80-40 80 17.9 80 40z" stroke="#5e5e5e" stroke-width="3" fill="#834187"/><use xlink:href="#a" transform="matrix(1,0,0,1,165,165) translate(42.48648148148148 41.02083333333333)"/><path d="M320 360c0 22.1-35.82 40-80 40s-80-17.9-80-40 35.82-40 80-40 80 17.9 80 40z" stroke="#5e5e5e" stroke-width="3" fill="#0c7cba"/><use xlink:href="#b" transform="matrix(1,0,0,1,165,325) translate(51.30129629629629 41.02083333333333)"/><path d="M320 520c0 22.1-35.82 40-80 40s-80-17.9-80-40 35.82-40 80-40 80 17.9 80 40z" stroke="#5e5e5e" stroke-width="3" fill="#0c7cba"/><use xlink:href="#b" transform="matrix(1,0,0,1,165,485) translate(51.30129629629629 41.02083333333333)"/><path d="M320 680c0 22.1-35.82 40-80 40s-80-17.9-80-40 35.82-40 80-40 80 17.9 80 40z" stroke="#5e5e5e" stroke-width="3" fill="#7ab648"/><use xlink:href="#c" transform="matrix(1,0,0,1,165,645) translate(35.190185185185186 41.02083333333333)"/><path d="M800 440c0 33.14-53.73 60-120 60-66.27 0-120-26.86-120-60s53.73-60 120-60c66.27 0 120 26.86 120 60z" stroke="#5e5e5e" stroke-width="3" fill="#ef8d22"/><use xlink:href="#d" transform="matrix(1,0,0,1,565,385) translate(80.76425925925928 59.14583333333333)"/><path d="M323.27 201.77l217.8 217.8" stroke="#5e5e5e" stroke-width="5" fill="none"/><path d="M325.08 200.05l-3.53 3.53-.3-.3.08-.55.13-1.36.04-1.35v-.22l-.05-1.35-.14-1.37-.16-.97z" fill="#5e5e5e"/><path d="M552.9 431.4l-13.35-6.8 6.55-6.55z" stroke="#5e5e5e" stroke-width="5" fill="#5e5e5e"/><path d="M323.87 360.8l211.08 71.25" stroke="#5e5e5e" stroke-width="5" fill="none"/><path d="M324.73 358.45l-1.6 4.74-1.8-.6.13-1.23.04-1.35v-.22l-.05-1.35-.12-1.15z" fill="#5e5e5e"/><path d="M550.83 437.4l-15-.16 2.97-8.78z" stroke="#5e5e5e" stroke-width="5" fill="#5e5e5e"/><path d="M323.87 519.2l211.08-71.25" stroke="#5e5e5e" stroke-width="5" fill="none"/><path d="M324.73 521.55l-3.4 1.14.13-1.33.04-1.35v-.22l-.05-1.35-.1-1.03 1.78-.6z" fill="#5e5e5e"/><path d="M550.83 442.6l-12.03 8.94-2.96-8.78z" stroke="#5e5e5e" stroke-width="5" fill="#5e5e5e"/><path d="M323.27 678.23l217.8-217.8" stroke="#5e5e5e" stroke-width="5" fill="none"/><path d="M325.08 679.95l-3.93 3.94.18-1.17.13-1.36.04-1.35v-.22l-.05-1.35-.14-1.37-.05-.36.3-.3z" fill="#5e5e5e"/><path d="M552.9 448.6l-6.8 13.35-6.55-6.55z" stroke="#5e5e5e" stroke-width="5" fill="#5e5e5e"/><defs><path fill="#fff" d="M175 0L67-191c6 58 2 128 3 191H24v-248h59L193-55c-6-58-2-129-3-193h46V0h-61" id="e"/><path fill="#fff" d="M110-194c64 0 96 36 96 99 0 64-35 99-97 99-61 0-95-36-95-99 0-62 34-99 96-99zm-1 164c35 0 45-28 45-65 0-40-10-65-43-65-34 0-45 26-45 65 0 36 10 65 43 65" id="f"/><path fill="#fff" d="M137-138c1-29-70-34-71-4 15 46 118 7 119 86 1 83-164 76-172 9l43-7c4 19 20 25 44 25 33 8 57-30 24-41C81-84 22-81 20-136c-2-80 154-74 161-7" id="g"/><path fill="#fff" d="M185-48c-13 30-37 53-82 52C43 2 14-33 14-96s30-98 90-98c62 0 83 45 84 108H66c0 31 8 55 39 56 18 0 30-7 34-22zm-45-69c5-46-57-63-70-21-2 6-4 13-4 21h74" id="h"/><g id="a"><use transform="matrix(0.07407407407407407,0,0,0.07407407407407407,0,0)" xlink:href="#e"/><use transform="matrix(0.07407407407407407,0,0,0.07407407407407407,19.185185185185183,0)" xlink:href="#f"/><use transform="matrix(0.07407407407407407,0,0,0.07407407407407407,35.407407407407405,0)" xlink:href="#g"/><use transform="matrix(0.07407407407407407,0,0,0.07407407407407407,50.222222222222214,0)" xlink:href="#h"/></g><path fill="#fff" d="M24 0v-248h195v40H76v63h132v40H76v65h150V0H24" id="i"/><path fill="#fff" d="M123 10C108 53 80 86 19 72V37c35 8 53-11 59-39L3-190h52l48 148c12-52 28-100 44-148h51" id="j"/><g id="b"><use transform="matrix(0.07407407407407407,0,0,0.07407407407407407,0,0)" xlink:href="#i"/><use transform="matrix(0.07407407407407407,0,0,0.07407407407407407,17.77777777777778,0)" xlink:href="#j"/><use transform="matrix(0.07407407407407407,0,0,0.07407407407407407,32.592592592592595,0)" xlink:href="#h"/></g><path fill="#fff" d="M230 0l2-204L168 0h-37L68-204 70 0H24v-248h70l56 185 57-185h69V0h-46" id="k"/><path fill="#fff" d="M85 4C-2 5 27-109 22-190h50c7 57-23 150 33 157 60-5 35-97 40-157h50l1 190h-47c-2-12 1-28-3-38-12 25-28 42-61 42" id="l"/><path fill="#fff" d="M115-3C79 11 28 4 28-45v-112H4v-33h27l15-45h31v45h36v33H77v99c-1 23 16 31 38 25v30" id="m"/><path fill="#fff" d="M114-157C55-157 80-60 75 0H25v-261h50l-1 109c12-26 28-41 61-42 86-1 58 113 63 194h-50c-7-57 23-157-34-157" id="n"/><g id="c"><use transform="matrix(0.07407407407407407,0,0,0.07407407407407407,0,0)" xlink:href="#k"/><use transform="matrix(0.07407407407407407,0,0,0.07407407407407407,22.148148148148145,0)" xlink:href="#f"/><use transform="matrix(0.07407407407407407,0,0,0.07407407407407407,38.37037037037037,0)" xlink:href="#l"/><use transform="matrix(0.07407407407407407,0,0,0.07407407407407407,54.59259259259259,0)" xlink:href="#m"/><use transform="matrix(0.07407407407407407,0,0,0.07407407407407407,63.407407407407405,0)" xlink:href="#n"/></g><path fill="#fff" d="M76-208v77h127v40H76V0H24v-248h183v40H76" id="o"/><path fill="#fff" d="M133-34C117-15 103 5 69 4 32 3 11-16 11-54c-1-60 55-63 116-61 1-26-3-47-28-47-18 1-26 9-28 27l-52-2c7-38 36-58 82-57s74 22 75 68l1 82c-1 14 12 18 25 15v27c-30 8-71 5-69-32zm-48 3c29 0 43-24 42-57-32 0-66-3-65 30 0 17 8 27 23 27" id="p"/><path fill="#fff" d="M190-63c-7 42-38 67-86 67-59 0-84-38-90-98-12-110 154-137 174-36l-49 2c-2-19-15-32-35-32-30 0-35 28-38 64-6 74 65 87 74 30" id="q"/><path fill="#fff" d="M80-75H40l-6-173h52zM34 0v-47h51V0H34" id="r"/><g id="d"><use transform="matrix(0.07407407407407407,0,0,0.07407407407407407,0,0)" xlink:href="#o"/><use transform="matrix(0.07407407407407407,0,0,0.07407407407407407,16.22222222222222,0)" xlink:href="#p"/><use transform="matrix(0.07407407407407407,0,0,0.07407407407407407,31.037037037037035,0)" xlink:href="#q"/><use transform="matrix(0.07407407407407407,0,0,0.07407407407407407,45.85185185185185,0)" xlink:href="#h"/><use transform="matrix(0.07407407407407407,0,0,0.07407407407407407,60.66666666666666,0)" xlink:href="#r"/></g></defs></g></svg>