<svg xmlns="http://www.w3.org/2000/svg" xmlns:xlink="http://www.w3.org/1999/xlink" xmlns:lucid="lucid" width="1235.87" height="991"><g transform="translate(-189 -100)" lucid:page-tab-id="EQo7x~K6TtpY"><path d="M240 1079V258.5M240 1078.97v1.03" stroke="#000" stroke-width="2" fill="none"/><path d="M240 243.24l4.64 14.26h-9.28z" stroke="#000" stroke-width="2"/><path d="M201 1040h820.5M201.03 1040H200" stroke="#000" stroke-width="2" fill="none"/><path d="M1036.76 1040l-14.26 4.64v-9.28z" stroke="#000" stroke-width="2"/><path d="M560.52 1017.55l158.96-755.1M560.53 1017.5l-.53 2.5M719.47 262.5l.53-2.5" stroke="#000" stroke-width="5" fill="none"/><path d="M557.16 535.72h-12.88v-12.88c0-1.56-1.28-2.84-2.84-2.84h-2.88c-1.56 0-2.84 1.28-2.84 2.84v12.88h-12.88c-1.56 0-2.84 1.28-2.84 2.84v2.88c0 1.56 1.28 2.84 2.84 2.84h12.88v12.88c0 1.56 1.28 2.84 2.84 2.84h2.88c1.56 0 2.84-1.28 2.84-2.84v-12.88h12.88c1.56 0 2.84-1.28 2.84-2.84v-2.88c0-1.56-1.28-2.84-2.84-2.84z" stroke="#000" stroke-width="2" fill="#0c7cba"/><path d="M837.16 447.14h-34.32c-1.56 0-2.84 1.28-2.84 2.86v2.86c0 1.58 1.28 2.85 2.84 2.85h34.32c1.56 0 2.84-1.26 2.84-2.84V450c0-1.58-1.28-2.86-2.84-2.86z" stroke="#000" stroke-width="2" fill="#ef8d22"/><path d="M397.16 455.72h-12.88v-12.88c0-1.56-1.28-2.84-2.84-2.84h-2.88c-1.56 0-2.84 1.28-2.84 2.84v12.88h-12.88c-1.56 0-2.84 1.28-2.84 2.84v2.88c0 1.56 1.28 2.84 2.84 2.84h12.88v12.88c0 1.56 1.28 2.84 2.84 2.84h2.88c1.56 0 2.84-1.28 2.84-2.84v-12.88h12.88c1.56 0 2.84-1.28 2.84-2.84v-2.88c0-1.56-1.28-2.84-2.84-2.84zM477.16 455.72h-12.88v-12.88c0-1.56-1.28-2.84-2.84-2.84h-2.88c-1.56 0-2.84 1.28-2.84 2.84v12.88h-12.88c-1.56 0-2.84 1.28-2.84 2.84v2.88c0 1.56 1.28 2.84 2.84 2.84h12.88v12.88c0 1.56 1.28 2.84 2.84 2.84h2.88c1.56 0 2.84-1.28 2.84-2.84v-12.88h12.88c1.56 0 2.84-1.28 2.84-2.84v-2.88c0-1.56-1.28-2.84-2.84-2.84z" stroke="#000" stroke-width="2" fill="#0c7cba"/><path d="M800 240h160v80H800z" stroke="#000" stroke-width="2" fill="#ef8d22"/><use xlink:href="#a" transform="matrix(1,0,0,1,805,245) translate(11.820987654320987 39.65277777777778)"/><use xlink:href="#b" transform="matrix(1,0,0,1,805,245) translate(106.69753086419753 39.65277777777778)"/><use xlink:href="#c" transform="matrix(1,0,0,1,805,245) translate(125.83333333333333 39.65277777777778)"/><path d="M320 240h160v80H320z" stroke="#000" stroke-width="2" fill="#0c7cba"/><use xlink:href="#a" transform="matrix(1,0,0,1,325,245) translate(11.820987654320987 39.65277777777778)"/><use xlink:href="#d" transform="matrix(1,0,0,1,325,245) translate(106.69753086419753 39.65277777777778)"/><use xlink:href="#c" transform="matrix(1,0,0,1,325,245) translate(125.83333333333333 39.65277777777778)"/><path d="M477.16 575.72h-12.88v-12.88c0-1.56-1.28-2.84-2.84-2.84h-2.88c-1.56 0-2.84 1.28-2.84 2.84v12.88h-12.88c-1.56 0-2.84 1.28-2.84 2.84v2.88c0 1.56 1.28 2.84 2.84 2.84h12.88v12.88c0 1.56 1.28 2.84 2.84 2.84h2.88c1.56 0 2.84-1.28 2.84-2.84v-12.88h12.88c1.56 0 2.84-1.28 2.84-2.84v-2.88c0-1.56-1.28-2.84-2.84-2.84zM377.16 595.72h-12.88v-12.88c0-1.56-1.28-2.84-2.84-2.84h-2.88c-1.56 0-2.84 1.28-2.84 2.84v12.88h-12.88c-1.56 0-2.84 1.28-2.84 2.84v2.88c0 1.56 1.28 2.84 2.84 2.84h12.88v12.88c0 1.56 1.28 2.84 2.84 2.84h2.88c1.56 0 2.84-1.28 2.84-2.84v-12.88h12.88c1.56 0 2.84-1.28 2.84-2.84v-2.88c0-1.56-1.28-2.84-2.84-2.84zM317.16 575.72h-12.88v-12.88c0-1.56-1.28-2.84-2.84-2.84h-2.88c-1.56 0-2.84 1.28-2.84 2.84v12.88h-12.88c-1.56 0-2.84 1.28-2.84 2.84v2.88c0 1.56 1.28 2.84 2.84 2.84h12.88v12.88c0 1.56 1.28 2.84 2.84 2.84h2.88c1.56 0 2.84-1.28 2.84-2.84v-12.88h12.88c1.56 0 2.84-1.28 2.84-2.84v-2.88c0-1.56-1.28-2.84-2.84-2.84zM457.16 935.72h-12.88v-12.88c0-1.56-1.28-2.84-2.84-2.84h-2.88c-1.56 0-2.84 1.28-2.84 2.84v12.88h-12.88c-1.56 0-2.84 1.28-2.84 2.84v2.88c0 1.56 1.28 2.84 2.84 2.84h12.88v12.88c0 1.56 1.28 2.84 2.84 2.84h2.88c1.56 0 2.84-1.28 2.84-2.84v-12.88h12.88c1.56 0 2.84-1.28 2.84-2.84v-2.88c0-1.56-1.28-2.84-2.84-2.84zM517.16 775.72h-12.88v-12.88c0-1.56-1.28-2.84-2.84-2.84h-2.88c-1.56 0-2.84 1.28-2.84 2.84v12.88h-12.88c-1.56 0-2.84 1.28-2.84 2.84v2.88c0 1.56 1.28 2.84 2.84 2.84h12.88v12.88c0 1.56 1.28 2.84 2.84 2.84h2.88c1.56 0 2.84-1.28 2.84-2.84v-12.88h12.88c1.56 0 2.84-1.28 2.84-2.84v-2.88c0-1.56-1.28-2.84-2.84-2.84zM397.16 895.72h-12.88v-12.88c0-1.56-1.28-2.84-2.84-2.84h-2.88c-1.56 0-2.84 1.28-2.84 2.84v12.88h-12.88c-1.56 0-2.84 1.28-2.84 2.84v2.88c0 1.56 1.28 2.84 2.84 2.84h12.88v12.88c0 1.56 1.28 2.84 2.84 2.84h2.88c1.56 0 2.84-1.28 2.84-2.84v-12.88h12.88c1.56 0 2.84-1.28 2.84-2.84v-2.88c0-1.56-1.28-2.84-2.84-2.84zM317.16 875.72h-12.88v-12.88c0-1.56-1.28-2.84-2.84-2.84h-2.88c-1.56 0-2.84 1.28-2.84 2.84v12.88h-12.88c-1.56 0-2.84 1.28-2.84 2.84v2.88c0 1.56 1.28 2.84 2.84 2.84h12.88v12.88c0 1.56 1.28 2.84 2.84 2.84h2.88c1.56 0 2.84-1.28 2.84-2.84v-12.88h12.88c1.56 0 2.84-1.28 2.84-2.84v-2.88c0-1.56-1.28-2.84-2.84-2.84z" stroke="#000" stroke-width="2" fill="#0c7cba"/><path d="M997.16 500h-34.32c-1.56 0-2.84 1.28-2.84 2.85v2.87c0 1.57 1.28 2.85 2.84 2.85h34.32c1.56 0 2.84-1.28 2.84-2.85v-2.87c0-1.57-1.28-2.85-2.84-2.85zM957.16 560h-34.32c-1.56 0-2.84 1.28-2.84 2.85v2.87c0 1.57 1.28 2.85 2.84 2.85h34.32c1.56 0 2.84-1.28 2.84-2.85v-2.87c0-1.57-1.28-2.85-2.84-2.85zM757.16 620h-34.32c-1.56 0-2.84 1.28-2.84 2.85v2.87c0 1.57 1.28 2.85 2.84 2.85h34.32c1.56 0 2.84-1.28 2.84-2.85v-2.87c0-1.57-1.28-2.85-2.84-2.85zM917.16 700h-34.32c-1.56 0-2.84 1.28-2.84 2.85v2.87c0 1.57 1.28 2.85 2.84 2.85h34.32c1.56 0 2.84-1.28 2.84-2.85v-2.87c0-1.57-1.28-2.85-2.84-2.85zM837.16 820h-34.32c-1.56 0-2.84 1.28-2.84 2.85v2.87c0 1.57 1.28 2.85 2.84 2.85h34.32c1.56 0 2.84-1.28 2.84-2.85v-2.87c0-1.57-1.28-2.85-2.84-2.85zM877.16 880h-34.32c-1.56 0-2.84 1.28-2.84 2.85v2.87c0 1.57 1.28 2.85 2.84 2.85h34.32c1.56 0 2.84-1.28 2.84-2.85v-2.87c0-1.57-1.28-2.85-2.84-2.85zM757.16 880h-34.32c-1.56 0-2.84 1.28-2.84 2.85v2.87c0 1.57 1.28 2.85 2.84 2.85h34.32c1.56 0 2.84-1.28 2.84-2.85v-2.87c0-1.57-1.28-2.85-2.84-2.85z" stroke="#000" stroke-width="2" fill="#ef8d22"/><path d="M240 120h1164.87v65.87H240z" fill="#fff" fill-opacity="0"/><path d="M284.7 125.44l-3.5 14.52h-1.05c.07-.52.07-1.05.07-1.57 0-5.53-3.16-10.53-10.52-10.53-2.82 0-7.95 1.7-7.95 6.38 0 4.53 4 7.3 7.7 10.45 3.87 3.22 7.75 7.03 7.75 12.75 0 6.5-5.72 12.55-16.04 12.55-6.18 0-8.2-2.5-13.2-2.5-1.65 0-2.57.72-3.62 2.5h-1.05l3.93-15.5h1.05c0 .65.07 1.37.07 2.03.2 5.2 2.62 10.97 11.23 10.97 8.35 0 10.26-4.67 10.26-8.94 0-2.3-1.2-4.47-3.03-6.3-1.96-2.04-5.1-4.4-7.48-6.7-1.84-1.85-4.8-5.4-4.8-8.62 0-5.32 4.28-11.5 14.66-11.5 5.45 0 9.2 2.43 12.02 2.43 1.32 0 2.24-1.44 2.44-2.43h1.05M308.54 162.05l.8.85c-3.36 3.94-7.43 7.16-13.02 7.16-6.37 0-9-5.12-9-10.18 0-9.2 7.95-19.52 17.28-19.52 3.3 0 6.37 1.77 6.37 5 0 2.5-1.05 4.6-3.54 4.6-1.7 0-2.5-1.4-2.5-2.5 0-1.58 1.9-2.37 1.9-3.8 0-.8-.65-1.4-2.23-1.4-7.82 0-11.57 11.77-11.57 17.03 0 5.7 3.22 7.15 6.18 7.15 4.02 0 7.04-2.17 9.34-4.4M340.8 150.48c0 9.13-7.22 19.58-17.27 19.58-6.64 0-8.88-5.9-8.88-10.7 0-8.42 6.77-19 16.5-19 5.26 0 9.66 3.02 9.66 10.12m-5.3-2.04c0-2.5-.93-6.1-4.42-6.1-5.38 0-11.1 9.78-11.1 18.72 0 2.17.2 7.03 3.88 7.03 6.96 0 11.63-14.66 11.63-19.66M353.62 151.8l.33.06c.6-1.18 1.38-2.5 2.1-3.68 2.24-3.55 5.4-7.82 9-7.82 1.92 0 2.9 1.38 2.9 3.15 0 2.5-1.58 5.4-4.27 5.4-2.56 0-1.9-2.5-3.1-2.5-4 0-9.72 16.83-10.04 17.95l-1.38 5h-5.06l6.04-23.93c.2-.72.26-1.18.26-1.5 0-.87-.72-1.26-2.16-1.26-.46 0-1.38.13-1.78.2l-.13-1 10.32-1.5M392.86 161.98l.92.85c-4.6 5.66-9.07 7.23-13.15 7.23-6.44 0-9-5.52-9-10.25 0-1.5.07-2.42.4-3.93 1.64-7.3 8.87-15.5 17.2-15.5 2.77 0 6.72.9 6.72 4.98 0 8.35-10.98 11.57-18.8 11.96v1.85c0 4.2 3.42 7.04 7.43 7.04 2.76 0 5.9-1.2 8.28-4.22m-15.7-6.5h.58c6.84 0 13.02-4.54 13.02-10.32 0-1.65-1.25-2.83-2.9-2.83-4.86 0-8.8 7.56-10.7 13.14M418.22 179.92l-.78 1.05c-10.4-5.9-16.04-17.02-16.04-28.2 0-12.15 5.72-21.6 16.23-27.85l.6 1.05c-9.14 7.82-11.18 13.93-11.18 26.6 0 12.24 1.97 19.66 11.17 27.35M440.24 150.4l2.96-4.52c1.7-2.63 4-5.52 7.3-5.52 2.1 0 3.2.8 3.2 2.17 0 1.25-.84 2.76-2.55 2.76-1.45 0-1.78-.6-2.9-.6-1.96 0-2.7 1.05-3.6 2.5l-3.62 5.58c1.97 4.07 3.48 12.95 6.44 12.95 1.05 0 2.63-.92 4-3.75l.93.66c-.8.98-3.75 7.3-7.56 7.3-2.7 0-3.94-2.7-4.8-5.07l-2.63-7.42-4.13 6.44c-2.1 3.2-4 6.03-7.68 6.03-2.38 0-3.43-1.64-3.43-3.1 0-1.04.85-2.42 2.5-2.42 1.7 0 1.44 1.33 3.08 1.33.8 0 2.5-.66 4.6-3.88l4.28-6.64-2.17-6.03c-1.12-3.16-2.83-5.85-6.44-5.85-.86 0-1.84.13-2.5.4l-.2-1.2 8.68-2.16c2.9 1.58 4.14 4.27 4.93 6.44M458.25 125.97l.8-1.05c10.04 6.04 16.02 17.02 16.02 28.2 0 12.15-5.78 21.48-16.23 27.85l-.6-1.05c9.34-7.7 11.18-13.87 11.18-26.6 0-12.3-1.64-19.86-11.17-27.35M538.36 148.3h-38.7v-4.33h38.7v4.34m0 13.15h-38.7v-4.33h38.7v4.33M594.74 139.77l-5.26 19c-.4 1.5-.78 3-.78 4.6 0 2.55 1.24 4 3.87 4 7.1 0 10.78-7.56 12.82-13.34.5-1.58.97-3.22.97-4.86 0-4.87-3.87-4.34-4-7.17-.14-2.36 1.97-2.76 3.54-2.76 2.77 0 3.1 3.35 3.1 5.46 0 9.6-6.9 25.23-18.14 25.23-4.53 0-7.3-1.84-7.3-6.57 0-2.76.8-5.6 1.52-8.2-2.63 5.83-8.02 14.77-15.38 14.77-3.68 0-5.12-2.23-5.12-5.72 0-2.15.72-4.2 1.25-6.23l3.08-11.63c.2-.6.34-1.25.34-1.9 0-1.58-2.5-1.45-3.55-1.45v-1c3.48-.6 6.9-1.5 10.18-2.9l.26.2-5.32 20.18c-.2.86-.72 2.96-.72 4.8 0 1.7.4 3.1 1.84 3.1 3.8-.08 8.47-7.5 10.05-9.93 3.48-5.33 5.18-10.45 7.22-17.68h5.52M632.88 163.9c0 8-2.92 16-10.5 16-7.94 0-10.5-8.65-10.5-16.27 0-8.23 3.2-15.8 10.7-15.8 6.08 0 10.3 6.55 10.3 16.07m-4.46.24c0-9.67-2.04-15.1-6.13-15.1-3.87 0-5.96 5.48-5.96 14.9 0 9.44 2.05 14.74 6.04 14.74 3.95 0 6.04-5.34 6.04-14.54M697 154.88h-17.16v17.15h-4.33v-17.15h-17.14v-4.33h17.15V133.4h4.34v17.15H697v4.33M749.77 139.77l-5.26 19c-.38 1.5-.78 3-.78 4.6 0 2.55 1.25 4 3.88 4 7.1 0 10.78-7.56 12.8-13.34.54-1.58 1-3.22 1-4.86 0-4.87-3.88-4.34-4-7.17-.14-2.36 1.96-2.76 3.54-2.76 2.76 0 3.1 3.35 3.1 5.46 0 9.6-6.9 25.23-18.15 25.23-4.54 0-7.3-1.84-7.3-6.57 0-2.76.78-5.6 1.5-8.2-2.62 5.83-8 14.77-15.37 14.77-3.68 0-5.13-2.23-5.13-5.72 0-2.15.73-4.2 1.25-6.23l3.1-11.63c.2-.6.32-1.25.32-1.9 0-1.58-2.5-1.45-3.55-1.45v-1c3.48-.6 6.9-1.5 10.2-2.9l.25.2-5.32 20.18c-.2.86-.73 2.96-.73 4.8 0 1.7.4 3.1 1.84 3.1 3.82-.08 8.48-7.5 10.06-9.93 3.48-5.33 5.2-10.45 7.23-17.68h5.52M784.1 179.24h-12.82v-.7c3.44-.2 4.4-1.16 4.4-3.72v-20.86c0-1.58-.4-2.28-1.38-2.28-.47 0-1.26.24-2.1.56l-1.25.47v-.64l8.32-4.23.42.14v27.74c0 2 .92 2.84 4.4 2.84v.7M815.68 150.4l2.96-4.52c1.7-2.63 4-5.52 7.3-5.52 2.1 0 3.2.8 3.2 2.17 0 1.25-.84 2.76-2.55 2.76-1.45 0-1.78-.6-2.9-.6-1.97 0-2.7 1.05-3.6 2.5l-3.63 5.58c1.97 4.07 3.48 12.95 6.44 12.95 1.06 0 2.64-.92 4.02-3.75l.92.66c-.8.98-3.75 7.3-7.56 7.3-2.7 0-3.94-2.7-4.8-5.07l-2.62-7.42-4.14 6.44c-2.1 3.2-4 6.03-7.7 6.03-2.36 0-3.4-1.64-3.4-3.1 0-1.04.84-2.42 2.5-2.42 1.7 0 1.43 1.33 3.08 1.33.78 0 2.5-.66 4.6-3.88l4.27-6.64-2.17-6.03c-1.12-3.16-2.83-5.85-6.44-5.85-.86 0-1.84.13-2.5.4l-.2-1.2 8.68-2.16c2.9 1.58 4.14 4.27 4.93 6.44M850.1 179.24h-12.83v-.7c3.44-.2 4.4-1.16 4.4-3.72v-20.86c0-1.58-.4-2.28-1.38-2.28-.48 0-1.27.24-2.1.56l-1.26.47v-.64l8.32-4.23.42.14v27.74c0 2 .93 2.84 4.4 2.84v.7M918.07 154.88h-17.15v17.15h-4.34v-17.15h-17.15v-4.33h17.15V133.4h4.34v17.15h17.15v4.33M970.84 139.77l-5.26 19c-.4 1.5-.8 3-.8 4.6 0 2.55 1.26 4 3.9 4 7.1 0 10.77-7.56 12.8-13.34.53-1.58 1-3.22 1-4.86 0-4.87-3.88-4.34-4.02-7.17-.13-2.36 1.98-2.76 3.55-2.76 2.77 0 3.1 3.35 3.1 5.46 0 9.6-6.9 25.23-18.14 25.23-4.53 0-7.3-1.84-7.3-6.57 0-2.76.8-5.6 1.52-8.2-2.63 5.83-8.02 14.77-15.38 14.77-3.68 0-5.12-2.23-5.12-5.72 0-2.15.72-4.2 1.24-6.23l3.1-11.63c.2-.6.32-1.25.32-1.9 0-1.58-2.5-1.45-3.55-1.45v-1c3.48-.6 6.9-1.5 10.18-2.9l.26.2-5.32 20.18c-.2.86-.72 2.96-.72 4.8 0 1.7.4 3.1 1.84 3.1 3.8-.08 8.47-7.5 10.05-9.93 3.47-5.33 5.18-10.45 7.22-17.68h5.52M1008.9 172.87l-2.52 6.37H988.2v-.56l8.28-8.78c4.37-4.6 6.04-8.13 6.04-12.08 0-4.23-2.5-6.55-6.45-6.55-3.35 0-4.97 1.48-6.83 6.04l-.98-.23c.98-5.43 3.95-9.24 9.66-9.24 5.26 0 8.6 3.58 8.6 8.18 0 3.68-1.8 7.16-5.95 11.53l-7.66 8.18h10.88c1.95 0 2.93-.5 4.46-3.1M1036.75 150.4l2.96-4.52c1.72-2.63 4.02-5.52 7.3-5.52 2.1 0 3.23.8 3.23 2.17 0 1.25-.86 2.76-2.57 2.76-1.44 0-1.77-.6-2.9-.6-1.96 0-2.68 1.05-3.6 2.5l-3.62 5.58c1.97 4.07 3.5 12.95 6.44 12.95 1.06 0 2.63-.92 4-3.75l.93.66c-.78.98-3.73 7.3-7.55 7.3-2.7 0-3.94-2.7-4.8-5.07l-2.62-7.42-4.14 6.44c-2.1 3.2-4.02 6.03-7.7 6.03-2.37 0-3.42-1.64-3.42-3.1 0-1.04.86-2.42 2.5-2.42 1.7 0 1.45 1.33 3.1 1.33.78 0 2.5-.66 4.6-3.88l4.26-6.64-2.17-6.03c-1.12-3.16-2.82-5.85-6.44-5.85-.85 0-1.84.13-2.5.4l-.2-1.2 8.68-2.16c2.9 1.58 4.15 4.27 4.94 6.44M1074.88 172.87l-2.5 6.37h-18.17v-.56l8.28-8.78c4.36-4.6 6.04-8.13 6.04-12.08 0-4.23-2.5-6.55-6.46-6.55-3.35 0-4.97 1.48-6.83 6.04l-.98-.23c.98-5.43 3.95-9.24 9.67-9.24 5.25 0 8.6 3.58 8.6 8.18 0 3.68-1.82 7.16-5.96 11.53l-7.66 8.18h10.87c1.95 0 2.93-.5 4.46-3.1M1124.5 154.88h-17.17v17.15H1103v-17.15h-17.15v-4.33H1103V133.4h4.33v17.15h17.16v4.33M1139.67 166.5c0 1.92-1.7 3.56-3.68 3.56-2.05 0-3.63-1.57-3.63-3.6 0-2.05 1.65-3.7 3.68-3.7 1.9 0 3.62 1.78 3.62 3.75M1167.07 166.5c0 1.92-1.7 3.56-3.68 3.56-2.05 0-3.62-1.57-3.62-3.6 0-2.05 1.64-3.7 3.68-3.7 1.9 0 3.6 1.78 3.6 3.75M1194.48 166.5c0 1.92-1.7 3.56-3.68 3.56-2.04 0-3.62-1.57-3.62-3.6 0-2.05 1.64-3.7 3.68-3.7 1.9 0 3.62 1.78 3.62 3.75M1251.78 154.88h-17.15v17.15h-4.34v-17.15h-17.16v-4.33h17.15V133.4h4.33v17.15h17.15v4.33M1289.96 139.77l-5.25 19c-.4 1.5-.78 3-.78 4.6 0 2.55 1.25 4 3.87 4 7.1 0 10.77-7.56 12.8-13.34.53-1.58 1-3.22 1-4.86 0-4.87-3.88-4.34-4-7.17-.15-2.36 1.96-2.76 3.53-2.76 2.76 0 3.1 3.35 3.1 5.46 0 9.6-6.9 25.23-18.14 25.23-4.55 0-7.3-1.84-7.3-6.57 0-2.76.78-5.6 1.5-8.2-2.63 5.83-8 14.77-15.38 14.77-3.68 0-5.12-2.23-5.12-5.72 0-2.15.72-4.2 1.25-6.23l3.1-11.63c.18-.6.3-1.25.3-1.9 0-1.58-2.48-1.45-3.53-1.45v-1c3.48-.6 6.9-1.5 10.18-2.9l.26.2-5.32 20.18c-.2.86-.72 2.96-.72 4.8 0 1.7.4 3.1 1.84 3.1 3.8-.08 8.48-7.5 10.05-9.93 3.5-5.33 5.2-10.45 7.24-17.68h5.52M1330.47 148.2l-6.92 27.78c-.04.14-.1.42-.1.56 0 .28.24.42.7.42.94 0 2.24-1.63 2.9-2.6l.5.56c-1.4 2.1-3.86 4.87-6.04 4.87-1.48 0-1.85-1.07-1.85-1.9 0-.94.1-1.6.46-2.98h-.22c-3.44 4.32-6.22 4.87-7.94 4.87-3.4 0-4.1-3.44-4.1-5.9 0-4.8 4.8-15.15 11.95-15.15 2.64 0 3.7 1.2 3.75 2.32h.1l2.46-9.7c.05-.2.1-.38.1-.57 0-.6-.32-.93-1.53-.93-.42 0-.93.1-1.26.14l-.17-.68m-.37 14.12c0-2.18-.7-3.3-2.6-3.3-4.6 0-8.37 9.3-8.37 13.75 0 2.27 1.3 3.06 2.6 3.06 3.24 0 6.3-4.37 7.6-8.64.52-1.63.76-3.44.76-4.88M1357.4 150.4l2.95-4.52c1.7-2.63 4-5.52 7.3-5.52 2.1 0 3.2.8 3.2 2.17 0 1.25-.84 2.76-2.55 2.76-1.45 0-1.78-.6-2.9-.6-1.97 0-2.7 1.05-3.6 2.5l-3.62 5.58c1.97 4.07 3.48 12.95 6.44 12.95 1.05 0 2.63-.92 4-3.75l.93.66c-.8.98-3.75 7.3-7.56 7.3-2.7 0-3.95-2.7-4.8-5.07l-2.64-7.42-4.14 6.44c-2.1 3.2-4 6.03-7.7 6.03-2.35 0-3.4-1.64-3.4-3.1 0-1.04.85-2.42 2.5-2.42 1.7 0 1.44 1.33 3.08 1.33.8 0 2.5-.66 4.6-3.88l4.27-6.64-2.16-6.03c-1.1-3.16-2.82-5.85-6.43-5.85-.86 0-1.84.13-2.5.4l-.2-1.2 8.68-2.16c2.9 1.58 4.14 4.27 4.92 6.44M1397.98 148.2l-6.92 27.78c-.05.14-.1.42-.1.56 0 .28.23.42.7.42.93 0 2.23-1.63 2.88-2.6l.5.56c-1.38 2.1-3.85 4.87-6.03 4.87-1.48 0-1.85-1.07-1.85-1.9 0-.94.1-1.6.47-2.98h-.24c-3.43 4.32-6.22 4.87-7.94 4.87-3.4 0-4.1-3.44-4.1-5.9 0-4.8 4.8-15.15 11.95-15.15 2.64 0 3.7 1.2 3.76 2.32h.1l2.45-9.7c.06-.2.1-.38.1-.57 0-.6-.32-.93-1.53-.93-.42 0-.93.1-1.25.14l-.2-.68m-.36 14.12c0-2.18-.7-3.3-2.6-3.3-4.6 0-8.37 9.3-8.37 13.75 0 2.27 1.3 3.06 2.6 3.06 3.25 0 6.3-4.37 7.6-8.64.53-1.63.76-3.44.76-4.88"/><g><path d="M520 942.22L652.4 320l42.7 9.1-132.38 622.2z" fill="#fff" fill-opacity="0"/><path d="M537.63 922.3l11.6 6.04c.92.47 1.85.93 2.87 1.15 1.66.34 2.77-.27 3.13-1.97.98-4.6-3.4-8.03-6.88-10.15-.95-.56-1.95-1.1-3.02-1.3-3.15-.68-3.34 1.9-5.2 1.6-1.55-.24-1.5-1.66-1.3-2.68.4-1.8 2.6-1.54 3.97-1.25 6.22 1.32 15.4 7.95 13.86 15.24-.62 2.93-2.2 4.47-5.27 3.8-1.8-.37-3.52-1.27-5.13-2.1 3.43 2.5 8.5 7.24 7.47 12-.5 2.4-2.16 3.03-4.4 2.55-1.42-.3-2.64-1.05-3.9-1.67l-7.1-3.6c-.36-.22-.77-.4-1.2-.5-1.02-.2-1.28 1.43-1.43 2.12l-.62-.14c.1-2.34-.03-4.68-.47-7l.17-.15 12.35 6.25c.53.24 1.82.87 3 1.13 1.12.23 2.07.17 2.27-.77.47-2.47-3.7-6.52-5.06-7.88-2.97-3-6.06-4.8-10.47-7.13l.76-3.6M558.55 900.9c5.18 1.1 9.96 4.1 8.92 9.02-1.1 5.16-7.06 5.62-12 4.57-5.33-1.15-9.8-4.27-8.77-9.12.84-3.95 5.67-5.8 11.85-4.47m-.47 2.93c-6.26-1.33-10.07-.75-10.63 1.9-.54 2.5 2.73 4.6 8.85 5.9 6.1 1.3 9.83.72 10.38-1.87.55-2.56-2.63-4.66-8.6-5.93M561.55 858.1l-2.37 11.1 11.12 2.38-.6 2.8-11.12-2.36-2.37 11.13-2.8-.6 2.37-11.13-11.13-2.36.6-2.82 11.13 2.37 2.36-11.1 2.82.6M559.02 821.78l11.6 6.03c.92.47 1.85.94 2.87 1.16 1.65.35 2.76-.26 3.12-1.97.98-4.6-3.4-8.04-6.88-10.16-.95-.56-1.95-1.08-3.02-1.3-3.15-.68-3.34 1.9-5.2 1.6-1.55-.24-1.5-1.66-1.3-2.68.4-1.8 2.6-1.54 3.97-1.25 6.2 1.34 15.4 7.97 13.85 15.26-.62 2.94-2.2 4.47-5.27 3.82-1.8-.38-3.5-1.28-5.12-2.1 3.43 2.5 8.5 7.23 7.47 12-.5 2.4-2.16 3-4.4 2.53-1.42-.3-2.64-1.04-3.9-1.66l-7.1-3.6c-.36-.2-.77-.4-1.2-.48-1.02-.22-1.28 1.42-1.43 2.1l-.63-.14c.1-2.34-.03-4.68-.47-7l.16-.14L568.5 840c.54.26 1.83.9 3.02 1.14 1.1.24 2.06.17 2.26-.76.48-2.5-3.7-6.54-5.05-7.9-2.97-3-6.06-4.8-10.47-7.12l.76-3.58M589.36 804.96l-1.77 8.32-.46-.1c.35-2.26-.15-3.02-1.8-3.37l-13.53-2.87c-1.02-.22-1.53-.05-1.66.6-.07.3-.03.83.07 1.42l.14.88-.42-.1-1.6-5.97.15-.25 18 3.84c1.28.27 1.95-.22 2.44-2.48l.46.1M575.02 780.5l-2.53-2.54c-1.48-1.47-3.04-3.36-2.58-5.5.3-1.36.95-1.97 1.85-1.78.8.17 1.67.93 1.43 2.04-.2.94-.62 1.07-.78 1.8-.27 1.27.3 1.9 1.12 2.68l3.13 3.12c2.9-.72 8.87-.47 9.28-2.4.15-.67-.23-1.82-1.88-3.1l.56-.5c.53.63 4.2 3.42 3.7 5.9-.4 1.74-2.3 2.18-3.96 2.4l-5.18.7 3.6 3.56c1.8 1.8 3.37 3.43 2.86 5.82-.33 1.53-1.54 2-2.48 1.8-.68-.16-1.45-.9-1.23-1.97.24-1.1 1.05-.75 1.28-1.82.1-.5-.08-1.7-1.88-3.5l-3.7-3.7-4.23.58c-2.2.3-4.2 1.03-4.7 3.37-.1.55-.15 1.2-.07 1.67l-.8-.03-.2-5.94c1.4-1.65 3.33-2.1 4.85-2.3M598.46 762.16l-1.77 8.32-.46-.1c.36-2.25-.14-3.02-1.8-3.37l-13.53-2.87c-1-.22-1.52-.04-1.66.6-.06.3-.02.84.08 1.42l.12.88-.42-.1-1.6-5.97.16-.25 17.98 3.84c1.3.28 1.97-.2 2.45-2.47l.46.1M592.05 714.72l-2.37 11.12 11.13 2.37-.6 2.82-11.12-2.36-2.36 11.12-2.82-.6 2.37-11.12-11.12-2.37.6-2.82 11.12 2.37 2.37-11.13 2.8.6M589.53 678.4l11.6 6.04c.9.47 1.84.93 2.86 1.15 1.66.34 2.77-.27 3.13-1.97.98-4.6-3.42-8.03-6.9-10.15-.94-.56-1.94-1.1-3-1.3-3.16-.68-3.35 1.9-5.2 1.6-1.55-.24-1.52-1.66-1.3-2.68.38-1.8 2.6-1.54 3.96-1.25 6.2 1.32 15.4 7.95 13.85 15.24-.62 2.93-2.2 4.47-5.26 3.8-1.8-.37-3.53-1.27-5.13-2.1 3.43 2.5 8.48 7.24 7.46 12-.5 2.4-2.15 3.03-4.4 2.55-1.42-.3-2.64-1.05-3.9-1.67l-7.1-3.6c-.36-.22-.77-.4-1.2-.5-1.02-.2-1.28 1.43-1.42 2.1l-.63-.12c.1-2.34-.03-4.68-.47-7l.16-.15 12.35 6.25c.54.24 1.83.87 3.02 1.13 1.1.23 2.06.17 2.26-.77.48-2.47-3.7-6.52-5.05-7.88-2.97-3-6.06-4.8-10.46-7.13l.76-3.6M616.25 658.3l3.78 2.5-2.5 11.8-.37-.08-4.55-6.58c-2.37-3.47-4.43-5.04-7-5.58-2.74-.6-4.6.72-5.13 3.28-.47 2.17.27 3.43 2.97 5.26l-.3.6c-3.38-1.38-5.44-3.83-4.65-7.54.72-3.4 3.5-5.08 6.48-4.44 2.38.5 4.4 2.16 6.65 5.44l4.25 6.1 1.5-7.05c.27-1.25.07-1.96-1.4-3.3M605.53 637.14L603 634.6c-1.48-1.48-3.03-3.37-2.58-5.5.3-1.36.96-1.98 1.85-1.8.8.18 1.67.95 1.44 2.06-.2.93-.62 1.06-.78 1.8-.27 1.27.32 1.88 1.13 2.68l3.12 3.1c2.9-.7 8.88-.46 9.28-2.38.15-.68-.23-1.83-1.87-3.1l.55-.52c.53.65 4.2 3.44 3.7 5.9-.38 1.75-2.3 2.2-3.95 2.42l-5.18.68 3.6 3.57c1.8 1.82 3.37 3.45 2.86 5.83-.32 1.54-1.54 2-2.47 1.8-.7-.15-1.47-.9-1.25-1.96.24-1.1 1.06-.76 1.28-1.82.1-.5-.08-1.7-1.88-3.52l-3.7-3.7-4.23.6c-2.2.27-4.18 1-4.68 3.35-.12.56-.17 1.22-.1 1.68l-.8-.04-.2-5.92c1.43-1.66 3.35-2.1 4.86-2.3M625.35 615.5l3.78 2.52-2.5 11.78-.37-.08-4.55-6.57c-2.37-3.47-4.43-5.04-7-5.6-2.73-.57-4.58.73-5.13 3.3-.46 2.17.28 3.42 2.98 5.26l-.3.6c-3.38-1.37-5.44-3.83-4.65-7.53.72-3.4 3.5-5.08 6.5-4.45 2.37.5 4.38 2.16 6.64 5.45l4.24 6.1 1.5-7.05c.27-1.27.08-1.97-1.4-3.33M620.53 580.86l-2.37 11.12 11.13 2.37-.6 2.8-11.14-2.35-2.36 11.12-2.8-.6 2.35-11.12-11.12-2.37.6-2.8 11.12 2.35 2.37-11.12 2.8.6M630.17 572.62c1.23.26 2.06 1.6 1.8 2.88-.3 1.32-1.53 2.12-2.85 1.84s-2.16-1.57-1.88-2.9c.26-1.23 1.65-2.1 2.93-1.82M633.95 554.85c1.23.26 2.06 1.6 1.8 2.87-.3 1.33-1.53 2.13-2.85 1.85-1.32-.28-2.16-1.57-1.88-2.9.26-1.23 1.65-2.1 2.93-1.82M637.73 537.08c1.24.26 2.07 1.6 1.8 2.87-.3 1.32-1.53 2.13-2.85 1.85-1.32-.28-2.16-1.58-1.88-2.9.26-1.23 1.65-2.1 2.93-1.82M638.1 498.3l-2.37 11.13 11.12 2.37-.6 2.8-11.12-2.35-2.37 11.12-2.8-.6 2.36-11.12-11.13-2.37.6-2.8 11.1 2.35 2.38-11.12 2.8.6M633.56 471.46l11.6 6.03c.92.46 1.84.92 2.86 1.14 1.67.35 2.78-.26 3.14-1.96.98-4.6-3.4-8.03-6.88-10.15-.95-.56-1.96-1.1-3.02-1.3-3.15-.68-3.35 1.9-5.2 1.6-1.55-.24-1.52-1.66-1.3-2.68.38-1.8 2.6-1.55 3.96-1.26 6.23 1.32 15.42 7.95 13.87 15.24-.64 2.94-2.2 4.48-5.28 3.82-1.8-.38-3.52-1.28-5.12-2.1 3.43 2.5 8.48 7.23 7.47 12-.5 2.4-2.16 3.02-4.42 2.54-1.4-.3-2.63-1.05-3.88-1.67l-7.1-3.6c-.37-.22-.78-.4-1.2-.5-1.03-.2-1.3 1.43-1.43 2.1l-.64-.12c.1-2.33-.03-4.68-.47-7l.17-.14 12.34 6.24c.53.24 1.82.87 3.02 1.13 1.1.23 2.05.17 2.25-.77.5-2.48-3.68-6.53-5.04-7.9-2.97-2.98-6.06-4.8-10.46-7.12l.76-3.58M644.62 446.35l17.06 8.33c.08.05.26.12.35.13.18.05.3-.08.37-.38.12-.6-.75-1.67-1.3-2.23l.44-.26c1.16 1.2 2.63 3.17 2.33 4.6-.2.95-.95 1.05-1.5.93-.6-.13-1-.28-1.86-.7l-.02.14c2.33 2.84 2.3 4.72 2.07 5.84-.47 2.2-2.8 2.17-4.4 1.83-3.1-.66-9.15-5.2-8.17-9.83.37-1.72 1.3-2.24 2.03-2.12l.02-.06-5.96-2.94c-.1-.05-.22-.1-.34-.13-.4-.1-.65.07-.82.85-.06.27-.07.62-.08.83l-.48.03m9.1 2.2c-1.4-.3-2.23 0-2.5 1.23-.62 2.98 4.88 6.7 7.78 7.32 1.47.32 2.16-.42 2.34-1.26.45-2.12-1.96-4.7-4.55-6.15-.97-.55-2.12-.95-3.05-1.15M649.77 429.2l-2.54-2.54c-1.46-1.47-3.02-3.36-2.57-5.5.3-1.35.96-1.97 1.85-1.78.82.17 1.68.94 1.45 2.04-.2.94-.63 1.07-.78 1.8-.28 1.28.3 1.9 1.12 2.7l3.1 3.1c2.92-.72 8.9-.47 9.3-2.4.14-.67-.24-1.82-1.88-3.1l.55-.5c.53.64 4.2 3.42 3.7 5.9-.38 1.74-2.3 2.18-3.95 2.4l-5.18.7 3.6 3.56c1.8 1.8 3.37 3.44 2.86 5.82-.32 1.54-1.53 2-2.47 1.8-.68-.15-1.46-.9-1.23-1.96.23-1.1 1.05-.76 1.27-1.82.1-.52-.08-1.7-1.88-3.52l-3.72-3.7-4.22.58c-2.2.3-4.18 1.03-4.68 3.37-.12.56-.17 1.22-.1 1.68l-.8-.04-.2-5.93c1.43-1.66 3.35-2.1 4.86-2.3M653.93 402.58L671 410.9c.08.05.25.12.34.14.18.04.3-.1.37-.4.14-.6-.74-1.67-1.28-2.22l.43-.26c1.17 1.2 2.63 3.18 2.33 4.6-.2.96-.95 1.05-1.5.94-.6-.13-1-.28-1.85-.72l-.03.15c2.32 2.83 2.3 4.72 2.06 5.83-.47 2.2-2.8 2.18-4.4 1.84-3.1-.66-9.15-5.2-8.16-9.84.36-1.7 1.3-2.24 2.02-2.12l.02-.06-5.96-2.93c-.12-.06-.23-.1-.35-.14-.4-.07-.65.1-.8.88-.07.27-.08.6-.1.83l-.48.03m9.1 2.2c-1.4-.3-2.22 0-2.5 1.22-.62 3 4.9 6.7 7.78 7.33 1.48.3 2.17-.42 2.35-1.27.45-2.1-1.96-4.7-4.56-6.12-.98-.56-2.12-.96-3.06-1.16M663.25 359.15l-5.34 25.1-2.8-.6 5.33-25.1 2.82.6m8.52 1.8l-5.34 25.12-2.8-.6 5.33-25.1 2.8.6M670.1 324.88c7.32 1.56 14.08 5.8 12.6 12.75-1.55 7.3-9.97 7.95-16.96 6.46-7.54-1.62-13.87-6.03-12.4-12.9 1.18-5.58 8.02-8.18 16.75-6.32m-.66 4.14c-8.87-1.9-14.25-1.07-15.05 2.68-.77 3.53 3.86 6.52 12.5 8.36 8.66 1.84 13.92 1 14.7-2.66.77-3.63-3.73-6.6-12.16-8.38"/></g><defs><path fill="#fff" d="M169-182c-1-43-94-46-97-3 18 66 151 10 154 114 3 95-165 93-204 36-6-8-10-19-12-30l50-8c3 46 112 56 116 5-17-69-150-10-154-114-4-87 153-88 188-35 5 8 8 18 10 28" id="e"/><path fill="#fff" d="M190-63c-7 42-38 67-86 67-59 0-84-38-90-98-12-110 154-137 174-36l-49 2c-2-19-15-32-35-32-30 0-35 28-38 64-6 74 65 87 74 30" id="f"/><path fill="#fff" d="M110-194c64 0 96 36 96 99 0 64-35 99-97 99-61 0-95-36-95-99 0-62 34-99 96-99zm-1 164c35 0 45-28 45-65 0-40-10-65-43-65-34 0-45 26-45 65 0 36 10 65 43 65" id="g"/><path fill="#fff" d="M135-150c-39-12-60 13-60 57V0H25l-1-190h47c2 13-1 29 3 40 6-28 27-53 61-41v41" id="h"/><path fill="#fff" d="M185-48c-13 30-37 53-82 52C43 2 14-33 14-96s30-98 90-98c62 0 83 45 84 108H66c0 31 8 55 39 56 18 0 30-7 34-22zm-45-69c5-46-57-63-70-21-2 6-4 13-4 21h74" id="i"/><path fill="#fff" d="M67-93c0 74 22 123 53 168H70C40 30 18-18 18-93s22-123 52-168h50c-32 44-53 94-53 168" id="j"/><path fill="#fff" d="M144 0l-44-69L55 0H2l70-98-66-92h53l41 62 40-62h54l-67 91 71 99h-54" id="k"/><path fill="#fff" d="M102-93c0 74-22 123-52 168H0C30 29 54-18 53-93c0-74-22-123-53-168h50c30 45 52 94 52 168" id="l"/><g id="a"><use transform="matrix(0.06172839506172839,0,0,0.06172839506172839,0,0)" xlink:href="#e"/><use transform="matrix(0.06172839506172839,0,0,0.06172839506172839,14.814814814814813,0)" xlink:href="#f"/><use transform="matrix(0.06172839506172839,0,0,0.06172839506172839,27.160493827160494,0)" xlink:href="#g"/><use transform="matrix(0.06172839506172839,0,0,0.06172839506172839,40.67901234567901,0)" xlink:href="#h"/><use transform="matrix(0.06172839506172839,0,0,0.06172839506172839,49.32098765432099,0)" xlink:href="#i"/><use transform="matrix(0.06172839506172839,0,0,0.06172839506172839,61.666666666666664,0)" xlink:href="#j"/><use transform="matrix(0.06172839506172839,0,0,0.06172839506172839,69.01234567901234,0)" xlink:href="#k"/><use transform="matrix(0.06172839506172839,0,0,0.06172839506172839,81.35802469135803,0)" xlink:href="#l"/></g><path fill="#fff" d="M15-91v-56l181-69v40L49-119l147 57v40" id="m"/><use transform="matrix(0.06172839506172839,0,0,0.06172839506172839,0,0)" xlink:href="#m" id="b"/><path fill="#fff" d="M101-251c68 0 84 54 84 127C185-50 166 4 99 4S15-52 14-124c-1-75 17-127 87-127zm-1 216c37-5 36-46 36-89s4-89-36-89c-39 0-36 45-36 89 0 43-3 85 36 89" id="n"/><use transform="matrix(0.06172839506172839,0,0,0.06172839506172839,0,0)" xlink:href="#n" id="c"/><path fill="#fff" d="M15-22v-40l146-57-146-57v-40l181 69v56" id="o"/><use transform="matrix(0.06172839506172839,0,0,0.06172839506172839,0,0)" xlink:href="#o" id="d"/></defs></g></svg>