<svg xmlns="http://www.w3.org/2000/svg" xmlns:xlink="http://www.w3.org/1999/xlink" xmlns:lucid="lucid" width="1400" height="798.21"><g transform="translate(-140 -100)" lucid:page-tab-id="Njr7L9R2wxg8"><path d="M840 246c0-3.3 2.7-6 6-6h668c3.3 0 6 2.7 6 6v588c0 3.3-2.7 6-6 6H846c-3.3 0-6-2.7-6-6zM160 246c0-3.3 2.7-6 6-6h668c3.3 0 6 2.7 6 6v588c0 3.3-2.7 6-6 6H166c-3.3 0-6-2.7-6-6z" stroke="#5e5e5e" stroke-width="3" fill="#fff"/><path d="M360 380c0 33.14-26.86 60-60 60s-60-26.86-60-60 26.86-60 60-60 60 26.86 60 60zM360 540c0 33.14-26.86 60-60 60s-60-26.86-60-60 26.86-60 60-60 60 26.86 60 60zM360 700c0 33.14-26.86 60-60 60s-60-26.86-60-60 26.86-60 60-60 60 26.86 60 60z" stroke="#5e5e5e" stroke-width="3" fill="#fff"/><path d="M267 513.2h66v53.6h-66z" fill="#fff" fill-opacity="0"/><path d="M287.04 531.33l2.96-4.54c1.7-2.64 4-5.53 7.3-5.53 2.1 0 3.2.8 3.2 2.17 0 1.25-.84 2.76-2.55 2.76-1.45 0-1.77-.6-2.9-.6-1.96 0-2.7 1.06-3.6 2.5l-3.62 5.6c1.97 4.07 3.48 12.94 6.44 12.94 1.05 0 2.63-.92 4-3.75l.93.65c-.8.98-3.75 7.3-7.56 7.3-2.7 0-3.94-2.7-4.8-5.07l-2.63-7.42-4.13 6.44c-2.1 3.22-4 6.04-7.68 6.04-2.38 0-3.43-1.64-3.43-3.1 0-1.04.85-2.42 2.5-2.42 1.7 0 1.44 1.32 3.08 1.32.8 0 2.5-.66 4.6-3.88l4.28-6.64-2.17-6.04c-1.12-3.16-2.83-5.85-6.44-5.85-.86 0-1.84.13-2.5.4l-.2-1.2 8.68-2.16c2.9 1.58 4.14 4.27 4.93 6.44M321.45 560.15h-12.82v-.7c3.44-.18 4.4-1.16 4.4-3.72v-20.86c0-1.58-.4-2.27-1.38-2.27-.47 0-1.26.23-2.1.55l-1.25.47v-.65l8.32-4.23.42.14v27.74c0 2 .93 2.83 4.4 2.83v.7"/><path d="M283.55 351.16h32.9v57.68h-32.9z" fill="#fff" fill-opacity="0"/><path d="M309.45 400.5H291.3v-.98c4.87-.26 6.25-1.64 6.25-5.26v-29.5c0-2.24-.6-3.23-1.97-3.23-.66 0-1.77.33-2.96.8l-1.77.65v-.92l11.76-5.98.6.2v39.23c0 2.84 1.32 4.02 6.25 4.02v.98"/><path d="M267 673.2h66v53.6h-66z" fill="#fff" fill-opacity="0"/><path d="M287.04 691.33l2.96-4.54c1.7-2.64 4-5.53 7.3-5.53 2.1 0 3.2.8 3.2 2.17 0 1.25-.84 2.76-2.55 2.76-1.45 0-1.77-.6-2.9-.6-1.96 0-2.7 1.06-3.6 2.5l-3.62 5.6c1.97 4.07 3.48 12.94 6.44 12.94 1.05 0 2.63-.92 4-3.75l.93.65c-.8.98-3.75 7.3-7.56 7.3-2.7 0-3.94-2.7-4.8-5.07l-2.63-7.42-4.13 6.44c-2.1 3.22-4 6.04-7.68 6.04-2.38 0-3.43-1.64-3.43-3.1 0-1.04.85-2.42 2.5-2.42 1.7 0 1.44 1.32 3.08 1.32.8 0 2.5-.66 4.6-3.88l4.28-6.64-2.17-6.04c-1.12-3.16-2.83-5.85-6.44-5.85-.86 0-1.84.13-2.5.4l-.2-1.2 8.68-2.16c2.9 1.58 4.14 4.27 4.93 6.44M325.17 713.78l-2.5 6.37h-18.18v-.56l8.26-8.8c4.37-4.6 6.04-8.12 6.04-12.07 0-4.23-2.5-6.55-6.46-6.55-3.34 0-4.97 1.48-6.83 6.04l-.96-.23c.97-5.45 3.95-9.26 9.66-9.26 5.25 0 8.6 3.58 8.6 8.18 0 3.67-1.8 7.15-5.95 11.52l-7.67 8.18h10.88c1.95 0 2.92-.5 4.46-3.12"/><path d="M760 540c0 33.14-26.86 60-60 60s-60-26.86-60-60 26.86-60 60-60 60 26.86 60 60z" stroke="#5e5e5e" stroke-width="3" fill="#fff"/><path d="M683.7 513.2h32.6v53.6h-32.6z" fill="#fff" fill-opacity="0"/><path d="M701.43 530.08l1.84 15.44c4-5.45 6.3-9.4 7.75-12.1 1.32-2.42 1.84-3.74 1.84-4.92 0-1.38-3.4-2.04-3.4-4.53 0-1.45 1.17-2.63 3.08-2.63 2.1 0 3.74 1.5 3.74 4.07 0 5.14-10.64 20.9-13.4 24.4-4.8 6.04-9.07 12.48-13.54 12.48-2.43 0-3.68-2.04-3.68-3.62 0-1.97 1.77-2.7 2.63-2.7 2.8 0 2.68 2.05 3.73 2.05 1.12 0 4.86-4.07 6.57-6.7l-2.5-20.63c-.32-2.96-.9-6.9-4.6-6.9-.72 0-1.77.2-2.36.26l-.13-1.05 9.87-1.64c1.5 2.16 1.97 3.87 2.56 8.74"/><path d="M362.37 380.5l260.1 150.25" stroke="#5e5e5e" stroke-width="2" fill="none"/><path d="M362.9 379.65l-1 1.73-.45-.25.05-1.13-.04-1.18z" fill="#5e5e5e"/><path d="M635.7 538.38l-14.67-3.12 4.63-8.03z" stroke="#5e5e5e" stroke-width="2" fill="#5e5e5e"/><path d="M362.5 540H620" stroke="#5e5e5e" stroke-width="2" fill="none"/><path d="M362.53 541h-1.07l.04-1-.03-1h1.06z" fill="#5e5e5e"/><path d="M635.26 540L621 544.64v-9.28z" stroke="#5e5e5e" stroke-width="2" fill="#5e5e5e"/><path d="M362.37 699.5l260.1-150.25" stroke="#5e5e5e" stroke-width="2" fill="none"/><path d="M362.9 700.35l-1.45.83.05-1.18-.04-1.13.43-.25z" fill="#5e5e5e"/><path d="M635.7 541.62l-10.04 11.15-4.63-8.03z" stroke="#5e5e5e" stroke-width="2" fill="#5e5e5e"/><path d="M1040 380c0 33.14-26.86 60-60 60s-60-26.86-60-60 26.86-60 60-60 60 26.86 60 60zM1040 540c0 33.14-26.86 60-60 60s-60-26.86-60-60 26.86-60 60-60 60 26.86 60 60zM1040 700c0 33.14-26.86 60-60 60s-60-26.86-60-60 26.86-60 60-60 60 26.86 60 60z" stroke="#5e5e5e" stroke-width="3" fill="#fff"/><path d="M947 513.2h66v53.6h-66z" fill="#fff" fill-opacity="0"/><path d="M967.04 531.33l2.96-4.54c1.7-2.64 4-5.53 7.3-5.53 2.1 0 3.2.8 3.2 2.17 0 1.25-.84 2.76-2.55 2.76-1.45 0-1.77-.6-2.9-.6-1.96 0-2.7 1.06-3.6 2.5l-3.62 5.6c1.97 4.07 3.48 12.94 6.44 12.94 1.05 0 2.63-.92 4-3.75l.93.65c-.8.98-3.75 7.3-7.56 7.3-2.7 0-3.94-2.7-4.8-5.07l-2.63-7.42-4.13 6.44c-2.1 3.22-4 6.04-7.68 6.04-2.38 0-3.43-1.64-3.43-3.1 0-1.04.85-2.42 2.5-2.42 1.7 0 1.44 1.32 3.08 1.32.8 0 2.5-.66 4.6-3.88l4.28-6.64-2.17-6.04c-1.12-3.16-2.83-5.85-6.44-5.85-.86 0-1.84.13-2.5.4l-.2-1.2 8.68-2.16c2.9 1.58 4.14 4.27 4.93 6.44M1001.45 560.15h-12.82v-.7c3.44-.18 4.4-1.16 4.4-3.72v-20.86c0-1.58-.4-2.27-1.38-2.27-.47 0-1.26.23-2.1.55l-1.25.47v-.65l8.32-4.23.42.14v27.74c0 2 .93 2.83 4.4 2.83v.7"/><path d="M963.55 351.16h32.9v57.68h-32.9z" fill="#fff" fill-opacity="0"/><path d="M989.45 400.5H971.3v-.98c4.87-.26 6.25-1.64 6.25-5.26v-29.5c0-2.24-.6-3.23-1.97-3.23-.66 0-1.77.33-2.96.8l-1.77.65v-.92l11.76-5.98.6.2v39.23c0 2.84 1.32 4.02 6.25 4.02v.98"/><path d="M947 673.2h66v53.6h-66z" fill="#fff" fill-opacity="0"/><path d="M967.04 691.33l2.96-4.54c1.7-2.64 4-5.53 7.3-5.53 2.1 0 3.2.8 3.2 2.17 0 1.25-.84 2.76-2.55 2.76-1.45 0-1.77-.6-2.9-.6-1.96 0-2.7 1.06-3.6 2.5l-3.62 5.6c1.97 4.07 3.48 12.94 6.44 12.94 1.05 0 2.63-.92 4-3.75l.93.65c-.8.98-3.75 7.3-7.56 7.3-2.7 0-3.94-2.7-4.8-5.07l-2.63-7.42-4.13 6.44c-2.1 3.22-4 6.04-7.68 6.04-2.38 0-3.43-1.64-3.43-3.1 0-1.04.85-2.42 2.5-2.42 1.7 0 1.44 1.32 3.08 1.32.8 0 2.5-.66 4.6-3.88l4.28-6.64-2.17-6.04c-1.12-3.16-2.83-5.85-6.44-5.85-.86 0-1.84.13-2.5.4l-.2-1.2 8.68-2.16c2.9 1.58 4.14 4.27 4.93 6.44M1005.17 713.78l-2.5 6.37h-18.18v-.56l8.26-8.8c4.37-4.6 6.04-8.12 6.04-12.07 0-4.23-2.5-6.55-6.46-6.55-3.34 0-4.97 1.48-6.83 6.04l-.96-.23c.97-5.45 3.95-9.26 9.66-9.26 5.25 0 8.6 3.58 8.6 8.18 0 3.67-1.8 7.15-5.95 11.52l-7.67 8.18h10.88c1.95 0 2.92-.5 4.46-3.12"/><path d="M1440 540c0 33.14-26.86 60-60 60s-60-26.86-60-60 26.86-60 60-60 60 26.86 60 60z" stroke="#5e5e5e" stroke-width="3" fill="#fff"/><path d="M1363.7 513.2h32.6v53.6h-32.6z" fill="#fff" fill-opacity="0"/><path d="M1381.43 530.08l1.84 15.44c4-5.45 6.3-9.4 7.75-12.1 1.32-2.42 1.84-3.74 1.84-4.92 0-1.38-3.4-2.04-3.4-4.53 0-1.45 1.17-2.63 3.08-2.63 2.1 0 3.74 1.5 3.74 4.07 0 5.14-10.64 20.9-13.4 24.4-4.8 6.04-9.07 12.48-13.54 12.48-2.43 0-3.68-2.04-3.68-3.62 0-1.97 1.77-2.7 2.63-2.7 2.8 0 2.68 2.05 3.73 2.05 1.12 0 4.86-4.07 6.57-6.7l-2.5-20.63c-.32-2.96-.9-6.9-4.6-6.9-.72 0-1.77.2-2.36.26l-.13-1.05 9.87-1.64c1.5 2.16 1.97 3.87 2.56 8.74"/><path d="M1042.37 380.5l260.1 150.25" stroke="#5e5e5e" stroke-width="2" fill="none"/><path d="M1042.9 379.65l-1 1.73-.45-.25.05-1.13-.04-1.18z" fill="#5e5e5e"/><path d="M1315.7 538.38l-14.67-3.12 4.63-8.03z" stroke="#5e5e5e" stroke-width="2" fill="#5e5e5e"/><path d="M1042.5 540H1300" stroke="#5e5e5e" stroke-width="2" fill="none"/><path d="M1042.53 541h-1.07l.04-1-.03-1h1.06z" fill="#5e5e5e"/><path d="M1315.26 540l-14.26 4.64v-9.28z" stroke="#5e5e5e" stroke-width="2" fill="#5e5e5e"/><path d="M1042.37 699.5l260.1-150.25" stroke="#5e5e5e" stroke-width="2" fill="none"/><path d="M1042.9 700.35l-1.45.83.05-1.18-.04-1.13.43-.25z" fill="#5e5e5e"/><path d="M1315.7 541.62l-10.04 11.15-4.63-8.03z" stroke="#5e5e5e" stroke-width="2" fill="#5e5e5e"/><path d="M160 126c0-3.3 2.7-6 6-6h668c3.3 0 6 2.7 6 6v108c0 3.3-2.7 6-6 6H166c-3.3 0-6-2.7-6-6zM840 126c0-3.3 2.7-6 6-6h668c3.3 0 6 2.7 6 6v108c0 3.3-2.7 6-6 6H846c-3.3 0-6-2.7-6-6z" stroke="#5e5e5e" stroke-width="3" fill="#fff"/><path d="M369.16 147.06h261.68v65.88H369.16z" fill="#fff" fill-opacity="0"/><path d="M389.2 177.48l2.96-4.54c1.7-2.63 4-5.52 7.3-5.52 2.1 0 3.22.8 3.22 2.17 0 1.24-.85 2.75-2.56 2.75-1.45 0-1.78-.6-2.9-.6-1.97 0-2.7 1.06-3.6 2.5l-3.62 5.6c1.97 4.07 3.48 12.94 6.44 12.94 1.05 0 2.63-.93 4-3.76l.93.66c-.8 1-3.75 7.3-7.56 7.3-2.7 0-3.94-2.7-4.8-5.07l-2.62-7.42-4.14 6.45c-2.1 3.22-4 6.04-7.7 6.04-2.35 0-3.4-1.65-3.4-3.1 0-1.05.85-2.43 2.5-2.43 1.7 0 1.44 1.32 3.08 1.32.8 0 2.5-.67 4.6-3.9l4.27-6.63-2.18-6.04c-1.1-3.16-2.82-5.85-6.44-5.85-.85 0-1.84.13-2.5.4l-.2-1.2 8.68-2.16c2.9 1.58 4.14 4.27 4.93 6.44M423.62 206.3H410.8v-.7c3.43-.18 4.4-1.16 4.4-3.7V181c0-1.58-.4-2.27-1.4-2.27-.45 0-1.24.23-2.08.55l-1.25.47v-.65l8.32-4.23.4.13v27.74c0 2 .93 2.83 4.42 2.83v.7M498.36 168.8c0 13-10.25 28.33-26.87 28.33-9.8 0-16.64-6.3-16.64-15.32 0-13.33 10.38-29.36 27.14-29.36 10.97 0 16.36 8.08 16.36 16.36m-7.62-1.5c0-7.04-2.63-12.43-9.27-12.43-15.24 0-18.66 20.57-18.66 29.9 0 6.38 4.1 9.86 9.2 9.86 13.94 0 18.74-18.07 18.74-27.34M547.32 195.35l-.13 1.05h-11.1l-9.87-20.7c-.66.07-1.38.13-1.9.13-.93 0-1.6-.13-2.5-.26l-4.08 15.7c-.13.53-.2 1-.2 1.52 0 1.57 1.2 2.55 5 2.55h1.25l-.27 1.05h-21.35l.26-1.05h1.05c4.98 0 6.3-1.84 6.9-4.07l8.14-32.66c.13-.53.33-1.12.33-1.65 0-1.38-1.12-2.43-5.06-2.43h-1.3l.26-1.05h17.8c10.52 0 14.2 4.33 14.2 9.9 0 5.47-4.67 9.87-11.7 11.25l7.56 15.05c1.25 2.56 2.96 5.32 6.7 5.65m-20.7-39.23l-4.2 17.08c.85.2 1.5.27 2.1.27 8.74 0 12.55-3.8 12.55-9.33 0-7.1-4.07-8.22-8.2-8.22-.93 0-1.53.07-2.25.2M584.85 177.48l2.95-4.54c1.7-2.63 4-5.52 7.3-5.52 2.1 0 3.22.8 3.22 2.17 0 1.24-.85 2.75-2.56 2.75-1.45 0-1.78-.6-2.9-.6-1.97 0-2.7 1.06-3.6 2.5l-3.62 5.6c1.97 4.07 3.48 12.94 6.44 12.94 1.05 0 2.62-.93 4-3.76l.93.66c-.78 1-3.74 7.3-7.55 7.3-2.7 0-3.95-2.7-4.8-5.07l-2.63-7.42-4.14 6.45c-2.1 3.22-4 6.04-7.7 6.04-2.35 0-3.4-1.65-3.4-3.1 0-1.05.85-2.43 2.5-2.43 1.7 0 1.44 1.32 3.08 1.32.8 0 2.5-.67 4.6-3.9l4.27-6.63-2.17-6.04c-1.1-3.16-2.82-5.85-6.44-5.85-.85 0-1.84.13-2.5.4l-.2-1.2 8.68-2.16c2.9 1.58 4.14 4.27 4.93 6.44M622.97 199.93l-2.5 6.37H602.3v-.56l8.27-8.78c4.37-4.6 6.04-8.13 6.04-12.08 0-4.23-2.5-6.55-6.45-6.55-3.34 0-4.97 1.5-6.83 6.04l-.98-.23c.98-5.44 3.95-9.25 9.67-9.25 5.26 0 8.6 3.57 8.6 8.17 0 3.67-1.8 7.15-5.94 11.52l-7.67 8.17h10.86c1.95 0 2.93-.5 4.46-3.1"/><path d="M1018.4 147.06h323.2v65.88h-323.2z" fill="#fff" fill-opacity="0"/><path d="M1038.44 177.48l2.95-4.54c1.7-2.63 4-5.52 7.3-5.52 2.1 0 3.2.8 3.2 2.17 0 1.24-.85 2.75-2.56 2.75-1.44 0-1.77-.6-2.9-.6-1.96 0-2.68 1.06-3.6 2.5l-3.62 5.6c1.98 4.07 3.5 12.94 6.44 12.94 1.06 0 2.63-.93 4-3.76l.93.66c-.8 1-3.75 7.3-7.56 7.3-2.7 0-3.95-2.7-4.8-5.07l-2.63-7.42-4.13 6.45c-2.1 3.22-4 6.04-7.7 6.04-2.36 0-3.4-1.65-3.4-3.1 0-1.05.85-2.43 2.5-2.43 1.7 0 1.44 1.32 3.08 1.32.8 0 2.5-.67 4.6-3.9l4.27-6.63-2.17-6.04c-1.1-3.16-2.82-5.85-6.44-5.85-.84 0-1.83.13-2.5.4l-.18-1.2 8.67-2.16c2.88 1.58 4.13 4.27 4.92 6.44M1072.85 206.3h-12.83v-.7c3.44-.18 4.42-1.16 4.42-3.7V181c0-1.58-.42-2.27-1.4-2.27-.46 0-1.25.23-2.1.55l-1.24.47v-.65l8.3-4.23.43.13v27.74c0 2 .93 2.83 4.42 2.83v.7M1145.82 196.4h-18.73v-1.05h1.04c3.68 0 4.73-1.38 4.73-4 0-.4-.06-.93-.13-1.4l-.85-7.4h-13.03l-5.52 9.2c-.46.5-.65 1.24-.65 1.7.06 1.18 1.1 1.9 2.82 1.9h1.9v1.05h-14.32v-1.05c2.3-.26 4.73-1.05 7.1-4.86l23.4-37.93h1.18l5.12 38.18c.46 3.22 2.1 4.6 4.87 4.6h1.05v1.05m-14.4-16.3l-1.64-14.9h-.4l-9.13 14.9h11.18M1207.13 153.5l-.26 1.04h-1.18c-4.94 0-6.45 1.7-7.05 4.14l-9.46 37.72h-1.6l-18-34.56h-.4l-7.08 29.44c-.14.52-.2 1.05-.2 1.77 0 1.32 1.12 2.3 5 2.3h1.24l-.26 1.05h-17.48l.26-1.05h1.18c4.93 0 6.44-1.84 6.97-4.07l8.28-33.45c-1.24-2.83-4.06-3.3-6.04-3.3h-1.25l.28-1.04h13.14l15.5 30.55h.34l6.37-25.37c.14-.6.27-1.05.27-1.7 0-1.32-1.12-2.44-5-2.44h-1.3l.25-1.05h17.48M1219.95 153.5h18.53c12.35 0 19 6.76 19 18.06 0 13.87-10.72 24.84-27.68 24.84h-20.1l.26-1.05h1.18c4.86 0 6.37-1.84 6.9-4.07l8.02-32.66c.13-.53.26-1.12.26-1.58 0-1.45-1.18-2.43-5.06-2.43h-1.64m14.2 1.58l-8.03 33.13c-.33 1.25-.33 1.58-.33 1.78 0 2.7 3.94 2.83 6.24 2.83 12.63 0 17.82-12.1 17.82-21.35 0-7.56-2.17-16.56-11.83-16.56-1.32 0-2.84.05-3.9.18M1295.6 177.48l2.94-4.54c1.7-2.63 4-5.52 7.3-5.52 2.1 0 3.22.8 3.22 2.17 0 1.24-.86 2.75-2.56 2.75-1.45 0-1.78-.6-2.9-.6-1.97 0-2.7 1.06-3.6 2.5l-3.62 5.6c1.97 4.07 3.48 12.94 6.44 12.94 1.05 0 2.62-.93 4-3.76l.92.66c-.78 1-3.74 7.3-7.55 7.3-2.7 0-3.96-2.7-4.8-5.07l-2.64-7.42-4.14 6.45c-2.1 3.22-4 6.04-7.7 6.04-2.35 0-3.4-1.65-3.4-3.1 0-1.05.85-2.43 2.5-2.43 1.7 0 1.44 1.32 3.08 1.32.8 0 2.5-.67 4.6-3.9l4.27-6.63-2.17-6.04c-1.1-3.16-2.82-5.85-6.44-5.85-.85 0-1.84.13-2.5.4l-.2-1.2 8.68-2.16c2.9 1.58 4.14 4.27 4.93 6.44M1333.7 199.93l-2.5 6.37h-18.16v-.56l8.27-8.78c4.38-4.6 6.05-8.13 6.05-12.08 0-4.23-2.5-6.55-6.46-6.55-3.36 0-4.98 1.5-6.84 6.04l-.98-.23c.98-5.44 3.95-9.25 9.67-9.25 5.25 0 8.6 3.57 8.6 8.17 0 3.67-1.82 7.15-5.95 11.52l-7.67 8.17h10.87c1.95 0 2.93-.5 4.46-3.1"/><path d="M437.46 385.2c1.65-2.87 5.32-3.86 8.2-2.2l58.93 33.9c2.86 1.66 3.85 5.33 2.2 8.2l-14.97 26c-1.65 2.88-5.32 3.86-8.2 2.2l-58.93-33.9c-2.87-1.66-3.86-5.33-2.2-8.2z" stroke="#000" stroke-opacity="0" stroke-width="3" fill="#fff" fill-opacity="0"/><use xlink:href="#a" transform="matrix(0.8667341536641282,0.4987703949435326,-0.4987703949435326,0.8667341536641282,442.28940498628776,386.82752274303834) translate(12.074074074074076 23.333333333333332)"/><path d="M422.56 625.68c-1.68-2.86-.73-6.53 2.13-8.2l58.63-34.44c2.86-1.68 6.54-.72 8.2 2.13l15.2 25.87c1.68 2.86.72 6.54-2.13 8.22l-58.64 34.43c-2.86 1.67-6.54.7-8.2-2.15z" stroke="#000" stroke-opacity="0" stroke-width="3" fill="#fff" fill-opacity="0"/><use xlink:href="#b" transform="matrix(0.8623321263929521,-0.5063430692629353,0.5063430692629353,0.8623321263929521,426.3616605134755,622.2873908266849) translate(27.592592592592595 23.333333333333332)"/><path d="M424.62 506c0-3.3 2.7-6 6-6h68c3.3 0 6 2.7 6 6v30c0 3.3-2.7 6-6 6h-68c-3.3 0-6-2.7-6-6z" stroke="#000" stroke-opacity="0" stroke-width="3" fill="#fff" fill-opacity="0"/><use xlink:href="#b" transform="matrix(1,0,0,1,429.6201464409768,505) translate(27.592592592592595 23.333333333333332)"/><path d="M1117.46 385.2c1.65-2.87 5.32-3.86 8.2-2.2l58.93 33.9c2.86 1.66 3.85 5.33 2.2 8.2l-14.97 26c-1.65 2.88-5.32 3.86-8.2 2.2l-58.93-33.9c-2.87-1.66-3.86-5.33-2.2-8.2z" stroke="#000" stroke-opacity="0" stroke-width="3" fill="#fff" fill-opacity="0"/><use xlink:href="#c" transform="matrix(0.8667341536641282,0.4987703949435326,-0.4987703949435326,0.8667341536641282,1122.2894049862878,386.82752274303834) translate(12.074074074074076 23.333333333333332)"/><path d="M1103.04 625.68c-1.68-2.86-.72-6.53 2.13-8.2l58.64-34.44c2.87-1.68 6.55-.72 8.22 2.13l15.2 25.87c1.67 2.86.72 6.54-2.14 8.22l-58.64 34.43c-2.86 1.67-6.53.7-8.2-2.15z" stroke="#000" stroke-opacity="0" stroke-width="3" fill="#fff" fill-opacity="0"/><use xlink:href="#b" transform="matrix(0.8623321263929521,-0.5063430692629353,0.5063430692629353,0.8623321263929521,1106.8433759782795,622.2873908266849) translate(27.592592592592595 23.333333333333332)"/><path d="M1104.62 506c0-3.3 2.7-6 6-6h68c3.3 0 6 2.7 6 6v30c0 3.3-2.7 6-6 6h-68c-3.3 0-6-2.7-6-6z" stroke="#000" stroke-opacity="0" stroke-width="3" fill="#fff" fill-opacity="0"/><use xlink:href="#b" transform="matrix(1,0,0,1,1109.620146440977,505) translate(27.592592592592595 23.333333333333332)"/><path d="M480 701c0-3.3 2.7-6 6-6h308c3.3 0 6 2.7 6 6v171.2c0 3.33-2.7 6-6 6H486c-3.3 0-6-2.67-6-6z" fill="#fff"/><path d="M480 695h320v36H480z" fill="#ccc"/><path d="M480 767h320v36H480zM480 839h320v36H480z" fill="#f0f0f0"/><path d="M548.67 695v183.2M617.34 695v183.2M664.5 695v183.2M480 701c0-3.3 2.7-6 6-6h308c3.3 0 6 2.7 6 6v171.2c0 3.33-2.7 6-6 6H486c-3.3 0-6-2.67-6-6z" stroke="#5e5e5e" stroke-width="3" fill="none"/><use xlink:href="#d" transform="matrix(1,0,0,1,486,695) translate(16.771604938271604 22.444444444444443)"/><use xlink:href="#e" transform="matrix(1,0,0,1,554.6721960696406,695) translate(16.771604938271604 22.444444444444443)"/><use xlink:href="#f" transform="matrix(1,0,0,1,623.3443921392811,695) translate(12.444444444444445 22.444444444444443)"/><use xlink:href="#g" transform="matrix(1,0,0,1,670.4967496077113,695) translate(33.01851851851852 22.444444444444443)"/><use xlink:href="#h" transform="matrix(1,0,0,1,486,731) translate(22.32716049382716 22.444444444444443)"/><use xlink:href="#h" transform="matrix(1,0,0,1,554.6721960696406,731) translate(22.32716049382716 22.444444444444443)"/><use xlink:href="#h" transform="matrix(1,0,0,1,623.3443921392811,731) translate(11.827160493827162 22.444444444444443)"/><use xlink:href="#i" transform="matrix(1,0,0,1,670.4967496077113,731) translate(42.89506172839506 22.444444444444443)"/><use xlink:href="#j" transform="matrix(1,0,0,1,486,767) translate(22.32716049382716 22.444444444444443)"/><use xlink:href="#h" transform="matrix(1,0,0,1,554.6721960696406,767) translate(22.32716049382716 22.444444444444443)"/><use xlink:href="#j" transform="matrix(1,0,0,1,623.3443921392811,767) translate(11.827160493827162 22.444444444444443)"/><use xlink:href="#k" transform="matrix(1,0,0,1,670.4967496077113,767) translate(46.5679012345679 22.444444444444443)"/><use xlink:href="#h" transform="matrix(1,0,0,1,486,803) translate(22.32716049382716 22.444444444444443)"/><use xlink:href="#j" transform="matrix(1,0,0,1,554.6721960696406,803) translate(22.32716049382716 22.444444444444443)"/><use xlink:href="#j" transform="matrix(1,0,0,1,623.3443921392811,803) translate(11.827160493827162 22.444444444444443)"/><use xlink:href="#k" transform="matrix(1,0,0,1,670.4967496077113,803) translate(46.5679012345679 22.444444444444443)"/><use xlink:href="#j" transform="matrix(1,0,0,1,486,839) translate(22.32716049382716 22.444444444444443)"/><use xlink:href="#j" transform="matrix(1,0,0,1,554.6721960696406,839) translate(22.32716049382716 22.444444444444443)"/><use xlink:href="#j" transform="matrix(1,0,0,1,623.3443921392811,839) translate(11.827160493827162 22.444444444444443)"/><use xlink:href="#l" transform="matrix(1,0,0,1,670.4967496077113,839) translate(46.5679012345679 22.444444444444443)"/><defs><path fill="#333" d="M14-72v-43h91v43H14" id="m"/><path fill="#333" d="M101-251c68 0 84 54 84 127C185-50 166 4 99 4S15-52 14-124c-1-75 17-127 87-127zm-1 216c37-5 36-46 36-89s4-89-36-89c-39 0-36 45-36 89 0 43-3 85 36 89" id="n"/><path fill="#333" d="M24 0v-54h51V0H24" id="o"/><path fill="#333" d="M139-81c0-46-55-55-73-27H18l9-140h149v37H72l-4 63c44-38 133-4 122 66C201 21 21 35 11-62l49-4c5 18 15 30 39 30 26 0 40-18 40-45" id="p"/><g id="a"><use transform="matrix(0.07407407407407407,0,0,0.07407407407407407,0,0)" xlink:href="#m"/><use transform="matrix(0.07407407407407407,0,0,0.07407407407407407,8.814814814814815,0)" xlink:href="#n"/><use transform="matrix(0.07407407407407407,0,0,0.07407407407407407,23.629629629629623,0)" xlink:href="#o"/><use transform="matrix(0.07407407407407407,0,0,0.07407407407407407,31.03703703703703,0)" xlink:href="#p"/></g><path fill="#333" d="M23 0v-37h61v-169l-59 37v-38l62-41h46v211h57V0H23" id="q"/><use transform="matrix(0.07407407407407407,0,0,0.07407407407407407,0,0)" xlink:href="#q" id="b"/><g id="c"><use transform="matrix(0.07407407407407407,0,0,0.07407407407407407,0,0)" xlink:href="#m"/><use transform="matrix(0.07407407407407407,0,0,0.07407407407407407,8.814814814814815,0)" xlink:href="#q"/><use transform="matrix(0.07407407407407407,0,0,0.07407407407407407,23.629629629629623,0)" xlink:href="#o"/><use transform="matrix(0.07407407407407407,0,0,0.07407407407407407,31.03703703703703,0)" xlink:href="#p"/></g><path fill="#333" d="M141 0L90-78 38 0H4l68-98-65-92h35l48 74 47-74h35l-64 92 68 98h-35" id="r"/><path fill="#333" d="M27 0v-27h64v-190l-56 39v-29l58-41h29v221h61V0H27" id="s"/><g id="d"><use transform="matrix(0.06172839506172839,0,0,0.06172839506172839,0,0)" xlink:href="#r"/><use transform="matrix(0.06172839506172839,0,0,0.06172839506172839,11.11111111111111,0)" xlink:href="#s"/></g><path fill="#333" d="M101-251c82-7 93 87 43 132L82-64C71-53 59-42 53-27h129V0H18c2-99 128-94 128-182 0-28-16-43-45-43s-46 15-49 41l-32-3c6-41 34-60 81-64" id="t"/><g id="e"><use transform="matrix(0.06172839506172839,0,0,0.06172839506172839,0,0)" xlink:href="#r"/><use transform="matrix(0.06172839506172839,0,0,0.06172839506172839,11.11111111111111,0)" xlink:href="#t"/></g><path fill="#333" d="M179-190L93 31C79 59 56 82 12 73V49c39 6 53-20 64-50L1-190h34L92-34l54-156h33" id="u"/><use transform="matrix(0.06172839506172839,0,0,0.06172839506172839,0,0)" xlink:href="#u" id="f"/><path fill="#333" d="M185-189c-5-48-123-54-124 2 14 75 158 14 163 119 3 78-121 87-175 55-17-10-28-26-33-46l33-7c5 56 141 63 141-1 0-78-155-14-162-118-5-82 145-84 179-34 5 7 8 16 11 25" id="v"/><path fill="#333" d="M96-169c-40 0-48 33-48 73s9 75 48 75c24 0 41-14 43-38l32 2c-6 37-31 61-74 61-59 0-76-41-82-99-10-93 101-131 147-64 4 7 5 14 7 22l-32 3c-4-21-16-35-41-35" id="w"/><path fill="#333" d="M100-194c62-1 85 37 85 99 1 63-27 99-86 99S16-35 15-95c0-66 28-99 85-99zM99-20c44 1 53-31 53-75 0-43-8-75-51-75s-53 32-53 75 10 74 51 75" id="x"/><path fill="#333" d="M114-163C36-179 61-72 57 0H25l-1-190h30c1 12-1 29 2 39 6-27 23-49 58-41v29" id="y"/><path fill="#333" d="M100-194c63 0 86 42 84 106H49c0 40 14 67 53 68 26 1 43-12 49-29l28 8c-11 28-37 45-77 45C44 4 14-33 15-96c1-61 26-98 85-98zm52 81c6-60-76-77-97-28-3 7-6 17-6 28h103" id="z"/><g id="g"><use transform="matrix(0.06172839506172839,0,0,0.06172839506172839,0,0)" xlink:href="#v"/><use transform="matrix(0.06172839506172839,0,0,0.06172839506172839,14.814814814814813,0)" xlink:href="#w"/><use transform="matrix(0.06172839506172839,0,0,0.06172839506172839,25.925925925925924,0)" xlink:href="#x"/><use transform="matrix(0.06172839506172839,0,0,0.06172839506172839,38.2716049382716,0)" xlink:href="#y"/><use transform="matrix(0.06172839506172839,0,0,0.06172839506172839,45.61728395061728,0)" xlink:href="#z"/></g><path fill="#333" d="M101-251c68 0 85 55 85 127S166 4 100 4C33 4 14-52 14-124c0-73 17-127 87-127zm-1 229c47 0 54-49 54-102s-4-102-53-102c-51 0-55 48-55 102 0 53 5 102 54 102" id="A"/><use transform="matrix(0.06172839506172839,0,0,0.06172839506172839,0,0)" xlink:href="#A" id="h"/><path fill="#333" d="M16-82v-28h88v28H16" id="B"/><path fill="#333" d="M33 0v-38h34V0H33" id="C"/><path fill="#333" d="M54-142c48-35 137-8 131 61C196 18 31 33 14-55l32-4c7 23 22 37 52 37 35-1 51-22 54-58 4-55-73-65-99-34H22l8-134h141v27H59" id="D"/><g id="i"><use transform="matrix(0.06172839506172839,0,0,0.06172839506172839,0,0)" xlink:href="#B"/><use transform="matrix(0.06172839506172839,0,0,0.06172839506172839,7.345679012345679,0)" xlink:href="#A"/><use transform="matrix(0.06172839506172839,0,0,0.06172839506172839,19.691358024691358,0)" xlink:href="#C"/><use transform="matrix(0.06172839506172839,0,0,0.06172839506172839,25.864197530864196,0)" xlink:href="#D"/></g><use transform="matrix(0.06172839506172839,0,0,0.06172839506172839,0,0)" xlink:href="#s" id="j"/><g id="k"><use transform="matrix(0.06172839506172839,0,0,0.06172839506172839,0,0)" xlink:href="#A"/><use transform="matrix(0.06172839506172839,0,0,0.06172839506172839,12.345679012345679,0)" xlink:href="#C"/><use transform="matrix(0.06172839506172839,0,0,0.06172839506172839,18.51851851851852,0)" xlink:href="#D"/></g><g id="l"><use transform="matrix(0.06172839506172839,0,0,0.06172839506172839,0,0)" xlink:href="#s"/><use transform="matrix(0.06172839506172839,0,0,0.06172839506172839,12.345679012345679,0)" xlink:href="#C"/><use transform="matrix(0.06172839506172839,0,0,0.06172839506172839,18.51851851851852,0)" xlink:href="#D"/></g></defs></g></svg>