<svg xmlns="http://www.w3.org/2000/svg" xmlns:lucid="lucid" width="1120" height="480"><g lucid:page-tab-id="Ncg9Ffg6Oaf6"><path d="M140 80c0 33.14-26.86 60-60 60s-60-26.86-60-60 26.86-60 60-60 60 26.86 60 60zM140 240c0 33.14-26.86 60-60 60s-60-26.86-60-60 26.86-60 60-60 60 26.86 60 60zM140 400c0 33.14-26.86 60-60 60s-60-26.86-60-60 26.86-60 60-60 60 26.86 60 60z" stroke="#5e5e5e" stroke-width="3" fill="#d1bcd2"/><path d="M47 213.2h66v53.6H47z" fill="#fff" fill-opacity="0"/><path d="M67.04 231.33L70 226.8c1.7-2.64 4-5.53 7.3-5.53 2.1 0 3.2.8 3.2 2.17 0 1.25-.84 2.76-2.55 2.76-1.45 0-1.77-.6-2.9-.6-1.96 0-2.7 1.06-3.6 2.5l-3.62 5.6c1.97 4.07 3.48 12.94 6.44 12.94 1.05 0 2.63-.92 4-3.75l.93.65c-.8.98-3.75 7.3-7.56 7.3-2.7 0-3.94-2.7-4.8-5.07l-2.63-7.42-4.13 6.44c-2.1 3.22-4 6.04-7.68 6.04-2.38 0-3.43-1.64-3.43-3.1 0-1.04.85-2.42 2.5-2.42 1.7 0 1.44 1.32 3.08 1.32.8 0 2.5-.66 4.6-3.88l4.28-6.64-2.17-6.04c-1.12-3.16-2.83-5.85-6.44-5.85-.86 0-1.84.13-2.5.4l-.2-1.2 8.68-2.16c2.9 1.58 4.14 4.27 4.93 6.44M101.45 260.15H88.63v-.7c3.44-.18 4.4-1.16 4.4-3.72v-20.86c0-1.58-.4-2.27-1.38-2.27-.47 0-1.26.23-2.1.55l-1.25.47v-.65l8.32-4.23.42.14v27.74c0 2 .93 2.83 4.4 2.83v.7"/><path d="M63.55 51.16h32.9v57.68h-32.9z" fill="#fff" fill-opacity="0"/><path d="M89.45 100.5H71.3v-.98c4.87-.26 6.25-1.64 6.25-5.26v-29.5c0-2.24-.6-3.23-1.97-3.23-.66 0-1.77.33-2.96.8l-1.77.65v-.92l11.76-5.98.6.2V95.5c0 2.84 1.32 4.02 6.25 4.02v.98"/><path d="M47 373.2h66v53.6H47z" fill="#fff" fill-opacity="0"/><path d="M67.04 391.33L70 386.8c1.7-2.64 4-5.53 7.3-5.53 2.1 0 3.2.8 3.2 2.17 0 1.25-.84 2.76-2.55 2.76-1.45 0-1.77-.6-2.9-.6-1.96 0-2.7 1.06-3.6 2.5l-3.62 5.6c1.97 4.07 3.48 12.94 6.44 12.94 1.05 0 2.63-.92 4-3.75l.93.65c-.8.98-3.75 7.3-7.56 7.3-2.7 0-3.94-2.7-4.8-5.07l-2.63-7.42-4.13 6.44c-2.1 3.22-4 6.04-7.68 6.04-2.38 0-3.43-1.64-3.43-3.1 0-1.04.85-2.42 2.5-2.42 1.7 0 1.44 1.32 3.08 1.32.8 0 2.5-.66 4.6-3.88l4.28-6.64-2.17-6.04c-1.12-3.16-2.83-5.85-6.44-5.85-.86 0-1.84.13-2.5.4l-.2-1.2 8.68-2.16c2.9 1.58 4.14 4.27 4.93 6.44M105.17 413.78l-2.5 6.37H84.48v-.56l8.26-8.8c4.37-4.6 6.04-8.12 6.04-12.07 0-4.23-2.5-6.55-6.46-6.55-3.34 0-4.97 1.48-6.83 6.04l-.96-.23c.97-5.45 3.95-9.26 9.66-9.26 5.25 0 8.6 3.58 8.6 8.18 0 3.67-1.8 7.15-5.95 11.52l-7.67 8.18h10.88c1.95 0 2.92-.5 4.46-3.12"/><path d="M620 80c0 33.14-26.86 60-60 60s-60-26.86-60-60 26.86-60 60-60 60 26.86 60 60zM620 240c0 33.14-26.86 60-60 60s-60-26.86-60-60 26.86-60 60-60 60 26.86 60 60zM620 400c0 33.14-26.86 60-60 60s-60-26.86-60-60 26.86-60 60-60 60 26.86 60 60z" stroke="#5e5e5e" stroke-width="3" fill="#c1e4f7"/><path d="M527 213.2h62.65v53.6H527z" fill="#fff" fill-opacity="0"/><path d="M557.7 220.68v1.05l-21.17 23.66.2.05c1.24-.92 2.88-1.38 4.4-1.38 6.04 0 6.24 5.66 9.2 5.66.98 0 1.77-.53 1.77-1.58 0-.86-.8-1.05-.8-2.5 0-1.25 1.26-2.5 2.5-2.5 1.65 0 2.64 1.2 2.64 2.76 0 3.56-3.94 5.27-6.97 5.27-1.44 0-3.1-.6-4.47-.92-2.1-.6-4.33-.92-6.5-.92-2.63 0-5.6.53-8.02 1.58l-.72-.65 21.55-24.3h-8.6c-3.74 0-5.32.38-6.83 4l-1.18-.27 2.35-9h20.64M578.1 260.15H565.3v-.7c3.44-.18 4.42-1.16 4.42-3.72v-20.86c0-1.58-.42-2.27-1.4-2.27-.46 0-1.25.23-2.1.55l-1.24.47v-.65l8.3-4.23.43.14v27.74c0 2 .92 2.83 4.4 2.83v.7"/><path d="M543.55 51.16h32.9v57.68h-32.9z" fill="#fff" fill-opacity="0"/><path d="M569.45 100.5H551.3v-.98c4.87-.26 6.25-1.64 6.25-5.26v-29.5c0-2.24-.6-3.23-1.97-3.23-.66 0-1.77.33-2.96.8l-1.77.65v-.92l11.76-5.98.6.2V95.5c0 2.84 1.32 4.02 6.25 4.02v.98"/><path d="M527 373.2h62.65v53.6H527z" fill="#fff" fill-opacity="0"/><path d="M557.7 380.68v1.05l-21.17 23.66.2.05c1.24-.92 2.88-1.38 4.4-1.38 6.04 0 6.24 5.66 9.2 5.66.98 0 1.77-.53 1.77-1.58 0-.86-.8-1.05-.8-2.5 0-1.25 1.26-2.5 2.5-2.5 1.65 0 2.64 1.2 2.64 2.76 0 3.56-3.94 5.27-6.97 5.27-1.44 0-3.1-.6-4.47-.92-2.1-.6-4.33-.92-6.5-.92-2.63 0-5.6.53-8.02 1.58l-.72-.65 21.55-24.3h-8.6c-3.74 0-5.32.38-6.83 4l-1.18-.27 2.35-9h20.64M581.82 413.78l-2.5 6.37h-18.17v-.56l8.27-8.8c4.36-4.6 6.04-8.12 6.04-12.07 0-4.23-2.5-6.55-6.46-6.55-3.35 0-4.97 1.48-6.83 6.04l-.98-.23c.97-5.45 3.94-9.26 9.66-9.26 5.25 0 8.6 3.58 8.6 8.18 0 3.67-1.82 7.15-5.95 11.52l-7.66 8.18h10.87c1.96 0 2.94-.5 4.47-3.12"/><path d="M1100 240c0 33.14-26.86 60-60 60s-60-26.86-60-60 26.86-60 60-60 60 26.86 60 60z" stroke="#5e5e5e" stroke-width="3" fill="#c7e8ac"/><path d="M1023.7 213.2h32.6v53.6h-32.6z" fill="#fff" fill-opacity="0"/><path d="M1041.43 230.08l1.84 15.44c4-5.45 6.3-9.4 7.75-12.1 1.32-2.42 1.84-3.74 1.84-4.92 0-1.38-3.4-2.04-3.4-4.53 0-1.45 1.17-2.63 3.08-2.63 2.1 0 3.74 1.5 3.74 4.07 0 5.14-10.64 20.9-13.4 24.4-4.8 6.04-9.07 12.48-13.54 12.48-2.43 0-3.68-2.04-3.68-3.62 0-1.97 1.77-2.7 2.63-2.7 2.8 0 2.68 2.05 3.73 2.05 1.12 0 4.86-4.07 6.57-6.7l-2.5-20.63c-.32-2.96-.9-6.9-4.6-6.9-.72 0-1.77.2-2.36.26l-.13-1.05 9.87-1.64c1.5 2.16 1.97 3.87 2.56 8.74"/><path d="M142.4 80.4l339.22 152.03" stroke="#5e5e5e" stroke-width="2" fill="none"/><path d="M142.85 79.5l-.82 1.83-.57-.25.04-1.08-.04-1.1z" fill="#5e5e5e"/><path d="M495.55 238.68l-14.92-1.6 3.8-8.47z" stroke="#5e5e5e" stroke-width="2" fill="#5e5e5e"/><path d="M142.25 80.67l342.47 306.98" stroke="#5e5e5e" stroke-width="2" fill="none"/><path d="M142.93 79.94l-1.33 1.5-.15-.15.05-1.3-.05-1.4z" fill="#5e5e5e"/><path d="M496.1 397.84l-13.73-6.07 6.2-6.9z" stroke="#5e5e5e" stroke-width="2" fill="#5e5e5e"/><path d="M142.5 240H480" stroke="#5e5e5e" stroke-width="2" fill="none"/><path d="M142.53 241h-1.07l.04-1-.03-1h1.06z" fill="#5e5e5e"/><path d="M495.26 240L481 244.64v-9.28z" stroke="#5e5e5e" stroke-width="2" fill="#5e5e5e"/><path d="M142.4 240.4l339.22 152.03" stroke="#5e5e5e" stroke-width="2" fill="none"/><path d="M142.85 239.5l-.82 1.83-.57-.25.04-1.08-.04-1.1z" fill="#5e5e5e"/><path d="M495.55 398.68l-14.92-1.6 3.8-8.47z" stroke="#5e5e5e" stroke-width="2" fill="#5e5e5e"/><path d="M142.4 399.6l339.22-152.03" stroke="#5e5e5e" stroke-width="2" fill="none"/><path d="M142.85 400.5l-1.4.62.05-1.12-.04-1.08.57-.25z" fill="#5e5e5e"/><path d="M495.55 241.32l-11.13 10.07-3.8-8.47z" stroke="#5e5e5e" stroke-width="2" fill="#5e5e5e"/><path d="M142.5 400H480" stroke="#5e5e5e" stroke-width="2" fill="none"/><path d="M142.53 401h-1.07l.04-1-.03-1h1.06z" fill="#5e5e5e"/><path d="M495.26 400L481 404.64v-9.28z" stroke="#5e5e5e" stroke-width="2" fill="#5e5e5e"/><path d="M622.4 80.4l339.22 152.03" stroke="#5e5e5e" stroke-width="2" fill="none"/><path d="M622.85 79.5l-.82 1.83-.57-.25.04-1.08-.04-1.1z" fill="#5e5e5e"/><path d="M975.55 238.68l-14.92-1.6 3.8-8.47z" stroke="#5e5e5e" stroke-width="2" fill="#5e5e5e"/><path d="M622.5 240H960" stroke="#5e5e5e" stroke-width="2" fill="none"/><path d="M622.53 241h-1.07l.04-1-.03-1h1.06z" fill="#5e5e5e"/><path d="M975.26 240L961 244.64v-9.28z" stroke="#5e5e5e" stroke-width="2" fill="#5e5e5e"/><path d="M622.4 399.6l339.22-152.03" stroke="#5e5e5e" stroke-width="2" fill="none"/><path d="M622.85 400.5l-1.4.62.05-1.12-.04-1.08.57-.25z" fill="#5e5e5e"/><path d="M975.55 241.32l-11.13 10.07-3.8-8.47z" stroke="#5e5e5e" stroke-width="2" fill="#5e5e5e"/></g></svg>