<svg xmlns="http://www.w3.org/2000/svg" xmlns:xlink="http://www.w3.org/1999/xlink" xmlns:lucid="lucid" width="1024.64" height="680"><g transform="translate(-155.35819430814524 -360)" lucid:page-tab-id="n4M7q7XUqTB4"><path d="M240 999V418.5M240 998.97v1.03" stroke="#000" stroke-width="2" fill="none"/><path d="M240 403.24l4.64 14.26h-9.28z" stroke="#000" stroke-width="2"/><path d="M201 960h580.5M201.03 960H200" stroke="#000" stroke-width="2" fill="none"/><path d="M796.76 960l-14.26 4.64v-9.28z" stroke="#000" stroke-width="2"/><path d="M260 980h40v40h-40z" stroke="#000" stroke-opacity="0" stroke-width="2" fill="#fff" fill-opacity="0"/><use xlink:href="#a" transform="matrix(1,0,0,1,265,985) translate(7.592592592592592 23.208333333333336)"/><path d="M580 980h40v40h-40z" stroke="#000" stroke-opacity="0" stroke-width="2" fill="#fff" fill-opacity="0"/><use xlink:href="#b" transform="matrix(1,0,0,1,585,985) translate(7.592592592592592 23.208333333333336)"/><path d="M180 900h40v40h-40z" stroke="#000" stroke-opacity="0" stroke-width="2" fill="#fff" fill-opacity="0"/><use xlink:href="#a" transform="matrix(1,0,0,1,185,905) translate(7.592592592592592 23.208333333333336)"/><path d="M180 580h40v40h-40z" stroke="#000" stroke-opacity="0" stroke-width="2" fill="#fff" fill-opacity="0"/><use xlink:href="#b" transform="matrix(1,0,0,1,185,585) translate(7.592592592592592 23.208333333333336)"/><path d="M780 980h49.28v40H780z" fill="#fff" fill-opacity="0"/><path d="M794.97 993.52l2.2-3.38c1.28-1.97 3-4.12 5.45-4.12 1.57 0 2.4.58 2.4 1.6 0 .95-.63 2.08-1.9 2.08-1.1 0-1.33-.45-2.17-.45-1.47 0-2 .8-2.7 1.87l-2.7 4.17c1.48 3.03 2.6 9.66 4.8 9.66.8 0 1.98-.7 3-2.8l.7.5c-.6.73-2.8 5.44-5.65 5.44-2 0-2.94-2.02-3.58-3.78l-1.96-5.55-3.1 4.8c-1.57 2.42-3 4.53-5.74 4.53-1.76 0-2.55-1.23-2.55-2.3 0-.8.64-1.83 1.87-1.83 1.27 0 1.08 1 2.3 1 .6 0 1.87-.5 3.44-2.9l3.2-4.96-1.63-4.5c-.84-2.36-2.1-4.38-4.8-4.38-.65 0-1.38.1-1.88.3l-.14-.9 6.47-1.6c2.16 1.17 3.1 3.2 3.68 4.8M820.66 1015.04h-9.58v-.52c2.57-.14 3.3-.86 3.3-2.77v-15.58c0-1.18-.3-1.7-1.04-1.7-.35 0-.94.18-1.56.42l-.94.34v-.5l6.2-3.15.32.1v20.7c0 1.5.7 2.12 3.3 2.12v.52"/><path d="M175.36 380h49.28v40h-49.28z" fill="#fff" fill-opacity="0"/><path d="M190.32 393.52l2.2-3.38c1.3-1.97 3-4.12 5.46-4.12 1.57 0 2.4.58 2.4 1.6 0 .95-.64 2.08-1.9 2.08-1.1 0-1.34-.45-2.17-.45-1.46 0-2 .8-2.7 1.87l-2.7 4.17c1.48 3.03 2.6 9.66 4.82 9.66.8 0 1.96-.7 3-2.8l.68.5c-.6.73-2.8 5.44-5.64 5.44-2 0-2.95-2.02-3.58-3.78l-1.97-5.55-3.08 4.8c-1.57 2.42-3 4.53-5.74 4.53-1.76 0-2.55-1.23-2.55-2.3 0-.8.64-1.83 1.86-1.83 1.27 0 1.07 1 2.3 1 .6 0 1.87-.5 3.44-2.9l3.2-4.96-1.63-4.5c-.83-2.36-2.1-4.38-4.8-4.38-.64 0-1.38.1-1.87.3l-.14-.9 6.46-1.6c2.16 1.17 3.1 3.2 3.68 4.8M216.02 415.04h-9.58v-.52c2.57-.14 3.3-.86 3.3-2.77v-15.58c0-1.18-.32-1.7-1.04-1.7-.35 0-.94.18-1.56.42l-.94.34v-.5l6.2-3.15.32.1v20.7c0 1.5.7 2.12 3.3 2.12v.52"/><path d="M354.32 591.44h-25.76v-25.76c0-3.12-2.56-5.68-5.68-5.68h-5.76c-3.12 0-5.68 2.56-5.68 5.68v25.76h-25.76c-3.12 0-5.68 2.56-5.68 5.68v5.76c0 3.12 2.56 5.68 5.68 5.68h25.76v25.76c0 3.12 2.56 5.68 5.68 5.68h5.76c3.12 0 5.68-2.56 5.68-5.68v-25.76h25.76c3.12 0 5.68-2.56 5.68-5.68v-5.76c0-3.12-2.56-5.68-5.68-5.68zM634.32 871.44h-25.76v-25.76c0-3.12-2.56-5.68-5.68-5.68h-5.76c-3.12 0-5.68 2.56-5.68 5.68v25.76h-25.76c-3.12 0-5.68 2.56-5.68 5.68v5.76c0 3.12 2.56 5.68 5.68 5.68h25.76v25.76c0 3.12 2.56 5.68 5.68 5.68h5.76c3.12 0 5.68-2.56 5.68-5.68v-25.76h25.76c3.12 0 5.68-2.56 5.68-5.68v-5.76c0-3.12-2.56-5.68-5.68-5.68z" stroke="#000" stroke-opacity="0" stroke-width=".29" fill="#834187"/><path d="M354.32 871.43h-68.64c-3.12 0-5.68 2.55-5.68 5.7v5.73c0 3.16 2.56 5.7 5.68 5.7h68.64c3.12 0 5.68-2.54 5.68-5.7v-5.72c0-3.16-2.56-5.7-5.68-5.7zM634.32 591.43h-68.64c-3.12 0-5.68 2.55-5.68 5.7v5.73c0 3.16 2.56 5.7 5.68 5.7h68.64c3.12 0 5.68-2.54 5.68-5.7v-5.72c0-3.16-2.56-5.7-5.68-5.7z" stroke="#000" stroke-opacity="0" stroke-width=".29" fill="#c92d39"/><path d="M880 546c0-3.3 2.7-6 6-6h228c3.3 0 6 2.7 6 6v108c0 3.3-2.7 6-6 6H886c-3.3 0-6-2.7-6-6z" stroke="#5e5e5e" stroke-width="3" fill="#834187"/><use xlink:href="#c" transform="matrix(1,0,0,1,885,545) translate(86.14814814814815 35.08333333333333)"/><use xlink:href="#d" transform="matrix(1,0,0,1,885,545) translate(5.216049382716051 63.52777777777778)"/><use xlink:href="#e" transform="matrix(1,0,0,1,885,545) translate(42.25308641975309 63.52777777777778)"/><use xlink:href="#f" transform="matrix(1,0,0,1,885,545) translate(206.26543209876542 63.52777777777778)"/><use xlink:href="#g" transform="matrix(1,0,0,1,885,545) translate(63.82716049382716 90.19444444444446)"/><path d="M840 846c0-3.3 2.7-6 6-6h308c3.3 0 6 2.7 6 6v68c0 3.3-2.7 6-6 6H846c-3.3 0-6-2.7-6-6z" stroke="#5e5e5e" stroke-width="3" fill="#0c7cba"/><use xlink:href="#h" transform="matrix(1,0,0,1,845,845) translate(32.96296296296295 39.65277777777778)"/><use xlink:href="#i" transform="matrix(1,0,0,1,845,845) translate(92.16049382716048 39.65277777777778)"/><use xlink:href="#j" transform="matrix(1,0,0,1,845,845) translate(196.85185185185185 39.65277777777778)"/><path d="M261.77 798.23l7.08-7.08M283 777l14.17-14.17m14.16-14.16l14.16-14.16m14.14-14.14l14.16-14.16m14.16-14.16l14.16-14.16m14.16-14.16l14.16-14.16m14.16-14.16l14.16-14.16m14.16-14.16l14.16-14.16m14.16-14.16l14.16-14.16m14.16-14.16l14.16-14.16m14.16-14.16l14.16-14.16m14.16-14.16l14.16-14.16m14.15-14.15l14.17-14.17m14.16-14.16L637 423m14.15-14.15l7.08-7.08M261.8 798.2L260 800M658.2 401.8l1.8-1.8" stroke="#c92d39" stroke-width="5" fill="none"/><defs><path d="M101-251c68 0 85 55 85 127S166 4 100 4C33 4 14-52 14-124c0-73 17-127 87-127zm-1 229c47 0 54-49 54-102s-4-102-53-102c-51 0-55 48-55 102 0 53 5 102 54 102" id="k"/><use transform="matrix(0.07407407407407408,0,0,0.07407407407407408,0,0)" xlink:href="#k" id="a"/><path d="M27 0v-27h64v-190l-56 39v-29l58-41h29v221h61V0H27" id="l"/><use transform="matrix(0.07407407407407408,0,0,0.07407407407407408,0,0)" xlink:href="#l" id="b"/><path fill="#fff" d="M182 0l-62-99L58 0H3l86-130-79-118h55l55 88 55-88h55l-75 118L237 0h-55" id="m"/><path fill="#fff" d="M140-251c80 0 125 45 125 126S219 4 139 4C58 4 15-44 15-125s44-126 125-126zm-1 214c52 0 73-35 73-88 0-50-21-86-72-86-52 0-73 35-73 86s22 88 72 88" id="n"/><path fill="#fff" d="M240-174c0 40-23 61-54 70L253 0h-59l-57-94H76V0H24v-248c93 4 217-23 216 74zM76-134c48-2 112 12 112-38 0-48-66-32-112-35v73" id="o"/><g id="c"><use transform="matrix(0.07407407407407407,0,0,0.07407407407407407,0,0)" xlink:href="#m"/><use transform="matrix(0.07407407407407407,0,0,0.07407407407407407,17.77777777777778,0)" xlink:href="#n"/><use transform="matrix(0.07407407407407407,0,0,0.07407407407407407,38.51851851851852,0)" xlink:href="#o"/></g><path fill="#fff" d="M59-47c-2 24 18 29 38 22v24C64 9 27 4 27-40v-127H5v-23h24l9-43h21v43h35v23H59v120" id="p"/><path fill="#fff" d="M106-169C34-169 62-67 57 0H25v-261h32l-1 103c12-21 28-36 61-36 89 0 53 116 60 194h-32v-121c2-32-8-49-39-48" id="q"/><path fill="#fff" d="M100-194c63 0 86 42 84 106H49c0 40 14 67 53 68 26 1 43-12 49-29l28 8c-11 28-37 45-77 45C44 4 14-33 15-96c1-61 26-98 85-98zm52 81c6-60-76-77-97-28-3 7-6 17-6 28h103" id="r"/><g id="d"><use transform="matrix(0.06172839506172839,0,0,0.06172839506172839,0,0)" xlink:href="#p"/><use transform="matrix(0.06172839506172839,0,0,0.06172839506172839,6.172839506172839,0)" xlink:href="#q"/><use transform="matrix(0.06172839506172839,0,0,0.06172839506172839,18.51851851851852,0)" xlink:href="#r"/></g><path fill="#fff" d="M96-169c-40 0-48 33-48 73s9 75 48 75c24 0 41-14 43-38l32 2c-6 37-31 61-74 61-59 0-76-41-82-99-10-93 101-131 147-64 4 7 5 14 7 22l-32 3c-4-21-16-35-41-35" id="s"/><path fill="#fff" d="M100-194c62-1 85 37 85 99 1 63-27 99-86 99S16-35 15-95c0-66 28-99 85-99zM99-20c44 1 53-31 53-75 0-43-8-75-51-75s-53 32-53 75 10 74 51 75" id="t"/><path fill="#fff" d="M84 4C-5 8 30-112 23-190h32v120c0 31 7 50 39 49 72-2 45-101 50-169h31l1 190h-30c-1-10 1-25-2-33-11 22-28 36-60 37" id="u"/><path fill="#fff" d="M117-194c89-4 53 116 60 194h-32v-121c0-31-8-49-39-48C34-167 62-67 57 0H25l-1-190h30c1 10-1 24 2 32 11-22 29-35 61-36" id="v"/><path fill="#fff" d="M114-163C36-179 61-72 57 0H25l-1-190h30c1 12-1 29 2 39 6-27 23-49 58-41v29" id="w"/><path fill="#fff" d="M141 0L90-78 38 0H4l68-98-65-92h35l48 74 47-74h35l-64 92 68 98h-35" id="x"/><path fill="#fff" d="M141-36C126-15 110 5 73 4 37 3 15-17 15-53c-1-64 63-63 125-63 3-35-9-54-41-54-24 1-41 7-42 31l-33-3c5-37 33-52 76-52 45 0 72 20 72 64v82c-1 20 7 32 28 27v20c-31 9-61-2-59-35zM48-53c0 20 12 33 32 33 41-3 63-29 60-74-43 2-92-5-92 41" id="y"/><path fill="#fff" d="M210-169c-67 3-38 105-44 169h-31v-121c0-29-5-50-35-48C34-165 62-65 56 0H25l-1-190h30c1 10-1 24 2 32 10-44 99-50 107 0 11-21 27-35 58-36 85-2 47 119 55 194h-31v-121c0-29-5-49-35-48" id="z"/><path fill="#fff" d="M115-194c55 1 70 41 70 98S169 2 115 4C84 4 66-9 55-30l1 105H24l-1-265h31l2 30c10-21 28-34 59-34zm-8 174c40 0 45-34 45-75s-6-73-45-74c-42 0-51 32-51 76 0 43 10 73 51 73" id="A"/><path fill="#fff" d="M24 0v-261h32V0H24" id="B"/><g id="e"><use transform="matrix(0.06172839506172839,0,0,0.06172839506172839,0,0)" xlink:href="#s"/><use transform="matrix(0.06172839506172839,0,0,0.06172839506172839,11.11111111111111,0)" xlink:href="#t"/><use transform="matrix(0.06172839506172839,0,0,0.06172839506172839,23.45679012345679,0)" xlink:href="#u"/><use transform="matrix(0.06172839506172839,0,0,0.06172839506172839,35.80246913580247,0)" xlink:href="#v"/><use transform="matrix(0.06172839506172839,0,0,0.06172839506172839,48.148148148148145,0)" xlink:href="#p"/><use transform="matrix(0.06172839506172839,0,0,0.06172839506172839,54.32098765432099,0)" xlink:href="#r"/><use transform="matrix(0.06172839506172839,0,0,0.06172839506172839,66.66666666666667,0)" xlink:href="#w"/><use transform="matrix(0.06172839506172839,0,0,0.06172839506172839,74.01234567901236,0)" xlink:href="#r"/><use transform="matrix(0.06172839506172839,0,0,0.06172839506172839,86.35802469135804,0)" xlink:href="#x"/><use transform="matrix(0.06172839506172839,0,0,0.06172839506172839,97.46913580246915,0)" xlink:href="#y"/><use transform="matrix(0.06172839506172839,0,0,0.06172839506172839,109.81481481481484,0)" xlink:href="#z"/><use transform="matrix(0.06172839506172839,0,0,0.06172839506172839,128.27160493827162,0)" xlink:href="#A"/><use transform="matrix(0.06172839506172839,0,0,0.06172839506172839,140.6172839506173,0)" xlink:href="#B"/><use transform="matrix(0.06172839506172839,0,0,0.06172839506172839,145.49382716049382,0)" xlink:href="#r"/></g><g id="f"><use transform="matrix(0.06172839506172839,0,0,0.06172839506172839,0,0)" xlink:href="#p"/><use transform="matrix(0.06172839506172839,0,0,0.06172839506172839,6.172839506172839,0)" xlink:href="#t"/></g><path fill="#fff" d="M108 0H70L1-190h34L89-25l56-165h34" id="C"/><path fill="#fff" d="M179-190L93 31C79 59 56 82 12 73V49c39 6 53-20 64-50L1-190h34L92-34l54-156h33" id="D"/><path fill="#fff" d="M24-231v-30h32v30H24zM24 0v-190h32V0H24" id="E"/><path fill="#fff" d="M177-190C167-65 218 103 67 71c-23-6-38-20-44-43l32-5c15 47 100 32 89-28v-30C133-14 115 1 83 1 29 1 15-40 15-95c0-56 16-97 71-98 29-1 48 16 59 35 1-10 0-23 2-32h30zM94-22c36 0 50-32 50-73 0-42-14-75-50-75-39 0-46 34-46 75s6 73 46 73" id="F"/><g id="g"><use transform="matrix(0.06172839506172839,0,0,0.06172839506172839,0,0)" xlink:href="#r"/><use transform="matrix(0.06172839506172839,0,0,0.06172839506172839,12.345679012345679,0)" xlink:href="#C"/><use transform="matrix(0.06172839506172839,0,0,0.06172839506172839,23.45679012345679,0)" xlink:href="#r"/><use transform="matrix(0.06172839506172839,0,0,0.06172839506172839,35.80246913580247,0)" xlink:href="#w"/><use transform="matrix(0.06172839506172839,0,0,0.06172839506172839,43.148148148148145,0)" xlink:href="#D"/><use transform="matrix(0.06172839506172839,0,0,0.06172839506172839,54.25925925925925,0)" xlink:href="#p"/><use transform="matrix(0.06172839506172839,0,0,0.06172839506172839,60.432098765432094,0)" xlink:href="#q"/><use transform="matrix(0.06172839506172839,0,0,0.06172839506172839,72.77777777777777,0)" xlink:href="#E"/><use transform="matrix(0.06172839506172839,0,0,0.06172839506172839,77.65432098765432,0)" xlink:href="#v"/><use transform="matrix(0.06172839506172839,0,0,0.06172839506172839,90,0)" xlink:href="#F"/></g><path fill="#fff" d="M190 0L58-211 59 0H30v-248h39L202-35l-2-213h31V0h-41" id="G"/><path fill="#fff" d="M85-194c31 0 48 13 60 33l-1-100h32l1 261h-30c-2-10 0-23-3-31C134-8 116 4 85 4 32 4 16-35 15-94c0-66 23-100 70-100zm9 24c-40 0-46 34-46 75 0 40 6 74 45 74 42 0 51-32 51-76 0-42-9-74-50-73" id="H"/><g id="h"><use transform="matrix(0.06172839506172839,0,0,0.06172839506172839,0,0)" xlink:href="#G"/><use transform="matrix(0.06172839506172839,0,0,0.06172839506172839,15.987654320987653,0)" xlink:href="#r"/><use transform="matrix(0.06172839506172839,0,0,0.06172839506172839,28.333333333333332,0)" xlink:href="#r"/><use transform="matrix(0.06172839506172839,0,0,0.06172839506172839,40.67901234567901,0)" xlink:href="#H"/></g><path fill="#fff" d="M16-82v-28h88v28H16" id="I"/><g id="i"><use transform="matrix(0.06172839506172839,0,0,0.06172839506172839,0,0)" xlink:href="#v"/><use transform="matrix(0.06172839506172839,0,0,0.06172839506172839,12.345679012345679,0)" xlink:href="#t"/><use transform="matrix(0.06172839506172839,0,0,0.06172839506172839,24.691358024691358,0)" xlink:href="#v"/><use transform="matrix(0.06172839506172839,0,0,0.06172839506172839,37.03703703703704,0)" xlink:href="#I"/><use transform="matrix(0.06172839506172839,0,0,0.06172839506172839,44.382716049382715,0)" xlink:href="#B"/><use transform="matrix(0.06172839506172839,0,0,0.06172839506172839,49.25925925925926,0)" xlink:href="#E"/><use transform="matrix(0.06172839506172839,0,0,0.06172839506172839,54.135802469135804,0)" xlink:href="#v"/><use transform="matrix(0.06172839506172839,0,0,0.06172839506172839,66.48148148148148,0)" xlink:href="#r"/><use transform="matrix(0.06172839506172839,0,0,0.06172839506172839,78.82716049382717,0)" xlink:href="#y"/><use transform="matrix(0.06172839506172839,0,0,0.06172839506172839,91.17283950617285,0)" xlink:href="#w"/></g><path fill="#fff" d="M101-234c-31-9-42 10-38 44h38v23H63V0H32v-167H5v-23h27c-7-52 17-82 69-68v24" id="J"/><path fill="#fff" d="M135-143c-3-34-86-38-87 0 15 53 115 12 119 90S17 21 10-45l28-5c4 36 97 45 98 0-10-56-113-15-118-90-4-57 82-63 122-42 12 7 21 19 24 35" id="K"/><g id="j"><use transform="matrix(0.06172839506172839,0,0,0.06172839506172839,0,0)" xlink:href="#J"/><use transform="matrix(0.06172839506172839,0,0,0.06172839506172839,6.172839506172839,0)" xlink:href="#r"/><use transform="matrix(0.06172839506172839,0,0,0.06172839506172839,18.51851851851852,0)" xlink:href="#y"/><use transform="matrix(0.06172839506172839,0,0,0.06172839506172839,30.864197530864196,0)" xlink:href="#p"/><use transform="matrix(0.06172839506172839,0,0,0.06172839506172839,37.03703703703704,0)" xlink:href="#u"/><use transform="matrix(0.06172839506172839,0,0,0.06172839506172839,49.382716049382715,0)" xlink:href="#w"/><use transform="matrix(0.06172839506172839,0,0,0.06172839506172839,56.72839506172839,0)" xlink:href="#r"/><use transform="matrix(0.06172839506172839,0,0,0.06172839506172839,69.07407407407408,0)" xlink:href="#K"/></g></defs></g></svg>