<svg xmlns="http://www.w3.org/2000/svg" xmlns:xlink="http://www.w3.org/1999/xlink" xmlns:lucid="lucid" width="1383.47" height="840"><g transform="translate(-140 -60)" lucid:page-tab-id="FYf93EJPrRYw"><path d="M360 380c0 33.14-26.86 60-60 60s-60-26.86-60-60 26.86-60 60-60 60 26.86 60 60zM360 540c0 33.14-26.86 60-60 60s-60-26.86-60-60 26.86-60 60-60 60 26.86 60 60zM360 700c0 33.14-26.86 60-60 60s-60-26.86-60-60 26.86-60 60-60 60 26.86 60 60z" stroke="#5e5e5e" stroke-width="3" fill="#d1bcd2"/><path d="M267 513.2h66v53.6h-66z" fill="#fff" fill-opacity="0"/><path d="M287.04 531.33l2.96-4.54c1.7-2.64 4-5.53 7.3-5.53 2.1 0 3.2.8 3.2 2.17 0 1.25-.84 2.76-2.55 2.76-1.45 0-1.77-.6-2.9-.6-1.96 0-2.7 1.06-3.6 2.5l-3.62 5.6c1.97 4.07 3.48 12.94 6.44 12.94 1.05 0 2.63-.92 4-3.75l.93.65c-.8.98-3.75 7.3-7.56 7.3-2.7 0-3.94-2.7-4.8-5.07l-2.63-7.42-4.13 6.44c-2.1 3.22-4 6.04-7.68 6.04-2.38 0-3.43-1.64-3.43-3.1 0-1.04.85-2.42 2.5-2.42 1.7 0 1.44 1.32 3.08 1.32.8 0 2.5-.66 4.6-3.88l4.28-6.64-2.17-6.04c-1.12-3.16-2.83-5.85-6.44-5.85-.86 0-1.84.13-2.5.4l-.2-1.2 8.68-2.16c2.9 1.58 4.14 4.27 4.93 6.44M321.45 560.15h-12.82v-.7c3.44-.18 4.4-1.16 4.4-3.72v-20.86c0-1.58-.4-2.27-1.38-2.27-.47 0-1.26.23-2.1.55l-1.25.47v-.65l8.32-4.23.42.14v27.74c0 2 .93 2.83 4.4 2.83v.7"/><path d="M283.55 351.16h32.9v57.68h-32.9z" fill="#fff" fill-opacity="0"/><path d="M309.45 400.5H291.3v-.98c4.87-.26 6.25-1.64 6.25-5.26v-29.5c0-2.24-.6-3.23-1.97-3.23-.66 0-1.77.33-2.96.8l-1.77.65v-.92l11.76-5.98.6.2v39.23c0 2.84 1.32 4.02 6.25 4.02v.98"/><path d="M267 673.2h66v53.6h-66z" fill="#fff" fill-opacity="0"/><path d="M287.04 691.33l2.96-4.54c1.7-2.64 4-5.53 7.3-5.53 2.1 0 3.2.8 3.2 2.17 0 1.25-.84 2.76-2.55 2.76-1.45 0-1.77-.6-2.9-.6-1.96 0-2.7 1.06-3.6 2.5l-3.62 5.6c1.97 4.07 3.48 12.94 6.44 12.94 1.05 0 2.63-.92 4-3.75l.93.65c-.8.98-3.75 7.3-7.56 7.3-2.7 0-3.94-2.7-4.8-5.07l-2.63-7.42-4.13 6.44c-2.1 3.22-4 6.04-7.68 6.04-2.38 0-3.43-1.64-3.43-3.1 0-1.04.85-2.42 2.5-2.42 1.7 0 1.44 1.32 3.08 1.32.8 0 2.5-.66 4.6-3.88l4.28-6.64-2.17-6.04c-1.12-3.16-2.83-5.85-6.44-5.85-.86 0-1.84.13-2.5.4l-.2-1.2 8.68-2.16c2.9 1.58 4.14 4.27 4.93 6.44M325.17 713.78l-2.5 6.37h-18.18v-.56l8.26-8.8c4.37-4.6 6.04-8.12 6.04-12.07 0-4.23-2.5-6.55-6.46-6.55-3.34 0-4.97 1.48-6.83 6.04l-.96-.23c.97-5.45 3.95-9.26 9.66-9.26 5.25 0 8.6 3.58 8.6 8.18 0 3.67-1.8 7.15-5.95 11.52l-7.67 8.18h10.88c1.95 0 2.92-.5 4.46-3.12"/><path d="M840 380c0 33.14-26.86 60-60 60s-60-26.86-60-60 26.86-60 60-60 60 26.86 60 60zM840 540c0 33.14-26.86 60-60 60s-60-26.86-60-60 26.86-60 60-60 60 26.86 60 60zM840 700c0 33.14-26.86 60-60 60s-60-26.86-60-60 26.86-60 60-60 60 26.86 60 60z" stroke="#5e5e5e" stroke-width="3" fill="#c1e4f7"/><path d="M747 513.2h62.65v53.6H747z" fill="#fff" fill-opacity="0"/><path d="M777.7 520.68v1.05l-21.17 23.66.2.05c1.24-.92 2.88-1.38 4.4-1.38 6.04 0 6.24 5.66 9.2 5.66.98 0 1.77-.53 1.77-1.58 0-.86-.8-1.05-.8-2.5 0-1.25 1.26-2.5 2.5-2.5 1.65 0 2.64 1.2 2.64 2.76 0 3.56-3.94 5.27-6.97 5.27-1.44 0-3.1-.6-4.47-.92-2.1-.6-4.33-.92-6.5-.92-2.63 0-5.6.53-8.02 1.58l-.72-.65 21.55-24.3h-8.6c-3.74 0-5.32.38-6.83 4l-1.18-.27 2.35-9h20.64M798.1 560.15H785.3v-.7c3.44-.18 4.42-1.16 4.42-3.72v-20.86c0-1.58-.42-2.27-1.4-2.27-.46 0-1.25.23-2.1.55l-1.24.47v-.65l8.3-4.23.43.14v27.74c0 2 .92 2.83 4.4 2.83v.7"/><path d="M763.55 351.16h32.9v57.68h-32.9z" fill="#fff" fill-opacity="0"/><path d="M789.45 400.5H771.3v-.98c4.87-.26 6.25-1.64 6.25-5.26v-29.5c0-2.24-.6-3.23-1.97-3.23-.66 0-1.77.33-2.96.8l-1.77.65v-.92l11.76-5.98.6.2v39.23c0 2.84 1.32 4.02 6.25 4.02v.98"/><path d="M747 673.2h62.65v53.6H747z" fill="#fff" fill-opacity="0"/><path d="M777.7 680.68v1.05l-21.17 23.66.2.05c1.24-.92 2.88-1.38 4.4-1.38 6.04 0 6.24 5.66 9.2 5.66.98 0 1.77-.53 1.77-1.58 0-.86-.8-1.05-.8-2.5 0-1.25 1.26-2.5 2.5-2.5 1.65 0 2.64 1.2 2.64 2.76 0 3.56-3.94 5.27-6.97 5.27-1.44 0-3.1-.6-4.47-.92-2.1-.6-4.33-.92-6.5-.92-2.63 0-5.6.53-8.02 1.58l-.72-.65 21.55-24.3h-8.6c-3.74 0-5.32.38-6.83 4l-1.18-.27 2.35-9h20.64M801.82 713.78l-2.5 6.37h-18.17v-.56l8.27-8.8c4.36-4.6 6.04-8.12 6.04-12.07 0-4.23-2.5-6.55-6.46-6.55-3.35 0-4.97 1.48-6.83 6.04l-.98-.23c.97-5.45 3.94-9.26 9.66-9.26 5.25 0 8.6 3.58 8.6 8.18 0 3.67-1.82 7.15-5.95 11.52l-7.66 8.18h10.87c1.96 0 2.94-.5 4.47-3.12"/><path d="M1320 540c0 33.14-26.86 60-60 60s-60-26.86-60-60 26.86-60 60-60 60 26.86 60 60z" stroke="#5e5e5e" stroke-width="3" fill="#c7e8ac"/><path d="M1243.7 513.2h32.6v53.6h-32.6z" fill="#fff" fill-opacity="0"/><path d="M1261.43 530.08l1.84 15.44c4-5.45 6.3-9.4 7.75-12.1 1.32-2.42 1.84-3.74 1.84-4.92 0-1.38-3.4-2.04-3.4-4.53 0-1.45 1.17-2.63 3.08-2.63 2.1 0 3.74 1.5 3.74 4.07 0 5.14-10.64 20.9-13.4 24.4-4.8 6.04-9.07 12.48-13.54 12.48-2.43 0-3.68-2.04-3.68-3.62 0-1.97 1.77-2.7 2.63-2.7 2.8 0 2.68 2.05 3.73 2.05 1.12 0 4.86-4.07 6.57-6.7l-2.5-20.63c-.32-2.96-.9-6.9-4.6-6.9-.72 0-1.77.2-2.36.26l-.13-1.05 9.87-1.64c1.5 2.16 1.97 3.87 2.56 8.74"/><path d="M362.4 380.4l339.22 152.03" stroke="#5e5e5e" stroke-width="2" fill="none"/><path d="M362.85 379.5l-.82 1.83-.57-.25.04-1.08-.04-1.1z" fill="#5e5e5e"/><path d="M715.55 538.68l-14.92-1.6 3.8-8.47z" stroke="#5e5e5e" stroke-width="2" fill="#5e5e5e"/><path d="M362.25 380.67l342.47 306.98" stroke="#5e5e5e" stroke-width="2" fill="none"/><path d="M362.93 379.94l-1.33 1.5-.15-.15.05-1.3-.05-1.4z" fill="#5e5e5e"/><path d="M716.1 697.84l-13.73-6.07 6.2-6.9z" stroke="#5e5e5e" stroke-width="2" fill="#5e5e5e"/><path d="M362.5 540H700" stroke="#5e5e5e" stroke-width="2" fill="none"/><path d="M362.53 541h-1.07l.04-1-.03-1h1.06z" fill="#5e5e5e"/><path d="M715.26 540L701 544.64v-9.28z" stroke="#5e5e5e" stroke-width="2" fill="#5e5e5e"/><path d="M362.4 540.4l339.22 152.03" stroke="#5e5e5e" stroke-width="2" fill="none"/><path d="M362.85 539.5l-.82 1.83-.57-.25.04-1.08-.04-1.1z" fill="#5e5e5e"/><path d="M715.55 698.68l-14.92-1.6 3.8-8.47z" stroke="#5e5e5e" stroke-width="2" fill="#5e5e5e"/><path d="M362.4 699.6l339.22-152.03" stroke="#5e5e5e" stroke-width="2" fill="none"/><path d="M362.85 700.5l-1.4.62.05-1.12-.04-1.08.57-.25z" fill="#5e5e5e"/><path d="M715.55 541.32l-11.13 10.07-3.8-8.47z" stroke="#5e5e5e" stroke-width="2" fill="#5e5e5e"/><path d="M362.5 700H700" stroke="#5e5e5e" stroke-width="2" fill="none"/><path d="M362.53 701h-1.07l.04-1-.03-1h1.06z" fill="#5e5e5e"/><path d="M715.26 700L701 704.64v-9.28z" stroke="#5e5e5e" stroke-width="2" fill="#5e5e5e"/><path d="M434.94 365.46c1.38-3.02 4.94-4.35 7.95-2.97l61.86 28.2c3 1.4 4.34 4.95 2.97 7.96l-12.46 27.3c-1.37 3-4.93 4.34-7.94 2.97l-61.87-28.23c-3.02-1.37-4.35-4.93-2.97-7.95z" stroke="#000" stroke-opacity="0" stroke-width="3" fill="#fff" fill-opacity="0"/><use xlink:href="#a" transform="matrix(0.909798852214019,0.4150494530896933,-0.4150494530896933,0.909798852214019,439.90582402538877,366.6242415265185) translate(12.074074074074076 23.333333333333332)"/><path d="M503.64 463.42c2.17-2.5 5.96-2.76 8.46-.58l51.3 44.64c2.5 2.18 2.75 5.97.58 8.47l-19.7 22.63c-2.17 2.5-5.96 2.76-8.46.58l-51.3-44.64c-2.5-2.18-2.76-5.97-.58-8.47z" stroke="#000" stroke-opacity="0" stroke-width="3" fill="#fff" fill-opacity="0"/><use xlink:href="#b" transform="matrix(0.754290233726645,0.6565411208025003,-0.6565411208025003,0.754290233726645,508.0634726383258,465.9524170322862) translate(12.074074074074076 23.333333333333332)"/><path d="M400 506c0-3.3 2.7-6 6-6h68c3.3 0 6 2.7 6 6v30c0 3.3-2.7 6-6 6h-68c-3.3 0-6-2.7-6-6z" stroke="#000" stroke-opacity="0" stroke-width="3" fill="#fff" fill-opacity="0"/><use xlink:href="#c" transform="matrix(1,0,0,1,405,505) translate(27.592592592592595 23.333333333333332)"/><path d="M454.54 545.5c1.34-3.04 4.88-4.4 7.9-3.08l62.22 27.47c3.03 1.33 4.4 4.87 3.06 7.9l-12.1 27.45c-1.35 3.03-4.9 4.4-7.93 3.06l-62.2-27.46c-3.04-1.33-4.4-4.88-3.08-7.9z" stroke="#000" stroke-opacity="0" stroke-width="3" fill="#fff" fill-opacity="0"/><use xlink:href="#d" transform="matrix(0.9147919740019783,0.40392529544652656,-0.40392529544652656,0.9147919740019783,459.5191958015314,546.5935863472425) translate(23.185185185185187 23.333333333333332)"/><path d="M480 666c0-3.3 2.7-6 6-6h68c3.3 0 6 2.7 6 6v30c0 3.3-2.7 6-6 6h-68c-3.3 0-6-2.7-6-6z" stroke="#000" stroke-opacity="0" stroke-width="3" fill="#fff" fill-opacity="0"/><use xlink:href="#e" transform="matrix(1,0,0,1,485,665) translate(27.592592592592595 23.333333333333332)"/><path d="M402.44 638c-1.35-3.03 0-6.57 3.04-7.92l62.13-27.64c3.04-1.35 6.58 0 7.93 3.04l12.2 27.4c1.34 3.04-.02 6.6-3.05 7.93l-62.13 27.65c-3.02 1.35-6.57 0-7.92-3.04z" stroke="#000" stroke-opacity="0" stroke-width="3" fill="#fff" fill-opacity="0"/><use xlink:href="#f" transform="matrix(0.9136580456358061,-0.4064836720521,0.4064836720521,0.9136580456358061,406.6007085884395,635.0545656320866) translate(23.185185185185187 23.333333333333332)"/><path d="M842.4 380.4l339.22 152.03" stroke="#5e5e5e" stroke-width="2" fill="none"/><path d="M842.85 379.5l-.82 1.83-.57-.25.04-1.08-.04-1.1z" fill="#5e5e5e"/><path d="M1195.55 538.68l-14.92-1.6 3.8-8.47z" stroke="#5e5e5e" stroke-width="2" fill="#5e5e5e"/><path d="M842.5 540H1180" stroke="#5e5e5e" stroke-width="2" fill="none"/><path d="M842.53 541h-1.07l.04-1-.03-1h1.06z" fill="#5e5e5e"/><path d="M1195.26 540l-14.26 4.64v-9.28z" stroke="#5e5e5e" stroke-width="2" fill="#5e5e5e"/><path d="M842.4 699.6l339.22-152.03" stroke="#5e5e5e" stroke-width="2" fill="none"/><path d="M842.85 700.5l-1.4.62.05-1.12-.04-1.08.57-.25z" fill="#5e5e5e"/><path d="M1195.55 541.32l-11.13 10.07-3.8-8.47z" stroke="#5e5e5e" stroke-width="2" fill="#5e5e5e"/><path d="M954.86 387.98c1.37-3.02 4.93-4.36 7.95-3l61.94 28.08c3.02 1.37 4.35 4.93 3 7.95l-12.4 27.33c-1.37 3.02-4.92 4.35-7.94 3l-61.94-28.1c-3-1.36-4.35-4.9-2.98-7.93z" stroke="#000" stroke-opacity="0" stroke-width="3" fill="#fff" fill-opacity="0"/><use xlink:href="#b" transform="matrix(0.9107824017342449,0.41288668747151525,-0.41288668747151525,0.9107824017342449,959.8307194451173,389.128680535437) translate(12.074074074074076 23.333333333333332)"/><path d="M942.5 618.62c-1.4-3.02-.06-6.58 2.96-7.95l61.88-28.18c3.02-1.4 6.58-.06 7.95 2.96l12.43 27.3c1.37 3.02.04 6.58-2.98 7.95l-61.88 28.2c-3.02 1.37-6.58.04-7.95-2.98z" stroke="#000" stroke-opacity="0" stroke-width="3" fill="#fff" fill-opacity="0"/><use xlink:href="#g" transform="matrix(0.9100634599137065,-0.4144689360252389,0.4144689360252389,0.9100634599137065,946.6226619796948,615.6354875014613) translate(27.592592592592595 23.333333333333332)"/><path d="M940 506c0-3.3 2.7-6 6-6h68c3.3 0 6 2.7 6 6v30c0 3.3-2.7 6-6 6h-68c-3.3 0-6-2.7-6-6z" stroke="#000" stroke-opacity="0" stroke-width="3" fill="#fff" fill-opacity="0"/><use xlink:href="#g" transform="matrix(1,0,0,1,945,505) translate(27.592592592592595 23.333333333333332)"/><path d="M560 806c0-3.3 2.7-6 6-6h388c3.3 0 6 2.7 6 6v68c0 3.3-2.7 6-6 6H566c-3.3 0-6-2.7-6-6z" stroke="#000" stroke-opacity="0" stroke-width="3" fill="#fff" fill-opacity="0"/><use xlink:href="#h" transform="matrix(1,0,0,1,565,805) translate(59.77777777777777 41.02083333333333)"/><use xlink:href="#i" transform="matrix(1,0,0,1,565,805) translate(226.74074074074073 41.02083333333333)"/><use xlink:href="#j" transform="matrix(1,0,0,1,565,805) translate(259.18518518518516 41.02083333333333)"/><use xlink:href="#k" transform="matrix(1,0,0,1,565,805) translate(281.4074074074074 41.02083333333333)"/><use xlink:href="#l" transform="matrix(1,0,0,1,565,805) translate(315.4074074074074 41.02083333333333)"/><path d="M160 80h1343.47v65.87H160z" fill="#fff" fill-opacity="0"/><path d="M213.23 86.43l-.26 1.05h-.26c-4.53 0-6.44 2.1-8.87 4.86l-12.3 14 6.32 17.48c.8 2.23 1.9 4.47 5.2 4.47h.9l-.25 1.04h-18.46l.26-1.05h.72c2.5 0 4.4-.27 4.4-2.7 0-.53-.06-1.06-.26-1.7l-4.53-12.76-11.9 13.2c-.6.66-.8 1.25-.8 1.85 0 1.23 1.2 2.1 3.7 2.1h1.44l-.26 1.04h-16.36l.27-1.05c3.55-.47 6.77-2.44 9.2-5.07l13.68-15.12-5.6-15.17c-.7-2.03-1.83-5.45-6.7-5.45h-.6l.28-1.05h18.6l-.27 1.05h-1.26c-1.97 0-3.4.26-3.4 2.3 0 .52.12 1.12.38 1.84l3.94 11.76 10.78-12.1c.6-.7 1-1.5 1-2.22-.08-1.06-.87-1.58-2.97-1.58h-.6l.27-1.05h14.6M260.02 101.74c0 13-10.25 28.32-26.88 28.32-9.8 0-16.62-6.3-16.62-15.3 0-13.35 10.38-29.38 27.14-29.38 10.97 0 16.36 8.08 16.36 16.36m-7.62-1.5c0-7.04-2.63-12.43-9.27-12.43-15.24 0-18.66 20.58-18.66 29.9 0 6.38 4.07 9.87 9.2 9.87 13.93 0 18.73-18.08 18.73-27.34M309.05 128.3l-.13 1.04h-11.1l-9.87-20.7c-.66.07-1.38.13-1.9.13-.92 0-1.58-.13-2.5-.26l-4.08 15.7c-.13.54-.2 1-.2 1.53 0 1.57 1.2 2.56 5 2.56h1.25l-.26 1.04H263.9l.26-1.05h1.05c5 0 6.32-1.85 6.9-4.1l8.16-32.65c.13-.52.33-1.1.33-1.64 0-1.37-1.13-2.42-5.07-2.42h-1.3l.25-1.05h17.8c10.52 0 14.2 4.33 14.2 9.92 0 5.45-4.66 9.86-11.7 11.24l7.56 15.04c1.25 2.56 2.96 5.32 6.7 5.65m-20.7-39.24l-4.2 17.08c.85.2 1.5.27 2.1.27 8.74 0 12.55-3.8 12.55-9.33 0-7.1-4.08-8.2-8.22-8.2-.92 0-1.5.05-2.23.2M370.16 108.3h-38.7v-4.33h38.7v4.34m0 13.15h-38.7v-4.33h38.7v4.33M411.63 110.4l2.96-4.52c1.7-2.63 4-5.52 7.28-5.52 2.1 0 3.22.8 3.22 2.17 0 1.25-.85 2.76-2.56 2.76-1.45 0-1.77-.6-2.9-.6-1.96 0-2.7 1.05-3.6 2.5l-3.62 5.58c1.97 4.07 3.48 12.95 6.44 12.95 1.05 0 2.63-.92 4-3.75l.93.66c-.8.98-3.76 7.3-7.57 7.3-2.7 0-3.94-2.7-4.8-5.07l-2.62-7.42-4.14 6.44c-2.1 3.2-4 6.03-7.68 6.03-2.37 0-3.42-1.64-3.42-3.1 0-1.04.85-2.42 2.5-2.42 1.7 0 1.44 1.33 3.08 1.33.8 0 2.5-.66 4.6-3.88l4.28-6.64-2.17-6.03c-1.12-3.16-2.83-5.85-6.44-5.85-.85 0-1.83.13-2.5.4l-.2-1.2 8.7-2.16c2.88 1.58 4.13 4.27 4.92 6.44M446.04 139.24h-12.82v-.7c3.44-.2 4.4-1.16 4.4-3.72v-20.86c0-1.58-.4-2.28-1.38-2.28-.47 0-1.26.24-2.1.56l-1.25.47v-.64l8.3-4.23.43.14v27.74c0 2 .93 2.84 4.4 2.84v.7M519 129.34H500.3v-1.05h1.05c3.7 0 4.74-1.4 4.74-4.02 0-.4-.07-.92-.13-1.38l-.86-7.43h-13l-5.53 9.2c-.46.53-.66 1.25-.66 1.7.06 1.2 1.1 1.92 2.82 1.92h1.9v1.04H476.3v-1.05c2.3-.27 4.73-1.06 7.1-4.87l23.4-37.92h1.17l5.13 38.2c.46 3.2 2.1 4.6 4.86 4.6H519v1.04m-14.38-16.3l-1.64-14.92h-.4l-9.13 14.92h11.17M580.4 86.43l-.27 1.05h-1.18c-4.93 0-6.44 1.7-7.03 4.14l-9.47 37.72h-1.58l-18-34.57h-.4l-7.1 29.44c-.13.54-.2 1.07-.2 1.8 0 1.3 1.13 2.3 5 2.3h1.25l-.26 1.04h-17.48l.26-1.05h1.18c4.93 0 6.44-1.85 6.97-4.1l8.27-33.44c-1.25-2.82-4.07-3.28-6.05-3.28h-1.24l.26-1.05h13.14l15.5 30.56h.34l6.37-25.38c.13-.6.26-1.05.26-1.7 0-1.32-1.12-2.44-5-2.44h-1.3l.25-1.05h17.5M593.14 86.43h18.53c12.36 0 19 6.77 19 18.07 0 13.87-10.72 24.84-27.67 24.84h-20.1l.25-1.05h1.2c4.85 0 6.36-1.85 6.9-4.1l8-32.65c.13-.52.27-1.1.27-1.57 0-1.45-1.2-2.44-5.06-2.44h-1.65m14.2 1.58l-8 33.12c-.34 1.25-.34 1.58-.34 1.78 0 2.7 3.95 2.82 6.25 2.82 12.62 0 17.8-12.1 17.8-21.35 0-7.57-2.15-16.58-11.8-16.58-1.33 0-2.84.07-3.9.2M708.02 86.43l-.27 1.05h-1.18c-4.93 0-6.44 1.7-7.03 4.14l-9.47 37.72h-1.57l-18-34.57h-.4L663 124.2c-.13.54-.2 1.07-.2 1.8 0 1.3 1.12 2.3 5 2.3h1.25l-.27 1.04H651.3l.26-1.05h1.2c4.92 0 6.43-1.85 6.95-4.1l8.3-33.44c-1.26-2.82-4.08-3.28-6.05-3.28h-1.25l.26-1.05h13.15L689.6 117h.34l6.38-25.38c.13-.6.26-1.05.26-1.7 0-1.32-1.12-2.44-5-2.44h-1.3l.25-1.05h17.5M754.8 101.74c0 13-10.25 28.32-26.87 28.32-9.8 0-16.63-6.3-16.63-15.3 0-13.35 10.38-29.38 27.14-29.38 10.98 0 16.37 8.08 16.37 16.36m-7.62-1.5c0-7.04-2.63-12.43-9.26-12.43-15.25 0-18.67 20.58-18.67 29.9 0 6.38 4.08 9.87 9.2 9.87 13.94 0 18.73-18.08 18.73-27.34M800.22 86.43L797.2 98.2h-1.06c.13-1.13.33-2.9.33-4.68 0-4.33-3.8-4.66-6.5-4.66h-6.45l-8.74 35.35c-.13.6-.32 1.07-.32 1.66 0 1.38 1.05 2.43 5 2.43h1.37l-.26 1.04h-21.62l.26-1.05h1.2c5.12 0 6.43-1.85 6.96-4.1l8.74-35.34h-5.98c-5.46 0-10.06 4-11.24 9.33h-1.05l3.02-11.77h39.37M836.7 110.4l2.95-4.52c1.7-2.63 4-5.52 7.3-5.52 2.1 0 3.2.8 3.2 2.17 0 1.25-.84 2.76-2.55 2.76-1.45 0-1.78-.6-2.9-.6-1.96 0-2.7 1.05-3.6 2.5l-3.62 5.58c1.97 4.07 3.48 12.95 6.44 12.95 1.05 0 2.63-.92 4-3.75l.93.66c-.8.98-3.75 7.3-7.56 7.3-2.7 0-3.95-2.7-4.8-5.07l-2.64-7.42-4.14 6.44c-2.1 3.2-4 6.03-7.7 6.03-2.35 0-3.4-1.64-3.4-3.1 0-1.04.85-2.42 2.5-2.42 1.7 0 1.44 1.33 3.08 1.33.8 0 2.5-.66 4.6-3.88l4.28-6.64-2.17-6.03c-1.1-3.16-2.82-5.85-6.43-5.85-.86 0-1.84.13-2.5.4l-.2-1.2 8.68-2.16c2.9 1.58 4.14 4.27 4.93 6.44M874.82 132.87l-2.5 6.37h-18.18v-.56l8.27-8.78c4.38-4.6 6.05-8.13 6.05-12.08 0-4.23-2.5-6.55-6.46-6.55-3.35 0-4.98 1.48-6.84 6.04l-.97-.23c.96-5.43 3.94-9.24 9.65-9.24 5.25 0 8.6 3.58 8.6 8.18 0 3.68-1.82 7.16-5.95 11.53l-7.67 8.18h10.88c1.96 0 2.93-.5 4.47-3.1M945.9 101.74c0 13-10.24 28.32-26.87 28.32-9.8 0-16.62-6.3-16.62-15.3 0-13.35 10.4-29.38 27.15-29.38 10.97 0 16.36 8.08 16.36 16.36m-7.6-1.5c0-7.04-2.64-12.43-9.28-12.43-15.24 0-18.66 20.58-18.66 29.9 0 6.38 4.07 9.87 9.2 9.87 13.93 0 18.73-18.08 18.73-27.34M994.87 128.3l-.13 1.04h-11.1l-9.86-20.7c-.66.07-1.38.13-1.9.13-.93 0-1.6-.13-2.5-.26l-4.08 15.7c-.13.54-.2 1-.2 1.53 0 1.57 1.18 2.56 5 2.56h1.24l-.26 1.04h-21.36l.27-1.05h1.04c5 0 6.3-1.85 6.9-4.1l8.15-32.65c.12-.52.32-1.1.32-1.64 0-1.37-1.12-2.42-5.07-2.42h-1.3l.25-1.05h17.8c10.53 0 14.2 4.33 14.2 9.92 0 5.45-4.66 9.86-11.7 11.24l7.57 15.04c1.25 2.56 2.95 5.32 6.7 5.65m-20.7-39.24l-4.2 17.08c.85.2 1.5.27 2.1.27 8.74 0 12.55-3.8 12.55-9.33 0-7.1-4.08-8.2-8.22-8.2-.92 0-1.5.05-2.23.2M1071.56 86.43l-.26 1.05h-1.18c-4.93 0-6.44 1.7-7.03 4.14l-9.48 37.72h-1.58l-18-34.57h-.4l-7.1 29.44c-.13.54-.2 1.07-.2 1.8 0 1.3 1.13 2.3 5 2.3h1.25l-.27 1.04h-17.48l.26-1.05h1.2c4.92 0 6.43-1.85 6.96-4.1l8.28-33.44c-1.25-2.82-4.07-3.28-6.05-3.28h-1.25l.26-1.05h13.15l15.5 30.56h.34l6.36-25.38c.14-.6.27-1.05.27-1.7 0-1.32-1.12-2.44-5-2.44h-1.3l.25-1.05h17.48M1118.35 101.74c0 13-10.25 28.32-26.88 28.32-9.8 0-16.62-6.3-16.62-15.3 0-13.35 10.38-29.38 27.14-29.38 10.96 0 16.35 8.08 16.35 16.36m-7.62-1.5c0-7.04-2.63-12.43-9.27-12.43-15.24 0-18.66 20.58-18.66 29.9 0 6.38 4.07 9.87 9.2 9.87 13.93 0 18.73-18.08 18.73-27.34M1163.76 86.43l-3.02 11.76h-1.05c.12-1.13.32-2.9.32-4.68 0-4.33-3.8-4.66-6.5-4.66h-6.45l-8.74 35.35c-.13.6-.33 1.07-.33 1.66 0 1.38 1.05 2.43 5 2.43h1.38l-.27 1.04h-21.6l.26-1.05h1.18c5.13 0 6.44-1.85 6.97-4.1l8.75-35.34h-5.98c-5.46 0-10.06 4-11.24 9.33h-1.05l3.02-11.77h39.36M1200.24 110.4l2.95-4.52c1.7-2.63 4-5.52 7.3-5.52 2.1 0 3.2.8 3.2 2.17 0 1.25-.85 2.76-2.55 2.76-1.45 0-1.78-.6-2.9-.6-1.97 0-2.7 1.05-3.6 2.5l-3.62 5.58c1.97 4.07 3.48 12.95 6.44 12.95 1.05 0 2.62-.92 4-3.75l.92.66c-.8.98-3.75 7.3-7.56 7.3-2.7 0-3.95-2.7-4.8-5.07l-2.63-7.42-4.13 6.44c-2.1 3.2-4 6.03-7.7 6.03-2.35 0-3.4-1.64-3.4-3.1 0-1.04.85-2.42 2.5-2.42 1.7 0 1.44 1.33 3.08 1.33.8 0 2.5-.66 4.6-3.88l4.27-6.64-2.17-6.03c-1.1-3.16-2.82-5.85-6.44-5.85-.84 0-1.83.13-2.48.4l-.2-1.2 8.67-2.16c2.9 1.58 4.13 4.27 4.92 6.44M1234.65 139.24h-12.83v-.7c3.44-.2 4.42-1.16 4.42-3.72v-20.86c0-1.58-.42-2.28-1.4-2.28-.46 0-1.25.24-2.1.56l-1.24.47v-.64l8.3-4.23.43.14v27.74c0 2 .93 2.84 4.42 2.84v.7M1307.68 129.34h-18.73v-1.05h1.06c3.7 0 4.74-1.4 4.74-4.02 0-.4-.07-.92-.13-1.38l-.85-7.43h-13l-5.53 9.2c-.46.53-.66 1.25-.66 1.7.07 1.2 1.12 1.92 2.83 1.92h1.9v1.04h-14.33v-1.05c2.3-.27 4.73-1.06 7.1-4.87l23.4-37.92h1.17l5.13 38.2c.46 3.2 2.1 4.6 4.86 4.6h1.05v1.04m-14.4-16.3l-1.63-14.92h-.4l-9.13 14.92h11.17M1369 86.43l-.26 1.05h-1.2c-4.92 0-6.43 1.7-7.02 4.14l-9.46 37.72h-1.58l-18-34.57h-.4l-7.1 29.44c-.13.54-.2 1.07-.2 1.8 0 1.3 1.12 2.3 5 2.3h1.25l-.26 1.04h-17.5l.28-1.05h1.18c4.93 0 6.44-1.85 6.97-4.1l8.28-33.44c-1.25-2.82-4.08-3.28-6.05-3.28h-1.25l.26-1.05h13.15l15.5 30.56h.33l6.37-25.38c.13-.6.26-1.05.26-1.7 0-1.32-1.1-2.44-5-2.44h-1.3l.26-1.05H1369M1381.8 86.43h18.55c12.35 0 19 6.77 19 18.07 0 13.87-10.72 24.84-27.68 24.84h-20.1l.25-1.05h1.2c4.85 0 6.36-1.85 6.9-4.1l8-32.65c.14-.52.27-1.1.27-1.57 0-1.45-1.2-2.44-5.07-2.44h-1.65m14.2 1.58l-8.02 33.12c-.33 1.25-.33 1.58-.33 1.78 0 2.7 3.95 2.82 6.25 2.82 12.6 0 17.8-12.1 17.8-21.35 0-7.57-2.16-16.58-11.82-16.58-1.32 0-2.83.07-3.88.2M1457.45 110.4l2.96-4.52c1.72-2.63 4.02-5.52 7.3-5.52 2.1 0 3.23.8 3.23 2.17 0 1.25-.86 2.76-2.57 2.76-1.44 0-1.77-.6-2.9-.6-1.96 0-2.68 1.05-3.6 2.5l-3.62 5.58c1.97 4.07 3.5 12.95 6.44 12.95 1.05 0 2.63-.92 4-3.75l.93.66c-.78.98-3.73 7.3-7.55 7.3-2.7 0-3.94-2.7-4.8-5.07l-2.62-7.42-4.14 6.44c-2.12 3.2-4.02 6.03-7.7 6.03-2.37 0-3.42-1.64-3.42-3.1 0-1.04.86-2.42 2.5-2.42 1.7 0 1.44 1.33 3.1 1.33.78 0 2.48-.66 4.6-3.88l4.26-6.64-2.17-6.03c-1.12-3.16-2.83-5.85-6.44-5.85-.85 0-1.84.13-2.5.4l-.2-1.2 8.68-2.16c2.9 1.58 4.15 4.27 4.94 6.44M1495.58 132.87l-2.5 6.37h-18.18v-.56l8.28-8.78c4.36-4.6 6.04-8.13 6.04-12.08 0-4.23-2.5-6.55-6.46-6.55-3.35 0-4.97 1.48-6.83 6.04l-.98-.23c.98-5.43 3.95-9.24 9.67-9.24 5.25 0 8.6 3.58 8.6 8.18 0 3.68-1.82 7.16-5.96 11.53l-7.66 8.18h10.87c1.95 0 2.93-.5 4.46-3.1"/><g fill="none"><path d="M874 160c3.3 0 6 2.7 6 6v68c0 3.3-2.7 6-6 6H406c-3.3 0-6-2.7-6-6v-68c0-3.3 2.7-6 6-6z"/><path d="M400 160c0 5.52 4.48 10 10 10h220c5.52 0 10 4.48 10 10 0-5.52 4.48-10 10-10h220c5.52 0 10-4.48 10-10" stroke="#834187" stroke-width="5"/></g><g fill="none"><path d="M1494 160c3.3 0 6 2.7 6 6v68c0 3.3-2.7 6-6 6h-468c-3.3 0-6-2.7-6-6v-68c0-3.3 2.7-6 6-6z"/><path d="M1020 160c0 5.52 4.48 10 10 10h220c5.52 0 10 4.48 10 10 0-5.52 4.48-10 10-10h220c5.52 0 10-4.48 10-10" stroke="#834187" stroke-width="5"/></g><path d="M608.67 200h62.66v53.57h-62.66z" fill="#fff" fill-opacity="0"/><path d="M639.36 207.47v1.05l-21.16 23.66.2.06c1.25-.92 2.9-1.38 4.4-1.38 6.05 0 6.24 5.65 9.2 5.65 1 0 1.78-.5 1.78-1.56 0-.86-.8-1.06-.8-2.5 0-1.25 1.26-2.5 2.5-2.5 1.65 0 2.63 1.18 2.63 2.76 0 3.55-3.93 5.26-6.95 5.26-1.45 0-3.1-.6-4.47-.92-2.1-.6-4.34-.92-6.5-.92-2.64 0-5.6.52-8.02 1.58l-.73-.66L633 212.72h-8.62c-3.75 0-5.32.4-6.84 4l-1.18-.25 2.37-9h20.63M659.78 246.93h-12.82v-.7c3.44-.18 4.4-1.15 4.4-3.7v-20.87c0-1.58-.4-2.28-1.38-2.28-.47 0-1.26.23-2.1.56l-1.25.46v-.65l8.32-4.22.42.14v27.73c0 2 .93 2.84 4.4 2.84v.7"/><path d="M1228.67 200h62.66v53.57h-62.66z" fill="#fff" fill-opacity="0"/><path d="M1259.36 207.47v1.05l-21.16 23.66.2.06c1.25-.92 2.9-1.38 4.4-1.38 6.05 0 6.24 5.65 9.2 5.65 1 0 1.78-.5 1.78-1.56 0-.86-.8-1.06-.8-2.5 0-1.25 1.26-2.5 2.5-2.5 1.65 0 2.63 1.18 2.63 2.76 0 3.55-3.93 5.26-6.95 5.26-1.45 0-3.1-.6-4.47-.92-2.1-.6-4.34-.92-6.5-.92-2.64 0-5.6.52-8.02 1.58l-.73-.66 21.56-24.32h-8.62c-3.75 0-5.32.4-6.84 4l-1.18-.25 2.37-9h20.63M1283.5 240.57l-2.5 6.36h-18.18v-.55l8.27-8.78c4.36-4.6 6.03-8.14 6.03-12.08 0-4.23-2.5-6.56-6.46-6.56-3.34 0-4.97 1.5-6.83 6.04l-.97-.23c.97-5.43 3.95-9.24 9.66-9.24 5.25 0 8.6 3.57 8.6 8.17 0 3.67-1.8 7.16-5.95 11.53l-7.67 8.17h10.9c1.94 0 2.9-.5 4.45-3.1"/><defs><path fill="#834187" d="M14-72v-43h91v43H14" id="m"/><path fill="#834187" d="M101-251c68 0 84 54 84 127C185-50 166 4 99 4S15-52 14-124c-1-75 17-127 87-127zm-1 216c37-5 36-46 36-89s4-89-36-89c-39 0-36 45-36 89 0 43-3 85 36 89" id="n"/><path fill="#834187" d="M24 0v-54h51V0H24" id="o"/><path fill="#834187" d="M139-81c0-46-55-55-73-27H18l9-140h149v37H72l-4 63c44-38 133-4 122 66C201 21 21 35 11-62l49-4c5 18 15 30 39 30 26 0 40-18 40-45" id="p"/><g id="a"><use transform="matrix(0.07407407407407407,0,0,0.07407407407407407,0,0)" xlink:href="#m"/><use transform="matrix(0.07407407407407407,0,0,0.07407407407407407,8.814814814814815,0)" xlink:href="#n"/><use transform="matrix(0.07407407407407407,0,0,0.07407407407407407,23.629629629629623,0)" xlink:href="#o"/><use transform="matrix(0.07407407407407407,0,0,0.07407407407407407,31.03703703703703,0)" xlink:href="#p"/></g><path fill="#333" d="M14-72v-43h91v43H14" id="q"/><path fill="#333" d="M101-251c68 0 84 54 84 127C185-50 166 4 99 4S15-52 14-124c-1-75 17-127 87-127zm-1 216c37-5 36-46 36-89s4-89-36-89c-39 0-36 45-36 89 0 43-3 85 36 89" id="r"/><path fill="#333" d="M24 0v-54h51V0H24" id="s"/><path fill="#333" d="M139-81c0-46-55-55-73-27H18l9-140h149v37H72l-4 63c44-38 133-4 122 66C201 21 21 35 11-62l49-4c5 18 15 30 39 30 26 0 40-18 40-45" id="t"/><g id="b"><use transform="matrix(0.07407407407407407,0,0,0.07407407407407407,0,0)" xlink:href="#q"/><use transform="matrix(0.07407407407407407,0,0,0.07407407407407407,8.814814814814815,0)" xlink:href="#r"/><use transform="matrix(0.07407407407407407,0,0,0.07407407407407407,23.629629629629623,0)" xlink:href="#s"/><use transform="matrix(0.07407407407407407,0,0,0.07407407407407407,31.03703703703703,0)" xlink:href="#t"/></g><path fill="#834187" d="M23 0v-37h61v-169l-59 37v-38l62-41h46v211h57V0H23" id="u"/><use transform="matrix(0.07407407407407407,0,0,0.07407407407407407,0,0)" xlink:href="#u" id="c"/><path fill="#333" d="M23 0v-37h61v-169l-59 37v-38l62-41h46v211h57V0H23" id="v"/><g id="d"><use transform="matrix(0.07407407407407407,0,0,0.07407407407407407,0,0)" xlink:href="#q"/><use transform="matrix(0.07407407407407407,0,0,0.07407407407407407,8.814814814814815,0)" xlink:href="#v"/></g><use transform="matrix(0.07407407407407407,0,0,0.07407407407407407,0,0)" xlink:href="#v" id="e"/><g id="f"><use transform="matrix(0.07407407407407407,0,0,0.07407407407407407,0,0)" xlink:href="#m"/><use transform="matrix(0.07407407407407407,0,0,0.07407407407407407,8.814814814814815,0)" xlink:href="#u"/></g><path d="M23 0v-37h61v-169l-59 37v-38l62-41h46v211h57V0H23" id="w"/><use transform="matrix(0.07407407407407407,0,0,0.07407407407407407,0,0)" xlink:href="#w" id="g"/><path fill="#333" d="M136-208V0H84v-208H4v-40h212v40h-80" id="x"/><path fill="#333" d="M114-157C55-157 80-60 75 0H25v-261h50l-1 109c12-26 28-41 61-42 86-1 58 113 63 194h-50c-7-57 23-157-34-157" id="y"/><path fill="#333" d="M135-150c-39-12-60 13-60 57V0H25l-1-190h47c2 13-1 29 3 40 6-28 27-53 61-41v41" id="z"/><path fill="#333" d="M185-48c-13 30-37 53-82 52C43 2 14-33 14-96s30-98 90-98c62 0 83 45 84 108H66c0 31 8 55 39 56 18 0 30-7 34-22zm-45-69c5-46-57-63-70-21-2 6-4 13-4 21h74" id="A"/><path fill="#333" d="M137-138c1-29-70-34-71-4 15 46 118 7 119 86 1 83-164 76-172 9l43-7c4 19 20 25 44 25 33 8 57-30 24-41C81-84 22-81 20-136c-2-80 154-74 161-7" id="B"/><path fill="#333" d="M110-194c64 0 96 36 96 99 0 64-35 99-97 99-61 0-95-36-95-99 0-62 34-99 96-99zm-1 164c35 0 45-28 45-65 0-40-10-65-43-65-34 0-45 26-45 65 0 36 10 65 43 65" id="C"/><path fill="#333" d="M25 0v-261h50V0H25" id="D"/><path fill="#333" d="M88-194c31-1 46 15 58 34l-1-101h50l1 261h-48c-2-10 0-23-3-31C134-8 116 4 84 4 32 4 16-41 15-95c0-56 19-97 73-99zm17 164c33 0 40-30 41-66 1-37-9-64-41-64s-38 30-39 65c0 43 13 65 39 65" id="E"/><g id="h"><use transform="matrix(0.07407407407407407,0,0,0.07407407407407407,0,0)" xlink:href="#x"/><use transform="matrix(0.07407407407407407,0,0,0.07407407407407407,16.22222222222222,0)" xlink:href="#y"/><use transform="matrix(0.07407407407407407,0,0,0.07407407407407407,32.44444444444444,0)" xlink:href="#z"/><use transform="matrix(0.07407407407407407,0,0,0.07407407407407407,42.81481481481481,0)" xlink:href="#A"/><use transform="matrix(0.07407407407407407,0,0,0.07407407407407407,57.62962962962962,0)" xlink:href="#B"/><use transform="matrix(0.07407407407407407,0,0,0.07407407407407407,72.44444444444443,0)" xlink:href="#y"/><use transform="matrix(0.07407407407407407,0,0,0.07407407407407407,88.66666666666666,0)" xlink:href="#C"/><use transform="matrix(0.07407407407407407,0,0,0.07407407407407407,104.88888888888889,0)" xlink:href="#D"/><use transform="matrix(0.07407407407407407,0,0,0.07407407407407407,112.29629629629629,0)" xlink:href="#E"/><use transform="matrix(0.07407407407407407,0,0,0.07407407407407407,128.5185185185185,0)" xlink:href="#A"/><use transform="matrix(0.07407407407407407,0,0,0.07407407407407407,143.33333333333331,0)" xlink:href="#E"/></g><path fill="#333" d="M115-3C79 11 28 4 28-45v-112H4v-33h27l15-45h31v45h36v33H77v99c-1 23 16 31 38 25v30" id="F"/><g id="i"><use transform="matrix(0.07407407407407407,0,0,0.07407407407407407,0,0)" xlink:href="#F"/><use transform="matrix(0.07407407407407407,0,0,0.07407407407407407,8.814814814814815,0)" xlink:href="#C"/></g><use transform="matrix(0.07407407407407407,0,0,0.07407407407407407,0,0)" xlink:href="#r" id="j"/><g id="k"><use transform="matrix(0.07407407407407407,0,0,0.07407407407407407,0,0)" xlink:href="#C"/><use transform="matrix(0.07407407407407407,0,0,0.07407407407407407,16.22222222222222,0)" xlink:href="#z"/></g><use transform="matrix(0.07407407407407407,0,0,0.07407407407407407,0,0)" xlink:href="#v" id="l"/></defs></g></svg>