<svg xmlns="http://www.w3.org/2000/svg" xmlns:xlink="http://www.w3.org/1999/xlink" xmlns:lucid="lucid" width="1320" height="520"><g transform="translate(-140 -220)" lucid:page-tab-id="dkP~eAFFLjD-"><path d="M400 326c0-3.3 2.7-6 6-6h68c3.3 0 6 2.7 6 6v388c0 3.3-2.7 6-6 6h-68c-3.3 0-6-2.7-6-6z" fill="none"/><path d="M480 720c-5.52 0-10-4.48-10-10V530c0-5.52-4.48-10-10-10 5.52 0 10-4.48 10-10V330c0-5.52 4.48-10 10-10" stroke="#5e5e5e" stroke-width="3" fill="none"/><path d="M160 446c0-3.3 2.7-6 6-6h148c3.3 0 6 2.7 6 6v148c0 3.3-2.7 6-6 6H166c-3.3 0-6-2.7-6-6z" stroke="#5e5e5e" stroke-width="3" fill="#fff"/><use xlink:href="#a" transform="matrix(1,0,0,1,165,445) translate(36.51851851851852 82.27083333333333)"/><path d="M1040 326c0-3.3 2.7-6 6-6h68c3.3 0 6 2.7 6 6v388c0 3.3-2.7 6-6 6h-68c-3.3 0-6-2.7-6-6z" fill="none"/><path d="M1040 720c5.52 0 10-4.48 10-10V530c0-5.52 4.48-10 10-10-5.52 0-10-4.48-10-10V330c0-5.52-4.48-10-10-10" stroke="#5e5e5e" stroke-width="3" fill="none"/><path d="M1440 520c0 22.1-35.82 40-80 40s-80-17.9-80-40 35.82-40 80-40 80 17.9 80 40z" stroke="#5e5e5e" stroke-width="3" fill="#0c7cba"/><use xlink:href="#b" transform="matrix(1,0,0,1,1285,485) translate(36.56055555555555 41.02083333333333)"/><path d="M1081.85 341.68L1260.1 503.3M1081.9 341.72L1080 340" stroke="#5e5e5e" stroke-width="5" fill="none"/><path d="M1272.5 514.57l-13.67-6.15 6.22-6.87z" stroke="#5e5e5e" stroke-width="5" fill="#5e5e5e"/><path d="M1082.32 440.93l173.13 69.78M1082.38 440.96L1080 440" stroke="#5e5e5e" stroke-width="5" fill="none"/><path d="M1271 516.98l-14.97-1.04 3.47-8.6z" stroke="#5e5e5e" stroke-width="5" fill="#5e5e5e"/><path d="M1082.32 599.07l173.13-69.78M1082.38 599.04l-2.38.96" stroke="#5e5e5e" stroke-width="5" fill="none"/><path d="M1271 523.02l-11.5 9.64-3.47-8.6z" stroke="#5e5e5e" stroke-width="5" fill="#5e5e5e"/><path d="M1081.87 695.47l178.08-158.92M1081.9 695.43l-1.9 1.7" stroke="#5e5e5e" stroke-width="5" fill="none"/><path d="M1272.46 525.4l-7.55 12.94-6.17-6.9z" stroke="#5e5e5e" stroke-width="5" fill="#5e5e5e"/><path d="M160 246c0-3.3 2.7-6 6-6h148c3.3 0 6 2.7 6 6v68c0 3.3-2.7 6-6 6H166c-3.3 0-6-2.7-6-6z" stroke="#000" stroke-opacity="0" stroke-width="3" fill="#fff" fill-opacity="0"/><use xlink:href="#c" transform="matrix(1,0,0,1,165,245) translate(42.55555555555556 41.02083333333333)"/><path d="M560 246c0-3.3 2.7-6 6-6h388c3.3 0 6 2.7 6 6v68c0 3.3-2.7 6-6 6H566c-3.3 0-6-2.7-6-6z" stroke="#000" stroke-opacity="0" stroke-width="3" fill="#fff" fill-opacity="0"/><use xlink:href="#d" transform="matrix(1,0,0,1,565,245) translate(90.74074074074076 41.02083333333333)"/><use xlink:href="#e" transform="matrix(1,0,0,1,565,245) translate(188.37037037037038 41.02083333333333)"/><path d="M1120 246c0-3.3 2.7-6 6-6h308c3.3 0 6 2.7 6 6v68c0 3.3-2.7 6-6 6h-308c-3.3 0-6-2.7-6-6z" stroke="#000" stroke-opacity="0" stroke-width="3" fill="#fff" fill-opacity="0"/><use xlink:href="#f" transform="matrix(1,0,0,1,1125,245) translate(23.296296296296333 41.02083333333333)"/><use xlink:href="#g" transform="matrix(1,0,0,1,1125,245) translate(79.51851851851855 41.02083333333333)"/><use xlink:href="#h" transform="matrix(1,0,0,1,1125,245) translate(174.25925925925927 41.02083333333333)"/><path d="M1120 326c0-3.3 2.7-6 6-6h308c3.3 0 6 2.7 6 6v28c0 3.3-2.7 6-6 6h-308c-3.3 0-6-2.7-6-6z" stroke="#000" stroke-opacity="0" stroke-width="3" fill="#fff" fill-opacity="0"/><use xlink:href="#i" transform="matrix(1,0,0,1,1125,325) translate(5.833333333333343 19.65277777777778)"/><use xlink:href="#j" transform="matrix(1,0,0,1,1125,325) translate(55.216049382716065 19.65277777777778)"/><use xlink:href="#k" transform="matrix(1,0,0,1,1125,325) translate(129.10493827160496 19.65277777777778)"/><use xlink:href="#l" transform="matrix(1,0,0,1,1125,325) translate(244.96913580246914 19.65277777777778)"/><path d="M560 326c0-3.3 2.7-6 6-6h388c3.3 0 6 2.7 6 6v388c0 3.3-2.7 6-6 6H566c-3.3 0-6-2.7-6-6z" stroke="#5e5e5e" stroke-width="3" fill="#7ab648"/><g><use xlink:href="#m" transform="matrix(1,0,0,1,565,325) translate(44.462962962963076 87.86111111111109)"/><use xlink:href="#n" transform="matrix(1,0,0,1,565,325) translate(150.11728395061732 87.86111111111109)"/><use xlink:href="#o" transform="matrix(1,0,0,1,565,325) translate(228.8827160493827 87.86111111111109)"/><use xlink:href="#p" transform="matrix(1,0,0,1,565,325) translate(39.16666666666677 146.52777777777771)"/><use xlink:href="#q" transform="matrix(1,0,0,1,565,325) translate(242.46296296296293 146.52777777777771)"/><use xlink:href="#r" transform="matrix(1,0,0,1,565,325) translate(6.57407407407419 205.19444444444434)"/><use xlink:href="#s" transform="matrix(1,0,0,1,565,325) translate(133.9567901234568 205.19444444444434)"/><use xlink:href="#t" transform="matrix(1,0,0,1,565,325) translate(258.75925925925924 205.19444444444434)"/><use xlink:href="#u" transform="matrix(1,0,0,1,565,325) translate(34.7530864197532 263.861111111111)"/><use xlink:href="#v" transform="matrix(1,0,0,1,565,325) translate(113.51851851851859 263.861111111111)"/><use xlink:href="#w" transform="matrix(1,0,0,1,565,325) translate(244.02469135802465 263.861111111111)"/><use xlink:href="#x" transform="matrix(1,0,0,1,565,325) translate(41.88271604938282 322.5277777777776)"/><use xlink:href="#y" transform="matrix(1,0,0,1,565,325) translate(155.68518518518522 322.5277777777776)"/><use xlink:href="#z" transform="matrix(1,0,0,1,565,325) translate(218.0185185185185 322.5277777777776)"/></g><defs><path fill="#333" d="M24 0v-248h52V0H24" id="A"/><path fill="#333" d="M220-157c-53 9-28 100-34 157h-49v-107c1-27-5-49-29-50C55-147 81-57 75 0H25l-1-190h47c2 12-1 28 3 38 10-53 101-56 108 0 13-22 24-43 59-42 82 1 51 116 57 194h-49v-107c-1-25-5-48-29-50" id="B"/><path fill="#333" d="M133-34C117-15 103 5 69 4 32 3 11-16 11-54c-1-60 55-63 116-61 1-26-3-47-28-47-18 1-26 9-28 27l-52-2c7-38 36-58 82-57s74 22 75 68l1 82c-1 14 12 18 25 15v27c-30 8-71 5-69-32zm-48 3c29 0 43-24 42-57-32 0-66-3-65 30 0 17 8 27 23 27" id="C"/><path fill="#333" d="M195-6C206 82 75 100 31 46c-4-6-6-13-8-21l49-6c3 16 16 24 34 25 40 0 42-37 40-79-11 22-30 35-61 35-53 0-70-43-70-97 0-56 18-96 73-97 30 0 46 14 59 34l2-30h47zm-90-29c32 0 41-27 41-63 0-35-9-62-40-62-32 0-39 29-40 63 0 36 9 62 39 62" id="D"/><path fill="#333" d="M185-48c-13 30-37 53-82 52C43 2 14-33 14-96s30-98 90-98c62 0 83 45 84 108H66c0 31 8 55 39 56 18 0 30-7 34-22zm-45-69c5-46-57-63-70-21-2 6-4 13-4 21h74" id="E"/><g id="a"><use transform="matrix(0.07407407407407407,0,0,0.07407407407407407,0,0)" xlink:href="#A"/><use transform="matrix(0.07407407407407407,0,0,0.07407407407407407,7.4074074074074066,0)" xlink:href="#B"/><use transform="matrix(0.07407407407407407,0,0,0.07407407407407407,31.111111111111104,0)" xlink:href="#C"/><use transform="matrix(0.07407407407407407,0,0,0.07407407407407407,45.925925925925924,0)" xlink:href="#D"/><use transform="matrix(0.07407407407407407,0,0,0.07407407407407407,62.148148148148145,0)" xlink:href="#E"/></g><path fill="#fff" d="M76-208v77h127v40H76V0H24v-248h183v40H76" id="F"/><path fill="#fff" d="M133-34C117-15 103 5 69 4 32 3 11-16 11-54c-1-60 55-63 116-61 1-26-3-47-28-47-18 1-26 9-28 27l-52-2c7-38 36-58 82-57s74 22 75 68l1 82c-1 14 12 18 25 15v27c-30 8-71 5-69-32zm-48 3c29 0 43-24 42-57-32 0-66-3-65 30 0 17 8 27 23 27" id="G"/><path fill="#fff" d="M190-63c-7 42-38 67-86 67-59 0-84-38-90-98-12-110 154-137 174-36l-49 2c-2-19-15-32-35-32-30 0-35 28-38 64-6 74 65 87 74 30" id="H"/><path fill="#fff" d="M185-48c-13 30-37 53-82 52C43 2 14-33 14-96s30-98 90-98c62 0 83 45 84 108H66c0 31 8 55 39 56 18 0 30-7 34-22zm-45-69c5-46-57-63-70-21-2 6-4 13-4 21h74" id="I"/><path fill="#fff" d="M110-251c83-7 118 89 53 130-17 10-36 21-38 46H78c2-56 65-53 71-103 2-21-15-35-38-34-25 1-41 14-44 38l-50-2c6-48 39-70 93-75zM77 0v-47h51V0H77" id="J"/><g id="b"><use transform="matrix(0.07407407407407407,0,0,0.07407407407407407,0,0)" xlink:href="#F"/><use transform="matrix(0.07407407407407407,0,0,0.07407407407407407,16.22222222222222,0)" xlink:href="#G"/><use transform="matrix(0.07407407407407407,0,0,0.07407407407407407,31.037037037037035,0)" xlink:href="#H"/><use transform="matrix(0.07407407407407407,0,0,0.07407407407407407,45.85185185185185,0)" xlink:href="#I"/><use transform="matrix(0.07407407407407407,0,0,0.07407407407407407,60.66666666666666,0)" xlink:href="#J"/></g><path fill="#333" d="M135-194c87-1 58 113 63 194h-50c-7-57 23-157-34-157-59 0-34 97-39 157H25l-1-190h47c2 12-1 28 3 38 12-26 28-41 61-42" id="K"/><path fill="#333" d="M135-194c53 0 70 44 70 98 0 56-19 98-73 100-31 1-45-17-59-34 3 33 2 69 2 105H25l-1-265h48c2 10 0 23 3 31 11-24 29-35 60-35zM114-30c33 0 39-31 40-66 0-38-9-64-40-64-56 0-55 130 0 130" id="L"/><path fill="#333" d="M85 4C-2 5 27-109 22-190h50c7 57-23 150 33 157 60-5 35-97 40-157h50l1 190h-47c-2-12 1-28-3-38-12 25-28 42-61 42" id="M"/><path fill="#333" d="M115-3C79 11 28 4 28-45v-112H4v-33h27l15-45h31v45h36v33H77v99c-1 23 16 31 38 25v30" id="N"/><g id="c"><use transform="matrix(0.07407407407407407,0,0,0.07407407407407407,0,0)" xlink:href="#A"/><use transform="matrix(0.07407407407407407,0,0,0.07407407407407407,7.4074074074074066,0)" xlink:href="#K"/><use transform="matrix(0.07407407407407407,0,0,0.07407407407407407,23.629629629629623,0)" xlink:href="#L"/><use transform="matrix(0.07407407407407407,0,0,0.07407407407407407,39.85185185185185,0)" xlink:href="#M"/><use transform="matrix(0.07407407407407407,0,0,0.07407407407407407,56.07407407407407,0)" xlink:href="#N"/></g><path fill="#333" d="M24 0v-248h195v40H76v63h132v40H76v65h150V0H24" id="O"/><path fill="#333" d="M144 0l-44-69L55 0H2l70-98-66-92h53l41 62 40-62h54l-67 91 71 99h-54" id="P"/><path fill="#333" d="M135-150c-39-12-60 13-60 57V0H25l-1-190h47c2 13-1 29 3 40 6-28 27-53 61-41v41" id="Q"/><path fill="#333" d="M190-63c-7 42-38 67-86 67-59 0-84-38-90-98-12-110 154-137 174-36l-49 2c-2-19-15-32-35-32-30 0-35 28-38 64-6 74 65 87 74 30" id="R"/><g id="d"><use transform="matrix(0.07407407407407407,0,0,0.07407407407407407,0,0)" xlink:href="#O"/><use transform="matrix(0.07407407407407407,0,0,0.07407407407407407,17.77777777777778,0)" xlink:href="#P"/><use transform="matrix(0.07407407407407407,0,0,0.07407407407407407,32.592592592592595,0)" xlink:href="#N"/><use transform="matrix(0.07407407407407407,0,0,0.07407407407407407,41.40740740740741,0)" xlink:href="#Q"/><use transform="matrix(0.07407407407407407,0,0,0.07407407407407407,51.777777777777786,0)" xlink:href="#C"/><use transform="matrix(0.07407407407407407,0,0,0.07407407407407407,66.5925925925926,0)" xlink:href="#R"/><use transform="matrix(0.07407407407407407,0,0,0.07407407407407407,81.4074074074074,0)" xlink:href="#N"/></g><path fill="#333" d="M76-208v77h127v40H76V0H24v-248h183v40H76" id="S"/><path fill="#333" d="M137-138c1-29-70-34-71-4 15 46 118 7 119 86 1 83-164 76-172 9l43-7c4 19 20 25 44 25 33 8 57-30 24-41C81-84 22-81 20-136c-2-80 154-74 161-7" id="T"/><g id="e"><use transform="matrix(0.07407407407407407,0,0,0.07407407407407407,0,0)" xlink:href="#S"/><use transform="matrix(0.07407407407407407,0,0,0.07407407407407407,16.22222222222222,0)" xlink:href="#E"/><use transform="matrix(0.07407407407407407,0,0,0.07407407407407407,31.037037037037035,0)" xlink:href="#C"/><use transform="matrix(0.07407407407407407,0,0,0.07407407407407407,45.85185185185185,0)" xlink:href="#N"/><use transform="matrix(0.07407407407407407,0,0,0.07407407407407407,54.666666666666664,0)" xlink:href="#M"/><use transform="matrix(0.07407407407407407,0,0,0.07407407407407407,70.88888888888889,0)" xlink:href="#Q"/><use transform="matrix(0.07407407407407407,0,0,0.07407407407407407,81.25925925925925,0)" xlink:href="#E"/><use transform="matrix(0.07407407407407407,0,0,0.07407407407407407,96.07407407407406,0)" xlink:href="#T"/></g><path fill="#333" d="M238-95c0 69-44 99-111 99C63 4 22-25 22-93v-155h51v151c-1 38 19 59 55 60 90 1 49-130 58-211h52v153" id="U"/><g id="f"><use transform="matrix(0.07407407407407407,0,0,0.07407407407407407,0,0)" xlink:href="#U"/><use transform="matrix(0.07407407407407407,0,0,0.07407407407407407,19.185185185185183,0)" xlink:href="#T"/><use transform="matrix(0.07407407407407407,0,0,0.07407407407407407,34,0)" xlink:href="#E"/></g><path fill="#333" d="M169-182c-1-43-94-46-97-3 18 66 151 10 154 114 3 95-165 93-204 36-6-8-10-19-12-30l50-8c3 46 112 56 116 5-17-69-150-10-154-114-4-87 153-88 188-35 5 8 8 18 10 28" id="V"/><path fill="#333" d="M25-224v-37h50v37H25zM25 0v-190h50V0H25" id="W"/><path fill="#333" d="M25 0v-261h50V0H25" id="X"/><g id="g"><use transform="matrix(0.07407407407407407,0,0,0.07407407407407407,0,0)" xlink:href="#V"/><use transform="matrix(0.07407407407407407,0,0,0.07407407407407407,17.77777777777778,0)" xlink:href="#W"/><use transform="matrix(0.07407407407407407,0,0,0.07407407407407407,25.185185185185183,0)" xlink:href="#B"/><use transform="matrix(0.07407407407407407,0,0,0.07407407407407407,48.888888888888886,0)" xlink:href="#L"/><use transform="matrix(0.07407407407407407,0,0,0.07407407407407407,65.11111111111111,0)" xlink:href="#X"/><use transform="matrix(0.07407407407407407,0,0,0.07407407407407407,72.51851851851852,0)" xlink:href="#E"/></g><path fill="#333" d="M67-125c0 53 21 87 73 88 37 1 54-22 65-47l45 17C233-25 199 4 140 4 58 4 20-42 15-125 8-235 124-281 211-232c18 10 29 29 36 50l-46 12c-8-25-30-41-62-41-52 0-71 34-72 86" id="Y"/><path fill="#333" d="M121-226c-27-7-43 5-38 36h38v33H83V0H34v-157H6v-33h28c-9-59 32-81 87-68v32" id="Z"/><g id="h"><use transform="matrix(0.07407407407407407,0,0,0.07407407407407407,0,0)" xlink:href="#Y"/><use transform="matrix(0.07407407407407407,0,0,0.07407407407407407,19.185185185185183,0)" xlink:href="#X"/><use transform="matrix(0.07407407407407407,0,0,0.07407407407407407,26.592592592592588,0)" xlink:href="#C"/><use transform="matrix(0.07407407407407407,0,0,0.07407407407407407,41.407407407407405,0)" xlink:href="#T"/><use transform="matrix(0.07407407407407407,0,0,0.07407407407407407,56.22222222222221,0)" xlink:href="#T"/><use transform="matrix(0.07407407407407407,0,0,0.07407407407407407,71.03703703703702,0)" xlink:href="#Z"/><use transform="matrix(0.07407407407407407,0,0,0.07407407407407407,79.85185185185183,0)" xlink:href="#W"/><use transform="matrix(0.07407407407407407,0,0,0.07407407407407407,87.25925925925924,0)" xlink:href="#E"/><use transform="matrix(0.07407407407407407,0,0,0.07407407407407407,102.07407407407405,0)" xlink:href="#Q"/></g><path fill="#333" d="M100-194c63 0 86 42 84 106H49c0 40 14 67 53 68 26 1 43-12 49-29l28 8c-11 28-37 45-77 45C44 4 14-33 15-96c1-61 26-98 85-98zm52 81c6-60-76-77-97-28-3 7-6 17-6 28h103" id="aa"/><path fill="#333" d="M33 0v-38h34V0H33" id="ab"/><path fill="#333" d="M177-190C167-65 218 103 67 71c-23-6-38-20-44-43l32-5c15 47 100 32 89-28v-30C133-14 115 1 83 1 29 1 15-40 15-95c0-56 16-97 71-98 29-1 48 16 59 35 1-10 0-23 2-32h30zM94-22c36 0 50-32 50-73 0-42-14-75-50-75-39 0-46 34-46 75s6 73 46 73" id="ac"/><path fill="#333" d="M68-38c1 34 0 65-14 84H32c9-13 17-26 17-46H33v-38h35" id="ad"/><g id="i"><use transform="matrix(0.06172839506172839,0,0,0.06172839506172839,0,0)" xlink:href="#aa"/><use transform="matrix(0.06172839506172839,0,0,0.06172839506172839,12.345679012345679,0)" xlink:href="#ab"/><use transform="matrix(0.06172839506172839,0,0,0.06172839506172839,18.51851851851852,0)" xlink:href="#ac"/><use transform="matrix(0.06172839506172839,0,0,0.06172839506172839,30.864197530864196,0)" xlink:href="#ab"/><use transform="matrix(0.06172839506172839,0,0,0.06172839506172839,37.03703703703704,0)" xlink:href="#ad"/></g><path fill="#333" d="M24 0v-261h32V0H24" id="ae"/><path fill="#333" d="M100-194c62-1 85 37 85 99 1 63-27 99-86 99S16-35 15-95c0-66 28-99 85-99zM99-20c44 1 53-31 53-75 0-43-8-75-51-75s-53 32-53 75 10 74 51 75" id="af"/><path fill="#333" d="M24-231v-30h32v30H24zM24 0v-190h32V0H24" id="ag"/><path fill="#333" d="M135-143c-3-34-86-38-87 0 15 53 115 12 119 90S17 21 10-45l28-5c4 36 97 45 98 0-10-56-113-15-118-90-4-57 82-63 122-42 12 7 21 19 24 35" id="ah"/><path fill="#333" d="M59-47c-2 24 18 29 38 22v24C64 9 27 4 27-40v-127H5v-23h24l9-43h21v43h35v23H59v120" id="ai"/><path fill="#333" d="M96-169c-40 0-48 33-48 73s9 75 48 75c24 0 41-14 43-38l32 2c-6 37-31 61-74 61-59 0-76-41-82-99-10-93 101-131 147-64 4 7 5 14 7 22l-32 3c-4-21-16-35-41-35" id="aj"/><g id="j"><use transform="matrix(0.06172839506172839,0,0,0.06172839506172839,0,0)" xlink:href="#ae"/><use transform="matrix(0.06172839506172839,0,0,0.06172839506172839,4.876543209876543,0)" xlink:href="#af"/><use transform="matrix(0.06172839506172839,0,0,0.06172839506172839,17.22222222222222,0)" xlink:href="#ac"/><use transform="matrix(0.06172839506172839,0,0,0.06172839506172839,29.5679012345679,0)" xlink:href="#ag"/><use transform="matrix(0.06172839506172839,0,0,0.06172839506172839,34.44444444444444,0)" xlink:href="#ah"/><use transform="matrix(0.06172839506172839,0,0,0.06172839506172839,45.55555555555556,0)" xlink:href="#ai"/><use transform="matrix(0.06172839506172839,0,0,0.06172839506172839,51.7283950617284,0)" xlink:href="#ag"/><use transform="matrix(0.06172839506172839,0,0,0.06172839506172839,56.604938271604944,0)" xlink:href="#aj"/></g><path fill="#333" d="M114-163C36-179 61-72 57 0H25l-1-190h30c1 12-1 29 2 39 6-27 23-49 58-41v29" id="ak"/><path fill="#333" d="M117-194c89-4 53 116 60 194h-32v-121c0-31-8-49-39-48C34-167 62-67 57 0H25l-1-190h30c1 10-1 24 2 32 11-22 29-35 61-36" id="al"/><g id="k"><use transform="matrix(0.06172839506172839,0,0,0.06172839506172839,0,0)" xlink:href="#ak"/><use transform="matrix(0.06172839506172839,0,0,0.06172839506172839,7.345679012345679,0)" xlink:href="#aa"/><use transform="matrix(0.06172839506172839,0,0,0.06172839506172839,19.691358024691358,0)" xlink:href="#ac"/><use transform="matrix(0.06172839506172839,0,0,0.06172839506172839,32.03703703703704,0)" xlink:href="#ak"/><use transform="matrix(0.06172839506172839,0,0,0.06172839506172839,39.382716049382715,0)" xlink:href="#aa"/><use transform="matrix(0.06172839506172839,0,0,0.06172839506172839,51.72839506172839,0)" xlink:href="#ah"/><use transform="matrix(0.06172839506172839,0,0,0.06172839506172839,62.839506172839506,0)" xlink:href="#ah"/><use transform="matrix(0.06172839506172839,0,0,0.06172839506172839,73.95061728395062,0)" xlink:href="#ag"/><use transform="matrix(0.06172839506172839,0,0,0.06172839506172839,78.82716049382717,0)" xlink:href="#af"/><use transform="matrix(0.06172839506172839,0,0,0.06172839506172839,91.17283950617285,0)" xlink:href="#al"/><use transform="matrix(0.06172839506172839,0,0,0.06172839506172839,103.51851851851853,0)" xlink:href="#ad"/></g><path fill="#333" d="M185-189c-5-48-123-54-124 2 14 75 158 14 163 119 3 78-121 87-175 55-17-10-28-26-33-46l33-7c5 56 141 63 141-1 0-78-155-14-162-118-5-82 145-84 179-34 5 7 8 16 11 25" id="am"/><path fill="#333" d="M137 0h-34L2-248h35l83 218 83-218h36" id="an"/><path fill="#333" d="M240 0l2-218c-23 76-54 145-80 218h-23L58-218 59 0H30v-248h44l77 211c21-75 51-140 76-211h43V0h-30" id="ao"/><g id="l"><use transform="matrix(0.06172839506172839,0,0,0.06172839506172839,0,0)" xlink:href="#am"/><use transform="matrix(0.06172839506172839,0,0,0.06172839506172839,14.814814814814813,0)" xlink:href="#an"/><use transform="matrix(0.06172839506172839,0,0,0.06172839506172839,29.629629629629626,0)" xlink:href="#ao"/><use transform="matrix(0.06172839506172839,0,0,0.06172839506172839,48.08641975308642,0)" xlink:href="#ah"/></g><path fill="#fff" d="M67-125c0 53 21 87 73 88 37 1 54-22 65-47l45 17C233-25 199 4 140 4 58 4 20-42 15-125 8-235 124-281 211-232c18 10 29 29 36 50l-46 12c-8-25-30-41-62-41-52 0-71 34-72 86" id="ap"/><path fill="#fff" d="M135-194c87-1 58 113 63 194h-50c-7-57 23-157-34-157-59 0-34 97-39 157H25l-1-190h47c2 12-1 28 3 38 12-26 28-41 61-42" id="aq"/><g id="m"><use transform="matrix(0.13580246913580238,0,0,0.13580246913580238,0,0)" xlink:href="#ap"/><use transform="matrix(0.13580246913580238,0,0,0.13580246913580238,35.172839506172814,0)" xlink:href="#G"/><use transform="matrix(0.13580246913580238,0,0,0.13580246913580238,62.333333333333286,0)" xlink:href="#aq"/></g><path fill="#fff" d="M231 0h-52l-39-155L100 0H48L-1-190h46L77-45c9-52 24-97 36-145h53l37 145 32-145h46" id="ar"/><g id="n"><use transform="matrix(0.13580246913580238,0,0,0.13580246913580238,0,0)" xlink:href="#ar"/><use transform="matrix(0.13580246913580238,0,0,0.13580246913580238,38.02469135802467,0)" xlink:href="#I"/></g><path fill="#fff" d="M25 0v-261h50V0H25" id="as"/><path fill="#fff" d="M135-150c-39-12-60 13-60 57V0H25l-1-190h47c2 13-1 29 3 40 6-28 27-53 61-41v41" id="at"/><g id="o"><use transform="matrix(0.13580246913580238,0,0,0.13580246913580238,0,0)" xlink:href="#as"/><use transform="matrix(0.13580246913580238,0,0,0.13580246913580238,13.580246913580238,0)" xlink:href="#I"/><use transform="matrix(0.13580246913580238,0,0,0.13580246913580238,40.74074074074071,0)" xlink:href="#G"/><use transform="matrix(0.13580246913580238,0,0,0.13580246913580238,67.90123456790118,0)" xlink:href="#at"/><use transform="matrix(0.13580246913580238,0,0,0.13580246913580238,86.91358024691351,0)" xlink:href="#aq"/></g><path fill="#fff" d="M121-226c-27-7-43 5-38 36h38v33H83V0H34v-157H6v-33h28c-9-59 32-81 87-68v32" id="au"/><path fill="#fff" d="M115-3C79 11 28 4 28-45v-112H4v-33h27l15-45h31v45h36v33H77v99c-1 23 16 31 38 25v30" id="av"/><path fill="#fff" d="M85 4C-2 5 27-109 22-190h50c7 57-23 150 33 157 60-5 35-97 40-157h50l1 190h-47c-2-12 1-28-3-38-12 25-28 42-61 42" id="aw"/><path fill="#fff" d="M137-138c1-29-70-34-71-4 15 46 118 7 119 86 1 83-164 76-172 9l43-7c4 19 20 25 44 25 33 8 57-30 24-41C81-84 22-81 20-136c-2-80 154-74 161-7" id="ax"/><g id="p"><use transform="matrix(0.13580246913580238,0,0,0.13580246913580238,0,0)" xlink:href="#au"/><use transform="matrix(0.13580246913580238,0,0,0.13580246913580238,16.160493827160483,0)" xlink:href="#I"/><use transform="matrix(0.13580246913580238,0,0,0.13580246913580238,43.32098765432096,0)" xlink:href="#G"/><use transform="matrix(0.13580246913580238,0,0,0.13580246913580238,70.48148148148144,0)" xlink:href="#av"/><use transform="matrix(0.13580246913580238,0,0,0.13580246913580238,86.64197530864192,0)" xlink:href="#aw"/><use transform="matrix(0.13580246913580238,0,0,0.13580246913580238,116.38271604938264,0)" xlink:href="#at"/><use transform="matrix(0.13580246913580238,0,0,0.13580246913580238,135.39506172839498,0)" xlink:href="#I"/><use transform="matrix(0.13580246913580238,0,0,0.13580246913580238,162.55555555555546,0)" xlink:href="#ax"/></g><path fill="#fff" d="M110-194c64 0 96 36 96 99 0 64-35 99-97 99-61 0-95-36-95-99 0-62 34-99 96-99zm-1 164c35 0 45-28 45-65 0-40-10-65-43-65-34 0-45 26-45 65 0 36 10 65 43 65" id="ay"/><path fill="#fff" d="M220-157c-53 9-28 100-34 157h-49v-107c1-27-5-49-29-50C55-147 81-57 75 0H25l-1-190h47c2 12-1 28 3 38 10-53 101-56 108 0 13-22 24-43 59-42 82 1 51 116 57 194h-49v-107c-1-25-5-48-29-50" id="az"/><g id="q"><use transform="matrix(0.13580246913580238,0,0,0.13580246913580238,0,0)" xlink:href="#au"/><use transform="matrix(0.13580246913580238,0,0,0.13580246913580238,16.160493827160483,0)" xlink:href="#at"/><use transform="matrix(0.13580246913580238,0,0,0.13580246913580238,35.17283950617282,0)" xlink:href="#ay"/><use transform="matrix(0.13580246913580238,0,0,0.13580246913580238,64.91358024691354,0)" xlink:href="#az"/></g><path fill="#fff" d="M88-194c31-1 46 15 58 34l-1-101h50l1 261h-48c-2-10 0-23-3-31C134-8 116 4 84 4 32 4 16-41 15-95c0-56 19-97 73-99zm17 164c33 0 40-30 41-66 1-37-9-64-41-64s-38 30-39 65c0 43 13 65 39 65" id="aA"/><path fill="#fff" d="M76-54c-1 42 2 86-19 110H24C36 42 46 24 48 0H25v-54h51" id="aB"/><g id="r"><use transform="matrix(0.13580246913580238,0,0,0.13580246913580238,0,0)" xlink:href="#aA"/><use transform="matrix(0.13580246913580238,0,0,0.13580246913580238,29.74074074074072,0)" xlink:href="#G"/><use transform="matrix(0.13580246913580238,0,0,0.13580246913580238,56.9012345679012,0)" xlink:href="#av"/><use transform="matrix(0.13580246913580238,0,0,0.13580246913580238,73.06172839506168,0)" xlink:href="#G"/><use transform="matrix(0.13580246913580238,0,0,0.13580246913580238,100.22222222222216,0)" xlink:href="#aB"/></g><path fill="#fff" d="M128 0H69L1-190h53L99-40l48-150h52" id="aC"/><g id="s"><use transform="matrix(0.13580246913580238,0,0,0.13580246913580238,0,0)" xlink:href="#I"/><use transform="matrix(0.13580246913580238,0,0,0.13580246913580238,27.160493827160476,0)" xlink:href="#aC"/><use transform="matrix(0.13580246913580238,0,0,0.13580246913580238,54.32098765432095,0)" xlink:href="#I"/><use transform="matrix(0.13580246913580238,0,0,0.13580246913580238,81.48148148148142,0)" xlink:href="#aq"/></g><path fill="#fff" d="M114-157C55-157 80-60 75 0H25v-261h50l-1 109c12-26 28-41 61-42 86-1 58 113 63 194h-50c-7-57 23-157-34-157" id="aD"/><g id="t"><use transform="matrix(0.13580246913580238,0,0,0.13580246913580238,0,0)" xlink:href="#ar"/><use transform="matrix(0.13580246913580238,0,0,0.13580246913580238,38.02469135802467,0)" xlink:href="#aD"/><use transform="matrix(0.13580246913580238,0,0,0.13580246913580238,67.76543209876539,0)" xlink:href="#I"/><use transform="matrix(0.13580246913580238,0,0,0.13580246913580238,94.92592592592587,0)" xlink:href="#aq"/></g><g id="u"><use transform="matrix(0.13580246913580238,0,0,0.13580246913580238,0,0)" xlink:href="#ar"/><use transform="matrix(0.13580246913580238,0,0,0.13580246913580238,38.02469135802467,0)" xlink:href="#I"/></g><path fill="#fff" d="M62-158H24l-5-90h48" id="aE"/><g id="v"><use transform="matrix(0.13580246913580238,0,0,0.13580246913580238,0,0)" xlink:href="#aA"/><use transform="matrix(0.13580246913580238,0,0,0.13580246913580238,29.74074074074072,0)" xlink:href="#ay"/><use transform="matrix(0.13580246913580238,0,0,0.13580246913580238,59.48148148148144,0)" xlink:href="#aq"/><use transform="matrix(0.13580246913580238,0,0,0.13580246913580238,89.22222222222216,0)" xlink:href="#aE"/><use transform="matrix(0.13580246913580238,0,0,0.13580246913580238,100.76543209876536,0)" xlink:href="#av"/></g><g id="w"><use transform="matrix(0.13580246913580238,0,0,0.13580246913580238,0,0)" xlink:href="#aD"/><use transform="matrix(0.13580246913580238,0,0,0.13580246913580238,29.74074074074072,0)" xlink:href="#G"/><use transform="matrix(0.13580246913580238,0,0,0.13580246913580238,56.9012345679012,0)" xlink:href="#aC"/><use transform="matrix(0.13580246913580238,0,0,0.13580246913580238,84.06172839506168,0)" xlink:href="#I"/></g><g id="x"><use transform="matrix(0.13580246913580238,0,0,0.13580246913580238,0,0)" xlink:href="#aA"/><use transform="matrix(0.13580246913580238,0,0,0.13580246913580238,29.74074074074072,0)" xlink:href="#G"/><use transform="matrix(0.13580246913580238,0,0,0.13580246913580238,56.9012345679012,0)" xlink:href="#av"/><use transform="matrix(0.13580246913580238,0,0,0.13580246913580238,73.06172839506168,0)" xlink:href="#G"/></g><g id="y"><use transform="matrix(0.13580246913580238,0,0,0.13580246913580238,0,0)" xlink:href="#ay"/><use transform="matrix(0.13580246913580238,0,0,0.13580246913580238,29.74074074074072,0)" xlink:href="#at"/></g><path fill="#fff" d="M25-224v-37h50v37H25zM25 0v-190h50V0H25" id="aF"/><g id="z"><use transform="matrix(0.13580246913580238,0,0,0.13580246913580238,0,0)" xlink:href="#av"/><use transform="matrix(0.13580246913580238,0,0,0.13580246913580238,16.160493827160483,0)" xlink:href="#aF"/><use transform="matrix(0.13580246913580238,0,0,0.13580246913580238,29.74074074074072,0)" xlink:href="#az"/><use transform="matrix(0.13580246913580238,0,0,0.13580246913580238,73.19753086419747,0)" xlink:href="#I"/><use transform="matrix(0.13580246913580238,0,0,0.13580246913580238,100.35802469135797,0)" xlink:href="#J"/></g></defs></g></svg>