<svg xmlns="http://www.w3.org/2000/svg" xmlns:xlink="http://www.w3.org/1999/xlink" xmlns:lucid="lucid" width="1666.93" height="1060"><g transform="translate(-60.000000000000014 0)" lucid:page-tab-id="DD8CRmLhIU6u"><path d="M115 880l205-540 800-260-225 580-600 170z" stroke="#0c7cba" stroke-width="2" fill="#b2d6ef"/><path d="M160 959V178.5M160 958.97V960" stroke="#000" stroke-width="2" fill="none"/><path d="M160 163.24l4.64 14.26h-9.28z" stroke="#000" stroke-width="2"/><path d="M161 960h780.5M161.03 960H160" stroke="#000" stroke-width="2" fill="none"/><path d="M956.76 960l-14.26 4.64v-9.28z" stroke="#000" stroke-width="2"/><path d="M400 980h320v60H400z" stroke="#000" stroke-opacity="0" stroke-width="2" fill="#fff" fill-opacity="0"/><use xlink:href="#a" transform="matrix(1,0,0,1,405.0000000000001,985) translate(43.25925925925925 30.708333333333336)"/><use xlink:href="#b" transform="matrix(1,0,0,1,405.0000000000001,985) translate(132.07407407407408 30.708333333333336)"/><use xlink:href="#c" transform="matrix(1,0,0,1,405.0000000000001,985) translate(183.92592592592592 30.708333333333336)"/><use xlink:href="#d" transform="matrix(1,0,0,1,405.0000000000001,985) translate(235.7037037037037 30.708333333333336)"/><path d="M220 710c0 5.52-4.48 10-10 10s-10-4.48-10-10 4.48-10 10-10 10 4.48 10 10z" stroke="#000" stroke-width="2" fill="#c1e4f7"/><path d="M80 720V400h60v320z" stroke="#000" stroke-opacity="0" stroke-width="2" fill="#fff" fill-opacity="0"/><use xlink:href="#e" transform="matrix(6.123233995736766e-17,-1,1,6.123233995736766e-17,85,715) translate(106.25925925925925 30.708333333333336)"/><use xlink:href="#f" transform="matrix(6.123233995736766e-17,-1,1,6.123233995736766e-17,85,715) translate(171.2962962962963 30.708333333333336)"/><path d="M280 750c0 5.52-4.48 10-10 10s-10-4.48-10-10 4.48-10 10-10 10 4.48 10 10zM360 730c0 5.52-4.48 10-10 10s-10-4.48-10-10 4.48-10 10-10 10 4.48 10 10zM400 790c0 5.52-4.48 10-10 10s-10-4.48-10-10 4.48-10 10-10 10 4.48 10 10z" stroke="#000" stroke-width="2" fill="#c1e4f7"/><path d="M80 160h80v80H80z" stroke="#000" stroke-opacity="0" stroke-width="2" fill="#fff" fill-opacity="0"/><use xlink:href="#g" transform="matrix(1,0,0,1,85.00000000000003,165) translate(26.11111111111111 41.020833333333336)"/><path d="M480 550c0 5.52-4.48 10-10 10s-10-4.48-10-10 4.48-10 10-10 10 4.48 10 10zM500 610c0 5.52-4.48 10-10 10s-10-4.48-10-10 4.48-10 10-10 10 4.48 10 10zM520 650c0 5.52-4.48 10-10 10s-10-4.48-10-10 4.48-10 10-10 10 4.48 10 10zM560 590c0 5.52-4.48 10-10 10s-10-4.48-10-10 4.48-10 10-10 10 4.48 10 10zM600 570c0 5.52-4.48 10-10 10s-10-4.48-10-10 4.48-10 10-10 10 4.48 10 10zM700 410c0 5.52-4.48 10-10 10s-10-4.48-10-10 4.48-10 10-10 10 4.48 10 10zM740 450c0 5.52-4.48 10-10 10s-10-4.48-10-10 4.48-10 10-10 10 4.48 10 10zM800 330c0 5.52-4.48 10-10 10s-10-4.48-10-10 4.48-10 10-10 10 4.48 10 10zM860 430c0 5.52-4.48 10-10 10s-10-4.48-10-10 4.48-10 10-10 10 4.48 10 10zM940 690c0 5.52-4.48 10-10 10s-10-4.48-10-10 4.48-10 10-10 10 4.48 10 10z" stroke="#000" stroke-width="2" fill="#c1e4f7"/><path d="M880.55 959.17l309.2-463.78M880.57 959.15l-.57.85" stroke="#000" stroke-width="2" fill="none"/><path d="M1198.2 482.7l-4.05 14.43-7.72-5.14z" stroke="#000" stroke-width="2"/><path d="M961.25 846.16l176.62-266.85 50.03 33.13-176.62 266.84z" stroke="#000" stroke-opacity="0" stroke-width="2" fill="#fff" fill-opacity="0"/><use xlink:href="#h" transform="matrix(0.5519369853120583,-0.8338858220671681,0.8338858220671681,0.5519369853120583,968.1765160390142,844.7459588521434) translate(80.99999999999999 30.708333333333336)"/><use xlink:href="#i" transform="matrix(0.5519369853120583,-0.8338858220671681,0.8338858220671681,0.5519369853120583,968.1765160390142,844.7459588521434) translate(103.22222222222221 30.708333333333336)"/><path d="M880 980h41.83v32H880z" fill="#fff" fill-opacity="0"/><path d="M906.14 980.65v.6c-1.65.55-2.87 1.43-4.78 3.65l-6.46 7.42 3.86 9.75c.92 2.3 1.4 2.64 4 2.94v.62h-10.35v-.6c2.3-.05 2.95-.5 2.95-1.42 0-.5-.22-1.2-.53-1.95l-2.56-6.3-5.78 6.56c-.53.63-.88 1.3-.88 1.85 0 .84.7 1.26 2.53 1.26v.62h-8.15v-.6c2.14-.4 3.18-1.54 8.4-7.66l3.2-3.7-3.95-9.76c-.73-1.83-1.42-2.45-3.63-2.64v-.6h10.05v.6c-2.1.27-2.7.6-2.7 1.57 0 .5.18 1.1.6 2.14l2.26 5.62 5.55-6.4c.54-.6.8-1.18.8-1.64 0-.72-.68-1.22-2.33-1.3v-.6h7.92M915.1 1011.38h-7.46v-.4c2-.1 2.57-.68 2.57-2.17v-12.13c0-.92-.23-1.32-.8-1.32-.27 0-.73.13-1.2.32l-.74.27v-.38l4.84-2.46.24.08v16.15c0 1.16.54 1.65 2.57 1.65v.4"/><path d="M1220 460h41.83v32H1220z" fill="#fff" fill-opacity="0"/><path d="M1246.14 460.65v.6c-1.65.55-2.87 1.43-4.78 3.65l-6.46 7.42 3.86 9.75c.92 2.3 1.4 2.64 4 2.94v.62h-10.35v-.6c2.3-.05 2.95-.5 2.95-1.42 0-.5-.22-1.2-.53-1.95l-2.56-6.3-5.78 6.56c-.53.63-.88 1.3-.88 1.85 0 .84.7 1.26 2.53 1.26v.62h-8.15v-.6c2.14-.4 3.18-1.54 8.4-7.66l3.2-3.7-3.95-9.76c-.73-1.83-1.42-2.45-3.63-2.64v-.6h10.05v.6c-2.1.27-2.7.6-2.7 1.57 0 .5.18 1.1.6 2.14l2.26 5.62 5.55-6.4c.54-.6.8-1.18.8-1.64 0-.72-.68-1.22-2.33-1.3v-.6h7.92M1257.27 487.68l-1.46 3.7h-10.56v-.32l4.8-5.1c2.55-2.7 3.53-4.74 3.53-7.04 0-2.46-1.46-3.82-3.76-3.82-1.94 0-2.9.87-3.97 3.52l-.56-.14c.56-3.16 2.3-5.38 5.62-5.38 3.05 0 5 2.1 5 4.76 0 2.14-1.06 4.17-3.47 6.7l-4.46 4.77h6.33c1.13 0 1.7-.3 2.6-1.8"/><path d="M160.55 319.17l158.9-238.34M160.57 319.15l-.57.85M319.43 80.85L320 80M321 80h718M321.03 80H320M1038.97 80h1.03M1038.67 81v640M1038.67 81.03V80M1038.67 720.97V722M161 320h718M161.03 320H160M878.97 320H880M880.55 319.17l158.9-238.34M880.57 319.15l-.57.85M1039.43 80.85l.57-.85M880 321v640M880 321.03V320M880 960.97V962" stroke="#000" stroke-width="2" fill="none"/><path d="M1040 20h666.93v40H1040z" fill="#fff" fill-opacity="0"/><path d="M1048.1 31.75h4.02c.95-3.07 1.68-5.44 3.1-7.47 1.3-1.86 3.07-3.33 5.7-3.33 2.12 0 3.72 1.12 3.72 2.68 0 .95-.82 1.86-1.8 1.86-.8 0-1.6-.66-1.6-1.7 0-.73.42-.95.42-1.34 0-.34-.34-.56-.95-.56-2.4 0-4 3.03-5.26 9.85h4.62l-.26 1.38h-4.66l-3.1 13.82c-1.82 8-4.72 12.23-8.65 12.23-1.95 0-3.42-1.12-3.42-2.64 0-1 .73-1.8 1.64-1.8 1 0 1.64.68 1.64 1.6 0 .55-.4.76-.4 1.24 0 .4.36.7.88.7 1.8 0 3.2-2.34 4.2-7l3.8-18.15h-3.94M1070.64 43.73l.98 10.75c4-5 5.04-6.63 5.04-7.94 0-.37-.2-.6-.67-1.07-.5-.46-.66-.82-.66-1.25 0-.5.52-.95 1.2-.95.9 0 1.58.74 1.58 1.7 0 1.97-2.26 5.54-6.47 10.67l-.28.34c-.82 1-1.1 1.3-1.37 1.3-.22 0-.28-.26-.34-1.06l-.88-9.46-2.72 4.64c-.55.9-1.1 1.92-1.68 3.02-1.1 2.1-1.62 2.87-1.96 2.87-.27 0-.33-.25-.4-1.44l-.12-2.78c-.12-2.66-.45-5.93-.82-7.4-.27-1.12-.55-1.28-1.44-1.28h-.85V44c.94-.15 1.97-.27 2.9-.5.4-.1.66-.23.88-.23.33 0 .36.06.58 1.04.42 2.1.85 5.9.97 8.6l5.87-9.3c.15-.24.24-.3.4-.3.18 0 .24.1.24.43M1096.17 57.2l-.5.68c-6.84-3.9-10.55-11.18-10.55-18.53 0-8 3.75-14.2 10.67-18.3l.37.68c-6 5.14-7.34 9.16-7.34 17.5 0 8.03 1.3 12.9 7.34 17.96M1107.92 34.9l.52 2.47c3.02-4.63 4.62-6.18 6.52-6.18 1.04 0 1.77.64 1.77 1.6 0 .9-.6 1.54-1.46 1.54-.82 0-1.2-.73-2.25-.73-.78 0-2.33 1.9-4.23 5.23 0 .3.07.9.33 1.95l1.38 5.8c.32 1.2.7 1.76 1.3 1.76.57 0 1.05-.44 2.04-1.73.4-.5.56-.77.9-1.2l.66.4c-2.5 3.88-3.63 4.9-5.27 4.9-1.4 0-2.03-.77-2.55-2.93l-1.26-5.14-3.8 5.14c-1.9 2.55-2.76 2.94-4.1 2.94-1.34 0-2.16-.68-2.16-1.8 0-.87.6-1.56 1.47-1.56.4 0 .82.18 1.38.48.44.26.88.4 1.13.4.48 0 1.3-.83 2.2-2.13l3.55-5.02-1.2-5.36c-.62-2.6-.92-2.93-2-2.93-.34 0-.86.07-1.68.3l-.78.2-.13-.7.47-.16c2.63-.95 4.06-1.25 5.05-1.25 1.08 0 1.6.77 2.2 3.7M1118.03 21.73l.52-.7c6.6 3.98 10.54 11.2 10.54 18.54 0 8-3.8 14.12-10.68 18.3l-.4-.68c6.14-5.06 7.35-9.12 7.35-17.5 0-8.08-1.08-13.05-7.34-17.97M1170.68 36.4h-25.44v-2.84h25.44v2.85m0 8.65h-25.44V42.2h25.44v2.85M1202.22 31.84l1.38 15.2c5.66-7.08 7.12-9.37 7.12-11.23 0-.5-.25-.85-.95-1.5s-.9-1.17-.9-1.77c0-.7.73-1.34 1.68-1.34 1.3 0 2.25 1.03 2.25 2.4 0 2.77-3.2 7.83-9.16 15.08l-.4.48c-1.15 1.42-1.54 1.85-1.93 1.85-.3 0-.38-.37-.47-1.5l-1.25-13.4-3.84 6.58c-.78 1.3-1.56 2.72-2.38 4.27-1.55 2.98-2.3 4.06-2.76 4.06-.4 0-.48-.33-.57-2.02l-.17-3.93c-.17-3.75-.65-8.38-1.16-10.45-.4-1.6-.78-1.8-2.03-1.8h-1.2v-.57c1.33-.22 2.8-.4 4.1-.74.55-.14.94-.3 1.24-.3.5 0 .53.07.83 1.46.6 2.93 1.2 8.33 1.4 12.13l8.28-13.14c.22-.34.35-.43.57-.43.26 0 .35.13.35.6M1228.15 46.66c0 5.26-1.93 10.5-6.9 10.5-5.23 0-6.9-5.67-6.9-10.68 0-5.4 2.1-10.38 7.02-10.38 4 0 6.78 4.3 6.78 10.56m-2.93.16c0-6.36-1.35-9.93-4.04-9.93-2.53 0-3.9 3.6-3.9 9.8 0 6.2 1.34 9.68 3.97 9.68 2.6 0 3.97-3.52 3.97-9.56M1270.3 40.73H1259V52h-2.85V40.74h-11.28v-2.85h11.27V26.6h2.85V37.9h11.27v2.85M1299.45 31.84l1.38 15.2c5.66-7.08 7.12-9.37 7.12-11.23 0-.5-.25-.85-.95-1.5s-.9-1.17-.9-1.77c0-.7.73-1.34 1.68-1.34 1.3 0 2.25 1.03 2.25 2.4 0 2.77-3.2 7.83-9.16 15.08l-.4.48c-1.15 1.42-1.54 1.85-1.93 1.85-.3 0-.4-.37-.48-1.5l-1.25-13.4-3.83 6.58c-.78 1.3-1.56 2.72-2.38 4.27-1.56 2.98-2.3 4.06-2.77 4.06-.4 0-.48-.33-.57-2.02l-.17-3.93c-.18-3.75-.66-8.38-1.17-10.45-.4-1.6-.78-1.8-2.03-1.8h-1.2v-.57c1.33-.22 2.8-.4 4.1-.74.55-.14.94-.3 1.24-.3.48 0 .52.07.82 1.46.6 2.93 1.2 8.33 1.4 12.13l8.28-13.14c.2-.34.34-.43.56-.43.26 0 .35.13.35.6M1322.87 56.74h-8.43v-.46c2.26-.12 2.9-.76 2.9-2.44v-13.7c0-1.05-.27-1.5-.9-1.5-.32 0-.84.14-1.38.36l-.83.3v-.42l5.47-2.78.27.1V54.4c0 1.3.6 1.86 2.9 1.86v.46M1346.27 31.15l-.87 6.04h-.7c-.42-3.6-1.7-5.02-3.83-5.02-1.5 0-2.55.87-2.55 2.46 0 1.17.65 2.42 2.33 4.4 2.16 2.5 2.94 4.2 2.94 5.88 0 3.6-2.64 5.8-6.23 5.8-.73 0-1.38-.05-2.38-.44-.83-.35-1.43-.4-1.9-.4-.48 0-.96.23-1.26.92h-.7l.87-6.87h.7c.6 4.1 2.08 5.88 4.32 5.88 2.03 0 3.3-1.2 3.3-3.32 0-1.38-.75-2.85-2.43-4.97-1.87-2.32-2.73-4.26-2.73-5.65 0-2.85 2.03-4.66 5.22-4.66.73 0 1.33.12 2.4.42.83.26 1.22.3 1.57.3.65 0 .95-.17 1.3-.77h.6M1368.2 31.75l-7.12 25c-.04.18-.08.35-.08.48 0 .83.86 1.34 2.46 1.34h.65v.7h-10.23v-.7c2.72-.17 3.46-.82 3.93-2.42l3.9-12.52c-3.47 5.48-5.67 7.08-9 7.08-2.72 0-4.32-1.93-4.32-5 0-6.82 6.74-14.5 12.66-14.5 1.77 0 2.9.72 3.33 2.67l.7-2.12h3.14m-4.48 2.98c0-1.43-1.12-2.6-2.55-2.6-1.25 0-2.63.83-4.02 2.13-2.93 2.8-5.05 7.25-5.05 10.84 0 2.03.7 3.32 2.3 3.32 1.07 0 2.4-.56 3.53-1.55 2.94-2.55 5.8-8.55 5.8-12.14M1376.72 48.38c0 1.25-1.12 2.33-2.42 2.33-1.34 0-2.37-1.02-2.37-2.36 0-1.34 1.08-2.42 2.4-2.42 1.27 0 2.4 1.16 2.4 2.46M1388.68 31.75h4.02c.95-3.07 1.7-5.44 3.1-7.47 1.3-1.86 3.08-3.33 5.7-3.33 2.13 0 3.73 1.12 3.73 2.68 0 .95-.82 1.86-1.82 1.86-.76 0-1.58-.66-1.58-1.7 0-.73.43-.95.43-1.34 0-.34-.35-.56-.95-.56-2.42 0-4.02 3.03-5.27 9.85h4.62l-.26 1.38h-4.67l-3.1 13.82c-1.83 8-4.72 12.23-8.65 12.23-1.95 0-3.42-1.12-3.42-2.64 0-1 .74-1.8 1.65-1.8 1 0 1.65.68 1.65 1.6 0 .55-.4.76-.4 1.24 0 .4.35.7.87.7 1.82 0 3.2-2.34 4.2-7l3.8-18.15h-3.94M1418.06 31.75l-.22 1.38h-3.63l-3.75 14.17c-.04.17-.08.47-.08.6 0 .57.26.7.65.7.7 0 1.38-.7 3.5-3.42l.56.3c-2.6 3.98-3.93 5.23-6.18 5.23-1.17 0-2-.5-2-1.6 0-.46.36-1.8.7-3.18l3.37-12.8h-3.24c-.04-.12-.04-.25-.04-.25 0-.47.38-.86 1.42-1.08 1.38-.3 4.2-2.43 5.74-4.76.17-.26.43-.4.6-.4.26 0 .4.14.4.36 0 0 0 .2-.05.3l-1.2 4.45h3.46M1455.16 40.73h-11.27V52h-2.86V40.74h-11.28v-2.85h11.28V26.6h2.85V37.9h11.26v2.85M1484.27 31.84l1.4 15.2c5.64-7.08 7.1-9.37 7.1-11.23 0-.5-.25-.85-.94-1.5-.7-.65-.9-1.17-.9-1.77 0-.7.73-1.34 1.68-1.34 1.3 0 2.26 1.03 2.26 2.4 0 2.77-3.2 7.83-9.16 15.08l-.4.48c-1.16 1.42-1.55 1.85-1.93 1.85-.3 0-.4-.37-.48-1.5l-1.26-13.4-3.85 6.58c-.78 1.3-1.56 2.72-2.38 4.27-1.56 2.98-2.3 4.06-2.77 4.06-.38 0-.47-.33-.56-2.02l-.18-3.93c-.17-3.75-.65-8.38-1.17-10.45-.4-1.6-.77-1.8-2.03-1.8h-1.2v-.57c1.33-.22 2.8-.4 4.1-.74.56-.14.95-.3 1.25-.3.48 0 .52.07.82 1.46.6 2.93 1.2 8.33 1.37 12.13l8.3-13.14c.2-.34.34-.43.56-.43.26 0 .34.13.34.6M1510.15 52.56l-1.65 4.18h-11.95v-.36l5.44-5.78c2.86-3.02 3.96-5.34 3.96-7.94 0-2.78-1.65-4.3-4.24-4.3-2.2 0-3.27.97-4.5 3.97l-.64-.16c.65-3.57 2.6-6.07 6.36-6.07 3.45 0 5.65 2.35 5.65 5.37 0 2.4-1.2 4.7-3.92 7.58l-5.04 5.37h7.15c1.27 0 1.9-.33 2.92-2.04M1536.7 32.74h-4.48l-.87 5.8h4.28v2.37h-4.66l-1.34 9.34h-2.5l1.33-9.33h-5.8l-1.4 9.34h-2.52l1.43-9.33h-4.58v-2.37h4.96l.9-5.8h-4.7v-2.36h5.05l1.35-8.73h2.5l-1.34 8.73h5.76l1.3-8.73h2.5l-1.3 8.73h4.15v2.37m-7 0h-5.73l-.9 5.8h5.78M1543.97 37.7h.04c2.95-4.87 5.32-6.5 8.35-6.5 2.9 0 5 1.85 5 5.17 0 6.83-7.12 14.34-13.8 14.34-2.48 0-5.63-.98-5.63-2.28v-.26l6.13-22.6c.26-1.02.4-1.63.4-2.02 0-.95-.22-1-2.77-1.08v-.73c2.9-.35 4.45-.6 6.6-1l.22.22-.9 3.54m6.1 12.52c0-2.64-1.14-3.72-3.04-3.72-2.07 0-4.06 1.82-5.9 4.97-1.92 3.2-3.12 7.4-3.12 9.98 0 1 .64 1.47 1.98 1.47 1.86 0 3.72-.9 5.3-2.55 2.6-2.68 4.77-6.95 4.77-10.15M1578.57 45.44l.56.48c-3.24 3.93-4.28 4.75-6 4.75-1.22 0-1.73-.52-1.73-1.77 0-1.08.08-1.43 1-4.97-3.25 4.88-5.76 6.78-8.78 6.78-2.42 0-4.32-1.72-4.32-5 0-6.7 6.6-14.5 12.35-14.5 1.86 0 3.1.9 3.46 2.5l.5-2.08.12-.13 2.63-.3.3.12c-.08.4-.13.47-.26.9-2.04 7.4-3.85 14.82-3.85 15.68 0 .3.26.57.6.57.4 0 .95-.35 2.25-1.77m-3.07-12.06c0-1.5-.9-2.5-2.42-2.5-1.93 0-3.83 1.34-5.64 3.97-1.82 2.73-3.33 6.58-3.33 9.3 0 2.37 1.04 3.2 2.6 3.2 2.15 0 4.18-2.38 5.48-4.24 2.04-2.93 3.33-6.65 3.33-9.72M1593 31.75l-.22 1.38h-3.63l-3.76 14.17c-.05.17-.1.47-.1.6 0 .57.26.7.65.7.7 0 1.38-.7 3.5-3.42l.56.3c-2.58 3.98-3.92 5.23-6.16 5.23-1.17 0-2-.5-2-1.6 0-.46.35-1.8.7-3.18l3.37-12.8h-3.23c-.04-.12-.04-.25-.04-.25 0-.47.4-.86 1.42-1.08 1.38-.3 4.2-2.43 5.75-4.76.17-.26.43-.4.6-.4.26 0 .4.14.4.36 0 0 0 .2-.05.3l-1.2 4.45h3.44M1613.12 45.14l.56.56c-2.63 3.76-4.1 4.93-6.3 4.93-1.17 0-1.9-.7-1.9-1.82 0-.5.3-1.85.86-3.96l2.38-8.94c.17-.7.3-1.26.3-1.43 0-.65-.22-1.08-1.2-1.08-1.57 0-4.33 2.63-6.58 6.04-1.72 2.63-2.42 4.15-4.14 10.8h-3.24l6.3-23.93c.35-1.33.56-2.07.56-2.67 0-.73-1-1.08-1.77-1.08h-1.16v-.65c2.58-.3 4.26-.6 6.77-1.16l.3.25-5.23 19.3c3.9-6.3 7.26-9.1 9.94-9.1 2 0 2.8 1.28 2.8 2.88 0 1.08-.77 4.28-2.07 8.34-.72 2.24-1.4 4.92-1.4 5.4 0 .43.3.78.68.78.7 0 1.2-.52 3.54-3.46M1622.24 40.6l.7-1.5c.8-1.82 2.28-4.1 4.05-5.97 1.1-1.16 2.4-1.94 3.4-1.94 1.2 0 2.03.9 2.03 2.2 0 1.3-.74 2.32-2.03 2.32-.78 0-1.12-.47-1.5-1.12-.27-.43-.4-.6-.7-.6-.78 0-2 1.42-3.55 4.06-1.85 3.2-2.63 4.92-4.8 12.18h-3.27l3.5-12.62c.6-2.24.7-2.63.7-3.54 0-.9-.8-1.12-1.65-1.12-.35 0-.7.04-1.34.13v-.75l6.68-1.16.13.07M1652.7 37.24c0 3.28-1.74 7.08-4.6 9.9-2.5 2.5-5.26 3.57-8.1 3.57-4.07 0-6.36-2.23-6.36-6 0-4.83 3.24-9.8 7.77-12.22 1.7-.9 3.43-1.3 5.2-1.3 3.5 0 6.1 2.25 6.1 6.06m-3.64-1.08c0-2.64-1.2-4.06-3.07-4.06-1.9 0-3.8 1.33-5.54 3.93-1.98 3.02-3.2 6.43-3.2 9.84 0 2.6 1.35 3.94 3.38 3.94 1.9 0 3.54-1.25 5.22-3.58 2-2.72 3.2-6.78 3.2-10.06M1674.28 37.24c0 3.28-1.72 7.08-4.57 9.9-2.5 2.5-5.26 3.57-8.1 3.57-4.08 0-6.36-2.23-6.36-6 0-4.83 3.24-9.8 7.77-12.22 1.7-.9 3.42-1.3 5.2-1.3 3.5 0 6.08 2.25 6.08 6.06m-3.62-1.08c0-2.64-1.2-4.06-3.07-4.06-1.9 0-3.8 1.33-5.54 3.93-2 3.02-3.2 6.43-3.2 9.84 0 2.6 1.34 3.94 3.37 3.94 1.9 0 3.54-1.25 5.23-3.58 2-2.72 3.2-6.78 3.2-10.06M1706.12 45.7l-.22.3c-2.3 3.2-4.2 4.63-6.22 4.63-1.12 0-1.73-.7-1.73-2 0-.42.13-1.16.57-2.84l2.5-9.82c.22-.86.3-1.42.3-1.64 0-.52-.38-.9-.86-.9-1.3 0-3.5 2.02-5.66 5.05-2.12 2.97-2.98 5.1-4.66 11.74h-3.24l1.16-4.02c1.9-6.57 2.94-11.14 2.94-11.7 0-.7-.4-1.1-.95-1.1-1.47 0-4.02 2.52-6.44 6.2-1.45 2.24-2.06 3.8-4.13 10.62h-3.24l1.86-6.22c1.7-5.75 2.36-9.33 2.36-9.85 0-.65-.6-.95-1.77-.95h-1.1v-.7l7-1.33.14.07-2.5 9.03c3.84-6.26 6.86-9.1 9.5-9.1 1.72 0 2.6 1.03 2.6 2.58 0 .82-.58 3.24-1.74 6.57 3.02-4.8 4.8-6.96 6.9-8.3 1.05-.65 1.87-.86 2.73-.86 1.6 0 2.5 1.15 2.5 2.7 0 .3-.08 1-.12 1.22l-2.93 10.84c-.26 1-.43 1.77-.43 1.94 0 .48.17.7.52.7.73 0 1.5-.7 2.8-2.3l.9-1.12"/><path d="M1160.94 80.35l18.78 7.05 7.43 3.93 3.6 2.52 2 1.82 1.2 1.42.8 1.16.5 1.02.3.93.2.87.07.85-.04.85-.14.88-.28.95-.48 1.08-.76 1.28-1.28 1.64-2.4 2.38-12.44 9.35-1.3.98-1.97 1.28-3.26 1.83-6.94 3.33-44.55 19.56-4.54 2.55M1160.96 80.36L1160 80" stroke="#000" stroke-width="2" fill="none"/><path d="M1102.7 158.22l9.38-11.7 5.1 7.74z" stroke="#000" stroke-width="2"/><defs><path d="M135-143c-3-34-86-38-87 0 15 53 115 12 119 90S17 21 10-45l28-5c4 36 97 45 98 0-10-56-113-15-118-90-4-57 82-63 122-42 12 7 21 19 24 35" id="j"/><path d="M145-31C134-9 116 4 85 4 32 4 16-35 15-94c0-59 17-99 70-100 32-1 48 14 60 33 0-11-1-24 2-32h30l-1 268h-32zM93-21c41 0 51-33 51-76s-8-73-50-73c-40 0-46 35-46 75s5 74 45 74" id="k"/><path d="M84 4C-5 8 30-112 23-190h32v120c0 31 7 50 39 49 72-2 45-101 50-169h31l1 190h-30c-1-10 1-25-2-33-11 22-28 36-60 37" id="l"/><path d="M141-36C126-15 110 5 73 4 37 3 15-17 15-53c-1-64 63-63 125-63 3-35-9-54-41-54-24 1-41 7-42 31l-33-3c5-37 33-52 76-52 45 0 72 20 72 64v82c-1 20 7 32 28 27v20c-31 9-61-2-59-35zM48-53c0 20 12 33 32 33 41-3 63-29 60-74-43 2-92-5-92 41" id="m"/><path d="M114-163C36-179 61-72 57 0H25l-1-190h30c1 12-1 29 2 39 6-27 23-49 58-41v29" id="n"/><path d="M100-194c63 0 86 42 84 106H49c0 40 14 67 53 68 26 1 43-12 49-29l28 8c-11 28-37 45-77 45C44 4 14-33 15-96c1-61 26-98 85-98zm52 81c6-60-76-77-97-28-3 7-6 17-6 28h103" id="o"/><g id="a"><use transform="matrix(0.07407407407407408,0,0,0.07407407407407408,0,0)" xlink:href="#j"/><use transform="matrix(0.07407407407407408,0,0,0.07407407407407408,13.333333333333336,0)" xlink:href="#k"/><use transform="matrix(0.07407407407407408,0,0,0.07407407407407408,28.148148148148152,0)" xlink:href="#l"/><use transform="matrix(0.07407407407407408,0,0,0.07407407407407408,42.96296296296297,0)" xlink:href="#m"/><use transform="matrix(0.07407407407407408,0,0,0.07407407407407408,57.777777777777786,0)" xlink:href="#n"/><use transform="matrix(0.07407407407407408,0,0,0.07407407407407408,66.59259259259261,0)" xlink:href="#o"/></g><path d="M101-234c-31-9-42 10-38 44h38v23H63V0H32v-167H5v-23h27c-7-52 17-82 69-68v24" id="p"/><path d="M59-47c-2 24 18 29 38 22v24C64 9 27 4 27-40v-127H5v-23h24l9-43h21v43h35v23H59v120" id="q"/><g id="b"><use transform="matrix(0.07407407407407408,0,0,0.07407407407407408,0,0)" xlink:href="#p"/><use transform="matrix(0.07407407407407408,0,0,0.07407407407407408,7.407407407407408,0)" xlink:href="#o"/><use transform="matrix(0.07407407407407408,0,0,0.07407407407407408,22.222222222222225,0)" xlink:href="#o"/><use transform="matrix(0.07407407407407408,0,0,0.07407407407407408,37.03703703703704,0)" xlink:href="#q"/></g><path d="M87 75C49 33 22-17 22-94c0-76 28-126 65-167h31c-38 41-64 92-64 168S80 34 118 75H87" id="r"/><path d="M33 0v-38h34V0H33" id="s"/><g id="c"><use transform="matrix(0.07407407407407408,0,0,0.07407407407407408,0,0)" xlink:href="#r"/><use transform="matrix(0.07407407407407408,0,0,0.07407407407407408,8.814814814814817,0)" xlink:href="#j"/><use transform="matrix(0.07407407407407408,0,0,0.07407407407407408,22.148148148148152,0)" xlink:href="#k"/><use transform="matrix(0.07407407407407408,0,0,0.07407407407407408,36.96296296296297,0)" xlink:href="#s"/></g><path d="M33-261c38 41 65 92 65 168S71 34 33 75H2C39 34 66-17 66-93S39-220 2-261h31" id="t"/><g id="d"><use transform="matrix(0.07407407407407408,0,0,0.07407407407407408,0,0)" xlink:href="#p"/><use transform="matrix(0.07407407407407408,0,0,0.07407407407407408,7.407407407407408,0)" xlink:href="#q"/><use transform="matrix(0.07407407407407408,0,0,0.07407407407407408,14.814814814814817,0)" xlink:href="#s"/><use transform="matrix(0.07407407407407408,0,0,0.07407407407407408,22.222222222222225,0)" xlink:href="#t"/></g><path d="M115-194c55 1 70 41 70 98S169 2 115 4C84 4 66-9 55-30l1 105H24l-1-265h31l2 30c10-21 28-34 59-34zm-8 174c40 0 45-34 45-75s-6-73-45-74c-42 0-51 32-51 76 0 43 10 73 51 73" id="u"/><path d="M24-231v-30h32v30H24zM24 0v-190h32V0H24" id="v"/><path d="M96-169c-40 0-48 33-48 73s9 75 48 75c24 0 41-14 43-38l32 2c-6 37-31 61-74 61-59 0-76-41-82-99-10-93 101-131 147-64 4 7 5 14 7 22l-32 3c-4-21-16-35-41-35" id="w"/><g id="e"><use transform="matrix(0.07407407407407408,0,0,0.07407407407407408,0,0)" xlink:href="#u"/><use transform="matrix(0.07407407407407408,0,0,0.07407407407407408,14.814814814814817,0)" xlink:href="#n"/><use transform="matrix(0.07407407407407408,0,0,0.07407407407407408,23.629629629629633,0)" xlink:href="#v"/><use transform="matrix(0.07407407407407408,0,0,0.07407407407407408,29.481481481481488,0)" xlink:href="#w"/><use transform="matrix(0.07407407407407408,0,0,0.07407407407407408,42.814814814814824,0)" xlink:href="#o"/></g><path d="M194-70c0 46-34 64-81 66v29H91V-4C42-5 12-27 4-67l30-6c5 28 25 41 57 43v-87c-38-9-76-20-76-67 1-42 33-58 76-59v-23h22v23c45 0 67 20 76 56l-31 6c-5-23-18-35-45-37v78c41 10 81 20 81 70zm-81 41c51 7 71-66 19-77-6-2-12-4-19-6v83zM91-219c-47-6-63 57-18 69 6 2 12 3 18 5v-74" id="x"/><g id="f"><use transform="matrix(0.07407407407407408,0,0,0.07407407407407408,0,0)" xlink:href="#r"/><use transform="matrix(0.07407407407407408,0,0,0.07407407407407408,8.814814814814817,0)" xlink:href="#x"/><use transform="matrix(0.07407407407407408,0,0,0.07407407407407408,23.629629629629633,0)" xlink:href="#t"/></g><path d="M137-103V0h-34v-103L8-248h37l75 118 75-118h37" id="y"/><use transform="matrix(0.07407407407407408,0,0,0.07407407407407408,0,0)" xlink:href="#y" id="g"/><path d="M158-156l-14 65h45v19h-49L124 0h-19l15-72H56L41 0H22l15-72H2v-19h39l14-65H11v-19h48l15-71h20l-16 71h64l16-71h19l-16 71h37v19h-40zm-83 0L61-91h63l14-65H75" id="z"/><use transform="matrix(0.07407407407407408,0,0,0.07407407407407408,0,0)" xlink:href="#z" id="h"/><path d="M115-194c53 0 69 39 70 98 0 66-23 100-70 100C84 3 66-7 56-30L54 0H23l1-261h32v101c10-23 28-34 59-34zm-8 174c40 0 45-34 45-75 0-40-5-75-45-74-42 0-51 32-51 76 0 43 10 73 51 73" id="A"/><path d="M106-169C34-169 62-67 57 0H25v-261h32l-1 103c12-21 28-36 61-36 89 0 53 116 60 194h-32v-121c2-32-8-49-39-48" id="B"/><path d="M100-194c62-1 85 37 85 99 1 63-27 99-86 99S16-35 15-95c0-66 28-99 85-99zM99-20c44 1 53-31 53-75 0-43-8-75-51-75s-53 32-53 75 10 74 51 75" id="C"/><path d="M210-169c-67 3-38 105-44 169h-31v-121c0-29-5-50-35-48C34-165 62-65 56 0H25l-1-190h30c1 10-1 24 2 32 10-44 99-50 107 0 11-21 27-35 58-36 85-2 47 119 55 194h-31v-121c0-29-5-49-35-48" id="D"/><g id="i"><use transform="matrix(0.07407407407407408,0,0,0.07407407407407408,0,0)" xlink:href="#A"/><use transform="matrix(0.07407407407407408,0,0,0.07407407407407408,14.814814814814817,0)" xlink:href="#m"/><use transform="matrix(0.07407407407407408,0,0,0.07407407407407408,29.629629629629633,0)" xlink:href="#q"/><use transform="matrix(0.07407407407407408,0,0,0.07407407407407408,37.03703703703704,0)" xlink:href="#B"/><use transform="matrix(0.07407407407407408,0,0,0.07407407407407408,51.85185185185186,0)" xlink:href="#n"/><use transform="matrix(0.07407407407407408,0,0,0.07407407407407408,60.66666666666667,0)" xlink:href="#C"/><use transform="matrix(0.07407407407407408,0,0,0.07407407407407408,75.4814814814815,0)" xlink:href="#C"/><use transform="matrix(0.07407407407407408,0,0,0.07407407407407408,90.2962962962963,0)" xlink:href="#D"/><use transform="matrix(0.07407407407407408,0,0,0.07407407407407408,112.44444444444446,0)" xlink:href="#j"/></g></defs></g></svg>