<svg xmlns="http://www.w3.org/2000/svg" xmlns:xlink="http://www.w3.org/1999/xlink" xmlns:lucid="lucid" width="1496.36" height="931"><g transform="translate(-140 -129)" lucid:page-tab-id="W8NwUfbznV8W"><path d="M240 959V178.5M240 958.97V960" stroke="#000" stroke-width="2" fill="none"/><path d="M240 163.24l4.64 14.26h-9.28z" stroke="#000" stroke-width="2"/><path d="M241 960h780.5M241.03 960H240" stroke="#000" stroke-width="2" fill="none"/><path d="M1036.76 960l-14.26 4.64v-9.28z" stroke="#000" stroke-width="2"/><path d="M480 980h320v60H480z" stroke="#000" stroke-opacity="0" stroke-width="2" fill="#fff" fill-opacity="0"/><use xlink:href="#a" transform="matrix(1,0,0,1,485,985) translate(43.25925925925925 30.708333333333336)"/><use xlink:href="#b" transform="matrix(1,0,0,1,485,985) translate(132.07407407407408 30.708333333333336)"/><use xlink:href="#c" transform="matrix(1,0,0,1,485,985) translate(183.92592592592592 30.708333333333336)"/><use xlink:href="#d" transform="matrix(1,0,0,1,485,985) translate(235.7037037037037 30.708333333333336)"/><path d="M300 710c0 5.52-4.48 10-10 10s-10-4.48-10-10 4.48-10 10-10 10 4.48 10 10z" stroke="#000" stroke-width="2" fill="#c1e4f7"/><path d="M160 720V400h60v320z" stroke="#000" stroke-opacity="0" stroke-width="2" fill="#fff" fill-opacity="0"/><use xlink:href="#e" transform="matrix(6.123233995736766e-17,-1,1,6.123233995736766e-17,165,715) translate(106.25925925925925 30.708333333333336)"/><use xlink:href="#f" transform="matrix(6.123233995736766e-17,-1,1,6.123233995736766e-17,165,715) translate(171.2962962962963 30.708333333333336)"/><path d="M360 750c0 5.52-4.48 10-10 10s-10-4.48-10-10 4.48-10 10-10 10 4.48 10 10zM440 730c0 5.52-4.48 10-10 10s-10-4.48-10-10 4.48-10 10-10 10 4.48 10 10zM480 790c0 5.52-4.48 10-10 10s-10-4.48-10-10 4.48-10 10-10 10 4.48 10 10z" stroke="#000" stroke-width="2" fill="#c1e4f7"/><path d="M160 160h80v80h-80z" stroke="#000" stroke-opacity="0" stroke-width="2" fill="#fff" fill-opacity="0"/><use xlink:href="#g" transform="matrix(1,0,0,1,165,165) translate(26.11111111111111 41.020833333333336)"/><path d="M960 960h80v80h-80z" stroke="#000" stroke-opacity="0" stroke-width="2" fill="#fff" fill-opacity="0"/><use xlink:href="#h" transform="matrix(1,0,0,1,965,965) translate(26.11111111111111 41.020833333333336)"/><path d="M560 550c0 5.52-4.48 10-10 10s-10-4.48-10-10 4.48-10 10-10 10 4.48 10 10zM580 610c0 5.52-4.48 10-10 10s-10-4.48-10-10 4.48-10 10-10 10 4.48 10 10zM600 650c0 5.52-4.48 10-10 10s-10-4.48-10-10 4.48-10 10-10 10 4.48 10 10zM640 590c0 5.52-4.48 10-10 10s-10-4.48-10-10 4.48-10 10-10 10 4.48 10 10zM680 570c0 5.52-4.48 10-10 10s-10-4.48-10-10 4.48-10 10-10 10 4.48 10 10zM780 410c0 5.52-4.48 10-10 10s-10-4.48-10-10 4.48-10 10-10 10 4.48 10 10zM820 450c0 5.52-4.48 10-10 10s-10-4.48-10-10 4.48-10 10-10 10 4.48 10 10zM880 330c0 5.52-4.48 10-10 10s-10-4.48-10-10 4.48-10 10-10 10 4.48 10 10zM940 430c0 5.52-4.48 10-10 10s-10-4.48-10-10 4.48-10 10-10 10 4.48 10 10z" stroke="#000" stroke-width="2" fill="#c1e4f7"/><path d="M241.93 918.4l796.14-656.8M241.98 918.37L240 920M1038.02 261.63L1040 260" stroke="#c7e8ac" stroke-width="5" fill="none"/><path d="M320 160h380v80H320z" stroke="#000" stroke-opacity="0" stroke-width="2" fill="#fff" fill-opacity="0"/><use xlink:href="#i" transform="matrix(1,0,0,1,325,165) translate(5.370370370370324 41.020833333333336)"/><use xlink:href="#j" transform="matrix(1,0,0,1,325,165) translate(117.59259259259257 41.020833333333336)"/><use xlink:href="#k" transform="matrix(1,0,0,1,325,165) translate(173.88888888888886 41.020833333333336)"/><use xlink:href="#l" transform="matrix(1,0,0,1,325,165) translate(233.07407407407405 41.020833333333336)"/><use xlink:href="#m" transform="matrix(1,0,0,1,325,165) translate(267 41.020833333333336)"/><path d="M290 722v155.75" stroke="#c92d39" stroke-width="2" fill="none"/><path d="M291 722.04h-2v-1.2l1 .17 1-.15z" fill="#c92d39"/><path d="M290 877.72v1.03M350 762v66.25" stroke="#c92d39" stroke-width="2" fill="none"/><path d="M351 762.04h-2v-1.2l1 .17 1-.15z" fill="#c92d39"/><path d="M350 828.22v1.03M430 742v20.25" stroke="#c92d39" stroke-width="2" fill="none"/><path d="M431 742.04h-2v-1.2l1 .17 1-.15z" fill="#c92d39"/><path d="M430 762.22v1.03M470 778v-46.75" stroke="#c92d39" stroke-width="2" fill="none"/><path d="M471 779.12l-1-.13-1 .12v-1.15h2z" fill="#c92d39"/><path d="M470 731.28v-1.03M550 663.25V562M550 663.22v1.03" stroke="#c92d39" stroke-width="2" fill="none"/><path d="M550 561l1-.15v1.2h-2v-1.2z" fill="#c92d39"/><path d="M570 646.75V622M570 646.72v1.03" stroke="#c92d39" stroke-width="2" fill="none"/><path d="M571 622.04h-2v-1.2l1 .17 1-.15z" fill="#c92d39"/><path d="M590 632.25V640M590 632.28v-1.03M590 640v1M770 481.75V422M770 481.72v1.03" stroke="#c92d39" stroke-width="2" fill="none"/><path d="M771 422.04h-2v-1.2l1 .17 1-.15z" fill="#c92d39"/><path d="M870 399.25V342M870 399.22v1.03" stroke="#c92d39" stroke-width="2" fill="none"/><path d="M871 342.04h-2v-1.2l1 .17 1-.15z" fill="#c92d39"/><path d="M930 418v-66.25" stroke="#c92d39" stroke-width="2" fill="none"/><path d="M931 419.12l-1-.13-1 .12v-1.15h2z" fill="#c92d39"/><path d="M930 351.78v-1.03" stroke="#c92d39" stroke-width="2" fill="none"/><path d="M1080 400.85h267.46v40H1080z" fill="#fff" fill-opacity="0"/><path d="M1086.52 402.66h11.36c5.95 0 9.2 2.52 9.2 6.36 0 2.16-1.13 4.37-2.98 5.77-1.4 1.07-2.88 1.6-5.9 2.3l4 10.58c1 2.66 1.9 3.7 3.93 3.7v.72h-6.63l-5.54-14.6-2.98-.23-2.48 9.15c-.5 1.76-.6 2.4-.6 2.84 0 1.36.46 1.85 3.04 2.12v.72h-10.96v-.72c2.48-.3 3.1-1.17 3.83-3.83l5.38-19.44c.3-1.2.54-2.06.54-2.83 0-.5-.32-1.03-.63-1.26-.5-.3-.7-.35-2.58-.62v-.72m7.84 2.7l-2.84 10.24c1.13.18 1.5.22 2.3.22 5.37 0 8.52-2.57 8.52-6.76 0-3.1-1.9-5.05-5.4-5.05-1.4 0-2.35.5-2.58 1.36M1131.02 402.03l-1.8 9-.8-.12c0-4.6-1-7.34-5.38-7.34-3.1 0-5.05 1.67-5.05 4.5 0 2.22.35 2.94 4.46 7.04 4.1 4.15 5.1 6.1 5.1 9.02 0 5.14-3.93 8.8-9.12 8.8-1.4 0-2.6-.32-4.7-1.04-1.2-.45-1.6-.54-2.1-.54-.9 0-1.63.4-1.95 1.44h-.82l1.54-10.1.9.1c-.1.4-.1.7-.1 1.03 0 4.43 2.7 7.54 6.5 7.54 3.47 0 5.9-2.35 5.9-5.78 0-1.93-.62-3.3-2.7-5.54l-1.76-1.9c-.63-.67-1.17-1.3-1.76-1.9-2.7-2.88-3.38-4.32-3.38-6.75 0-4.74 3.7-7.4 8.03-7.4 1.4 0 2.9.23 3.83.63.95.36 1.5.5 2.08.5 1 0 1.4-.23 2.03-1.17h1.02M1153.98 402.03l-1.8 9-.82-.12c0-4.6-1-7.34-5.37-7.34-3.12 0-5.06 1.67-5.06 4.5 0 2.22.36 2.94 4.47 7.04 4.1 4.15 5.1 6.1 5.1 9.02 0 5.14-3.92 8.8-9.1 8.8-1.4 0-2.62-.32-4.7-1.04-1.2-.45-1.62-.54-2.1-.54-.92 0-1.64.4-1.95 1.44h-.82l1.54-10.1.9.1c-.1.4-.1.7-.1 1.03 0 4.43 2.72 7.54 6.5 7.54 3.48 0 5.9-2.35 5.9-5.78 0-1.93-.62-3.3-2.7-5.54l-1.75-1.9c-.64-.67-1.18-1.3-1.76-1.9-2.7-2.88-3.38-4.32-3.38-6.75 0-4.74 3.7-7.4 8.02-7.4 1.4 0 2.9.23 3.83.63.95.36 1.5.5 2.08.5 1 0 1.4-.23 2.04-1.17h1.04M1167.68 439.36l-.54.72c-7.12-4.05-11-11.67-11-19.34 0-8.34 3.92-14.84 11.14-19.12l.4.72c-6.26 5.37-7.66 9.56-7.66 18.26 0 8.4 1.35 13.5 7.66 18.76M1187.2 412.9l1.45 15.87c5.9-7.4 7.44-9.8 7.44-11.73 0-.54-.28-.9-1-1.58-.72-.67-.95-1.2-.95-1.84 0-.73.77-1.4 1.76-1.4 1.36 0 2.36 1.08 2.36 2.52 0 2.9-3.34 8.16-9.56 15.74l-.4.5c-1.23 1.48-1.63 1.94-2.04 1.94-.3 0-.4-.4-.5-1.58l-1.3-13.98-4 6.85c-.83 1.36-1.64 2.85-2.5 4.48-1.62 3.1-2.38 4.24-2.88 4.24-.4 0-.5-.37-.6-2.12l-.17-4.1c-.17-3.93-.66-8.76-1.2-10.92-.4-1.67-.82-1.9-2.12-1.9h-1.27v-.58c1.4-.23 2.94-.4 4.3-.77.58-.13 1-.3 1.3-.3.5 0 .55.08.86 1.52.63 3.07 1.26 8.7 1.44 12.67l8.66-13.7c.23-.37.36-.46.6-.46.26 0 .35.14.35.63M1214.28 428.37c0 5.5-2 10.97-7.2 10.97-5.46 0-7.2-5.93-7.2-11.16 0-5.64 2.2-10.84 7.32-10.84 4.18 0 7.08 4.5 7.08 11.03m-3.06.16c0-6.63-1.4-10.36-4.2-10.36-2.65 0-4.1 3.76-4.1 10.23 0 6.48 1.4 10.1 4.16 10.1 2.7 0 4.14-3.65 4.14-9.97M1223.33 438.46l-.45-.86c2.48-1.66 3.74-3.33 3.74-4.82 0-.32-.27-.6-.63-.6-.37 0-.82.2-1.32.2-1.67 0-2.6-.77-2.6-2.3 0-1.54 1.07-2.58 2.7-2.58 2.02 0 3.6 1.58 3.6 3.93 0 2.7-1.94 5.54-5.05 7.03M1256.56 412.9l1.45 15.87c5.9-7.4 7.45-9.8 7.45-11.73 0-.54-.27-.9-1-1.58-.72-.67-.94-1.2-.94-1.84 0-.73.77-1.4 1.77-1.4 1.35 0 2.34 1.08 2.34 2.52 0 2.9-3.33 8.16-9.55 15.74l-.4.5c-1.22 1.48-1.63 1.94-2.03 1.94-.32 0-.4-.4-.5-1.58l-1.3-13.98-4.02 6.85c-.8 1.36-1.62 2.85-2.48 4.48-1.63 3.1-2.4 4.24-2.9 4.24-.4 0-.48-.37-.57-2.12l-.18-4.1c-.18-3.93-.68-8.76-1.22-10.92-.4-1.67-.8-1.9-2.12-1.9h-1.26v-.58c1.4-.23 2.93-.4 4.28-.77.6-.13 1-.3 1.3-.3.5 0 .55.08.86 1.52.65 3.07 1.28 8.7 1.46 12.67l8.66-13.7c.22-.37.36-.46.58-.46.27 0 .36.14.36.63M1281.02 438.9h-8.8v-.48c2.36-.13 3.03-.8 3.03-2.55v-14.32c0-1.08-.3-1.56-.96-1.56-.33 0-.87.15-1.44.37l-.86.32v-.46l5.7-2.9.3.1v19.03c0 1.37.63 1.95 3.02 1.95v.48M1290.25 402.34l.54-.72c6.9 4.15 11 11.68 11 19.35 0 8.34-3.98 14.74-11.15 19.1l-.4-.7c6.4-5.28 7.66-9.52 7.66-18.27 0-8.43-1.1-13.62-7.65-18.76M1345.26 417.67h-26.56v-2.97h26.56v2.97m0 9.02h-26.56v-2.98h26.56v2.97"/><path d="M1120 460h496.36v40H1120z" fill="#fff" fill-opacity="0"/><path d="M1131.22 497.6l-.44.6c-5.83-3.33-9-9.57-9-15.84 0-6.83 3.2-12.15 9.1-15.66l.34.6c-5.13 4.4-6.27 7.82-6.27 14.94 0 6.87 1.1 11.04 6.27 15.36M1142.04 468.14v9.08c4.46 2.4 5.4 3.33 6.38 4.84.52.77.78 1.96.78 3.32 0 4.28-2.92 5.7-7.16 6.28v3.2h-1.26v-3.2c-3.2 0-4.83-.52-6.86-1.9V485h.55c.77 3.7 3.06 5.64 6.3 5.64v-10.4c-5.08-2.88-6.56-4.4-6.56-7.5 0-3.7 3.15-5.35 6.58-5.57v-2.33h1.26v2.33c3 .18 4.8.8 5.94 1.95v4.1h-.55c-.74-3.06-2.44-4.7-5.4-5.06m-1.25 8.5v-8.5c-2.62.52-3.84 2-3.84 3.88 0 1.62.74 2.5 3.84 4.6m1.26 4.22v9.78c3-.62 4.2-1.77 4.2-4.4 0-2.24-.84-3.4-4.2-5.38M1162.88 494.1l.34.35c-1.6 2.27-2.48 2.98-3.8 2.98-.7 0-1.16-.42-1.16-1.1 0-.3.2-1.12.53-2.4l1.42-5.4c.1-.42.2-.76.2-.86 0-.4-.15-.66-.75-.66-.94 0-2.6 1.6-3.96 3.67-1.04 1.6-1.45 2.5-2.5 6.52h-1.96l3.8-14.47c.22-.8.35-1.25.35-1.6 0-.46-.6-.67-1.08-.67h-.7v-.4c1.56-.17 2.58-.35 4.1-.7l.18.16-3.16 11.67c2.35-3.82 4.4-5.52 6-5.52 1.2 0 1.7.8 1.7 1.75 0 .65-.47 2.6-1.25 5.04-.46 1.36-.87 2.97-.87 3.26 0 .26.18.47.4.47.43 0 .75-.3 2.15-2.1M1176 489.34c0 1.98-1.03 4.28-2.75 5.97-1.52 1.53-3.2 2.18-4.9 2.18-2.46 0-3.85-1.36-3.85-3.63 0-2.92 1.96-5.92 4.7-7.38 1.02-.55 2.06-.8 3.13-.8 2.12 0 3.68 1.37 3.68 3.67m-2.18-.66c0-1.6-.73-2.45-1.85-2.45-1.15 0-2.3.8-3.34 2.38-1.2 1.83-1.93 3.9-1.93 5.96 0 1.56.8 2.37 2.03 2.37 1.15 0 2.14-.75 3.16-2.16 1.2-1.65 1.92-4.1 1.92-6.1M1188.9 494.1l.37.22c-1.7 2.6-2.37 3.1-3.6 3.1-.78 0-1.25-.44-1.25-1.24 0-.58.34-2.33 1.17-5.15-3.1 5.07-4.4 6.45-6.25 6.45-.9 0-1.38-.42-1.38-1.38 0-.5.24-1.44.7-3.34l.92-3.63c.2-.86.35-1.54.35-1.75 0-.18-.13-.4-.28-.47-.24-.12-.32-.15-1.3-.15v-.36c1.48-.2 2.42-.38 3.9-.72l.1.08-2.3 9.27c-.04.08-.1.3-.1.4 0 .4.14.67.53.67.9 0 2.1-1.4 3.7-3.84 1.24-1.85 1.6-2.84 2.88-6.34h1.93l-2.05 7.8c-.13.5-.5 1.72-.5 2.04 0 .3.1.44.3.44.4 0 .83-.36 2.16-2.1M1199.48 485.66l-.52 3.65h-.42c-.26-2.16-1.05-3.02-2.32-3.02-.92 0-1.54.53-1.54 1.5 0 .7.4 1.45 1.4 2.65 1.3 1.52 1.78 2.54 1.78 3.55 0 2.17-1.6 3.5-3.76 3.5-.44 0-.83-.03-1.43-.26-.5-.2-.87-.24-1.15-.24-.3 0-.58.14-.76.55h-.42l.52-4.15h.42c.37 2.48 1.26 3.55 2.6 3.55 1.24 0 2-.73 2-2 0-.84-.45-1.73-1.47-3-1.1-1.42-1.63-2.6-1.63-3.43 0-1.72 1.23-2.82 3.16-2.82.44 0 .8.08 1.46.26.5.16.72.2.93.2.4 0 .57-.12.78-.48h.38M1209.45 494.35l.3.3c-1.48 1.84-3.15 2.83-5.3 2.83-2.13 0-3.54-1.4-3.54-3.57 0-4.04 3.9-8.22 7.82-8.22 1.38 0 2.14.68 2.14 1.78 0 2.24-2.74 4.28-7.4 4.88-.28.52-.28 1.2-.28 1.6 0 1.43.97 2.37 2.43 2.37 1.16 0 1.97-.4 3.85-1.95m-5.38-3.73l-.44 1.14c2.24-.54 3.23-1 4.2-1.93.8-.78 1.3-1.72 1.3-2.53 0-.62-.18-1.02-.9-1.02-1.5 0-3.27 2-4.16 4.34M1221.98 497.2h-7.2v-.4c1.92-.1 2.47-.65 2.47-2.1V483c0-.9-.23-1.28-.78-1.28-.26 0-.7.13-1.17.3l-.7.27v-.38l4.66-2.37.24.08v15.58c0 1.13.52 1.6 2.48 1.6v.4M1259.6 483.54h-20.56v-2.44h20.56v2.44M1281.23 497.42h-7.8v-30.2h7.8v.92h-3.06c-1.26 0-1.92.45-1.92 1.78v24.58c0 1.48.7 2 1.92 2h3.06v.92M1297.36 475.93l1.18 13c4.84-6.06 6.1-8 6.1-9.6 0-.44-.23-.74-.82-1.3-.6-.55-.77-1-.77-1.5 0-.6.62-1.15 1.44-1.15 1.1 0 1.9.88 1.9 2.07 0 2.36-2.73 6.68-7.82 12.88l-.33.4c-1 1.22-1.33 1.6-1.66 1.6-.27 0-.34-.34-.42-1.3l-1.07-11.44-3.27 5.6c-.67 1.1-1.33 2.32-2.03 3.65-1.33 2.55-1.96 3.47-2.37 3.47-.33 0-.4-.3-.48-1.73l-.14-3.37c-.14-3.2-.55-7.16-1-8.94-.32-1.37-.66-1.56-1.73-1.56h-1.03v-.48c1.15-.18 2.4-.33 3.5-.62.5-.1.82-.26 1.08-.26.4 0 .44.07.7 1.25.52 2.5 1.03 7.13 1.18 10.38l7.1-11.22c.17-.3.28-.36.47-.36.22 0 .3.1.3.5M1319.52 488.6c0 4.5-1.64 8.98-5.9 8.98-4.46 0-5.9-4.85-5.9-9.13 0-4.62 1.8-8.88 6-8.88 3.43 0 5.8 3.68 5.8 9.03m-2.5.13c0-5.43-1.15-8.48-3.45-8.48-2.16 0-3.34 3.08-3.34 8.38 0 5.3 1.15 8.27 3.4 8.27 2.2 0 3.4-3 3.4-8.17M1355.57 483.54h-9.63v9.63h-2.44v-9.63h-9.63v-2.44h9.63v-9.63h2.44v9.63h9.63v2.44M1380.5 475.93l1.17 13c4.84-6.06 6.1-8 6.1-9.6 0-.44-.23-.74-.82-1.3-.6-.55-.78-1-.78-1.5 0-.6.63-1.15 1.44-1.15 1.12 0 1.93.88 1.93 2.07 0 2.36-2.73 6.68-7.82 12.88l-.33.4c-1 1.22-1.32 1.6-1.66 1.6-.24 0-.32-.34-.4-1.3l-1.06-11.44-3.3 5.6c-.65 1.1-1.32 2.32-2.02 3.65-1.33 2.55-1.95 3.47-2.36 3.47-.33 0-.4-.3-.48-1.73l-.15-3.37c-.15-3.2-.55-7.16-1-8.94-.33-1.37-.66-1.56-1.73-1.56h-1.03v-.48c1.14-.18 2.4-.33 3.5-.62.48-.1.82-.26 1.07-.26.4 0 .45.07.7 1.25.52 2.5 1.04 7.13 1.2 10.38l7.07-11.22c.2-.3.3-.36.5-.36s.3.1.3.5M1400.5 497.22h-7.2v-.4c1.94-.1 2.5-.65 2.5-2.08v-11.72c0-.9-.25-1.28-.8-1.28-.26 0-.7.13-1.17.3l-.7.27v-.35l4.67-2.38.23.08v15.58c0 1.13.52 1.6 2.48 1.6v.4M1420.5 475.34l-.74 5.17h-.6c-.36-3.05-1.46-4.27-3.27-4.27-1.3 0-2.2.74-2.2 2.1 0 1 .56 2.07 2 3.77 1.85 2.14 2.5 3.58 2.5 5.02 0 3.06-2.24 4.94-5.3 4.94-.63 0-1.18-.03-2.03-.37-.7-.3-1.22-.34-1.63-.34-.4 0-.8.2-1.07.78h-.6l.75-5.87h.6c.5 3.5 1.76 5.02 3.68 5.02 1.74 0 2.8-1.05 2.8-2.85 0-1.2-.62-2.44-2.06-4.25-1.6-2-2.32-3.65-2.32-4.83 0-2.44 1.73-4 4.46-4 .63 0 1.15.12 2.07.38.7.22 1.03.26 1.33.26.55 0 .8-.14 1.1-.66h.52M1439.25 475.86l-6.1 21.37c-.02.15-.06.3-.06.4 0 .7.73 1.15 2.1 1.15h.55v.6H1427v-.6c2.32-.15 2.95-.7 3.36-2.07l3.32-10.7c-2.95 4.7-4.84 6.06-7.68 6.06-2.32 0-3.7-1.66-3.7-4.28 0-5.83 5.77-12.4 10.83-12.4 1.5 0 2.47.63 2.84 2.3l.6-1.82h2.68m-3.84 2.55c0-1.2-.95-2.2-2.16-2.2-1.07 0-2.26.7-3.44 1.8-2.5 2.4-4.32 6.2-4.32 9.26 0 1.74.6 2.85 1.96 2.85.92 0 2.07-.47 3.03-1.32 2.5-2.18 4.94-7.3 4.94-10.37M1446.52 490.07c0 1.07-.96 2-2.06 2-1.15 0-2.03-.9-2.03-2.04 0-1.14.92-2.06 2.06-2.06 1.06 0 2.02 1 2.02 2.1M1456.75 475.86h3.43c.8-2.62 1.44-4.65 2.66-6.4 1.1-1.57 2.62-2.83 4.87-2.83 1.82 0 3.2.96 3.2 2.3 0 .8-.7 1.58-1.56 1.58-.67 0-1.37-.55-1.37-1.43 0-.63.37-.82.37-1.15 0-.3-.3-.48-.8-.48-2.08 0-3.45 2.6-4.52 8.42h3.95l-.22 1.18h-3.98l-2.66 11.8c-1.54 6.84-4.02 10.46-7.37 10.46-1.67 0-2.92-.96-2.92-2.25 0-.85.64-1.55 1.4-1.55.86 0 1.42.6 1.42 1.36 0 .48-.34.67-.34 1.07 0 .33.3.6.74.6 1.55 0 2.73-2 3.58-6l3.25-15.5h-3.36M1481.85 475.86l-.2 1.18h-3.1l-3.2 12.1c-.03.15-.07.4-.07.52 0 .48.22.6.55.6.6 0 1.18-.6 3-2.92l.47.26c-2.2 3.4-3.36 4.46-5.28 4.46-1 0-1.7-.44-1.7-1.36 0-.4.3-1.55.6-2.73l2.88-10.93h-2.77c-.04-.1-.04-.22-.04-.22 0-.4.32-.74 1.2-.92 1.2-.26 3.6-2.07 4.92-4.06.15-.23.37-.34.5-.34.24 0 .35.1.35.3 0 0 0 .18-.04.26l-1.03 3.8h2.95M1488.53 490.07c0 1.07-.96 2-2.07 2-1.14 0-2.03-.9-2.03-2.04 0-1.14.93-2.06 2.07-2.06 1.07 0 2.03 1 2.03 2.1M1503.2 494.1l.35.35c-1.6 2.27-2.48 2.98-3.8 2.98-.7 0-1.16-.42-1.16-1.1 0-.3.18-1.12.52-2.4l1.43-5.4c.1-.42.18-.76.18-.86 0-.4-.13-.66-.73-.66-.94 0-2.6 1.6-3.96 3.67-1.05 1.6-1.46 2.5-2.5 6.52h-1.97l3.8-14.47c.22-.8.35-1.25.35-1.6 0-.46-.6-.67-1.07-.67h-.7v-.4c1.56-.17 2.58-.35 4.1-.7l.18.16-3.16 11.67c2.35-3.82 4.4-5.52 6-5.52 1.2 0 1.7.8 1.7 1.75 0 .65-.47 2.6-1.25 5.04-.45 1.36-.86 2.97-.86 3.26 0 .26.18.47.4.47.43 0 .74-.3 2.15-2.1M1516.34 489.34c0 1.98-1.04 4.28-2.76 5.97-1.52 1.53-3.2 2.18-4.9 2.18-2.46 0-3.85-1.36-3.85-3.63 0-2.92 1.96-5.92 4.7-7.38 1.02-.55 2.06-.8 3.13-.8 2.12 0 3.68 1.37 3.68 3.67m-2.2-.66c0-1.6-.72-2.45-1.84-2.45-1.15 0-2.3.8-3.34 2.38-1.2 1.83-1.93 3.9-1.93 5.96 0 1.56.8 2.37 2.03 2.37 1.15 0 2.14-.75 3.16-2.16 1.2-1.65 1.93-4.1 1.93-6.1M1529.24 494.1l.36.22c-1.7 2.6-2.37 3.1-3.6 3.1-.78 0-1.25-.44-1.25-1.24 0-.58.34-2.33 1.17-5.15-3.08 5.07-4.38 6.45-6.24 6.45-.9 0-1.38-.42-1.38-1.38 0-.5.24-1.44.7-3.34l.92-3.63c.2-.86.36-1.54.36-1.75 0-.18-.13-.4-.28-.47-.24-.12-.32-.15-1.3-.15v-.36c1.48-.2 2.42-.38 3.9-.72l.1.08-2.3 9.27c-.04.08-.1.3-.1.4 0 .4.14.67.53.67.9 0 2.1-1.4 3.7-3.84 1.24-1.85 1.6-2.84 2.88-6.34h1.94l-2.06 7.8c-.13.5-.5 1.72-.5 2.04 0 .3.1.44.3.44.4 0 .83-.36 2.16-2.1M1539.8 485.66l-.5 3.65h-.43c-.26-2.16-1.05-3.02-2.32-3.02-.92 0-1.54.53-1.54 1.5 0 .7.4 1.45 1.4 2.65 1.32 1.52 1.8 2.54 1.8 3.55 0 2.17-1.6 3.5-3.77 3.5-.44 0-.83-.03-1.43-.26-.5-.2-.87-.24-1.15-.24-.3 0-.58.14-.76.55h-.43l.52-4.15h.4c.38 2.48 1.26 3.55 2.62 3.55 1.23 0 2-.73 2-2 0-.84-.46-1.73-1.48-3-1.12-1.42-1.64-2.6-1.64-3.43 0-1.72 1.23-2.82 3.16-2.82.44 0 .8.08 1.46.26.5.16.73.2.94.2.4 0 .57-.12.78-.48h.37M1549.78 494.35l.3.3c-1.48 1.84-3.15 2.83-5.3 2.83-2.13 0-3.54-1.4-3.54-3.57 0-4.04 3.9-8.22 7.8-8.22 1.4 0 2.15.68 2.15 1.78 0 2.24-2.75 4.28-7.42 4.88-.27.52-.27 1.2-.27 1.6 0 1.43.98 2.37 2.44 2.37 1.15 0 1.96-.4 3.84-1.95m-5.38-3.73l-.44 1.14c2.24-.54 3.23-1 4.2-1.93.8-.78 1.3-1.72 1.3-2.53 0-.62-.18-1.02-.9-1.02-1.5 0-3.27 2-4.16 4.34M1562.3 497.2h-7.2v-.4c1.93-.1 2.48-.65 2.48-2.1V483c0-.9-.23-1.28-.78-1.28-.26 0-.7.13-1.18.3l-.7.27v-.38l4.67-2.37.23.08v15.58c0 1.13.52 1.6 2.48 1.6v.4M1584.02 497.42h-7.8v-.93h3.26c1.3 0 1.74-.56 1.74-1.7v-24.66c0-1.3-.48-2-1.9-2h-3.1v-.92h7.8v30.2M1588.34 467.3l.44-.6c5.65 3.4 9 9.56 9 15.84 0 6.83-3.24 12.07-9.1 15.65l-.34-.6c5.24-4.32 6.28-7.8 6.28-14.95 0-6.9-.93-11.15-6.28-15.36M1611.94 474.7l-1.4 3.57h-10.22v-.32l4.65-4.93c2.45-2.58 3.4-4.57 3.4-6.8 0-2.36-1.42-3.67-3.64-3.67-1.88 0-2.8.84-3.83 3.4l-.55-.13c.55-3.06 2.22-5.2 5.43-5.2 2.95 0 4.82 2 4.82 4.6 0 2.06-1 4.02-3.34 6.47l-4.3 4.58h6.1c1.1 0 1.65-.28 2.5-1.75"/><path d="M1094.7 519.15h521.66v40H1094.7z" fill="#fff" fill-opacity="0"/><path d="M1118.17 542.68h-9.63v9.64h-2.44v-9.64h-9.63v-2.43h9.63v-9.64h2.44v9.65h9.63v2.43M1131.2 556.75l-.44.6c-5.83-3.33-9-9.57-9-15.85 0-6.83 3.2-12.14 9.1-15.65l.34.6c-5.13 4.38-6.27 7.82-6.27 14.94 0 6.86 1.1 11.03 6.27 15.35M1142.05 527.3v9.07c4.47 2.4 5.4 3.32 6.4 4.84.5.78.77 1.96.77 3.33 0 4.28-2.92 5.68-7.17 6.27v3.22h-1.25v-3.22c-3.2 0-4.84-.5-6.87-1.88v-4.8h.56c.76 3.7 3.05 5.65 6.3 5.65v-10.4c-5.1-2.9-6.57-4.4-6.57-7.5 0-3.7 3.14-5.35 6.57-5.58v-2.33h1.25v2.32c3 .18 4.8.8 5.95 1.95v4.1h-.56c-.73-3.07-2.43-4.7-5.4-5.06m-1.24 8.48v-8.5c-2.62.53-3.84 2-3.84 3.9 0 1.6.74 2.5 3.84 4.6m1.25 4.2v9.8c3-.64 4.2-1.78 4.2-4.4 0-2.25-.84-3.4-4.2-5.4M1162.9 553.26l.34.34c-1.6 2.27-2.48 2.98-3.8 2.98-.7 0-1.16-.42-1.16-1.1 0-.3.2-1.12.53-2.4l1.44-5.4c.1-.42.18-.76.18-.87 0-.38-.13-.64-.73-.64-.95 0-2.62 1.6-3.97 3.66-1.05 1.6-1.47 2.5-2.5 6.52h-1.97l3.8-14.46c.22-.8.35-1.25.35-1.62 0-.44-.6-.65-1.06-.65h-.7v-.38c1.56-.18 2.58-.37 4.1-.7l.18.15-3.16 11.67c2.35-3.8 4.38-5.5 6-5.5 1.2 0 1.7.77 1.7 1.74 0 .65-.47 2.58-1.25 5.04-.44 1.35-.85 2.97-.85 3.26 0 .26.18.47.4.47.43 0 .74-.3 2.15-2.1M1176.03 548.48c0 2-1.04 4.3-2.76 5.98-1.52 1.52-3.2 2.17-4.9 2.17-2.47 0-3.85-1.36-3.85-3.63 0-2.92 1.96-5.92 4.7-7.4 1.02-.53 2.06-.77 3.13-.77 2.12 0 3.68 1.36 3.68 3.65m-2.2-.65c0-1.6-.72-2.45-1.84-2.45-1.16 0-2.3.8-3.35 2.37-1.2 1.83-1.94 3.9-1.94 5.95 0 1.57.82 2.38 2.05 2.38 1.15 0 2.14-.76 3.16-2.17 1.2-1.63 1.94-4.08 1.94-6.07M1188.93 553.23l.36.24c-1.7 2.58-2.38 3.1-3.6 3.1-.8 0-1.26-.44-1.26-1.25 0-.57.34-2.32 1.17-5.14-3.07 5.06-4.37 6.45-6.23 6.45-.9 0-1.38-.42-1.38-1.4 0-.48.22-1.42.7-3.33l.9-3.62c.22-.87.37-1.54.37-1.75 0-.2-.13-.4-.28-.47-.25-.13-.33-.16-1.32-.16v-.36c1.5-.2 2.43-.37 3.92-.7l.1.07-2.32 9.27c-.03.08-.08.32-.08.42 0 .38.13.64.52.64.9 0 2.1-1.38 3.7-3.83 1.23-1.85 1.6-2.84 2.88-6.33h1.93l-2.06 7.8c-.13.5-.5 1.72-.5 2.04 0 .3.1.45.3.45.4 0 .82-.37 2.16-2.12M1199.5 544.8l-.53 3.66h-.4c-.27-2.17-1.06-3.03-2.34-3.03-.9 0-1.54.52-1.54 1.5 0 .7.4 1.45 1.4 2.65 1.3 1.5 1.78 2.53 1.78 3.55 0 2.17-1.6 3.5-3.76 3.5-.44 0-.84-.03-1.44-.26-.5-.2-.86-.24-1.14-.24-.3 0-.58.13-.76.55h-.42l.52-4.15h.42c.37 2.48 1.25 3.55 2.6 3.55 1.24 0 2-.73 2-2 0-.85-.45-1.73-1.47-3-1.12-1.42-1.64-2.6-1.64-3.43 0-1.72 1.22-2.82 3.15-2.82.44 0 .8.08 1.46.26.5.15.74.17.95.17.4 0 .57-.1.78-.47h.37M1209.47 553.5l.3.3c-1.48 1.84-3.15 2.83-5.3 2.83-2.13 0-3.54-1.4-3.54-3.58 0-4.04 3.9-8.22 7.8-8.22 1.4 0 2.15.68 2.15 1.78 0 2.25-2.74 4.3-7.42 4.9-.26.5-.26 1.2-.26 1.58 0 1.43.97 2.37 2.43 2.37 1.15 0 1.96-.4 3.84-1.95m-5.38-3.74l-.45 1.15c2.24-.54 3.23-1 4.2-1.92.8-.78 1.3-1.72 1.3-2.53 0-.63-.18-1.02-.9-1.02-1.5 0-3.27 2-4.16 4.33M1224.08 552.77l-1.4 3.57h-10.2v-.3l4.63-4.95c2.47-2.6 3.4-4.57 3.4-6.8 0-2.37-1.4-3.67-3.62-3.67-1.88 0-2.8.83-3.84 3.4l-.55-.14c.54-3.06 2.2-5.2 5.42-5.2 2.95 0 4.83 2 4.83 4.6 0 2.05-1.02 4-3.34 6.46l-4.3 4.6h6.1c1.1 0 1.66-.3 2.52-1.75M1259.62 542.68h-20.56v-2.43h20.56v2.43M1281.2 556.56h-7.77v-30.2h7.78v.93h-3.05c-1.26 0-1.92.43-1.92 1.76v24.6c0 1.46.7 1.98 1.92 1.98h3.06v.92M1297.38 535.08l1.18 13c4.84-6.06 6.1-8.02 6.1-9.6 0-.45-.23-.74-.82-1.3-.6-.55-.77-1-.77-1.5 0-.6.62-1.15 1.44-1.15 1.1 0 1.92.88 1.92 2.06 0 2.36-2.73 6.67-7.82 12.88l-.33.4c-1 1.22-1.33 1.6-1.66 1.6-.25 0-.33-.34-.4-1.3l-1.07-11.45-3.3 5.6c-.65 1.12-1.3 2.34-2.02 3.67-1.3 2.55-1.94 3.47-2.35 3.47-.33 0-.4-.3-.48-1.74l-.15-3.36c-.14-3.2-.55-7.16-1-8.93-.32-1.36-.66-1.55-1.73-1.55h-1.04v-.5c1.14-.17 2.4-.32 3.5-.62.5-.1.82-.25 1.08-.25.4 0 .44.07.7 1.25.5 2.5 1.03 7.12 1.18 10.37l7.1-11.22c.17-.3.28-.37.47-.37.2 0 .28.1.28.52M1319.54 547.75c0 4.5-1.64 8.98-5.9 8.98-4.46 0-5.9-4.86-5.9-9.14 0-4.63 1.8-8.88 6-8.88 3.43 0 5.8 3.68 5.8 9.03m-2.5.13c0-5.43-1.15-8.48-3.45-8.48-2.17 0-3.35 3.08-3.35 8.38 0 5.3 1.15 8.27 3.4 8.27 2.2 0 3.4-3 3.4-8.17M1355.55 542.68h-9.63v9.64h-2.44v-9.64h-9.63v-2.43h9.63v-9.64h2.44v9.65h9.63v2.43M1380.47 535.08l1.18 13c4.84-6.06 6.1-8.02 6.1-9.6 0-.45-.23-.74-.82-1.3-.6-.55-.78-1-.78-1.5 0-.6.63-1.15 1.44-1.15 1.1 0 1.9.88 1.9 2.06 0 2.36-2.72 6.67-7.8 12.88l-.34.4c-1 1.22-1.33 1.6-1.66 1.6-.26 0-.34-.34-.4-1.3l-1.08-11.45-3.3 5.6c-.65 1.12-1.32 2.34-2.02 3.67-1.33 2.55-1.95 3.47-2.36 3.47-.33 0-.4-.3-.48-1.74l-.15-3.36c-.13-3.2-.54-7.16-.98-8.93-.34-1.36-.67-1.55-1.74-1.55h-1.03v-.5c1.14-.17 2.4-.32 3.5-.62.48-.1.82-.25 1.08-.25.4 0 .44.07.7 1.25.5 2.5 1.03 7.12 1.18 10.37l7.1-11.22c.18-.3.3-.37.48-.37.22 0 .3.1.3.52M1400.5 556.36h-7.2v-.4c1.92-.1 2.47-.64 2.47-2.08v-11.72c0-.88-.24-1.27-.8-1.27-.25 0-.7.12-1.16.3l-.7.26v-.37l4.68-2.38.23.08v15.58c0 1.12.53 1.6 2.5 1.6v.38M1420.52 534.5l-.74 5.16h-.6c-.36-3.07-1.47-4.3-3.27-4.3-1.3 0-2.17.75-2.17 2.12 0 1 .55 2.07 2 3.76 1.84 2.14 2.5 3.58 2.5 5.02 0 3.07-2.25 4.95-5.3 4.95-.64 0-1.2-.03-2.04-.36-.72-.3-1.23-.33-1.64-.33-.4 0-.8.2-1.07.78h-.6l.74-5.87h.6c.5 3.52 1.76 5.04 3.68 5.04 1.74 0 2.8-1.04 2.8-2.85 0-1.2-.62-2.44-2.06-4.25-1.6-2-2.33-3.66-2.33-4.84 0-2.42 1.74-3.97 4.47-3.97.63 0 1.14.1 2.07.37.7.22 1.03.25 1.33.25.55 0 .8-.14 1.1-.66h.52M1439.23 535l-6.1 21.38c-.02.15-.06.3-.06.4 0 .7.74 1.15 2.1 1.15h.56v.6h-8.75v-.6c2.33-.15 2.95-.7 3.36-2.07l3.32-10.7c-2.95 4.68-4.83 6.05-7.68 6.05-2.32 0-3.7-1.65-3.7-4.27 0-5.83 5.77-12.4 10.83-12.4 1.52 0 2.48.62 2.85 2.28l.6-1.8h2.68m-3.83 2.55c0-1.22-.96-2.2-2.18-2.2-1.07 0-2.25.7-3.44 1.8-2.5 2.4-4.3 6.2-4.3 9.26 0 1.75.58 2.85 1.94 2.85.93 0 2.07-.48 3.03-1.32 2.5-2.18 4.95-7.3 4.95-10.38M1446.54 549.22c0 1.07-.96 2-2.06 2-1.15 0-2.03-.9-2.03-2.04 0-1.14.92-2.07 2.06-2.07 1.08 0 2.04 1 2.04 2.12M1456.77 535h3.43c.8-2.6 1.44-4.65 2.66-6.38 1.1-1.6 2.62-2.84 4.87-2.84 1.8 0 3.18.96 3.18 2.3 0 .8-.7 1.57-1.55 1.57-.66 0-1.36-.55-1.36-1.44 0-.6.36-.8.36-1.13 0-.3-.3-.48-.8-.48-2.08 0-3.45 2.57-4.52 8.4h3.95l-.23 1.2h-4l-2.64 11.8c-1.55 6.83-4.03 10.44-7.4 10.44-1.65 0-2.9-.95-2.9-2.25 0-.86.63-1.56 1.4-1.56.85 0 1.4.6 1.4 1.37 0 .5-.33.67-.33 1.08 0 .33.3.6.74.6 1.55 0 2.73-2 3.58-6l3.25-15.5h-3.36M1481.83 535l-.18 1.2h-3.1l-3.22 12.1c-.03.14-.07.4-.07.5 0 .5.22.6.55.6.6 0 1.2-.6 3-2.9l.48.24c-2.2 3.4-3.35 4.47-5.27 4.47-1 0-1.7-.43-1.7-1.36 0-.4.3-1.55.6-2.73l2.88-10.9H1473c-.03-.12-.03-.23-.03-.23 0-.4.33-.74 1.22-.93 1.17-.26 3.57-2.06 4.9-4.06.15-.22.37-.33.52-.33.22 0 .33.1.33.3 0 0 0 .18-.04.25l-1.02 3.8h2.95M1488.55 549.22c0 1.07-.96 2-2.07 2-1.14 0-2.03-.9-2.03-2.04 0-1.14.92-2.07 2.07-2.07 1.07 0 2.03 1 2.03 2.12M1503.23 553.26l.34.34c-1.6 2.27-2.48 2.98-3.8 2.98-.7 0-1.16-.42-1.16-1.1 0-.3.2-1.12.54-2.4l1.43-5.4c.1-.42.18-.76.18-.87 0-.38-.13-.64-.73-.64-.94 0-2.6 1.6-3.96 3.66-1.05 1.6-1.47 2.5-2.5 6.52h-1.97l3.8-14.46c.2-.8.34-1.25.34-1.62 0-.44-.6-.65-1.07-.65h-.7v-.38c1.56-.18 2.58-.37 4.1-.7l.18.15-3.16 11.67c2.34-3.8 4.37-5.5 6-5.5 1.2 0 1.7.77 1.7 1.74 0 .65-.48 2.58-1.26 5.04-.45 1.35-.87 2.97-.87 3.26 0 .26.2.47.42.47.4 0 .72-.3 2.13-2.1M1516.36 548.48c0 2-1.04 4.3-2.77 5.98-1.52 1.52-3.2 2.17-4.9 2.17-2.47 0-3.85-1.36-3.85-3.63 0-2.92 1.96-5.92 4.7-7.4 1.02-.53 2.06-.77 3.13-.77 2.12 0 3.68 1.36 3.68 3.65m-2.2-.65c0-1.6-.72-2.45-1.84-2.45-1.15 0-2.3.8-3.34 2.37-1.2 1.83-1.94 3.9-1.94 5.95 0 1.57.8 2.38 2.04 2.38 1.15 0 2.14-.76 3.16-2.17 1.2-1.63 1.93-4.08 1.93-6.07M1529.26 553.23l.36.24c-1.7 2.58-2.37 3.1-3.6 3.1-.78 0-1.25-.44-1.25-1.25 0-.57.34-2.32 1.17-5.14-3.08 5.06-4.38 6.45-6.24 6.45-.9 0-1.38-.42-1.38-1.4 0-.48.23-1.42.7-3.33l.92-3.62c.2-.87.36-1.54.36-1.75 0-.2-.13-.4-.28-.47-.24-.13-.32-.16-1.3-.16v-.36c1.48-.2 2.42-.37 3.9-.7l.1.07-2.3 9.27c-.04.08-.1.32-.1.42 0 .38.14.64.53.64.9 0 2.1-1.38 3.7-3.83 1.23-1.85 1.6-2.84 2.88-6.33h1.93l-2.06 7.8c-.13.5-.5 1.72-.5 2.04 0 .3.1.45.3.45.4 0 .82-.37 2.16-2.12M1539.83 544.8l-.53 3.66h-.4c-.27-2.17-1.06-3.03-2.34-3.03-.9 0-1.54.52-1.54 1.5 0 .7.4 1.45 1.4 2.65 1.32 1.5 1.8 2.53 1.8 3.55 0 2.17-1.6 3.5-3.77 3.5-.44 0-.84-.03-1.44-.26-.48-.2-.85-.24-1.13-.24-.3 0-.58.13-.76.55h-.4l.5-4.15h.43c.37 2.48 1.25 3.55 2.6 3.55 1.24 0 2-.73 2-2 0-.85-.45-1.73-1.47-3-1.12-1.42-1.64-2.6-1.64-3.43 0-1.72 1.22-2.82 3.16-2.82.44 0 .8.08 1.46.26.5.15.73.17.94.17.4 0 .57-.1.78-.47h.37M1549.8 553.5l.3.3c-1.48 1.84-3.15 2.83-5.3 2.83-2.13 0-3.54-1.4-3.54-3.58 0-4.04 3.9-8.22 7.8-8.22 1.4 0 2.15.68 2.15 1.78 0 2.25-2.73 4.3-7.4 4.9-.27.5-.27 1.2-.27 1.58 0 1.43.97 2.37 2.43 2.37 1.15 0 1.96-.4 3.84-1.95m-5.38-3.74l-.44 1.15c2.24-.54 3.23-1 4.2-1.92.8-.78 1.3-1.72 1.3-2.53 0-.63-.18-1.02-.9-1.02-1.5 0-3.27 2-4.16 4.33M1564.4 552.77l-1.4 3.57h-10.2v-.3l4.64-4.95c2.46-2.6 3.4-4.57 3.4-6.8 0-2.37-1.4-3.67-3.63-3.67-1.87 0-2.78.83-3.83 3.4l-.55-.14c.55-3.06 2.22-5.2 5.43-5.2 2.95 0 4.83 2 4.83 4.6 0 2.05-1.02 4-3.34 6.46l-4.3 4.6h6.1c1.1 0 1.65-.3 2.5-1.75M1584 556.56h-7.78v-.92h3.24c1.3 0 1.74-.55 1.74-1.7v-24.66c0-1.3-.48-2-1.88-2h-3.1v-.9h7.78v30.18M1588.36 526.44l.44-.6c5.65 3.4 9 9.57 9 15.85 0 6.82-3.24 12.06-9.1 15.64l-.34-.6c5.24-4.3 6.27-7.78 6.27-14.94 0-6.9-.92-11.15-6.27-15.36M1611.95 533.84l-1.4 3.57h-10.2v-.3l4.64-4.93c2.44-2.6 3.38-4.57 3.38-6.8 0-2.36-1.4-3.67-3.63-3.67-1.88 0-2.8.84-3.84 3.4l-.53-.14c.54-3.05 2.2-5.2 5.42-5.2 2.94 0 4.82 2.02 4.82 4.6 0 2.07-1 4.02-3.34 6.48l-4.3 4.6h6.1c1.1 0 1.65-.3 2.5-1.76"/><path d="M1094.7 570h521.66v40H1094.7z" fill="#fff" fill-opacity="0"/><path d="M1118.17 593.54h-9.63v9.63h-2.44v-9.63h-9.63v-2.44h9.63v-9.63h2.44v9.63h9.63v2.44M1131.2 607.6l-.44.6c-5.83-3.33-9-9.57-9-15.84 0-6.83 3.2-12.15 9.1-15.66l.34.6c-5.13 4.4-6.27 7.82-6.27 14.94 0 6.87 1.1 11.04 6.27 15.36M1142.05 578.14v9.08c4.47 2.4 5.4 3.33 6.4 4.84.5.77.77 1.96.77 3.32 0 4.28-2.92 5.7-7.17 6.28v3.2h-1.25v-3.2c-3.2 0-4.84-.52-6.87-1.9V595h.56c.76 3.7 3.05 5.64 6.3 5.64v-10.4c-5.1-2.88-6.57-4.4-6.57-7.5 0-3.7 3.14-5.35 6.57-5.57v-2.33h1.25v2.33c3 .18 4.8.8 5.95 1.95v4.1h-.56c-.73-3.06-2.43-4.7-5.4-5.06m-1.24 8.5v-8.5c-2.62.52-3.84 2-3.84 3.88 0 1.62.74 2.5 3.84 4.6m1.25 4.22v9.78c3-.62 4.2-1.77 4.2-4.4 0-2.24-.84-3.4-4.2-5.38M1162.9 604.1l.34.35c-1.6 2.27-2.48 2.98-3.8 2.98-.7 0-1.16-.42-1.16-1.1 0-.3.2-1.12.53-2.4l1.44-5.4c.1-.42.18-.76.18-.86 0-.4-.13-.66-.73-.66-.95 0-2.62 1.6-3.97 3.67-1.05 1.6-1.47 2.5-2.5 6.52h-1.97l3.8-14.47c.22-.8.35-1.25.35-1.6 0-.46-.6-.67-1.06-.67h-.7v-.4c1.56-.17 2.58-.35 4.1-.7l.18.16-3.16 11.67c2.35-3.82 4.38-5.52 6-5.52 1.2 0 1.7.8 1.7 1.75 0 .65-.47 2.6-1.25 5.04-.44 1.36-.85 2.97-.85 3.26 0 .26.18.47.4.47.43 0 .74-.3 2.15-2.1M1176.03 599.34c0 1.98-1.04 4.28-2.76 5.97-1.52 1.53-3.2 2.18-4.9 2.18-2.47 0-3.85-1.36-3.85-3.63 0-2.92 1.96-5.92 4.7-7.38 1.02-.55 2.06-.8 3.13-.8 2.12 0 3.68 1.37 3.68 3.67m-2.2-.66c0-1.6-.72-2.45-1.84-2.45-1.16 0-2.3.8-3.35 2.38-1.2 1.83-1.94 3.9-1.94 5.96 0 1.56.82 2.37 2.05 2.37 1.15 0 2.14-.75 3.16-2.16 1.2-1.65 1.94-4.1 1.94-6.1M1188.93 604.1l.36.22c-1.7 2.6-2.38 3.1-3.6 3.1-.8 0-1.26-.44-1.26-1.24 0-.58.34-2.33 1.17-5.15-3.07 5.07-4.37 6.45-6.23 6.45-.9 0-1.38-.42-1.38-1.38 0-.5.22-1.44.7-3.34l.9-3.63c.22-.86.37-1.54.37-1.75 0-.18-.13-.4-.28-.47-.25-.12-.33-.15-1.32-.15v-.36c1.5-.2 2.43-.38 3.92-.72l.1.08-2.32 9.27c-.03.08-.08.3-.08.4 0 .4.13.67.52.67.9 0 2.1-1.4 3.7-3.84 1.23-1.85 1.6-2.84 2.88-6.34h1.93l-2.06 7.8c-.13.5-.5 1.72-.5 2.04 0 .3.1.44.3.44.4 0 .82-.36 2.16-2.1M1199.5 595.66l-.53 3.65h-.4c-.27-2.16-1.06-3.02-2.34-3.02-.9 0-1.54.53-1.54 1.5 0 .7.4 1.45 1.4 2.65 1.3 1.52 1.78 2.54 1.78 3.55 0 2.17-1.6 3.5-3.76 3.5-.44 0-.84-.03-1.44-.26-.5-.2-.86-.24-1.14-.24-.3 0-.58.14-.76.55h-.42l.52-4.15h.42c.37 2.48 1.25 3.55 2.6 3.55 1.24 0 2-.73 2-2 0-.84-.45-1.73-1.47-3-1.12-1.42-1.64-2.6-1.64-3.43 0-1.72 1.22-2.82 3.15-2.82.44 0 .8.08 1.46.26.5.16.74.2.95.2.4 0 .57-.12.78-.48h.37M1209.47 604.35l.3.3c-1.48 1.84-3.15 2.83-5.3 2.83-2.13 0-3.54-1.4-3.54-3.57 0-4.04 3.9-8.22 7.8-8.22 1.4 0 2.15.68 2.15 1.78 0 2.24-2.74 4.28-7.42 4.88-.26.52-.26 1.2-.26 1.6 0 1.43.97 2.37 2.43 2.37 1.15 0 1.96-.4 3.84-1.95m-5.38-3.73l-.45 1.14c2.24-.54 3.23-1 4.2-1.93.8-.78 1.3-1.72 1.3-2.53 0-.62-.18-1.02-.9-1.02-1.5 0-3.27 2-4.16 4.34M1213.3 593.88l-.4-.1c.74-2.48 2.4-4.23 5.1-4.23 2.43 0 4.07 1.44 4.07 3.58 0 1.25-.67 2.55-2.42 3.6 1.14.5 1.6.8 2.16 1.38.74.82 1.16 2.02 1.16 3.38 0 1.38-.44 2.66-1.2 3.65-1.25 1.67-3.73 2.43-6.05 2.43-1.9 0-2.92-.55-2.92-1.5 0-.54.47-.93 1.07-.93.45 0 .86.16 1.6.68.96.7 1.5.82 2.24.82 1.92 0 3.38-1.78 3.38-4 0-1.98-.9-3.26-2.7-3.78-.6-.18-1.2-.26-2.67-.26v-.36c1-.34 1.68-.63 2.2-.94 1.28-.74 2.1-1.9 2.1-3.5 0-1.78-1.08-2.66-2.8-2.66-1.63 0-2.83.83-3.9 2.76M1259.62 593.54h-20.56v-2.44h20.56v2.44M1281.2 607.42h-7.77v-30.2h7.78v.92h-3.05c-1.26 0-1.92.45-1.92 1.78v24.58c0 1.48.7 2 1.92 2h3.06v.92M1297.38 585.93l1.18 13c4.84-6.06 6.1-8 6.1-9.6 0-.44-.23-.74-.82-1.3-.6-.55-.77-1-.77-1.5 0-.6.62-1.15 1.44-1.15 1.1 0 1.92.88 1.92 2.07 0 2.36-2.73 6.68-7.82 12.88l-.33.4c-1 1.22-1.33 1.6-1.66 1.6-.25 0-.33-.34-.4-1.3l-1.07-11.44-3.3 5.6c-.65 1.1-1.3 2.32-2.02 3.65-1.3 2.55-1.94 3.47-2.35 3.47-.33 0-.4-.3-.48-1.73l-.15-3.37c-.14-3.2-.55-7.16-1-8.94-.32-1.37-.66-1.56-1.73-1.56h-1.04v-.48c1.14-.18 2.4-.33 3.5-.62.5-.1.82-.26 1.08-.26.4 0 .44.07.7 1.25.5 2.5 1.03 7.13 1.18 10.38l7.1-11.22c.17-.3.28-.36.47-.36.2 0 .28.1.28.5M1319.54 598.6c0 4.5-1.64 8.98-5.9 8.98-4.46 0-5.9-4.85-5.9-9.13 0-4.62 1.8-8.88 6-8.88 3.43 0 5.8 3.68 5.8 9.03m-2.5.13c0-5.43-1.15-8.48-3.45-8.48-2.17 0-3.35 3.08-3.35 8.38 0 5.3 1.15 8.27 3.4 8.27 2.2 0 3.4-3 3.4-8.17M1355.55 593.54h-9.63v9.63h-2.44v-9.63h-9.63v-2.44h9.63v-9.63h2.44v9.63h9.63v2.44M1380.47 585.93l1.18 13c4.84-6.06 6.1-8 6.1-9.6 0-.44-.23-.74-.82-1.3-.6-.55-.78-1-.78-1.5 0-.6.63-1.15 1.44-1.15 1.1 0 1.9.88 1.9 2.07 0 2.36-2.72 6.68-7.8 12.88l-.34.4c-1 1.22-1.33 1.6-1.66 1.6-.26 0-.34-.34-.4-1.3l-1.08-11.44-3.3 5.6c-.65 1.1-1.32 2.32-2.02 3.65-1.33 2.55-1.95 3.47-2.36 3.47-.33 0-.4-.3-.48-1.73l-.15-3.37c-.13-3.2-.54-7.16-.98-8.94-.34-1.37-.67-1.56-1.74-1.56h-1.03v-.48c1.14-.18 2.4-.33 3.5-.62.48-.1.82-.26 1.08-.26.4 0 .44.07.7 1.25.5 2.5 1.03 7.13 1.18 10.38l7.1-11.22c.18-.3.3-.36.48-.36.22 0 .3.1.3.5M1400.5 607.22h-7.2v-.4c1.92-.1 2.47-.65 2.47-2.08v-11.72c0-.9-.24-1.28-.8-1.28-.25 0-.7.13-1.16.3l-.7.27v-.35l4.68-2.38.23.08v15.58c0 1.13.53 1.6 2.5 1.6v.4M1420.52 585.34l-.74 5.17h-.6c-.36-3.05-1.47-4.27-3.27-4.27-1.3 0-2.17.74-2.17 2.1 0 1 .55 2.07 2 3.77 1.84 2.14 2.5 3.58 2.5 5.02 0 3.06-2.25 4.94-5.3 4.94-.64 0-1.2-.03-2.04-.37-.72-.3-1.23-.34-1.64-.34-.4 0-.8.2-1.07.78h-.6l.74-5.87h.6c.5 3.5 1.76 5.02 3.68 5.02 1.74 0 2.8-1.05 2.8-2.85 0-1.2-.62-2.44-2.06-4.25-1.6-2-2.33-3.65-2.33-4.83 0-2.44 1.74-4 4.47-4 .63 0 1.14.12 2.07.38.7.22 1.03.26 1.33.26.55 0 .8-.14 1.1-.66h.52M1439.23 585.86l-6.1 21.37c-.02.15-.06.3-.06.4 0 .7.74 1.15 2.1 1.15h.56v.6h-8.75v-.6c2.33-.15 2.95-.7 3.36-2.07l3.32-10.7c-2.95 4.7-4.83 6.06-7.68 6.06-2.32 0-3.7-1.66-3.7-4.28 0-5.83 5.77-12.4 10.83-12.4 1.52 0 2.48.63 2.85 2.3l.6-1.82h2.68m-3.83 2.55c0-1.2-.96-2.2-2.18-2.2-1.07 0-2.25.7-3.44 1.8-2.5 2.4-4.3 6.2-4.3 9.26 0 1.74.58 2.85 1.94 2.85.93 0 2.07-.47 3.03-1.32 2.5-2.18 4.95-7.3 4.95-10.37M1446.54 600.07c0 1.07-.96 2-2.06 2-1.15 0-2.03-.9-2.03-2.04 0-1.14.92-2.06 2.06-2.06 1.08 0 2.04 1 2.04 2.1M1456.77 585.86h3.43c.8-2.62 1.44-4.65 2.66-6.4 1.1-1.57 2.62-2.83 4.87-2.83 1.8 0 3.18.96 3.18 2.3 0 .8-.7 1.58-1.55 1.58-.66 0-1.36-.55-1.36-1.43 0-.63.36-.82.36-1.15 0-.3-.3-.48-.8-.48-2.08 0-3.45 2.6-4.52 8.42h3.95l-.23 1.18h-4l-2.64 11.8c-1.55 6.84-4.03 10.46-7.4 10.46-1.65 0-2.9-.96-2.9-2.25 0-.85.63-1.55 1.4-1.55.85 0 1.4.6 1.4 1.36 0 .48-.33.67-.33 1.07 0 .33.3.6.74.6 1.55 0 2.73-2 3.58-6l3.25-15.5h-3.36M1481.83 585.86l-.18 1.18h-3.1l-3.22 12.1c-.03.15-.07.4-.07.52 0 .48.22.6.55.6.6 0 1.2-.6 3-2.92l.48.26c-2.2 3.4-3.35 4.46-5.27 4.46-1 0-1.7-.44-1.7-1.36 0-.4.3-1.55.6-2.73l2.88-10.93H1473c-.03-.1-.03-.22-.03-.22 0-.4.33-.74 1.22-.92 1.17-.26 3.57-2.07 4.9-4.06.15-.23.37-.34.52-.34.22 0 .33.1.33.3 0 0 0 .18-.04.26l-1.02 3.8h2.95M1488.55 600.07c0 1.07-.96 2-2.07 2-1.14 0-2.03-.9-2.03-2.04 0-1.14.92-2.06 2.07-2.06 1.07 0 2.03 1 2.03 2.1M1503.23 604.1l.34.35c-1.6 2.27-2.48 2.98-3.8 2.98-.7 0-1.16-.42-1.16-1.1 0-.3.2-1.12.54-2.4l1.43-5.4c.1-.42.18-.76.18-.86 0-.4-.13-.66-.73-.66-.94 0-2.6 1.6-3.96 3.67-1.05 1.6-1.47 2.5-2.5 6.52h-1.97l3.8-14.47c.2-.8.34-1.25.34-1.6 0-.46-.6-.67-1.07-.67h-.7v-.4c1.56-.17 2.58-.35 4.1-.7l.18.16-3.16 11.67c2.34-3.82 4.37-5.52 6-5.52 1.2 0 1.7.8 1.7 1.75 0 .65-.48 2.6-1.26 5.04-.45 1.36-.87 2.97-.87 3.26 0 .26.2.47.42.47.4 0 .72-.3 2.13-2.1M1516.36 599.34c0 1.98-1.04 4.28-2.77 5.97-1.52 1.53-3.2 2.18-4.9 2.18-2.47 0-3.85-1.36-3.85-3.63 0-2.92 1.96-5.92 4.7-7.38 1.02-.55 2.06-.8 3.13-.8 2.12 0 3.68 1.37 3.68 3.67m-2.2-.66c0-1.6-.72-2.45-1.84-2.45-1.15 0-2.3.8-3.34 2.38-1.2 1.83-1.94 3.9-1.94 5.96 0 1.56.8 2.37 2.04 2.37 1.15 0 2.14-.75 3.16-2.16 1.2-1.65 1.93-4.1 1.93-6.1M1529.26 604.1l.36.22c-1.7 2.6-2.37 3.1-3.6 3.1-.78 0-1.25-.44-1.25-1.24 0-.58.34-2.33 1.17-5.15-3.08 5.07-4.38 6.45-6.24 6.45-.9 0-1.38-.42-1.38-1.38 0-.5.23-1.44.7-3.34l.92-3.63c.2-.86.36-1.54.36-1.75 0-.18-.13-.4-.28-.47-.24-.12-.32-.15-1.3-.15v-.36c1.48-.2 2.42-.38 3.9-.72l.1.08-2.3 9.27c-.04.08-.1.3-.1.4 0 .4.14.67.53.67.9 0 2.1-1.4 3.7-3.84 1.23-1.85 1.6-2.84 2.88-6.34h1.93l-2.06 7.8c-.13.5-.5 1.72-.5 2.04 0 .3.1.44.3.44.4 0 .82-.36 2.16-2.1M1539.83 595.66l-.53 3.65h-.4c-.27-2.16-1.06-3.02-2.34-3.02-.9 0-1.54.53-1.54 1.5 0 .7.4 1.45 1.4 2.65 1.32 1.52 1.8 2.54 1.8 3.55 0 2.17-1.6 3.5-3.77 3.5-.44 0-.84-.03-1.44-.26-.48-.2-.85-.24-1.13-.24-.3 0-.58.14-.76.55h-.4l.5-4.15h.43c.37 2.48 1.25 3.55 2.6 3.55 1.24 0 2-.73 2-2 0-.84-.45-1.73-1.47-3-1.12-1.42-1.64-2.6-1.64-3.43 0-1.72 1.22-2.82 3.16-2.82.44 0 .8.08 1.46.26.5.16.73.2.94.2.4 0 .57-.12.78-.48h.37M1549.8 604.35l.3.3c-1.48 1.84-3.15 2.83-5.3 2.83-2.13 0-3.54-1.4-3.54-3.57 0-4.04 3.9-8.22 7.8-8.22 1.4 0 2.15.68 2.15 1.78 0 2.24-2.73 4.28-7.4 4.88-.27.52-.27 1.2-.27 1.6 0 1.43.97 2.37 2.43 2.37 1.15 0 1.96-.4 3.84-1.95m-5.38-3.73l-.44 1.14c2.24-.54 3.23-1 4.2-1.93.8-.78 1.3-1.72 1.3-2.53 0-.62-.18-1.02-.9-1.02-1.5 0-3.27 2-4.16 4.34M1553.63 593.88l-.4-.1c.74-2.48 2.4-4.23 5.1-4.23 2.43 0 4.07 1.44 4.07 3.58 0 1.25-.68 2.55-2.42 3.6 1.14.5 1.6.8 2.16 1.38.73.82 1.15 2.02 1.15 3.38 0 1.38-.45 2.66-1.2 3.65-1.26 1.67-3.74 2.43-6.07 2.43-1.9 0-2.92-.55-2.92-1.5 0-.54.48-.93 1.08-.93.45 0 .86.16 1.6.68.96.7 1.5.82 2.24.82 1.93 0 3.4-1.78 3.4-4 0-1.98-.92-3.26-2.72-3.78-.58-.18-1.18-.26-2.67-.26v-.36c1-.34 1.68-.63 2.2-.94 1.28-.74 2.1-1.9 2.1-3.5 0-1.78-1.08-2.66-2.8-2.66-1.63 0-2.83.83-3.9 2.76M1584 607.42h-7.78v-.93h3.24c1.3 0 1.74-.56 1.74-1.7v-24.66c0-1.3-.48-2-1.88-2h-3.1v-.92h7.78v30.2M1588.36 577.3l.44-.6c5.65 3.4 9 9.56 9 15.84 0 6.83-3.24 12.07-9.1 15.65l-.34-.6c5.24-4.32 6.27-7.8 6.27-14.95 0-6.9-.92-11.15-6.27-15.36M1611.95 584.7l-1.4 3.57h-10.2v-.32l4.64-4.93c2.44-2.58 3.38-4.57 3.38-6.8 0-2.36-1.4-3.67-3.63-3.67-1.88 0-2.8.84-3.84 3.4l-.53-.13c.54-3.06 2.2-5.2 5.42-5.2 2.94 0 4.82 2 4.82 4.6 0 2.06-1 4.02-3.34 6.47l-4.3 4.58h6.1c1.1 0 1.65-.28 2.5-1.75"/><path d="M1094.7 620.85h366.2v32.23h-366.2z" fill="#fff" fill-opacity="0"/><path d="M1118.17 638.57h-9.63v9.64h-2.44v-9.63h-9.63v-2.43h9.63v-9.64h2.44v9.64h9.63v2.43M1126.66 645.1c0 1.08-.96 2-2.06 2-1.15 0-2.03-.9-2.03-2.03 0-1.15.92-2.07 2.06-2.07 1.07 0 2.03 1 2.03 2.1M1142.05 645.1c0 1.08-.95 2-2.06 2-1.16 0-2.04-.9-2.04-2.03 0-1.15.92-2.07 2.06-2.07 1.08 0 2.03 1 2.03 2.1M1157.45 645.1c0 1.08-.96 2-2.07 2-1.14 0-2.03-.9-2.03-2.03 0-1.15.92-2.07 2.07-2.07 1.07 0 2.03 1 2.03 2.1M1177.23 652.45h-7.8v-30.2h7.8v.93h-3.06c-1.26 0-1.92.44-1.92 1.77v24.58c0 1.48.7 2 1.92 2h3.06v.92M1188.23 624.58c0 1.04-.85 1.88-1.8 1.88-1.08 0-1.78-.77-1.78-1.95 0-1.14.74-1.95 1.74-1.95.98 0 1.83.96 1.83 2.03m-1.55 17.9l.48.4c-2.03 3.1-3.2 4.22-5.06 4.22-1.2 0-1.8-.67-1.8-2.03 0-.74.25-2.03.8-4.1l1.78-6.53c.18-.67.33-1.33.33-1.63 0-.73-.36-.84-2.35-.87v-.6c1.44-.1 2.18-.2 5.9-.92l.15.12-3.47 12.67c-.18.6-.37 1.1-.37 1.6 0 .38.23.56.52.56.63 0 1.5-.77 3.1-2.88M1205.77 642.37l.5.48c-2.5 3.44-3.42 4.17-5.16 4.17-.9 0-1.72-.6-1.72-2 0-.36.07-.84.6-2.76l1.6-5.98c.3-1.14.53-2.47.53-2.9 0-.68-.32-1.08-.87-1.08-1.48 0-3.14 1.8-5.47 5.24-1.66 2.47-1.95 3.32-3.7 9.15h-2.76l3.55-12.93c.03-.18.07-.4.07-.62 0-.74-.52-.96-2.4-1v-.6c3-.58 4.02-.73 5.98-1.14l.15.1-2.48 8.03c3.7-5.9 6.17-8.12 8.53-8.12 1.6 0 2.4.94 2.4 2.27 0 .66-.15 1.44-.37 2.2l-2.07 7.5c-.36 1.33-.5 1.96-.5 2.26 0 .33.14.66.58.66.52 0 1.18-.6 2.25-1.97l.77-.96M1220.16 642.74l.6.37c-2.26 2.85-4.22 4-6.98 4-3.44 0-5.43-1.92-5.43-5.7 0-3.42 1.92-6.63 4.54-8.73 1.8-1.44 3.9-2.26 6.15-2.26 2.26 0 3.88 1.27 3.88 3 0 1-.8 1.78-1.77 1.78-1.04 0-1.44-.74-1.44-1.48 0-.67.55-1.07.55-1.77 0-.45-.52-.74-1.36-.74-1.47 0-2.95.65-4.02 1.76-2.06 2.18-3.36 5.32-3.36 8.6 0 2.66 1.18 4.2 3.3 4.2 1.95 0 3.35-.9 5.34-3.02M1233.97 621.67l-5.65 21.6c-.2.65-.3 1.28-.3 1.58 0 .44.26.66.63.66.55 0 1.4-.58 2.47-2.1l.93-1.28.5.36c-2.2 3.5-3.57 4.62-5.56 4.62-1.2 0-1.82-.7-1.82-2.07 0-.3.04-.74.15-1.1l5.06-19.35c.1-.37.1-.6.1-.7 0-.44-.63-.8-1.8-.8h-.68v-.6c2.18-.26 3.55-.52 5.72-1M1250.98 642.3l.52.33c-2.4 3.66-3.36 4.4-5.1 4.4-1.1 0-1.77-.63-1.77-1.78 0-.8.48-3.28 1.66-7.27-4.36 7.16-6.2 9.12-8.83 9.12-1.3 0-1.95-.6-1.95-1.96 0-.7.33-2.03 1-4.72l1.3-5.13c.28-1.23.5-2.2.5-2.5 0-.25-.18-.54-.4-.65-.34-.2-.45-.22-1.85-.22v-.52c2.1-.25 3.43-.5 5.54-1l.15.12-3.28 13.1c-.04.12-.1.45-.1.6 0 .55.17.92.73.92 1.25 0 2.95-1.95 5.24-5.42 1.73-2.62 2.25-4.03 4.06-8.97h2.73l-2.92 11.03c-.17.7-.7 2.44-.7 2.88 0 .4.16.63.42.63.6 0 1.18-.53 3.06-3M1271.7 621.48l.2.22-1.43 5.6-2.2 8.1c-1.16 4.2-2.4 8.5-2.4 9.08 0 .44.17.74.65.74.63 0 1.04-.34 3.03-2.63l.44.36c-1.82 2.7-3.6 4.2-5.43 4.2-.96 0-1.52-.65-1.52-1.65 0-.84.08-1.43.48-3.27-2.18 3.65-4.06 4.87-6.57 4.87-2.4 0-3.95-1.52-3.95-4.32 0-5.98 6-12.37 10.8-12.37 1.54 0 2.17.72 2.4 2.15h.03l1.66-6c.54-1.97.5-2.12.5-2.63 0-.78-.33-.9-2.36-.96v-.63c2.37-.22 3.7-.44 5.65-.85m-6.1 11.9c0-1.34-.9-2.12-1.74-2.12-1.03 0-2.32.63-3.35 1.7-2.43 2.58-4.28 6.6-4.28 9.67 0 1.7.85 2.7 2.15 2.7 3.4 0 7.23-6.35 7.23-11.96M1285.13 642.67l.44.44c-2.1 2.6-4.47 4-7.53 4-3 0-4.98-2-4.98-5.06 0-5.72 5.5-11.63 11.03-11.63 1.95 0 3.02.97 3.02 2.52 0 3.18-3.88 6.06-10.48 6.9-.37.74-.37 1.7-.37 2.26 0 2.03 1.36 3.36 3.43 3.36 1.62 0 2.77-.6 5.43-2.77m-7.6-5.28l-.64 1.6c3.17-.76 4.57-1.43 5.94-2.72 1.14-1.1 1.84-2.43 1.84-3.58 0-.88-.25-1.44-1.3-1.44-2.1 0-4.6 2.85-5.86 6.13M1315.65 642.6l.48.4c-2.77 3.36-3.65 4.06-5.13 4.06-1.03 0-1.47-.44-1.47-1.5 0-.93.07-1.23.84-4.26-2.76 4.17-4.9 5.8-7.5 5.8-2.06 0-3.68-1.48-3.68-4.28 0-5.72 5.64-12.4 10.55-12.4 1.58 0 2.65.77 2.95 2.13l.4-1.77.12-.1 2.25-.27.26.12c-.08.34-.1.4-.22.78-1.73 6.3-3.28 12.66-3.28 13.4 0 .26.22.48.52.48.33 0 .8-.3 1.92-1.5m-2.62-10.3c0-1.3-.78-2.15-2.07-2.15-1.66 0-3.3 1.14-4.84 3.4-1.55 2.32-2.84 5.6-2.84 7.93 0 2.03.88 2.73 2.2 2.73 1.85 0 3.6-2.04 4.7-3.63 1.73-2.5 2.84-5.68 2.84-8.3M1327.4 621.67l-5.66 21.6c-.18.65-.3 1.28-.3 1.58 0 .44.27.66.64.66.55 0 1.4-.58 2.47-2.1l.92-1.28.52.36c-2.23 3.5-3.6 4.62-5.6 4.62-1.17 0-1.8-.7-1.8-2.07 0-.3.04-.74.15-1.1l5.06-19.35c.12-.37.12-.6.12-.7 0-.44-.63-.8-1.8-.8h-.67v-.6c2.18-.26 3.54-.52 5.72-1M1337.7 621.67l-5.66 21.6c-.18.65-.3 1.28-.3 1.58 0 .44.26.66.63.66.56 0 1.4-.58 2.48-2.1l.92-1.28.52.36c-2.23 3.5-3.6 4.62-5.6 4.62-1.17 0-1.8-.7-1.8-2.07 0-.3.04-.74.15-1.1l5.06-19.35c.12-.37.12-.6.12-.7 0-.44-.63-.8-1.8-.8h-.67v-.6c2.17-.26 3.54-.52 5.72-1M1365.15 642.34l.48.48c-2.25 3.2-3.5 4.2-5.4 4.2-.98 0-1.6-.6-1.6-1.55 0-.44.25-1.58.73-3.4l2.03-7.63c.13-.6.25-1.07.25-1.22 0-.55-.2-.92-1.04-.92-1.32 0-3.68 2.25-5.6 5.16-1.48 2.26-2.07 3.55-3.54 9.23h-2.77l5.38-20.46c.3-1.14.48-1.77.48-2.3 0-.6-.85-.9-1.52-.9h-1v-.56c2.22-.26 3.66-.52 5.8-1l.26.22-4.46 16.5c3.32-5.4 6.2-7.8 8.5-7.8 1.68 0 2.38 1.12 2.38 2.5 0 .9-.66 3.64-1.77 7.1-.62 1.93-1.22 4.22-1.22 4.63 0 .36.26.66.6.66.6 0 1.03-.45 3.02-2.96M1383.72 635.58c0 2.8-1.48 6.06-3.9 8.45-2.15 2.15-4.52 3.07-6.95 3.07-3.47 0-5.43-1.92-5.43-5.13 0-4.14 2.77-8.38 6.64-10.45 1.44-.77 2.92-1.1 4.43-1.1 3 0 5.22 1.9 5.22 5.16m-3.1-.92c0-2.25-1.04-3.47-2.62-3.47-1.63 0-3.25 1.13-4.73 3.35-1.7 2.58-2.73 5.5-2.73 8.4 0 2.23 1.15 3.37 2.88 3.37 1.62 0 3.03-1.07 4.47-3.06 1.68-2.33 2.72-5.8 2.72-8.6M1401.95 642.3l.52.33c-2.4 3.66-3.36 4.4-5.1 4.4-1.1 0-1.77-.63-1.77-1.78 0-.8.48-3.28 1.67-7.27-4.36 7.16-6.2 9.12-8.83 9.12-1.3 0-1.95-.6-1.95-1.96 0-.7.32-2.03.98-4.72l1.3-5.13c.3-1.23.5-2.2.5-2.5 0-.25-.17-.54-.4-.65-.33-.2-.44-.22-1.84-.22v-.52c2.1-.25 3.43-.5 5.54-1l.15.12-3.3 13.1c-.03.12-.1.45-.1.6 0 .55.18.92.74.92 1.25 0 2.95-1.95 5.24-5.42 1.74-2.62 2.26-4.03 4.07-8.97h2.73l-2.92 11.03c-.18.7-.7 2.44-.7 2.88 0 .4.15.63.4.63.6 0 1.2-.53 3.07-3M1416.9 630.38l-.74 5.16h-.6c-.36-3.06-1.46-4.28-3.27-4.28-1.3 0-2.2.74-2.2 2.1 0 1 .56 2.07 2 3.77 1.85 2.14 2.5 3.58 2.5 5.02 0 3.07-2.24 4.95-5.3 4.95-.63 0-1.18-.04-2.03-.37-.7-.3-1.22-.33-1.63-.33-.4 0-.8.18-1.07.77h-.6l.75-5.87h.6c.5 3.5 1.76 5.02 3.68 5.02 1.74 0 2.8-1.03 2.8-2.84 0-1.18-.62-2.44-2.06-4.24-1.6-2-2.32-3.66-2.32-4.84 0-2.44 1.73-4 4.46-4 .63 0 1.15.12 2.07.38.7.22 1.03.26 1.33.26.55 0 .8-.15 1.1-.66h.52M1431 642.67l.45.44c-2.1 2.6-4.47 4-7.53 4-3 0-5-2-5-5.06 0-5.72 5.5-11.63 11.05-11.63 1.96 0 3.03.97 3.03 2.52 0 3.18-3.88 6.06-10.5 6.9-.36.74-.36 1.7-.36 2.26 0 2.03 1.37 3.36 3.44 3.36 1.62 0 2.77-.6 5.42-2.77m-7.6-5.28l-.63 1.6c3.18-.76 4.58-1.43 5.94-2.72 1.16-1.1 1.86-2.43 1.86-3.58 0-.88-.26-1.44-1.3-1.44-2.1 0-4.6 2.85-5.86 6.13M1447.7 630.38l-.75 5.16h-.6c-.36-3.06-1.47-4.28-3.28-4.28-1.3 0-2.17.74-2.17 2.1 0 1 .55 2.07 2 3.77 1.83 2.14 2.5 3.58 2.5 5.02 0 3.07-2.25 4.95-5.32 4.95-.62 0-1.18-.04-2.03-.37-.7-.3-1.2-.33-1.62-.33-.4 0-.8.18-1.07.77h-.6l.75-5.87h.6c.5 3.5 1.77 5.02 3.7 5.02 1.72 0 2.8-1.03 2.8-2.84 0-1.18-.63-2.44-2.07-4.24-1.6-2-2.33-3.66-2.33-4.84 0-2.44 1.74-4 4.47-4 .62 0 1.14.12 2.06.38.7.22 1.04.26 1.33.26.56 0 .82-.15 1.1-.66h.53M1457.62 652.45h-7.8v-.92h3.26c1.3 0 1.73-.56 1.73-1.7v-24.66c0-1.3-.47-2-1.87-2h-3.1v-.9h7.8v30.18"/><path d="M242.07 838.6l795.86-537.2M242.13 838.57L240 840M1037.87 301.43L1040 300M241.9 898.4l776.2-656.8M241.96 898.34L240 900M1018.04 241.66L1020 240" stroke="#c7e8ac" stroke-width="5" fill="none"/><path d="M699.4 188H800v24H699.4z" fill="#fff" fill-opacity="0"/><path d="M714.65 189.2l1.2 13.32c4.96-6.2 6.25-8.2 6.25-9.83 0-.46-.23-.77-.83-1.33-.6-.57-.8-1.02-.8-1.55 0-.6.65-1.18 1.48-1.18 1.13 0 1.97.9 1.97 2.12 0 2.42-2.8 6.85-8.02 13.2l-.34.42c-1.02 1.24-1.36 1.62-1.7 1.62-.27 0-.34-.34-.42-1.32l-1.1-11.73-3.36 5.75c-.68 1.14-1.36 2.4-2.08 3.75-1.36 2.6-2 3.55-2.42 3.55-.34 0-.42-.3-.5-1.78l-.14-3.44c-.16-3.3-.57-7.33-1.03-9.15-.33-1.4-.67-1.6-1.76-1.6h-1.06v-.48c1.17-.2 2.46-.34 3.6-.64.48-.1.82-.26 1.1-.26.4 0 .44.08.7 1.3.54 2.56 1.06 7.3 1.22 10.62l7.26-11.5c.2-.3.3-.38.5-.38.22 0 .3.12.3.53M737.35 202.2c0 4.6-1.68 9.2-6.04 9.2-4.56 0-6.03-4.98-6.03-9.37 0-4.73 1.84-9.1 6.15-9.1 3.5 0 5.93 3.78 5.93 9.26m-2.56.13c0-5.57-1.2-8.7-3.54-8.7-2.22 0-3.42 3.16-3.42 8.6 0 5.42 1.17 8.47 3.47 8.47 2.28 0 3.5-3.08 3.5-8.37M744.94 210.65l-.38-.72c2.08-1.4 3.14-2.8 3.14-4.04 0-.28-.23-.5-.53-.5-.3 0-.68.15-1.1.15-1.4 0-2.2-.65-2.2-1.93 0-1.3.92-2.16 2.28-2.16 1.7 0 3.03 1.33 3.03 3.3 0 2.26-1.63 4.64-4.24 5.9M772.8 189.2l1.22 13.32c4.96-6.2 6.24-8.2 6.24-9.83 0-.46-.23-.77-.83-1.33-.6-.57-.8-1.02-.8-1.55 0-.6.65-1.18 1.48-1.18 1.14 0 1.98.9 1.98 2.12 0 2.42-2.8 6.85-8.02 13.2l-.34.42c-1.02 1.24-1.36 1.62-1.7 1.62-.27 0-.34-.34-.42-1.32l-1.1-11.73-3.36 5.75c-.68 1.14-1.36 2.4-2.08 3.75-1.36 2.6-2 3.55-2.42 3.55-.34 0-.42-.3-.5-1.78l-.14-3.44c-.16-3.3-.57-7.33-1.02-9.15-.35-1.4-.7-1.6-1.78-1.6h-1.06v-.48c1.17-.2 2.46-.34 3.6-.64.48-.1.82-.26 1.1-.26.4 0 .44.08.7 1.3.54 2.56 1.07 7.3 1.22 10.62l7.26-11.5c.2-.3.3-.38.5-.38.22 0 .3.12.3.53M793.32 211.02h-7.38v-.4c1.98-.1 2.54-.67 2.54-2.14v-12c0-.92-.24-1.32-.8-1.32-.27 0-.72.13-1.2.32l-.72.27v-.38l4.78-2.43.24.08v15.96c0 1.15.54 1.63 2.54 1.63v.42"/><path d="M1280 760h228.96v40H1280z" fill="#fff" fill-opacity="0"/><path d="M1297.62 772.88l1.4 15.4c5.73-7.17 7.22-9.5 7.22-11.37 0-.52-.26-.87-.96-1.52-.7-.66-.92-1.18-.92-1.8 0-.7.74-1.35 1.7-1.35 1.32 0 2.28 1.05 2.28 2.45 0 2.8-3.24 7.9-9.27 15.26l-.4.48c-1.18 1.44-1.57 1.88-1.96 1.88-.3 0-.4-.4-.48-1.53l-1.26-13.56-3.9 6.66c-.78 1.3-1.57 2.76-2.4 4.33-1.58 3-2.32 4.1-2.8 4.1-.4 0-.48-.35-.57-2.05l-.18-3.98c-.18-3.8-.66-8.5-1.18-10.6-.4-1.6-.8-1.82-2.06-1.82h-1.22v-.57c1.35-.22 2.84-.4 4.15-.75.58-.13.97-.3 1.28-.3.48 0 .52.1.83 1.5.62 2.96 1.23 8.43 1.4 12.27l8.4-13.3c.22-.34.36-.43.57-.43.27 0 .35.13.35.6M1299.72 768.07h-1.48l-5.34-4.5-5.3 4.5h-1.48l5.43-7.3h2.7M1349.18 777.52h-25.75v-2.9h25.75v2.9m0 8.75h-25.75v-2.9h25.75v2.9M1376.74 798.56l-.53.7c-6.9-3.94-10.66-11.33-10.66-18.77 0-8.1 3.8-14.4 10.8-18.55l.4.7c-6.08 5.2-7.44 9.27-7.44 17.7 0 8.15 1.3 13.1 7.44 18.2M1395.67 772.88l1.4 15.4c5.73-7.17 7.22-9.5 7.22-11.37 0-.52-.27-.87-.97-1.52-.7-.66-.92-1.18-.92-1.8 0-.7.75-1.35 1.7-1.35 1.32 0 2.3 1.05 2.3 2.45 0 2.8-3.25 7.9-9.28 15.26l-.4.48c-1.18 1.44-1.57 1.88-1.97 1.88-.3 0-.4-.4-.48-1.53L1393 777.2l-3.9 6.66c-.77 1.3-1.56 2.76-2.4 4.33-1.57 3-2.3 4.1-2.8 4.1-.4 0-.47-.35-.56-2.05l-.17-3.98c-.18-3.8-.66-8.5-1.2-10.6-.38-1.6-.77-1.82-2.04-1.82h-1.23v-.57c1.36-.22 2.85-.4 4.16-.75.57-.13.96-.3 1.27-.3.48 0 .52.1.83 1.5.6 2.96 1.22 8.43 1.4 12.27l8.4-13.3c.2-.34.34-.43.56-.43.27 0 .35.13.35.6M1397.77 768.07h-1.5l-5.32-4.5-5.3 4.5h-1.48l5.42-7.3h2.7M1421.93 787.9c0 5.32-1.95 10.63-7 10.63-5.28 0-6.98-5.75-6.98-10.82 0-5.46 2.14-10.5 7.1-10.5 4.06 0 6.88 4.36 6.88 10.7m-2.97.15c0-6.43-1.36-10.05-4.08-10.05-2.57 0-3.96 3.65-3.96 9.93 0 6.28 1.36 9.8 4.02 9.8 2.63 0 4.02-3.56 4.02-9.68M1430.7 797.68l-.43-.83c2.4-1.62 3.62-3.24 3.62-4.68 0-.3-.27-.57-.62-.57s-.78.18-1.27.18c-1.6 0-2.52-.75-2.52-2.23 0-1.5 1.05-2.5 2.62-2.5 1.97 0 3.5 1.53 3.5 3.8 0 2.63-1.88 5.4-4.9 6.83M1462.93 772.88l1.4 15.4c5.73-7.17 7.22-9.5 7.22-11.37 0-.52-.26-.87-.96-1.52-.7-.66-.93-1.18-.93-1.8 0-.7.74-1.35 1.7-1.35 1.32 0 2.28 1.05 2.28 2.45 0 2.8-3.24 7.9-9.27 15.26l-.4.48c-1.18 1.44-1.57 1.88-1.97 1.88-.3 0-.38-.4-.47-1.53l-1.26-13.56-3.9 6.66c-.78 1.3-1.57 2.76-2.4 4.33-1.58 3-2.32 4.1-2.8 4.1-.4 0-.48-.35-.57-2.05l-.17-3.98c-.18-3.8-.66-8.5-1.2-10.6-.38-1.6-.77-1.82-2.04-1.82h-1.23v-.57c1.35-.22 2.84-.4 4.15-.75.57-.13.96-.3 1.27-.3.47 0 .5.1.82 1.5.6 2.96 1.22 8.43 1.4 12.27l8.4-13.3c.2-.34.34-.43.56-.43.27 0 .35.13.35.6M1465.03 768.07h-1.48l-5.34-4.5-5.28 4.5h-1.5l5.43-7.3h2.72M1486.65 798.1h-8.53v-.46c2.3-.13 2.94-.78 2.94-2.48v-13.88c0-1.05-.28-1.52-.93-1.52-.3 0-.84.16-1.4.37l-.83.3v-.42l5.54-2.8.28.1v18.45c0 1.33.6 1.9 2.93 1.9v.45M1495.65 762.65l.52-.7c6.7 4.02 10.67 11.33 10.67 18.76 0 8.1-3.85 14.3-10.8 18.56l-.4-.7c6.22-5.12 7.44-9.23 7.44-17.72 0-8.17-1.1-13.2-7.43-18.2"/><path d="M1300 661v60.5M1300 661.03V660" stroke="#000" stroke-width="2" fill="none"/><path d="M1300 736.76l-4.64-14.26h9.28z" stroke="#000" stroke-width="2"/><defs><path d="M135-143c-3-34-86-38-87 0 15 53 115 12 119 90S17 21 10-45l28-5c4 36 97 45 98 0-10-56-113-15-118-90-4-57 82-63 122-42 12 7 21 19 24 35" id="n"/><path d="M145-31C134-9 116 4 85 4 32 4 16-35 15-94c0-59 17-99 70-100 32-1 48 14 60 33 0-11-1-24 2-32h30l-1 268h-32zM93-21c41 0 51-33 51-76s-8-73-50-73c-40 0-46 35-46 75s5 74 45 74" id="o"/><path d="M84 4C-5 8 30-112 23-190h32v120c0 31 7 50 39 49 72-2 45-101 50-169h31l1 190h-30c-1-10 1-25-2-33-11 22-28 36-60 37" id="p"/><path d="M141-36C126-15 110 5 73 4 37 3 15-17 15-53c-1-64 63-63 125-63 3-35-9-54-41-54-24 1-41 7-42 31l-33-3c5-37 33-52 76-52 45 0 72 20 72 64v82c-1 20 7 32 28 27v20c-31 9-61-2-59-35zM48-53c0 20 12 33 32 33 41-3 63-29 60-74-43 2-92-5-92 41" id="q"/><path d="M114-163C36-179 61-72 57 0H25l-1-190h30c1 12-1 29 2 39 6-27 23-49 58-41v29" id="r"/><path d="M100-194c63 0 86 42 84 106H49c0 40 14 67 53 68 26 1 43-12 49-29l28 8c-11 28-37 45-77 45C44 4 14-33 15-96c1-61 26-98 85-98zm52 81c6-60-76-77-97-28-3 7-6 17-6 28h103" id="s"/><g id="a"><use transform="matrix(0.07407407407407408,0,0,0.07407407407407408,0,0)" xlink:href="#n"/><use transform="matrix(0.07407407407407408,0,0,0.07407407407407408,13.333333333333336,0)" xlink:href="#o"/><use transform="matrix(0.07407407407407408,0,0,0.07407407407407408,28.148148148148152,0)" xlink:href="#p"/><use transform="matrix(0.07407407407407408,0,0,0.07407407407407408,42.96296296296297,0)" xlink:href="#q"/><use transform="matrix(0.07407407407407408,0,0,0.07407407407407408,57.777777777777786,0)" xlink:href="#r"/><use transform="matrix(0.07407407407407408,0,0,0.07407407407407408,66.59259259259261,0)" xlink:href="#s"/></g><path d="M101-234c-31-9-42 10-38 44h38v23H63V0H32v-167H5v-23h27c-7-52 17-82 69-68v24" id="t"/><path d="M59-47c-2 24 18 29 38 22v24C64 9 27 4 27-40v-127H5v-23h24l9-43h21v43h35v23H59v120" id="u"/><g id="b"><use transform="matrix(0.07407407407407408,0,0,0.07407407407407408,0,0)" xlink:href="#t"/><use transform="matrix(0.07407407407407408,0,0,0.07407407407407408,7.407407407407408,0)" xlink:href="#s"/><use transform="matrix(0.07407407407407408,0,0,0.07407407407407408,22.222222222222225,0)" xlink:href="#s"/><use transform="matrix(0.07407407407407408,0,0,0.07407407407407408,37.03703703703704,0)" xlink:href="#u"/></g><path d="M87 75C49 33 22-17 22-94c0-76 28-126 65-167h31c-38 41-64 92-64 168S80 34 118 75H87" id="v"/><path d="M33 0v-38h34V0H33" id="w"/><g id="c"><use transform="matrix(0.07407407407407408,0,0,0.07407407407407408,0,0)" xlink:href="#v"/><use transform="matrix(0.07407407407407408,0,0,0.07407407407407408,8.814814814814817,0)" xlink:href="#n"/><use transform="matrix(0.07407407407407408,0,0,0.07407407407407408,22.148148148148152,0)" xlink:href="#o"/><use transform="matrix(0.07407407407407408,0,0,0.07407407407407408,36.96296296296297,0)" xlink:href="#w"/></g><path d="M33-261c38 41 65 92 65 168S71 34 33 75H2C39 34 66-17 66-93S39-220 2-261h31" id="x"/><g id="d"><use transform="matrix(0.07407407407407408,0,0,0.07407407407407408,0,0)" xlink:href="#t"/><use transform="matrix(0.07407407407407408,0,0,0.07407407407407408,7.407407407407408,0)" xlink:href="#u"/><use transform="matrix(0.07407407407407408,0,0,0.07407407407407408,14.814814814814817,0)" xlink:href="#w"/><use transform="matrix(0.07407407407407408,0,0,0.07407407407407408,22.222222222222225,0)" xlink:href="#x"/></g><path d="M115-194c55 1 70 41 70 98S169 2 115 4C84 4 66-9 55-30l1 105H24l-1-265h31l2 30c10-21 28-34 59-34zm-8 174c40 0 45-34 45-75s-6-73-45-74c-42 0-51 32-51 76 0 43 10 73 51 73" id="y"/><path d="M24-231v-30h32v30H24zM24 0v-190h32V0H24" id="z"/><path d="M96-169c-40 0-48 33-48 73s9 75 48 75c24 0 41-14 43-38l32 2c-6 37-31 61-74 61-59 0-76-41-82-99-10-93 101-131 147-64 4 7 5 14 7 22l-32 3c-4-21-16-35-41-35" id="A"/><g id="e"><use transform="matrix(0.07407407407407408,0,0,0.07407407407407408,0,0)" xlink:href="#y"/><use transform="matrix(0.07407407407407408,0,0,0.07407407407407408,14.814814814814817,0)" xlink:href="#r"/><use transform="matrix(0.07407407407407408,0,0,0.07407407407407408,23.629629629629633,0)" xlink:href="#z"/><use transform="matrix(0.07407407407407408,0,0,0.07407407407407408,29.481481481481488,0)" xlink:href="#A"/><use transform="matrix(0.07407407407407408,0,0,0.07407407407407408,42.814814814814824,0)" xlink:href="#s"/></g><path d="M194-70c0 46-34 64-81 66v29H91V-4C42-5 12-27 4-67l30-6c5 28 25 41 57 43v-87c-38-9-76-20-76-67 1-42 33-58 76-59v-23h22v23c45 0 67 20 76 56l-31 6c-5-23-18-35-45-37v78c41 10 81 20 81 70zm-81 41c51 7 71-66 19-77-6-2-12-4-19-6v83zM91-219c-47-6-63 57-18 69 6 2 12 3 18 5v-74" id="B"/><g id="f"><use transform="matrix(0.07407407407407408,0,0,0.07407407407407408,0,0)" xlink:href="#v"/><use transform="matrix(0.07407407407407408,0,0,0.07407407407407408,8.814814814814817,0)" xlink:href="#B"/><use transform="matrix(0.07407407407407408,0,0,0.07407407407407408,23.629629629629633,0)" xlink:href="#x"/></g><path d="M137-103V0h-34v-103L8-248h37l75 118 75-118h37" id="C"/><use transform="matrix(0.07407407407407408,0,0,0.07407407407407408,0,0)" xlink:href="#C" id="g"/><path d="M195 0l-74-108L45 0H8l94-129-87-119h37l69 98 67-98h37l-84 118L233 0h-38" id="D"/><use transform="matrix(0.07407407407407408,0,0,0.07407407407407408,0,0)" xlink:href="#D" id="h"/><path d="M240 0l2-218c-23 76-54 145-80 218h-23L58-218 59 0H30v-248h44l77 211c21-75 51-140 76-211h43V0h-30" id="E"/><path d="M117-194c89-4 53 116 60 194h-32v-121c0-31-8-49-39-48C34-167 62-67 57 0H25l-1-190h30c1 10-1 24 2 32 11-22 29-35 61-36" id="F"/><path d="M210-169c-67 3-38 105-44 169h-31v-121c0-29-5-50-35-48C34-165 62-65 56 0H25l-1-190h30c1 10-1 24 2 32 10-44 99-50 107 0 11-21 27-35 58-36 85-2 47 119 55 194h-31v-121c0-29-5-49-35-48" id="G"/><path d="M9 0v-24l116-142H16v-24h144v24L44-24h123V0H9" id="H"/><g id="i"><use transform="matrix(0.07407407407407408,0,0,0.07407407407407408,0,0)" xlink:href="#E"/><use transform="matrix(0.07407407407407408,0,0,0.07407407407407408,22.148148148148152,0)" xlink:href="#z"/><use transform="matrix(0.07407407407407408,0,0,0.07407407407407408,28.000000000000007,0)" xlink:href="#F"/><use transform="matrix(0.07407407407407408,0,0,0.07407407407407408,42.814814814814824,0)" xlink:href="#z"/><use transform="matrix(0.07407407407407408,0,0,0.07407407407407408,48.66666666666668,0)" xlink:href="#G"/><use transform="matrix(0.07407407407407408,0,0,0.07407407407407408,70.81481481481484,0)" xlink:href="#z"/><use transform="matrix(0.07407407407407408,0,0,0.07407407407407408,76.6666666666667,0)" xlink:href="#H"/><use transform="matrix(0.07407407407407408,0,0,0.07407407407407408,90.00000000000003,0)" xlink:href="#s"/></g><path d="M100-194c62-1 85 37 85 99 1 63-27 99-86 99S16-35 15-95c0-66 28-99 85-99zM99-20c44 1 53-31 53-75 0-43-8-75-51-75s-53 32-53 75 10 74 51 75" id="I"/><g id="j"><use transform="matrix(0.07407407407407408,0,0,0.07407407407407408,0,0)" xlink:href="#A"/><use transform="matrix(0.07407407407407408,0,0,0.07407407407407408,13.333333333333336,0)" xlink:href="#I"/><use transform="matrix(0.07407407407407408,0,0,0.07407407407407408,28.148148148148152,0)" xlink:href="#n"/><use transform="matrix(0.07407407407407408,0,0,0.07407407407407408,41.48148148148149,0)" xlink:href="#u"/></g><path d="M108 0H70L1-190h34L89-25l56-165h34" id="J"/><g id="k"><use transform="matrix(0.07407407407407408,0,0,0.07407407407407408,0,0)" xlink:href="#I"/><use transform="matrix(0.07407407407407408,0,0,0.07407407407407408,14.814814814814817,0)" xlink:href="#J"/><use transform="matrix(0.07407407407407408,0,0,0.07407407407407408,28.148148148148152,0)" xlink:href="#s"/><use transform="matrix(0.07407407407407408,0,0,0.07407407407407408,42.96296296296297,0)" xlink:href="#r"/></g><path d="M24 0v-261h32V0H24" id="K"/><g id="l"><use transform="matrix(0.07407407407407408,0,0,0.07407407407407408,0,0)" xlink:href="#q"/><use transform="matrix(0.07407407407407408,0,0,0.07407407407407408,14.814814814814817,0)" xlink:href="#K"/><use transform="matrix(0.07407407407407408,0,0,0.07407407407407408,20.666666666666668,0)" xlink:href="#K"/></g><path d="M115-194c53 0 69 39 70 98 0 66-23 100-70 100C84 3 66-7 56-30L54 0H23l1-261h32v101c10-23 28-34 59-34zm-8 174c40 0 45-34 45-75 0-40-5-75-45-74-42 0-51 32-51 76 0 43 10 73 51 73" id="L"/><g id="m"><use transform="matrix(0.07407407407407408,0,0,0.07407407407407408,0,0)" xlink:href="#y"/><use transform="matrix(0.07407407407407408,0,0,0.07407407407407408,14.814814814814817,0)" xlink:href="#I"/><use transform="matrix(0.07407407407407408,0,0,0.07407407407407408,29.629629629629633,0)" xlink:href="#n"/><use transform="matrix(0.07407407407407408,0,0,0.07407407407407408,42.96296296296297,0)" xlink:href="#n"/><use transform="matrix(0.07407407407407408,0,0,0.07407407407407408,56.296296296296305,0)" xlink:href="#z"/><use transform="matrix(0.07407407407407408,0,0,0.07407407407407408,62.14814814814816,0)" xlink:href="#L"/><use transform="matrix(0.07407407407407408,0,0,0.07407407407407408,76.96296296296298,0)" xlink:href="#K"/><use transform="matrix(0.07407407407407408,0,0,0.07407407407407408,82.81481481481482,0)" xlink:href="#s"/></g></defs></g></svg>