<svg xmlns="http://www.w3.org/2000/svg" xmlns:xlink="http://www.w3.org/1999/xlink" xmlns:lucid="lucid" width="1340.2" height="931"><g transform="translate(-140 -129)" lucid:page-tab-id="0lNwwTxpLqcR"><path d="M240 959V178.5M240 958.97V960" stroke="#000" stroke-width="2" fill="none"/><path d="M240 163.24l4.64 14.26h-9.28z" stroke="#000" stroke-width="2"/><path d="M241 960h780.5M241.03 960H240" stroke="#000" stroke-width="2" fill="none"/><path d="M1036.76 960l-14.26 4.64v-9.28z" stroke="#000" stroke-width="2"/><path d="M480 980h320v60H480z" stroke="#000" stroke-opacity="0" stroke-width="2" fill="#fff" fill-opacity="0"/><use xlink:href="#a" transform="matrix(1,0,0,1,485,985) translate(43.25925925925925 30.708333333333336)"/><use xlink:href="#b" transform="matrix(1,0,0,1,485,985) translate(132.07407407407408 30.708333333333336)"/><use xlink:href="#c" transform="matrix(1,0,0,1,485,985) translate(183.92592592592592 30.708333333333336)"/><use xlink:href="#d" transform="matrix(1,0,0,1,485,985) translate(235.7037037037037 30.708333333333336)"/><path d="M300 710c0 5.52-4.48 10-10 10s-10-4.48-10-10 4.48-10 10-10 10 4.48 10 10z" stroke="#000" stroke-width="2" fill="#c1e4f7"/><path d="M160 720V400h60v320z" stroke="#000" stroke-opacity="0" stroke-width="2" fill="#fff" fill-opacity="0"/><use xlink:href="#e" transform="matrix(6.123233995736766e-17,-1,1,6.123233995736766e-17,165,715) translate(106.25925925925925 30.708333333333336)"/><use xlink:href="#f" transform="matrix(6.123233995736766e-17,-1,1,6.123233995736766e-17,165,715) translate(171.2962962962963 30.708333333333336)"/><path d="M360 750c0 5.52-4.48 10-10 10s-10-4.48-10-10 4.48-10 10-10 10 4.48 10 10zM440 730c0 5.52-4.48 10-10 10s-10-4.48-10-10 4.48-10 10-10 10 4.48 10 10zM480 790c0 5.52-4.48 10-10 10s-10-4.48-10-10 4.48-10 10-10 10 4.48 10 10z" stroke="#000" stroke-width="2" fill="#c1e4f7"/><path d="M160 160h80v80h-80z" stroke="#000" stroke-opacity="0" stroke-width="2" fill="#fff" fill-opacity="0"/><use xlink:href="#g" transform="matrix(1,0,0,1,165,165) translate(26.11111111111111 41.020833333333336)"/><path d="M960 960h80v80h-80z" stroke="#000" stroke-opacity="0" stroke-width="2" fill="#fff" fill-opacity="0"/><use xlink:href="#h" transform="matrix(1,0,0,1,965,965) translate(26.11111111111111 41.020833333333336)"/><path d="M560 550c0 5.52-4.48 10-10 10s-10-4.48-10-10 4.48-10 10-10 10 4.48 10 10zM580 610c0 5.52-4.48 10-10 10s-10-4.48-10-10 4.48-10 10-10 10 4.48 10 10zM600 650c0 5.52-4.48 10-10 10s-10-4.48-10-10 4.48-10 10-10 10 4.48 10 10zM640 590c0 5.52-4.48 10-10 10s-10-4.48-10-10 4.48-10 10-10 10 4.48 10 10zM680 570c0 5.52-4.48 10-10 10s-10-4.48-10-10 4.48-10 10-10 10 4.48 10 10zM780 410c0 5.52-4.48 10-10 10s-10-4.48-10-10 4.48-10 10-10 10 4.48 10 10zM820 450c0 5.52-4.48 10-10 10s-10-4.48-10-10 4.48-10 10-10 10 4.48 10 10zM880 330c0 5.52-4.48 10-10 10s-10-4.48-10-10 4.48-10 10-10 10 4.48 10 10zM940 430c0 5.52-4.48 10-10 10s-10-4.48-10-10 4.48-10 10-10 10 4.48 10 10zM1020 690c0 5.52-4.48 10-10 10s-10-4.48-10-10 4.48-10 10-10 10 4.48 10 10z" stroke="#000" stroke-width="2" fill="#c1e4f7"/><path d="M241.93 918.4l796.14-656.8M241.98 918.37L240 920M1038.02 261.63L1040 260" stroke="#c7e8ac" stroke-width="5" fill="none"/><path d="M1159.3 439.3l-126.22-126.22M1159.27 439.27l.73.73" stroke="#000" stroke-width="2" fill="none"/><path d="M1022.3 302.3l13.35 6.8-6.55 6.55z" stroke="#000" stroke-width="2"/><path d="M1120 460h340.2v43.6H1120z" fill="#fff" fill-opacity="0"/><path d="M1128.9 472.66h4.4c1.05-3.36 1.85-5.97 3.42-8.2 1.42-2.04 3.37-3.65 6.26-3.65 2.32 0 4.08 1.24 4.08 2.95 0 1.04-.9 2.04-2 2.04-.85 0-1.75-.72-1.75-1.86 0-.8.5-1.05.5-1.47 0-.38-.4-.62-1.06-.62-2.65 0-4.4 3.32-5.78 10.8h5.07l-.28 1.53h-5.13l-3.4 15.18c-2 8.77-5.18 13.42-9.5 13.42-2.13 0-3.74-1.23-3.74-2.9 0-1.08.8-1.98 1.8-1.98 1.1 0 1.8.76 1.8 1.75 0 .62-.43.86-.43 1.38 0 .42.38.76.95.76 2 0 3.5-2.57 4.6-7.7l4.18-19.92h-4.32M1153.64 485.82l1.08 11.8c4.4-5.5 5.53-7.27 5.53-8.7 0-.42-.2-.68-.74-1.2-.52-.5-.7-.9-.7-1.36 0-.54.58-1.04 1.32-1.04 1 0 1.74.8 1.74 1.88 0 2.14-2.48 6.07-7.1 11.7l-.3.37c-.92 1.1-1.22 1.44-1.52 1.44-.23 0-.3-.3-.37-1.16l-.97-10.4-3 5.1c-.6 1-1.2 2.1-1.83 3.32-1.2 2.3-1.78 3.15-2.15 3.15-.3 0-.37-.26-.43-1.56l-.15-3.06c-.13-2.9-.5-6.5-.9-8.1-.3-1.25-.6-1.42-1.58-1.42h-.94v-.44c1.04-.16 2.18-.3 3.2-.57.42-.1.73-.23.96-.23.36 0 .4.07.63 1.14.47 2.28.94 6.47 1.07 9.42l6.44-10.2c.17-.26.27-.33.44-.33.2 0 .26.1.26.47M1181.68 500.6l-.57.76c-7.48-4.27-11.56-12.28-11.56-20.35 0-8.76 4.13-15.6 11.72-20.1l.42.76c-6.6 5.65-8.06 10.06-8.06 19.2 0 8.83 1.42 14.2 8.06 19.74M1194.58 476.13l.57 2.7c3.32-5.07 5.08-6.78 7.16-6.78 1.15 0 1.96.7 1.96 1.75 0 1-.66 1.7-1.6 1.7-.9 0-1.34-.8-2.48-.8-.85 0-2.56 2.1-4.65 5.74 0 .34.1 1 .38 2.14l1.53 6.35c.33 1.33.76 1.95 1.42 1.95.62 0 1.14-.48 2.23-1.9.43-.57.62-.85 1-1.33l.7.43c-2.74 4.27-3.98 5.4-5.78 5.4-1.52 0-2.23-.85-2.8-3.22l-1.37-5.64-4.18 5.64c-2.08 2.8-3.03 3.23-4.5 3.23-1.47 0-2.37-.77-2.37-2 0-.95.66-1.7 1.6-1.7.44 0 .9.18 1.53.5.48.3.96.44 1.24.44.52 0 1.42-.9 2.42-2.33l3.9-5.5-1.34-5.87c-.66-2.85-1-3.23-2.18-3.23-.38 0-.95.1-1.85.34l-.86.23-.15-.76.52-.18c2.9-1.04 4.45-1.37 5.54-1.37 1.2 0 1.76.85 2.42 4.08M1205.68 461.66l.57-.76c7.26 4.37 11.57 12.3 11.57 20.35 0 8.77-4.17 15.5-11.7 20.1l-.44-.75c6.74-5.55 8.06-10 8.06-19.2 0-8.88-1.18-14.33-8.06-19.74M1263.5 477.8h-27.94v-3.14h27.94v3.13m0 9.47h-27.94v-3.13h27.94v3.13M1298.12 472.76l1.52 16.7c6.2-7.78 7.83-10.3 7.83-12.34 0-.57-.3-.95-1.05-1.66-.76-.7-1-1.28-1-1.94 0-.76.8-1.47 1.86-1.47 1.42 0 2.46 1.14 2.46 2.65 0 3.04-3.5 8.6-10.05 16.56l-.44.52c-1.28 1.56-1.7 2.04-2.13 2.04-.34 0-.43-.43-.53-1.66l-1.37-14.7-4.22 7.2c-.85 1.43-1.7 3-2.6 4.7-1.7 3.27-2.5 4.46-3.04 4.46-.42 0-.52-.38-.6-2.23l-.2-4.33c-.2-4.12-.7-9.2-1.28-11.47-.43-1.76-.86-2-2.23-2h-1.33v-.6c1.47-.25 3.08-.44 4.5-.82.62-.14 1.05-.33 1.38-.33.52 0 .57.1.9 1.6.67 3.24 1.33 9.16 1.52 13.34l9.1-14.43c.24-.38.4-.47.62-.47.3 0 .38.14.38.66M1326.6 489.04c0 5.77-2.1 11.54-7.58 11.54-5.74 0-7.58-6.24-7.58-11.74 0-5.94 2.3-11.4 7.7-11.4 4.4 0 7.46 4.73 7.46 11.6m-3.22.17c0-6.97-1.48-10.9-4.43-10.9-2.78 0-4.3 3.97-4.3 10.77 0 6.8 1.48 10.64 4.37 10.64 2.85 0 4.36-3.85 4.36-10.5M1372.87 482.53h-12.38v12.38h-3.14v-12.37h-12.38v-3.13h12.38v-12.38h3.13v12.38h12.37v3.13M1404.9 472.76l1.5 16.7c6.22-7.78 7.83-10.3 7.83-12.34 0-.57-.28-.95-1.04-1.66-.77-.7-1-1.28-1-1.94 0-.76.8-1.47 1.84-1.47 1.42 0 2.47 1.14 2.47 2.65 0 3.04-3.5 8.6-10.05 16.56l-.42.52c-1.3 1.56-1.7 2.04-2.14 2.04-.34 0-.44-.43-.53-1.66l-1.38-14.7-4.23 7.2c-.85 1.43-1.7 3-2.6 4.7-1.7 3.27-2.52 4.46-3.04 4.46-.43 0-.52-.38-.62-2.23l-.18-4.33c-.2-4.12-.7-9.2-1.28-11.47-.43-1.76-.85-2-2.23-2h-1.32v-.6c1.47-.25 3.1-.44 4.5-.82.63-.14 1.05-.33 1.4-.33.5 0 .55.1.9 1.6.65 3.24 1.3 9.16 1.5 13.34l9.1-14.43c.25-.38.4-.47.63-.47.3 0 .4.14.4.66M1430.6 500.1h-9.24v-.5c2.48-.13 3.18-.83 3.18-2.68v-15.06c0-1.14-.3-1.64-1-1.64-.34 0-.9.17-1.5.4l-.92.34v-.47l6-3.06.3.1v20.02c0 1.44.68 2.05 3.2 2.05v.5M1450.47 476.13l.57 2.7c3.32-5.07 5.07-6.78 7.16-6.78 1.14 0 1.94.7 1.94 1.75 0 1-.66 1.7-1.6 1.7-.9 0-1.34-.8-2.48-.8-.85 0-2.56 2.1-4.64 5.74 0 .34.1 1 .38 2.14l1.5 6.35c.34 1.33.77 1.95 1.44 1.95.6 0 1.13-.48 2.22-1.9.43-.57.62-.85 1-1.33l.7.43c-2.74 4.27-3.97 5.4-5.77 5.4-1.53 0-2.24-.85-2.8-3.22l-1.4-5.64-4.16 5.64c-2.1 2.8-3.04 3.23-4.5 3.23-1.48 0-2.38-.77-2.38-2 0-.95.67-1.7 1.6-1.7.44 0 .9.18 1.53.5.47.3.94.44 1.22.44.53 0 1.43-.9 2.42-2.33l3.9-5.5-1.34-5.87c-.66-2.85-1-3.23-2.18-3.23-.38 0-.95.1-1.85.34l-.85.23-.14-.76.52-.18c2.9-1.04 4.46-1.37 5.55-1.37 1.18 0 1.75.85 2.42 4.08"/><path d="M242.07 838.6l795.86-537.2M242.13 838.57L240 840M1037.87 301.43L1040 300M241.9 898.4l776.2-656.8M241.96 898.34L240 900M1018.04 241.66L1020 240" stroke="#c7e8ac" stroke-width="5" fill="none"/><path d="M1039.4 839.2L791.23 514.7M1039.38 839.2l.62.8" stroke="#000" stroke-width="2" fill="none"/><path d="M781.97 502.57l12.34 8.52-7.35 5.62z" stroke="#000" stroke-width="2"/><path d="M1040 820h218.87v60H1040z" stroke="#000" stroke-opacity="0" stroke-width="2" fill="#fff" fill-opacity="0"/><g><use xlink:href="#i" transform="matrix(1,0,0,1,1045,825) translate(5.4876543209876445 30.27777777777778)"/><use xlink:href="#j" transform="matrix(1,0,0,1,1045,825) translate(91.35185185185183 30.27777777777778)"/></g><path d="M1260 843.03h18.87v13.94H1260z" fill="#fff" fill-opacity="0"/><path d="M1271.4 843.94l.9 9.95c3.7-4.65 4.66-6.15 4.66-7.36 0-.34-.17-.57-.62-1-.46-.42-.6-.75-.6-1.15 0-.46.48-.9 1.1-.9.85 0 1.48.7 1.48 1.6 0 1.8-2.1 5.1-6 9.86l-.25.3c-.76.94-1.02 1.23-1.27 1.23-.2 0-.26-.27-.3-1l-.83-8.76-2.52 4.3c-.5.84-1.02 1.77-1.55 2.8-1.02 1.94-1.5 2.65-1.8 2.65-.27 0-.32-.24-.38-1.34l-.1-2.57c-.13-2.47-.44-5.5-.78-6.85-.25-1.05-.5-1.2-1.32-1.2h-.8v-.36c.88-.15 1.84-.26 2.7-.5.36-.07.6-.2.8-.2.32 0 .35.07.55.97.4 1.93.8 5.46.9 7.95l5.43-8.6c.14-.22.22-.28.36-.28.17 0 .23.1.23.4"/><defs><path d="M135-143c-3-34-86-38-87 0 15 53 115 12 119 90S17 21 10-45l28-5c4 36 97 45 98 0-10-56-113-15-118-90-4-57 82-63 122-42 12 7 21 19 24 35" id="k"/><path d="M145-31C134-9 116 4 85 4 32 4 16-35 15-94c0-59 17-99 70-100 32-1 48 14 60 33 0-11-1-24 2-32h30l-1 268h-32zM93-21c41 0 51-33 51-76s-8-73-50-73c-40 0-46 35-46 75s5 74 45 74" id="l"/><path d="M84 4C-5 8 30-112 23-190h32v120c0 31 7 50 39 49 72-2 45-101 50-169h31l1 190h-30c-1-10 1-25-2-33-11 22-28 36-60 37" id="m"/><path d="M141-36C126-15 110 5 73 4 37 3 15-17 15-53c-1-64 63-63 125-63 3-35-9-54-41-54-24 1-41 7-42 31l-33-3c5-37 33-52 76-52 45 0 72 20 72 64v82c-1 20 7 32 28 27v20c-31 9-61-2-59-35zM48-53c0 20 12 33 32 33 41-3 63-29 60-74-43 2-92-5-92 41" id="n"/><path d="M114-163C36-179 61-72 57 0H25l-1-190h30c1 12-1 29 2 39 6-27 23-49 58-41v29" id="o"/><path d="M100-194c63 0 86 42 84 106H49c0 40 14 67 53 68 26 1 43-12 49-29l28 8c-11 28-37 45-77 45C44 4 14-33 15-96c1-61 26-98 85-98zm52 81c6-60-76-77-97-28-3 7-6 17-6 28h103" id="p"/><g id="a"><use transform="matrix(0.07407407407407408,0,0,0.07407407407407408,0,0)" xlink:href="#k"/><use transform="matrix(0.07407407407407408,0,0,0.07407407407407408,13.333333333333336,0)" xlink:href="#l"/><use transform="matrix(0.07407407407407408,0,0,0.07407407407407408,28.148148148148152,0)" xlink:href="#m"/><use transform="matrix(0.07407407407407408,0,0,0.07407407407407408,42.96296296296297,0)" xlink:href="#n"/><use transform="matrix(0.07407407407407408,0,0,0.07407407407407408,57.777777777777786,0)" xlink:href="#o"/><use transform="matrix(0.07407407407407408,0,0,0.07407407407407408,66.59259259259261,0)" xlink:href="#p"/></g><path d="M101-234c-31-9-42 10-38 44h38v23H63V0H32v-167H5v-23h27c-7-52 17-82 69-68v24" id="q"/><path d="M59-47c-2 24 18 29 38 22v24C64 9 27 4 27-40v-127H5v-23h24l9-43h21v43h35v23H59v120" id="r"/><g id="b"><use transform="matrix(0.07407407407407408,0,0,0.07407407407407408,0,0)" xlink:href="#q"/><use transform="matrix(0.07407407407407408,0,0,0.07407407407407408,7.407407407407408,0)" xlink:href="#p"/><use transform="matrix(0.07407407407407408,0,0,0.07407407407407408,22.222222222222225,0)" xlink:href="#p"/><use transform="matrix(0.07407407407407408,0,0,0.07407407407407408,37.03703703703704,0)" xlink:href="#r"/></g><path d="M87 75C49 33 22-17 22-94c0-76 28-126 65-167h31c-38 41-64 92-64 168S80 34 118 75H87" id="s"/><path d="M33 0v-38h34V0H33" id="t"/><g id="c"><use transform="matrix(0.07407407407407408,0,0,0.07407407407407408,0,0)" xlink:href="#s"/><use transform="matrix(0.07407407407407408,0,0,0.07407407407407408,8.814814814814817,0)" xlink:href="#k"/><use transform="matrix(0.07407407407407408,0,0,0.07407407407407408,22.148148148148152,0)" xlink:href="#l"/><use transform="matrix(0.07407407407407408,0,0,0.07407407407407408,36.96296296296297,0)" xlink:href="#t"/></g><path d="M33-261c38 41 65 92 65 168S71 34 33 75H2C39 34 66-17 66-93S39-220 2-261h31" id="u"/><g id="d"><use transform="matrix(0.07407407407407408,0,0,0.07407407407407408,0,0)" xlink:href="#q"/><use transform="matrix(0.07407407407407408,0,0,0.07407407407407408,7.407407407407408,0)" xlink:href="#r"/><use transform="matrix(0.07407407407407408,0,0,0.07407407407407408,14.814814814814817,0)" xlink:href="#t"/><use transform="matrix(0.07407407407407408,0,0,0.07407407407407408,22.222222222222225,0)" xlink:href="#u"/></g><path d="M115-194c55 1 70 41 70 98S169 2 115 4C84 4 66-9 55-30l1 105H24l-1-265h31l2 30c10-21 28-34 59-34zm-8 174c40 0 45-34 45-75s-6-73-45-74c-42 0-51 32-51 76 0 43 10 73 51 73" id="v"/><path d="M24-231v-30h32v30H24zM24 0v-190h32V0H24" id="w"/><path d="M96-169c-40 0-48 33-48 73s9 75 48 75c24 0 41-14 43-38l32 2c-6 37-31 61-74 61-59 0-76-41-82-99-10-93 101-131 147-64 4 7 5 14 7 22l-32 3c-4-21-16-35-41-35" id="x"/><g id="e"><use transform="matrix(0.07407407407407408,0,0,0.07407407407407408,0,0)" xlink:href="#v"/><use transform="matrix(0.07407407407407408,0,0,0.07407407407407408,14.814814814814817,0)" xlink:href="#o"/><use transform="matrix(0.07407407407407408,0,0,0.07407407407407408,23.629629629629633,0)" xlink:href="#w"/><use transform="matrix(0.07407407407407408,0,0,0.07407407407407408,29.481481481481488,0)" xlink:href="#x"/><use transform="matrix(0.07407407407407408,0,0,0.07407407407407408,42.814814814814824,0)" xlink:href="#p"/></g><path d="M194-70c0 46-34 64-81 66v29H91V-4C42-5 12-27 4-67l30-6c5 28 25 41 57 43v-87c-38-9-76-20-76-67 1-42 33-58 76-59v-23h22v23c45 0 67 20 76 56l-31 6c-5-23-18-35-45-37v78c41 10 81 20 81 70zm-81 41c51 7 71-66 19-77-6-2-12-4-19-6v83zM91-219c-47-6-63 57-18 69 6 2 12 3 18 5v-74" id="y"/><g id="f"><use transform="matrix(0.07407407407407408,0,0,0.07407407407407408,0,0)" xlink:href="#s"/><use transform="matrix(0.07407407407407408,0,0,0.07407407407407408,8.814814814814817,0)" xlink:href="#y"/><use transform="matrix(0.07407407407407408,0,0,0.07407407407407408,23.629629629629633,0)" xlink:href="#u"/></g><path d="M137-103V0h-34v-103L8-248h37l75 118 75-118h37" id="z"/><use transform="matrix(0.07407407407407408,0,0,0.07407407407407408,0,0)" xlink:href="#z" id="g"/><path d="M195 0l-74-108L45 0H8l94-129-87-119h37l69 98 67-98h37l-84 118L233 0h-38" id="A"/><use transform="matrix(0.07407407407407408,0,0,0.07407407407407408,0,0)" xlink:href="#A" id="h"/><path d="M85-194c31 0 48 13 60 33l-1-100h32l1 261h-30c-2-10 0-23-3-31C134-8 116 4 85 4 32 4 16-35 15-94c0-66 23-100 70-100zm9 24c-40 0-46 34-46 75 0 40 6 74 45 74 42 0 51-32 51-76 0-42-9-74-50-73" id="B"/><path d="M117-194c89-4 53 116 60 194h-32v-121c0-31-8-49-39-48C34-167 62-67 57 0H25l-1-190h30c1 10-1 24 2 32 11-22 29-35 61-36" id="C"/><g id="i"><use transform="matrix(0.06172839506172839,0,0,0.06172839506172839,0,0)" xlink:href="#B"/><use transform="matrix(0.06172839506172839,0,0,0.06172839506172839,12.345679012345679,0)" xlink:href="#w"/><use transform="matrix(0.06172839506172839,0,0,0.06172839506172839,17.22222222222222,0)" xlink:href="#q"/><use transform="matrix(0.06172839506172839,0,0,0.06172839506172839,22.962962962962962,0)" xlink:href="#q"/><use transform="matrix(0.06172839506172839,0,0,0.06172839506172839,29.1358024691358,0)" xlink:href="#p"/><use transform="matrix(0.06172839506172839,0,0,0.06172839506172839,41.48148148148148,0)" xlink:href="#o"/><use transform="matrix(0.06172839506172839,0,0,0.06172839506172839,48.82716049382716,0)" xlink:href="#p"/><use transform="matrix(0.06172839506172839,0,0,0.06172839506172839,61.172839506172835,0)" xlink:href="#C"/><use transform="matrix(0.06172839506172839,0,0,0.06172839506172839,73.51851851851852,0)" xlink:href="#r"/></g><path d="M210-169c-67 3-38 105-44 169h-31v-121c0-29-5-50-35-48C34-165 62-65 56 0H25l-1-190h30c1 10-1 24 2 32 10-44 99-50 107 0 11-21 27-35 58-36 85-2 47 119 55 194h-31v-121c0-29-5-49-35-48" id="D"/><g id="j"><use transform="matrix(0.06172839506172839,0,0,0.06172839506172839,0,0)" xlink:href="#v"/><use transform="matrix(0.06172839506172839,0,0,0.06172839506172839,12.345679012345679,0)" xlink:href="#n"/><use transform="matrix(0.06172839506172839,0,0,0.06172839506172839,24.691358024691358,0)" xlink:href="#o"/><use transform="matrix(0.06172839506172839,0,0,0.06172839506172839,32.03703703703704,0)" xlink:href="#n"/><use transform="matrix(0.06172839506172839,0,0,0.06172839506172839,44.382716049382715,0)" xlink:href="#D"/><use transform="matrix(0.06172839506172839,0,0,0.06172839506172839,62.839506172839506,0)" xlink:href="#p"/><use transform="matrix(0.06172839506172839,0,0,0.06172839506172839,75.18518518518519,0)" xlink:href="#r"/><use transform="matrix(0.06172839506172839,0,0,0.06172839506172839,81.35802469135803,0)" xlink:href="#p"/><use transform="matrix(0.06172839506172839,0,0,0.06172839506172839,93.70370370370371,0)" xlink:href="#o"/><use transform="matrix(0.06172839506172839,0,0,0.06172839506172839,101.0493827160494,0)" xlink:href="#k"/></g></defs></g></svg>