<svg xmlns="http://www.w3.org/2000/svg" xmlns:xlink="http://www.w3.org/1999/xlink" xmlns:lucid="lucid" width="1340.2" height="931"><g transform="translate(-140 -129)" lucid:page-tab-id="Q0sw8jY0RZ5U"><path d="M240 959V178.5M240 958.97V960" stroke="#000" stroke-width="2" fill="none"/><path d="M240 163.24l4.64 14.26h-9.28z" stroke="#000" stroke-width="2"/><path d="M241 960h780.5M241.03 960H240" stroke="#000" stroke-width="2" fill="none"/><path d="M1036.76 960l-14.26 4.64v-9.28z" stroke="#000" stroke-width="2"/><path d="M480 980h320v60H480z" stroke="#000" stroke-opacity="0" stroke-width="2" fill="#fff" fill-opacity="0"/><use xlink:href="#a" transform="matrix(1,0,0,1,485,985) translate(43.25925925925925 30.708333333333336)"/><use xlink:href="#b" transform="matrix(1,0,0,1,485,985) translate(132.07407407407408 30.708333333333336)"/><use xlink:href="#c" transform="matrix(1,0,0,1,485,985) translate(183.92592592592592 30.708333333333336)"/><use xlink:href="#d" transform="matrix(1,0,0,1,485,985) translate(235.7037037037037 30.708333333333336)"/><path d="M300 710c0 5.52-4.48 10-10 10s-10-4.48-10-10 4.48-10 10-10 10 4.48 10 10z" stroke="#000" stroke-width="2" fill="#c1e4f7"/><path d="M160 720V400h60v320z" stroke="#000" stroke-opacity="0" stroke-width="2" fill="#fff" fill-opacity="0"/><use xlink:href="#e" transform="matrix(6.123233995736766e-17,-1,1,6.123233995736766e-17,165,715) translate(106.25925925925925 30.708333333333336)"/><use xlink:href="#f" transform="matrix(6.123233995736766e-17,-1,1,6.123233995736766e-17,165,715) translate(171.2962962962963 30.708333333333336)"/><path d="M360 750c0 5.52-4.48 10-10 10s-10-4.48-10-10 4.48-10 10-10 10 4.48 10 10zM440 730c0 5.52-4.48 10-10 10s-10-4.48-10-10 4.48-10 10-10 10 4.48 10 10zM480 790c0 5.52-4.48 10-10 10s-10-4.48-10-10 4.48-10 10-10 10 4.48 10 10z" stroke="#000" stroke-width="2" fill="#c1e4f7"/><path d="M160 160h80v80h-80z" stroke="#000" stroke-opacity="0" stroke-width="2" fill="#fff" fill-opacity="0"/><use xlink:href="#g" transform="matrix(1,0,0,1,165,165) translate(26.11111111111111 41.020833333333336)"/><path d="M960 960h80v80h-80z" stroke="#000" stroke-opacity="0" stroke-width="2" fill="#fff" fill-opacity="0"/><use xlink:href="#h" transform="matrix(1,0,0,1,965,965) translate(26.11111111111111 41.020833333333336)"/><path d="M560 550c0 5.52-4.48 10-10 10s-10-4.48-10-10 4.48-10 10-10 10 4.48 10 10zM580 610c0 5.52-4.48 10-10 10s-10-4.48-10-10 4.48-10 10-10 10 4.48 10 10zM600 650c0 5.52-4.48 10-10 10s-10-4.48-10-10 4.48-10 10-10 10 4.48 10 10zM640 590c0 5.52-4.48 10-10 10s-10-4.48-10-10 4.48-10 10-10 10 4.48 10 10zM680 570c0 5.52-4.48 10-10 10s-10-4.48-10-10 4.48-10 10-10 10 4.48 10 10zM780 410c0 5.52-4.48 10-10 10s-10-4.48-10-10 4.48-10 10-10 10 4.48 10 10zM820 450c0 5.52-4.48 10-10 10s-10-4.48-10-10 4.48-10 10-10 10 4.48 10 10zM880 330c0 5.52-4.48 10-10 10s-10-4.48-10-10 4.48-10 10-10 10 4.48 10 10zM940 430c0 5.52-4.48 10-10 10s-10-4.48-10-10 4.48-10 10-10 10 4.48 10 10zM1020 690c0 5.52-4.48 10-10 10s-10-4.48-10-10 4.48-10 10-10 10 4.48 10 10z" stroke="#000" stroke-width="2" fill="#c1e4f7"/><path d="M241.93 918.4l796.14-656.8M241.98 918.37L240 920M1038.02 261.63L1040 260" stroke="#c7e8ac" stroke-width="5" fill="none"/><path d="M320 160h400v80H320z" stroke="#000" stroke-opacity="0" stroke-width="2" fill="#fff" fill-opacity="0"/><use xlink:href="#i" transform="matrix(1,0,0,1,325,165) translate(44.074074074074076 41.020833333333336)"/><use xlink:href="#j" transform="matrix(1,0,0,1,325,165) translate(80.96296296296296 41.020833333333336)"/><use xlink:href="#k" transform="matrix(1,0,0,1,325,165) translate(103.18518518518519 41.020833333333336)"/><use xlink:href="#l" transform="matrix(1,0,0,1,325,165) translate(151.92592592592592 41.020833333333336)"/><use xlink:href="#m" transform="matrix(1,0,0,1,325,165) translate(249.62962962962965 41.020833333333336)"/><use xlink:href="#n" transform="matrix(1,0,0,1,325,165) translate(294.0740740740741 41.020833333333336)"/><path d="M1159.3 439.3l-126.22-126.22M1159.27 439.27l.73.73" stroke="#000" stroke-width="2" fill="none"/><path d="M1022.3 302.3l13.35 6.8-6.55 6.55z" stroke="#000" stroke-width="2"/><path d="M1120 460h320v43.6h-320z" fill="#fff" fill-opacity="0"/><path d="M1128.9 472.66h4.4c1.05-3.36 1.85-5.97 3.42-8.2 1.42-2.04 3.37-3.65 6.26-3.65 2.32 0 4.08 1.24 4.08 2.95 0 1.04-.9 2.04-2 2.04-.85 0-1.75-.72-1.75-1.86 0-.8.5-1.05.5-1.47 0-.38-.4-.62-1.06-.62-2.65 0-4.4 3.32-5.78 10.8h5.07l-.28 1.53h-5.13l-3.4 15.18c-2 8.77-5.18 13.42-9.5 13.42-2.13 0-3.74-1.23-3.74-2.9 0-1.08.8-1.98 1.8-1.98 1.1 0 1.8.76 1.8 1.75 0 .62-.43.86-.43 1.38 0 .42.38.76.95.76 2 0 3.5-2.57 4.6-7.7l4.18-19.92h-4.32M1161.48 500.6l-.57.76c-7.5-4.27-11.56-12.28-11.56-20.35 0-8.76 4.12-15.6 11.7-20.1l.44.76c-6.6 5.65-8.07 10.06-8.07 19.2 0 8.83 1.44 14.2 8.08 19.74M1174.43 476.13l.56 2.7c3.3-5.07 5.07-6.78 7.16-6.78 1.14 0 1.94.7 1.94 1.75 0 1-.66 1.7-1.6 1.7-.9 0-1.34-.8-2.48-.8-.85 0-2.56 2.1-4.65 5.74 0 .34.1 1 .38 2.14l1.52 6.35c.33 1.33.76 1.95 1.42 1.95.6 0 1.13-.48 2.22-1.9.43-.57.62-.85 1-1.33l.7.43c-2.74 4.27-3.97 5.4-5.78 5.4-1.5 0-2.22-.85-2.8-3.22l-1.37-5.64-4.17 5.64c-2.1 2.8-3.04 3.23-4.5 3.23-1.48 0-2.38-.77-2.38-2 0-.95.66-1.7 1.6-1.7.44 0 .9.18 1.53.5.47.3.95.44 1.23.44.52 0 1.43-.9 2.42-2.33l3.9-5.5-1.34-5.87c-.66-2.85-1-3.23-2.18-3.23-.38 0-.95.1-1.85.34l-.85.23-.14-.76.52-.18c2.9-1.04 4.46-1.37 5.55-1.37 1.2 0 1.76.85 2.43 4.08M1185.48 461.66l.57-.76c7.25 4.37 11.57 12.3 11.57 20.35 0 8.77-4.17 15.5-11.72 20.1l-.42-.75c6.73-5.55 8.06-10 8.06-19.2 0-8.88-1.2-14.33-8.06-19.74M1243.3 477.8h-27.94v-3.14h27.93v3.13m0 9.47h-27.94v-3.13h27.93v3.13M1277.92 472.76l1.52 16.7c6.2-7.78 7.82-10.3 7.82-12.34 0-.57-.28-.95-1.04-1.66-.76-.7-1-1.28-1-1.94 0-.76.8-1.47 1.85-1.47 1.42 0 2.47 1.14 2.47 2.65 0 3.04-3.5 8.6-10.06 16.56l-.42.52c-1.28 1.56-1.7 2.04-2.14 2.04-.33 0-.43-.43-.52-1.66l-1.38-14.7-4.22 7.2c-.85 1.43-1.7 3-2.6 4.7-1.7 3.27-2.52 4.46-3.04 4.46-.43 0-.52-.38-.62-2.23l-.2-4.33c-.18-4.12-.7-9.2-1.27-11.47-.42-1.76-.85-2-2.23-2h-1.33v-.6c1.5-.25 3.1-.44 4.52-.82.62-.14 1.04-.33 1.38-.33.52 0 .57.1.9 1.6.66 3.24 1.33 9.16 1.5 13.34l9.12-14.43c.24-.38.38-.47.62-.47.28 0 .38.14.38.66M1306.4 489.04c0 5.77-2.12 11.54-7.6 11.54-5.72 0-7.57-6.24-7.57-11.74 0-5.94 2.32-11.4 7.72-11.4 4.4 0 7.44 4.73 7.44 11.6m-3.23.17c0-6.97-1.47-10.9-4.42-10.9-2.8 0-4.3 3.97-4.3 10.77 0 6.8 1.48 10.64 4.36 10.64 2.86 0 4.37-3.85 4.37-10.5M1352.67 482.53h-12.38v12.38h-3.14v-12.37h-12.38v-3.13h12.38v-12.38h3.13v12.38h12.37v3.13M1384.68 472.76l1.52 16.7c6.2-7.78 7.83-10.3 7.83-12.34 0-.57-.3-.95-1.05-1.66-.76-.7-1-1.28-1-1.94 0-.76.8-1.47 1.86-1.47 1.42 0 2.46 1.14 2.46 2.65 0 3.04-3.5 8.6-10.05 16.56l-.43.52c-1.28 1.56-1.7 2.04-2.13 2.04-.35 0-.44-.43-.54-1.66l-1.37-14.7-4.23 7.2c-.86 1.43-1.7 3-2.6 4.7-1.72 3.27-2.52 4.46-3.05 4.46-.42 0-.52-.38-.6-2.23l-.2-4.33c-.2-4.12-.7-9.2-1.28-11.47-.43-1.76-.86-2-2.23-2h-1.32v-.6c1.47-.25 3.08-.44 4.5-.82.62-.14 1.05-.33 1.38-.33.52 0 .57.1.9 1.6.67 3.24 1.33 9.16 1.52 13.34l9.1-14.43c.24-.38.4-.47.62-.47.3 0 .38.14.38.66M1410.4 500.1h-9.25v-.5c2.48-.13 3.2-.83 3.2-2.68v-15.06c0-1.14-.3-1.64-1.02-1.64-.33 0-.9.17-1.5.4l-.9.34v-.47l6-3.06.3.1v20.02c0 1.44.66 2.05 3.18 2.05v.5M1430.26 476.13l.57 2.7c3.32-5.07 5.08-6.78 7.16-6.78 1.13 0 1.94.7 1.94 1.75 0 1-.67 1.7-1.6 1.7-.92 0-1.34-.8-2.48-.8-.86 0-2.56 2.1-4.65 5.74 0 .34.1 1 .4 2.14l1.5 6.35c.34 1.33.77 1.95 1.43 1.95.62 0 1.14-.48 2.23-1.9.43-.57.62-.85 1-1.33l.7.43c-2.74 4.27-3.98 5.4-5.78 5.4-1.52 0-2.23-.85-2.8-3.22l-1.37-5.64-4.17 5.64c-2.08 2.8-3.03 3.23-4.5 3.23-1.47 0-2.37-.77-2.37-2 0-.95.66-1.7 1.6-1.7.44 0 .9.18 1.53.5.46.3.93.44 1.22.44.52 0 1.42-.9 2.42-2.33l3.9-5.5-1.34-5.87c-.66-2.85-1-3.23-2.18-3.23-.38 0-.95.1-1.85.34l-.86.23-.13-.76.52-.18c2.9-1.04 4.45-1.37 5.54-1.37 1.2 0 1.76.85 2.42 4.08"/><path d="M1280 599v-60.5M1280 598.97V600" stroke="#000" stroke-width="2" fill="none"/><path d="M1280 523.24l4.64 14.26h-9.28z" stroke="#000" stroke-width="2"/><path d="M1380 599v-60.5M1380 598.97V600" stroke="#000" stroke-width="2" fill="none"/><path d="M1380 523.24l4.64 14.26h-9.28z" stroke="#000" stroke-width="2"/><path d="M1220 600h120v43.6h-120z" stroke="#000" stroke-opacity="0" stroke-width="2" fill="#fff" fill-opacity="0"/><use xlink:href="#o" transform="matrix(1,0,0,1,1225,605) translate(20.549999999999997 20.775)"/><path d="M1320 600h120v43.6h-120z" stroke="#000" stroke-opacity="0" stroke-width="2" fill="#fff" fill-opacity="0"/><use xlink:href="#p" transform="matrix(1,0,0,1,1325,605) translate(33.525 20.775)"/><path d="M1200 640h240v43.6h-240z" stroke="#000" stroke-opacity="0" stroke-width="2" fill="#fff" fill-opacity="0"/><use xlink:href="#q" transform="matrix(1,0,0,1,1205,645) translate(18.858024691358025 22.02777777777778)"/><use xlink:href="#r" transform="matrix(1,0,0,1,1205,645) translate(126.08024691358025 22.02777777777778)"/><use xlink:href="#s" transform="matrix(1,0,0,1,1205,645) translate(150.77160493827162 22.02777777777778)"/><path d="M1120 700h340.2v43.6H1120z" fill="#fff" fill-opacity="0"/><path d="M1128.9 712.66h4.4c1.05-3.36 1.85-5.97 3.42-8.2 1.42-2.04 3.37-3.65 6.26-3.65 2.32 0 4.08 1.24 4.08 2.95 0 1.04-.9 2.04-2 2.04-.85 0-1.75-.72-1.75-1.86 0-.8.5-1.05.5-1.47 0-.38-.4-.62-1.06-.62-2.65 0-4.4 3.32-5.78 10.8h5.07l-.28 1.53h-5.13l-3.4 15.18c-2 8.77-5.18 13.42-9.5 13.42-2.13 0-3.74-1.23-3.74-2.9 0-1.08.8-1.98 1.8-1.98 1.1 0 1.8.76 1.8 1.75 0 .62-.43.86-.43 1.38 0 .42.38.76.95.76 2 0 3.5-2.57 4.6-7.7l4.18-19.92h-4.32M1153.64 725.82l1.08 11.8c4.4-5.5 5.53-7.27 5.53-8.7 0-.42-.2-.68-.74-1.2-.52-.5-.7-.9-.7-1.36 0-.54.58-1.04 1.32-1.04 1 0 1.74.8 1.74 1.88 0 2.14-2.48 6.07-7.1 11.7l-.3.37c-.92 1.1-1.22 1.44-1.52 1.44-.23 0-.3-.3-.37-1.16l-.97-10.4-3 5.1c-.6 1-1.2 2.1-1.83 3.32-1.2 2.3-1.78 3.15-2.15 3.15-.3 0-.37-.26-.43-1.56l-.15-3.06c-.13-2.9-.5-6.5-.9-8.1-.3-1.25-.6-1.42-1.58-1.42h-.94v-.44c1.04-.16 2.18-.3 3.2-.57.42-.1.73-.23.96-.23.36 0 .4.07.63 1.14.47 2.28.94 6.47 1.07 9.42l6.44-10.2c.17-.26.27-.33.44-.33.2 0 .26.1.26.47M1181.68 740.6l-.57.76c-7.48-4.27-11.56-12.28-11.56-20.35 0-8.76 4.13-15.6 11.72-20.1l.42.76c-6.6 5.65-8.06 10.06-8.06 19.2 0 8.83 1.42 14.2 8.06 19.74M1194.58 716.13l.57 2.7c3.32-5.07 5.08-6.78 7.16-6.78 1.15 0 1.96.7 1.96 1.75 0 1-.66 1.7-1.6 1.7-.9 0-1.34-.8-2.48-.8-.85 0-2.56 2.1-4.65 5.74 0 .34.1 1 .38 2.14l1.53 6.35c.33 1.33.76 1.95 1.42 1.95.62 0 1.14-.48 2.23-1.9.43-.57.62-.85 1-1.33l.7.43c-2.74 4.27-3.98 5.4-5.78 5.4-1.52 0-2.23-.85-2.8-3.22l-1.37-5.64-4.18 5.64c-2.08 2.8-3.03 3.23-4.5 3.23-1.47 0-2.37-.77-2.37-2 0-.95.66-1.7 1.6-1.7.44 0 .9.18 1.53.5.48.3.96.44 1.24.44.52 0 1.42-.9 2.42-2.33l3.9-5.5-1.34-5.87c-.66-2.85-1-3.23-2.18-3.23-.38 0-.95.1-1.85.34l-.86.23-.15-.76.52-.18c2.9-1.04 4.45-1.37 5.54-1.37 1.2 0 1.76.85 2.42 4.08M1205.68 701.66l.57-.76c7.26 4.37 11.57 12.3 11.57 20.35 0 8.77-4.17 15.5-11.7 20.1l-.44-.75c6.74-5.55 8.06-10 8.06-19.2 0-8.88-1.18-14.33-8.06-19.74M1263.5 717.8h-27.94v-3.14h27.94v3.13m0 9.47h-27.94v-3.13h27.94v3.13M1298.12 712.76l1.52 16.7c6.2-7.78 7.83-10.3 7.83-12.34 0-.57-.3-.95-1.05-1.66-.76-.7-1-1.28-1-1.94 0-.76.8-1.47 1.86-1.47 1.42 0 2.46 1.14 2.46 2.65 0 3.04-3.5 8.6-10.05 16.56l-.44.52c-1.28 1.56-1.7 2.04-2.13 2.04-.34 0-.43-.43-.53-1.66l-1.37-14.7-4.22 7.2c-.85 1.43-1.7 3-2.6 4.7-1.7 3.27-2.5 4.46-3.04 4.46-.42 0-.52-.38-.6-2.23l-.2-4.33c-.2-4.12-.7-9.2-1.28-11.47-.43-1.76-.86-2-2.23-2h-1.33v-.6c1.47-.25 3.08-.44 4.5-.82.62-.14 1.05-.33 1.38-.33.52 0 .57.1.9 1.6.67 3.24 1.33 9.16 1.52 13.34l9.1-14.43c.24-.38.4-.47.62-.47.3 0 .38.14.38.66M1326.6 729.04c0 5.77-2.1 11.54-7.58 11.54-5.74 0-7.58-6.24-7.58-11.74 0-5.94 2.3-11.4 7.7-11.4 4.4 0 7.46 4.73 7.46 11.6m-3.22.17c0-6.97-1.48-10.9-4.43-10.9-2.78 0-4.3 3.97-4.3 10.77 0 6.8 1.48 10.64 4.37 10.64 2.85 0 4.36-3.85 4.36-10.5M1372.87 722.53h-12.38v12.38h-3.14v-12.37h-12.38v-3.13h12.38v-12.38h3.13v12.38h12.37v3.13M1404.9 712.76l1.5 16.7c6.22-7.78 7.83-10.3 7.83-12.34 0-.57-.28-.95-1.04-1.66-.77-.7-1-1.28-1-1.94 0-.76.8-1.47 1.84-1.47 1.42 0 2.47 1.14 2.47 2.65 0 3.04-3.5 8.6-10.05 16.56l-.42.52c-1.3 1.56-1.7 2.04-2.14 2.04-.34 0-.44-.43-.53-1.66l-1.38-14.7-4.23 7.2c-.85 1.43-1.7 3-2.6 4.7-1.7 3.27-2.52 4.46-3.04 4.46-.43 0-.52-.38-.62-2.23l-.18-4.33c-.2-4.12-.7-9.2-1.28-11.47-.43-1.76-.85-2-2.23-2h-1.32v-.6c1.47-.25 3.1-.44 4.5-.82.63-.14 1.05-.33 1.4-.33.5 0 .55.1.9 1.6.65 3.24 1.3 9.16 1.5 13.34l9.1-14.43c.25-.38.4-.47.63-.47.3 0 .4.14.4.66M1430.6 740.1h-9.24v-.5c2.48-.13 3.18-.83 3.18-2.68v-15.06c0-1.14-.3-1.64-1-1.64-.34 0-.9.17-1.5.4l-.92.34v-.47l6-3.06.3.1v20.02c0 1.44.68 2.05 3.2 2.05v.5M1450.47 716.13l.57 2.7c3.32-5.07 5.07-6.78 7.16-6.78 1.14 0 1.94.7 1.94 1.75 0 1-.66 1.7-1.6 1.7-.9 0-1.34-.8-2.48-.8-.85 0-2.56 2.1-4.64 5.74 0 .34.1 1 .38 2.14l1.5 6.35c.34 1.33.77 1.95 1.44 1.95.6 0 1.13-.48 2.22-1.9.43-.57.62-.85 1-1.33l.7.43c-2.74 4.27-3.97 5.4-5.77 5.4-1.53 0-2.24-.85-2.8-3.22l-1.4-5.64-4.16 5.64c-2.1 2.8-3.04 3.23-4.5 3.23-1.48 0-2.38-.77-2.38-2 0-.95.67-1.7 1.6-1.7.44 0 .9.18 1.53.5.47.3.94.44 1.22.44.53 0 1.43-.9 2.42-2.33l3.9-5.5-1.34-5.87c-.66-2.85-1-3.23-2.18-3.23-.38 0-.95.1-1.85.34l-.85.23-.14-.76.52-.18c2.9-1.04 4.46-1.37 5.55-1.37 1.18 0 1.75.85 2.42 4.08"/><path d="M1120 800h280v40h-280z" stroke="#000" stroke-opacity="0" stroke-width="2" fill="#fff" fill-opacity="0"/><use xlink:href="#t" transform="matrix(1,0,0,1,1125,805) translate(7.376543209876544 19.65277777777778)"/><use xlink:href="#u" transform="matrix(1,0,0,1,1125,805) translate(91.26543209876543 19.65277777777778)"/><use xlink:href="#v" transform="matrix(1,0,0,1,1125,805) translate(239.16666666666669 19.65277777777778)"/><path d="M1280 840h160v27.1h-160z" fill="#fff" fill-opacity="0"/><path d="M1292.32 848.16l.97 10.76c4-5 5.04-6.63 5.04-7.95 0-.36-.2-.6-.68-1.07-.5-.46-.64-.82-.64-1.25 0-.5.52-.95 1.2-.95.9 0 1.58.74 1.58 1.7 0 1.97-2.26 5.54-6.48 10.68l-.27.34c-.83 1-1.1 1.3-1.38 1.3-.2 0-.27-.27-.33-1.06l-.9-9.47-2.7 4.63c-.56.92-1.1 1.93-1.7 3.03-1.1 2.1-1.6 2.87-1.94 2.87-.28 0-.34-.25-.4-1.44l-.12-2.8c-.13-2.65-.46-5.92-.83-7.38-.27-1.13-.55-1.3-1.44-1.3h-.84v-.38c.95-.16 1.98-.28 2.9-.52.4-.1.67-.22.9-.22.32 0 .35.06.57 1.04.43 2.08.85 5.9.98 8.6l5.87-9.3c.16-.25.25-.3.4-.3.18 0 .25.08.25.42M1328.35 851.4h-18v-2.02h18v2.02m0 6.1h-18v-2h18v2M1347.6 866.1l-.37.5c-4.83-2.76-7.45-7.93-7.45-13.12 0-5.66 2.65-10.06 7.54-12.96l.28.5c-4.25 3.63-5.2 6.47-5.2 12.37 0 5.67.92 9.12 5.2 12.7M1360.83 848.16l.98 10.76c4-5 5.05-6.63 5.05-7.95 0-.36-.18-.6-.67-1.07-.5-.46-.64-.82-.64-1.25 0-.5.52-.95 1.2-.95.9 0 1.58.74 1.58 1.7 0 1.97-2.26 5.54-6.48 10.68l-.27.34c-.83 1-1.1 1.3-1.38 1.3-.22 0-.28-.27-.35-1.06l-.88-9.47-2.72 4.63c-.55.92-1.1 1.93-1.68 3.03-1.1 2.1-1.62 2.87-1.96 2.87-.26 0-.32-.25-.4-1.44l-.1-2.8c-.13-2.65-.47-5.92-.83-7.38-.28-1.13-.55-1.3-1.44-1.3h-.86v-.38c.95-.16 2-.28 2.9-.52.4-.1.68-.22.9-.22.33 0 .36.06.57 1.04.43 2.08.86 5.9.98 8.6l5.87-9.3c.14-.25.23-.3.4-.3s.23.08.23.42M1379.18 858.65c0 3.72-1.36 7.43-4.88 7.43-3.7 0-4.9-4-4.9-7.56 0-3.82 1.5-7.35 4.98-7.35 2.83 0 4.8 3.05 4.8 7.48m-2.07.1c0-4.5-.95-7-2.85-7-1.8 0-2.76 2.54-2.76 6.92 0 4.4.94 6.85 2.8 6.85 1.83 0 2.8-2.48 2.8-6.76M1385.3 865.5l-.3-.6c1.7-1.12 2.54-2.25 2.54-3.26 0-.22-.18-.4-.43-.4-.23 0-.54.12-.87.12-1.13 0-1.77-.52-1.77-1.56s.73-1.74 1.83-1.74c1.36 0 2.43 1.07 2.43 2.66 0 1.83-1.3 3.76-3.42 4.77M1407.83 848.16l.98 10.76c4.02-5 5.05-6.63 5.05-7.95 0-.36-.18-.6-.67-1.07-.5-.46-.64-.82-.64-1.25 0-.5.52-.95 1.2-.95.9 0 1.58.74 1.58 1.7 0 1.97-2.26 5.54-6.48 10.68l-.27.34c-.83 1-1.1 1.3-1.38 1.3-.22 0-.28-.27-.34-1.06l-.9-9.47-2.7 4.63c-.56.92-1.1 1.93-1.7 3.03-1.1 2.1-1.6 2.87-1.95 2.87-.26 0-.32-.25-.38-1.44l-.13-2.8c-.13-2.65-.46-5.92-.83-7.38-.28-1.13-.55-1.3-1.44-1.3h-.85v-.38c.94-.16 1.98-.28 2.9-.52.4-.1.67-.22.9-.22.32 0 .35.06.57 1.04.42 2.08.85 5.9.97 8.6l5.87-9.3c.15-.25.24-.3.4-.3.17 0 .23.08.23.42M1424.4 865.78h-5.95v-.32c1.6-.1 2.05-.54 2.05-1.73v-9.7c0-.74-.2-1.06-.65-1.06-.22 0-.58.1-.97.26l-.6.2v-.3l3.88-1.96.2.07v12.9c0 .93.43 1.32 2.05 1.32v.32M1430.7 841l.36-.48c4.68 2.8 7.46 7.92 7.46 13.1 0 5.66-2.7 10-7.55 12.97l-.28-.5c4.33-3.58 5.2-6.45 5.2-12.38 0-5.7-.78-9.23-5.2-12.7"/><path d="M1160 799v-20.5M1160 798.97V800" stroke="#000" stroke-width="2" fill="none"/><path d="M1160 763.24l4.64 14.26h-9.28z" stroke="#000" stroke-width="2"/><defs><path d="M135-143c-3-34-86-38-87 0 15 53 115 12 119 90S17 21 10-45l28-5c4 36 97 45 98 0-10-56-113-15-118-90-4-57 82-63 122-42 12 7 21 19 24 35" id="w"/><path d="M145-31C134-9 116 4 85 4 32 4 16-35 15-94c0-59 17-99 70-100 32-1 48 14 60 33 0-11-1-24 2-32h30l-1 268h-32zM93-21c41 0 51-33 51-76s-8-73-50-73c-40 0-46 35-46 75s5 74 45 74" id="x"/><path d="M84 4C-5 8 30-112 23-190h32v120c0 31 7 50 39 49 72-2 45-101 50-169h31l1 190h-30c-1-10 1-25-2-33-11 22-28 36-60 37" id="y"/><path d="M141-36C126-15 110 5 73 4 37 3 15-17 15-53c-1-64 63-63 125-63 3-35-9-54-41-54-24 1-41 7-42 31l-33-3c5-37 33-52 76-52 45 0 72 20 72 64v82c-1 20 7 32 28 27v20c-31 9-61-2-59-35zM48-53c0 20 12 33 32 33 41-3 63-29 60-74-43 2-92-5-92 41" id="z"/><path d="M114-163C36-179 61-72 57 0H25l-1-190h30c1 12-1 29 2 39 6-27 23-49 58-41v29" id="A"/><path d="M100-194c63 0 86 42 84 106H49c0 40 14 67 53 68 26 1 43-12 49-29l28 8c-11 28-37 45-77 45C44 4 14-33 15-96c1-61 26-98 85-98zm52 81c6-60-76-77-97-28-3 7-6 17-6 28h103" id="B"/><g id="a"><use transform="matrix(0.07407407407407408,0,0,0.07407407407407408,0,0)" xlink:href="#w"/><use transform="matrix(0.07407407407407408,0,0,0.07407407407407408,13.333333333333336,0)" xlink:href="#x"/><use transform="matrix(0.07407407407407408,0,0,0.07407407407407408,28.148148148148152,0)" xlink:href="#y"/><use transform="matrix(0.07407407407407408,0,0,0.07407407407407408,42.96296296296297,0)" xlink:href="#z"/><use transform="matrix(0.07407407407407408,0,0,0.07407407407407408,57.777777777777786,0)" xlink:href="#A"/><use transform="matrix(0.07407407407407408,0,0,0.07407407407407408,66.59259259259261,0)" xlink:href="#B"/></g><path d="M101-234c-31-9-42 10-38 44h38v23H63V0H32v-167H5v-23h27c-7-52 17-82 69-68v24" id="C"/><path d="M59-47c-2 24 18 29 38 22v24C64 9 27 4 27-40v-127H5v-23h24l9-43h21v43h35v23H59v120" id="D"/><g id="b"><use transform="matrix(0.07407407407407408,0,0,0.07407407407407408,0,0)" xlink:href="#C"/><use transform="matrix(0.07407407407407408,0,0,0.07407407407407408,7.407407407407408,0)" xlink:href="#B"/><use transform="matrix(0.07407407407407408,0,0,0.07407407407407408,22.222222222222225,0)" xlink:href="#B"/><use transform="matrix(0.07407407407407408,0,0,0.07407407407407408,37.03703703703704,0)" xlink:href="#D"/></g><path d="M87 75C49 33 22-17 22-94c0-76 28-126 65-167h31c-38 41-64 92-64 168S80 34 118 75H87" id="E"/><path d="M33 0v-38h34V0H33" id="F"/><g id="c"><use transform="matrix(0.07407407407407408,0,0,0.07407407407407408,0,0)" xlink:href="#E"/><use transform="matrix(0.07407407407407408,0,0,0.07407407407407408,8.814814814814817,0)" xlink:href="#w"/><use transform="matrix(0.07407407407407408,0,0,0.07407407407407408,22.148148148148152,0)" xlink:href="#x"/><use transform="matrix(0.07407407407407408,0,0,0.07407407407407408,36.96296296296297,0)" xlink:href="#F"/></g><path d="M33-261c38 41 65 92 65 168S71 34 33 75H2C39 34 66-17 66-93S39-220 2-261h31" id="G"/><g id="d"><use transform="matrix(0.07407407407407408,0,0,0.07407407407407408,0,0)" xlink:href="#C"/><use transform="matrix(0.07407407407407408,0,0,0.07407407407407408,7.407407407407408,0)" xlink:href="#D"/><use transform="matrix(0.07407407407407408,0,0,0.07407407407407408,14.814814814814817,0)" xlink:href="#F"/><use transform="matrix(0.07407407407407408,0,0,0.07407407407407408,22.222222222222225,0)" xlink:href="#G"/></g><path d="M115-194c55 1 70 41 70 98S169 2 115 4C84 4 66-9 55-30l1 105H24l-1-265h31l2 30c10-21 28-34 59-34zm-8 174c40 0 45-34 45-75s-6-73-45-74c-42 0-51 32-51 76 0 43 10 73 51 73" id="H"/><path d="M24-231v-30h32v30H24zM24 0v-190h32V0H24" id="I"/><path d="M96-169c-40 0-48 33-48 73s9 75 48 75c24 0 41-14 43-38l32 2c-6 37-31 61-74 61-59 0-76-41-82-99-10-93 101-131 147-64 4 7 5 14 7 22l-32 3c-4-21-16-35-41-35" id="J"/><g id="e"><use transform="matrix(0.07407407407407408,0,0,0.07407407407407408,0,0)" xlink:href="#H"/><use transform="matrix(0.07407407407407408,0,0,0.07407407407407408,14.814814814814817,0)" xlink:href="#A"/><use transform="matrix(0.07407407407407408,0,0,0.07407407407407408,23.629629629629633,0)" xlink:href="#I"/><use transform="matrix(0.07407407407407408,0,0,0.07407407407407408,29.481481481481488,0)" xlink:href="#J"/><use transform="matrix(0.07407407407407408,0,0,0.07407407407407408,42.814814814814824,0)" xlink:href="#B"/></g><path d="M194-70c0 46-34 64-81 66v29H91V-4C42-5 12-27 4-67l30-6c5 28 25 41 57 43v-87c-38-9-76-20-76-67 1-42 33-58 76-59v-23h22v23c45 0 67 20 76 56l-31 6c-5-23-18-35-45-37v78c41 10 81 20 81 70zm-81 41c51 7 71-66 19-77-6-2-12-4-19-6v83zM91-219c-47-6-63 57-18 69 6 2 12 3 18 5v-74" id="K"/><g id="f"><use transform="matrix(0.07407407407407408,0,0,0.07407407407407408,0,0)" xlink:href="#E"/><use transform="matrix(0.07407407407407408,0,0,0.07407407407407408,8.814814814814817,0)" xlink:href="#K"/><use transform="matrix(0.07407407407407408,0,0,0.07407407407407408,23.629629629629633,0)" xlink:href="#G"/></g><path d="M137-103V0h-34v-103L8-248h37l75 118 75-118h37" id="L"/><use transform="matrix(0.07407407407407408,0,0,0.07407407407407408,0,0)" xlink:href="#L" id="g"/><path d="M195 0l-74-108L45 0H8l94-129-87-119h37l69 98 67-98h37l-84 118L233 0h-38" id="M"/><use transform="matrix(0.07407407407407408,0,0,0.07407407407407408,0,0)" xlink:href="#M" id="h"/><path d="M63-220v92h138v28H63V0H30v-248h175v28H63" id="N"/><g id="i"><use transform="matrix(0.07407407407407408,0,0,0.07407407407407408,0,0)" xlink:href="#N"/><use transform="matrix(0.07407407407407408,0,0,0.07407407407407408,16.222222222222225,0)" xlink:href="#I"/><use transform="matrix(0.07407407407407408,0,0,0.07407407407407408,22.074074074074076,0)" xlink:href="#D"/></g><use transform="matrix(0.07407407407407408,0,0,0.07407407407407408,0,0)" xlink:href="#z" id="j"/><path d="M24 0v-261h32V0H24" id="O"/><path d="M117-194c89-4 53 116 60 194h-32v-121c0-31-8-49-39-48C34-167 62-67 57 0H25l-1-190h30c1 10-1 24 2 32 11-22 29-35 61-36" id="P"/><g id="k"><use transform="matrix(0.07407407407407408,0,0,0.07407407407407408,0,0)" xlink:href="#O"/><use transform="matrix(0.07407407407407408,0,0,0.07407407407407408,5.851851851851853,0)" xlink:href="#I"/><use transform="matrix(0.07407407407407408,0,0,0.07407407407407408,11.703703703703706,0)" xlink:href="#P"/><use transform="matrix(0.07407407407407408,0,0,0.07407407407407408,26.518518518518523,0)" xlink:href="#B"/></g><path d="M106-169C34-169 62-67 57 0H25v-261h32l-1 103c12-21 28-36 61-36 89 0 53 116 60 194h-32v-121c2-32-8-49-39-48" id="Q"/><path d="M100-194c62-1 85 37 85 99 1 63-27 99-86 99S16-35 15-95c0-66 28-99 85-99zM99-20c44 1 53-31 53-75 0-43-8-75-51-75s-53 32-53 75 10 74 51 75" id="R"/><path d="M177-190C167-65 218 103 67 71c-23-6-38-20-44-43l32-5c15 47 100 32 89-28v-30C133-14 115 1 83 1 29 1 15-40 15-95c0-56 16-97 71-98 29-1 48 16 59 35 1-10 0-23 2-32h30zM94-22c36 0 50-32 50-73 0-42-14-75-50-75-39 0-46 34-46 75s6 73 46 73" id="S"/><g id="l"><use transform="matrix(0.07407407407407408,0,0,0.07407407407407408,0,0)" xlink:href="#D"/><use transform="matrix(0.07407407407407408,0,0,0.07407407407407408,7.407407407407408,0)" xlink:href="#Q"/><use transform="matrix(0.07407407407407408,0,0,0.07407407407407408,22.222222222222225,0)" xlink:href="#A"/><use transform="matrix(0.07407407407407408,0,0,0.07407407407407408,31.03703703703704,0)" xlink:href="#R"/><use transform="matrix(0.07407407407407408,0,0,0.07407407407407408,45.851851851851855,0)" xlink:href="#y"/><use transform="matrix(0.07407407407407408,0,0,0.07407407407407408,60.66666666666667,0)" xlink:href="#S"/><use transform="matrix(0.07407407407407408,0,0,0.07407407407407408,75.4814814814815,0)" xlink:href="#Q"/></g><g id="m"><use transform="matrix(0.07407407407407408,0,0,0.07407407407407408,0,0)" xlink:href="#D"/><use transform="matrix(0.07407407407407408,0,0,0.07407407407407408,7.407407407407408,0)" xlink:href="#Q"/><use transform="matrix(0.07407407407407408,0,0,0.07407407407407408,22.222222222222225,0)" xlink:href="#B"/></g><path d="M85-194c31 0 48 13 60 33l-1-100h32l1 261h-30c-2-10 0-23-3-31C134-8 116 4 85 4 32 4 16-35 15-94c0-66 23-100 70-100zm9 24c-40 0-46 34-46 75 0 40 6 74 45 74 42 0 51-32 51-76 0-42-9-74-50-73" id="T"/><g id="n"><use transform="matrix(0.07407407407407408,0,0,0.07407407407407408,0,0)" xlink:href="#T"/><use transform="matrix(0.07407407407407408,0,0,0.07407407407407408,14.814814814814817,0)" xlink:href="#z"/><use transform="matrix(0.07407407407407408,0,0,0.07407407407407408,29.629629629629633,0)" xlink:href="#D"/><use transform="matrix(0.07407407407407408,0,0,0.07407407407407408,37.03703703703704,0)" xlink:href="#z"/></g><g id="o"><use transform="matrix(0.05,0,0,0.05,0,0)" xlink:href="#I"/><use transform="matrix(0.05,0,0,0.05,3.95,0)" xlink:href="#P"/><use transform="matrix(0.05,0,0,0.05,13.949999999999998,0)" xlink:href="#D"/><use transform="matrix(0.05,0,0,0.05,18.95,0)" xlink:href="#B"/><use transform="matrix(0.05,0,0,0.05,28.950000000000003,0)" xlink:href="#A"/><use transform="matrix(0.05,0,0,0.05,34.9,0)" xlink:href="#J"/><use transform="matrix(0.05,0,0,0.05,43.9,0)" xlink:href="#B"/><use transform="matrix(0.05,0,0,0.05,53.900000000000006,0)" xlink:href="#H"/><use transform="matrix(0.05,0,0,0.05,63.900000000000006,0)" xlink:href="#D"/></g><g id="p"><use transform="matrix(0.05,0,0,0.05,0,0)" xlink:href="#w"/><use transform="matrix(0.05,0,0,0.05,9,0)" xlink:href="#O"/><use transform="matrix(0.05,0,0,0.05,12.949999999999998,0)" xlink:href="#R"/><use transform="matrix(0.05,0,0,0.05,22.95,0)" xlink:href="#H"/><use transform="matrix(0.05,0,0,0.05,32.95,0)" xlink:href="#B"/></g><path d="M210-169c-67 3-38 105-44 169h-31v-121c0-29-5-50-35-48C34-165 62-65 56 0H25l-1-190h30c1 10-1 24 2 32 10-44 99-50 107 0 11-21 27-35 58-36 85-2 47 119 55 194h-31v-121c0-29-5-49-35-48" id="U"/><g id="q"><use transform="matrix(0.06172839506172839,0,0,0.06172839506172839,0,0)" xlink:href="#H"/><use transform="matrix(0.06172839506172839,0,0,0.06172839506172839,12.345679012345679,0)" xlink:href="#z"/><use transform="matrix(0.06172839506172839,0,0,0.06172839506172839,24.691358024691358,0)" xlink:href="#A"/><use transform="matrix(0.06172839506172839,0,0,0.06172839506172839,32.03703703703704,0)" xlink:href="#z"/><use transform="matrix(0.06172839506172839,0,0,0.06172839506172839,44.382716049382715,0)" xlink:href="#U"/><use transform="matrix(0.06172839506172839,0,0,0.06172839506172839,62.839506172839506,0)" xlink:href="#B"/><use transform="matrix(0.06172839506172839,0,0,0.06172839506172839,75.18518518518519,0)" xlink:href="#D"/><use transform="matrix(0.06172839506172839,0,0,0.06172839506172839,81.35802469135803,0)" xlink:href="#B"/><use transform="matrix(0.06172839506172839,0,0,0.06172839506172839,93.70370370370371,0)" xlink:href="#A"/></g><g id="r"><use transform="matrix(0.06172839506172839,0,0,0.06172839506172839,0,0)" xlink:href="#R"/><use transform="matrix(0.06172839506172839,0,0,0.06172839506172839,12.345679012345679,0)" xlink:href="#C"/></g><g id="s"><use transform="matrix(0.06172839506172839,0,0,0.06172839506172839,0,0)" xlink:href="#U"/><use transform="matrix(0.06172839506172839,0,0,0.06172839506172839,18.456790123456788,0)" xlink:href="#R"/><use transform="matrix(0.06172839506172839,0,0,0.06172839506172839,30.80246913580247,0)" xlink:href="#T"/><use transform="matrix(0.06172839506172839,0,0,0.06172839506172839,43.148148148148145,0)" xlink:href="#B"/><use transform="matrix(0.06172839506172839,0,0,0.06172839506172839,55.49382716049382,0)" xlink:href="#O"/></g><g id="t"><use transform="matrix(0.06172839506172839,0,0,0.06172839506172839,0,0)" xlink:href="#C"/><use transform="matrix(0.06172839506172839,0,0,0.06172839506172839,6.172839506172839,0)" xlink:href="#y"/><use transform="matrix(0.06172839506172839,0,0,0.06172839506172839,18.51851851851852,0)" xlink:href="#P"/><use transform="matrix(0.06172839506172839,0,0,0.06172839506172839,30.864197530864196,0)" xlink:href="#J"/><use transform="matrix(0.06172839506172839,0,0,0.06172839506172839,41.9753086419753,0)" xlink:href="#D"/><use transform="matrix(0.06172839506172839,0,0,0.06172839506172839,48.148148148148145,0)" xlink:href="#I"/><use transform="matrix(0.06172839506172839,0,0,0.06172839506172839,53.02469135802469,0)" xlink:href="#R"/><use transform="matrix(0.06172839506172839,0,0,0.06172839506172839,65.37037037037037,0)" xlink:href="#P"/></g><path d="M9 0v-24l116-142H16v-24h144v24L44-24h123V0H9" id="V"/><g id="u"><use transform="matrix(0.06172839506172839,0,0,0.06172839506172839,0,0)" xlink:href="#H"/><use transform="matrix(0.06172839506172839,0,0,0.06172839506172839,12.345679012345679,0)" xlink:href="#z"/><use transform="matrix(0.06172839506172839,0,0,0.06172839506172839,24.691358024691358,0)" xlink:href="#A"/><use transform="matrix(0.06172839506172839,0,0,0.06172839506172839,32.03703703703704,0)" xlink:href="#z"/><use transform="matrix(0.06172839506172839,0,0,0.06172839506172839,44.382716049382715,0)" xlink:href="#U"/><use transform="matrix(0.06172839506172839,0,0,0.06172839506172839,62.839506172839506,0)" xlink:href="#B"/><use transform="matrix(0.06172839506172839,0,0,0.06172839506172839,75.18518518518519,0)" xlink:href="#D"/><use transform="matrix(0.06172839506172839,0,0,0.06172839506172839,81.35802469135803,0)" xlink:href="#B"/><use transform="matrix(0.06172839506172839,0,0,0.06172839506172839,93.70370370370371,0)" xlink:href="#A"/><use transform="matrix(0.06172839506172839,0,0,0.06172839506172839,101.0493827160494,0)" xlink:href="#I"/><use transform="matrix(0.06172839506172839,0,0,0.06172839506172839,105.92592592592594,0)" xlink:href="#V"/><use transform="matrix(0.06172839506172839,0,0,0.06172839506172839,117.03703703703705,0)" xlink:href="#B"/><use transform="matrix(0.06172839506172839,0,0,0.06172839506172839,129.38271604938274,0)" xlink:href="#T"/></g><path d="M115-194c53 0 69 39 70 98 0 66-23 100-70 100C84 3 66-7 56-30L54 0H23l1-261h32v101c10-23 28-34 59-34zm-8 174c40 0 45-34 45-75 0-40-5-75-45-74-42 0-51 32-51 76 0 43 10 73 51 73" id="W"/><path d="M179-190L93 31C79 59 56 82 12 73V49c39 6 53-20 64-50L1-190h34L92-34l54-156h33" id="X"/><g id="v"><use transform="matrix(0.06172839506172839,0,0,0.06172839506172839,0,0)" xlink:href="#W"/><use transform="matrix(0.06172839506172839,0,0,0.06172839506172839,12.345679012345679,0)" xlink:href="#X"/></g></defs></g></svg>