<svg xmlns="http://www.w3.org/2000/svg" xmlns:xlink="http://www.w3.org/1999/xlink" xmlns:lucid="lucid" width="1160" height="951"><g transform="translate(-140 -129)" lucid:page-tab-id="wv8CQhFgPQau"><path d="M240 959V178.5M240 958.97V960" stroke="#000" stroke-width="2" fill="none"/><path d="M240 163.24l4.64 14.26h-9.28z" stroke="#000" stroke-width="2"/><path d="M241 960h780.5M241.03 960H240" stroke="#000" stroke-width="2" fill="none"/><path d="M1036.76 960l-14.26 4.64v-9.28z" stroke="#000" stroke-width="2"/><path d="M480 980h320v60H480z" stroke="#000" stroke-opacity="0" stroke-width="2" fill="#fff" fill-opacity="0"/><use xlink:href="#a" transform="matrix(1,0,0,1,485,985) translate(43.25925925925925 30.708333333333336)"/><use xlink:href="#b" transform="matrix(1,0,0,1,485,985) translate(132.07407407407408 30.708333333333336)"/><use xlink:href="#c" transform="matrix(1,0,0,1,485,985) translate(183.92592592592592 30.708333333333336)"/><use xlink:href="#d" transform="matrix(1,0,0,1,485,985) translate(235.7037037037037 30.708333333333336)"/><path d="M300 710c0 5.52-4.48 10-10 10s-10-4.48-10-10 4.48-10 10-10 10 4.48 10 10z" stroke="#000" stroke-width="2" fill="#c1e4f7"/><path d="M160 720V400h60v320z" stroke="#000" stroke-opacity="0" stroke-width="2" fill="#fff" fill-opacity="0"/><use xlink:href="#e" transform="matrix(6.123233995736766e-17,-1,1,6.123233995736766e-17,165,715) translate(106.25925925925925 30.708333333333336)"/><use xlink:href="#f" transform="matrix(6.123233995736766e-17,-1,1,6.123233995736766e-17,165,715) translate(171.2962962962963 30.708333333333336)"/><path d="M360 750c0 5.52-4.48 10-10 10s-10-4.48-10-10 4.48-10 10-10 10 4.48 10 10zM440 730c0 5.52-4.48 10-10 10s-10-4.48-10-10 4.48-10 10-10 10 4.48 10 10zM480 790c0 5.52-4.48 10-10 10s-10-4.48-10-10 4.48-10 10-10 10 4.48 10 10z" stroke="#000" stroke-width="2" fill="#c1e4f7"/><path d="M160 160h80v80h-80z" stroke="#000" stroke-opacity="0" stroke-width="2" fill="#fff" fill-opacity="0"/><use xlink:href="#g" transform="matrix(1,0,0,1,165,165) translate(26.11111111111111 41.020833333333336)"/><path d="M960 960h80v80h-80z" stroke="#000" stroke-opacity="0" stroke-width="2" fill="#fff" fill-opacity="0"/><use xlink:href="#h" transform="matrix(1,0,0,1,965,965) translate(26.11111111111111 41.020833333333336)"/><path d="M560 550c0 5.52-4.48 10-10 10s-10-4.48-10-10 4.48-10 10-10 10 4.48 10 10zM580 610c0 5.52-4.48 10-10 10s-10-4.48-10-10 4.48-10 10-10 10 4.48 10 10zM600 650c0 5.52-4.48 10-10 10s-10-4.48-10-10 4.48-10 10-10 10 4.48 10 10zM640 590c0 5.52-4.48 10-10 10s-10-4.48-10-10 4.48-10 10-10 10 4.48 10 10zM680 570c0 5.52-4.48 10-10 10s-10-4.48-10-10 4.48-10 10-10 10 4.48 10 10zM780 410c0 5.52-4.48 10-10 10s-10-4.48-10-10 4.48-10 10-10 10 4.48 10 10zM820 450c0 5.52-4.48 10-10 10s-10-4.48-10-10 4.48-10 10-10 10 4.48 10 10zM880 330c0 5.52-4.48 10-10 10s-10-4.48-10-10 4.48-10 10-10 10 4.48 10 10zM940 430c0 5.52-4.48 10-10 10s-10-4.48-10-10 4.48-10 10-10 10 4.48 10 10zM1020 690c0 5.52-4.48 10-10 10s-10-4.48-10-10 4.48-10 10-10 10 4.48 10 10z" stroke="#000" stroke-width="2" fill="#c1e4f7"/><path d="M241.64 918.1l137.02-158.25 72.53-76.7 67.4-65.24L560 580l14.98-13 17.3-13.8 19.8-14.48 22.6-15.1 25.6-15.6 28.85-15.97 32.32-16.16 36.03-16.18 40-15.97 44.2-15.54 48.75-14.86L944 399.42l58.72-12.67 34.82-6.3M241.68 918.06L240 920M1037.48 380.46l2.52-.46" stroke="#c7e8ac" stroke-width="5" fill="none"/><path d="M840.7 516.63l63.55-63.55M840.73 516.6l-.73.73" stroke="#000" stroke-width="2" fill="none"/><path d="M915.05 442.3l-6.8 13.35-6.57-6.55z" stroke="#000" stroke-width="2"/><path d="M800.46 533.02h39.05c10.25 0 10.25 0 10.25 10.24v39.06c0 10.24 0 10.24-10.24 10.24h-39.04c-10.24 0-10.24 0-10.24-10.24v-39.06c0-10.24 0-10.24 10.24-10.24z" fill="#6e163e"/><path d="M800.46 530.23h39.05c10.25 0 10.25 0 10.25 10.24v39.06c0 10.25 0 10.25-10.24 10.25h-39.04c-10.24 0-10.24 0-10.24-10.25v-39.06c0-10.24 0-10.24 10.24-10.24z" fill="#834187"/><path d="M831.22 520h4.5v15.34h-4.5V520zM804.26 520h4.5v15.34h-4.5V520zM824.5 520h4.48v15.34h-4.5V520zM811 520h4.5v15.34H811V520zM817.74 520h4.5v15.34h-4.5V520zM780 571.23h20.33v4.5H780v-4.5zM780 551h20.33v4.5H780V551zM780 564.5h20.33v4.48H780v-4.5zM780 557.75h20.33v4.5H780v-4.5zM780 544.26h20.33v4.5H780v-4.5zM804.26 582.34h4.5V600h-4.5v-17.66zM831.22 582.34h4.5V600h-4.5v-17.66zM811 582.34h4.5V600H811v-17.66zM824.5 582.34h4.48V600h-4.5v-17.66zM817.74 582.34h4.5V600h-4.5v-17.66zM842.1 564.5H860v4.48h-17.9v-4.5zM842.1 544.26H860v4.5h-17.9v-4.5zM842.1 557.75H860v4.5h-17.9v-4.5zM842.1 551H860v4.5h-17.9V551zM842.1 571.23H860v4.5h-17.9v-4.5z" fill="#834187"/><path d="M802.24 555.12h35.5c1.18 0 1.18 0 1.18 1.16v20.83c0 1.17 0 1.17-1.17 1.17h-35.5c-1.2 0-1.2 0-1.2-1.16V556.3c0-1.16 0-1.16 1.2-1.16z" fill="#fff"/><path d="M817.58 563.62h4.96c.84 0 .84 0 .84.84v11.96c0 .84 0 .84-.84.84h-4.96c-.84 0-.84 0-.84-.84v-11.96c0-.84 0-.84.84-.84zM808 563.62h3.74c.84 0 .84 0 .84.84v4.5c0 .86 0 .86-.84.86H808c-.84 0-.84 0-.84-.85v-4.5c0-.85 0-.85.84-.85zM828.3 563.62h3.73c.84 0 .84 0 .84.84v4.5c0 .86 0 .86-.84.86h-3.74c-.85 0-.85 0-.85-.85v-4.5c0-.85 0-.85.84-.85z" fill="#834187"/><path d="M820 539.88l-25.5 14.7v2.37c0 .62.52 1.13 1.13 1.13h48.7c.62 0 1.13-.5 1.13-1.13v-2.38z" fill="#fff"/><path d="M900.46 993.02h39.05c10.25 0 10.25 0 10.25 10.24v39.06c0 10.24 0 10.24-10.24 10.24h-39.04c-10.24 0-10.24 0-10.24-10.24v-39.06c0-10.24 0-10.24 10.24-10.24z" fill="#b2bd63"/><path d="M900.46 990.23h39.05c10.25 0 10.25 0 10.25 10.24v39.06c0 10.25 0 10.25-10.24 10.25h-39.04c-10.24 0-10.24 0-10.24-10.25v-39.06c0-10.24 0-10.24 10.24-10.24z" fill="#c7e8ac"/><path d="M931.22 980h4.5v15.34h-4.5V980zM904.26 980h4.5v15.34h-4.5V980zM924.5 980h4.48v15.34h-4.5V980zM911 980h4.5v15.34H911V980zM917.74 980h4.5v15.34h-4.5V980zM880 1031.23h20.33v4.5H880v-4.5zM880 1011h20.33v4.5H880v-4.5zM880 1024.5h20.33v4.48H880v-4.5zM880 1017.75h20.33v4.5H880v-4.5zM880 1004.26h20.33v4.5H880v-4.5zM904.26 1042.34h4.5V1060h-4.5v-17.66zM931.22 1042.34h4.5V1060h-4.5v-17.66zM911 1042.34h4.5V1060H911v-17.66zM924.5 1042.34h4.48V1060h-4.5v-17.66zM917.74 1042.34h4.5V1060h-4.5v-17.66zM942.1 1024.5H960v4.48h-17.9v-4.5zM942.1 1004.26H960v4.5h-17.9v-4.5zM942.1 1017.75H960v4.5h-17.9v-4.5zM942.1 1011H960v4.5h-17.9v-4.5zM942.1 1031.23H960v4.5h-17.9v-4.5z" fill="#c7e8ac"/><path d="M902.24 1015.12h35.5c1.18 0 1.18 0 1.18 1.16v20.83c0 1.17 0 1.17-1.17 1.17h-35.5c-1.2 0-1.2 0-1.2-1.16v-20.82c0-1.16 0-1.16 1.2-1.16z" fill="#fff"/><path d="M917.58 1023.62h4.96c.84 0 .84 0 .84.84v11.96c0 .84 0 .84-.84.84h-4.96c-.84 0-.84 0-.84-.84v-11.96c0-.84 0-.84.84-.84zM908 1023.62h3.74c.84 0 .84 0 .84.84v4.5c0 .86 0 .86-.84.86H908c-.84 0-.84 0-.84-.85v-4.5c0-.85 0-.85.84-.85zM928.3 1023.62h3.73c.84 0 .84 0 .84.84v4.5c0 .86 0 .86-.84.86h-3.74c-.85 0-.85 0-.85-.85v-4.5c0-.85 0-.85.84-.85z" fill="#c7e8ac"/><path d="M920 999.88l-25.5 14.7v2.37c0 .62.52 1.13 1.13 1.13h48.7c.62 0 1.13-.5 1.13-1.13v-2.38z" fill="#fff"/><path d="M1040 560h240v74.8h-240z" stroke="#000" stroke-opacity="0" stroke-width="2" fill="#fff" fill-opacity="0"/><g><use xlink:href="#i" transform="matrix(1,0,0,1,1045,565) translate(11.40740740740739 21.333333333333336)"/><use xlink:href="#j" transform="matrix(1,0,0,1,1045,565) translate(73.55555555555554 21.333333333333336)"/><use xlink:href="#k" transform="matrix(1,0,0,1,1045,565) translate(95.77777777777777 21.333333333333336)"/><use xlink:href="#l" transform="matrix(1,0,0,1,1045,565) translate(29.185185185185176 53.333333333333336)"/><use xlink:href="#m" transform="matrix(1,0,0,1,1045,565) translate(77.99999999999999 53.333333333333336)"/><use xlink:href="#n" transform="matrix(1,0,0,1,1045,565) translate(131.25925925925924 53.333333333333336)"/></g><defs><path d="M135-143c-3-34-86-38-87 0 15 53 115 12 119 90S17 21 10-45l28-5c4 36 97 45 98 0-10-56-113-15-118-90-4-57 82-63 122-42 12 7 21 19 24 35" id="o"/><path d="M145-31C134-9 116 4 85 4 32 4 16-35 15-94c0-59 17-99 70-100 32-1 48 14 60 33 0-11-1-24 2-32h30l-1 268h-32zM93-21c41 0 51-33 51-76s-8-73-50-73c-40 0-46 35-46 75s5 74 45 74" id="p"/><path d="M84 4C-5 8 30-112 23-190h32v120c0 31 7 50 39 49 72-2 45-101 50-169h31l1 190h-30c-1-10 1-25-2-33-11 22-28 36-60 37" id="q"/><path d="M141-36C126-15 110 5 73 4 37 3 15-17 15-53c-1-64 63-63 125-63 3-35-9-54-41-54-24 1-41 7-42 31l-33-3c5-37 33-52 76-52 45 0 72 20 72 64v82c-1 20 7 32 28 27v20c-31 9-61-2-59-35zM48-53c0 20 12 33 32 33 41-3 63-29 60-74-43 2-92-5-92 41" id="r"/><path d="M114-163C36-179 61-72 57 0H25l-1-190h30c1 12-1 29 2 39 6-27 23-49 58-41v29" id="s"/><path d="M100-194c63 0 86 42 84 106H49c0 40 14 67 53 68 26 1 43-12 49-29l28 8c-11 28-37 45-77 45C44 4 14-33 15-96c1-61 26-98 85-98zm52 81c6-60-76-77-97-28-3 7-6 17-6 28h103" id="t"/><g id="a"><use transform="matrix(0.07407407407407408,0,0,0.07407407407407408,0,0)" xlink:href="#o"/><use transform="matrix(0.07407407407407408,0,0,0.07407407407407408,13.333333333333336,0)" xlink:href="#p"/><use transform="matrix(0.07407407407407408,0,0,0.07407407407407408,28.148148148148152,0)" xlink:href="#q"/><use transform="matrix(0.07407407407407408,0,0,0.07407407407407408,42.96296296296297,0)" xlink:href="#r"/><use transform="matrix(0.07407407407407408,0,0,0.07407407407407408,57.777777777777786,0)" xlink:href="#s"/><use transform="matrix(0.07407407407407408,0,0,0.07407407407407408,66.59259259259261,0)" xlink:href="#t"/></g><path d="M101-234c-31-9-42 10-38 44h38v23H63V0H32v-167H5v-23h27c-7-52 17-82 69-68v24" id="u"/><path d="M59-47c-2 24 18 29 38 22v24C64 9 27 4 27-40v-127H5v-23h24l9-43h21v43h35v23H59v120" id="v"/><g id="b"><use transform="matrix(0.07407407407407408,0,0,0.07407407407407408,0,0)" xlink:href="#u"/><use transform="matrix(0.07407407407407408,0,0,0.07407407407407408,7.407407407407408,0)" xlink:href="#t"/><use transform="matrix(0.07407407407407408,0,0,0.07407407407407408,22.222222222222225,0)" xlink:href="#t"/><use transform="matrix(0.07407407407407408,0,0,0.07407407407407408,37.03703703703704,0)" xlink:href="#v"/></g><path d="M87 75C49 33 22-17 22-94c0-76 28-126 65-167h31c-38 41-64 92-64 168S80 34 118 75H87" id="w"/><path d="M33 0v-38h34V0H33" id="x"/><g id="c"><use transform="matrix(0.07407407407407408,0,0,0.07407407407407408,0,0)" xlink:href="#w"/><use transform="matrix(0.07407407407407408,0,0,0.07407407407407408,8.814814814814817,0)" xlink:href="#o"/><use transform="matrix(0.07407407407407408,0,0,0.07407407407407408,22.148148148148152,0)" xlink:href="#p"/><use transform="matrix(0.07407407407407408,0,0,0.07407407407407408,36.96296296296297,0)" xlink:href="#x"/></g><path d="M33-261c38 41 65 92 65 168S71 34 33 75H2C39 34 66-17 66-93S39-220 2-261h31" id="y"/><g id="d"><use transform="matrix(0.07407407407407408,0,0,0.07407407407407408,0,0)" xlink:href="#u"/><use transform="matrix(0.07407407407407408,0,0,0.07407407407407408,7.407407407407408,0)" xlink:href="#v"/><use transform="matrix(0.07407407407407408,0,0,0.07407407407407408,14.814814814814817,0)" xlink:href="#x"/><use transform="matrix(0.07407407407407408,0,0,0.07407407407407408,22.222222222222225,0)" xlink:href="#y"/></g><path d="M115-194c55 1 70 41 70 98S169 2 115 4C84 4 66-9 55-30l1 105H24l-1-265h31l2 30c10-21 28-34 59-34zm-8 174c40 0 45-34 45-75s-6-73-45-74c-42 0-51 32-51 76 0 43 10 73 51 73" id="z"/><path d="M24-231v-30h32v30H24zM24 0v-190h32V0H24" id="A"/><path d="M96-169c-40 0-48 33-48 73s9 75 48 75c24 0 41-14 43-38l32 2c-6 37-31 61-74 61-59 0-76-41-82-99-10-93 101-131 147-64 4 7 5 14 7 22l-32 3c-4-21-16-35-41-35" id="B"/><g id="e"><use transform="matrix(0.07407407407407408,0,0,0.07407407407407408,0,0)" xlink:href="#z"/><use transform="matrix(0.07407407407407408,0,0,0.07407407407407408,14.814814814814817,0)" xlink:href="#s"/><use transform="matrix(0.07407407407407408,0,0,0.07407407407407408,23.629629629629633,0)" xlink:href="#A"/><use transform="matrix(0.07407407407407408,0,0,0.07407407407407408,29.481481481481488,0)" xlink:href="#B"/><use transform="matrix(0.07407407407407408,0,0,0.07407407407407408,42.814814814814824,0)" xlink:href="#t"/></g><path d="M194-70c0 46-34 64-81 66v29H91V-4C42-5 12-27 4-67l30-6c5 28 25 41 57 43v-87c-38-9-76-20-76-67 1-42 33-58 76-59v-23h22v23c45 0 67 20 76 56l-31 6c-5-23-18-35-45-37v78c41 10 81 20 81 70zm-81 41c51 7 71-66 19-77-6-2-12-4-19-6v83zM91-219c-47-6-63 57-18 69 6 2 12 3 18 5v-74" id="C"/><g id="f"><use transform="matrix(0.07407407407407408,0,0,0.07407407407407408,0,0)" xlink:href="#w"/><use transform="matrix(0.07407407407407408,0,0,0.07407407407407408,8.814814814814817,0)" xlink:href="#C"/><use transform="matrix(0.07407407407407408,0,0,0.07407407407407408,23.629629629629633,0)" xlink:href="#y"/></g><path d="M137-103V0h-34v-103L8-248h37l75 118 75-118h37" id="D"/><use transform="matrix(0.07407407407407408,0,0,0.07407407407407408,0,0)" xlink:href="#D" id="g"/><path d="M195 0l-74-108L45 0H8l94-129-87-119h37l69 98 67-98h37l-84 118L233 0h-38" id="E"/><use transform="matrix(0.07407407407407408,0,0,0.07407407407407408,0,0)" xlink:href="#E" id="h"/><path d="M140-251c81 0 123 46 123 126C263-46 219 4 140 4 59 4 17-45 17-125s42-126 123-126zm0 227c63 0 89-41 89-101s-29-99-89-99c-61 0-89 39-89 99S79-25 140-24" id="F"/><path d="M117-194c89-4 53 116 60 194h-32v-121c0-31-8-49-39-48C34-167 62-67 57 0H25l-1-190h30c1 10-1 24 2 32 11-22 29-35 61-36" id="G"/><path d="M24 0v-261h32V0H24" id="H"/><path d="M179-190L93 31C79 59 56 82 12 73V49c39 6 53-20 64-50L1-190h34L92-34l54-156h33" id="I"/><g id="i"><use transform="matrix(0.07407407407407408,0,0,0.07407407407407408,0,0)" xlink:href="#F"/><use transform="matrix(0.07407407407407408,0,0,0.07407407407407408,20.740740740740744,0)" xlink:href="#G"/><use transform="matrix(0.07407407407407408,0,0,0.07407407407407408,35.55555555555556,0)" xlink:href="#H"/><use transform="matrix(0.07407407407407408,0,0,0.07407407407407408,41.40740740740741,0)" xlink:href="#I"/></g><path d="M27 0v-27h64v-190l-56 39v-29l58-41h29v221h61V0H27" id="J"/><use transform="matrix(0.07407407407407408,0,0,0.07407407407407408,0,0)" xlink:href="#J" id="j"/><path d="M160-131c35 5 61 23 61 61C221 17 115-2 30 0v-248c76 3 177-17 177 60 0 33-19 50-47 57zm-97-11c50-1 110 9 110-42 0-47-63-36-110-37v79zm0 115c55-2 124 14 124-45 0-56-70-42-124-44v89" id="K"/><path d="M106-169C34-169 62-67 57 0H25v-261h32l-1 103c12-21 28-36 61-36 89 0 53 116 60 194h-32v-121c2-32-8-49-39-48" id="L"/><path d="M100-194c62-1 85 37 85 99 1 63-27 99-86 99S16-35 15-95c0-66 28-99 85-99zM99-20c44 1 53-31 53-75 0-43-8-75-51-75s-53 32-53 75 10 74 51 75" id="M"/><path d="M210-169c-67 3-38 105-44 169h-31v-121c0-29-5-50-35-48C34-165 62-65 56 0H25l-1-190h30c1 10-1 24 2 32 10-44 99-50 107 0 11-21 27-35 58-36 85-2 47 119 55 194h-31v-121c0-29-5-49-35-48" id="N"/><path d="M63-70H37l-4-178h34zM33 0v-35h34V0H33" id="O"/><g id="k"><use transform="matrix(0.07407407407407408,0,0,0.07407407407407408,0,0)" xlink:href="#K"/><use transform="matrix(0.07407407407407408,0,0,0.07407407407407408,17.77777777777778,0)" xlink:href="#r"/><use transform="matrix(0.07407407407407408,0,0,0.07407407407407408,32.592592592592595,0)" xlink:href="#v"/><use transform="matrix(0.07407407407407408,0,0,0.07407407407407408,40,0)" xlink:href="#L"/><use transform="matrix(0.07407407407407408,0,0,0.07407407407407408,54.81481481481482,0)" xlink:href="#s"/><use transform="matrix(0.07407407407407408,0,0,0.07407407407407408,63.629629629629626,0)" xlink:href="#M"/><use transform="matrix(0.07407407407407408,0,0,0.07407407407407408,78.44444444444446,0)" xlink:href="#M"/><use transform="matrix(0.07407407407407408,0,0,0.07407407407407408,93.25925925925927,0)" xlink:href="#N"/><use transform="matrix(0.07407407407407408,0,0,0.07407407407407408,115.40740740740742,0)" xlink:href="#O"/></g><path d="M190 0L58-211 59 0H30v-248h39L202-35l-2-213h31V0h-41" id="P"/><g id="l"><use transform="matrix(0.07407407407407408,0,0,0.07407407407407408,0,0)" xlink:href="#P"/><use transform="matrix(0.07407407407407408,0,0,0.07407407407407408,19.185185185185187,0)" xlink:href="#M"/><use transform="matrix(0.07407407407407408,0,0,0.07407407407407408,34,0)" xlink:href="#v"/></g><path d="M127-220V0H93v-220H8v-28h204v28h-85" id="Q"/><g id="m"><use transform="matrix(0.07407407407407408,0,0,0.07407407407407408,0,0)" xlink:href="#Q"/><use transform="matrix(0.07407407407407408,0,0,0.07407407407407408,16.222222222222225,0)" xlink:href="#L"/><use transform="matrix(0.07407407407407408,0,0,0.07407407407407408,31.03703703703704,0)" xlink:href="#t"/></g><path d="M185-189c-5-48-123-54-124 2 14 75 158 14 163 119 3 78-121 87-175 55-17-10-28-26-33-46l33-7c5 56 141 63 141-1 0-78-155-14-162-118-5-82 145-84 179-34 5 7 8 16 11 25" id="R"/><g id="n"><use transform="matrix(0.07407407407407408,0,0,0.07407407407407408,0,0)" xlink:href="#R"/><use transform="matrix(0.07407407407407408,0,0,0.07407407407407408,17.77777777777778,0)" xlink:href="#r"/><use transform="matrix(0.07407407407407408,0,0,0.07407407407407408,32.592592592592595,0)" xlink:href="#N"/><use transform="matrix(0.07407407407407408,0,0,0.07407407407407408,54.74074074074075,0)" xlink:href="#t"/></g></defs></g></svg>