<svg xmlns="http://www.w3.org/2000/svg" xmlns:xlink="http://www.w3.org/1999/xlink" xmlns:lucid="lucid" width="1462.02" height="931"><g transform="translate(-140 -129)" lucid:page-tab-id="rmOwQ_mvQLgN"><path d="M240 959V178.5M240 958.97V960" stroke="#000" stroke-width="2" fill="none"/><path d="M240 163.24l4.64 14.26h-9.28z" stroke="#000" stroke-width="2"/><path d="M241 960h780.5M241.03 960H240" stroke="#000" stroke-width="2" fill="none"/><path d="M1036.76 960l-14.26 4.64v-9.28z" stroke="#000" stroke-width="2"/><path d="M480 980h320v60H480z" stroke="#000" stroke-opacity="0" stroke-width="2" fill="#fff" fill-opacity="0"/><use xlink:href="#a" transform="matrix(1,0,0,1,485,985) translate(43.25925925925925 30.708333333333336)"/><use xlink:href="#b" transform="matrix(1,0,0,1,485,985) translate(132.07407407407408 30.708333333333336)"/><use xlink:href="#c" transform="matrix(1,0,0,1,485,985) translate(183.92592592592592 30.708333333333336)"/><use xlink:href="#d" transform="matrix(1,0,0,1,485,985) translate(235.7037037037037 30.708333333333336)"/><path d="M300 710c0 5.52-4.48 10-10 10s-10-4.48-10-10 4.48-10 10-10 10 4.48 10 10z" stroke="#000" stroke-width="2" fill="#c1e4f7"/><path d="M160 720V400h60v320z" stroke="#000" stroke-opacity="0" stroke-width="2" fill="#fff" fill-opacity="0"/><use xlink:href="#e" transform="matrix(6.123233995736766e-17,-1,1,6.123233995736766e-17,165,715) translate(106.25925925925925 30.708333333333336)"/><use xlink:href="#f" transform="matrix(6.123233995736766e-17,-1,1,6.123233995736766e-17,165,715) translate(171.2962962962963 30.708333333333336)"/><path d="M360 750c0 5.52-4.48 10-10 10s-10-4.48-10-10 4.48-10 10-10 10 4.48 10 10zM440 730c0 5.52-4.48 10-10 10s-10-4.48-10-10 4.48-10 10-10 10 4.48 10 10zM480 790c0 5.52-4.48 10-10 10s-10-4.48-10-10 4.48-10 10-10 10 4.48 10 10z" stroke="#000" stroke-width="2" fill="#c1e4f7"/><path d="M160 160h80v80h-80z" stroke="#000" stroke-opacity="0" stroke-width="2" fill="#fff" fill-opacity="0"/><use xlink:href="#g" transform="matrix(1,0,0,1,165,165) translate(26.11111111111111 41.020833333333336)"/><path d="M960 960h80v80h-80z" stroke="#000" stroke-opacity="0" stroke-width="2" fill="#fff" fill-opacity="0"/><use xlink:href="#h" transform="matrix(1,0,0,1,965,965) translate(26.11111111111111 41.020833333333336)"/><path d="M560 550c0 5.52-4.48 10-10 10s-10-4.48-10-10 4.48-10 10-10 10 4.48 10 10zM580 610c0 5.52-4.48 10-10 10s-10-4.48-10-10 4.48-10 10-10 10 4.48 10 10zM600 650c0 5.52-4.48 10-10 10s-10-4.48-10-10 4.48-10 10-10 10 4.48 10 10zM640 590c0 5.52-4.48 10-10 10s-10-4.48-10-10 4.48-10 10-10 10 4.48 10 10zM680 570c0 5.52-4.48 10-10 10s-10-4.48-10-10 4.48-10 10-10 10 4.48 10 10zM780 410c0 5.52-4.48 10-10 10s-10-4.48-10-10 4.48-10 10-10 10 4.48 10 10zM820 450c0 5.52-4.48 10-10 10s-10-4.48-10-10 4.48-10 10-10 10 4.48 10 10zM880 330c0 5.52-4.48 10-10 10s-10-4.48-10-10 4.48-10 10-10 10 4.48 10 10zM940 430c0 5.52-4.48 10-10 10s-10-4.48-10-10 4.48-10 10-10 10 4.48 10 10zM1020 690c0 5.52-4.48 10-10 10s-10-4.48-10-10 4.48-10 10-10 10 4.48 10 10z" stroke="#000" stroke-width="2" fill="#c1e4f7"/><path d="M241.93 918.4l796.14-656.8M241.98 918.37L240 920M1038.02 261.63L1040 260" stroke="#c7e8ac" stroke-width="5" fill="none"/><path d="M320 240h364.47v48H320z" fill="#fff" fill-opacity="0"/><path d="M329.53 254.87h4.72c1.12-3.6 1.98-6.4 3.66-8.8 1.54-2.18 3.62-3.9 6.72-3.9 2.5 0 4.37 1.32 4.37 3.15 0 1.1-.98 2.18-2.15 2.18-.9 0-1.88-.76-1.88-1.98 0-.86.5-1.12.5-1.58 0-.4-.4-.66-1.1-.66-2.85 0-4.73 3.56-6.2 11.6h5.43l-.3 1.6h-5.5l-3.65 16.27c-2.13 9.4-5.54 14.38-10.16 14.38-2.3 0-4.03-1.32-4.03-3.1 0-1.16.87-2.13 1.94-2.13 1.17 0 1.94.8 1.94 1.88 0 .66-.46.92-.46 1.47 0 .46.4.82 1.02.82 2.13 0 3.76-2.75 4.92-8.23l4.48-21.35h-4.63M356.05 270.56l1.15 12.65c4.7-5.9 5.93-7.8 5.93-9.34 0-.43-.22-.7-.8-1.25-.57-.53-.75-.96-.75-1.47 0-.57.6-1.1 1.4-1.1 1.08 0 1.87.85 1.87 2 0 2.3-2.66 6.5-7.6 12.54l-.34.4c-.96 1.18-1.28 1.54-1.6 1.54-.26 0-.33-.3-.4-1.25l-1.04-11.13-3.2 5.46c-.65 1.07-1.3 2.26-1.98 3.55-1.3 2.48-1.9 3.38-2.3 3.38-.32 0-.4-.28-.46-1.68l-.15-3.27c-.14-3.12-.54-6.97-.97-8.7-.32-1.32-.64-1.5-1.7-1.5h-1v-.47c1.12-.18 2.34-.32 3.42-.6.47-.12.8-.26 1.04-.26.4 0 .44.07.7 1.22.5 2.44 1 6.94 1.14 10.1l6.9-10.93c.17-.27.28-.34.46-.34.22 0 .3.1.3.5M357.77 265.2h-1.22l-4.38-3.7-4.35 3.7h-1.22l4.46-6h2.22M386.08 284.8l-.6.8c-8.04-4.56-12.4-13.15-12.4-21.8 0-9.4 4.4-16.7 12.54-21.53l.46.8c-7.06 6.06-8.64 10.78-8.64 20.6 0 9.44 1.53 15.18 8.64 21.13M399.9 258.58l.6 2.9c3.57-5.44 5.45-7.27 7.7-7.27 1.2 0 2.07.77 2.07 1.9 0 1.06-.7 1.82-1.73 1.82-.96 0-1.42-.87-2.64-.87-.92 0-2.75 2.24-4.98 6.15 0 .36.1 1.07.4 2.3l1.63 6.8c.36 1.42.8 2.08 1.53 2.08.66 0 1.22-.5 2.38-2.03.46-.6.66-.92 1.07-1.42l.76.45c-2.95 4.58-4.28 5.8-6.2 5.8-1.63 0-2.4-.92-3-3.46l-1.48-6.05-4.47 6.05c-2.23 3-3.25 3.46-4.83 3.46-1.57 0-2.54-.82-2.54-2.14 0-1 .7-1.83 1.73-1.83.47 0 .98.22 1.64.57.5.3 1 .46 1.32.46.56 0 1.52-.97 2.6-2.5l4.16-5.9-1.43-6.3c-.72-3.04-1.07-3.44-2.34-3.44-.4 0-1.02.1-2 .34l-.9.26-.15-.8.57-.22c3.1-1.12 4.77-1.47 5.94-1.47 1.28 0 1.9.92 2.6 4.38M411.8 243.08l.6-.8c7.78 4.66 12.4 13.15 12.4 21.8 0 9.4-4.47 16.6-12.55 21.53l-.46-.8c7.2-5.95 8.63-10.72 8.63-20.58 0-9.5-1.27-15.35-8.64-21.14M473.73 260.36H443.8V257h29.93v3.36m0 10.16H443.8v-3.35h29.93v3.35M510.83 254.97l1.62 17.9c6.66-8.35 8.4-11.04 8.4-13.22 0-.6-.32-1.02-1.13-1.78-.8-.77-1.07-1.38-1.07-2.1 0-.8.87-1.56 1.98-1.56 1.53 0 2.65 1.23 2.65 2.85 0 3.26-3.76 9.2-10.78 17.74l-.45.55c-1.38 1.67-1.83 2.18-2.3 2.18-.35 0-.45-.46-.55-1.78L507.73 260l-4.53 7.72c-.9 1.53-1.82 3.2-2.8 5.03-1.82 3.5-2.68 4.78-3.24 4.78-.46 0-.56-.4-.66-2.4l-.2-4.6c-.2-4.43-.77-9.87-1.38-12.3-.46-1.9-.9-2.14-2.4-2.14h-1.4v-.67c1.57-.26 3.3-.46 4.82-.87.66-.15 1.12-.35 1.47-.35.57 0 .62.1.98 1.74.7 3.45 1.42 9.8 1.62 14.27l9.76-15.43c.25-.4.4-.5.66-.5.3 0 .4.14.4.7M513.27 249.38h-1.73l-6.2-5.23-6.15 5.23h-1.74l6.3-8.48h3.15M541.33 272.4c0 6.2-2.26 12.37-8.12 12.37-6.13 0-8.1-6.68-8.1-12.57 0-6.36 2.47-12.22 8.26-12.22 4.7 0 7.97 5.07 7.97 12.43m-3.45.2c0-7.48-1.58-11.68-4.74-11.68-2.98 0-4.6 4.24-4.6 11.53 0 7.3 1.58 11.4 4.67 11.4 3.07 0 4.68-4.14 4.68-11.26M590.9 265.44h-13.26v13.26h-3.35v-13.26h-13.27v-3.36h13.26v-13.26h3.34v13.26h13.27v3.36M625.2 254.97l1.63 17.9c6.66-8.35 8.4-11.04 8.4-13.22 0-.6-.32-1.02-1.13-1.78-.82-.77-1.07-1.38-1.07-2.1 0-.8.86-1.56 1.98-1.56 1.54 0 2.65 1.23 2.65 2.85 0 3.26-3.76 9.2-10.77 17.74l-.46.55c-1.37 1.67-1.82 2.18-2.28 2.18-.36 0-.46-.46-.56-1.78L622.1 260l-4.52 7.72c-.9 1.53-1.83 3.2-2.8 5.03-1.82 3.5-2.68 4.78-3.24 4.78-.46 0-.56-.4-.66-2.4l-.2-4.6c-.2-4.43-.77-9.87-1.38-12.3-.46-1.9-.9-2.14-2.4-2.14h-1.4v-.67c1.56-.26 3.3-.46 4.82-.87.66-.15 1.1-.35 1.47-.35.55 0 .6.1.96 1.74.7 3.45 1.42 9.8 1.62 14.27l9.76-15.43c.25-.4.4-.5.66-.5.3 0 .4.14.4.7M627.64 249.38h-1.72l-6.2-5.23-6.15 5.23h-1.73l6.3-8.48h3.15M652.77 284.27h-9.92v-.54c2.66-.14 3.4-.9 3.4-2.87v-16.14c0-1.22-.3-1.76-1.07-1.76-.35 0-.97.18-1.6.43l-.98.35v-.5l6.43-3.27.32.1v21.46c0 1.54.72 2.2 3.42 2.2v.53M674.04 258.58l.6 2.9c3.56-5.44 5.44-7.27 7.68-7.27 1.22 0 2.08.77 2.08 1.9 0 1.06-.7 1.82-1.73 1.82-.96 0-1.42-.87-2.64-.87-.9 0-2.74 2.24-4.98 6.15 0 .36.1 1.07.4 2.3l1.63 6.8c.36 1.42.82 2.08 1.53 2.08.67 0 1.23-.5 2.4-2.03.45-.6.66-.92 1.06-1.42l.77.45c-2.95 4.58-4.27 5.8-6.2 5.8-1.63 0-2.4-.92-3-3.46l-1.47-6.05-4.48 6.05c-2.23 3-3.25 3.46-4.82 3.46-1.58 0-2.54-.82-2.54-2.14 0-1 .7-1.83 1.72-1.83.46 0 .97.22 1.63.57.5.3 1.02.46 1.32.46.55 0 1.52-.97 2.58-2.5l4.17-5.9-1.42-6.3c-.7-3.04-1.07-3.44-2.34-3.44-.42 0-1.03.1-2 .34l-.9.26-.16-.8.56-.22c3.1-1.12 4.78-1.47 5.94-1.47 1.27 0 1.88.92 2.6 4.38"/><path d="M580.57 300.82L709.4 484.84M580.6 300.84l-.6-.84" stroke="#000" stroke-width="2" fill="none"/><path d="M718.14 497.35l-11.97-9.03 7.6-5.32z" stroke="#000" stroke-width="2"/><path d="M890 390c0 5.52-4.48 10-10 10s-10-4.48-10-10 4.48-10 10-10 10 4.48 10 10z" stroke="#000" stroke-width="2" fill="#ef8d22"/><path d="M880 402v557" fill="none"/><path d="M880 402v20.64m0 20.63v41.26m0 20.63v41.26m0 20.63v41.25m0 20.63v41.26m0 20.62v41.26m0 20.63v41.27m0 20.63v41.25m0 20.63v41.26m0 20.63V959" stroke="#000" stroke-width="2" fill="none"/><path d="M880 401l1-.15v1.2h-2v-1.2z"/><path d="M880 958.97V960" stroke="#000" stroke-width="2" fill="none"/><path d="M1120 560h360v80h-360z" stroke="#000" stroke-opacity="0" stroke-width="2" fill="#fff" fill-opacity="0"/><use xlink:href="#i" transform="matrix(1,0,0,1,1125,565) translate(18.03703703703701 41.020833333333336)"/><use xlink:href="#j" transform="matrix(1,0,0,1,1125,565) translate(78.77777777777776 41.020833333333336)"/><use xlink:href="#k" transform="matrix(1,0,0,1,1125,565) translate(157.29629629629628 41.020833333333336)"/><use xlink:href="#l" transform="matrix(1,0,0,1,1125,565) translate(186.92592592592592 41.020833333333336)"/><use xlink:href="#m" transform="matrix(1,0,0,1,1125,565) translate(266.9259259259259 41.020833333333336)"/><path d="M1120 640h462.02v48H1120z" fill="#fff" fill-opacity="0"/><path d="M1133.5 667.1l1.08 5.6c4.3-7.16 6.18-10.8 6.18-13.05 0-.7-.35-1-1.3-1.62-1.03-.66-1.33-1.16-1.33-1.98 0-1.1.86-1.87 2.03-1.87 1.52 0 2.63 1.27 2.63 2.8 0 2.88-2.44 8.45-6.65 15.45-5.27 8.72-10.7 14.55-13.6 14.55-1.5 0-2.58-.86-2.58-2.18 0-1.1.87-2.02 1.98-2.02 1.78 0 1.78 1.42 3.1 1.42.65 0 1.26-.4 2.43-1.68.9-.96 3.2-3.95 3.6-4.6.3-.62.5-1.23.5-1.8 0-2-2.78-13.37-4.15-16.82-.97-2.48-1.88-3.25-3.9-3.25-.56 0-1.02.06-1.58.2v-.85l1.62-.3c1.02-.2 2.7-.52 5.43-.92h.2c.76 0 3.45 8.42 4.3 12.93M1138.38 649.36h-1.72l-6.2-5.22-6.12 5.22h-1.73l6.3-8.47h3.14M1190.1 660.3h-29.87v-3.33h29.87v3.34m0 10.15h-29.87v-3.34h29.87v3.35M1227.06 654.94l1.63 17.85c6.63-8.33 8.35-11.02 8.35-13.2 0-.6-.3-1-1.1-1.77-.82-.76-1.08-1.37-1.08-2.08 0-.8.86-1.57 1.98-1.57 1.52 0 2.64 1.22 2.64 2.84 0 3.24-3.77 9.18-10.76 17.7l-.46.55c-1.37 1.67-1.82 2.18-2.28 2.18-.36 0-.46-.45-.56-1.77l-1.47-15.72-4.5 7.7c-.92 1.53-1.84 3.2-2.8 5.03-1.83 3.48-2.7 4.75-3.25 4.75-.45 0-.55-.4-.66-2.38l-.2-4.62c-.2-4.4-.76-9.83-1.37-12.27-.46-1.87-.92-2.13-2.4-2.13h-1.4v-.65c1.56-.26 3.3-.46 4.8-.87.67-.15 1.12-.35 1.48-.35.56 0 .6.1.96 1.72.7 3.45 1.42 9.8 1.62 14.25l9.74-15.4c.25-.42.4-.52.66-.52.3 0 .4.15.4.7M1229.5 649.36h-1.73l-6.18-5.22-6.15 5.22h-1.72l6.3-8.47h3.13M1257.5 672.34c0 6.17-2.25 12.34-8.1 12.34-6.13 0-8.1-6.67-8.1-12.55 0-6.35 2.47-12.2 8.25-12.2 4.7 0 7.96 5.06 7.96 12.4m-3.44.2c0-7.46-1.57-11.66-4.73-11.66-2.97 0-4.6 4.23-4.6 11.5 0 7.3 1.6 11.38 4.67 11.38 3.05 0 4.66-4.13 4.66-11.23M1307.03 665.38h-13.24v13.24h-3.35v-13.24h-13.24v-3.34h13.25V648.8h3.34v13.24h13.23v3.34M1341.2 654.94l1.62 17.85c6.65-8.33 8.37-11.02 8.37-13.2 0-.6-.3-1-1.13-1.77-.8-.76-1.06-1.37-1.06-2.08 0-.8.87-1.57 2-1.57 1.5 0 2.62 1.22 2.62 2.84 0 3.24-3.75 9.18-10.75 17.7l-.45.55c-1.37 1.67-1.83 2.18-2.28 2.18-.36 0-.46-.45-.56-1.77l-1.47-15.72-4.5 7.7c-.92 1.53-1.83 3.2-2.8 5.03-1.82 3.48-2.68 4.75-3.24 4.75-.46 0-.56-.4-.66-2.38l-.2-4.62c-.2-4.4-.76-9.83-1.37-12.27-.46-1.87-.9-2.13-2.38-2.13h-1.42v-.65c1.57-.26 3.3-.46 4.8-.87.67-.15 1.13-.35 1.48-.35.57 0 .62.1.98 1.72.7 3.45 1.42 9.8 1.62 14.25l9.74-15.4c.25-.42.4-.52.66-.52.3 0 .4.15.4.7M1343.63 649.36h-1.72l-6.18-5.22-6.13 5.22h-1.73l6.28-8.47h3.15M1368.7 684.18h-9.9v-.54c2.66-.15 3.4-.9 3.4-2.87v-16.1c0-1.22-.3-1.76-1.06-1.76-.36 0-.97.2-1.62.45l-.96.35v-.5l6.4-3.26.34.1v21.4c0 1.55.7 2.2 3.4 2.2v.54M1396.22 654.13l-1.02 7.1h-.8c-.52-4.2-2.04-5.9-4.52-5.9-1.78 0-3 1.03-3 2.9 0 1.37.77 2.84 2.74 5.18 2.54 2.95 3.45 4.93 3.45 6.9 0 4.2-3.1 6.8-7.3 6.8-.86 0-1.62-.05-2.8-.5-.95-.42-1.66-.47-2.22-.47-.56 0-1.1.26-1.47 1.07h-.8l1-8.06h.8c.72 4.8 2.45 6.9 5.1 6.9 2.37 0 3.84-1.43 3.84-3.9 0-1.63-.86-3.36-2.84-5.84-2.18-2.74-3.2-5.02-3.2-6.65 0-3.34 2.4-5.47 6.14-5.47.86 0 1.57.15 2.84.5.96.3 1.42.36 1.82.36.77 0 1.12-.2 1.53-.9h.72M1421.92 654.84l-8.36 29.36c-.05.2-.1.4-.1.55 0 .97 1 1.58 2.9 1.58h.75v.8h-12v-.8c3.18-.2 4.05-.97 4.6-2.84l4.57-14.72c-4.06 6.44-6.65 8.32-10.55 8.32-3.2 0-5.07-2.28-5.07-5.88 0-8.02 7.9-17.04 14.86-17.04 2.1 0 3.4.86 3.9 3.14l.82-2.48h3.7m-5.27 3.5c0-1.68-1.32-3.05-3-3.05-1.46 0-3.08.96-4.7 2.48-3.45 3.3-5.94 8.52-5.94 12.73 0 2.4.82 3.9 2.7 3.9 1.27 0 2.84-.65 4.16-1.82 3.44-3 6.8-10.04 6.8-14.24M1431.96 674.36c0 1.47-1.32 2.74-2.84 2.74-1.57 0-2.8-1.22-2.8-2.8 0-1.56 1.28-2.83 2.85-2.83 1.47 0 2.8 1.37 2.8 2.9M1446 654.84h4.72c1.12-3.6 1.98-6.4 3.65-8.77 1.53-2.18 3.6-3.9 6.7-3.9 2.48 0 4.36 1.3 4.36 3.13 0 1.12-.96 2.2-2.13 2.2-.9 0-1.88-.78-1.88-2 0-.85.5-1.1.5-1.56 0-.4-.4-.66-1.1-.66-2.85 0-4.72 3.55-6.2 11.56h5.43l-.3 1.62h-5.48l-3.65 16.23c-2.13 9.37-5.52 14.34-10.14 14.34-2.28 0-4-1.32-4-3.1 0-1.16.86-2.13 1.92-2.13 1.17 0 1.93.82 1.93 1.9 0 .65-.46.9-.46 1.46 0 .46.4.8 1.02.8 2.12 0 3.74-2.73 4.9-8.2l4.47-21.3h-4.62M1480.44 654.84l-.26 1.62h-4.26l-4.4 16.63c-.06.2-.1.55-.1.7 0 .66.3.8.75.8.8 0 1.62-.8 4.1-4l.67.36c-3.04 4.67-4.62 6.14-7.25 6.14-1.38 0-2.34-.6-2.34-1.88 0-.56.4-2.13.8-3.75l3.96-15h-3.8c-.05-.16-.05-.3-.05-.3 0-.57.45-1.03 1.67-1.28 1.62-.37 4.92-2.85 6.74-5.6.2-.3.5-.45.7-.45.32 0 .47.16.47.4 0 0 0 .26-.05.36l-1.42 5.24h4.06M1489.67 674.36c0 1.47-1.32 2.74-2.84 2.74-1.58 0-2.8-1.22-2.8-2.8 0-1.56 1.27-2.83 2.85-2.83 1.47 0 2.8 1.37 2.8 2.9M1509.84 679.9l.46.48c-2.18 3.12-3.4 4.1-5.23 4.1-.97 0-1.58-.6-1.58-1.52 0-.43.24-1.54.7-3.3l1.98-7.42c.14-.57.25-1.04.25-1.18 0-.54-.18-.9-1-.9-1.3 0-3.6 2.2-5.45 5.02-1.44 2.2-2 3.44-3.45 8.97h-2.68l5.23-19.87c.3-1.1.47-1.72.47-2.22 0-.6-.83-.9-1.47-.9h-.97v-.54c2.16-.25 3.56-.5 5.64-.96l.25.2-4.35 16.04c3.23-5.24 6.02-7.57 8.25-7.57 1.65 0 2.33 1.08 2.33 2.4 0 .9-.65 3.56-1.72 6.93-.6 1.86-1.18 4.08-1.18 4.48 0 .36.25.64.58.64.57 0 1-.43 2.94-2.87M1527.87 673.35c0 2.73-1.43 5.88-3.8 8.2-2.08 2.1-4.37 3-6.74 3-3.37 0-5.27-1.87-5.27-5 0-4 2.7-8.13 6.45-10.14 1.4-.74 2.85-1.07 4.32-1.07 2.9 0 5.05 1.87 5.05 5.02m-3-.9c0-2.18-1-3.36-2.56-3.36s-3.14 1.1-4.58 3.25c-1.65 2.5-2.65 5.34-2.65 8.17 0 2.16 1.1 3.27 2.8 3.27 1.58 0 2.94-1.05 4.34-3 1.66-2.25 2.66-5.62 2.66-8.34M1545.58 679.88l.5.32c-2.33 3.55-3.26 4.27-4.94 4.27-1.08 0-1.72-.6-1.72-1.72 0-.8.46-3.2 1.6-7.07-4.22 6.96-6 8.86-8.56 8.86-1.25 0-1.9-.57-1.9-1.9 0-.68.32-1.97.97-4.6l1.25-4.97c.3-1.2.5-2.12.5-2.4 0-.26-.17-.54-.4-.65-.3-.18-.42-.22-1.78-.22v-.5c2.04-.25 3.33-.5 5.38-.97l.14.1-3.2 12.74c-.03.1-.1.43-.1.57 0 .54.18.9.72.9 1.22 0 2.87-1.9 5.1-5.27 1.67-2.55 2.18-3.9 3.93-8.7h2.66l-2.84 10.7c-.2.7-.7 2.37-.7 2.8 0 .4.16.6.4.6.58 0 1.15-.5 2.98-2.9M1560.1 668.3l-.7 5.02h-.6c-.35-2.98-1.42-4.16-3.18-4.16-1.25 0-2.1.72-2.1 2.04 0 .97.52 2 1.92 3.66 1.8 2.08 2.44 3.48 2.44 4.88 0 2.97-2.2 4.8-5.16 4.8-.6 0-1.15-.04-1.97-.36-.7-.3-1.2-.32-1.58-.32-.4 0-.8.18-1.04.75h-.58l.72-5.7h.58c.5 3.42 1.72 4.9 3.58 4.9 1.7 0 2.73-1.02 2.73-2.77 0-1.15-.6-2.37-2-4.13-1.55-1.93-2.27-3.55-2.27-4.7 0-2.36 1.67-3.87 4.33-3.87.6 0 1.1.1 2 .36.7.2 1 .24 1.3.24.53 0 .78-.14 1.07-.64h.5M1573.8 680.24l.43.43c-2.04 2.5-4.34 3.87-7.3 3.87-2.92 0-4.85-1.94-4.85-4.9 0-5.57 5.34-11.3 10.72-11.3 1.9 0 2.94.93 2.94 2.43 0 3.1-3.77 5.88-10.2 6.7-.35.72-.35 1.66-.35 2.2 0 1.97 1.32 3.26 3.33 3.26 1.58 0 2.7-.58 5.27-2.7m-7.4-5.12l-.6 1.6c3.1-.77 4.45-1.4 5.78-2.67 1.1-1.07 1.8-2.36 1.8-3.47 0-.86-.26-1.4-1.27-1.4-2.03 0-4.47 2.76-5.7 5.95"/><defs><path d="M135-143c-3-34-86-38-87 0 15 53 115 12 119 90S17 21 10-45l28-5c4 36 97 45 98 0-10-56-113-15-118-90-4-57 82-63 122-42 12 7 21 19 24 35" id="n"/><path d="M145-31C134-9 116 4 85 4 32 4 16-35 15-94c0-59 17-99 70-100 32-1 48 14 60 33 0-11-1-24 2-32h30l-1 268h-32zM93-21c41 0 51-33 51-76s-8-73-50-73c-40 0-46 35-46 75s5 74 45 74" id="o"/><path d="M84 4C-5 8 30-112 23-190h32v120c0 31 7 50 39 49 72-2 45-101 50-169h31l1 190h-30c-1-10 1-25-2-33-11 22-28 36-60 37" id="p"/><path d="M141-36C126-15 110 5 73 4 37 3 15-17 15-53c-1-64 63-63 125-63 3-35-9-54-41-54-24 1-41 7-42 31l-33-3c5-37 33-52 76-52 45 0 72 20 72 64v82c-1 20 7 32 28 27v20c-31 9-61-2-59-35zM48-53c0 20 12 33 32 33 41-3 63-29 60-74-43 2-92-5-92 41" id="q"/><path d="M114-163C36-179 61-72 57 0H25l-1-190h30c1 12-1 29 2 39 6-27 23-49 58-41v29" id="r"/><path d="M100-194c63 0 86 42 84 106H49c0 40 14 67 53 68 26 1 43-12 49-29l28 8c-11 28-37 45-77 45C44 4 14-33 15-96c1-61 26-98 85-98zm52 81c6-60-76-77-97-28-3 7-6 17-6 28h103" id="s"/><g id="a"><use transform="matrix(0.07407407407407408,0,0,0.07407407407407408,0,0)" xlink:href="#n"/><use transform="matrix(0.07407407407407408,0,0,0.07407407407407408,13.333333333333336,0)" xlink:href="#o"/><use transform="matrix(0.07407407407407408,0,0,0.07407407407407408,28.148148148148152,0)" xlink:href="#p"/><use transform="matrix(0.07407407407407408,0,0,0.07407407407407408,42.96296296296297,0)" xlink:href="#q"/><use transform="matrix(0.07407407407407408,0,0,0.07407407407407408,57.777777777777786,0)" xlink:href="#r"/><use transform="matrix(0.07407407407407408,0,0,0.07407407407407408,66.59259259259261,0)" xlink:href="#s"/></g><path d="M101-234c-31-9-42 10-38 44h38v23H63V0H32v-167H5v-23h27c-7-52 17-82 69-68v24" id="t"/><path d="M59-47c-2 24 18 29 38 22v24C64 9 27 4 27-40v-127H5v-23h24l9-43h21v43h35v23H59v120" id="u"/><g id="b"><use transform="matrix(0.07407407407407408,0,0,0.07407407407407408,0,0)" xlink:href="#t"/><use transform="matrix(0.07407407407407408,0,0,0.07407407407407408,7.407407407407408,0)" xlink:href="#s"/><use transform="matrix(0.07407407407407408,0,0,0.07407407407407408,22.222222222222225,0)" xlink:href="#s"/><use transform="matrix(0.07407407407407408,0,0,0.07407407407407408,37.03703703703704,0)" xlink:href="#u"/></g><path d="M87 75C49 33 22-17 22-94c0-76 28-126 65-167h31c-38 41-64 92-64 168S80 34 118 75H87" id="v"/><path d="M33 0v-38h34V0H33" id="w"/><g id="c"><use transform="matrix(0.07407407407407408,0,0,0.07407407407407408,0,0)" xlink:href="#v"/><use transform="matrix(0.07407407407407408,0,0,0.07407407407407408,8.814814814814817,0)" xlink:href="#n"/><use transform="matrix(0.07407407407407408,0,0,0.07407407407407408,22.148148148148152,0)" xlink:href="#o"/><use transform="matrix(0.07407407407407408,0,0,0.07407407407407408,36.96296296296297,0)" xlink:href="#w"/></g><path d="M33-261c38 41 65 92 65 168S71 34 33 75H2C39 34 66-17 66-93S39-220 2-261h31" id="x"/><g id="d"><use transform="matrix(0.07407407407407408,0,0,0.07407407407407408,0,0)" xlink:href="#t"/><use transform="matrix(0.07407407407407408,0,0,0.07407407407407408,7.407407407407408,0)" xlink:href="#u"/><use transform="matrix(0.07407407407407408,0,0,0.07407407407407408,14.814814814814817,0)" xlink:href="#w"/><use transform="matrix(0.07407407407407408,0,0,0.07407407407407408,22.222222222222225,0)" xlink:href="#x"/></g><path d="M115-194c55 1 70 41 70 98S169 2 115 4C84 4 66-9 55-30l1 105H24l-1-265h31l2 30c10-21 28-34 59-34zm-8 174c40 0 45-34 45-75s-6-73-45-74c-42 0-51 32-51 76 0 43 10 73 51 73" id="y"/><path d="M24-231v-30h32v30H24zM24 0v-190h32V0H24" id="z"/><path d="M96-169c-40 0-48 33-48 73s9 75 48 75c24 0 41-14 43-38l32 2c-6 37-31 61-74 61-59 0-76-41-82-99-10-93 101-131 147-64 4 7 5 14 7 22l-32 3c-4-21-16-35-41-35" id="A"/><g id="e"><use transform="matrix(0.07407407407407408,0,0,0.07407407407407408,0,0)" xlink:href="#y"/><use transform="matrix(0.07407407407407408,0,0,0.07407407407407408,14.814814814814817,0)" xlink:href="#r"/><use transform="matrix(0.07407407407407408,0,0,0.07407407407407408,23.629629629629633,0)" xlink:href="#z"/><use transform="matrix(0.07407407407407408,0,0,0.07407407407407408,29.481481481481488,0)" xlink:href="#A"/><use transform="matrix(0.07407407407407408,0,0,0.07407407407407408,42.814814814814824,0)" xlink:href="#s"/></g><path d="M194-70c0 46-34 64-81 66v29H91V-4C42-5 12-27 4-67l30-6c5 28 25 41 57 43v-87c-38-9-76-20-76-67 1-42 33-58 76-59v-23h22v23c45 0 67 20 76 56l-31 6c-5-23-18-35-45-37v78c41 10 81 20 81 70zm-81 41c51 7 71-66 19-77-6-2-12-4-19-6v83zM91-219c-47-6-63 57-18 69 6 2 12 3 18 5v-74" id="B"/><g id="f"><use transform="matrix(0.07407407407407408,0,0,0.07407407407407408,0,0)" xlink:href="#v"/><use transform="matrix(0.07407407407407408,0,0,0.07407407407407408,8.814814814814817,0)" xlink:href="#B"/><use transform="matrix(0.07407407407407408,0,0,0.07407407407407408,23.629629629629633,0)" xlink:href="#x"/></g><path d="M137-103V0h-34v-103L8-248h37l75 118 75-118h37" id="C"/><use transform="matrix(0.07407407407407408,0,0,0.07407407407407408,0,0)" xlink:href="#C" id="g"/><path d="M195 0l-74-108L45 0H8l94-129-87-119h37l69 98 67-98h37l-84 118L233 0h-38" id="D"/><use transform="matrix(0.07407407407407408,0,0,0.07407407407407408,0,0)" xlink:href="#D" id="h"/><path d="M160-131c35 5 61 23 61 61C221 17 115-2 30 0v-248c76 3 177-17 177 60 0 33-19 50-47 57zm-97-11c50-1 110 9 110-42 0-47-63-36-110-37v79zm0 115c55-2 124 14 124-45 0-56-70-42-124-44v89" id="E"/><g id="i"><use transform="matrix(0.07407407407407408,0,0,0.07407407407407408,0,0)" xlink:href="#E"/><use transform="matrix(0.07407407407407408,0,0,0.07407407407407408,17.77777777777778,0)" xlink:href="#s"/><use transform="matrix(0.07407407407407408,0,0,0.07407407407407408,32.592592592592595,0)" xlink:href="#n"/><use transform="matrix(0.07407407407407408,0,0,0.07407407407407408,45.92592592592593,0)" xlink:href="#u"/></g><path d="M177-190C167-65 218 103 67 71c-23-6-38-20-44-43l32-5c15 47 100 32 89-28v-30C133-14 115 1 83 1 29 1 15-40 15-95c0-56 16-97 71-98 29-1 48 16 59 35 1-10 0-23 2-32h30zM94-22c36 0 50-32 50-73 0-42-14-75-50-75-39 0-46 34-46 75s6 73 46 73" id="F"/><g id="j"><use transform="matrix(0.07407407407407408,0,0,0.07407407407407408,0,0)" xlink:href="#F"/><use transform="matrix(0.07407407407407408,0,0,0.07407407407407408,14.814814814814817,0)" xlink:href="#p"/><use transform="matrix(0.07407407407407408,0,0,0.07407407407407408,29.629629629629633,0)" xlink:href="#s"/><use transform="matrix(0.07407407407407408,0,0,0.07407407407407408,44.44444444444445,0)" xlink:href="#n"/><use transform="matrix(0.07407407407407408,0,0,0.07407407407407408,57.777777777777786,0)" xlink:href="#n"/></g><path d="M100-194c62-1 85 37 85 99 1 63-27 99-86 99S16-35 15-95c0-66 28-99 85-99zM99-20c44 1 53-31 53-75 0-43-8-75-51-75s-53 32-53 75 10 74 51 75" id="G"/><g id="k"><use transform="matrix(0.07407407407407408,0,0,0.07407407407407408,0,0)" xlink:href="#G"/><use transform="matrix(0.07407407407407408,0,0,0.07407407407407408,14.814814814814817,0)" xlink:href="#t"/></g><path d="M106-169C34-169 62-67 57 0H25v-261h32l-1 103c12-21 28-36 61-36 89 0 53 116 60 194h-32v-121c2-32-8-49-39-48" id="H"/><g id="l"><use transform="matrix(0.07407407407407408,0,0,0.07407407407407408,0,0)" xlink:href="#H"/><use transform="matrix(0.07407407407407408,0,0,0.07407407407407408,14.814814814814817,0)" xlink:href="#G"/><use transform="matrix(0.07407407407407408,0,0,0.07407407407407408,29.629629629629633,0)" xlink:href="#p"/><use transform="matrix(0.07407407407407408,0,0,0.07407407407407408,44.44444444444445,0)" xlink:href="#n"/><use transform="matrix(0.07407407407407408,0,0,0.07407407407407408,57.777777777777786,0)" xlink:href="#s"/></g><path d="M33-154v-36h34v36H33zM33 0v-36h34V0H33" id="I"/><g id="m"><use transform="matrix(0.07407407407407408,0,0,0.07407407407407408,0,0)" xlink:href="#y"/><use transform="matrix(0.07407407407407408,0,0,0.07407407407407408,14.814814814814817,0)" xlink:href="#r"/><use transform="matrix(0.07407407407407408,0,0,0.07407407407407408,23.629629629629633,0)" xlink:href="#z"/><use transform="matrix(0.07407407407407408,0,0,0.07407407407407408,29.481481481481488,0)" xlink:href="#A"/><use transform="matrix(0.07407407407407408,0,0,0.07407407407407408,42.814814814814824,0)" xlink:href="#s"/><use transform="matrix(0.07407407407407408,0,0,0.07407407407407408,57.62962962962964,0)" xlink:href="#I"/></g></defs></g></svg>