<svg xmlns="http://www.w3.org/2000/svg" xmlns:xlink="http://www.w3.org/1999/xlink" xmlns:lucid="lucid" width="1320" height="931"><g transform="translate(-140 -129)" lucid:page-tab-id="lxVy.U2a18gn"><path d="M240 959V178.5M240 958.97V960" stroke="#000" stroke-width="2" fill="none"/><path d="M240 163.24l4.64 14.26h-9.28z" stroke="#000" stroke-width="2"/><path d="M241 960h780.5M241.03 960H240" stroke="#000" stroke-width="2" fill="none"/><path d="M1036.76 960l-14.26 4.64v-9.28z" stroke="#000" stroke-width="2"/><path d="M480 980h320v60H480z" stroke="#000" stroke-opacity="0" stroke-width="2" fill="#fff" fill-opacity="0"/><use xlink:href="#a" transform="matrix(1,0,0,1,485,985) translate(43.25925925925925 30.708333333333336)"/><use xlink:href="#b" transform="matrix(1,0,0,1,485,985) translate(132.07407407407408 30.708333333333336)"/><use xlink:href="#c" transform="matrix(1,0,0,1,485,985) translate(183.92592592592592 30.708333333333336)"/><use xlink:href="#d" transform="matrix(1,0,0,1,485,985) translate(235.7037037037037 30.708333333333336)"/><path d="M300 710c0 5.52-4.48 10-10 10s-10-4.48-10-10 4.48-10 10-10 10 4.48 10 10z" stroke="#000" stroke-width="2" fill="#c1e4f7"/><path d="M160 720V400h60v320z" stroke="#000" stroke-opacity="0" stroke-width="2" fill="#fff" fill-opacity="0"/><use xlink:href="#e" transform="matrix(6.123233995736766e-17,-1,1,6.123233995736766e-17,165,715) translate(106.25925925925925 30.708333333333336)"/><use xlink:href="#f" transform="matrix(6.123233995736766e-17,-1,1,6.123233995736766e-17,165,715) translate(171.2962962962963 30.708333333333336)"/><path d="M360 750c0 5.52-4.48 10-10 10s-10-4.48-10-10 4.48-10 10-10 10 4.48 10 10zM440 730c0 5.52-4.48 10-10 10s-10-4.48-10-10 4.48-10 10-10 10 4.48 10 10zM480 790c0 5.52-4.48 10-10 10s-10-4.48-10-10 4.48-10 10-10 10 4.48 10 10z" stroke="#000" stroke-width="2" fill="#c1e4f7"/><path d="M160 160h80v80h-80z" stroke="#000" stroke-opacity="0" stroke-width="2" fill="#fff" fill-opacity="0"/><use xlink:href="#g" transform="matrix(1,0,0,1,165,165) translate(26.11111111111111 41.020833333333336)"/><path d="M960 960h80v80h-80z" stroke="#000" stroke-opacity="0" stroke-width="2" fill="#fff" fill-opacity="0"/><use xlink:href="#h" transform="matrix(1,0,0,1,965,965) translate(26.11111111111111 41.020833333333336)"/><path d="M560 550c0 5.52-4.48 10-10 10s-10-4.48-10-10 4.48-10 10-10 10 4.48 10 10zM580 610c0 5.52-4.48 10-10 10s-10-4.48-10-10 4.48-10 10-10 10 4.48 10 10zM600 650c0 5.52-4.48 10-10 10s-10-4.48-10-10 4.48-10 10-10 10 4.48 10 10zM640 590c0 5.52-4.48 10-10 10s-10-4.48-10-10 4.48-10 10-10 10 4.48 10 10zM680 570c0 5.52-4.48 10-10 10s-10-4.48-10-10 4.48-10 10-10 10 4.48 10 10zM780 410c0 5.52-4.48 10-10 10s-10-4.48-10-10 4.48-10 10-10 10 4.48 10 10zM820 450c0 5.52-4.48 10-10 10s-10-4.48-10-10 4.48-10 10-10 10 4.48 10 10zM880 330c0 5.52-4.48 10-10 10s-10-4.48-10-10 4.48-10 10-10 10 4.48 10 10zM940 430c0 5.52-4.48 10-10 10s-10-4.48-10-10 4.48-10 10-10 10 4.48 10 10zM1020 690c0 5.52-4.48 10-10 10s-10-4.48-10-10 4.48-10 10-10 10 4.48 10 10z" stroke="#000" stroke-width="2" fill="#c1e4f7"/><path d="M241.64 918.1l137.02-158.25 72.53-76.7 67.4-65.24L560 580l14.98-13 17.3-13.8 19.8-14.48 22.6-15.1 25.6-15.6 28.85-15.97 32.32-16.16 36.03-16.18 40-15.97 44.2-15.54 48.75-14.86L944 399.42l58.72-12.67 34.82-6.3M241.68 918.06L240 920M1037.48 380.46l2.52-.46" stroke="#c7e8ac" stroke-width="5" fill="none"/><path d="M900 800h458.25v48H900z" fill="#fff" fill-opacity="0"/><path d="M908.32 819.07h4.13c.97-3.16 1.73-5.6 3.2-7.68 1.32-1.92 3.14-3.43 5.85-3.43 2.17 0 3.82 1.16 3.82 2.75 0 .98-.85 1.9-1.87 1.9-.8 0-1.64-.65-1.64-1.72 0-.75.45-.98.45-1.38 0-.35-.35-.57-.97-.57-2.5 0-4.13 3.1-5.42 10.12h4.75l-.25 1.42h-4.8l-3.2 14.2c-1.85 8.2-4.83 12.54-8.87 12.54-2 0-3.5-1.15-3.5-2.7 0-1.02.75-1.87 1.68-1.87 1.02 0 1.7.7 1.7 1.65 0 .57-.4.8-.4 1.28 0 .4.35.7.88.7 1.86 0 3.28-2.38 4.3-7.18l3.9-18.63h-4.03M931.48 831.37l1 11.05c4.1-5.15 5.18-6.8 5.18-8.16 0-.37-.2-.63-.7-1.1-.5-.47-.65-.84-.65-1.28 0-.5.54-.98 1.23-.98.95 0 1.64.76 1.64 1.76 0 2-2.33 5.68-6.66 10.95l-.27.36c-.85 1.03-1.13 1.35-1.4 1.35-.23 0-.3-.28-.36-1.1l-.9-9.72-2.8 4.77c-.56.94-1.13 1.98-1.72 3.1-1.13 2.17-1.67 2.96-2 2.96-.3 0-.36-.24-.42-1.47l-.13-2.85c-.12-2.73-.47-6.1-.84-7.6-.3-1.16-.57-1.3-1.48-1.3h-.88v-.42c.98-.16 2.04-.3 2.98-.54.4-.1.7-.22.9-.22.36 0 .4.07.6 1.07.45 2.13.9 6.06 1.02 8.82l6.02-9.55c.16-.25.25-.3.4-.3.2 0 .26.08.26.42M957.7 845.2l-.52.7c-7-3.98-10.83-11.48-10.83-19.02 0-8.2 3.86-14.6 10.96-18.82l.4.7c-6.16 5.3-7.53 9.42-7.53 17.98 0 8.26 1.33 13.27 7.54 18.46M969.78 822.3l.53 2.53c3.12-4.74 4.76-6.34 6.72-6.34 1.06 0 1.8.65 1.8 1.63 0 .93-.6 1.6-1.5 1.6-.84 0-1.24-.76-2.3-.76-.8 0-2.4 1.96-4.35 5.37 0 .3.1.94.35 2l1.42 5.95c.32 1.23.7 1.8 1.34 1.8.57 0 1.06-.44 2.08-1.77.4-.53.58-.8.93-1.24l.66.4c-2.57 3.98-3.73 5.05-5.4 5.05-1.43 0-2.1-.8-2.63-3.02l-1.3-5.28-3.9 5.28c-1.95 2.62-2.84 3.02-4.2 3.02-1.4 0-2.23-.7-2.23-1.87 0-.88.62-1.6 1.5-1.6.4 0 .85.18 1.43.5.44.26.9.4 1.15.4.5 0 1.33-.85 2.27-2.18l3.64-5.15-1.26-5.5c-.62-2.66-.93-3.02-2.04-3.02-.35 0-.9.1-1.73.3l-.8.23-.13-.7.5-.18c2.7-.98 4.16-1.3 5.18-1.3 1.1 0 1.64.8 2.26 3.82M980.17 808.77l.53-.7c6.8 4.07 10.83 11.48 10.83 19.03 0 8.2-3.9 14.5-10.96 18.8l-.4-.7c6.3-5.2 7.54-9.36 7.54-17.97 0-8.3-1.1-13.4-7.53-18.46M1034.26 823.86h-26.14v-2.93h26.14v2.93m0 8.87h-26.14v-2.93h26.14v2.93M1066.66 819.15l1.42 15.62c5.8-7.27 7.32-9.63 7.32-11.53 0-.54-.27-.9-.98-1.56-.7-.66-.93-1.2-.93-1.82 0-.7.74-1.37 1.72-1.37 1.33 0 2.3 1.05 2.3 2.47 0 2.84-3.28 8.04-9.4 15.5l-.4.48c-1.2 1.46-1.6 1.9-2 1.9-.3 0-.4-.4-.48-1.55l-1.3-13.75-3.94 6.74c-.8 1.32-1.6 2.8-2.44 4.4-1.6 3.05-2.35 4.16-2.84 4.16-.4 0-.5-.36-.58-2.1l-.18-4.03c-.17-3.86-.66-8.6-1.2-10.74-.4-1.65-.8-1.87-2.08-1.87h-1.24v-.58c1.37-.22 2.88-.4 4.2-.75.6-.13 1-.3 1.3-.3.5 0 .53.08.84 1.5.62 3 1.25 8.56 1.42 12.47l8.52-13.5c.23-.35.36-.44.58-.44.27 0 .36.14.36.62M1093.3 834.4c0 5.38-1.98 10.78-7.1 10.78-5.36 0-7.08-5.83-7.08-10.98 0-5.56 2.16-10.67 7.2-10.67 4.12 0 6.98 4.42 6.98 10.86m-3 .14c0-6.52-1.4-10.2-4.16-10.2-2.6 0-4 3.7-4 10.08 0 6.37 1.37 9.95 4.07 9.95 2.67 0 4.1-3.6 4.1-9.83M1136.6 828.3H1125v11.58h-2.92V828.3h-11.58v-2.93h11.58v-11.6h2.93v11.6h11.6v2.93M1166.55 819.15l1.42 15.62c5.8-7.27 7.32-9.63 7.32-11.53 0-.54-.28-.9-1-1.56-.7-.66-.92-1.2-.92-1.82 0-.7.76-1.37 1.73-1.37 1.34 0 2.32 1.05 2.32 2.47 0 2.84-3.28 8.04-9.4 15.5l-.4.48c-1.2 1.46-1.6 1.9-2 1.9-.32 0-.4-.4-.5-1.55l-1.28-13.75-3.95 6.74c-.8 1.32-1.6 2.8-2.45 4.4-1.6 3.05-2.35 4.16-2.84 4.16-.4 0-.48-.36-.57-2.1l-.17-4.03c-.18-3.86-.67-8.6-1.2-10.74-.4-1.65-.8-1.87-2.1-1.87h-1.23v-.58c1.37-.22 2.88-.4 4.2-.75.6-.13 1-.3 1.3-.3.5 0 .53.08.84 1.5.63 3 1.25 8.56 1.42 12.47l8.52-13.5c.22-.35.35-.44.57-.44.26 0 .35.14.35.62M1190.62 844.74h-8.66v-.47c2.32-.12 2.98-.78 2.98-2.5v-14.1c0-1.06-.3-1.54-.94-1.54-.32 0-.85.16-1.42.38l-.84.32v-.43l5.6-2.87.3.1v18.73c0 1.35.62 1.9 2.98 1.9v.48M1209.2 822.3l.53 2.53c3.1-4.74 4.74-6.34 6.7-6.34 1.06 0 1.82.65 1.82 1.63 0 .93-.63 1.6-1.5 1.6-.86 0-1.26-.76-2.32-.76-.8 0-2.4 1.96-4.35 5.37 0 .3.1.94.36 2l1.42 5.95c.3 1.23.7 1.8 1.33 1.8.56 0 1.05-.44 2.07-1.77.4-.53.58-.8.93-1.24l.67.4c-2.57 3.98-3.73 5.05-5.4 5.05-1.43 0-2.1-.8-2.63-3.02l-1.3-5.28-3.9 5.28c-1.95 2.62-2.83 3.02-4.2 3.02-1.4 0-2.23-.7-2.23-1.87 0-.88.63-1.6 1.52-1.6.4 0 .84.18 1.42.5.44.26.9.4 1.15.4.48 0 1.33-.85 2.26-2.18l3.64-5.15-1.25-5.5c-.62-2.66-.93-3.02-2.04-3.02-.34 0-.88.1-1.72.3l-.8.23-.13-.7.5-.18c2.7-.98 4.16-1.3 5.18-1.3 1.1 0 1.64.8 2.26 3.82M1256.37 828.3h-11.6v11.58h-2.92V828.3h-11.58v-2.93h11.58v-11.6h2.93v11.6h11.6v2.93M1286.32 819.15l1.42 15.62c5.8-7.27 7.32-9.63 7.32-11.53 0-.54-.26-.9-.98-1.56-.7-.66-.93-1.2-.93-1.82 0-.7.76-1.37 1.73-1.37 1.34 0 2.3 1.05 2.3 2.47 0 2.84-3.27 8.04-9.4 15.5l-.4.48c-1.2 1.46-1.6 1.9-2 1.9-.3 0-.4-.4-.48-1.55l-1.3-13.75-3.94 6.74c-.8 1.32-1.6 2.8-2.44 4.4-1.6 3.05-2.35 4.16-2.84 4.16-.4 0-.5-.36-.58-2.1l-.17-4.03c-.18-3.86-.67-8.6-1.2-10.74-.4-1.65-.8-1.87-2.1-1.87h-1.23v-.58c1.38-.22 2.9-.4 4.22-.75.57-.13.97-.3 1.28-.3.5 0 .54.08.85 1.5.62 3 1.24 8.56 1.42 12.47l8.52-13.5c.2-.35.34-.44.56-.44.27 0 .36.14.36.62M1312.9 840.44l-1.7 4.3h-12.26v-.37l5.58-5.93c2.95-3.1 4.08-5.5 4.08-8.16 0-2.86-1.7-4.43-4.36-4.43-2.26 0-3.36 1-4.6 4.08l-.67-.16c.66-3.67 2.66-6.24 6.52-6.24 3.54 0 5.8 2.42 5.8 5.52 0 2.48-1.22 4.84-4.02 7.78l-5.18 5.53h7.35c1.32 0 1.97-.35 3-2.1M1328.96 822.3l.54 2.53c3.1-4.74 4.75-6.34 6.7-6.34 1.06 0 1.82.65 1.82 1.63 0 .93-.62 1.6-1.5 1.6-.85 0-1.25-.76-2.32-.76-.8 0-2.4 1.96-4.35 5.37 0 .3.1.94.36 2l1.43 5.95c.3 1.23.7 1.8 1.33 1.8.58 0 1.06-.44 2.08-1.77.4-.53.58-.8.94-1.24l.66.4c-2.57 3.98-3.73 5.05-5.4 5.05-1.43 0-2.1-.8-2.63-3.02l-1.28-5.28-3.9 5.28c-1.95 2.62-2.84 3.02-4.22 3.02-1.37 0-2.22-.7-2.22-1.87 0-.88.62-1.6 1.5-1.6.4 0 .86.18 1.43.5.46.26.9.4 1.17.4.48 0 1.33-.85 2.26-2.18l3.64-5.15-1.24-5.5c-.63-2.66-.94-3.02-2.05-3.02-.35 0-.88.1-1.73.3l-.8.23-.13-.7.5-.18c2.7-.98 4.16-1.3 5.18-1.3 1.1 0 1.64.8 2.26 3.82M1352.95 817.66l-1.7 4.3H1339v-.38l5.57-5.93c2.95-3.1 4.08-5.5 4.08-8.15 0-2.86-1.7-4.43-4.36-4.43-2.27 0-3.37 1-4.62 4.08l-.66-.16c.66-3.68 2.66-6.25 6.52-6.25 3.55 0 5.8 2.42 5.8 5.52 0 2.48-1.2 4.83-4 7.78l-5.2 5.53h7.36c1.32 0 1.97-.35 3-2.1"/><path d="M959.2 796.06L731.63 514.4M959.2 796.04l.63.8" stroke="#000" stroke-width="2" fill="none"/><path d="M722.03 502.52l12.57 8.18-7.2 5.83z" stroke="#000" stroke-width="2"/><path d="M1080 899v-20.5M1080 898.97V900" stroke="#000" stroke-width="2" fill="none"/><path d="M1080 863.24l4.64 14.26h-9.28z" stroke="#000" stroke-width="2"/><path d="M1020 900h120v40h-120z" stroke="#000" stroke-opacity="0" stroke-width="2" fill="#fff" fill-opacity="0"/><use xlink:href="#i" transform="matrix(1,0,0,1,1025,905) translate(20.549999999999997 18.15)"/><path d="M1340 721v40.5M1340 721.03V720" stroke="#000" stroke-width="2" fill="none"/><path d="M1340 776.76l-4.64-14.26h9.28z" stroke="#000" stroke-width="2"/><path d="M1240 680h200v40h-200z" stroke="#000" stroke-opacity="0" stroke-width="2" fill="#fff" fill-opacity="0"/><g><use xlink:href="#j" transform="matrix(1,0,0,1,1245,685) translate(17.57499999999999 18.15)"/><use xlink:href="#k" transform="matrix(1,0,0,1,1245,685) translate(50.52499999999999 18.15)"/><use xlink:href="#l" transform="matrix(1,0,0,1,1245,685) translate(116.475 18.15)"/></g><defs><path d="M135-143c-3-34-86-38-87 0 15 53 115 12 119 90S17 21 10-45l28-5c4 36 97 45 98 0-10-56-113-15-118-90-4-57 82-63 122-42 12 7 21 19 24 35" id="m"/><path d="M145-31C134-9 116 4 85 4 32 4 16-35 15-94c0-59 17-99 70-100 32-1 48 14 60 33 0-11-1-24 2-32h30l-1 268h-32zM93-21c41 0 51-33 51-76s-8-73-50-73c-40 0-46 35-46 75s5 74 45 74" id="n"/><path d="M84 4C-5 8 30-112 23-190h32v120c0 31 7 50 39 49 72-2 45-101 50-169h31l1 190h-30c-1-10 1-25-2-33-11 22-28 36-60 37" id="o"/><path d="M141-36C126-15 110 5 73 4 37 3 15-17 15-53c-1-64 63-63 125-63 3-35-9-54-41-54-24 1-41 7-42 31l-33-3c5-37 33-52 76-52 45 0 72 20 72 64v82c-1 20 7 32 28 27v20c-31 9-61-2-59-35zM48-53c0 20 12 33 32 33 41-3 63-29 60-74-43 2-92-5-92 41" id="p"/><path d="M114-163C36-179 61-72 57 0H25l-1-190h30c1 12-1 29 2 39 6-27 23-49 58-41v29" id="q"/><path d="M100-194c63 0 86 42 84 106H49c0 40 14 67 53 68 26 1 43-12 49-29l28 8c-11 28-37 45-77 45C44 4 14-33 15-96c1-61 26-98 85-98zm52 81c6-60-76-77-97-28-3 7-6 17-6 28h103" id="r"/><g id="a"><use transform="matrix(0.07407407407407408,0,0,0.07407407407407408,0,0)" xlink:href="#m"/><use transform="matrix(0.07407407407407408,0,0,0.07407407407407408,13.333333333333336,0)" xlink:href="#n"/><use transform="matrix(0.07407407407407408,0,0,0.07407407407407408,28.148148148148152,0)" xlink:href="#o"/><use transform="matrix(0.07407407407407408,0,0,0.07407407407407408,42.96296296296297,0)" xlink:href="#p"/><use transform="matrix(0.07407407407407408,0,0,0.07407407407407408,57.777777777777786,0)" xlink:href="#q"/><use transform="matrix(0.07407407407407408,0,0,0.07407407407407408,66.59259259259261,0)" xlink:href="#r"/></g><path d="M101-234c-31-9-42 10-38 44h38v23H63V0H32v-167H5v-23h27c-7-52 17-82 69-68v24" id="s"/><path d="M59-47c-2 24 18 29 38 22v24C64 9 27 4 27-40v-127H5v-23h24l9-43h21v43h35v23H59v120" id="t"/><g id="b"><use transform="matrix(0.07407407407407408,0,0,0.07407407407407408,0,0)" xlink:href="#s"/><use transform="matrix(0.07407407407407408,0,0,0.07407407407407408,7.407407407407408,0)" xlink:href="#r"/><use transform="matrix(0.07407407407407408,0,0,0.07407407407407408,22.222222222222225,0)" xlink:href="#r"/><use transform="matrix(0.07407407407407408,0,0,0.07407407407407408,37.03703703703704,0)" xlink:href="#t"/></g><path d="M87 75C49 33 22-17 22-94c0-76 28-126 65-167h31c-38 41-64 92-64 168S80 34 118 75H87" id="u"/><path d="M33 0v-38h34V0H33" id="v"/><g id="c"><use transform="matrix(0.07407407407407408,0,0,0.07407407407407408,0,0)" xlink:href="#u"/><use transform="matrix(0.07407407407407408,0,0,0.07407407407407408,8.814814814814817,0)" xlink:href="#m"/><use transform="matrix(0.07407407407407408,0,0,0.07407407407407408,22.148148148148152,0)" xlink:href="#n"/><use transform="matrix(0.07407407407407408,0,0,0.07407407407407408,36.96296296296297,0)" xlink:href="#v"/></g><path d="M33-261c38 41 65 92 65 168S71 34 33 75H2C39 34 66-17 66-93S39-220 2-261h31" id="w"/><g id="d"><use transform="matrix(0.07407407407407408,0,0,0.07407407407407408,0,0)" xlink:href="#s"/><use transform="matrix(0.07407407407407408,0,0,0.07407407407407408,7.407407407407408,0)" xlink:href="#t"/><use transform="matrix(0.07407407407407408,0,0,0.07407407407407408,14.814814814814817,0)" xlink:href="#v"/><use transform="matrix(0.07407407407407408,0,0,0.07407407407407408,22.222222222222225,0)" xlink:href="#w"/></g><path d="M115-194c55 1 70 41 70 98S169 2 115 4C84 4 66-9 55-30l1 105H24l-1-265h31l2 30c10-21 28-34 59-34zm-8 174c40 0 45-34 45-75s-6-73-45-74c-42 0-51 32-51 76 0 43 10 73 51 73" id="x"/><path d="M24-231v-30h32v30H24zM24 0v-190h32V0H24" id="y"/><path d="M96-169c-40 0-48 33-48 73s9 75 48 75c24 0 41-14 43-38l32 2c-6 37-31 61-74 61-59 0-76-41-82-99-10-93 101-131 147-64 4 7 5 14 7 22l-32 3c-4-21-16-35-41-35" id="z"/><g id="e"><use transform="matrix(0.07407407407407408,0,0,0.07407407407407408,0,0)" xlink:href="#x"/><use transform="matrix(0.07407407407407408,0,0,0.07407407407407408,14.814814814814817,0)" xlink:href="#q"/><use transform="matrix(0.07407407407407408,0,0,0.07407407407407408,23.629629629629633,0)" xlink:href="#y"/><use transform="matrix(0.07407407407407408,0,0,0.07407407407407408,29.481481481481488,0)" xlink:href="#z"/><use transform="matrix(0.07407407407407408,0,0,0.07407407407407408,42.814814814814824,0)" xlink:href="#r"/></g><path d="M194-70c0 46-34 64-81 66v29H91V-4C42-5 12-27 4-67l30-6c5 28 25 41 57 43v-87c-38-9-76-20-76-67 1-42 33-58 76-59v-23h22v23c45 0 67 20 76 56l-31 6c-5-23-18-35-45-37v78c41 10 81 20 81 70zm-81 41c51 7 71-66 19-77-6-2-12-4-19-6v83zM91-219c-47-6-63 57-18 69 6 2 12 3 18 5v-74" id="A"/><g id="f"><use transform="matrix(0.07407407407407408,0,0,0.07407407407407408,0,0)" xlink:href="#u"/><use transform="matrix(0.07407407407407408,0,0,0.07407407407407408,8.814814814814817,0)" xlink:href="#A"/><use transform="matrix(0.07407407407407408,0,0,0.07407407407407408,23.629629629629633,0)" xlink:href="#w"/></g><path d="M137-103V0h-34v-103L8-248h37l75 118 75-118h37" id="B"/><use transform="matrix(0.07407407407407408,0,0,0.07407407407407408,0,0)" xlink:href="#B" id="g"/><path d="M195 0l-74-108L45 0H8l94-129-87-119h37l69 98 67-98h37l-84 118L233 0h-38" id="C"/><use transform="matrix(0.07407407407407408,0,0,0.07407407407407408,0,0)" xlink:href="#C" id="h"/><path d="M117-194c89-4 53 116 60 194h-32v-121c0-31-8-49-39-48C34-167 62-67 57 0H25l-1-190h30c1 10-1 24 2 32 11-22 29-35 61-36" id="D"/><g id="i"><use transform="matrix(0.05,0,0,0.05,0,0)" xlink:href="#y"/><use transform="matrix(0.05,0,0,0.05,3.95,0)" xlink:href="#D"/><use transform="matrix(0.05,0,0,0.05,13.949999999999998,0)" xlink:href="#t"/><use transform="matrix(0.05,0,0,0.05,18.95,0)" xlink:href="#r"/><use transform="matrix(0.05,0,0,0.05,28.950000000000003,0)" xlink:href="#q"/><use transform="matrix(0.05,0,0,0.05,34.9,0)" xlink:href="#z"/><use transform="matrix(0.05,0,0,0.05,43.9,0)" xlink:href="#r"/><use transform="matrix(0.05,0,0,0.05,53.900000000000006,0)" xlink:href="#x"/><use transform="matrix(0.05,0,0,0.05,63.900000000000006,0)" xlink:href="#t"/></g><path d="M24-231v-30h32v30H24zM-9 49c24 4 33-6 33-30v-209h32V24c2 40-23 58-65 49V49" id="E"/><g id="j"><use transform="matrix(0.05,0,0,0.05,0,0)" xlink:href="#E"/><use transform="matrix(0.05,0,0,0.05,3.95,0)" xlink:href="#o"/><use transform="matrix(0.05,0,0,0.05,13.949999999999998,0)" xlink:href="#m"/><use transform="matrix(0.05,0,0,0.05,22.95,0)" xlink:href="#t"/></g><path d="M100-194c62-1 85 37 85 99 1 63-27 99-86 99S16-35 15-95c0-66 28-99 85-99zM99-20c44 1 53-31 53-75 0-43-8-75-51-75s-53 32-53 75 10 74 51 75" id="F"/><path d="M106-169C34-169 62-67 57 0H25v-261h32l-1 103c12-21 28-36 61-36 89 0 53 116 60 194h-32v-121c2-32-8-49-39-48" id="G"/><g id="k"><use transform="matrix(0.05,0,0,0.05,0,0)" xlink:href="#p"/><use transform="matrix(0.05,0,0,0.05,10,0)" xlink:href="#D"/><use transform="matrix(0.05,0,0,0.05,20,0)" xlink:href="#F"/><use transform="matrix(0.05,0,0,0.05,30,0)" xlink:href="#t"/><use transform="matrix(0.05,0,0,0.05,35,0)" xlink:href="#G"/><use transform="matrix(0.05,0,0,0.05,45,0)" xlink:href="#r"/><use transform="matrix(0.05,0,0,0.05,55,0)" xlink:href="#q"/></g><g id="l"><use transform="matrix(0.05,0,0,0.05,0,0)" xlink:href="#s"/><use transform="matrix(0.05,0,0,0.05,5,0)" xlink:href="#r"/><use transform="matrix(0.05,0,0,0.05,15,0)" xlink:href="#p"/><use transform="matrix(0.05,0,0,0.05,25,0)" xlink:href="#t"/><use transform="matrix(0.05,0,0,0.05,30,0)" xlink:href="#o"/><use transform="matrix(0.05,0,0,0.05,40,0)" xlink:href="#q"/><use transform="matrix(0.05,0,0,0.05,45.95,0)" xlink:href="#r"/></g></defs></g></svg>