<svg xmlns="http://www.w3.org/2000/svg" xmlns:xlink="http://www.w3.org/1999/xlink" xmlns:lucid="lucid" width="1443.75" height="931"><g transform="translate(-140 -129)" lucid:page-tab-id="2S7zP8swaeLv"><path d="M240 959V178.5M240 958.97V960" stroke="#000" stroke-width="2" fill="none"/><path d="M240 163.24l4.64 14.26h-9.28z" stroke="#000" stroke-width="2"/><path d="M241 960h780.5M241.03 960H240" stroke="#000" stroke-width="2" fill="none"/><path d="M1036.76 960l-14.26 4.64v-9.28z" stroke="#000" stroke-width="2"/><path d="M480 980h320v60H480z" stroke="#000" stroke-opacity="0" stroke-width="2" fill="#fff" fill-opacity="0"/><use xlink:href="#a" transform="matrix(1,0,0,1,485,985) translate(43.25925925925925 30.708333333333336)"/><use xlink:href="#b" transform="matrix(1,0,0,1,485,985) translate(132.07407407407408 30.708333333333336)"/><use xlink:href="#c" transform="matrix(1,0,0,1,485,985) translate(183.92592592592592 30.708333333333336)"/><use xlink:href="#d" transform="matrix(1,0,0,1,485,985) translate(235.7037037037037 30.708333333333336)"/><path d="M300 710c0 5.52-4.48 10-10 10s-10-4.48-10-10 4.48-10 10-10 10 4.48 10 10z" stroke="#000" stroke-width="2" fill="#c1e4f7"/><path d="M160 720V400h60v320z" stroke="#000" stroke-opacity="0" stroke-width="2" fill="#fff" fill-opacity="0"/><use xlink:href="#e" transform="matrix(6.123233995736766e-17,-1,1,6.123233995736766e-17,165,715) translate(106.25925925925925 30.708333333333336)"/><use xlink:href="#f" transform="matrix(6.123233995736766e-17,-1,1,6.123233995736766e-17,165,715) translate(171.2962962962963 30.708333333333336)"/><path d="M360 750c0 5.52-4.48 10-10 10s-10-4.48-10-10 4.48-10 10-10 10 4.48 10 10z" stroke="#000" stroke-width="2" fill="#b2b2b2"/><path d="M440 730c0 5.52-4.48 10-10 10s-10-4.48-10-10 4.48-10 10-10 10 4.48 10 10zM480 790c0 5.52-4.48 10-10 10s-10-4.48-10-10 4.48-10 10-10 10 4.48 10 10z" stroke="#000" stroke-width="2" fill="#c1e4f7"/><path d="M160 160h80v80h-80z" stroke="#000" stroke-opacity="0" stroke-width="2" fill="#fff" fill-opacity="0"/><use xlink:href="#g" transform="matrix(1,0,0,1,165,165) translate(26.11111111111111 41.020833333333336)"/><path d="M960 960h80v80h-80z" stroke="#000" stroke-opacity="0" stroke-width="2" fill="#fff" fill-opacity="0"/><use xlink:href="#h" transform="matrix(1,0,0,1,965,965) translate(26.11111111111111 41.020833333333336)"/><path d="M560 550c0 5.52-4.48 10-10 10s-10-4.48-10-10 4.48-10 10-10 10 4.48 10 10z" stroke="#000" stroke-width="2" fill="#b2b2b2"/><path d="M580 610c0 5.52-4.48 10-10 10s-10-4.48-10-10 4.48-10 10-10 10 4.48 10 10z" stroke="#000" stroke-width="2" fill="#c1e4f7"/><path d="M600 650c0 5.52-4.48 10-10 10s-10-4.48-10-10 4.48-10 10-10 10 4.48 10 10z" stroke="#000" stroke-width="2" fill="#b2b2b2"/><path d="M640 590c0 5.52-4.48 10-10 10s-10-4.48-10-10 4.48-10 10-10 10 4.48 10 10zM680 570c0 5.52-4.48 10-10 10s-10-4.48-10-10 4.48-10 10-10 10 4.48 10 10zM780 410c0 5.52-4.48 10-10 10s-10-4.48-10-10 4.48-10 10-10 10 4.48 10 10zM820 450c0 5.52-4.48 10-10 10s-10-4.48-10-10 4.48-10 10-10 10 4.48 10 10z" stroke="#000" stroke-width="2" fill="#c1e4f7"/><path d="M880 330c0 5.52-4.48 10-10 10s-10-4.48-10-10 4.48-10 10-10 10 4.48 10 10z" stroke="#000" stroke-width="2" fill="#b2b2b2"/><path d="M940 430c0 5.52-4.48 10-10 10s-10-4.48-10-10 4.48-10 10-10 10 4.48 10 10z" stroke="#000" stroke-width="2" fill="#c1e4f7"/><path d="M1020 690c0 5.52-4.48 10-10 10s-10-4.48-10-10 4.48-10 10-10 10 4.48 10 10z" stroke="#000" stroke-width="2" fill="#b2b2b2"/><path d="M241.64 918.1l137.02-158.25 72.53-76.7 67.4-65.24L560 580l14.98-13 17.3-13.8 19.8-14.48 22.6-15.1 25.6-15.6 28.85-15.97 32.32-16.16 36.03-16.18 40-15.97 44.2-15.54 48.75-14.86L944 399.42l58.72-12.67 34.82-6.3M241.68 918.06L240 920M1037.48 380.46l2.52-.46" stroke="#c7e8ac" stroke-width="5" fill="none"/><path d="M290 722v139.25M290 722.04V721M290 861.23v1.02M470 665.95V778M470 665.98v-1.03" stroke="#c92d39" stroke-width="2" fill="none"/><path d="M471 779.12l-1-.13-1 .12v-1.15h2z" fill="#c92d39"/><path d="M430 706.57V718M430 706.6v-1.03" stroke="#c92d39" stroke-width="2" fill="none"/><path d="M431 719.12l-1-.13-1 .12v-1.15h2z" fill="#c92d39"/><path d="M570 598V572.3" stroke="#c92d39" stroke-width="2" fill="none"/><path d="M571 599.12l-1-.13-1 .12v-1.15h2z" fill="#c92d39"/><path d="M570 572.34v-1.02M630 527.75V578M630 527.78v-1.03" stroke="#c92d39" stroke-width="2" fill="none"/><path d="M631 579.12l-1-.13-1 .12v-1.15h2z" fill="#c92d39"/><path d="M670 503.64V558M670 503.66v-1.02" stroke="#c92d39" stroke-width="2" fill="none"/><path d="M671 559.12l-1-.13-1 .12v-1.15h2z" fill="#c92d39"/><path d="M770 422v31.72" stroke="#c92d39" stroke-width="2" fill="none"/><path d="M771 422.04h-2v-1.2l1 .17 1-.15z" fill="#c92d39"/><path d="M770 453.7v1.02M810 439" stroke="#c92d39" stroke-width="2" fill="none"/><path fill="#c92d39"/><path fill="#c92d39"/><path d="M930 404.05V418M930 404.08v-1.03" stroke="#c92d39" stroke-width="2" fill="none"/><path d="M931 419.12l-1-.13-1 .12v-1.15h2z" fill="#c92d39"/><path d="M1080 480h340.56v40H1080z" fill="#fff" fill-opacity="0"/><path d="M1108.54 481.8l-1.98 7.4-.77-.1c.08-.76.13-1.48.13-2.06 0-2.4-1.62-3.66-4.56-3.66h-2.6l-6.2 22.1c-.26.95-.62 1.98-.62 2.97 0 1.4.54 1.76 2.4 1.94l1.57.13v.72h-13v-.72c3.12-.27 4.16-.95 4.84-3.38l6.44-23.77c-7.12 0-8.56.72-10.73 5.6l-.8-.2 1.88-6.98h24M1116.48 501.2l.72-1.58c.86-1.9 2.4-4.3 4.24-6.23 1.17-1.22 2.53-2.04 3.56-2.04 1.27 0 2.12.95 2.12 2.3 0 1.36-.76 2.44-2.12 2.44-.8 0-1.17-.5-1.58-1.17-.27-.45-.4-.63-.72-.63-.8 0-2.07 1.48-3.7 4.23-1.93 3.34-2.75 5.15-5 12.72h-3.43l3.66-13.17c.63-2.34.72-2.75.72-3.7 0-.94-.8-1.17-1.72-1.17-.36 0-.72.06-1.4.15v-.77l7-1.22.13.1M1148.05 506.25l.58.5c-3.38 4.1-4.46 4.95-6.27 4.95-1.26 0-1.8-.54-1.8-1.85 0-1.12.1-1.5 1.04-5.18-3.38 5.1-6 7.08-9.16 7.08-2.52 0-4.5-1.8-4.5-5.23 0-7 6.9-15.16 12.9-15.16 1.93 0 3.24.95 3.6 2.62l.5-2.16.13-.14 2.75-.32.32.14c-.1.4-.14.5-.27.95-2.12 7.7-4.02 15.46-4.02 16.37 0 .3.27.58.63.58.4 0 1-.36 2.35-1.85m-3.2-12.58c0-1.58-.95-2.6-2.53-2.6-2.03 0-4 1.38-5.9 4.14-1.9 2.85-3.48 6.86-3.48 9.7 0 2.48 1.08 3.34 2.7 3.34 2.26 0 4.38-2.48 5.73-4.42 2.12-3.07 3.48-6.95 3.48-10.15M1161.66 484.24c0 1.26-1.03 2.3-2.2 2.3-1.3 0-2.17-.95-2.17-2.4 0-1.4.9-2.38 2.1-2.38 1.23 0 2.26 1.17 2.26 2.48m-1.9 21.87l.6.5c-2.48 3.8-3.93 5.15-6.18 5.15-1.5 0-2.2-.8-2.2-2.48 0-.9.3-2.48.98-5l2.17-8c.22-.8.4-1.6.4-1.97 0-.9-.45-1.04-2.88-1.1v-.7c1.75-.14 2.66-.28 7.2-1.14l.2.14-4.25 15.47c-.22.76-.45 1.35-.45 1.98 0 .45.27.68.63.68.77 0 1.85-.95 3.8-3.52M1183.08 505.97l.63.6c-3.05 4.18-4.18 5.1-6.3 5.1-1.13 0-2.12-.73-2.12-2.45 0-.45.1-1.04.72-3.38l2-7.3c.35-1.4.62-3.03.62-3.57 0-.8-.4-1.3-1.08-1.3-1.8 0-3.84 2.2-6.68 6.4-2.03 3.02-2.4 4.06-4.5 11.18h-3.4l4.34-15.78c.05-.23.1-.5.1-.77 0-.9-.64-1.17-2.94-1.22v-.72c3.65-.72 4.9-.9 7.3-1.4l.2.1-3.04 9.83c4.5-7.23 7.53-9.94 10.42-9.94 1.94 0 2.93 1.13 2.93 2.76 0 .8-.18 1.75-.45 2.7l-2.52 9.15c-.46 1.63-.64 2.4-.64 2.76 0 .4.18.8.73.8.62 0 1.43-.7 2.74-2.38.3-.36.63-.77.94-1.18M1226 481.8l-1.4 6.95-.98-.1c.1-.76.14-1.48.14-2.07 0-2.7-1.58-3.3-8.66-3.3-2.57 0-3.02.2-3.3 1.2l-2.97 10.5h3.52c4.06 0 4.55-.55 6.27-4.38l.8.18-3.06 10.46-.9-.23c.23-.98.32-1.52.32-2.33 0-.77-.1-1.17-.32-1.4-.5-.45-1.7-.67-3.52-.67h-3.5l-1.46 5.05c-1.12 3.96-1.62 6.04-1.62 6.58 0 1.08 1.04 1.53 3.56 1.53 4.42 0 6.86-.54 9.16-1.76 1.44-.76 2.52-2.03 4.23-4.42l.74.37-2.8 7.3h-22.86v-.72c2.52-.45 2.93-.72 3.65-3.34l5.55-19.94c.27-.9.5-2.34.5-2.88 0-1.22-.68-1.58-3.48-1.85v-.73h22.4M1233.95 501.2l.72-1.58c.86-1.9 2.4-4.3 4.24-6.23 1.18-1.22 2.53-2.04 3.57-2.04 1.26 0 2.12.95 2.12 2.3 0 1.36-.78 2.44-2.13 2.44-.8 0-1.17-.5-1.58-1.17-.28-.45-.4-.63-.73-.63-.8 0-2.07 1.48-3.7 4.23-1.94 3.34-2.75 5.15-5 12.72h-3.43l3.65-13.17c.62-2.34.72-2.75.72-3.7 0-.94-.82-1.17-1.72-1.17-.36 0-.72.06-1.4.15v-.77l7-1.22.13.1M1252.57 501.2l.72-1.58c.85-1.9 2.38-4.3 4.23-6.23 1.17-1.22 2.53-2.04 3.56-2.04 1.26 0 2.1.95 2.1 2.3 0 1.36-.75 2.44-2.1 2.44-.82 0-1.18-.5-1.58-1.17-.27-.45-.4-.63-.73-.63-.82 0-2.08 1.48-3.7 4.23-1.94 3.34-2.75 5.15-5 12.72h-3.44l3.66-13.17c.63-2.34.72-2.75.72-3.7 0-.94-.8-1.17-1.72-1.17-.36 0-.72.06-1.4.15v-.77l7-1.22.13.1M1284.32 497.68c0 3.42-1.8 7.4-4.78 10.32-2.62 2.62-5.5 3.75-8.48 3.75-4.24 0-6.63-2.35-6.63-6.27 0-5.05 3.38-10.24 8.12-12.76 1.76-.95 3.56-1.36 5.4-1.36 3.66 0 6.37 2.35 6.37 6.32m-3.8-1.13c0-2.75-1.25-4.24-3.2-4.24-1.98 0-3.96 1.4-5.76 4.12-2.08 3.15-3.34 6.7-3.34 10.28 0 2.7 1.4 4.1 3.52 4.1 1.98 0 3.7-1.3 5.45-3.74 2.07-2.84 3.33-7.08 3.33-10.5M1293.74 501.2l.72-1.58c.86-1.9 2.4-4.3 4.24-6.23 1.17-1.22 2.53-2.04 3.56-2.04 1.27 0 2.12.95 2.12 2.3 0 1.36-.76 2.44-2.12 2.44-.8 0-1.17-.5-1.57-1.17-.28-.45-.42-.63-.74-.63-.8 0-2.07 1.48-3.7 4.23-1.93 3.34-2.74 5.15-5 12.72h-3.43l3.66-13.17c.62-2.34.7-2.75.7-3.7 0-.94-.8-1.17-1.7-1.17-.37 0-.73.06-1.4.15v-.77l7-1.22.12.1M1330.63 518.5l-.54.73c-7.14-4.06-11.02-11.68-11.02-19.34 0-8.35 3.93-14.85 11.14-19.13l.4.72c-6.26 5.36-7.66 9.55-7.66 18.25 0 8.4 1.35 13.48 7.67 18.76M1350.15 492.04l1.45 15.87c5.9-7.38 7.44-9.77 7.44-11.7 0-.55-.27-.9-1-1.6-.72-.67-.94-1.2-.94-1.84 0-.72.76-1.4 1.76-1.4 1.35 0 2.34 1.1 2.34 2.53 0 2.88-3.34 8.15-9.56 15.73l-.4.5c-1.22 1.48-1.63 1.93-2.03 1.93-.3 0-.4-.4-.5-1.58l-1.3-13.97-4 6.86c-.82 1.35-1.63 2.84-2.5 4.46-1.6 3.12-2.38 4.24-2.88 4.24-.4 0-.5-.36-.58-2.12l-.18-4.1c-.18-3.92-.68-8.75-1.22-10.9-.4-1.68-.8-1.9-2.12-1.9h-1.26v-.6c1.4-.22 2.93-.4 4.28-.76.6-.13 1-.32 1.3-.32.5 0 .55.1.87 1.54.64 3.06 1.27 8.7 1.45 12.67l8.66-13.7c.23-.37.37-.46.6-.46.26 0 .35.15.35.64M1363.37 481.5l.54-.73c6.9 4.15 11 11.68 11 19.34 0 8.35-3.96 14.76-11.13 19.13l-.4-.72c6.4-5.27 7.66-9.5 7.66-18.25 0-8.43-1.13-13.62-7.66-18.76M1418.33 496.82h-26.56v-2.98h26.56v2.98m0 9.02h-26.56v-2.98h26.56v2.98"/><path d="M1120 540h385.2v40H1120z" fill="#fff" fill-opacity="0"/><path d="M1131.22 577.6l-.44.6c-5.83-3.33-9-9.57-9-15.84 0-6.83 3.2-12.15 9.1-15.66l.34.6c-5.13 4.4-6.27 7.82-6.27 14.94 0 6.87 1.1 11.04 6.27 15.36M1142.04 548.14v9.08c4.46 2.4 5.4 3.33 6.38 4.84.52.77.78 1.96.78 3.32 0 4.28-2.92 5.7-7.16 6.28v3.2h-1.26v-3.2c-3.2 0-4.83-.52-6.86-1.9V565h.55c.77 3.7 3.06 5.64 6.3 5.64v-10.4c-5.08-2.88-6.56-4.4-6.56-7.5 0-3.7 3.15-5.35 6.58-5.57v-2.33h1.26v2.33c3 .18 4.8.8 5.94 1.95v4.1h-.55c-.74-3.06-2.44-4.7-5.4-5.06m-1.25 8.5v-8.5c-2.62.52-3.84 2-3.84 3.88 0 1.62.74 2.5 3.84 4.6m1.26 4.22v9.78c3-.62 4.2-1.77 4.2-4.4 0-2.24-.84-3.4-4.2-5.38M1158.47 566.02l-.13.84h-2.2l-2.26 8.56c-.03.1-.05.3-.05.36 0 .34.15.42.4.42.4 0 .82-.42 2.1-2.06l.34.18c-1.56 2.4-2.37 3.16-3.73 3.16-.7 0-1.2-.3-1.2-.96 0-.3.2-1.1.42-1.94l2.03-7.72h-1.96c-.03-.08-.03-.16-.03-.16 0-.3.24-.52.87-.65.84-.18 2.53-1.46 3.47-2.87.1-.16.26-.24.37-.24.16 0 .24.08.24.2 0 0 0 .14-.02.2l-.73 2.68h2.07M1163.07 571.37l.4-.9c.5-1.1 1.4-2.5 2.47-3.6.68-.72 1.46-1.2 2.06-1.2.73 0 1.23.56 1.23 1.34 0 .8-.45 1.42-1.23 1.42-.47 0-.68-.28-.9-.67-.17-.27-.25-.37-.43-.37-.47 0-1.2.86-2.14 2.45-1.12 1.93-1.6 2.98-2.9 7.36h-1.98l2.1-7.63c.38-1.35.43-1.6.43-2.14 0-.55-.47-.68-1-.68-.2 0-.4.03-.8.08v-.44l4.04-.72.08.06M1181.34 574.3l.34.28c-1.96 2.38-2.6 2.87-3.63 2.87-.73 0-1.04-.3-1.04-1.07 0-.65.06-.86.6-3-1.95 2.95-3.47 4.1-5.3 4.1-1.45 0-2.6-1.04-2.6-3.03 0-4.04 4-8.77 7.46-8.77 1.12 0 1.88.55 2.1 1.52l.28-1.26.08-.07 1.6-.2.17.1c-.06.23-.1.28-.17.54-1.22 4.47-2.32 8.96-2.32 9.48 0 .2.17.34.38.34.23 0 .57-.2 1.35-1.07m-1.85-7.28c0-.9-.55-1.5-1.46-1.5-1.18 0-2.32.8-3.42 2.4-1.1 1.63-2 3.96-2 5.6 0 1.44.62 1.93 1.56 1.93 1.3 0 2.53-1.43 3.3-2.56 1.24-1.77 2.02-4.02 2.02-5.87M1189.22 561.56c0 .73-.6 1.33-1.28 1.33-.76 0-1.25-.56-1.25-1.4 0-.8.5-1.38 1.22-1.38.7 0 1.3.68 1.3 1.44m-1.1 12.66l.34.3c-1.43 2.18-2.27 2.96-3.57 2.96-.87 0-1.3-.47-1.3-1.43 0-.53.2-1.44.58-2.9l1.26-4.62c.13-.47.23-.94.23-1.15 0-.52-.26-.6-1.67-.63v-.4c1.02-.1 1.54-.17 4.18-.67l.1.08-2.45 8.95c-.13.46-.26.8-.26 1.16 0 .26.15.4.36.4.45 0 1.07-.55 2.2-2.04M1201.62 574.14l.36.34c-1.77 2.43-2.42 2.95-3.65 2.95-.65 0-1.23-.42-1.23-1.4 0-.27.06-.6.42-1.97l1.15-4.23c.2-.8.36-1.75.36-2.06 0-.47-.23-.76-.62-.76-1.04 0-2.2 1.3-3.86 3.72-1.17 1.75-1.38 2.35-2.6 6.47h-1.96l2.5-9.14c.03-.13.06-.3.06-.45 0-.5-.37-.66-1.7-.7v-.4c2.1-.43 2.84-.53 4.23-.82l.1.06-1.75 5.7c2.6-4.2 4.36-5.76 6.03-5.76 1.12 0 1.7.66 1.7 1.6 0 .47-.1 1-.26 1.56l-1.47 5.3c-.27.94-.37 1.38-.37 1.6 0 .23.1.46.42.46.36 0 .83-.42 1.6-1.38l.54-.68M1212.95 577.2h-7.2v-.4c1.92-.1 2.47-.65 2.47-2.1V563c0-.9-.23-1.28-.78-1.28-.26 0-.7.13-1.18.3l-.7.27v-.38l4.67-2.37.24.08v15.58c0 1.13.52 1.6 2.48 1.6v.4M1250.56 563.54H1230v-2.44h20.56v2.44M1262.67 555.86h3.43c.8-2.62 1.44-4.65 2.66-6.4 1.1-1.57 2.62-2.83 4.87-2.83 1.8 0 3.17.96 3.17 2.3 0 .8-.7 1.58-1.55 1.58-.66 0-1.36-.55-1.36-1.43 0-.63.36-.82.36-1.15 0-.3-.3-.48-.82-.48-2.06 0-3.43 2.6-4.5 8.42h3.95l-.23 1.18h-4l-2.65 11.8c-1.55 6.84-4.02 10.46-7.38 10.46-1.66 0-2.9-.96-2.9-2.25 0-.85.6-1.55 1.4-1.55.84 0 1.4.6 1.4 1.36 0 .48-.34.67-.34 1.07 0 .33.3.6.74.6 1.55 0 2.73-2 3.58-6l3.25-15.5h-3.36M1281.93 566.1l.83 9.18c3.42-4.28 4.3-5.66 4.3-6.78 0-.3-.15-.52-.56-.9-.42-.4-.55-.72-.55-1.08 0-.42.44-.8 1.02-.8.78 0 1.35.6 1.35 1.45 0 1.67-1.93 4.72-5.53 9.1l-.25.3c-.7.86-.94 1.12-1.17 1.12-.18 0-.23-.25-.3-.93l-.74-8.1-2.33 3.98c-.46.78-.93 1.64-1.42 2.58-.94 1.8-1.4 2.46-1.67 2.46-.23 0-.28-.22-.33-1.24l-.1-2.38c-.1-2.27-.4-5.06-.7-6.3-.25-.98-.48-1.1-1.24-1.1h-.73v-.35c.8-.13 1.7-.23 2.48-.44.34-.1.57-.2.76-.2.28 0 .3.06.5.9.36 1.77.72 5.03.83 7.33l5-7.94c.14-.22.22-.27.35-.27.16 0 .2.08.2.37M1303.6 577.42h-7.8v-30.2h7.8v.92h-3.06c-1.26 0-1.92.45-1.92 1.78v24.58c0 1.48.7 2 1.92 2h3.06v.92M1318.37 555.34l-.74 5.17h-.6c-.36-3.05-1.47-4.27-3.28-4.27-1.3 0-2.18.74-2.18 2.1 0 1 .56 2.07 2 3.77 1.84 2.14 2.5 3.58 2.5 5.02 0 3.06-2.24 4.94-5.3 4.94-.64 0-1.2-.03-2.04-.37-.7-.3-1.22-.34-1.62-.34-.4 0-.8.2-1.06.78h-.6l.74-5.87h.6c.5 3.5 1.77 5.02 3.7 5.02 1.72 0 2.8-1.05 2.8-2.85 0-1.2-.64-2.44-2.08-4.25-1.58-2-2.32-3.65-2.32-4.83 0-2.44 1.73-4 4.47-4 .62 0 1.14.12 2.06.38.7.22 1.05.26 1.34.26.56 0 .8-.14 1.1-.66h.53M1337.12 555.86l-6.1 21.37c-.03.15-.07.3-.07.4 0 .7.74 1.15 2.1 1.15h.56v.6h-8.74v-.6c2.33-.15 2.96-.7 3.36-2.07l3.32-10.7c-2.95 4.7-4.83 6.06-7.67 6.06-2.33 0-3.7-1.66-3.7-4.28 0-5.83 5.76-12.4 10.82-12.4 1.5 0 2.46.63 2.83 2.3l.6-1.82h2.7m-3.85 2.55c0-1.2-.96-2.2-2.18-2.2-1.07 0-2.25.7-3.43 1.8-2.5 2.4-4.32 6.2-4.32 9.26 0 1.74.6 2.85 1.96 2.85.93 0 2.07-.47 3.03-1.32 2.5-2.18 4.95-7.3 4.95-10.37M1344.4 570.07c0 1.07-.97 2-2.08 2-1.14 0-2.03-.9-2.03-2.04 0-1.14.9-2.06 2.06-2.06 1.07 0 2.03 1 2.03 2.1M1354.6 555.86h3.45c.8-2.62 1.44-4.65 2.65-6.4 1.1-1.57 2.62-2.83 4.88-2.83 1.8 0 3.17.96 3.17 2.3 0 .8-.7 1.58-1.55 1.58-.66 0-1.37-.55-1.37-1.43 0-.63.37-.82.37-1.15 0-.3-.3-.48-.8-.48-2.08 0-3.44 2.6-4.5 8.42h3.94l-.22 1.18h-4l-2.65 11.8c-1.55 6.84-4.02 10.46-7.38 10.46-1.67 0-2.93-.96-2.93-2.25 0-.85.63-1.55 1.4-1.55.86 0 1.4.6 1.4 1.36 0 .48-.32.67-.32 1.07 0 .33.3.6.74.6 1.54 0 2.72-2 3.57-6l3.24-15.5h-3.34M1379.7 555.86l-.17 1.18h-3.1l-3.2 12.1c-.05.15-.1.4-.1.52 0 .48.23.6.57.6.6 0 1.18-.6 3-2.92l.47.26c-2.22 3.4-3.36 4.46-5.28 4.46-1 0-1.7-.44-1.7-1.36 0-.4.3-1.55.58-2.73l2.88-10.93h-2.77c-.05-.1-.05-.22-.05-.22 0-.4.34-.74 1.22-.92 1.18-.26 3.58-2.07 4.9-4.06.16-.23.38-.34.53-.34.22 0 .33.1.33.3 0 0 0 .18-.04.26l-1.04 3.8h2.95M1386.4 570.07c0 1.07-.96 2-2.07 2-1.15 0-2.03-.9-2.03-2.04 0-1.14.92-2.06 2.06-2.06 1.08 0 2.03 1 2.03 2.1M1396.67 566.02l-.13.84h-2.2l-2.27 8.56-.05.36c0 .34.16.42.4.42.4 0 .83-.42 2.1-2.06l.35.18c-1.57 2.4-2.38 3.16-3.74 3.16-.7 0-1.2-.3-1.2-.96 0-.3.2-1.1.42-1.94l2.04-7.72h-1.97c-.03-.08-.03-.16-.03-.16 0-.3.24-.52.86-.65.84-.18 2.54-1.46 3.48-2.87.1-.16.26-.24.36-.24.16 0 .24.08.24.2 0 0 0 .14-.03.2l-.72 2.68h2.1M1401.26 571.37l.42-.9c.5-1.1 1.38-2.5 2.45-3.6.68-.72 1.46-1.2 2.06-1.2.73 0 1.22.56 1.22 1.34 0 .8-.44 1.42-1.23 1.42-.48 0-.68-.28-.92-.67-.16-.27-.23-.37-.42-.37-.47 0-1.2.86-2.14 2.45-1.12 1.93-1.6 2.98-2.9 7.36h-1.98l2.12-7.63c.36-1.35.4-1.6.4-2.14 0-.55-.46-.68-.98-.68-.2 0-.42.03-.8.08v-.44l4.04-.72.08.06M1419.53 574.3l.34.28c-1.96 2.38-2.58 2.87-3.63 2.87-.73 0-1.04-.3-1.04-1.07 0-.65.05-.86.6-3-1.96 2.95-3.47 4.1-5.3 4.1-1.46 0-2.6-1.04-2.6-3.03 0-4.04 3.98-8.77 7.46-8.77 1.12 0 1.87.55 2.08 1.52l.3-1.26.07-.07 1.6-.2.18.1c-.05.23-.07.28-.15.54-1.23 4.47-2.33 8.96-2.33 9.48 0 .2.16.34.37.34.23 0 .57-.2 1.36-1.07m-1.86-7.28c0-.9-.54-1.5-1.46-1.5-1.16 0-2.3.8-3.4 2.4-1.1 1.63-2.02 3.96-2.02 5.6 0 1.44.63 1.93 1.57 1.93 1.3 0 2.53-1.43 3.3-2.56 1.24-1.77 2.02-4.02 2.02-5.87M1427.4 561.56c0 .73-.6 1.33-1.26 1.33-.76 0-1.26-.56-1.26-1.4 0-.8.52-1.38 1.23-1.38.7 0 1.3.68 1.3 1.44m-1.08 12.66l.34.3c-1.44 2.18-2.27 2.96-3.58 2.96-.86 0-1.28-.47-1.28-1.43 0-.53.2-1.44.58-2.9l1.25-4.62c.13-.47.23-.94.23-1.15 0-.52-.26-.6-1.67-.63v-.4c1-.1 1.53-.17 4.17-.67l.1.08-2.45 8.95c-.13.46-.26.8-.26 1.16 0 .26.16.4.37.4.44 0 1.07-.55 2.2-2.04M1439.8 574.14l.38.34c-1.78 2.43-2.43 2.95-3.66 2.95-.65 0-1.22-.42-1.22-1.4 0-.27.05-.6.4-1.97l1.16-4.23c.2-.8.37-1.75.37-2.06 0-.47-.24-.76-.63-.76-1.04 0-2.22 1.3-3.86 3.72-1.18 1.75-1.38 2.35-2.6 6.47h-1.97l2.5-9.14c.03-.13.06-.3.06-.45 0-.5-.37-.66-1.7-.7v-.4c2.12-.43 2.85-.53 4.23-.82l.1.06-1.74 5.7c2.6-4.2 4.36-5.76 6.03-5.76 1.12 0 1.7.66 1.7 1.6 0 .47-.1 1-.27 1.56l-1.46 5.3c-.26.94-.37 1.38-.37 1.6 0 .23.1.46.42.46.37 0 .84-.42 1.6-1.38.18-.2.36-.45.54-.68M1451.14 577.2h-7.2v-.4c1.93-.1 2.48-.65 2.48-2.1V563c0-.9-.24-1.28-.8-1.28-.25 0-.7.13-1.16.3l-.7.27v-.38l4.67-2.37.23.08v15.58c0 1.13.52 1.6 2.48 1.6v.4M1472.84 577.42h-7.8v-.93h3.26c1.3 0 1.74-.56 1.74-1.7v-24.66c0-1.3-.48-2-1.88-2h-3.1v-.92h7.78v30.2M1477.2 547.3l.44-.6c5.65 3.4 9 9.56 9 15.84 0 6.83-3.24 12.07-9.1 15.65l-.34-.6c5.24-4.32 6.27-7.8 6.27-14.95 0-6.9-.92-11.15-6.27-15.36M1500.8 554.7l-1.42 3.57h-10.2v-.32l4.64-4.93c2.46-2.58 3.4-4.57 3.4-6.8 0-2.36-1.4-3.67-3.63-3.67-1.9 0-2.8.84-3.85 3.4l-.55-.13c.55-3.06 2.22-5.2 5.43-5.2 2.95 0 4.83 2 4.83 4.6 0 2.06-1.02 4.02-3.34 6.47l-4.3 4.58h6.1c1.1 0 1.65-.28 2.5-1.75"/><path d="M1094.7 598.3h410.5v40h-410.5z" fill="#fff" fill-opacity="0"/><path d="M1118.17 621.83h-9.63v9.63h-2.44v-9.63h-9.63v-2.44h9.63v-9.64h2.44v9.63h9.63v2.43M1131.2 635.9l-.44.58c-5.83-3.32-9-9.56-9-15.83 0-6.83 3.2-12.14 9.1-15.65l.34.6c-5.13 4.38-6.27 7.8-6.27 14.94 0 6.86 1.1 11.04 6.27 15.35M1142.05 606.44v9.08c4.47 2.4 5.4 3.32 6.4 4.83.5.78.77 1.96.77 3.33 0 4.28-2.92 5.68-7.17 6.27v3.2h-1.25v-3.2c-3.2 0-4.84-.52-6.87-1.88v-4.8h.56c.76 3.7 3.05 5.65 6.3 5.65v-10.4c-5.1-2.9-6.57-4.4-6.57-7.5 0-3.7 3.14-5.36 6.57-5.58v-2.32h1.25v2.32c3 .2 4.8.8 5.95 1.96v4.1h-.56c-.73-3.07-2.43-4.7-5.4-5.06m-1.24 8.5v-8.5c-2.62.52-3.84 2-3.84 3.87 0 1.64.74 2.52 3.84 4.63m1.25 4.2v9.8c3-.64 4.2-1.78 4.2-4.4 0-2.26-.84-3.4-4.2-5.4M1158.5 624.32l-.14.83h-2.2l-2.26 8.56c-.03.12-.05.3-.05.38 0 .34.15.42.4.42.4 0 .82-.42 2.1-2.07l.34.2c-1.57 2.4-2.38 3.15-3.74 3.15-.7 0-1.2-.32-1.2-.97 0-.28.2-1.1.42-1.92l2.03-7.73h-1.95l-.02-.15c0-.3.23-.53.86-.66.82-.18 2.52-1.46 3.46-2.87.1-.15.26-.23.37-.23.15 0 .23.08.23.2 0 0 0 .14-.03.2l-.73 2.68h2.1M1163.1 629.67l.4-.92c.5-1.1 1.4-2.48 2.46-3.6.68-.7 1.46-1.17 2.06-1.17.73 0 1.23.55 1.23 1.33 0 .8-.45 1.42-1.23 1.42-.47 0-.68-.3-.9-.68-.17-.26-.25-.37-.43-.37-.48 0-1.2.87-2.15 2.46-1.12 1.93-1.6 2.97-2.9 7.36h-1.98l2.1-7.63c.38-1.36.43-1.6.43-2.14 0-.55-.47-.68-1-.68-.2 0-.4.02-.8.08v-.45l4.04-.7.08.05M1181.36 632.6l.34.28c-1.96 2.37-2.6 2.87-3.63 2.87-.73 0-1.05-.3-1.05-1.07 0-.65.06-.86.6-3-1.95 2.95-3.47 4.1-5.3 4.1-1.46 0-2.6-1.05-2.6-3.03 0-4.05 4-8.77 7.46-8.77 1.12 0 1.88.55 2.1 1.5l.28-1.24.07-.08 1.6-.18.18.08c-.04.23-.07.28-.15.54-1.22 4.47-2.32 8.96-2.32 9.48 0 .18.16.34.36.34.23 0 .57-.2 1.35-1.07m-1.85-7.28c0-.92-.55-1.52-1.46-1.52-1.18 0-2.33.8-3.42 2.4-1.1 1.65-2 3.97-2 5.6 0 1.45.6 1.95 1.55 1.95 1.3 0 2.54-1.44 3.32-2.56 1.22-1.78 2-4.02 2-5.87M1189.24 619.85c0 .73-.6 1.33-1.28 1.33-.76 0-1.25-.54-1.25-1.38 0-.8.53-1.38 1.23-1.38s1.3.68 1.3 1.43m-1.1 12.66l.35.3c-1.43 2.2-2.27 2.98-3.57 2.98-.86 0-1.27-.47-1.27-1.44 0-.52.18-1.44.57-2.9l1.25-4.62c.13-.47.24-.94.24-1.15 0-.52-.27-.6-1.68-.62v-.42c1.02-.08 1.54-.16 4.17-.65l.1.08-2.45 8.95c-.13.45-.27.8-.27 1.16 0 .26.16.4.37.4.44 0 1.07-.56 2.2-2.05M1201.64 632.43l.36.34c-1.77 2.43-2.43 2.95-3.65 2.95-.65 0-1.23-.4-1.23-1.4 0-.27.05-.6.42-1.96l1.15-4.23c.2-.8.35-1.75.35-2.06 0-.47-.23-.76-.62-.76-1.05 0-2.22 1.3-3.87 3.72-1.17 1.74-1.38 2.34-2.6 6.47H1190l2.5-9.15c.03-.13.05-.28.05-.44 0-.5-.36-.67-1.7-.7v-.4c2.12-.43 2.85-.54 4.24-.82l.1.05-1.76 5.7c2.6-4.2 4.36-5.75 6.03-5.75 1.12 0 1.7.65 1.7 1.6 0 .46-.1 1-.26 1.56l-1.46 5.3c-.26.93-.36 1.38-.36 1.6 0 .22.1.46.42.46.36 0 .83-.42 1.6-1.4l.54-.67M1215.05 631.9l-1.4 3.6h-10.2v-.32l4.63-4.94c2.46-2.58 3.4-4.57 3.4-6.78 0-2.38-1.4-3.68-3.63-3.68-1.88 0-2.8.83-3.84 3.4l-.54-.14c.55-3.06 2.22-5.2 5.43-5.2 2.94 0 4.82 2 4.82 4.6 0 2.06-1.02 4.02-3.34 6.47l-4.3 4.6h6.1c1.1 0 1.65-.28 2.5-1.74M1250.58 621.83h-20.56v-2.44h20.56v2.43M1262.68 614.15h3.44c.8-2.62 1.44-4.65 2.65-6.38 1.1-1.6 2.63-2.84 4.88-2.84 1.8 0 3.17.95 3.17 2.28 0 .83-.7 1.6-1.55 1.6-.66 0-1.36-.55-1.36-1.44 0-.63.37-.8.37-1.14 0-.3-.3-.48-.8-.48-2.07 0-3.44 2.58-4.5 8.4h3.94l-.2 1.2h-4l-2.66 11.8c-1.55 6.83-4.02 10.45-7.38 10.45-1.66 0-2.92-.97-2.92-2.26 0-.85.63-1.55 1.4-1.55.86 0 1.4.58 1.4 1.36 0 .48-.32.66-.32 1.07 0 .33.3.6.74.6 1.55 0 2.73-2 3.58-6l3.24-15.5h-3.35M1281.95 624.4l.83 9.18c3.42-4.28 4.3-5.66 4.3-6.8 0-.3-.15-.5-.57-.9-.4-.4-.53-.7-.53-1.07 0-.4.44-.8 1-.8.8 0 1.37.63 1.37 1.46 0 1.67-1.93 4.73-5.53 9.1l-.23.3c-.7.86-.94 1.12-1.17 1.12-.18 0-.24-.23-.3-.9l-.75-8.1-2.32 3.96c-.47.8-.94 1.65-1.43 2.6-.94 1.8-1.4 2.44-1.67 2.44-.24 0-.3-.2-.34-1.23l-.12-2.37c-.1-2.27-.4-5.06-.7-6.32-.24-.96-.47-1.1-1.23-1.1h-.73v-.33c.8-.13 1.7-.24 2.48-.45.34-.08.57-.18.76-.18.28 0 .3.05.5.9.36 1.76.72 5.03.83 7.32l5-7.93c.13-.22.2-.27.34-.27.15 0 .2.07.2.36M1303.58 635.7h-7.8v-30.18h7.8v.92h-3.06c-1.26 0-1.92.44-1.92 1.77v24.6c0 1.47.7 2 1.92 2h3.06v.9M1318.38 613.64l-.73 5.16h-.6c-.36-3.06-1.47-4.28-3.28-4.28-1.3 0-2.18.74-2.18 2.1 0 1 .55 2.07 2 3.77 1.83 2.13 2.5 3.57 2.5 5 0 3.07-2.26 4.96-5.32 4.96-.63 0-1.18-.04-2.03-.37-.7-.3-1.22-.34-1.62-.34-.4 0-.82.18-1.07.77h-.6l.74-5.87h.6c.5 3.5 1.77 5.02 3.68 5.02 1.74 0 2.8-1.03 2.8-2.84 0-1.18-.62-2.44-2.06-4.24-1.58-2-2.32-3.66-2.32-4.84 0-2.44 1.73-4 4.46-4 .63 0 1.15.12 2.07.38.7.22 1.03.26 1.33.26.55 0 .8-.15 1.1-.66h.52M1337.1 614.15l-6.1 21.38c-.03.14-.07.3-.07.4 0 .7.74 1.15 2.1 1.15h.56v.6h-8.76v-.6c2.33-.15 2.96-.7 3.36-2.07l3.32-10.7c-2.95 4.7-4.83 6.06-7.67 6.06-2.33 0-3.7-1.66-3.7-4.28 0-5.84 5.76-12.4 10.82-12.4 1.5 0 2.47.62 2.84 2.28l.6-1.8h2.7m-3.84 2.54c0-1.22-.96-2.2-2.18-2.2-1.07 0-2.25.7-3.43 1.8-2.5 2.4-4.32 6.2-4.32 9.26 0 1.73.6 2.84 1.96 2.84.9 0 2.05-.48 3-1.33 2.52-2.18 4.96-7.3 4.96-10.37M1344.4 628.36c0 1.07-.95 2-2.06 2-1.14 0-2.03-.9-2.03-2.03 0-1.15.93-2.07 2.08-2.07 1.07 0 2.03 1 2.03 2.1M1354.63 614.15h3.43c.82-2.62 1.44-4.65 2.66-6.38 1.1-1.6 2.62-2.84 4.87-2.84 1.8 0 3.17.95 3.17 2.28 0 .83-.7 1.6-1.55 1.6-.67 0-1.37-.55-1.37-1.44 0-.63.37-.8.37-1.14 0-.3-.3-.48-.8-.48-2.08 0-3.44 2.58-4.5 8.4h3.94l-.22 1.2h-4l-2.65 11.8c-1.56 6.83-4.03 10.45-7.4 10.45-1.65 0-2.9-.97-2.9-2.26 0-.85.62-1.55 1.4-1.55.84 0 1.4.58 1.4 1.36 0 .48-.33.66-.33 1.07 0 .33.3.6.73.6 1.55 0 2.74-2 3.58-6l3.25-15.5h-3.36M1379.7 614.15l-.2 1.18h-3.1l-3.2 12.1c-.04.16-.08.42-.08.53 0 .48.23.6.56.6.6 0 1.18-.6 3-2.93l.47.26c-2.22 3.4-3.36 4.46-5.28 4.46-1 0-1.7-.45-1.7-1.37 0-.4.3-1.56.6-2.74l2.87-10.93h-2.77c-.03-.1-.03-.22-.03-.22 0-.4.33-.73 1.2-.9 1.2-.27 3.6-2.08 4.92-4.07.15-.22.37-.33.52-.33.22 0 .33.1.33.3 0 0 0 .18-.02.25l-1.04 3.8h2.96M1386.4 628.36c0 1.07-.95 2-2.05 2-1.15 0-2.03-.9-2.03-2.03 0-1.15.92-2.07 2.06-2.07 1.07 0 2.03 1 2.03 2.1M1396.7 624.32l-.14.83h-2.2l-2.27 8.56c-.03.12-.06.3-.06.38 0 .34.16.42.4.42.4 0 .83-.42 2.1-2.07l.35.2c-1.58 2.4-2.4 3.15-3.75 3.15-.7 0-1.2-.32-1.2-.97 0-.28.2-1.1.42-1.92l2.04-7.73h-1.95c-.03-.08-.03-.15-.03-.15 0-.3.24-.53.86-.66.84-.18 2.53-1.46 3.47-2.87.1-.15.27-.23.37-.23.16 0 .23.08.23.2 0 0 0 .14-.02.2l-.73 2.68h2.1M1401.28 629.67l.42-.92c.5-1.1 1.38-2.48 2.45-3.6.68-.7 1.46-1.17 2.06-1.17.74 0 1.24.55 1.24 1.33 0 .8-.44 1.42-1.23 1.42-.46 0-.67-.3-.9-.68-.16-.26-.24-.37-.42-.37-.47 0-1.2.87-2.14 2.46-1.12 1.93-1.6 2.97-2.9 7.36h-1.98l2.1-7.63c.38-1.36.43-1.6.43-2.14 0-.55-.48-.68-1-.68-.2 0-.42.02-.8.08v-.45l4.04-.7.08.05M1419.55 632.6l.34.28c-1.97 2.37-2.6 2.87-3.64 2.87-.73 0-1.04-.3-1.04-1.07 0-.65.05-.86.6-3-1.96 2.95-3.47 4.1-5.3 4.1-1.46 0-2.6-1.05-2.6-3.03 0-4.05 3.98-8.77 7.45-8.77 1.13 0 1.88.55 2.1 1.5l.28-1.24.08-.08 1.6-.18.17.08c-.05.23-.08.28-.15.54-1.23 4.47-2.33 8.96-2.33 9.48 0 .18.16.34.37.34.22 0 .56-.2 1.35-1.07m-1.86-7.28c0-.92-.56-1.52-1.47-1.52-1.17 0-2.32.8-3.42 2.4-1.08 1.65-2 3.97-2 5.6 0 1.45.63 1.95 1.57 1.95 1.3 0 2.53-1.44 3.3-2.56 1.24-1.78 2.02-4.02 2.02-5.87M1427.43 619.85c0 .73-.6 1.33-1.28 1.33-.75 0-1.25-.54-1.25-1.38 0-.8.52-1.38 1.23-1.38.7 0 1.3.68 1.3 1.43m-1.1 12.66l.35.3c-1.44 2.2-2.27 2.98-3.58 2.98-.86 0-1.28-.47-1.28-1.44 0-.52.18-1.44.58-2.9l1.25-4.62c.13-.47.23-.94.23-1.15 0-.52-.26-.6-1.67-.62v-.42c1.03-.08 1.55-.16 4.2-.65l.1.08-2.46 8.95c-.13.45-.26.8-.26 1.16 0 .26.16.4.36.4.45 0 1.07-.56 2.2-2.05M1439.83 632.43l.37.34c-1.78 2.43-2.43 2.95-3.66 2.95-.65 0-1.22-.4-1.22-1.4 0-.27.05-.6.4-1.96l1.16-4.23c.2-.8.37-1.75.37-2.06 0-.47-.24-.76-.63-.76-1.04 0-2.22 1.3-3.86 3.72-1.18 1.74-1.4 2.34-2.6 6.47h-1.97l2.5-9.15c.02-.13.05-.28.05-.44 0-.5-.37-.67-1.7-.7v-.4c2.12-.43 2.85-.54 4.23-.82l.1.05-1.75 5.7c2.62-4.2 4.36-5.75 6.03-5.75 1.13 0 1.7.65 1.7 1.6 0 .46-.1 1-.26 1.56l-1.46 5.3c-.26.93-.37 1.38-.37 1.6 0 .22.1.46.42.46.36 0 .83-.42 1.58-1.4.2-.2.37-.43.55-.67M1453.25 631.9l-1.4 3.6h-10.22v-.32l4.65-4.94c2.45-2.58 3.4-4.57 3.4-6.78 0-2.38-1.42-3.68-3.64-3.68-1.88 0-2.8.83-3.83 3.4l-.54-.14c.55-3.06 2.22-5.2 5.43-5.2 2.94 0 4.82 2 4.82 4.6 0 2.06-1.02 4.02-3.35 6.47l-4.3 4.6h6.1c1.1 0 1.65-.28 2.5-1.74M1472.86 635.7h-7.8v-.9h3.26c1.3 0 1.74-.57 1.74-1.7v-24.67c0-1.3-.48-2-1.9-2h-3.1v-.9h7.8v30.18M1477.18 605.6l.44-.6c5.65 3.4 9 9.56 9 15.83 0 6.83-3.24 12.07-9.1 15.65l-.34-.6c5.24-4.3 6.28-7.77 6.28-14.94 0-6.9-.93-11.14-6.28-15.35M1500.77 613l-1.4 3.56h-10.2v-.3l4.64-4.94c2.46-2.6 3.4-4.57 3.4-6.8 0-2.37-1.4-3.67-3.63-3.67-1.88 0-2.8.83-3.84 3.4l-.54-.14c.53-3.04 2.2-5.18 5.42-5.18 2.94 0 4.82 2 4.82 4.6 0 2.05-1 4-3.34 6.46l-4.3 4.6h6.1c1.1 0 1.65-.3 2.5-1.75"/><path d="M1094.7 649.15h410.5v40h-410.5z" fill="#fff" fill-opacity="0"/><path d="M1118.17 672.68h-9.63v9.64h-2.44v-9.64h-9.63v-2.43h9.63v-9.64h2.44v9.65h9.63v2.43M1131.2 686.75l-.44.6c-5.83-3.33-9-9.57-9-15.85 0-6.83 3.2-12.14 9.1-15.65l.34.6c-5.13 4.38-6.27 7.82-6.27 14.94 0 6.86 1.1 11.03 6.27 15.35M1142.05 657.3v9.07c4.47 2.4 5.4 3.32 6.4 4.84.5.78.77 1.96.77 3.33 0 4.28-2.92 5.68-7.17 6.27v3.22h-1.25v-3.22c-3.2 0-4.84-.5-6.87-1.88v-4.8h.56c.76 3.7 3.05 5.65 6.3 5.65v-10.4c-5.1-2.9-6.57-4.4-6.57-7.5 0-3.7 3.14-5.35 6.57-5.58v-2.33h1.25v2.32c3 .18 4.8.8 5.95 1.95v4.1h-.56c-.73-3.07-2.43-4.7-5.4-5.06m-1.24 8.48v-8.5c-2.62.53-3.84 2-3.84 3.9 0 1.6.74 2.5 3.84 4.6m1.25 4.2v9.8c3-.64 4.2-1.78 4.2-4.4 0-2.25-.84-3.4-4.2-5.4M1158.5 675.17l-.14.84h-2.2l-2.26 8.57c-.03.1-.05.28-.05.36 0 .34.15.42.4.42.4 0 .82-.42 2.1-2.06l.34.17c-1.57 2.4-2.38 3.16-3.74 3.16-.7 0-1.2-.32-1.2-.97 0-.28.2-1.1.42-1.93l2.03-7.72h-1.95c-.02-.07-.02-.15-.02-.15 0-.3.23-.52.86-.65.82-.2 2.52-1.47 3.46-2.88.1-.15.26-.23.37-.23.15 0 .23.07.23.2 0 0 0 .13-.03.18l-.73 2.7h2.1M1163.1 680.52l.4-.9c.5-1.1 1.4-2.5 2.46-3.6.68-.72 1.46-1.2 2.06-1.2.73 0 1.23.56 1.23 1.34s-.45 1.4-1.23 1.4c-.47 0-.68-.28-.9-.67-.17-.27-.25-.37-.43-.37-.48 0-1.2.86-2.15 2.45-1.12 1.93-1.6 2.98-2.9 7.36h-1.98l2.1-7.62c.38-1.36.43-1.6.43-2.14 0-.55-.47-.68-1-.68-.2 0-.4.03-.8.08v-.44l4.04-.7.08.04M1181.36 683.44l.34.3c-1.96 2.37-2.6 2.86-3.63 2.86-.73 0-1.05-.3-1.05-1.07 0-.65.06-.86.6-3-1.95 2.95-3.47 4.1-5.3 4.1-1.46 0-2.6-1.05-2.6-3.03 0-4.05 4-8.77 7.46-8.77 1.12 0 1.88.55 2.1 1.5l.28-1.24.07-.1 1.6-.17.18.08c-.04.24-.07.3-.15.56-1.22 4.46-2.32 8.95-2.32 9.47 0 .18.16.34.36.34.23 0 .57-.2 1.35-1.07m-1.85-7.28c0-.9-.55-1.52-1.46-1.52-1.18 0-2.33.8-3.42 2.4-1.1 1.65-2 3.97-2 5.62 0 1.43.6 1.93 1.55 1.93 1.3 0 2.54-1.44 3.32-2.56 1.22-1.78 2-4.03 2-5.88M1189.24 670.7c0 .74-.6 1.34-1.28 1.34-.76 0-1.25-.55-1.25-1.4 0-.8.53-1.37 1.23-1.37s1.3.68 1.3 1.44m-1.1 12.67l.35.28c-1.43 2.2-2.27 2.98-3.57 2.98-.86 0-1.27-.47-1.27-1.44 0-.53.18-1.44.57-2.9l1.25-4.62c.13-.47.24-.94.24-1.15 0-.52-.27-.6-1.68-.63v-.42c1.02-.08 1.54-.15 4.17-.65l.1.08-2.45 8.96c-.13.45-.27.78-.27 1.15 0 .27.16.4.37.4.44 0 1.07-.55 2.2-2.03M1201.64 683.3l.36.33c-1.77 2.42-2.43 2.95-3.65 2.95-.65 0-1.23-.42-1.23-1.4 0-.27.05-.6.42-1.97l1.15-4.22c.2-.8.35-1.75.35-2.06 0-.47-.23-.76-.62-.76-1.05 0-2.22 1.28-3.87 3.7-1.17 1.76-1.38 2.36-2.6 6.48H1190l2.5-9.13c.03-.12.05-.28.05-.44 0-.52-.36-.68-1.7-.7v-.42c2.12-.42 2.85-.52 4.24-.8l.1.04-1.76 5.7c2.6-4.18 4.36-5.75 6.03-5.75 1.12 0 1.7.65 1.7 1.6 0 .46-.1 1-.26 1.56l-1.46 5.3c-.26.93-.36 1.37-.36 1.58 0 .23.1.47.42.47.36 0 .83-.42 1.6-1.38l.54-.68M1204.27 673.03l-.4-.1c.74-2.48 2.4-4.23 5.1-4.23 2.43 0 4.07 1.43 4.07 3.57 0 1.26-.68 2.56-2.42 3.6 1.14.5 1.6.8 2.16 1.4.73.8 1.15 2 1.15 3.35 0 1.4-.44 2.67-1.2 3.66-1.25 1.67-3.73 2.43-6.06 2.43-1.9 0-2.92-.54-2.92-1.48 0-.55.47-.94 1.07-.94.44 0 .86.16 1.6.68.96.68 1.5.8 2.24.8 1.93 0 3.4-1.77 3.4-4 0-1.97-.92-3.25-2.72-3.77-.58-.2-1.18-.27-2.67-.27v-.37c1-.34 1.67-.62 2.2-.94 1.28-.73 2.1-1.9 2.1-3.5 0-1.77-1.1-2.66-2.8-2.66-1.63 0-2.83.84-3.9 2.77M1250.58 672.68h-20.56v-2.43h20.56v2.43M1262.68 665h3.44c.8-2.6 1.44-4.65 2.65-6.38 1.1-1.6 2.63-2.84 4.88-2.84 1.8 0 3.17.96 3.17 2.3 0 .8-.7 1.57-1.55 1.57-.66 0-1.36-.55-1.36-1.44 0-.6.37-.8.37-1.13 0-.3-.3-.48-.8-.48-2.07 0-3.44 2.57-4.5 8.4h3.94l-.2 1.2h-4l-2.66 11.8c-1.55 6.83-4.02 10.44-7.38 10.44-1.66 0-2.92-.95-2.92-2.25 0-.86.63-1.56 1.4-1.56.86 0 1.4.6 1.4 1.37 0 .5-.32.67-.32 1.08 0 .33.3.6.74.6 1.55 0 2.73-2 3.58-6l3.24-15.5h-3.35M1281.95 675.24l.83 9.2c3.42-4.3 4.3-5.67 4.3-6.8 0-.3-.15-.52-.57-.9-.4-.4-.53-.7-.53-1.08 0-.42.44-.8 1-.8.8 0 1.37.62 1.37 1.45 0 1.7-1.93 4.74-5.53 9.12l-.23.3c-.7.85-.94 1.1-1.17 1.1-.18 0-.24-.22-.3-.9l-.75-8.1-2.32 3.98c-.47.78-.94 1.64-1.43 2.58-.94 1.8-1.4 2.45-1.67 2.45-.24 0-.3-.2-.34-1.22l-.12-2.37c-.1-2.27-.4-5.06-.7-6.3-.24-.98-.47-1.1-1.23-1.1h-.73v-.35c.8-.13 1.7-.24 2.48-.44.34-.08.57-.2.76-.2.28 0 .3.07.5.9.36 1.78.72 5.04.83 7.33l5-7.93c.13-.2.2-.26.34-.26.15 0 .2.08.2.36M1303.58 686.56h-7.8v-30.2h7.8v.93h-3.06c-1.26 0-1.92.43-1.92 1.76v24.6c0 1.46.7 1.98 1.92 1.98h3.06v.92M1318.38 664.5l-.73 5.16h-.6c-.36-3.07-1.47-4.3-3.28-4.3-1.3 0-2.18.75-2.18 2.12 0 1 .55 2.07 2 3.76 1.83 2.14 2.5 3.58 2.5 5.02 0 3.07-2.26 4.95-5.32 4.95-.63 0-1.18-.03-2.03-.36-.7-.3-1.22-.33-1.62-.33-.4 0-.82.2-1.07.78h-.6l.74-5.87h.6c.5 3.52 1.77 5.04 3.68 5.04 1.74 0 2.8-1.04 2.8-2.85 0-1.2-.62-2.44-2.06-4.25-1.58-2-2.32-3.66-2.32-4.84 0-2.42 1.73-3.97 4.46-3.97.63 0 1.15.1 2.07.37.7.22 1.03.25 1.33.25.55 0 .8-.14 1.1-.66h.52M1337.1 665l-6.1 21.38c-.03.15-.07.3-.07.4 0 .7.74 1.15 2.1 1.15h.56v.6h-8.76v-.6c2.33-.15 2.96-.7 3.36-2.07l3.32-10.7c-2.95 4.68-4.83 6.05-7.67 6.05-2.33 0-3.7-1.65-3.7-4.27 0-5.83 5.76-12.4 10.82-12.4 1.5 0 2.47.62 2.84 2.28l.6-1.8h2.7m-3.84 2.55c0-1.22-.96-2.2-2.18-2.2-1.07 0-2.25.7-3.43 1.8-2.5 2.4-4.32 6.2-4.32 9.26 0 1.75.6 2.85 1.96 2.85.9 0 2.05-.48 3-1.32 2.52-2.18 4.96-7.3 4.96-10.38M1344.4 679.22c0 1.07-.95 2-2.06 2-1.14 0-2.03-.9-2.03-2.04 0-1.14.93-2.07 2.08-2.07 1.07 0 2.03 1 2.03 2.12M1354.63 665h3.43c.82-2.6 1.44-4.65 2.66-6.38 1.1-1.6 2.62-2.84 4.87-2.84 1.8 0 3.17.96 3.17 2.3 0 .8-.7 1.57-1.55 1.57-.67 0-1.37-.55-1.37-1.44 0-.6.37-.8.37-1.13 0-.3-.3-.48-.8-.48-2.08 0-3.44 2.57-4.5 8.4h3.94l-.22 1.2h-4L1358 678c-1.56 6.83-4.03 10.44-7.4 10.44-1.65 0-2.9-.95-2.9-2.25 0-.86.62-1.56 1.4-1.56.84 0 1.4.6 1.4 1.37 0 .5-.33.67-.33 1.08 0 .33.3.6.73.6 1.55 0 2.74-2 3.58-6l3.25-15.5h-3.36M1379.7 665l-.2 1.2h-3.1l-3.2 12.1c-.04.14-.08.4-.08.5 0 .5.23.6.56.6.6 0 1.18-.6 3-2.9l.47.24c-2.22 3.4-3.36 4.47-5.28 4.47-1 0-1.7-.43-1.7-1.36 0-.4.3-1.55.6-2.73l2.87-10.9h-2.77c-.03-.12-.03-.23-.03-.23 0-.4.33-.74 1.2-.93 1.2-.26 3.6-2.06 4.92-4.06.15-.22.37-.33.52-.33.22 0 .33.1.33.3 0 0 0 .18-.02.25l-1.04 3.8h2.96M1386.4 679.22c0 1.07-.95 2-2.05 2-1.15 0-2.03-.9-2.03-2.04 0-1.14.92-2.07 2.06-2.07 1.07 0 2.03 1 2.03 2.12M1396.7 675.17l-.14.84h-2.2l-2.27 8.57c-.03.1-.06.28-.06.36 0 .34.16.42.4.42.4 0 .83-.42 2.1-2.06l.35.17c-1.58 2.4-2.4 3.16-3.75 3.16-.7 0-1.2-.32-1.2-.97 0-.28.2-1.1.42-1.93l2.04-7.72h-1.95c-.03-.07-.03-.15-.03-.15 0-.3.24-.52.86-.65.84-.2 2.53-1.47 3.47-2.88.1-.15.27-.23.37-.23.16 0 .23.07.23.2 0 0 0 .13-.02.18l-.73 2.7h2.1M1401.28 680.52l.42-.9c.5-1.1 1.38-2.5 2.45-3.6.68-.72 1.46-1.2 2.06-1.2.74 0 1.24.56 1.24 1.34s-.44 1.4-1.23 1.4c-.46 0-.67-.28-.9-.67-.16-.27-.24-.37-.42-.37-.47 0-1.2.86-2.14 2.45-1.12 1.93-1.6 2.98-2.9 7.36h-1.98l2.1-7.62c.38-1.36.43-1.6.43-2.14 0-.55-.48-.68-1-.68-.2 0-.42.03-.8.08v-.44l4.04-.7.08.04M1419.55 683.44l.34.3c-1.97 2.37-2.6 2.86-3.64 2.86-.73 0-1.04-.3-1.04-1.07 0-.65.05-.86.6-3-1.96 2.95-3.47 4.1-5.3 4.1-1.46 0-2.6-1.05-2.6-3.03 0-4.05 3.98-8.77 7.45-8.77 1.13 0 1.88.55 2.1 1.5l.28-1.24.08-.1 1.6-.17.17.08c-.05.24-.08.3-.15.56-1.23 4.46-2.33 8.95-2.33 9.47 0 .18.16.34.37.34.22 0 .56-.2 1.35-1.07m-1.86-7.28c0-.9-.56-1.52-1.47-1.52-1.17 0-2.32.8-3.42 2.4-1.08 1.65-2 3.97-2 5.62 0 1.43.63 1.93 1.57 1.93 1.3 0 2.53-1.44 3.3-2.56 1.24-1.78 2.02-4.03 2.02-5.88M1427.43 670.7c0 .74-.6 1.34-1.28 1.34-.75 0-1.25-.55-1.25-1.4 0-.8.52-1.37 1.23-1.37.7 0 1.3.68 1.3 1.44m-1.1 12.67l.35.28c-1.44 2.2-2.27 2.98-3.58 2.98-.86 0-1.28-.47-1.28-1.44 0-.53.18-1.44.58-2.9l1.25-4.62c.13-.47.23-.94.23-1.15 0-.52-.26-.6-1.67-.63v-.42c1.03-.08 1.55-.15 4.2-.65l.1.08-2.46 8.96c-.13.45-.26.78-.26 1.15 0 .27.16.4.36.4.45 0 1.07-.55 2.2-2.03M1439.83 683.3l.37.33c-1.78 2.42-2.43 2.95-3.66 2.95-.65 0-1.22-.42-1.22-1.4 0-.27.05-.6.4-1.97l1.16-4.22c.2-.8.37-1.75.37-2.06 0-.47-.24-.76-.63-.76-1.04 0-2.22 1.28-3.86 3.7-1.18 1.76-1.4 2.36-2.6 6.48h-1.97l2.5-9.13c.02-.12.05-.28.05-.44 0-.52-.37-.68-1.7-.7v-.42c2.12-.42 2.85-.52 4.23-.8l.1.04-1.75 5.7c2.62-4.18 4.36-5.75 6.03-5.75 1.13 0 1.7.65 1.7 1.6 0 .46-.1 1-.26 1.56l-1.46 5.3c-.26.93-.37 1.37-.37 1.58 0 .23.1.47.42.47.36 0 .83-.42 1.58-1.38.2-.2.37-.45.55-.68M1442.47 673.03l-.42-.1c.76-2.48 2.4-4.23 5.1-4.23 2.44 0 4.1 1.43 4.1 3.57 0 1.26-.7 2.56-2.44 3.6 1.16.5 1.63.8 2.18 1.4.73.8 1.14 2 1.14 3.35 0 1.4-.44 2.67-1.2 3.66-1.25 1.67-3.73 2.43-6.05 2.43-1.9 0-2.93-.54-2.93-1.48 0-.55.47-.94 1.07-.94.46 0 .88.16 1.6.68.97.68 1.52.8 2.25.8 1.93 0 3.4-1.77 3.4-4 0-1.97-.92-3.25-2.72-3.77-.57-.2-1.17-.27-2.66-.27v-.37c1-.34 1.67-.62 2.2-.94 1.27-.73 2.1-1.9 2.1-3.5 0-1.77-1.1-2.66-2.8-2.66-1.63 0-2.83.84-3.9 2.77M1472.86 686.56h-7.8v-.92h3.26c1.3 0 1.74-.55 1.74-1.7v-24.66c0-1.3-.48-2-1.9-2h-3.1v-.9h7.8v30.18M1477.18 656.44l.44-.6c5.65 3.4 9 9.57 9 15.85 0 6.82-3.24 12.06-9.1 15.64l-.34-.6c5.24-4.3 6.28-7.78 6.28-14.94 0-6.9-.93-11.15-6.28-15.36M1500.77 663.84l-1.4 3.57h-10.2v-.3l4.64-4.93c2.46-2.6 3.4-4.57 3.4-6.8 0-2.36-1.4-3.67-3.63-3.67-1.88 0-2.8.84-3.84 3.4l-.54-.14c.53-3.05 2.2-5.2 5.42-5.2 2.94 0 4.82 2.02 4.82 4.6 0 2.07-1 4.02-3.34 6.48l-4.3 4.6h6.1c1.1 0 1.65-.3 2.5-1.76"/><path d="M1094.7 700h469.05v33.6H1094.7z" fill="#fff" fill-opacity="0"/><path d="M1119.17 718.47h-10.04v10.05h-2.54v-10.05h-10.06v-2.54h10.05V705.9h2.53v10.03h10.04v2.54M1128.03 725.3c0 1.1-1 2.06-2.16 2.06-1.2 0-2.12-.92-2.12-2.1 0-1.2.97-2.17 2.16-2.17 1.12 0 2.13 1.03 2.13 2.2M1144.07 725.3c0 1.1-1 2.06-2.15 2.06-1.2 0-2.12-.92-2.12-2.1 0-1.2.96-2.17 2.16-2.17 1.1 0 2.1 1.03 2.1 2.2M1160.12 725.3c0 1.1-1 2.06-2.15 2.06-1.2 0-2.12-.92-2.12-2.1 0-1.2.96-2.17 2.16-2.17 1.12 0 2.12 1.03 2.12 2.2M1180.75 732.94h-8.12v-31.48h8.12v.97h-3.2c-1.3 0-2 .46-2 1.84v25.63c0 1.54.74 2.08 2 2.08h3.2v.96M1192.22 703.9c0 1.07-.9 1.95-1.9 1.95-1.1 0-1.83-.8-1.83-2.04 0-1.18.76-2.03 1.8-2.03 1.03 0 1.92 1 1.92 2.12m-1.62 18.65l.5.43c-2.1 3.23-3.34 4.38-5.27 4.38-1.27 0-1.88-.7-1.88-2.1 0-.78.26-2.13.84-4.28l1.84-6.82c.2-.7.35-1.38.35-1.7 0-.76-.4-.87-2.48-.9v-.63c1.5-.1 2.27-.23 6.16-.96l.15.1-3.6 13.2c-.2.67-.4 1.17-.4 1.7 0 .4.23.6.54.6.65 0 1.58-.82 3.23-3.02M1210.5 722.44l.54.5c-2.62 3.58-3.58 4.35-5.4 4.35-.95 0-1.8-.63-1.8-2.1 0-.38.08-.88.62-2.88l1.7-6.23c.3-1.2.53-2.6.53-3.05 0-.7-.36-1.12-.93-1.12-1.54 0-3.27 1.9-5.7 5.47-1.73 2.58-2.04 3.46-3.85 9.54h-2.88l3.7-13.47c.03-.2.07-.42.07-.65 0-.77-.53-1-2.5-1.04v-.62c3.12-.6 4.2-.77 6.24-1.2l.15.1-2.58 8.38c3.84-6.16 6.42-8.47 8.9-8.47 1.64 0 2.5.96 2.5 2.35 0 .7-.17 1.5-.4 2.3l-2.15 7.82c-.4 1.38-.54 2.04-.54 2.35 0 .33.15.68.6.68.55 0 1.25-.62 2.36-2.04.26-.3.53-.66.8-1M1225.5 722.82l.63.4c-2.35 2.95-4.4 4.14-7.28 4.14-3.58 0-5.66-2-5.66-5.92 0-3.58 2-6.93 4.73-9.12 1.88-1.5 4.08-2.35 6.43-2.35 2.34 0 4.04 1.3 4.04 3.12 0 1.03-.85 1.83-1.85 1.83-1.08 0-1.5-.77-1.5-1.54 0-.7.58-1.12.58-1.85 0-.47-.54-.77-1.43-.77-1.54 0-3.08.7-4.2 1.84-2.15 2.27-3.5 5.55-3.5 8.97 0 2.76 1.24 4.38 3.43 4.38 2.04 0 3.5-.96 5.58-3.16M1239.9 700.85l-5.9 22.5c-.18.7-.3 1.36-.3 1.67 0 .46.28.7.66.7.58 0 1.46-.63 2.58-2.2l.96-1.35.54.38c-2.3 3.66-3.73 4.8-5.8 4.8-1.24 0-1.9-.72-1.9-2.14 0-.3.04-.76.16-1.15l5.27-20.16c.12-.4.12-.63.12-.74 0-.47-.67-.85-1.9-.85h-.7v-.6c2.28-.28 3.7-.54 5.97-1.04M1257.65 722.36l.53.35c-2.5 3.82-3.5 4.6-5.3 4.6-1.16 0-1.85-.67-1.85-1.86 0-.85.5-3.43 1.73-7.58-4.54 7.46-6.47 9.5-9.2 9.5-1.35 0-2.04-.6-2.04-2.04 0-.73.35-2.1 1.04-4.92l1.35-5.35c.3-1.27.54-2.27.54-2.58 0-.27-.2-.58-.42-.7-.35-.18-.46-.22-1.92-.22V711c2.2-.26 3.58-.53 5.77-1.03l.15.1-3.42 13.68c-.04.1-.12.46-.12.6 0 .6.2.97.77.97 1.3 0 3.08-2.04 5.47-5.65 1.8-2.74 2.35-4.2 4.23-9.35h2.85l-3.04 11.5c-.2.73-.73 2.54-.73 3 0 .43.15.66.42.66.62 0 1.23-.54 3.2-3.12M1279.24 700.66l.23.23-1.5 5.84-2.3 8.42c-1.2 4.4-2.52 8.86-2.52 9.47 0 .46.2.77.7.77.65 0 1.08-.34 3.15-2.73l.47.38c-1.9 2.8-3.74 4.4-5.66 4.4-1 0-1.57-.7-1.57-1.74 0-.88.08-1.5.5-3.42-2.27 3.8-4.23 5.08-6.85 5.08-2.5 0-4.12-1.57-4.12-4.5 0-6.23 6.24-12.9 11.24-12.9 1.62 0 2.27.74 2.5 2.24h.04l1.73-6.27c.58-2.04.54-2.2.54-2.73 0-.8-.34-.93-2.45-1v-.66c2.46-.23 3.85-.46 5.9-.88m-6.36 12.4c0-1.4-.94-2.2-1.82-2.2-1.08 0-2.43.65-3.5 1.76-2.55 2.7-4.47 6.9-4.47 10.1 0 1.76.9 2.8 2.24 2.8 3.54 0 7.55-6.62 7.55-12.47M1293.24 722.75l.47.46c-2.2 2.7-4.65 4.16-7.84 4.16-3.12 0-5.2-2.07-5.2-5.27 0-5.97 5.73-12.13 11.5-12.13 2.05 0 3.16 1 3.16 2.62 0 3.3-4.04 6.3-10.93 7.18-.4.77-.4 1.77-.4 2.35 0 2.12 1.43 3.5 3.6 3.5 1.68 0 2.87-.6 5.64-2.88m-7.92-5.5l-.66 1.7c3.3-.82 4.77-1.5 6.2-2.86 1.2-1.17 1.92-2.55 1.92-3.75 0-.92-.27-1.5-1.34-1.5-2.2 0-4.82 2.97-6.12 6.4M1325.07 722.67l.5.42c-2.88 3.5-3.8 4.23-5.35 4.23-1.07 0-1.54-.47-1.54-1.58 0-.96.08-1.27.9-4.43-2.9 4.35-5.13 6.04-7.82 6.04-2.16 0-3.85-1.54-3.85-4.46 0-5.97 5.9-12.93 11-12.93 1.67 0 2.8.8 3.1 2.23l.42-1.85.1-.1 2.36-.28.27.1c-.08.36-.12.44-.23.82-1.8 6.57-3.43 13.2-3.43 13.96 0 .27.22.5.53.5.35 0 .85-.3 2-1.57m-2.73-10.75c0-1.35-.8-2.23-2.15-2.23-1.74 0-3.43 1.2-5.05 3.54-1.6 2.42-2.96 5.85-2.96 8.27 0 2.12.92 2.85 2.3 2.85 1.93 0 3.74-2.12 4.9-3.77 1.8-2.6 2.96-5.92 2.96-8.65M1337.3 700.85l-5.88 22.5c-.2.7-.3 1.36-.3 1.67 0 .46.26.7.65.7.58 0 1.46-.63 2.58-2.2l.96-1.35.55.38c-2.3 3.66-3.74 4.8-5.8 4.8-1.24 0-1.9-.72-1.9-2.14 0-.3.04-.76.15-1.15l5.28-20.16c.1-.4.1-.63.1-.74 0-.47-.64-.85-1.87-.85h-.7v-.6c2.3-.28 3.7-.54 5.98-1.04M1348.05 700.85l-5.9 22.5c-.18.7-.3 1.36-.3 1.67 0 .46.27.7.66.7.58 0 1.47-.63 2.58-2.2l.97-1.35.54.38c-2.32 3.66-3.75 4.8-5.83 4.8-1.23 0-1.88-.72-1.88-2.14 0-.3.03-.76.14-1.15l5.27-20.16c.13-.4.13-.63.13-.74 0-.47-.65-.85-1.9-.85h-.68v-.6c2.27-.28 3.7-.54 5.97-1.04M1370.18 710.47l-.2 1.23h-3.23l-3.35 12.62c-.03.16-.07.43-.07.54 0 .5.23.62.57.62.62 0 1.24-.62 3.12-3.04l.5.27c-2.3 3.55-3.5 4.66-5.5 4.66-1.04 0-1.77-.46-1.77-1.42 0-.42.3-1.62.6-2.85l3.02-11.4h-2.9c-.03-.1-.03-.23-.03-.23 0-.42.35-.77 1.27-.96 1.24-.26 3.74-2.15 5.13-4.23.15-.23.38-.34.54-.34.23 0 .34.1.34.3 0 0 0 .2-.02.28l-1.08 3.97h3.08M1376.95 718.36l.62-1.35c.73-1.6 2.04-3.64 3.6-5.3 1-1.04 2.17-1.73 3.05-1.73 1.08 0 1.8.8 1.8 1.96s-.64 2.08-1.8 2.08c-.7 0-1-.4-1.34-1-.23-.38-.35-.53-.62-.53-.7 0-1.77 1.27-3.15 3.62-1.65 2.84-2.34 4.38-4.27 10.84h-2.92l3.13-11.24c.54-2 .6-2.34.6-3.15 0-.8-.68-1-1.45-1-.3 0-.62.04-1.2.1v-.64l5.97-1.03.12.08M1403.9 722.67l.5.42c-2.9 3.5-3.82 4.23-5.36 4.23-1.08 0-1.54-.47-1.54-1.58 0-.96.08-1.27.9-4.43-2.9 4.35-5.13 6.04-7.83 6.04-2.15 0-3.84-1.54-3.84-4.46 0-5.97 5.88-12.93 11-12.93 1.66 0 2.77.8 3.08 2.23l.44-1.85.1-.1 2.36-.28.27.1c-.08.36-.12.44-.23.82-1.8 6.57-3.43 13.2-3.43 13.96 0 .27.24.5.55.5.35 0 .85-.3 2-1.57m-2.73-10.75c0-1.35-.8-2.23-2.16-2.23-1.73 0-3.42 1.2-5.04 3.54-1.6 2.42-2.96 5.85-2.96 8.27 0 2.12.92 2.85 2.3 2.85 1.93 0 3.74-2.12 4.9-3.77 1.8-2.6 2.96-5.92 2.96-8.65M1415.5 703.9c0 1.07-.87 1.95-1.87 1.95-1.12 0-1.85-.8-1.85-2.04 0-1.18.77-2.03 1.8-2.03 1.05 0 1.93 1 1.93 2.12m-1.6 18.65l.5.43c-2.12 3.23-3.35 4.38-5.28 4.38-1.27 0-1.88-.7-1.88-2.1 0-.78.27-2.13.85-4.28l1.83-6.82c.2-.7.35-1.38.35-1.7 0-.76-.4-.87-2.46-.9v-.63c1.5-.1 2.27-.23 6.15-.96l.16.1-3.62 13.2c-.18.67-.37 1.17-.37 1.7 0 .4.23.6.53.6.66 0 1.58-.82 3.24-3.02M1433.8 722.44l.53.5c-2.6 3.58-3.58 4.35-5.4 4.35-.95 0-1.8-.63-1.8-2.1 0-.38.08-.88.62-2.88l1.7-6.23c.3-1.2.53-2.6.53-3.05 0-.7-.34-1.12-.92-1.12-1.54 0-3.27 1.9-5.7 5.47-1.73 2.58-2.04 3.46-3.84 9.54h-2.9l3.7-13.47c.04-.2.08-.42.08-.65 0-.77-.54-1-2.5-1.04v-.62c3.12-.6 4.2-.77 6.23-1.2l.16.1-2.6 8.38c3.86-6.16 6.44-8.47 8.9-8.47 1.65 0 2.5.96 2.5 2.35 0 .7-.15 1.5-.38 2.3l-2.16 7.82c-.38 1.38-.54 2.04-.54 2.35 0 .33.16.68.62.68.54 0 1.23-.62 2.35-2.04.26-.3.52-.66.8-1M1463.93 722.4l.5.5c-2.35 3.35-3.66 4.4-5.62 4.4-1.03 0-1.68-.63-1.68-1.63 0-.46.27-1.65.77-3.54l2.1-7.97c.16-.6.27-1.1.27-1.27 0-.58-.2-.97-1.08-.97-1.4 0-3.85 2.35-5.86 5.4-1.53 2.34-2.15 3.68-3.7 9.6h-2.88l5.62-21.3c.3-1.2.5-1.86.5-2.4 0-.65-.88-.96-1.57-.96h-1.03v-.58c2.3-.28 3.8-.54 6.04-1.04l.28.23-4.66 17.2c3.46-5.63 6.47-8.13 8.85-8.13 1.77 0 2.5 1.15 2.5 2.58 0 .96-.7 3.8-1.84 7.43-.66 2-1.27 4.38-1.27 4.8 0 .4.27.7.6.7.63 0 1.1-.46 3.17-3.08M1483.3 715.36c0 2.92-1.55 6.3-4.1 8.8-2.22 2.24-4.7 3.2-7.23 3.2-3.62 0-5.66-2-5.66-5.35 0-4.3 2.9-8.72 6.94-10.88 1.5-.8 3.04-1.15 4.62-1.15 3.12 0 5.43 2 5.43 5.4m-3.25-.98c0-2.35-1.07-3.62-2.73-3.62-1.7 0-3.4 1.2-4.92 3.5-1.78 2.7-2.85 5.73-2.85 8.77 0 2.3 1.2 3.5 3 3.5 1.7 0 3.16-1.1 4.66-3.2 1.78-2.4 2.85-6.03 2.85-8.96M1502.3 722.36l.54.35c-2.5 3.82-3.5 4.6-5.3 4.6-1.17 0-1.86-.67-1.86-1.86 0-.85.5-3.43 1.73-7.58-4.53 7.46-6.45 9.5-9.2 9.5-1.33 0-2.03-.6-2.03-2.04 0-.73.35-2.1 1.04-4.92l1.36-5.35c.3-1.27.54-2.27.54-2.58 0-.27-.2-.58-.43-.7-.34-.18-.46-.22-1.92-.22V711c2.2-.26 3.58-.53 5.77-1.03l.16.1-3.43 13.68c-.04.1-.1.46-.1.6 0 .6.18.97.76.97 1.3 0 3.1-2.04 5.47-5.65 1.8-2.74 2.35-4.2 4.23-9.35h2.85l-3.04 11.5c-.18.73-.72 2.54-.72 3 0 .43.15.66.42.66.62 0 1.24-.54 3.2-3.12M1517.9 709.93l-.78 5.4h-.62c-.38-3.2-1.54-4.48-3.43-4.48-1.34 0-2.27.77-2.27 2.2 0 1.04.58 2.15 2.08 3.92 1.93 2.24 2.62 3.74 2.62 5.24 0 3.2-2.35 5.16-5.54 5.16-.66 0-1.23-.03-2.12-.38-.73-.3-1.27-.35-1.7-.35-.42 0-.84.2-1.1.8h-.62l.77-6.1h.6c.54 3.65 1.85 5.23 3.85 5.23 1.8 0 2.92-1.08 2.92-2.97 0-1.24-.65-2.55-2.15-4.43-1.66-2.08-2.43-3.8-2.43-5.04 0-2.54 1.8-4.16 4.65-4.16.66 0 1.2.1 2.16.38.74.23 1.08.27 1.4.27.57 0 .84-.15 1.15-.7h.54M1532.6 722.75l.45.46c-2.2 2.7-4.66 4.16-7.85 4.16-3.12 0-5.2-2.07-5.2-5.27 0-5.97 5.74-12.13 11.5-12.13 2.05 0 3.17 1 3.17 2.62 0 3.3-4.05 6.3-10.93 7.18-.4.77-.4 1.77-.4 2.35 0 2.12 1.43 3.5 3.6 3.5 1.68 0 2.88-.6 5.65-2.88m-7.94-5.5l-.66 1.7c3.3-.82 4.78-1.5 6.2-2.86 1.2-1.17 1.93-2.55 1.93-3.75 0-.92-.27-1.5-1.35-1.5-2.2 0-4.8 2.97-6.12 6.4M1549.98 709.93l-.77 5.4h-.6c-.4-3.2-1.54-4.48-3.43-4.48-1.35 0-2.27.77-2.27 2.2 0 1.04.58 2.15 2.08 3.92 1.92 2.24 2.62 3.74 2.62 5.24 0 3.2-2.35 5.16-5.55 5.16-.65 0-1.23-.03-2.1-.38-.74-.3-1.28-.35-1.7-.35-.43 0-.85.2-1.12.8h-.62l.78-6.1h.62c.54 3.65 1.85 5.23 3.85 5.23 1.8 0 2.92-1.08 2.92-2.97 0-1.24-.65-2.55-2.15-4.43-1.66-2.08-2.43-3.8-2.43-5.04 0-2.54 1.8-4.16 4.65-4.16.65 0 1.2.1 2.15.38.73.23 1.08.27 1.4.27.57 0 .84-.15 1.14-.7h.54M1560.34 732.94h-8.13v-.96h3.4c1.35 0 1.8-.57 1.8-1.77v-25.7c0-1.34-.5-2.07-1.95-2.07h-3.24v-.97h8.14v31.48"/><path d="M800 760h200v120H800z" stroke="#000" stroke-width="2" fill="#f5b5c8"/><g><use xlink:href="#i" transform="matrix(1,0,0,1,805,765) translate(7.327160493827137 42.07638888888889)"/><use xlink:href="#j" transform="matrix(1,0,0,1,805,765) translate(147.15432098765433 42.07638888888889)"/><use xlink:href="#k" transform="matrix(1,0,0,1,805,765) translate(45.87037037037037 79.40972222222223)"/><use xlink:href="#l" transform="matrix(1,0,0,1,805,765) translate(119.9320987654321 79.40972222222223)"/></g><defs><path d="M135-143c-3-34-86-38-87 0 15 53 115 12 119 90S17 21 10-45l28-5c4 36 97 45 98 0-10-56-113-15-118-90-4-57 82-63 122-42 12 7 21 19 24 35" id="m"/><path d="M145-31C134-9 116 4 85 4 32 4 16-35 15-94c0-59 17-99 70-100 32-1 48 14 60 33 0-11-1-24 2-32h30l-1 268h-32zM93-21c41 0 51-33 51-76s-8-73-50-73c-40 0-46 35-46 75s5 74 45 74" id="n"/><path d="M84 4C-5 8 30-112 23-190h32v120c0 31 7 50 39 49 72-2 45-101 50-169h31l1 190h-30c-1-10 1-25-2-33-11 22-28 36-60 37" id="o"/><path d="M141-36C126-15 110 5 73 4 37 3 15-17 15-53c-1-64 63-63 125-63 3-35-9-54-41-54-24 1-41 7-42 31l-33-3c5-37 33-52 76-52 45 0 72 20 72 64v82c-1 20 7 32 28 27v20c-31 9-61-2-59-35zM48-53c0 20 12 33 32 33 41-3 63-29 60-74-43 2-92-5-92 41" id="p"/><path d="M114-163C36-179 61-72 57 0H25l-1-190h30c1 12-1 29 2 39 6-27 23-49 58-41v29" id="q"/><path d="M100-194c63 0 86 42 84 106H49c0 40 14 67 53 68 26 1 43-12 49-29l28 8c-11 28-37 45-77 45C44 4 14-33 15-96c1-61 26-98 85-98zm52 81c6-60-76-77-97-28-3 7-6 17-6 28h103" id="r"/><g id="a"><use transform="matrix(0.07407407407407408,0,0,0.07407407407407408,0,0)" xlink:href="#m"/><use transform="matrix(0.07407407407407408,0,0,0.07407407407407408,13.333333333333336,0)" xlink:href="#n"/><use transform="matrix(0.07407407407407408,0,0,0.07407407407407408,28.148148148148152,0)" xlink:href="#o"/><use transform="matrix(0.07407407407407408,0,0,0.07407407407407408,42.96296296296297,0)" xlink:href="#p"/><use transform="matrix(0.07407407407407408,0,0,0.07407407407407408,57.777777777777786,0)" xlink:href="#q"/><use transform="matrix(0.07407407407407408,0,0,0.07407407407407408,66.59259259259261,0)" xlink:href="#r"/></g><path d="M101-234c-31-9-42 10-38 44h38v23H63V0H32v-167H5v-23h27c-7-52 17-82 69-68v24" id="s"/><path d="M59-47c-2 24 18 29 38 22v24C64 9 27 4 27-40v-127H5v-23h24l9-43h21v43h35v23H59v120" id="t"/><g id="b"><use transform="matrix(0.07407407407407408,0,0,0.07407407407407408,0,0)" xlink:href="#s"/><use transform="matrix(0.07407407407407408,0,0,0.07407407407407408,7.407407407407408,0)" xlink:href="#r"/><use transform="matrix(0.07407407407407408,0,0,0.07407407407407408,22.222222222222225,0)" xlink:href="#r"/><use transform="matrix(0.07407407407407408,0,0,0.07407407407407408,37.03703703703704,0)" xlink:href="#t"/></g><path d="M87 75C49 33 22-17 22-94c0-76 28-126 65-167h31c-38 41-64 92-64 168S80 34 118 75H87" id="u"/><path d="M33 0v-38h34V0H33" id="v"/><g id="c"><use transform="matrix(0.07407407407407408,0,0,0.07407407407407408,0,0)" xlink:href="#u"/><use transform="matrix(0.07407407407407408,0,0,0.07407407407407408,8.814814814814817,0)" xlink:href="#m"/><use transform="matrix(0.07407407407407408,0,0,0.07407407407407408,22.148148148148152,0)" xlink:href="#n"/><use transform="matrix(0.07407407407407408,0,0,0.07407407407407408,36.96296296296297,0)" xlink:href="#v"/></g><path d="M33-261c38 41 65 92 65 168S71 34 33 75H2C39 34 66-17 66-93S39-220 2-261h31" id="w"/><g id="d"><use transform="matrix(0.07407407407407408,0,0,0.07407407407407408,0,0)" xlink:href="#s"/><use transform="matrix(0.07407407407407408,0,0,0.07407407407407408,7.407407407407408,0)" xlink:href="#t"/><use transform="matrix(0.07407407407407408,0,0,0.07407407407407408,14.814814814814817,0)" xlink:href="#v"/><use transform="matrix(0.07407407407407408,0,0,0.07407407407407408,22.222222222222225,0)" xlink:href="#w"/></g><path d="M115-194c55 1 70 41 70 98S169 2 115 4C84 4 66-9 55-30l1 105H24l-1-265h31l2 30c10-21 28-34 59-34zm-8 174c40 0 45-34 45-75s-6-73-45-74c-42 0-51 32-51 76 0 43 10 73 51 73" id="x"/><path d="M24-231v-30h32v30H24zM24 0v-190h32V0H24" id="y"/><path d="M96-169c-40 0-48 33-48 73s9 75 48 75c24 0 41-14 43-38l32 2c-6 37-31 61-74 61-59 0-76-41-82-99-10-93 101-131 147-64 4 7 5 14 7 22l-32 3c-4-21-16-35-41-35" id="z"/><g id="e"><use transform="matrix(0.07407407407407408,0,0,0.07407407407407408,0,0)" xlink:href="#x"/><use transform="matrix(0.07407407407407408,0,0,0.07407407407407408,14.814814814814817,0)" xlink:href="#q"/><use transform="matrix(0.07407407407407408,0,0,0.07407407407407408,23.629629629629633,0)" xlink:href="#y"/><use transform="matrix(0.07407407407407408,0,0,0.07407407407407408,29.481481481481488,0)" xlink:href="#z"/><use transform="matrix(0.07407407407407408,0,0,0.07407407407407408,42.814814814814824,0)" xlink:href="#r"/></g><path d="M194-70c0 46-34 64-81 66v29H91V-4C42-5 12-27 4-67l30-6c5 28 25 41 57 43v-87c-38-9-76-20-76-67 1-42 33-58 76-59v-23h22v23c45 0 67 20 76 56l-31 6c-5-23-18-35-45-37v78c41 10 81 20 81 70zm-81 41c51 7 71-66 19-77-6-2-12-4-19-6v83zM91-219c-47-6-63 57-18 69 6 2 12 3 18 5v-74" id="A"/><g id="f"><use transform="matrix(0.07407407407407408,0,0,0.07407407407407408,0,0)" xlink:href="#u"/><use transform="matrix(0.07407407407407408,0,0,0.07407407407407408,8.814814814814817,0)" xlink:href="#A"/><use transform="matrix(0.07407407407407408,0,0,0.07407407407407408,23.629629629629633,0)" xlink:href="#w"/></g><path d="M137-103V0h-34v-103L8-248h37l75 118 75-118h37" id="B"/><use transform="matrix(0.07407407407407408,0,0,0.07407407407407408,0,0)" xlink:href="#B" id="g"/><path d="M195 0l-74-108L45 0H8l94-129-87-119h37l69 98 67-98h37l-84 118L233 0h-38" id="C"/><use transform="matrix(0.07407407407407408,0,0,0.07407407407407408,0,0)" xlink:href="#C" id="h"/><path fill="#fff" d="M230 0l2-204L168 0h-37L68-204 70 0H24v-248h70l56 185 57-185h69V0h-46" id="D"/><path fill="#fff" d="M25-224v-37h50v37H25zM25 0v-190h50V0H25" id="E"/><path fill="#fff" d="M135-194c87-1 58 113 63 194h-50c-7-57 23-157-34-157-59 0-34 97-39 157H25l-1-190h47c2 12-1 28 3 38 12-26 28-41 61-42" id="F"/><path fill="#fff" d="M220-157c-53 9-28 100-34 157h-49v-107c1-27-5-49-29-50C55-147 81-57 75 0H25l-1-190h47c2 12-1 28 3 38 10-53 101-56 108 0 13-22 24-43 59-42 82 1 51 116 57 194h-49v-107c-1-25-5-48-29-50" id="G"/><path fill="#fff" d="M12 0v-35l95-120H19v-35h142v35L67-36h103V0H12" id="H"/><path fill="#fff" d="M185-48c-13 30-37 53-82 52C43 2 14-33 14-96s30-98 90-98c62 0 83 45 84 108H66c0 31 8 55 39 56 18 0 30-7 34-22zm-45-69c5-46-57-63-70-21-2 6-4 13-4 21h74" id="I"/><g id="i"><use transform="matrix(0.08641975308641976,0,0,0.08641975308641976,0,0)" xlink:href="#D"/><use transform="matrix(0.08641975308641976,0,0,0.08641975308641976,25.83950617283951,0)" xlink:href="#E"/><use transform="matrix(0.08641975308641976,0,0,0.08641975308641976,34.48148148148149,0)" xlink:href="#F"/><use transform="matrix(0.08641975308641976,0,0,0.08641975308641976,53.407407407407426,0)" xlink:href="#E"/><use transform="matrix(0.08641975308641976,0,0,0.08641975308641976,62.04938271604939,0)" xlink:href="#G"/><use transform="matrix(0.08641975308641976,0,0,0.08641975308641976,89.70370370370374,0)" xlink:href="#E"/><use transform="matrix(0.08641975308641976,0,0,0.08641975308641976,98.34567901234568,0)" xlink:href="#H"/><use transform="matrix(0.08641975308641976,0,0,0.08641975308641976,113.90123456790124,0)" xlink:href="#I"/></g><path fill="#fff" d="M136-208V0H84v-208H4v-40h212v40h-80" id="J"/><path fill="#fff" d="M110-194c64 0 96 36 96 99 0 64-35 99-97 99-61 0-95-36-95-99 0-62 34-99 96-99zm-1 164c35 0 45-28 45-65 0-40-10-65-43-65-34 0-45 26-45 65 0 36 10 65 43 65" id="K"/><g id="j"><use transform="matrix(0.08641975308641976,0,0,0.08641975308641976,0,0)" xlink:href="#J"/><use transform="matrix(0.08641975308641976,0,0,0.08641975308641976,16.592592592592595,0)" xlink:href="#K"/></g><path fill="#fff" d="M76-208v77h127v40H76V0H24v-248h183v40H76" id="L"/><path fill="#fff" d="M88-194c31-1 46 15 58 34l-1-101h50l1 261h-48c-2-10 0-23-3-31C134-8 116 4 84 4 32 4 16-41 15-95c0-56 19-97 73-99zm17 164c33 0 40-30 41-66 1-37-9-64-41-64s-38 30-39 65c0 43 13 65 39 65" id="M"/><g id="k"><use transform="matrix(0.08641975308641976,0,0,0.08641975308641976,0,0)" xlink:href="#L"/><use transform="matrix(0.08641975308641976,0,0,0.08641975308641976,18.925925925925927,0)" xlink:href="#E"/><use transform="matrix(0.08641975308641976,0,0,0.08641975308641976,27.567901234567906,0)" xlink:href="#F"/><use transform="matrix(0.08641975308641976,0,0,0.08641975308641976,46.49382716049383,0)" xlink:href="#M"/></g><path fill="#fff" d="M231 0h-52l-39-155L100 0H48L-1-190h46L77-45c9-52 24-97 36-145h53l37 145 32-145h46zm-26-213v5h-28c-13-11-23-24-37-34l-37 34H75c9-26 32-39 45-61h41" id="N"/><use transform="matrix(0.08641975308641976,0,0,0.08641975308641976,0,0)" xlink:href="#N" id="l"/></defs></g></svg>